%
M48
M72
T01C0.0240
T02C0.0315
T03C0.0320
T04C0.0354
T05C0.0394
T06C0.0400
T07C0.0470
%
T01
X64867Y23331
X59552Y35733
X64867Y26875
T02
X44596Y35695
T03
X27895Y12389
X30895Y12389
T04
X52567Y11674
X52567Y12461
X53355Y11674
X53355Y12461
X54142Y11674
X54142Y12461
X21386Y19673
X21386Y20461
T05
X25246Y42735
X14626Y59680
X16742Y39800
X68269Y59157
X41286Y47240
X43685Y63839
T06
X53501Y28828
X54501Y28828
X55501Y28828
X56501Y28828
X57501Y28828
X58501Y28828
X59501Y28828
X52501Y28828
X51501Y9828
X52501Y9828
X53501Y9828
X54501Y9828
X55501Y9828
X56501Y9828
X57501Y9828
X50501Y9828
X44501Y28828
X45501Y28828
X46501Y28828
X47501Y28828
X48501Y28828
X49501Y28828
X50501Y28828
X43501Y28828
X42501Y9828
X43501Y9828
X44501Y9828
X45501Y9828
X46501Y9828
X47501Y9828
X48501Y9828
X41501Y9828
X33901Y9828
X34901Y9828
X35901Y9828
X36901Y9828
X37901Y9828
X38901Y9828
X39901Y9828
X32901Y9828
X61501Y17828
X60501Y17828
X61501Y16828
X60501Y16828
X61501Y15828
X60501Y15828
X61501Y14828
X60501Y14828
X61501Y13828
X60501Y13828
X61501Y12828
X60501Y12828
X61501Y11828
X60501Y11828
X61501Y10828
X60501Y10828
X61501Y25828
X60501Y25828
X61501Y24828
X60501Y24828
X61501Y23828
X60501Y23828
X61501Y22828
X60501Y22828
X61501Y21828
X60501Y21828
X61501Y20828
X60501Y20828
X61501Y19828
X60501Y19828
X61501Y18828
X60501Y18828
X60501Y26828
X61501Y26828
X60501Y9828
X61501Y9828
X36501Y28828
X37501Y28828
X38501Y28828
X39501Y28828
X40501Y28828
X41501Y28828
X31901Y9828
X30901Y9828
X35501Y28828
X34501Y28828
X49501Y19828
X48501Y19828
X49501Y18828
X48501Y18828
X49501Y17828
X48501Y17828
X53639Y46465
X53639Y47465
X53639Y48465
X53639Y49465
X53639Y50465
X53639Y51465
X53639Y52465
X53639Y45465
X53639Y37865
X53639Y38865
X53639Y39865
X53639Y40865
X53639Y41865
X53639Y42865
X53639Y43865
X53639Y36865
X53639Y35865
X53639Y34865
X72639Y48465
X72639Y49465
X72639Y50465
X72639Y51465
X72639Y52465
X72639Y47465
X72639Y40465
X72639Y41465
X72639Y42465
X72639Y43465
X72639Y44465
X72639Y45465
X72639Y39465
X72639Y38465
X63639Y53515
X63639Y52515
X62639Y53515
X62639Y52515
X61639Y53515
X61639Y52515
X13765Y46465
X13765Y47465
X13765Y48465
X13765Y49465
X13765Y50465
X13765Y51465
X13765Y52465
X13765Y45465
X13765Y37865
X13765Y38865
X13765Y39865
X13765Y40865
X13765Y41865
X13765Y42865
X13765Y43865
X13765Y36865
X13765Y35865
X13765Y34865
X32765Y48465
X32765Y49465
X32765Y50465
X32765Y51465
X32765Y52465
X32765Y47465
X32765Y40465
X32765Y41465
X32765Y42465
X32765Y43465
X32765Y44465
X32765Y45465
X32765Y39465
X32765Y38465
X23765Y53515
X23765Y52515
X22765Y53515
X22765Y52515
X21765Y53515
X21765Y52515
X29366Y64880
X29366Y65880
X29366Y66880
X30366Y64880
X30366Y65880
X30366Y66880
X46980Y76732
X47980Y76732
X48980Y76732
X49980Y76732
X50980Y76732
X51980Y76732
X52980Y76732
X45980Y76732
X38380Y76732
X39380Y76732
X40380Y76732
X41380Y76732
X42380Y76732
X43380Y76732
X44380Y76732
X37380Y76732
X36380Y76732
X35380Y76732
X48980Y57732
X49980Y57732
X50980Y57732
X51980Y57732
X52980Y57732
X47980Y57732
X40980Y57732
X41980Y57732
X42980Y57732
X43980Y57732
X44980Y57732
X45980Y57732
X39980Y57732
X38980Y57732
X54030Y66732
X53030Y66732
X54030Y67732
X53030Y67732
X54030Y68732
X53030Y68732
X65655Y21729
X65655Y22729
X65655Y23729
X65655Y24729
X56206Y70942
X56206Y69942
X56206Y68942
X56206Y67942
X56206Y66942
X56206Y65942
X56206Y64942
X56206Y63942
X56206Y62942
X56206Y61942
T07
X43215Y43306
X45184Y43306
M30
