G75*
%MOIN*%
%OFA0B0*%
%FSLAX24Y24*%
%IPPOS*%
%LPD*%
%AMOC8*
5,1,8,0,0,1.08239X$1,22.5*
%
%ADD10C,0.0160*%
%ADD11C,0.0740*%
%ADD12OC8,0.0740*%
%ADD13C,0.0600*%
%ADD14OC8,0.0600*%
%ADD15C,0.0554*%
%ADD16C,0.0705*%
%ADD17C,0.0600*%
%ADD18OC8,0.0520*%
%ADD19C,0.0400*%
%ADD20R,0.0591X0.0591*%
%ADD21C,0.0394*%
%ADD22C,0.0400*%
%ADD23R,0.0475X0.0475*%
D10*
X026639Y032780D02*
X026641Y032830D01*
X026647Y032880D01*
X026657Y032929D01*
X026671Y032977D01*
X026688Y033024D01*
X026709Y033069D01*
X026734Y033113D01*
X026762Y033154D01*
X026794Y033193D01*
X026828Y033230D01*
X026865Y033264D01*
X026905Y033294D01*
X026947Y033321D01*
X026991Y033345D01*
X027037Y033366D01*
X027084Y033382D01*
X027132Y033395D01*
X027182Y033404D01*
X027231Y033409D01*
X027282Y033410D01*
X027332Y033407D01*
X027381Y033400D01*
X027430Y033389D01*
X027478Y033374D01*
X027524Y033356D01*
X027569Y033334D01*
X027612Y033308D01*
X027653Y033279D01*
X027692Y033247D01*
X027728Y033212D01*
X027760Y033174D01*
X027790Y033134D01*
X027817Y033091D01*
X027840Y033047D01*
X027859Y033001D01*
X027875Y032953D01*
X027887Y032904D01*
X027895Y032855D01*
X027899Y032805D01*
X027899Y032755D01*
X027895Y032705D01*
X027887Y032656D01*
X027875Y032607D01*
X027859Y032559D01*
X027840Y032513D01*
X027817Y032469D01*
X027790Y032426D01*
X027760Y032386D01*
X027728Y032348D01*
X027692Y032313D01*
X027653Y032281D01*
X027612Y032252D01*
X027569Y032226D01*
X027524Y032204D01*
X027478Y032186D01*
X027430Y032171D01*
X027381Y032160D01*
X027332Y032153D01*
X027282Y032150D01*
X027231Y032151D01*
X027182Y032156D01*
X027132Y032165D01*
X027084Y032178D01*
X027037Y032194D01*
X026991Y032215D01*
X026947Y032239D01*
X026905Y032266D01*
X026865Y032296D01*
X026828Y032330D01*
X026794Y032367D01*
X026762Y032406D01*
X026734Y032447D01*
X026709Y032491D01*
X026688Y032536D01*
X026671Y032583D01*
X026657Y032631D01*
X026647Y032680D01*
X026641Y032730D01*
X026639Y032780D01*
X021261Y040446D02*
X021263Y040496D01*
X021269Y040546D01*
X021279Y040595D01*
X021293Y040643D01*
X021310Y040690D01*
X021331Y040735D01*
X021356Y040779D01*
X021384Y040820D01*
X021416Y040859D01*
X021450Y040896D01*
X021487Y040930D01*
X021527Y040960D01*
X021569Y040987D01*
X021613Y041011D01*
X021659Y041032D01*
X021706Y041048D01*
X021754Y041061D01*
X021804Y041070D01*
X021853Y041075D01*
X021904Y041076D01*
X021954Y041073D01*
X022003Y041066D01*
X022052Y041055D01*
X022100Y041040D01*
X022146Y041022D01*
X022191Y041000D01*
X022234Y040974D01*
X022275Y040945D01*
X022314Y040913D01*
X022350Y040878D01*
X022382Y040840D01*
X022412Y040800D01*
X022439Y040757D01*
X022462Y040713D01*
X022481Y040667D01*
X022497Y040619D01*
X022509Y040570D01*
X022517Y040521D01*
X022521Y040471D01*
X022521Y040421D01*
X022517Y040371D01*
X022509Y040322D01*
X022497Y040273D01*
X022481Y040225D01*
X022462Y040179D01*
X022439Y040135D01*
X022412Y040092D01*
X022382Y040052D01*
X022350Y040014D01*
X022314Y039979D01*
X022275Y039947D01*
X022234Y039918D01*
X022191Y039892D01*
X022146Y039870D01*
X022100Y039852D01*
X022052Y039837D01*
X022003Y039826D01*
X021954Y039819D01*
X021904Y039816D01*
X021853Y039817D01*
X021804Y039822D01*
X021754Y039831D01*
X021706Y039844D01*
X021659Y039860D01*
X021613Y039881D01*
X021569Y039905D01*
X021527Y039932D01*
X021487Y039962D01*
X021450Y039996D01*
X021416Y040033D01*
X021384Y040072D01*
X021356Y040113D01*
X021331Y040157D01*
X021310Y040202D01*
X021293Y040249D01*
X021279Y040297D01*
X021269Y040346D01*
X021263Y040396D01*
X021261Y040446D01*
X021261Y046643D02*
X021263Y046693D01*
X021269Y046743D01*
X021279Y046792D01*
X021293Y046840D01*
X021310Y046887D01*
X021331Y046932D01*
X021356Y046976D01*
X021384Y047017D01*
X021416Y047056D01*
X021450Y047093D01*
X021487Y047127D01*
X021527Y047157D01*
X021569Y047184D01*
X021613Y047208D01*
X021659Y047229D01*
X021706Y047245D01*
X021754Y047258D01*
X021804Y047267D01*
X021853Y047272D01*
X021904Y047273D01*
X021954Y047270D01*
X022003Y047263D01*
X022052Y047252D01*
X022100Y047237D01*
X022146Y047219D01*
X022191Y047197D01*
X022234Y047171D01*
X022275Y047142D01*
X022314Y047110D01*
X022350Y047075D01*
X022382Y047037D01*
X022412Y046997D01*
X022439Y046954D01*
X022462Y046910D01*
X022481Y046864D01*
X022497Y046816D01*
X022509Y046767D01*
X022517Y046718D01*
X022521Y046668D01*
X022521Y046618D01*
X022517Y046568D01*
X022509Y046519D01*
X022497Y046470D01*
X022481Y046422D01*
X022462Y046376D01*
X022439Y046332D01*
X022412Y046289D01*
X022382Y046249D01*
X022350Y046211D01*
X022314Y046176D01*
X022275Y046144D01*
X022234Y046115D01*
X022191Y046089D01*
X022146Y046067D01*
X022100Y046049D01*
X022052Y046034D01*
X022003Y046023D01*
X021954Y046016D01*
X021904Y046013D01*
X021853Y046014D01*
X021804Y046019D01*
X021754Y046028D01*
X021706Y046041D01*
X021659Y046057D01*
X021613Y046078D01*
X021569Y046102D01*
X021527Y046129D01*
X021487Y046159D01*
X021450Y046193D01*
X021416Y046230D01*
X021384Y046269D01*
X021356Y046310D01*
X021331Y046354D01*
X021310Y046399D01*
X021293Y046446D01*
X021279Y046494D01*
X021269Y046543D01*
X021263Y046593D01*
X021261Y046643D01*
X026639Y054434D02*
X026641Y054484D01*
X026647Y054534D01*
X026657Y054583D01*
X026671Y054631D01*
X026688Y054678D01*
X026709Y054723D01*
X026734Y054767D01*
X026762Y054808D01*
X026794Y054847D01*
X026828Y054884D01*
X026865Y054918D01*
X026905Y054948D01*
X026947Y054975D01*
X026991Y054999D01*
X027037Y055020D01*
X027084Y055036D01*
X027132Y055049D01*
X027182Y055058D01*
X027231Y055063D01*
X027282Y055064D01*
X027332Y055061D01*
X027381Y055054D01*
X027430Y055043D01*
X027478Y055028D01*
X027524Y055010D01*
X027569Y054988D01*
X027612Y054962D01*
X027653Y054933D01*
X027692Y054901D01*
X027728Y054866D01*
X027760Y054828D01*
X027790Y054788D01*
X027817Y054745D01*
X027840Y054701D01*
X027859Y054655D01*
X027875Y054607D01*
X027887Y054558D01*
X027895Y054509D01*
X027899Y054459D01*
X027899Y054409D01*
X027895Y054359D01*
X027887Y054310D01*
X027875Y054261D01*
X027859Y054213D01*
X027840Y054167D01*
X027817Y054123D01*
X027790Y054080D01*
X027760Y054040D01*
X027728Y054002D01*
X027692Y053967D01*
X027653Y053935D01*
X027612Y053906D01*
X027569Y053880D01*
X027524Y053858D01*
X027478Y053840D01*
X027430Y053825D01*
X027381Y053814D01*
X027332Y053807D01*
X027282Y053804D01*
X027231Y053805D01*
X027182Y053810D01*
X027132Y053819D01*
X027084Y053832D01*
X027037Y053848D01*
X026991Y053869D01*
X026947Y053893D01*
X026905Y053920D01*
X026865Y053950D01*
X026828Y053984D01*
X026794Y054021D01*
X026762Y054060D01*
X026734Y054101D01*
X026709Y054145D01*
X026688Y054190D01*
X026671Y054237D01*
X026657Y054285D01*
X026647Y054334D01*
X026641Y054384D01*
X026639Y054434D01*
X023922Y059355D02*
X016048Y059355D01*
X016048Y067229D01*
X023922Y067229D01*
X023922Y059355D01*
X037741Y071335D02*
X037743Y071385D01*
X037749Y071435D01*
X037759Y071484D01*
X037773Y071532D01*
X037790Y071579D01*
X037811Y071624D01*
X037836Y071668D01*
X037864Y071709D01*
X037896Y071748D01*
X037930Y071785D01*
X037967Y071819D01*
X038007Y071849D01*
X038049Y071876D01*
X038093Y071900D01*
X038139Y071921D01*
X038186Y071937D01*
X038234Y071950D01*
X038284Y071959D01*
X038333Y071964D01*
X038384Y071965D01*
X038434Y071962D01*
X038483Y071955D01*
X038532Y071944D01*
X038580Y071929D01*
X038626Y071911D01*
X038671Y071889D01*
X038714Y071863D01*
X038755Y071834D01*
X038794Y071802D01*
X038830Y071767D01*
X038862Y071729D01*
X038892Y071689D01*
X038919Y071646D01*
X038942Y071602D01*
X038961Y071556D01*
X038977Y071508D01*
X038989Y071459D01*
X038997Y071410D01*
X039001Y071360D01*
X039001Y071310D01*
X038997Y071260D01*
X038989Y071211D01*
X038977Y071162D01*
X038961Y071114D01*
X038942Y071068D01*
X038919Y071024D01*
X038892Y070981D01*
X038862Y070941D01*
X038830Y070903D01*
X038794Y070868D01*
X038755Y070836D01*
X038714Y070807D01*
X038671Y070781D01*
X038626Y070759D01*
X038580Y070741D01*
X038532Y070726D01*
X038483Y070715D01*
X038434Y070708D01*
X038384Y070705D01*
X038333Y070706D01*
X038284Y070711D01*
X038234Y070720D01*
X038186Y070733D01*
X038139Y070749D01*
X038093Y070770D01*
X038049Y070794D01*
X038007Y070821D01*
X037967Y070851D01*
X037930Y070885D01*
X037896Y070922D01*
X037864Y070961D01*
X037836Y071002D01*
X037811Y071046D01*
X037790Y071091D01*
X037773Y071138D01*
X037759Y071186D01*
X037749Y071235D01*
X037743Y071285D01*
X037741Y071335D01*
X037953Y067296D02*
X037955Y067346D01*
X037961Y067396D01*
X037971Y067445D01*
X037985Y067493D01*
X038002Y067540D01*
X038023Y067585D01*
X038048Y067629D01*
X038076Y067670D01*
X038108Y067709D01*
X038142Y067746D01*
X038179Y067780D01*
X038219Y067810D01*
X038261Y067837D01*
X038305Y067861D01*
X038351Y067882D01*
X038398Y067898D01*
X038446Y067911D01*
X038496Y067920D01*
X038545Y067925D01*
X038596Y067926D01*
X038646Y067923D01*
X038695Y067916D01*
X038744Y067905D01*
X038792Y067890D01*
X038838Y067872D01*
X038883Y067850D01*
X038926Y067824D01*
X038967Y067795D01*
X039006Y067763D01*
X039042Y067728D01*
X039074Y067690D01*
X039104Y067650D01*
X039131Y067607D01*
X039154Y067563D01*
X039173Y067517D01*
X039189Y067469D01*
X039201Y067420D01*
X039209Y067371D01*
X039213Y067321D01*
X039213Y067271D01*
X039209Y067221D01*
X039201Y067172D01*
X039189Y067123D01*
X039173Y067075D01*
X039154Y067029D01*
X039131Y066985D01*
X039104Y066942D01*
X039074Y066902D01*
X039042Y066864D01*
X039006Y066829D01*
X038967Y066797D01*
X038926Y066768D01*
X038883Y066742D01*
X038838Y066720D01*
X038792Y066702D01*
X038744Y066687D01*
X038695Y066676D01*
X038646Y066669D01*
X038596Y066666D01*
X038545Y066667D01*
X038496Y066672D01*
X038446Y066681D01*
X038398Y066694D01*
X038351Y066710D01*
X038305Y066731D01*
X038261Y066755D01*
X038219Y066782D01*
X038179Y066812D01*
X038142Y066846D01*
X038108Y066883D01*
X038076Y066922D01*
X038048Y066963D01*
X038023Y067007D01*
X038002Y067052D01*
X037985Y067099D01*
X037971Y067147D01*
X037961Y067196D01*
X037955Y067246D01*
X037953Y067296D01*
X046300Y067296D02*
X046302Y067346D01*
X046308Y067396D01*
X046318Y067445D01*
X046332Y067493D01*
X046349Y067540D01*
X046370Y067585D01*
X046395Y067629D01*
X046423Y067670D01*
X046455Y067709D01*
X046489Y067746D01*
X046526Y067780D01*
X046566Y067810D01*
X046608Y067837D01*
X046652Y067861D01*
X046698Y067882D01*
X046745Y067898D01*
X046793Y067911D01*
X046843Y067920D01*
X046892Y067925D01*
X046943Y067926D01*
X046993Y067923D01*
X047042Y067916D01*
X047091Y067905D01*
X047139Y067890D01*
X047185Y067872D01*
X047230Y067850D01*
X047273Y067824D01*
X047314Y067795D01*
X047353Y067763D01*
X047389Y067728D01*
X047421Y067690D01*
X047451Y067650D01*
X047478Y067607D01*
X047501Y067563D01*
X047520Y067517D01*
X047536Y067469D01*
X047548Y067420D01*
X047556Y067371D01*
X047560Y067321D01*
X047560Y067271D01*
X047556Y067221D01*
X047548Y067172D01*
X047536Y067123D01*
X047520Y067075D01*
X047501Y067029D01*
X047478Y066985D01*
X047451Y066942D01*
X047421Y066902D01*
X047389Y066864D01*
X047353Y066829D01*
X047314Y066797D01*
X047273Y066768D01*
X047230Y066742D01*
X047185Y066720D01*
X047139Y066702D01*
X047091Y066687D01*
X047042Y066676D01*
X046993Y066669D01*
X046943Y066666D01*
X046892Y066667D01*
X046843Y066672D01*
X046793Y066681D01*
X046745Y066694D01*
X046698Y066710D01*
X046652Y066731D01*
X046608Y066755D01*
X046566Y066782D01*
X046526Y066812D01*
X046489Y066846D01*
X046455Y066883D01*
X046423Y066922D01*
X046395Y066963D01*
X046370Y067007D01*
X046349Y067052D01*
X046332Y067099D01*
X046318Y067147D01*
X046308Y067196D01*
X046302Y067246D01*
X046300Y067296D01*
X060037Y077694D02*
X060039Y077750D01*
X060045Y077805D01*
X060055Y077859D01*
X060068Y077913D01*
X060086Y077966D01*
X060107Y078017D01*
X060131Y078067D01*
X060159Y078115D01*
X060191Y078161D01*
X060225Y078205D01*
X060263Y078246D01*
X060303Y078284D01*
X060346Y078319D01*
X060391Y078351D01*
X060439Y078380D01*
X060488Y078406D01*
X060539Y078428D01*
X060591Y078446D01*
X060645Y078460D01*
X060700Y078471D01*
X060755Y078478D01*
X060810Y078481D01*
X060866Y078480D01*
X060921Y078475D01*
X060976Y078466D01*
X061030Y078454D01*
X061083Y078437D01*
X061135Y078417D01*
X061185Y078393D01*
X061233Y078366D01*
X061280Y078336D01*
X061324Y078302D01*
X061366Y078265D01*
X061404Y078225D01*
X061441Y078183D01*
X061474Y078138D01*
X061503Y078092D01*
X061530Y078043D01*
X061552Y077992D01*
X061572Y077940D01*
X061587Y077886D01*
X061599Y077832D01*
X061607Y077777D01*
X061611Y077722D01*
X061611Y077666D01*
X061607Y077611D01*
X061599Y077556D01*
X061587Y077502D01*
X061572Y077448D01*
X061552Y077396D01*
X061530Y077345D01*
X061503Y077296D01*
X061474Y077250D01*
X061441Y077205D01*
X061404Y077163D01*
X061366Y077123D01*
X061324Y077086D01*
X061280Y077052D01*
X061233Y077022D01*
X061185Y076995D01*
X061135Y076971D01*
X061083Y076951D01*
X061030Y076934D01*
X060976Y076922D01*
X060921Y076913D01*
X060866Y076908D01*
X060810Y076907D01*
X060755Y076910D01*
X060700Y076917D01*
X060645Y076928D01*
X060591Y076942D01*
X060539Y076960D01*
X060488Y076982D01*
X060439Y077008D01*
X060391Y077037D01*
X060346Y077069D01*
X060303Y077104D01*
X060263Y077142D01*
X060225Y077183D01*
X060191Y077227D01*
X060159Y077273D01*
X060131Y077321D01*
X060107Y077371D01*
X060086Y077422D01*
X060068Y077475D01*
X060055Y077529D01*
X060045Y077583D01*
X060039Y077638D01*
X060037Y077694D01*
X064438Y079225D02*
X023304Y079225D01*
X025604Y077694D02*
X025606Y077750D01*
X025612Y077805D01*
X025622Y077859D01*
X025635Y077913D01*
X025653Y077966D01*
X025674Y078017D01*
X025698Y078067D01*
X025726Y078115D01*
X025758Y078161D01*
X025792Y078205D01*
X025830Y078246D01*
X025870Y078284D01*
X025913Y078319D01*
X025958Y078351D01*
X026006Y078380D01*
X026055Y078406D01*
X026106Y078428D01*
X026158Y078446D01*
X026212Y078460D01*
X026267Y078471D01*
X026322Y078478D01*
X026377Y078481D01*
X026433Y078480D01*
X026488Y078475D01*
X026543Y078466D01*
X026597Y078454D01*
X026650Y078437D01*
X026702Y078417D01*
X026752Y078393D01*
X026800Y078366D01*
X026847Y078336D01*
X026891Y078302D01*
X026933Y078265D01*
X026971Y078225D01*
X027008Y078183D01*
X027041Y078138D01*
X027070Y078092D01*
X027097Y078043D01*
X027119Y077992D01*
X027139Y077940D01*
X027154Y077886D01*
X027166Y077832D01*
X027174Y077777D01*
X027178Y077722D01*
X027178Y077666D01*
X027174Y077611D01*
X027166Y077556D01*
X027154Y077502D01*
X027139Y077448D01*
X027119Y077396D01*
X027097Y077345D01*
X027070Y077296D01*
X027041Y077250D01*
X027008Y077205D01*
X026971Y077163D01*
X026933Y077123D01*
X026891Y077086D01*
X026847Y077052D01*
X026800Y077022D01*
X026752Y076995D01*
X026702Y076971D01*
X026650Y076951D01*
X026597Y076934D01*
X026543Y076922D01*
X026488Y076913D01*
X026433Y076908D01*
X026377Y076907D01*
X026322Y076910D01*
X026267Y076917D01*
X026212Y076928D01*
X026158Y076942D01*
X026106Y076960D01*
X026055Y076982D01*
X026006Y077008D01*
X025958Y077037D01*
X025913Y077069D01*
X025870Y077104D01*
X025830Y077142D01*
X025792Y077183D01*
X025758Y077227D01*
X025726Y077273D01*
X025698Y077321D01*
X025674Y077371D01*
X025653Y077422D01*
X025635Y077475D01*
X025622Y077529D01*
X025612Y077583D01*
X025606Y077638D01*
X025604Y077694D01*
X007387Y043607D02*
X007389Y043663D01*
X007395Y043718D01*
X007405Y043772D01*
X007418Y043826D01*
X007436Y043879D01*
X007457Y043930D01*
X007481Y043980D01*
X007509Y044028D01*
X007541Y044074D01*
X007575Y044118D01*
X007613Y044159D01*
X007653Y044197D01*
X007696Y044232D01*
X007741Y044264D01*
X007789Y044293D01*
X007838Y044319D01*
X007889Y044341D01*
X007941Y044359D01*
X007995Y044373D01*
X008050Y044384D01*
X008105Y044391D01*
X008160Y044394D01*
X008216Y044393D01*
X008271Y044388D01*
X008326Y044379D01*
X008380Y044367D01*
X008433Y044350D01*
X008485Y044330D01*
X008535Y044306D01*
X008583Y044279D01*
X008630Y044249D01*
X008674Y044215D01*
X008716Y044178D01*
X008754Y044138D01*
X008791Y044096D01*
X008824Y044051D01*
X008853Y044005D01*
X008880Y043956D01*
X008902Y043905D01*
X008922Y043853D01*
X008937Y043799D01*
X008949Y043745D01*
X008957Y043690D01*
X008961Y043635D01*
X008961Y043579D01*
X008957Y043524D01*
X008949Y043469D01*
X008937Y043415D01*
X008922Y043361D01*
X008902Y043309D01*
X008880Y043258D01*
X008853Y043209D01*
X008824Y043163D01*
X008791Y043118D01*
X008754Y043076D01*
X008716Y043036D01*
X008674Y042999D01*
X008630Y042965D01*
X008583Y042935D01*
X008535Y042908D01*
X008485Y042884D01*
X008433Y042864D01*
X008380Y042847D01*
X008326Y042835D01*
X008271Y042826D01*
X008216Y042821D01*
X008160Y042820D01*
X008105Y042823D01*
X008050Y042830D01*
X007995Y042841D01*
X007941Y042855D01*
X007889Y042873D01*
X007838Y042895D01*
X007789Y042921D01*
X007741Y042950D01*
X007696Y042982D01*
X007653Y043017D01*
X007613Y043055D01*
X007575Y043096D01*
X007541Y043140D01*
X007509Y043186D01*
X007481Y043234D01*
X007457Y043284D01*
X007436Y043335D01*
X007418Y043388D01*
X007405Y043442D01*
X007395Y043496D01*
X007389Y043551D01*
X007387Y043607D01*
X023304Y079226D02*
X022432Y078711D01*
X021573Y078175D01*
X020727Y077619D01*
X019895Y077042D01*
X019077Y076444D01*
X018274Y075827D01*
X017487Y075191D01*
X016716Y074535D01*
X015960Y073860D01*
X015222Y073168D01*
X014501Y072457D01*
X013797Y071729D01*
X013111Y070984D01*
X012444Y070222D01*
X011796Y069445D01*
X011167Y068651D01*
X010557Y067843D01*
X009968Y067019D01*
X009399Y066182D01*
X008850Y065331D01*
X008323Y064467D01*
X007817Y063590D01*
X007332Y062701D01*
X006870Y061800D01*
X006429Y060888D01*
X006011Y059966D01*
X005616Y059034D01*
X005244Y058092D01*
X004895Y057142D01*
X004569Y056183D01*
X004267Y055216D01*
X003989Y054243D01*
X003734Y053263D01*
X003504Y052277D01*
X003298Y051286D01*
X003116Y050289D01*
X002959Y049289D01*
X002826Y048285D01*
X002718Y047279D01*
X002634Y046270D01*
X002575Y045259D01*
X002541Y044247D01*
X002532Y043234D01*
X002548Y042222D01*
X002588Y041210D01*
X002653Y040200D01*
X002743Y039191D01*
X002858Y038185D01*
X002997Y037182D01*
X003161Y036183D01*
X003349Y035188D01*
X003561Y034198D01*
X003798Y033214D01*
X004059Y032235D01*
X004343Y031264D01*
X004651Y030299D01*
X004983Y029343D01*
X005338Y028394D01*
X005717Y027455D01*
X006118Y026525D01*
X006542Y025606D01*
X006988Y024697D01*
X007456Y023799D01*
X007946Y022913D01*
X008458Y022039D01*
X008991Y021179D01*
X009545Y020331D01*
X010119Y019497D01*
X010714Y018678D01*
X011328Y017873D01*
X011963Y017084D01*
X012616Y016310D01*
X013288Y015553D01*
X013978Y014812D01*
X014686Y014088D01*
X015412Y013382D01*
X016155Y012694D01*
X016915Y012025D01*
X017690Y011374D01*
X018482Y010742D01*
X019288Y010130D01*
X020110Y009538D01*
X020945Y008966D01*
X021795Y008415D01*
X022657Y007885D01*
X023533Y007376D01*
X024420Y006889D01*
X025319Y006423D01*
X026230Y005980D01*
X027151Y005559D01*
X028082Y005161D01*
X029022Y004786D01*
X029971Y004434D01*
X030929Y004105D01*
X031895Y003800D01*
X032867Y003518D01*
X033846Y003261D01*
X034832Y003027D01*
X035822Y002818D01*
X036818Y002633D01*
X037818Y002473D01*
X038821Y002337D01*
X039827Y002225D01*
X040836Y002139D01*
X041847Y002077D01*
X042859Y002039D01*
X043871Y002027D01*
X044883Y002039D01*
X045895Y002077D01*
X046906Y002139D01*
X047915Y002225D01*
X048921Y002337D01*
X049924Y002473D01*
X050924Y002633D01*
X051920Y002818D01*
X052910Y003027D01*
X053896Y003261D01*
X054875Y003518D01*
X055847Y003800D01*
X056813Y004105D01*
X057771Y004434D01*
X058720Y004786D01*
X059660Y005161D01*
X060591Y005559D01*
X061512Y005980D01*
X062423Y006423D01*
X063322Y006889D01*
X064209Y007376D01*
X065085Y007885D01*
X065947Y008415D01*
X066797Y008966D01*
X067632Y009538D01*
X068454Y010130D01*
X069260Y010742D01*
X070052Y011374D01*
X070827Y012025D01*
X071587Y012694D01*
X072330Y013382D01*
X073056Y014088D01*
X073764Y014812D01*
X074454Y015553D01*
X075126Y016310D01*
X075779Y017084D01*
X076414Y017873D01*
X077028Y018678D01*
X077623Y019497D01*
X078197Y020331D01*
X078751Y021179D01*
X079284Y022039D01*
X079796Y022913D01*
X080286Y023799D01*
X080754Y024697D01*
X081200Y025606D01*
X081624Y026525D01*
X082025Y027455D01*
X082404Y028394D01*
X082759Y029343D01*
X083091Y030299D01*
X083399Y031264D01*
X083683Y032235D01*
X083944Y033214D01*
X084181Y034198D01*
X084393Y035188D01*
X084581Y036183D01*
X084745Y037182D01*
X084884Y038185D01*
X084999Y039191D01*
X085089Y040200D01*
X085154Y041210D01*
X085194Y042222D01*
X085210Y043234D01*
X085201Y044247D01*
X085167Y045259D01*
X085108Y046270D01*
X085024Y047279D01*
X084916Y048285D01*
X084783Y049289D01*
X084626Y050289D01*
X084444Y051286D01*
X084238Y052277D01*
X084008Y053263D01*
X083753Y054243D01*
X083475Y055216D01*
X083173Y056183D01*
X082847Y057142D01*
X082498Y058092D01*
X082126Y059034D01*
X081731Y059966D01*
X081313Y060888D01*
X080872Y061800D01*
X080410Y062701D01*
X079925Y063590D01*
X079419Y064467D01*
X078892Y065331D01*
X078343Y066182D01*
X077774Y067019D01*
X077185Y067843D01*
X076575Y068651D01*
X075946Y069445D01*
X075298Y070222D01*
X074631Y070984D01*
X073945Y071729D01*
X073241Y072457D01*
X072520Y073168D01*
X071782Y073860D01*
X071026Y074535D01*
X070255Y075191D01*
X069468Y075827D01*
X068665Y076444D01*
X067847Y077042D01*
X067015Y077619D01*
X066169Y078175D01*
X065310Y078711D01*
X064438Y079226D01*
X078253Y043607D02*
X078255Y043663D01*
X078261Y043718D01*
X078271Y043772D01*
X078284Y043826D01*
X078302Y043879D01*
X078323Y043930D01*
X078347Y043980D01*
X078375Y044028D01*
X078407Y044074D01*
X078441Y044118D01*
X078479Y044159D01*
X078519Y044197D01*
X078562Y044232D01*
X078607Y044264D01*
X078655Y044293D01*
X078704Y044319D01*
X078755Y044341D01*
X078807Y044359D01*
X078861Y044373D01*
X078916Y044384D01*
X078971Y044391D01*
X079026Y044394D01*
X079082Y044393D01*
X079137Y044388D01*
X079192Y044379D01*
X079246Y044367D01*
X079299Y044350D01*
X079351Y044330D01*
X079401Y044306D01*
X079449Y044279D01*
X079496Y044249D01*
X079540Y044215D01*
X079582Y044178D01*
X079620Y044138D01*
X079657Y044096D01*
X079690Y044051D01*
X079719Y044005D01*
X079746Y043956D01*
X079768Y043905D01*
X079788Y043853D01*
X079803Y043799D01*
X079815Y043745D01*
X079823Y043690D01*
X079827Y043635D01*
X079827Y043579D01*
X079823Y043524D01*
X079815Y043469D01*
X079803Y043415D01*
X079788Y043361D01*
X079768Y043309D01*
X079746Y043258D01*
X079719Y043209D01*
X079690Y043163D01*
X079657Y043118D01*
X079620Y043076D01*
X079582Y043036D01*
X079540Y042999D01*
X079496Y042965D01*
X079449Y042935D01*
X079401Y042908D01*
X079351Y042884D01*
X079299Y042864D01*
X079246Y042847D01*
X079192Y042835D01*
X079137Y042826D01*
X079082Y042821D01*
X079026Y042820D01*
X078971Y042823D01*
X078916Y042830D01*
X078861Y042841D01*
X078807Y042855D01*
X078755Y042873D01*
X078704Y042895D01*
X078655Y042921D01*
X078607Y042950D01*
X078562Y042982D01*
X078519Y043017D01*
X078479Y043055D01*
X078441Y043096D01*
X078407Y043140D01*
X078375Y043186D01*
X078347Y043234D01*
X078323Y043284D01*
X078302Y043335D01*
X078284Y043388D01*
X078271Y043442D01*
X078261Y043496D01*
X078255Y043551D01*
X078253Y043607D01*
X057741Y032780D02*
X057743Y032830D01*
X057749Y032880D01*
X057759Y032929D01*
X057773Y032977D01*
X057790Y033024D01*
X057811Y033069D01*
X057836Y033113D01*
X057864Y033154D01*
X057896Y033193D01*
X057930Y033230D01*
X057967Y033264D01*
X058007Y033294D01*
X058049Y033321D01*
X058093Y033345D01*
X058139Y033366D01*
X058186Y033382D01*
X058234Y033395D01*
X058284Y033404D01*
X058333Y033409D01*
X058384Y033410D01*
X058434Y033407D01*
X058483Y033400D01*
X058532Y033389D01*
X058580Y033374D01*
X058626Y033356D01*
X058671Y033334D01*
X058714Y033308D01*
X058755Y033279D01*
X058794Y033247D01*
X058830Y033212D01*
X058862Y033174D01*
X058892Y033134D01*
X058919Y033091D01*
X058942Y033047D01*
X058961Y033001D01*
X058977Y032953D01*
X058989Y032904D01*
X058997Y032855D01*
X059001Y032805D01*
X059001Y032755D01*
X058997Y032705D01*
X058989Y032656D01*
X058977Y032607D01*
X058961Y032559D01*
X058942Y032513D01*
X058919Y032469D01*
X058892Y032426D01*
X058862Y032386D01*
X058830Y032348D01*
X058794Y032313D01*
X058755Y032281D01*
X058714Y032252D01*
X058671Y032226D01*
X058626Y032204D01*
X058580Y032186D01*
X058532Y032171D01*
X058483Y032160D01*
X058434Y032153D01*
X058384Y032150D01*
X058333Y032151D01*
X058284Y032156D01*
X058234Y032165D01*
X058186Y032178D01*
X058139Y032194D01*
X058093Y032215D01*
X058049Y032239D01*
X058007Y032266D01*
X057967Y032296D01*
X057930Y032330D01*
X057896Y032367D01*
X057864Y032406D01*
X057836Y032447D01*
X057811Y032491D01*
X057790Y032536D01*
X057773Y032583D01*
X057759Y032631D01*
X057749Y032680D01*
X057743Y032730D01*
X057741Y032780D01*
X042820Y005418D02*
X042822Y005474D01*
X042828Y005529D01*
X042838Y005583D01*
X042851Y005637D01*
X042869Y005690D01*
X042890Y005741D01*
X042914Y005791D01*
X042942Y005839D01*
X042974Y005885D01*
X043008Y005929D01*
X043046Y005970D01*
X043086Y006008D01*
X043129Y006043D01*
X043174Y006075D01*
X043222Y006104D01*
X043271Y006130D01*
X043322Y006152D01*
X043374Y006170D01*
X043428Y006184D01*
X043483Y006195D01*
X043538Y006202D01*
X043593Y006205D01*
X043649Y006204D01*
X043704Y006199D01*
X043759Y006190D01*
X043813Y006178D01*
X043866Y006161D01*
X043918Y006141D01*
X043968Y006117D01*
X044016Y006090D01*
X044063Y006060D01*
X044107Y006026D01*
X044149Y005989D01*
X044187Y005949D01*
X044224Y005907D01*
X044257Y005862D01*
X044286Y005816D01*
X044313Y005767D01*
X044335Y005716D01*
X044355Y005664D01*
X044370Y005610D01*
X044382Y005556D01*
X044390Y005501D01*
X044394Y005446D01*
X044394Y005390D01*
X044390Y005335D01*
X044382Y005280D01*
X044370Y005226D01*
X044355Y005172D01*
X044335Y005120D01*
X044313Y005069D01*
X044286Y005020D01*
X044257Y004974D01*
X044224Y004929D01*
X044187Y004887D01*
X044149Y004847D01*
X044107Y004810D01*
X044063Y004776D01*
X044016Y004746D01*
X043968Y004719D01*
X043918Y004695D01*
X043866Y004675D01*
X043813Y004658D01*
X043759Y004646D01*
X043704Y004637D01*
X043649Y004632D01*
X043593Y004631D01*
X043538Y004634D01*
X043483Y004641D01*
X043428Y004652D01*
X043374Y004666D01*
X043322Y004684D01*
X043271Y004706D01*
X043222Y004732D01*
X043174Y004761D01*
X043129Y004793D01*
X043086Y004828D01*
X043046Y004866D01*
X043008Y004907D01*
X042974Y004951D01*
X042942Y004997D01*
X042914Y005045D01*
X042890Y005095D01*
X042869Y005146D01*
X042851Y005199D01*
X042838Y005253D01*
X042828Y005307D01*
X042822Y005362D01*
X042820Y005418D01*
D11*
X042501Y009828D03*
X043501Y009828D03*
X044501Y009828D03*
X045501Y009828D03*
X046501Y009828D03*
X047501Y009828D03*
X048501Y009828D03*
X050501Y009828D03*
X051501Y009828D03*
X052501Y009828D03*
X053501Y009828D03*
X054501Y009828D03*
X055501Y009828D03*
X056501Y009828D03*
X057501Y009828D03*
X060501Y009828D03*
X061501Y009828D03*
X061501Y026828D03*
X060501Y026828D03*
X059501Y028828D03*
X058501Y028828D03*
X057501Y028828D03*
X056501Y028828D03*
X055501Y028828D03*
X054501Y028828D03*
X053501Y028828D03*
X052501Y028828D03*
X050501Y028828D03*
X049501Y028828D03*
X048501Y028828D03*
X047501Y028828D03*
X046501Y028828D03*
X045501Y028828D03*
X044501Y028828D03*
X043501Y028828D03*
X041501Y028828D03*
X040501Y028828D03*
X039501Y028828D03*
X038501Y028828D03*
X037501Y028828D03*
X036501Y028828D03*
X035501Y028828D03*
X034501Y028828D03*
X032765Y038465D03*
X032765Y039465D03*
X032765Y040465D03*
X032765Y041465D03*
X032765Y042465D03*
X032765Y043465D03*
X032765Y044465D03*
X032765Y045465D03*
X032765Y047465D03*
X032765Y048465D03*
X032765Y049465D03*
X032765Y050465D03*
X032765Y051465D03*
X032765Y052465D03*
X038980Y057732D03*
X039980Y057732D03*
X040980Y057732D03*
X041980Y057732D03*
X042980Y057732D03*
X043980Y057732D03*
X044980Y057732D03*
X045980Y057732D03*
X047980Y057732D03*
X048980Y057732D03*
X049980Y057732D03*
X050980Y057732D03*
X051980Y057732D03*
X052980Y057732D03*
X053639Y052465D03*
X053639Y051465D03*
X053639Y050465D03*
X053639Y049465D03*
X053639Y048465D03*
X053639Y047465D03*
X053639Y046465D03*
X053639Y045465D03*
X053639Y043865D03*
X053639Y042865D03*
X053639Y041865D03*
X053639Y040865D03*
X053639Y039865D03*
X053639Y038865D03*
X053639Y037865D03*
X053639Y036865D03*
X053639Y035865D03*
X053639Y034865D03*
X072639Y038465D03*
X072639Y039465D03*
X072639Y040465D03*
X072639Y041465D03*
X072639Y042465D03*
X072639Y043465D03*
X072639Y044465D03*
X072639Y045465D03*
X072639Y047465D03*
X072639Y048465D03*
X072639Y049465D03*
X072639Y050465D03*
X072639Y051465D03*
X072639Y052465D03*
X052980Y076732D03*
X051980Y076732D03*
X050980Y076732D03*
X049980Y076732D03*
X048980Y076732D03*
X047980Y076732D03*
X046980Y076732D03*
X045980Y076732D03*
X044380Y076732D03*
X043380Y076732D03*
X042380Y076732D03*
X041380Y076732D03*
X040380Y076732D03*
X039380Y076732D03*
X038380Y076732D03*
X037380Y076732D03*
X036380Y076732D03*
X035380Y076732D03*
X013765Y052465D03*
X013765Y051465D03*
X013765Y050465D03*
X013765Y049465D03*
X013765Y048465D03*
X013765Y047465D03*
X013765Y046465D03*
X013765Y045465D03*
X013765Y043865D03*
X013765Y042865D03*
X013765Y041865D03*
X013765Y040865D03*
X013765Y039865D03*
X013765Y038865D03*
X013765Y037865D03*
X013765Y036865D03*
X013765Y035865D03*
X013765Y034865D03*
X030901Y009828D03*
X031901Y009828D03*
X032901Y009828D03*
X033901Y009828D03*
X034901Y009828D03*
X035901Y009828D03*
X036901Y009828D03*
X037901Y009828D03*
X038901Y009828D03*
X039901Y009828D03*
X041501Y009828D03*
D12*
X048501Y017828D03*
X048501Y018828D03*
X048501Y019828D03*
X049501Y019828D03*
X049501Y018828D03*
X049501Y017828D03*
X060501Y017828D03*
X060501Y018828D03*
X060501Y019828D03*
X060501Y020828D03*
X060501Y021828D03*
X060501Y022828D03*
X061501Y022828D03*
X061501Y021828D03*
X061501Y020828D03*
X061501Y019828D03*
X061501Y018828D03*
X061501Y017828D03*
X061501Y016828D03*
X060501Y016828D03*
X060501Y015828D03*
X061501Y015828D03*
X061501Y014828D03*
X060501Y014828D03*
X060501Y013828D03*
X061501Y013828D03*
X061501Y012828D03*
X060501Y012828D03*
X060501Y011828D03*
X061501Y011828D03*
X061501Y010828D03*
X060501Y010828D03*
X060501Y023828D03*
X060501Y024828D03*
X060501Y025828D03*
X061501Y025828D03*
X061501Y024828D03*
X061501Y023828D03*
X061639Y052515D03*
X062639Y052515D03*
X063639Y052515D03*
X063639Y053515D03*
X062639Y053515D03*
X061639Y053515D03*
X054030Y066732D03*
X053030Y066732D03*
X053030Y067732D03*
X054030Y067732D03*
X054030Y068732D03*
X053030Y068732D03*
X023765Y053515D03*
X023765Y052515D03*
X022765Y052515D03*
X022765Y053515D03*
X021765Y053515D03*
X021765Y052515D03*
D13*
X029366Y064880D03*
D14*
X029366Y065880D03*
X030366Y065880D03*
X030366Y064880D03*
X030366Y066880D03*
X029366Y066880D03*
D15*
X021386Y019673D03*
X021386Y020461D03*
X052567Y012461D03*
X052567Y011674D03*
X053355Y011674D03*
X053355Y012461D03*
X054142Y012461D03*
X054142Y011674D03*
D16*
X045184Y042954D02*
X045184Y043659D01*
X043215Y043659D02*
X043215Y042954D01*
D17*
X055906Y061942D02*
X056506Y061942D01*
X056506Y062942D02*
X055906Y062942D01*
X055906Y063942D02*
X056506Y063942D01*
X056506Y064942D02*
X055906Y064942D01*
X055906Y065942D02*
X056506Y065942D01*
X056506Y066942D02*
X055906Y066942D01*
X055906Y067942D02*
X056506Y067942D01*
X056506Y068942D02*
X055906Y068942D01*
X055906Y069942D02*
X056506Y069942D01*
X056506Y070942D02*
X055906Y070942D01*
X065355Y024729D02*
X065955Y024729D01*
X065955Y023729D02*
X065355Y023729D01*
X065355Y022729D02*
X065955Y022729D01*
X065955Y021729D02*
X065355Y021729D01*
D18*
X030895Y012389D03*
X027895Y012389D03*
D19*
X027895Y012358D01*
X028663Y011589D01*
X032139Y011589D01*
X033901Y009828D01*
X034901Y009828D02*
X032339Y012389D01*
X031102Y012389D01*
X031097Y012394D01*
X029986Y012394D01*
X022707Y019673D01*
X021386Y019673D01*
X021386Y020461D02*
X022931Y020461D01*
X029961Y013432D01*
X032297Y013432D01*
X035901Y009828D01*
X031102Y012389D02*
X030895Y012389D01*
X030244Y014100D02*
X043235Y014100D01*
X045501Y011835D01*
X045501Y011397D01*
X045501Y011198D01*
X045501Y009828D01*
X047501Y009830D02*
X047501Y009828D01*
X047501Y009830D02*
X048441Y010770D01*
X049226Y010770D01*
X049733Y010263D01*
X049733Y008994D01*
X048581Y007843D01*
X047962Y008913D02*
X048501Y009452D01*
X048501Y009828D01*
X048501Y009657D01*
X047962Y008913D02*
X029983Y008913D01*
X029396Y009501D01*
X030244Y014100D02*
X029870Y014474D01*
X031081Y017006D02*
X057939Y017006D01*
X054238Y020706D01*
X035664Y020706D01*
X035430Y020803D01*
X035251Y020982D01*
X035251Y020982D01*
X024593Y031641D01*
X024496Y031875D01*
X024496Y033396D01*
X014461Y043430D01*
X014451Y043407D01*
X014410Y043365D01*
X014451Y043324D01*
X014575Y043026D01*
X014575Y042704D01*
X014451Y042407D01*
X014410Y042365D01*
X014451Y042324D01*
X014575Y042026D01*
X014575Y041704D01*
X014451Y041407D01*
X014410Y041365D01*
X014451Y041324D01*
X014575Y041026D01*
X014575Y040704D01*
X014451Y040407D01*
X014410Y040365D01*
X014451Y040324D01*
X014575Y040026D01*
X014575Y039704D01*
X014451Y039407D01*
X014410Y039365D01*
X014451Y039324D01*
X014575Y039026D01*
X014575Y038704D01*
X014451Y038407D01*
X014223Y038179D01*
X013926Y038055D01*
X013603Y038055D01*
X013306Y038179D01*
X013078Y038407D01*
X012955Y038704D01*
X012955Y039026D01*
X013078Y039324D01*
X013119Y039365D01*
X013078Y039407D01*
X012955Y039704D01*
X012955Y039770D01*
X012689Y040036D01*
X012638Y040087D01*
X012638Y035454D01*
X012987Y035105D01*
X013078Y035324D01*
X013119Y035365D01*
X013078Y035407D01*
X012955Y035704D01*
X012955Y036026D01*
X013078Y036324D01*
X013119Y036365D01*
X013078Y036407D01*
X012955Y036704D01*
X012955Y037026D01*
X013078Y037324D01*
X013306Y037552D01*
X013603Y037675D01*
X013926Y037675D01*
X014223Y037552D01*
X014451Y037324D01*
X014575Y037026D01*
X014575Y036704D01*
X014451Y036407D01*
X014410Y036365D01*
X014451Y036324D01*
X014575Y036026D01*
X014575Y035704D01*
X014451Y035407D01*
X014410Y035365D01*
X014451Y035324D01*
X014575Y035026D01*
X014575Y034704D01*
X014451Y034407D01*
X014223Y034179D01*
X014004Y034088D01*
X014307Y033785D01*
X014310Y033777D01*
X031081Y017006D01*
X030781Y017306D02*
X047877Y017306D01*
X047691Y017492D02*
X048165Y017018D01*
X048836Y017018D01*
X049001Y017182D01*
X049165Y017018D01*
X049836Y017018D01*
X050311Y017492D01*
X050311Y018163D01*
X050146Y018328D01*
X050311Y018492D01*
X050311Y019163D01*
X050146Y019328D01*
X050311Y019492D01*
X050311Y020163D01*
X049836Y020638D01*
X049165Y020638D01*
X049001Y020473D01*
X048836Y020638D01*
X048165Y020638D01*
X047691Y020163D01*
X047691Y019492D01*
X047855Y019328D01*
X047691Y019163D01*
X047691Y018492D01*
X047855Y018328D01*
X047691Y018163D01*
X047691Y017492D01*
X047691Y017705D02*
X030383Y017705D01*
X029984Y018103D02*
X047691Y018103D01*
X047691Y018502D02*
X029586Y018502D01*
X029187Y018900D02*
X047691Y018900D01*
X047826Y019299D02*
X028789Y019299D01*
X028390Y019697D02*
X047691Y019697D01*
X047691Y020096D02*
X027992Y020096D01*
X027593Y020494D02*
X048022Y020494D01*
X048980Y020494D02*
X049022Y020494D01*
X049980Y020494D02*
X054451Y020494D01*
X054849Y020096D02*
X050311Y020096D01*
X050311Y019697D02*
X055248Y019697D01*
X055646Y019299D02*
X050175Y019299D01*
X050311Y018900D02*
X056045Y018900D01*
X056443Y018502D02*
X050311Y018502D01*
X050311Y018103D02*
X056842Y018103D01*
X057240Y017705D02*
X050311Y017705D01*
X050125Y017306D02*
X057639Y017306D01*
X059267Y018900D02*
X059691Y018900D01*
X059691Y019163D02*
X059691Y018492D01*
X059855Y018328D01*
X059847Y018320D01*
X050542Y027625D01*
X050363Y027804D01*
X050129Y027901D01*
X034160Y027901D01*
X030033Y032028D01*
X030033Y032659D01*
X033601Y029091D01*
X033714Y029044D01*
X033691Y028989D01*
X033691Y028666D01*
X033814Y028369D01*
X034042Y028141D01*
X034340Y028018D01*
X034662Y028018D01*
X034960Y028141D01*
X035001Y028182D01*
X035042Y028141D01*
X035340Y028018D01*
X035662Y028018D01*
X035960Y028141D01*
X036001Y028182D01*
X036042Y028141D01*
X036340Y028018D01*
X036662Y028018D01*
X036960Y028141D01*
X037001Y028182D01*
X037042Y028141D01*
X037340Y028018D01*
X037662Y028018D01*
X037960Y028141D01*
X038001Y028182D01*
X038042Y028141D01*
X038340Y028018D01*
X038662Y028018D01*
X038960Y028141D01*
X039187Y028369D01*
X039311Y028666D01*
X039311Y028989D01*
X039309Y028994D01*
X040693Y028994D01*
X040691Y028989D01*
X040691Y028666D01*
X040814Y028369D01*
X041042Y028141D01*
X041340Y028018D01*
X041662Y028018D01*
X041960Y028141D01*
X042187Y028369D01*
X042311Y028666D01*
X042311Y028989D01*
X042309Y028994D01*
X042693Y028994D01*
X042691Y028989D01*
X042691Y028666D01*
X042814Y028369D01*
X043042Y028141D01*
X043340Y028018D01*
X043662Y028018D01*
X043960Y028141D01*
X044001Y028182D01*
X044042Y028141D01*
X044340Y028018D01*
X044662Y028018D01*
X044960Y028141D01*
X045001Y028182D01*
X045042Y028141D01*
X045340Y028018D01*
X045662Y028018D01*
X045960Y028141D01*
X046001Y028182D01*
X046042Y028141D01*
X046340Y028018D01*
X046662Y028018D01*
X046960Y028141D01*
X047001Y028182D01*
X047042Y028141D01*
X047340Y028018D01*
X047662Y028018D01*
X047960Y028141D01*
X048001Y028182D01*
X048042Y028141D01*
X048340Y028018D01*
X048662Y028018D01*
X048960Y028141D01*
X049001Y028182D01*
X049042Y028141D01*
X049340Y028018D01*
X049662Y028018D01*
X049960Y028141D01*
X050001Y028182D01*
X050042Y028141D01*
X050340Y028018D01*
X050662Y028018D01*
X050960Y028141D01*
X051187Y028369D01*
X051311Y028666D01*
X051311Y028837D01*
X051448Y028894D01*
X051627Y029073D01*
X051795Y029241D01*
X051691Y028989D01*
X051691Y028666D01*
X051814Y028369D01*
X052042Y028141D01*
X052340Y028018D01*
X052662Y028018D01*
X052960Y028141D01*
X053001Y028182D01*
X053042Y028141D01*
X053340Y028018D01*
X053662Y028018D01*
X053960Y028141D01*
X054001Y028182D01*
X054042Y028141D01*
X054340Y028018D01*
X054662Y028018D01*
X054960Y028141D01*
X055001Y028182D01*
X055042Y028141D01*
X055340Y028018D01*
X055662Y028018D01*
X055960Y028141D01*
X056001Y028182D01*
X056042Y028141D01*
X056340Y028018D01*
X056662Y028018D01*
X056960Y028141D01*
X057001Y028182D01*
X057042Y028141D01*
X057340Y028018D01*
X057662Y028018D01*
X057960Y028141D01*
X058001Y028182D01*
X058042Y028141D01*
X058340Y028018D01*
X058662Y028018D01*
X058960Y028141D01*
X059001Y028182D01*
X059010Y028173D01*
X058642Y027804D01*
X058642Y027804D01*
X058462Y027625D01*
X058366Y027391D01*
X058366Y026190D01*
X058462Y025956D01*
X059647Y024772D01*
X059691Y024728D01*
X059691Y024492D01*
X059855Y024328D01*
X059691Y024163D01*
X059691Y023492D01*
X059855Y023328D01*
X059691Y023163D01*
X059691Y022492D01*
X059855Y022328D01*
X059691Y022163D01*
X059691Y021492D01*
X059855Y021328D01*
X059691Y021163D01*
X059691Y020492D01*
X059855Y020328D01*
X059691Y020163D01*
X059691Y019492D01*
X059855Y019328D01*
X059691Y019163D01*
X059826Y019299D02*
X058869Y019299D01*
X058470Y019697D02*
X059691Y019697D01*
X059691Y020096D02*
X058072Y020096D01*
X057673Y020494D02*
X059691Y020494D01*
X059691Y020893D02*
X057275Y020893D01*
X056876Y021291D02*
X059819Y021291D01*
X059691Y021690D02*
X056478Y021690D01*
X056079Y022088D02*
X059691Y022088D01*
X059696Y022487D02*
X055681Y022487D01*
X055282Y022885D02*
X059691Y022885D01*
X059811Y023284D02*
X054884Y023284D01*
X054485Y023682D02*
X059691Y023682D01*
X059691Y024081D02*
X054087Y024081D01*
X053688Y024479D02*
X059704Y024479D01*
X059647Y024772D02*
X059647Y024772D01*
X059541Y024878D02*
X053290Y024878D01*
X052891Y025276D02*
X059143Y025276D01*
X058744Y025675D02*
X052493Y025675D01*
X052094Y026073D02*
X058414Y026073D01*
X058366Y026472D02*
X051696Y026472D01*
X051297Y026870D02*
X058366Y026870D01*
X058366Y027269D02*
X050899Y027269D01*
X050500Y027667D02*
X058504Y027667D01*
X058778Y028066D02*
X058903Y028066D01*
X058224Y028066D02*
X057778Y028066D01*
X057224Y028066D02*
X056778Y028066D01*
X056224Y028066D02*
X055778Y028066D01*
X055224Y028066D02*
X054778Y028066D01*
X054224Y028066D02*
X053778Y028066D01*
X053224Y028066D02*
X052778Y028066D01*
X052224Y028066D02*
X050778Y028066D01*
X050224Y028066D02*
X049778Y028066D01*
X049224Y028066D02*
X048778Y028066D01*
X048224Y028066D02*
X047778Y028066D01*
X047224Y028066D02*
X046778Y028066D01*
X046224Y028066D02*
X045778Y028066D01*
X045224Y028066D02*
X044778Y028066D01*
X044224Y028066D02*
X043778Y028066D01*
X043224Y028066D02*
X041778Y028066D01*
X041224Y028066D02*
X038778Y028066D01*
X038224Y028066D02*
X037778Y028066D01*
X037224Y028066D02*
X036778Y028066D01*
X036224Y028066D02*
X035778Y028066D01*
X035224Y028066D02*
X034778Y028066D01*
X034224Y028066D02*
X033996Y028066D01*
X033775Y028464D02*
X033597Y028464D01*
X033691Y028863D02*
X033199Y028863D01*
X033430Y029261D02*
X032800Y029261D01*
X033032Y029660D02*
X032402Y029660D01*
X032633Y030058D02*
X032003Y030058D01*
X032235Y030457D02*
X031605Y030457D01*
X031836Y030855D02*
X031206Y030855D01*
X031438Y031254D02*
X030808Y031254D01*
X031039Y031652D02*
X030409Y031652D01*
X030641Y032051D02*
X030033Y032051D01*
X030033Y032449D02*
X030242Y032449D01*
X032045Y034043D02*
X042560Y034043D01*
X042780Y033823D02*
X032265Y033823D01*
X017620Y048468D01*
X017441Y048647D01*
X017207Y048744D01*
X015449Y048744D01*
X015014Y049179D01*
X014835Y049358D01*
X014601Y049455D01*
X014575Y049455D01*
X014575Y049626D01*
X014451Y049924D01*
X014410Y049965D01*
X014451Y050007D01*
X014465Y050039D01*
X014738Y050313D01*
X026681Y050313D01*
X026915Y050410D01*
X027094Y050589D01*
X029897Y053392D01*
X033159Y053392D01*
X034009Y052541D01*
X034243Y052444D01*
X043580Y052444D01*
X052484Y043541D01*
X052569Y043505D01*
X051639Y043505D01*
X051404Y043408D01*
X044368Y036372D01*
X044271Y036372D01*
X044109Y036305D01*
X043986Y036182D01*
X043919Y036020D01*
X043919Y035370D01*
X043986Y035208D01*
X044109Y035084D01*
X044271Y035017D01*
X044921Y035017D01*
X045083Y035084D01*
X045207Y035208D01*
X045274Y035370D01*
X045274Y035467D01*
X052032Y042225D01*
X052911Y042225D01*
X052829Y042026D01*
X052829Y041704D01*
X052952Y041407D01*
X052993Y041365D01*
X052952Y041324D01*
X052829Y041026D01*
X052829Y040704D01*
X052952Y040407D01*
X052993Y040365D01*
X052952Y040324D01*
X052829Y040026D01*
X052829Y039704D01*
X052952Y039407D01*
X052993Y039365D01*
X052952Y039324D01*
X052829Y039026D01*
X052829Y038704D01*
X052952Y038407D01*
X053180Y038179D01*
X053477Y038055D01*
X053800Y038055D01*
X054097Y038179D01*
X054325Y038407D01*
X054449Y038704D01*
X054449Y039026D01*
X054325Y039324D01*
X054284Y039365D01*
X054325Y039407D01*
X054449Y039704D01*
X054449Y040026D01*
X054325Y040324D01*
X054284Y040365D01*
X054325Y040407D01*
X054449Y040704D01*
X054449Y041026D01*
X054325Y041324D01*
X054284Y041365D01*
X054325Y041407D01*
X054449Y041704D01*
X054449Y041705D01*
X056226Y043483D01*
X056323Y043717D01*
X056323Y053445D01*
X056226Y053679D01*
X056047Y053858D01*
X054389Y055516D01*
X054155Y055613D01*
X040555Y055613D01*
X039215Y056953D01*
X039438Y057046D01*
X039480Y057087D01*
X039521Y057046D01*
X039819Y056922D01*
X040141Y056922D01*
X040438Y057046D01*
X040480Y057087D01*
X040521Y057046D01*
X040819Y056922D01*
X041141Y056922D01*
X041438Y057046D01*
X041480Y057087D01*
X041521Y057046D01*
X041819Y056922D01*
X042141Y056922D01*
X042438Y057046D01*
X042480Y057087D01*
X042521Y057046D01*
X042819Y056922D01*
X043141Y056922D01*
X043438Y057046D01*
X043666Y057274D01*
X043790Y057571D01*
X043790Y057894D01*
X043666Y058191D01*
X043438Y058419D01*
X043141Y058542D01*
X043075Y058542D01*
X033525Y068092D01*
X033345Y068272D01*
X033109Y068370D01*
X029921Y068370D01*
X029685Y068272D01*
X028823Y067410D01*
X028804Y067365D01*
X028626Y067186D01*
X028626Y066573D01*
X028819Y066380D01*
X028626Y066186D01*
X028626Y065573D01*
X029059Y065140D01*
X029626Y065140D01*
X029626Y064573D01*
X030059Y064140D01*
X030672Y064140D01*
X031106Y064573D01*
X031106Y065186D01*
X030912Y065380D01*
X031106Y065573D01*
X031106Y066186D01*
X030912Y066380D01*
X031106Y066573D01*
X031106Y067090D01*
X032717Y067090D01*
X041352Y058455D01*
X041141Y058542D01*
X040819Y058542D01*
X040521Y058419D01*
X040480Y058378D01*
X040438Y058419D01*
X040141Y058542D01*
X039819Y058542D01*
X039521Y058419D01*
X039480Y058378D01*
X039438Y058419D01*
X039141Y058542D01*
X038819Y058542D01*
X038521Y058419D01*
X038293Y058191D01*
X038200Y057967D01*
X037810Y058358D01*
X037576Y058455D01*
X014585Y058455D01*
X014351Y058358D01*
X008006Y052013D01*
X008006Y060160D01*
X016633Y068787D01*
X039470Y068787D01*
X039705Y068884D01*
X039884Y069063D01*
X040555Y069734D01*
X054234Y069734D01*
X055166Y068803D01*
X055166Y068795D01*
X055278Y068523D01*
X055359Y068442D01*
X055278Y068361D01*
X055166Y068089D01*
X055166Y067795D01*
X055278Y067523D01*
X055359Y067442D01*
X055278Y067361D01*
X055166Y067089D01*
X055166Y066795D01*
X055278Y066523D01*
X055359Y066442D01*
X055278Y066361D01*
X055166Y066089D01*
X055166Y065795D01*
X055278Y065523D01*
X055486Y065314D01*
X055758Y065202D01*
X056653Y065202D01*
X056925Y065314D01*
X057133Y065523D01*
X057246Y065795D01*
X057246Y066089D01*
X057133Y066361D01*
X057052Y066442D01*
X057055Y066444D01*
X057418Y066081D01*
X057418Y038423D01*
X054322Y035327D01*
X054284Y035365D01*
X054325Y035407D01*
X054449Y035704D01*
X054449Y036026D01*
X054325Y036324D01*
X054284Y036365D01*
X054325Y036407D01*
X054449Y036704D01*
X054449Y037026D01*
X054325Y037324D01*
X054097Y037552D01*
X053800Y037675D01*
X053477Y037675D01*
X053180Y037552D01*
X052952Y037324D01*
X052829Y037026D01*
X052829Y036704D01*
X052952Y036407D01*
X052993Y036365D01*
X052952Y036324D01*
X052829Y036026D01*
X052829Y035704D01*
X052952Y035407D01*
X052993Y035365D01*
X052952Y035324D01*
X052829Y035026D01*
X052829Y034704D01*
X052952Y034407D01*
X053062Y034296D01*
X044108Y034296D01*
X034436Y043968D01*
X034257Y044147D01*
X034023Y044244D01*
X033770Y044244D01*
X033535Y044147D01*
X032664Y043275D01*
X032603Y043275D01*
X032306Y043152D01*
X032078Y042924D01*
X031955Y042626D01*
X031955Y042304D01*
X032078Y042007D01*
X032119Y041965D01*
X032078Y041924D01*
X031955Y041626D01*
X031955Y041304D01*
X032078Y041007D01*
X032119Y040965D01*
X032078Y040924D01*
X031955Y040626D01*
X031955Y040304D01*
X032078Y040007D01*
X032119Y039965D01*
X032078Y039924D01*
X031955Y039626D01*
X031955Y039304D01*
X032078Y039007D01*
X032119Y038965D01*
X032078Y038924D01*
X031955Y038626D01*
X031955Y038304D01*
X032078Y038007D01*
X032306Y037779D01*
X032603Y037655D01*
X032926Y037655D01*
X033223Y037779D01*
X033451Y038007D01*
X033575Y038304D01*
X033575Y038626D01*
X033451Y038924D01*
X033410Y038965D01*
X033451Y039007D01*
X033575Y039304D01*
X033575Y039626D01*
X033451Y039924D01*
X033410Y039965D01*
X033451Y040007D01*
X033575Y040304D01*
X033575Y040626D01*
X033451Y040924D01*
X033410Y040965D01*
X033451Y041007D01*
X033575Y041304D01*
X033575Y041626D01*
X033451Y041924D01*
X033410Y041965D01*
X033451Y042007D01*
X033575Y042304D01*
X033575Y042385D01*
X033896Y042706D01*
X042780Y033823D01*
X042161Y034442D02*
X031646Y034442D01*
X031248Y034840D02*
X041763Y034840D01*
X041364Y035239D02*
X030849Y035239D01*
X030451Y035637D02*
X040966Y035637D01*
X040567Y036036D02*
X030052Y036036D01*
X029654Y036434D02*
X040169Y036434D01*
X039770Y036833D02*
X029255Y036833D01*
X028857Y037231D02*
X039372Y037231D01*
X038973Y037630D02*
X028458Y037630D01*
X028060Y038028D02*
X032069Y038028D01*
X031955Y038427D02*
X027661Y038427D01*
X027263Y038825D02*
X032037Y038825D01*
X031988Y039224D02*
X026864Y039224D01*
X026466Y039622D02*
X031955Y039622D01*
X032072Y040021D02*
X026067Y040021D01*
X025669Y040419D02*
X031955Y040419D01*
X032034Y040818D02*
X025270Y040818D01*
X024872Y041216D02*
X031991Y041216D01*
X031955Y041615D02*
X024473Y041615D01*
X024075Y042013D02*
X032075Y042013D01*
X031955Y042412D02*
X023676Y042412D01*
X023278Y042810D02*
X032031Y042810D01*
X032442Y043209D02*
X022879Y043209D01*
X022481Y043607D02*
X032996Y043607D01*
X033394Y044006D02*
X022082Y044006D01*
X021684Y044404D02*
X044912Y044404D01*
X045026Y044451D02*
X044735Y044331D01*
X044512Y044108D01*
X044391Y043816D01*
X044391Y042796D01*
X044512Y042505D01*
X044735Y042282D01*
X045026Y042161D01*
X045341Y042161D01*
X045633Y042282D01*
X045856Y042505D01*
X045976Y042796D01*
X045976Y043816D01*
X045856Y044108D01*
X045633Y044331D01*
X045341Y044451D01*
X045026Y044451D01*
X045455Y044404D02*
X051620Y044404D01*
X051222Y044803D02*
X033247Y044803D01*
X033223Y044779D02*
X033451Y045007D01*
X033575Y045304D01*
X033575Y045626D01*
X033451Y045924D01*
X033223Y046152D01*
X032926Y046275D01*
X032603Y046275D01*
X032306Y046152D01*
X032078Y045924D01*
X031955Y045626D01*
X031955Y045304D01*
X032078Y045007D01*
X032306Y044779D01*
X032603Y044655D01*
X032926Y044655D01*
X033223Y044779D01*
X033532Y045201D02*
X050823Y045201D01*
X050425Y045600D02*
X033575Y045600D01*
X033377Y045998D02*
X050026Y045998D01*
X049628Y046397D02*
X023172Y046397D01*
X023183Y046427D02*
X023183Y046858D01*
X023043Y047266D01*
X022778Y047606D01*
X022417Y047842D01*
X021999Y047948D01*
X021569Y047912D01*
X021174Y047739D01*
X020857Y047447D01*
X020652Y047068D01*
X020581Y046643D01*
X020652Y046217D01*
X020857Y045838D01*
X021174Y045546D01*
X021569Y045373D01*
X021999Y045337D01*
X022417Y045443D01*
X022778Y045679D01*
X023043Y046019D01*
X023183Y046427D01*
X023183Y046795D02*
X032289Y046795D01*
X032306Y046779D02*
X032603Y046655D01*
X032926Y046655D01*
X033223Y046779D01*
X033451Y047007D01*
X033575Y047304D01*
X033575Y047626D01*
X033451Y047924D01*
X033410Y047965D01*
X033451Y048007D01*
X033575Y048304D01*
X033575Y048626D01*
X033451Y048924D01*
X033410Y048965D01*
X033451Y049007D01*
X033575Y049304D01*
X033575Y049626D01*
X033451Y049924D01*
X033410Y049965D01*
X033451Y050007D01*
X033575Y050304D01*
X033575Y050626D01*
X033451Y050924D01*
X033410Y050965D01*
X033451Y051007D01*
X033575Y051304D01*
X033575Y051626D01*
X033451Y051924D01*
X033410Y051965D01*
X033451Y052007D01*
X033575Y052304D01*
X033575Y052626D01*
X033451Y052924D01*
X033223Y053152D01*
X032926Y053275D01*
X032603Y053275D01*
X032306Y053152D01*
X032078Y052924D01*
X031955Y052626D01*
X031955Y052304D01*
X032078Y052007D01*
X032119Y051965D01*
X032078Y051924D01*
X031955Y051626D01*
X031955Y051304D01*
X032078Y051007D01*
X032119Y050965D01*
X032078Y050924D01*
X031955Y050626D01*
X031955Y050304D01*
X032078Y050007D01*
X032119Y049965D01*
X032078Y049924D01*
X031955Y049626D01*
X031955Y049304D01*
X032078Y049007D01*
X032119Y048965D01*
X032078Y048924D01*
X031955Y048626D01*
X031955Y048304D01*
X032078Y048007D01*
X032119Y047965D01*
X032078Y047924D01*
X031955Y047626D01*
X031955Y047304D01*
X032078Y047007D01*
X032306Y046779D01*
X032000Y047194D02*
X023067Y047194D01*
X022789Y047592D02*
X031955Y047592D01*
X032094Y047991D02*
X018097Y047991D01*
X017699Y048389D02*
X031955Y048389D01*
X032021Y048788D02*
X015405Y048788D01*
X015014Y049179D02*
X015014Y049179D01*
X015007Y049186D02*
X032004Y049186D01*
X031955Y049585D02*
X014575Y049585D01*
X014428Y049983D02*
X032101Y049983D01*
X031955Y050382D02*
X026847Y050382D01*
X027285Y050780D02*
X032018Y050780D01*
X032007Y051179D02*
X027684Y051179D01*
X028082Y051577D02*
X031955Y051577D01*
X032109Y051976D02*
X028481Y051976D01*
X028879Y052374D02*
X031955Y052374D01*
X032015Y052773D02*
X029278Y052773D01*
X029676Y053171D02*
X032352Y053171D01*
X033177Y053171D02*
X033379Y053171D01*
X033514Y052773D02*
X033778Y052773D01*
X033575Y052374D02*
X043650Y052374D01*
X044049Y051976D02*
X033420Y051976D01*
X033575Y051577D02*
X044447Y051577D01*
X044846Y051179D02*
X033523Y051179D01*
X033511Y050780D02*
X045244Y050780D01*
X045643Y050382D02*
X033575Y050382D01*
X033428Y049983D02*
X046041Y049983D01*
X046440Y049585D02*
X033575Y049585D01*
X033526Y049186D02*
X046838Y049186D01*
X047237Y048788D02*
X033508Y048788D01*
X033575Y048389D02*
X047635Y048389D01*
X048034Y047991D02*
X033435Y047991D01*
X033575Y047592D02*
X048432Y047592D01*
X048831Y047194D02*
X033529Y047194D01*
X033240Y046795D02*
X049229Y046795D01*
X052019Y044006D02*
X045898Y044006D01*
X045976Y043607D02*
X052417Y043607D01*
X051767Y042865D02*
X044596Y035695D01*
X043919Y035637D02*
X042767Y035637D01*
X043165Y035239D02*
X043973Y035239D01*
X043564Y034840D02*
X052829Y034840D01*
X052916Y035239D02*
X045219Y035239D01*
X045443Y035637D02*
X052856Y035637D01*
X052832Y036036D02*
X045842Y036036D01*
X046240Y036434D02*
X052940Y036434D01*
X052829Y036833D02*
X046639Y036833D01*
X047037Y037231D02*
X052913Y037231D01*
X053367Y037630D02*
X047436Y037630D01*
X047834Y038028D02*
X057023Y038028D01*
X057418Y038427D02*
X054334Y038427D01*
X054449Y038825D02*
X057418Y038825D01*
X057418Y039224D02*
X054367Y039224D01*
X054415Y039622D02*
X057418Y039622D01*
X057418Y040021D02*
X054449Y040021D01*
X054330Y040419D02*
X057418Y040419D01*
X057418Y040818D02*
X054449Y040818D01*
X054370Y041216D02*
X057418Y041216D01*
X057418Y041615D02*
X054411Y041615D01*
X054756Y042013D02*
X057418Y042013D01*
X057418Y042412D02*
X055155Y042412D01*
X055553Y042810D02*
X057418Y042810D01*
X057418Y043209D02*
X055952Y043209D01*
X056278Y043607D02*
X057418Y043607D01*
X057418Y044006D02*
X056323Y044006D01*
X056323Y044404D02*
X057418Y044404D01*
X057418Y044803D02*
X056323Y044803D01*
X056323Y045201D02*
X057418Y045201D01*
X057418Y045600D02*
X056323Y045600D01*
X056323Y045998D02*
X057418Y045998D01*
X057418Y046397D02*
X056323Y046397D01*
X056323Y046795D02*
X057418Y046795D01*
X057418Y047194D02*
X056323Y047194D01*
X056323Y047592D02*
X057418Y047592D01*
X057418Y047991D02*
X056323Y047991D01*
X056323Y048389D02*
X057418Y048389D01*
X057418Y048788D02*
X056323Y048788D01*
X056323Y049186D02*
X057418Y049186D01*
X057418Y049585D02*
X056323Y049585D01*
X056323Y049983D02*
X057418Y049983D01*
X057418Y050382D02*
X056323Y050382D01*
X056323Y050780D02*
X057418Y050780D01*
X057418Y051179D02*
X056323Y051179D01*
X056323Y051577D02*
X057418Y051577D01*
X057418Y051976D02*
X056323Y051976D01*
X056323Y052374D02*
X057418Y052374D01*
X057418Y052773D02*
X056323Y052773D01*
X056323Y053171D02*
X057418Y053171D01*
X057418Y053570D02*
X056272Y053570D01*
X055937Y053968D02*
X057418Y053968D01*
X057418Y054367D02*
X055538Y054367D01*
X055140Y054765D02*
X057418Y054765D01*
X057418Y055164D02*
X054741Y055164D01*
X054277Y055562D02*
X057418Y055562D01*
X057418Y055961D02*
X040207Y055961D01*
X039809Y056359D02*
X057418Y056359D01*
X057418Y056758D02*
X039410Y056758D01*
X038453Y058352D02*
X037816Y058352D01*
X039861Y059946D02*
X024602Y059946D01*
X024602Y060344D02*
X039463Y060344D01*
X039064Y060743D02*
X024602Y060743D01*
X024602Y061141D02*
X038666Y061141D01*
X038267Y061540D02*
X024602Y061540D01*
X024602Y061938D02*
X037869Y061938D01*
X037470Y062337D02*
X024602Y062337D01*
X024602Y062735D02*
X037072Y062735D01*
X036673Y063134D02*
X024602Y063134D01*
X024602Y063532D02*
X036275Y063532D01*
X035876Y063931D02*
X024602Y063931D01*
X024602Y064329D02*
X029869Y064329D01*
X029626Y064728D02*
X024602Y064728D01*
X024602Y065126D02*
X029626Y065126D01*
X028674Y065525D02*
X024602Y065525D01*
X024602Y065923D02*
X028626Y065923D01*
X028761Y066322D02*
X024602Y066322D01*
X024602Y066720D02*
X028626Y066720D01*
X028626Y067119D02*
X024602Y067119D01*
X024602Y067364D02*
X024602Y059490D01*
X024602Y059220D01*
X024499Y058970D01*
X024307Y058779D01*
X024057Y058675D01*
X015913Y058675D01*
X015663Y058779D01*
X015472Y058970D01*
X015368Y059220D01*
X015368Y067364D01*
X015472Y067614D01*
X015663Y067806D01*
X015913Y067909D01*
X024057Y067909D01*
X024307Y067806D01*
X024499Y067614D01*
X024602Y067364D01*
X024539Y067517D02*
X028930Y067517D01*
X029328Y067916D02*
X015762Y067916D01*
X015431Y067517D02*
X015363Y067517D01*
X015368Y067119D02*
X014965Y067119D01*
X014566Y066720D02*
X015368Y066720D01*
X015368Y066322D02*
X014168Y066322D01*
X013769Y065923D02*
X015368Y065923D01*
X015368Y065525D02*
X013371Y065525D01*
X012972Y065126D02*
X015368Y065126D01*
X015368Y064728D02*
X012574Y064728D01*
X012175Y064329D02*
X015368Y064329D01*
X015368Y063931D02*
X011777Y063931D01*
X011378Y063532D02*
X015368Y063532D01*
X015368Y063134D02*
X010980Y063134D01*
X010581Y062735D02*
X015368Y062735D01*
X015368Y062337D02*
X010183Y062337D01*
X009784Y061938D02*
X015368Y061938D01*
X015368Y061540D02*
X009386Y061540D01*
X008987Y061141D02*
X015368Y061141D01*
X015368Y060743D02*
X008589Y060743D01*
X008190Y060344D02*
X015368Y060344D01*
X015368Y059946D02*
X008006Y059946D01*
X008006Y059547D02*
X015368Y059547D01*
X015398Y059149D02*
X008006Y059149D01*
X008006Y058750D02*
X015732Y058750D01*
X014344Y058352D02*
X008006Y058352D01*
X008006Y057953D02*
X013946Y057953D01*
X013547Y057555D02*
X008006Y057555D01*
X008006Y057156D02*
X013149Y057156D01*
X012750Y056758D02*
X008006Y056758D01*
X008006Y056359D02*
X012352Y056359D01*
X011953Y055961D02*
X008006Y055961D01*
X008006Y055562D02*
X011555Y055562D01*
X011156Y055164D02*
X008006Y055164D01*
X008006Y054765D02*
X010758Y054765D01*
X010359Y054367D02*
X008006Y054367D01*
X008006Y053968D02*
X009961Y053968D01*
X009562Y053570D02*
X008006Y053570D01*
X008006Y053171D02*
X009164Y053171D01*
X008765Y052773D02*
X008006Y052773D01*
X008006Y052374D02*
X008367Y052374D01*
X012606Y045465D02*
X011998Y044858D01*
X011998Y035189D01*
X013764Y033423D01*
X014048Y034043D02*
X023848Y034043D01*
X023450Y034442D02*
X014466Y034442D01*
X014575Y034840D02*
X023051Y034840D01*
X022653Y035239D02*
X014487Y035239D01*
X014547Y035637D02*
X022254Y035637D01*
X021856Y036036D02*
X014571Y036036D01*
X014463Y036434D02*
X021457Y036434D01*
X021059Y036833D02*
X014575Y036833D01*
X014490Y037231D02*
X020660Y037231D01*
X020262Y037630D02*
X014036Y037630D01*
X013493Y037630D02*
X012638Y037630D01*
X012638Y038028D02*
X019863Y038028D01*
X019465Y038427D02*
X014460Y038427D01*
X014575Y038825D02*
X019066Y038825D01*
X018668Y039224D02*
X014493Y039224D01*
X014541Y039622D02*
X018269Y039622D01*
X017871Y040021D02*
X014575Y040021D01*
X014456Y040419D02*
X017472Y040419D01*
X017074Y040818D02*
X014575Y040818D01*
X014496Y041216D02*
X016675Y041216D01*
X016277Y041615D02*
X014537Y041615D01*
X014575Y042013D02*
X015878Y042013D01*
X015480Y042412D02*
X014453Y042412D01*
X014575Y042810D02*
X015081Y042810D01*
X014683Y043209D02*
X014499Y043209D01*
X014711Y044791D02*
X013527Y044791D01*
X013052Y044316D01*
X013052Y040578D01*
X013765Y039865D01*
X012989Y039622D02*
X012638Y039622D01*
X012638Y039224D02*
X013036Y039224D01*
X012955Y038825D02*
X012638Y038825D01*
X012638Y038427D02*
X013070Y038427D01*
X013039Y037231D02*
X012638Y037231D01*
X012638Y036833D02*
X012955Y036833D01*
X013066Y036434D02*
X012638Y036434D01*
X012638Y036036D02*
X012958Y036036D01*
X012982Y035637D02*
X012638Y035637D01*
X012853Y035239D02*
X013042Y035239D01*
X014443Y033645D02*
X024247Y033645D01*
X024496Y033246D02*
X014841Y033246D01*
X015240Y032848D02*
X024496Y032848D01*
X024496Y032449D02*
X015638Y032449D01*
X016037Y032051D02*
X024496Y032051D01*
X024588Y031652D02*
X016435Y031652D01*
X016834Y031254D02*
X024980Y031254D01*
X025378Y030855D02*
X017232Y030855D01*
X017631Y030457D02*
X025777Y030457D01*
X026175Y030058D02*
X018029Y030058D01*
X018428Y029660D02*
X026574Y029660D01*
X026972Y029261D02*
X018826Y029261D01*
X019225Y028863D02*
X027371Y028863D01*
X027769Y028464D02*
X019623Y028464D01*
X020022Y028066D02*
X028168Y028066D01*
X028566Y027667D02*
X020420Y027667D01*
X020819Y027269D02*
X028965Y027269D01*
X029363Y026870D02*
X021217Y026870D01*
X021616Y026472D02*
X029762Y026472D01*
X030160Y026073D02*
X022014Y026073D01*
X022413Y025675D02*
X030559Y025675D01*
X030957Y025276D02*
X022811Y025276D01*
X023210Y024878D02*
X031356Y024878D01*
X031754Y024479D02*
X023608Y024479D01*
X024007Y024081D02*
X032153Y024081D01*
X032551Y023682D02*
X024405Y023682D01*
X024804Y023284D02*
X032950Y023284D01*
X033348Y022885D02*
X025202Y022885D01*
X025601Y022487D02*
X033747Y022487D01*
X034145Y022088D02*
X025999Y022088D01*
X026398Y021690D02*
X034544Y021690D01*
X034942Y021291D02*
X026796Y021291D01*
X027195Y020893D02*
X035341Y020893D01*
X039227Y028464D02*
X040775Y028464D01*
X040691Y028863D02*
X039311Y028863D01*
X042227Y028464D02*
X042775Y028464D01*
X042691Y028863D02*
X042311Y028863D01*
X043962Y034442D02*
X052937Y034442D01*
X054421Y035637D02*
X054632Y035637D01*
X054445Y036036D02*
X055030Y036036D01*
X055429Y036434D02*
X054337Y036434D01*
X054449Y036833D02*
X055827Y036833D01*
X056226Y037231D02*
X054364Y037231D01*
X053910Y037630D02*
X056624Y037630D01*
X052944Y038427D02*
X048233Y038427D01*
X048631Y038825D02*
X052829Y038825D01*
X052910Y039224D02*
X049030Y039224D01*
X049428Y039622D02*
X052863Y039622D01*
X052829Y040021D02*
X049827Y040021D01*
X050225Y040419D02*
X052947Y040419D01*
X052829Y040818D02*
X050624Y040818D01*
X051022Y041216D02*
X052907Y041216D01*
X052866Y041615D02*
X051421Y041615D01*
X051819Y042013D02*
X052829Y042013D01*
X053639Y042865D02*
X051767Y042865D01*
X051205Y043209D02*
X045976Y043209D01*
X045976Y042810D02*
X050806Y042810D01*
X050408Y042412D02*
X045762Y042412D01*
X044605Y042412D02*
X035992Y042412D01*
X035594Y042810D02*
X044391Y042810D01*
X044391Y043209D02*
X035195Y043209D01*
X034797Y043607D02*
X044391Y043607D01*
X044470Y044006D02*
X034398Y044006D01*
X034191Y042412D02*
X033601Y042412D01*
X033454Y042013D02*
X034590Y042013D01*
X034988Y041615D02*
X033575Y041615D01*
X033538Y041216D02*
X035387Y041216D01*
X035785Y040818D02*
X033495Y040818D01*
X033575Y040419D02*
X036184Y040419D01*
X036582Y040021D02*
X033457Y040021D01*
X033575Y039622D02*
X036981Y039622D01*
X037379Y039224D02*
X033541Y039224D01*
X033492Y038825D02*
X037778Y038825D01*
X038176Y038427D02*
X033575Y038427D01*
X033460Y038028D02*
X038575Y038028D01*
X039579Y038825D02*
X046821Y038825D01*
X046423Y038427D02*
X039977Y038427D01*
X040376Y038028D02*
X046024Y038028D01*
X045626Y037630D02*
X040774Y037630D01*
X041173Y037231D02*
X045227Y037231D01*
X044829Y036833D02*
X041571Y036833D01*
X041970Y036434D02*
X044430Y036434D01*
X043925Y036036D02*
X042368Y036036D01*
X039180Y039224D02*
X047220Y039224D01*
X047618Y039622D02*
X038782Y039622D01*
X038383Y040021D02*
X048017Y040021D01*
X048415Y040419D02*
X037985Y040419D01*
X037586Y040818D02*
X048814Y040818D01*
X049212Y041216D02*
X037188Y041216D01*
X036789Y041615D02*
X049611Y041615D01*
X050009Y042013D02*
X036391Y042013D01*
X032282Y044803D02*
X021285Y044803D01*
X020887Y045201D02*
X031997Y045201D01*
X031955Y045600D02*
X022657Y045600D01*
X023026Y045998D02*
X032152Y045998D01*
X021116Y045600D02*
X020488Y045600D01*
X020770Y045998D02*
X020090Y045998D01*
X019691Y046397D02*
X020622Y046397D01*
X020606Y046795D02*
X019293Y046795D01*
X018894Y047194D02*
X020720Y047194D01*
X021014Y047592D02*
X018496Y047592D01*
X013765Y045465D02*
X012606Y045465D01*
X012638Y040021D02*
X012704Y040021D01*
X024238Y058750D02*
X041057Y058750D01*
X040658Y059149D02*
X024573Y059149D01*
X024602Y059547D02*
X040260Y059547D01*
X041273Y060344D02*
X057418Y060344D01*
X057418Y059946D02*
X041672Y059946D01*
X042070Y059547D02*
X057418Y059547D01*
X057418Y059149D02*
X042469Y059149D01*
X042867Y058750D02*
X057418Y058750D01*
X057418Y058352D02*
X053506Y058352D01*
X053438Y058419D02*
X053666Y058191D01*
X053790Y057894D01*
X053790Y057571D01*
X053666Y057274D01*
X053438Y057046D01*
X053141Y056922D01*
X052819Y056922D01*
X052521Y057046D01*
X052480Y057087D01*
X052438Y057046D01*
X052141Y056922D01*
X051819Y056922D01*
X051521Y057046D01*
X051480Y057087D01*
X051438Y057046D01*
X051141Y056922D01*
X050819Y056922D01*
X050521Y057046D01*
X050480Y057087D01*
X050438Y057046D01*
X050141Y056922D01*
X049819Y056922D01*
X049521Y057046D01*
X049480Y057087D01*
X049438Y057046D01*
X049141Y056922D01*
X048819Y056922D01*
X048521Y057046D01*
X048480Y057087D01*
X048438Y057046D01*
X048141Y056922D01*
X047819Y056922D01*
X047521Y057046D01*
X047293Y057274D01*
X047170Y057571D01*
X047170Y057894D01*
X047293Y058191D01*
X047521Y058419D01*
X047819Y058542D01*
X048141Y058542D01*
X048438Y058419D01*
X048480Y058378D01*
X048521Y058419D01*
X048819Y058542D01*
X049141Y058542D01*
X049438Y058419D01*
X049480Y058378D01*
X049521Y058419D01*
X049819Y058542D01*
X050141Y058542D01*
X050438Y058419D01*
X050480Y058378D01*
X050521Y058419D01*
X050819Y058542D01*
X051141Y058542D01*
X051438Y058419D01*
X051480Y058378D01*
X051521Y058419D01*
X051819Y058542D01*
X052141Y058542D01*
X052438Y058419D01*
X052480Y058378D01*
X052521Y058419D01*
X052819Y058542D01*
X053141Y058542D01*
X053438Y058419D01*
X053765Y057953D02*
X057418Y057953D01*
X057418Y057555D02*
X053783Y057555D01*
X053549Y057156D02*
X057418Y057156D01*
X057418Y060743D02*
X040875Y060743D01*
X040476Y061141D02*
X057418Y061141D01*
X057418Y061540D02*
X057140Y061540D01*
X057133Y061523D02*
X057246Y061795D01*
X057246Y062089D01*
X057133Y062361D01*
X057052Y062442D01*
X057133Y062523D01*
X057246Y062795D01*
X057246Y063089D01*
X057133Y063361D01*
X057052Y063442D01*
X057133Y063523D01*
X057246Y063795D01*
X057246Y064089D01*
X057133Y064361D01*
X056925Y064569D01*
X056653Y064682D01*
X055758Y064682D01*
X055486Y064569D01*
X055278Y064361D01*
X055166Y064089D01*
X055166Y063795D01*
X055278Y063523D01*
X055359Y063442D01*
X055278Y063361D01*
X055166Y063089D01*
X055166Y062795D01*
X055278Y062523D01*
X055359Y062442D01*
X055278Y062361D01*
X055166Y062089D01*
X055166Y061795D01*
X055278Y061523D01*
X055486Y061314D01*
X055758Y061202D01*
X056653Y061202D01*
X056925Y061314D01*
X057133Y061523D01*
X057246Y061938D02*
X057418Y061938D01*
X057418Y062337D02*
X057143Y062337D01*
X057221Y062735D02*
X057418Y062735D01*
X057418Y063134D02*
X057227Y063134D01*
X057137Y063532D02*
X057418Y063532D01*
X057418Y063931D02*
X057246Y063931D01*
X057146Y064329D02*
X057418Y064329D01*
X057418Y064728D02*
X036890Y064728D01*
X037288Y064329D02*
X055265Y064329D01*
X055166Y063931D02*
X037687Y063931D01*
X038085Y063532D02*
X055274Y063532D01*
X055184Y063134D02*
X038484Y063134D01*
X038882Y062735D02*
X055190Y062735D01*
X055268Y062337D02*
X039281Y062337D01*
X039679Y061938D02*
X055166Y061938D01*
X055271Y061540D02*
X040078Y061540D01*
X043506Y058352D02*
X045453Y058352D01*
X045521Y058419D02*
X045293Y058191D01*
X045170Y057894D01*
X045170Y057571D01*
X045293Y057274D01*
X045521Y057046D01*
X045819Y056922D01*
X046141Y056922D01*
X046438Y057046D01*
X046666Y057274D01*
X046790Y057571D01*
X046790Y057894D01*
X046666Y058191D01*
X046438Y058419D01*
X046141Y058542D01*
X045819Y058542D01*
X045521Y058419D01*
X045194Y057953D02*
X043765Y057953D01*
X043783Y057555D02*
X045177Y057555D01*
X045410Y057156D02*
X043549Y057156D01*
X042980Y057732D02*
X032982Y067730D01*
X030048Y067730D01*
X029366Y067048D01*
X029366Y066880D01*
X029786Y068314D02*
X016160Y068314D01*
X016559Y068713D02*
X052220Y068713D01*
X052220Y068397D02*
X052220Y069068D01*
X052694Y069542D01*
X053365Y069542D01*
X053530Y069378D01*
X053694Y069542D01*
X054365Y069542D01*
X054840Y069068D01*
X054840Y068397D01*
X054675Y068232D01*
X054840Y068068D01*
X054840Y067397D01*
X054675Y067232D01*
X054840Y067068D01*
X054840Y066397D01*
X054365Y065922D01*
X053694Y065922D01*
X053530Y066087D01*
X053365Y065922D01*
X052694Y065922D01*
X052220Y066397D01*
X052220Y067068D01*
X052384Y067232D01*
X052220Y067397D01*
X052220Y068068D01*
X052384Y068232D01*
X052220Y068397D01*
X052302Y068314D02*
X047734Y068314D01*
X047817Y068260D02*
X047456Y068496D01*
X047038Y068602D01*
X046608Y068566D01*
X046213Y068393D01*
X045896Y068101D01*
X045691Y067721D01*
X045620Y067296D01*
X045691Y066871D01*
X045896Y066491D01*
X046213Y066199D01*
X046608Y066026D01*
X047038Y065991D01*
X047456Y066096D01*
X047817Y066332D01*
X048082Y066673D01*
X048222Y067080D01*
X048222Y067512D01*
X048082Y067920D01*
X047817Y068260D01*
X048083Y067916D02*
X052220Y067916D01*
X052220Y067517D02*
X048220Y067517D01*
X048222Y067119D02*
X052270Y067119D01*
X052220Y066720D02*
X048098Y066720D01*
X047801Y066322D02*
X052295Y066322D01*
X052693Y065923D02*
X035694Y065923D01*
X036093Y065525D02*
X055277Y065525D01*
X055166Y065923D02*
X054366Y065923D01*
X054764Y066322D02*
X055262Y066322D01*
X055196Y066720D02*
X054840Y066720D01*
X054789Y067119D02*
X055178Y067119D01*
X055284Y067517D02*
X054840Y067517D01*
X054840Y067916D02*
X055166Y067916D01*
X055259Y068314D02*
X054757Y068314D01*
X054840Y068713D02*
X055199Y068713D01*
X054857Y069111D02*
X054796Y069111D01*
X054459Y069510D02*
X054398Y069510D01*
X053661Y069510D02*
X053398Y069510D01*
X052661Y069510D02*
X040330Y069510D01*
X039932Y069111D02*
X052263Y069111D01*
X054502Y070371D02*
X055932Y068942D01*
X056206Y068942D01*
X056169Y067940D02*
X056802Y067940D01*
X057480Y068617D01*
X057480Y071234D01*
X055619Y073094D01*
X019329Y073094D01*
X006895Y060660D01*
X030862Y064329D02*
X035478Y064329D01*
X035079Y064728D02*
X031106Y064728D01*
X031106Y065126D02*
X034681Y065126D01*
X034282Y065525D02*
X031057Y065525D01*
X031106Y065923D02*
X033884Y065923D01*
X033485Y066322D02*
X030970Y066322D01*
X031106Y066720D02*
X033087Y066720D01*
X034100Y067517D02*
X037310Y067517D01*
X037345Y067721D02*
X037274Y067296D01*
X037345Y066871D01*
X037550Y066491D01*
X037867Y066199D01*
X038262Y066026D01*
X038692Y065991D01*
X039110Y066096D01*
X039471Y066332D01*
X039736Y066673D01*
X039876Y067080D01*
X039876Y067512D01*
X039736Y067920D01*
X039471Y068260D01*
X039110Y068496D01*
X038692Y068602D01*
X038262Y068566D01*
X037867Y068393D01*
X037550Y068101D01*
X037345Y067721D01*
X037450Y067916D02*
X033702Y067916D01*
X033244Y068314D02*
X037782Y068314D01*
X037303Y067119D02*
X034499Y067119D01*
X034897Y066720D02*
X037426Y066720D01*
X037734Y066322D02*
X035296Y066322D01*
X036491Y065126D02*
X057418Y065126D01*
X057418Y065525D02*
X057134Y065525D01*
X057246Y065923D02*
X057418Y065923D01*
X057177Y066322D02*
X057149Y066322D01*
X053693Y065923D02*
X053366Y065923D01*
X046081Y066322D02*
X039454Y066322D01*
X039752Y066720D02*
X045772Y066720D01*
X045650Y067119D02*
X039876Y067119D01*
X039874Y067517D02*
X045657Y067517D01*
X045796Y067916D02*
X039737Y067916D01*
X039388Y068314D02*
X046128Y068314D01*
X045502Y075345D02*
X045175Y075672D01*
X045175Y077490D01*
X046378Y078693D01*
X054471Y078693D01*
X055213Y077950D01*
X054918Y077535D02*
X048772Y077535D01*
X047980Y076742D01*
X047980Y076732D01*
X054918Y077535D02*
X056871Y075582D01*
X066271Y065991D02*
X073524Y058739D01*
X073524Y028239D01*
X066094Y020809D01*
X066094Y020899D01*
X065997Y021133D01*
X065307Y021824D01*
X065307Y021989D01*
X066102Y021989D01*
X066374Y022102D01*
X066583Y022310D01*
X066695Y022582D01*
X066695Y022876D01*
X066583Y023148D01*
X066502Y023229D01*
X066583Y023310D01*
X066695Y023582D01*
X066695Y023876D01*
X066583Y024148D01*
X066502Y024229D01*
X066583Y024310D01*
X066695Y024582D01*
X066695Y024876D01*
X066583Y025148D01*
X066508Y025223D01*
X066508Y035527D01*
X071970Y040989D01*
X071993Y040965D01*
X071952Y040924D01*
X071829Y040626D01*
X071829Y040304D01*
X071952Y040007D01*
X071993Y039965D01*
X071952Y039924D01*
X071829Y039626D01*
X071829Y039304D01*
X071952Y039007D01*
X071993Y038965D01*
X071952Y038924D01*
X071829Y038626D01*
X071829Y038304D01*
X071952Y038007D01*
X072180Y037779D01*
X072477Y037655D01*
X072800Y037655D01*
X073097Y037779D01*
X073325Y038007D01*
X073449Y038304D01*
X073449Y038626D01*
X073325Y038924D01*
X073284Y038965D01*
X073325Y039007D01*
X073449Y039304D01*
X073449Y039626D01*
X073325Y039924D01*
X073284Y039965D01*
X073325Y040007D01*
X073449Y040304D01*
X073449Y040626D01*
X073325Y040924D01*
X073284Y040965D01*
X073325Y041007D01*
X073449Y041304D01*
X073449Y041626D01*
X073325Y041924D01*
X073284Y041965D01*
X073325Y042007D01*
X073449Y042304D01*
X073449Y042626D01*
X073325Y042924D01*
X073097Y043152D01*
X072800Y043275D01*
X072477Y043275D01*
X072180Y043152D01*
X071952Y042924D01*
X071845Y042665D01*
X071726Y042547D01*
X066271Y037092D01*
X066271Y065991D01*
X066271Y065923D02*
X066339Y065923D01*
X066271Y065525D02*
X066738Y065525D01*
X067136Y065126D02*
X066271Y065126D01*
X066271Y064728D02*
X067535Y064728D01*
X067933Y064329D02*
X066271Y064329D01*
X066271Y063931D02*
X068332Y063931D01*
X068730Y063532D02*
X066271Y063532D01*
X066271Y063134D02*
X069129Y063134D01*
X069527Y062735D02*
X066271Y062735D01*
X066271Y062337D02*
X069926Y062337D01*
X070324Y061938D02*
X066271Y061938D01*
X066271Y061540D02*
X070723Y061540D01*
X071121Y061141D02*
X066271Y061141D01*
X066271Y060743D02*
X071520Y060743D01*
X071918Y060344D02*
X066271Y060344D01*
X066271Y059946D02*
X072317Y059946D01*
X072715Y059547D02*
X066271Y059547D01*
X066271Y059149D02*
X073114Y059149D01*
X073512Y058750D02*
X066271Y058750D01*
X066271Y058352D02*
X073524Y058352D01*
X073524Y057953D02*
X066271Y057953D01*
X066271Y057555D02*
X073524Y057555D01*
X073524Y057156D02*
X066271Y057156D01*
X066271Y056758D02*
X073524Y056758D01*
X073524Y056359D02*
X066271Y056359D01*
X066271Y055961D02*
X073524Y055961D01*
X073524Y055562D02*
X066271Y055562D01*
X066271Y055164D02*
X073524Y055164D01*
X073524Y054765D02*
X066271Y054765D01*
X066271Y054367D02*
X073524Y054367D01*
X073524Y053968D02*
X066271Y053968D01*
X066271Y053570D02*
X073524Y053570D01*
X073524Y053171D02*
X073051Y053171D01*
X073097Y053152D02*
X072800Y053275D01*
X072477Y053275D01*
X072180Y053152D01*
X071952Y052924D01*
X071829Y052626D01*
X071829Y052304D01*
X071952Y052007D01*
X071993Y051965D01*
X071952Y051924D01*
X071829Y051626D01*
X071829Y051304D01*
X071952Y051007D01*
X071993Y050965D01*
X071952Y050924D01*
X071829Y050626D01*
X071829Y050304D01*
X071952Y050007D01*
X071993Y049965D01*
X071952Y049924D01*
X071829Y049626D01*
X071829Y049304D01*
X071952Y049007D01*
X071993Y048965D01*
X071952Y048924D01*
X071829Y048626D01*
X071829Y048304D01*
X071952Y048007D01*
X071993Y047965D01*
X071952Y047924D01*
X071829Y047626D01*
X071829Y047304D01*
X071952Y047007D01*
X072180Y046779D01*
X072477Y046655D01*
X072800Y046655D01*
X073097Y046779D01*
X073325Y047007D01*
X073449Y047304D01*
X073449Y047626D01*
X073325Y047924D01*
X073284Y047965D01*
X073325Y048007D01*
X073449Y048304D01*
X073449Y048626D01*
X073325Y048924D01*
X073284Y048965D01*
X073325Y049007D01*
X073449Y049304D01*
X073449Y049626D01*
X073325Y049924D01*
X073284Y049965D01*
X073325Y050007D01*
X073449Y050304D01*
X073449Y050626D01*
X073325Y050924D01*
X073284Y050965D01*
X073325Y051007D01*
X073449Y051304D01*
X073449Y051626D01*
X073325Y051924D01*
X073284Y051965D01*
X073325Y052007D01*
X073449Y052304D01*
X073449Y052626D01*
X073325Y052924D01*
X073097Y053152D01*
X073388Y052773D02*
X073524Y052773D01*
X073524Y052374D02*
X073449Y052374D01*
X073524Y051976D02*
X073294Y051976D01*
X073449Y051577D02*
X073524Y051577D01*
X073524Y051179D02*
X073397Y051179D01*
X073385Y050780D02*
X073524Y050780D01*
X073524Y050382D02*
X073449Y050382D01*
X073524Y049983D02*
X073302Y049983D01*
X073449Y049585D02*
X073524Y049585D01*
X073524Y049186D02*
X073400Y049186D01*
X073382Y048788D02*
X073524Y048788D01*
X073524Y048389D02*
X073449Y048389D01*
X073524Y047991D02*
X073309Y047991D01*
X073449Y047592D02*
X073524Y047592D01*
X073524Y047194D02*
X073403Y047194D01*
X073524Y046795D02*
X073114Y046795D01*
X073524Y046397D02*
X066271Y046397D01*
X066271Y046795D02*
X072163Y046795D01*
X071874Y047194D02*
X066271Y047194D01*
X066271Y047592D02*
X071829Y047592D01*
X071968Y047991D02*
X066271Y047991D01*
X066271Y048389D02*
X071829Y048389D01*
X071895Y048788D02*
X066271Y048788D01*
X066271Y049186D02*
X071878Y049186D01*
X071829Y049585D02*
X066271Y049585D01*
X066271Y049983D02*
X071975Y049983D01*
X071829Y050382D02*
X066271Y050382D01*
X066271Y050780D02*
X071892Y050780D01*
X071881Y051179D02*
X066271Y051179D01*
X066271Y051577D02*
X071829Y051577D01*
X071983Y051976D02*
X066271Y051976D01*
X066271Y052374D02*
X071829Y052374D01*
X071889Y052773D02*
X066271Y052773D01*
X066271Y053171D02*
X072226Y053171D01*
X072477Y046275D02*
X072180Y046152D01*
X071952Y045924D01*
X071829Y045626D01*
X071829Y045304D01*
X071952Y045007D01*
X072180Y044779D01*
X072477Y044655D01*
X072800Y044655D01*
X073097Y044779D01*
X073325Y045007D01*
X073449Y045304D01*
X073449Y045626D01*
X073325Y045924D01*
X073097Y046152D01*
X072800Y046275D01*
X072477Y046275D01*
X072026Y045998D02*
X066271Y045998D01*
X066271Y045600D02*
X071829Y045600D01*
X071871Y045201D02*
X066271Y045201D01*
X066271Y044803D02*
X072156Y044803D01*
X073121Y044803D02*
X073524Y044803D01*
X073524Y045201D02*
X073406Y045201D01*
X073449Y045600D02*
X073524Y045600D01*
X073524Y045998D02*
X073251Y045998D01*
X073524Y044404D02*
X066271Y044404D01*
X066271Y044006D02*
X073524Y044006D01*
X073524Y043607D02*
X066271Y043607D01*
X066271Y043209D02*
X072316Y043209D01*
X071905Y042810D02*
X066271Y042810D01*
X066271Y042412D02*
X071591Y042412D01*
X071192Y042013D02*
X066271Y042013D01*
X066271Y041615D02*
X070794Y041615D01*
X070395Y041216D02*
X066271Y041216D01*
X066271Y040818D02*
X069997Y040818D01*
X069598Y040419D02*
X066271Y040419D01*
X066271Y040021D02*
X069200Y040021D01*
X068801Y039622D02*
X066271Y039622D01*
X066271Y039224D02*
X068403Y039224D01*
X068004Y038825D02*
X066271Y038825D01*
X066271Y038427D02*
X067606Y038427D01*
X067207Y038028D02*
X066271Y038028D01*
X066271Y037630D02*
X066809Y037630D01*
X066410Y037231D02*
X066271Y037231D01*
X067415Y036434D02*
X073524Y036434D01*
X073524Y036036D02*
X067016Y036036D01*
X066618Y035637D02*
X073524Y035637D01*
X073524Y035239D02*
X066508Y035239D01*
X066508Y034840D02*
X073524Y034840D01*
X073524Y034442D02*
X066508Y034442D01*
X066508Y034043D02*
X073524Y034043D01*
X073524Y033645D02*
X066508Y033645D01*
X066508Y033246D02*
X073524Y033246D01*
X073524Y032848D02*
X066508Y032848D01*
X066508Y032449D02*
X073524Y032449D01*
X073524Y032051D02*
X066508Y032051D01*
X066508Y031652D02*
X073524Y031652D01*
X073524Y031254D02*
X066508Y031254D01*
X066508Y030855D02*
X073524Y030855D01*
X073524Y030457D02*
X066508Y030457D01*
X066508Y030058D02*
X073524Y030058D01*
X073524Y029660D02*
X066508Y029660D01*
X066508Y029261D02*
X073524Y029261D01*
X073524Y028863D02*
X066508Y028863D01*
X066508Y028464D02*
X073524Y028464D01*
X073351Y028066D02*
X066508Y028066D01*
X066508Y027667D02*
X072952Y027667D01*
X072554Y027269D02*
X066508Y027269D01*
X066508Y026870D02*
X072155Y026870D01*
X071757Y026472D02*
X066508Y026472D01*
X066508Y026073D02*
X071358Y026073D01*
X070960Y025675D02*
X066508Y025675D01*
X066508Y025276D02*
X070561Y025276D01*
X070163Y024878D02*
X066695Y024878D01*
X066653Y024479D02*
X069764Y024479D01*
X069366Y024081D02*
X066611Y024081D01*
X066695Y023682D02*
X068967Y023682D01*
X068569Y023284D02*
X066556Y023284D01*
X066692Y022885D02*
X068170Y022885D01*
X067772Y022487D02*
X066656Y022487D01*
X066341Y022088D02*
X067373Y022088D01*
X066975Y021690D02*
X065441Y021690D01*
X065839Y021291D02*
X066576Y021291D01*
X066178Y020893D02*
X066094Y020893D01*
X065655Y023729D02*
X065397Y023987D01*
X061660Y023987D01*
X061501Y023828D01*
X060501Y025828D02*
X060264Y025828D01*
X059541Y026550D01*
X059541Y027092D01*
X060423Y027975D01*
X051775Y028464D02*
X051227Y028464D01*
X051372Y028863D02*
X051691Y028863D01*
X059666Y018502D02*
X059691Y018502D01*
X067813Y036833D02*
X073524Y036833D01*
X073524Y037231D02*
X068212Y037231D01*
X068610Y037630D02*
X073524Y037630D01*
X073524Y038028D02*
X073334Y038028D01*
X073449Y038427D02*
X073524Y038427D01*
X073524Y038825D02*
X073366Y038825D01*
X073415Y039224D02*
X073524Y039224D01*
X073524Y039622D02*
X073449Y039622D01*
X073524Y040021D02*
X073331Y040021D01*
X073449Y040419D02*
X073524Y040419D01*
X073524Y040818D02*
X073369Y040818D01*
X073412Y041216D02*
X073524Y041216D01*
X073524Y041615D02*
X073449Y041615D01*
X073524Y042013D02*
X073328Y042013D01*
X073449Y042412D02*
X073524Y042412D01*
X073524Y042810D02*
X073373Y042810D01*
X073524Y043209D02*
X072961Y043209D01*
X071908Y040818D02*
X071798Y040818D01*
X071829Y040419D02*
X071400Y040419D01*
X071001Y040021D02*
X071946Y040021D01*
X071829Y039622D02*
X070603Y039622D01*
X070204Y039224D02*
X071862Y039224D01*
X071911Y038825D02*
X069806Y038825D01*
X069407Y038427D02*
X071829Y038427D01*
X071943Y038028D02*
X069009Y038028D01*
X047410Y057156D02*
X046549Y057156D01*
X046783Y057555D02*
X047177Y057555D01*
X047194Y057953D02*
X046765Y057953D01*
X046506Y058352D02*
X047453Y058352D01*
D20*
X043685Y063839D03*
X041286Y047240D03*
X025246Y042735D03*
X016742Y039800D03*
X014626Y059680D03*
X068269Y059157D03*
D21*
X074161Y059002D02*
X055213Y077950D01*
X056871Y075582D02*
X065634Y066818D01*
X065634Y036265D01*
X063029Y033659D01*
X063029Y025843D01*
X062555Y025370D01*
X062081Y025370D01*
X061608Y025843D01*
X061501Y025828D01*
X061501Y024828D02*
X061520Y024709D01*
X062702Y024709D01*
X064867Y026875D01*
X065871Y024896D02*
X065655Y024729D01*
X065871Y024896D02*
X065871Y035791D01*
X072266Y042186D01*
X072503Y042186D01*
X072740Y042423D01*
X072639Y042465D01*
X065160Y051897D02*
X065160Y066582D01*
X056634Y075108D01*
X050476Y075108D01*
X049291Y076292D01*
X049291Y076766D01*
X049055Y076766D01*
X048980Y076732D01*
X047160Y076529D02*
X047160Y075819D01*
X046686Y075345D01*
X047634Y074398D01*
X056634Y074398D01*
X060187Y070845D01*
X060187Y033659D01*
X060897Y032949D01*
X060897Y029159D01*
X059002Y027264D01*
X059002Y026317D01*
X060187Y025133D01*
X060660Y025133D01*
X060660Y024896D01*
X060501Y024828D01*
X060423Y027975D02*
X062555Y030107D01*
X062555Y049291D01*
X065160Y051897D01*
X055686Y053318D02*
X055686Y043844D01*
X053792Y041949D01*
X053639Y041865D01*
X052844Y044081D02*
X043844Y053081D01*
X034370Y053081D01*
X033423Y054029D01*
X029633Y054029D01*
X026554Y050949D01*
X014474Y050949D01*
X014001Y050476D01*
X013765Y050465D01*
X013764Y048818D02*
X013764Y048581D01*
X013765Y048465D01*
X013764Y048818D02*
X014474Y048818D01*
X015185Y048107D01*
X017080Y048107D01*
X032001Y033186D01*
X054029Y033186D01*
X058529Y037686D01*
X058529Y071792D01*
X056397Y073924D01*
X046923Y073924D01*
X045502Y075345D01*
X046980Y076732D02*
X047160Y076529D01*
X040291Y070371D02*
X039344Y069424D01*
X016369Y069424D01*
X007369Y060423D01*
X007369Y051186D01*
X005474Y049291D01*
X005474Y033423D01*
X029396Y009501D01*
X028922Y009264D02*
X028922Y009027D01*
X030107Y007843D01*
X048581Y007843D01*
X048344Y009737D02*
X048501Y009828D01*
X047634Y009974D02*
X047501Y009828D01*
X050949Y010448D02*
X051423Y009974D01*
X051501Y009828D01*
X050949Y010448D02*
X050949Y010922D01*
X052371Y012343D01*
X052567Y012461D01*
X053792Y014948D02*
X030107Y014948D01*
X010211Y034844D01*
X010211Y052607D01*
X014948Y057344D01*
X037212Y057344D01*
X040054Y054502D01*
X053792Y054502D01*
X055213Y053081D01*
X055213Y045976D01*
X053792Y044554D01*
X053318Y044554D01*
X052844Y044081D01*
X052607Y045265D02*
X053555Y045265D01*
X053639Y045465D01*
X053081Y045976D02*
X052607Y045976D01*
X044554Y054029D01*
X039817Y054029D01*
X036975Y056871D01*
X015185Y056871D01*
X010685Y052371D01*
X010685Y035080D01*
X030343Y015422D01*
X054029Y015422D01*
X059002Y010448D01*
X059002Y009264D01*
X059950Y008316D01*
X062081Y008316D01*
X063029Y009264D01*
X063029Y012817D01*
X062555Y013290D01*
X062081Y013290D01*
X061845Y013527D01*
X061371Y013527D01*
X061371Y013764D01*
X061501Y013828D01*
X061501Y014828D02*
X061608Y014948D01*
X061845Y014948D01*
X062081Y015185D01*
X062555Y015185D01*
X063503Y014238D01*
X063503Y009027D01*
X062318Y007843D01*
X059713Y007843D01*
X058529Y009027D01*
X058529Y010211D01*
X053792Y014948D01*
X054265Y015896D02*
X030580Y015896D01*
X011159Y035317D01*
X011159Y052134D01*
X015422Y056397D01*
X036738Y056397D01*
X039581Y053555D01*
X044318Y053555D01*
X052607Y045265D01*
X053081Y045976D02*
X053555Y046449D01*
X053639Y046465D01*
X055686Y053318D02*
X054029Y054976D01*
X040291Y054976D01*
X037449Y057818D01*
X014711Y057818D01*
X005948Y049055D01*
X005948Y038396D01*
X029870Y014474D01*
X030817Y016369D02*
X058529Y016369D01*
X059713Y015185D01*
X059950Y015185D01*
X060423Y014711D01*
X060501Y014828D01*
X060423Y015659D02*
X060501Y015828D01*
X060423Y015659D02*
X060187Y015659D01*
X054502Y021343D01*
X035791Y021343D01*
X025133Y032001D01*
X025133Y033659D01*
X014711Y044081D01*
X014001Y044081D01*
X013765Y043865D01*
X014711Y044791D02*
X021106Y038396D01*
X024422Y038396D01*
X029396Y033423D01*
X029396Y031765D01*
X033896Y027264D01*
X050002Y027264D01*
X060423Y016843D01*
X060501Y016828D01*
X061501Y016828D02*
X061520Y016835D01*
X065457Y020772D01*
X064670Y021560D01*
X064670Y023135D01*
X064867Y023331D01*
X061501Y015828D02*
X061608Y015659D01*
X061845Y015659D01*
X074161Y027975D01*
X074161Y059002D01*
X058055Y066345D02*
X058055Y038160D01*
X053555Y033659D01*
X043844Y033659D01*
X033896Y043607D01*
X032949Y042660D01*
X032765Y042465D01*
X024709Y038883D02*
X021363Y038883D01*
X013883Y046363D01*
X013765Y046465D01*
X006895Y051423D02*
X005000Y049528D01*
X005000Y033186D01*
X028922Y009264D01*
X030817Y016369D02*
X013764Y033423D01*
X024709Y038883D02*
X033961Y029631D01*
X050891Y029631D01*
X051087Y029434D01*
X057387Y035733D01*
X059552Y035733D01*
X054265Y015896D02*
X058529Y011632D01*
X059239Y011632D01*
X059476Y011869D01*
X059713Y011632D01*
X060423Y011632D01*
X060501Y011828D01*
X006895Y051423D02*
X006895Y060660D01*
X040291Y070371D02*
X054502Y070371D01*
X057581Y066818D02*
X058055Y066345D01*
D22*
X059552Y035733D03*
X064867Y026875D03*
X064867Y023331D03*
D23*
X044596Y035695D03*
M02*
