%
M48
M72
T01C0.0100
T02C0.0236
T03C0.0320
T04C0.0354
T05C0.0400
T06C0.0440
T07C0.0470
T08C0.0472
T09C0.1300
%
T01
X37702Y52564
X39178Y54040
X46265Y54040
X52170Y44099
X38391Y52564
X39375Y53548
T02
X23491Y56718
X21642Y49995
X17944Y65403
X13629Y53020
X44917Y52968
X57177Y41641
X54931Y38178
X51096Y41689
T03
X67711Y57243
X65811Y57243
X66215Y54348
X65215Y54348
X68955Y54553
X67955Y54553
X65971Y65220
X64971Y65220
X69431Y58857
X69431Y55857
X67334Y66764
X67334Y63764
X35162Y28123
X35162Y27123
X35271Y30225
X34271Y30225
X33713Y69558
X33713Y68558
X57251Y69338
X57251Y68338
X20432Y74009
X19790Y74775
X69738Y71671
X70381Y72437
X9995Y61376
X9089Y61798
X79157Y57934
X80063Y58357
X5450Y45633
X4450Y45633
X81621Y41760
X82621Y41760
X8212Y29157
X7305Y28735
X77184Y25763
X78090Y25340
X17527Y15582
X16885Y14816
X66633Y13146
X67276Y12380
X33943Y5446
X33943Y6446
X49666Y5401
X49666Y6401
X32796Y69581
X31812Y69602
X30781Y69602
X56418Y69581
X55434Y69602
X54403Y69602
X19076Y74399
X18310Y73783
X17519Y73120
X69669Y73114
X68929Y73762
X68139Y74425
X8358Y61146
X7923Y60264
X7487Y59329
X79701Y59335
X79305Y60235
X78869Y61169
X4247Y44607
X4227Y43623
X4227Y42592
X82967Y42608
X82988Y43591
X82988Y44622
X44607Y64856
X43623Y64877
X42592Y64877
X7513Y27880
X7910Y26980
X8346Y26045
X78856Y26068
X79291Y26950
X79727Y27885
X17545Y14100
X18285Y13452
X19075Y12789
X68138Y12815
X68905Y13431
X69695Y14094
X34734Y5035
X35717Y5014
X36748Y5014
X50482Y5035
X51465Y5014
X52496Y5014
X32801Y68332
X30801Y68332
X56419Y68318
X54419Y68318
X19858Y73424
X18326Y72138
X68792Y72196
X67260Y73482
X9525Y60605
X8680Y58793
X78640Y58722
X77795Y60535
X5487Y44589
X5487Y42589
X81622Y42623
X81622Y44623
X9678Y26713
X8833Y28526
X78358Y28439
X77513Y26627
X18379Y15057
X19911Y13772
X67256Y13715
X68788Y15000
X34782Y6346
X36782Y6346
X50501Y6286
X52501Y6286
X45394Y64498
X45394Y63498
X42583Y63494
X44583Y63494
X28268Y28110
X28268Y25110
X29451Y32602
X29451Y30702
X30485Y28013
X29485Y28013
X30461Y35367
X29461Y35367
X21301Y27425
X22301Y27425
X22461Y29711
X22461Y32711
T04
X42820Y50812
X42820Y51599
X43607Y50812
X43607Y51599
X44394Y50812
X44394Y51599
X36402Y42820
X35615Y42820
X36402Y43607
X35615Y43607
X36402Y44394
X35615Y44394
X44394Y36402
X44394Y35615
X43607Y36402
X43607Y35615
X42820Y36402
X42820Y35615
X50812Y44394
X51599Y44394
X50812Y43607
X51599Y43607
X50812Y42820
X51599Y42820
X32095Y23572
X32095Y24359
X32882Y23572
X32882Y24359
X33670Y23572
X33670Y24359
T05
X21559Y21729
X21559Y22729
X21559Y23729
X21559Y24729
X60790Y18769
X60790Y19769
X60790Y20769
X60790Y21769
X60790Y22769
X60790Y23769
X60790Y17769
X60790Y16769
X60790Y15769
X60790Y26769
X60790Y27769
X60790Y28769
X60790Y29769
X60790Y30769
X60790Y31769
X60790Y25769
X60790Y24769
X54790Y18769
X54790Y19769
X54790Y20769
X54790Y21769
X54790Y22769
X54790Y23769
X54790Y17769
X54790Y16769
X54790Y15769
X54790Y26769
X54790Y27769
X54790Y28769
X54790Y29769
X54790Y30769
X54790Y31769
X54790Y25769
X54790Y24769
X16376Y65465
X16376Y64465
X16376Y63465
X16376Y62465
X16376Y61465
X16376Y60465
X16376Y66465
X16376Y67465
X16376Y68465
X16376Y57465
X16376Y56465
X16376Y55465
X16376Y54465
X16376Y53465
X16376Y52465
X16376Y58465
X16376Y59465
X22376Y65465
X22376Y64465
X22376Y63465
X22376Y62465
X22376Y61465
X22376Y60465
X22376Y66465
X22376Y67465
X22376Y68465
X22376Y57465
X22376Y56465
X22376Y55465
X22376Y54465
X22376Y53465
X22376Y52465
X22376Y58465
X22376Y59465
X25997Y57749
X25997Y58749
X25997Y59749
X25997Y60749
X25997Y61749
X24997Y57749
X24997Y58749
X24997Y59749
X24997Y60749
X24997Y61749
T06
X58374Y59880
X59374Y59880
X60374Y59880
X61374Y59880
X62374Y59880
X63374Y59880
X64374Y59880
X65374Y59880
X66374Y59880
X67374Y59880
X68374Y59880
X69374Y59880
X70374Y59880
X71374Y59880
X71374Y62880
X70374Y62880
X69374Y62880
X68374Y62880
X67374Y62880
X66374Y62880
X65374Y62880
X64374Y62880
X63374Y62880
X62374Y62880
X61374Y62880
X60374Y62880
X59374Y62880
X58374Y62880
X37513Y30351
X37513Y29351
X37513Y28351
X26812Y23738
X26812Y24738
X26812Y25738
X26812Y26738
X26812Y27738
X26812Y28738
X26812Y29738
X26812Y30738
X26812Y31738
X26812Y32738
X26812Y33738
X26812Y34738
X26812Y35738
X26812Y36738
X23812Y36738
X23812Y35738
X23812Y34738
X23812Y33738
X23812Y32738
X23812Y31738
X23812Y30738
X23812Y29738
X23812Y28738
X23812Y27738
X23812Y26738
X23812Y25738
X23812Y24738
X23812Y23738
T07
X34712Y36805
X36104Y35413
T08
X60790Y14769
X54790Y14769
X54790Y32769
X60790Y32769
X16376Y69465
X22376Y69465
X22376Y51465
X16376Y51465
T09
X43413Y29351
M30
