G75*
%MOIN*%
%OFA0B0*%
%FSLAX24Y24*%
%IPPOS*%
%LPD*%
%AMOC8*
5,1,8,0,0,1.08239X$1,22.5*
%
%ADD10C,0.0160*%
%ADD11C,0.0000*%
D10*
X037702Y037702D02*
X049513Y037702D01*
X049513Y049513D01*
X037702Y049513D01*
X037702Y037702D01*
X025103Y080615D02*
X024205Y080152D01*
X023318Y079667D01*
X022443Y079160D01*
X021581Y078632D01*
X020733Y078083D01*
X019898Y077513D01*
X019077Y076923D01*
X018271Y076314D01*
X017480Y075684D01*
X016704Y075036D01*
X015945Y074369D01*
X015202Y073683D01*
X014476Y072980D01*
X013768Y072259D01*
X013077Y071521D01*
X012405Y070766D01*
X011751Y069995D01*
X011116Y069208D01*
X010501Y068406D01*
X009906Y067589D01*
X009331Y066758D01*
X008776Y065913D01*
X008242Y065055D01*
X007729Y064184D01*
X007238Y063301D01*
X006768Y062406D01*
X006321Y061499D01*
X005895Y060582D01*
X005493Y059655D01*
X005113Y058719D01*
X004756Y057773D01*
X004422Y056819D01*
X004112Y055857D01*
X003825Y054888D01*
X003562Y053912D01*
X003323Y052929D01*
X003108Y051942D01*
X002918Y050949D01*
X002751Y049952D01*
X002609Y048951D01*
X002492Y047947D01*
X002399Y046941D01*
X002331Y045932D01*
X002288Y044922D01*
X002269Y043912D01*
X002275Y042901D01*
X002305Y041891D01*
X002361Y040881D01*
X002441Y039874D01*
X002545Y038868D01*
X002675Y037866D01*
X002828Y036867D01*
X003006Y035872D01*
X003208Y034881D01*
X003435Y033896D01*
X003685Y032917D01*
X003960Y031944D01*
X004258Y030978D01*
X004579Y030020D01*
X004924Y029070D01*
X005292Y028129D01*
X005683Y027196D01*
X006097Y026274D01*
X006533Y025362D01*
X006991Y024461D01*
X007471Y023572D01*
X007973Y022694D01*
X008496Y021829D01*
X009040Y020977D01*
X009604Y020139D01*
X010189Y019315D01*
X010794Y018505D01*
X011419Y017710D01*
X012063Y016931D01*
X012725Y016168D01*
X013406Y015421D01*
X014106Y014691D01*
X014822Y013978D01*
X015556Y013283D01*
X016307Y012606D01*
X017074Y011948D01*
X017857Y011309D01*
X018656Y010689D01*
X019469Y010089D01*
X020297Y009509D01*
X021139Y008949D01*
X021994Y008410D01*
X022862Y007892D01*
X023742Y007396D01*
X024634Y006921D01*
X025538Y006468D01*
X026453Y006037D01*
X027377Y005629D01*
X028312Y005244D01*
X029255Y004881D01*
X030207Y004542D01*
X031168Y004226D01*
X032135Y003934D01*
X033110Y003665D01*
X034090Y003420D01*
X035077Y003200D01*
X036068Y003003D01*
X037064Y002831D01*
X038064Y002683D01*
X039067Y002560D01*
X040073Y002461D01*
X041082Y002387D01*
X042091Y002338D01*
X043102Y002313D01*
X044112Y002313D01*
X045123Y002338D01*
X046132Y002387D01*
X047141Y002461D01*
X048147Y002560D01*
X049150Y002683D01*
X050150Y002831D01*
X051146Y003003D01*
X052137Y003200D01*
X053124Y003420D01*
X054104Y003665D01*
X055079Y003934D01*
X056046Y004226D01*
X057007Y004542D01*
X057959Y004881D01*
X058902Y005244D01*
X059837Y005629D01*
X060761Y006037D01*
X061676Y006468D01*
X062580Y006921D01*
X063472Y007396D01*
X064352Y007892D01*
X065220Y008410D01*
X066075Y008949D01*
X066917Y009509D01*
X067745Y010089D01*
X068558Y010689D01*
X069357Y011309D01*
X070140Y011948D01*
X070907Y012606D01*
X071658Y013283D01*
X072392Y013978D01*
X073108Y014691D01*
X073808Y015421D01*
X074489Y016168D01*
X075151Y016931D01*
X075795Y017710D01*
X076420Y018505D01*
X077025Y019315D01*
X077610Y020139D01*
X078174Y020977D01*
X078718Y021829D01*
X079241Y022694D01*
X079743Y023572D01*
X080223Y024461D01*
X080681Y025362D01*
X081117Y026274D01*
X081531Y027196D01*
X081922Y028129D01*
X082290Y029070D01*
X082635Y030020D01*
X082956Y030978D01*
X083254Y031944D01*
X083529Y032917D01*
X083779Y033896D01*
X084006Y034881D01*
X084208Y035872D01*
X084386Y036867D01*
X084539Y037866D01*
X084669Y038868D01*
X084773Y039874D01*
X084853Y040881D01*
X084909Y041891D01*
X084939Y042901D01*
X084945Y043912D01*
X084926Y044922D01*
X084883Y045932D01*
X084815Y046941D01*
X084722Y047947D01*
X084605Y048951D01*
X084463Y049952D01*
X084296Y050949D01*
X084106Y051942D01*
X083891Y052929D01*
X083652Y053912D01*
X083389Y054888D01*
X083102Y055857D01*
X082792Y056819D01*
X082458Y057773D01*
X082101Y058719D01*
X081721Y059655D01*
X081319Y060582D01*
X080893Y061499D01*
X080446Y062406D01*
X079976Y063301D01*
X079485Y064184D01*
X078972Y065055D01*
X078438Y065913D01*
X077883Y066758D01*
X077308Y067589D01*
X076713Y068406D01*
X076098Y069208D01*
X075463Y069995D01*
X074809Y070766D01*
X074137Y071521D01*
X073446Y072259D01*
X072738Y072980D01*
X072012Y073683D01*
X071269Y074369D01*
X070510Y075036D01*
X069734Y075684D01*
X068943Y076314D01*
X068137Y076923D01*
X067316Y077513D01*
X066481Y078083D01*
X065633Y078632D01*
X064771Y079160D01*
X063896Y079667D01*
X063009Y080152D01*
X062111Y080615D01*
X062049Y080655D01*
X061986Y080692D01*
X061921Y080725D01*
X061855Y080754D01*
X061786Y080780D01*
X061717Y080803D01*
X061646Y080822D01*
X061575Y080837D01*
X061503Y080848D01*
X061430Y080855D01*
X061357Y080859D01*
X061284Y080858D01*
X061212Y080854D01*
X061139Y080846D01*
X061067Y080834D01*
X060996Y080819D01*
X060925Y080799D01*
X060856Y080776D01*
X060788Y080750D01*
X060722Y080719D01*
X060657Y080686D01*
X060594Y080649D01*
X060533Y080608D01*
X060475Y080565D01*
X060419Y080518D01*
X054225Y074328D01*
X060037Y077694D02*
X060039Y077750D01*
X060045Y077805D01*
X060055Y077859D01*
X060068Y077913D01*
X060086Y077966D01*
X060107Y078017D01*
X060131Y078067D01*
X060159Y078115D01*
X060191Y078161D01*
X060225Y078205D01*
X060263Y078246D01*
X060303Y078284D01*
X060346Y078319D01*
X060391Y078351D01*
X060439Y078380D01*
X060488Y078406D01*
X060539Y078428D01*
X060591Y078446D01*
X060645Y078460D01*
X060700Y078471D01*
X060755Y078478D01*
X060810Y078481D01*
X060866Y078480D01*
X060921Y078475D01*
X060976Y078466D01*
X061030Y078454D01*
X061083Y078437D01*
X061135Y078417D01*
X061185Y078393D01*
X061233Y078366D01*
X061280Y078336D01*
X061324Y078302D01*
X061366Y078265D01*
X061404Y078225D01*
X061441Y078183D01*
X061474Y078138D01*
X061503Y078092D01*
X061530Y078043D01*
X061552Y077992D01*
X061572Y077940D01*
X061587Y077886D01*
X061599Y077832D01*
X061607Y077777D01*
X061611Y077722D01*
X061611Y077666D01*
X061607Y077611D01*
X061599Y077556D01*
X061587Y077502D01*
X061572Y077448D01*
X061552Y077396D01*
X061530Y077345D01*
X061503Y077296D01*
X061474Y077250D01*
X061441Y077205D01*
X061404Y077163D01*
X061366Y077123D01*
X061324Y077086D01*
X061280Y077052D01*
X061233Y077022D01*
X061185Y076995D01*
X061135Y076971D01*
X061083Y076951D01*
X061030Y076934D01*
X060976Y076922D01*
X060921Y076913D01*
X060866Y076908D01*
X060810Y076907D01*
X060755Y076910D01*
X060700Y076917D01*
X060645Y076928D01*
X060591Y076942D01*
X060539Y076960D01*
X060488Y076982D01*
X060439Y077008D01*
X060391Y077037D01*
X060346Y077069D01*
X060303Y077104D01*
X060263Y077142D01*
X060225Y077183D01*
X060191Y077227D01*
X060159Y077273D01*
X060131Y077321D01*
X060107Y077371D01*
X060086Y077422D01*
X060068Y077475D01*
X060055Y077529D01*
X060045Y077583D01*
X060039Y077638D01*
X060037Y077694D01*
X054225Y074328D02*
X053965Y074075D01*
X053700Y073827D01*
X053428Y073587D01*
X053151Y073353D01*
X052868Y073126D01*
X052579Y072905D01*
X052286Y072692D01*
X051987Y072486D01*
X051684Y072287D01*
X051375Y072096D01*
X051063Y071912D01*
X050745Y071735D01*
X050424Y071567D01*
X050099Y071406D01*
X049770Y071253D01*
X049437Y071108D01*
X049101Y070971D01*
X048762Y070842D01*
X048419Y070722D01*
X048074Y070610D01*
X047727Y070506D01*
X047376Y070411D01*
X047024Y070324D01*
X046670Y070246D01*
X046314Y070176D01*
X045956Y070115D01*
X045597Y070062D01*
X045237Y070019D01*
X044876Y069984D01*
X044514Y069957D01*
X044151Y069940D01*
X043788Y069931D01*
X043426Y069931D01*
X043063Y069940D01*
X042700Y069957D01*
X042338Y069984D01*
X041977Y070019D01*
X041617Y070062D01*
X041258Y070115D01*
X040900Y070176D01*
X040544Y070246D01*
X040190Y070324D01*
X039838Y070411D01*
X039487Y070506D01*
X039140Y070610D01*
X038795Y070722D01*
X038452Y070842D01*
X038113Y070971D01*
X037777Y071108D01*
X037444Y071253D01*
X037115Y071406D01*
X036790Y071567D01*
X036469Y071735D01*
X036151Y071912D01*
X035839Y072096D01*
X035530Y072287D01*
X035227Y072486D01*
X034928Y072692D01*
X034635Y072905D01*
X034346Y073126D01*
X034063Y073353D01*
X033786Y073587D01*
X033514Y073827D01*
X033249Y074075D01*
X032989Y074328D01*
X026836Y080476D01*
X026787Y080527D01*
X026736Y080576D01*
X026681Y080621D01*
X026624Y080663D01*
X026565Y080702D01*
X026504Y080738D01*
X026440Y080770D01*
X026376Y080799D01*
X026309Y080824D01*
X026241Y080845D01*
X026173Y080862D01*
X026103Y080876D01*
X026033Y080886D01*
X025962Y080891D01*
X025891Y080893D01*
X025820Y080891D01*
X025750Y080885D01*
X025679Y080874D01*
X025610Y080860D01*
X025541Y080842D01*
X025474Y080821D01*
X025408Y080795D01*
X025343Y080766D01*
X025280Y080733D01*
X025219Y080697D01*
X025160Y080658D01*
X025103Y080615D01*
X025604Y077694D02*
X025606Y077750D01*
X025612Y077805D01*
X025622Y077859D01*
X025635Y077913D01*
X025653Y077966D01*
X025674Y078017D01*
X025698Y078067D01*
X025726Y078115D01*
X025758Y078161D01*
X025792Y078205D01*
X025830Y078246D01*
X025870Y078284D01*
X025913Y078319D01*
X025958Y078351D01*
X026006Y078380D01*
X026055Y078406D01*
X026106Y078428D01*
X026158Y078446D01*
X026212Y078460D01*
X026267Y078471D01*
X026322Y078478D01*
X026377Y078481D01*
X026433Y078480D01*
X026488Y078475D01*
X026543Y078466D01*
X026597Y078454D01*
X026650Y078437D01*
X026702Y078417D01*
X026752Y078393D01*
X026800Y078366D01*
X026847Y078336D01*
X026891Y078302D01*
X026933Y078265D01*
X026971Y078225D01*
X027008Y078183D01*
X027041Y078138D01*
X027070Y078092D01*
X027097Y078043D01*
X027119Y077992D01*
X027139Y077940D01*
X027154Y077886D01*
X027166Y077832D01*
X027174Y077777D01*
X027178Y077722D01*
X027178Y077666D01*
X027174Y077611D01*
X027166Y077556D01*
X027154Y077502D01*
X027139Y077448D01*
X027119Y077396D01*
X027097Y077345D01*
X027070Y077296D01*
X027041Y077250D01*
X027008Y077205D01*
X026971Y077163D01*
X026933Y077123D01*
X026891Y077086D01*
X026847Y077052D01*
X026800Y077022D01*
X026752Y076995D01*
X026702Y076971D01*
X026650Y076951D01*
X026597Y076934D01*
X026543Y076922D01*
X026488Y076913D01*
X026433Y076908D01*
X026377Y076907D01*
X026322Y076910D01*
X026267Y076917D01*
X026212Y076928D01*
X026158Y076942D01*
X026106Y076960D01*
X026055Y076982D01*
X026006Y077008D01*
X025958Y077037D01*
X025913Y077069D01*
X025870Y077104D01*
X025830Y077142D01*
X025792Y077183D01*
X025758Y077227D01*
X025726Y077273D01*
X025698Y077321D01*
X025674Y077371D01*
X025653Y077422D01*
X025635Y077475D01*
X025622Y077529D01*
X025612Y077583D01*
X025606Y077638D01*
X025604Y077694D01*
X007387Y043607D02*
X007389Y043663D01*
X007395Y043718D01*
X007405Y043772D01*
X007418Y043826D01*
X007436Y043879D01*
X007457Y043930D01*
X007481Y043980D01*
X007509Y044028D01*
X007541Y044074D01*
X007575Y044118D01*
X007613Y044159D01*
X007653Y044197D01*
X007696Y044232D01*
X007741Y044264D01*
X007789Y044293D01*
X007838Y044319D01*
X007889Y044341D01*
X007941Y044359D01*
X007995Y044373D01*
X008050Y044384D01*
X008105Y044391D01*
X008160Y044394D01*
X008216Y044393D01*
X008271Y044388D01*
X008326Y044379D01*
X008380Y044367D01*
X008433Y044350D01*
X008485Y044330D01*
X008535Y044306D01*
X008583Y044279D01*
X008630Y044249D01*
X008674Y044215D01*
X008716Y044178D01*
X008754Y044138D01*
X008791Y044096D01*
X008824Y044051D01*
X008853Y044005D01*
X008880Y043956D01*
X008902Y043905D01*
X008922Y043853D01*
X008937Y043799D01*
X008949Y043745D01*
X008957Y043690D01*
X008961Y043635D01*
X008961Y043579D01*
X008957Y043524D01*
X008949Y043469D01*
X008937Y043415D01*
X008922Y043361D01*
X008902Y043309D01*
X008880Y043258D01*
X008853Y043209D01*
X008824Y043163D01*
X008791Y043118D01*
X008754Y043076D01*
X008716Y043036D01*
X008674Y042999D01*
X008630Y042965D01*
X008583Y042935D01*
X008535Y042908D01*
X008485Y042884D01*
X008433Y042864D01*
X008380Y042847D01*
X008326Y042835D01*
X008271Y042826D01*
X008216Y042821D01*
X008160Y042820D01*
X008105Y042823D01*
X008050Y042830D01*
X007995Y042841D01*
X007941Y042855D01*
X007889Y042873D01*
X007838Y042895D01*
X007789Y042921D01*
X007741Y042950D01*
X007696Y042982D01*
X007653Y043017D01*
X007613Y043055D01*
X007575Y043096D01*
X007541Y043140D01*
X007509Y043186D01*
X007481Y043234D01*
X007457Y043284D01*
X007436Y043335D01*
X007418Y043388D01*
X007405Y043442D01*
X007395Y043496D01*
X007389Y043551D01*
X007387Y043607D01*
X042820Y005418D02*
X042822Y005474D01*
X042828Y005529D01*
X042838Y005583D01*
X042851Y005637D01*
X042869Y005690D01*
X042890Y005741D01*
X042914Y005791D01*
X042942Y005839D01*
X042974Y005885D01*
X043008Y005929D01*
X043046Y005970D01*
X043086Y006008D01*
X043129Y006043D01*
X043174Y006075D01*
X043222Y006104D01*
X043271Y006130D01*
X043322Y006152D01*
X043374Y006170D01*
X043428Y006184D01*
X043483Y006195D01*
X043538Y006202D01*
X043593Y006205D01*
X043649Y006204D01*
X043704Y006199D01*
X043759Y006190D01*
X043813Y006178D01*
X043866Y006161D01*
X043918Y006141D01*
X043968Y006117D01*
X044016Y006090D01*
X044063Y006060D01*
X044107Y006026D01*
X044149Y005989D01*
X044187Y005949D01*
X044224Y005907D01*
X044257Y005862D01*
X044286Y005816D01*
X044313Y005767D01*
X044335Y005716D01*
X044355Y005664D01*
X044370Y005610D01*
X044382Y005556D01*
X044390Y005501D01*
X044394Y005446D01*
X044394Y005390D01*
X044390Y005335D01*
X044382Y005280D01*
X044370Y005226D01*
X044355Y005172D01*
X044335Y005120D01*
X044313Y005069D01*
X044286Y005020D01*
X044257Y004974D01*
X044224Y004929D01*
X044187Y004887D01*
X044149Y004847D01*
X044107Y004810D01*
X044063Y004776D01*
X044016Y004746D01*
X043968Y004719D01*
X043918Y004695D01*
X043866Y004675D01*
X043813Y004658D01*
X043759Y004646D01*
X043704Y004637D01*
X043649Y004632D01*
X043593Y004631D01*
X043538Y004634D01*
X043483Y004641D01*
X043428Y004652D01*
X043374Y004666D01*
X043322Y004684D01*
X043271Y004706D01*
X043222Y004732D01*
X043174Y004761D01*
X043129Y004793D01*
X043086Y004828D01*
X043046Y004866D01*
X043008Y004907D01*
X042974Y004951D01*
X042942Y004997D01*
X042914Y005045D01*
X042890Y005095D01*
X042869Y005146D01*
X042851Y005199D01*
X042838Y005253D01*
X042828Y005307D01*
X042822Y005362D01*
X042820Y005418D01*
X078253Y043607D02*
X078255Y043663D01*
X078261Y043718D01*
X078271Y043772D01*
X078284Y043826D01*
X078302Y043879D01*
X078323Y043930D01*
X078347Y043980D01*
X078375Y044028D01*
X078407Y044074D01*
X078441Y044118D01*
X078479Y044159D01*
X078519Y044197D01*
X078562Y044232D01*
X078607Y044264D01*
X078655Y044293D01*
X078704Y044319D01*
X078755Y044341D01*
X078807Y044359D01*
X078861Y044373D01*
X078916Y044384D01*
X078971Y044391D01*
X079026Y044394D01*
X079082Y044393D01*
X079137Y044388D01*
X079192Y044379D01*
X079246Y044367D01*
X079299Y044350D01*
X079351Y044330D01*
X079401Y044306D01*
X079449Y044279D01*
X079496Y044249D01*
X079540Y044215D01*
X079582Y044178D01*
X079620Y044138D01*
X079657Y044096D01*
X079690Y044051D01*
X079719Y044005D01*
X079746Y043956D01*
X079768Y043905D01*
X079788Y043853D01*
X079803Y043799D01*
X079815Y043745D01*
X079823Y043690D01*
X079827Y043635D01*
X079827Y043579D01*
X079823Y043524D01*
X079815Y043469D01*
X079803Y043415D01*
X079788Y043361D01*
X079768Y043309D01*
X079746Y043258D01*
X079719Y043209D01*
X079690Y043163D01*
X079657Y043118D01*
X079620Y043076D01*
X079582Y043036D01*
X079540Y042999D01*
X079496Y042965D01*
X079449Y042935D01*
X079401Y042908D01*
X079351Y042884D01*
X079299Y042864D01*
X079246Y042847D01*
X079192Y042835D01*
X079137Y042826D01*
X079082Y042821D01*
X079026Y042820D01*
X078971Y042823D01*
X078916Y042830D01*
X078861Y042841D01*
X078807Y042855D01*
X078755Y042873D01*
X078704Y042895D01*
X078655Y042921D01*
X078607Y042950D01*
X078562Y042982D01*
X078519Y043017D01*
X078479Y043055D01*
X078441Y043096D01*
X078407Y043140D01*
X078375Y043186D01*
X078347Y043234D01*
X078323Y043284D01*
X078302Y043335D01*
X078284Y043388D01*
X078271Y043442D01*
X078261Y043496D01*
X078255Y043551D01*
X078253Y043607D01*
D11*
X060554Y032769D02*
X060556Y032799D01*
X060562Y032829D01*
X060571Y032858D01*
X060584Y032885D01*
X060601Y032910D01*
X060620Y032933D01*
X060643Y032954D01*
X060668Y032971D01*
X060694Y032985D01*
X060723Y032995D01*
X060752Y033002D01*
X060782Y033005D01*
X060813Y033004D01*
X060843Y032999D01*
X060872Y032990D01*
X060899Y032978D01*
X060925Y032963D01*
X060949Y032944D01*
X060970Y032922D01*
X060988Y032898D01*
X061003Y032871D01*
X061014Y032843D01*
X061022Y032814D01*
X061026Y032784D01*
X061026Y032754D01*
X061022Y032724D01*
X061014Y032695D01*
X061003Y032667D01*
X060988Y032640D01*
X060970Y032616D01*
X060949Y032594D01*
X060925Y032575D01*
X060899Y032560D01*
X060872Y032548D01*
X060843Y032539D01*
X060813Y032534D01*
X060782Y032533D01*
X060752Y032536D01*
X060723Y032543D01*
X060694Y032553D01*
X060668Y032567D01*
X060643Y032584D01*
X060620Y032605D01*
X060601Y032628D01*
X060584Y032653D01*
X060571Y032680D01*
X060562Y032709D01*
X060556Y032739D01*
X060554Y032769D01*
X054554Y032769D02*
X054556Y032799D01*
X054562Y032829D01*
X054571Y032858D01*
X054584Y032885D01*
X054601Y032910D01*
X054620Y032933D01*
X054643Y032954D01*
X054668Y032971D01*
X054694Y032985D01*
X054723Y032995D01*
X054752Y033002D01*
X054782Y033005D01*
X054813Y033004D01*
X054843Y032999D01*
X054872Y032990D01*
X054899Y032978D01*
X054925Y032963D01*
X054949Y032944D01*
X054970Y032922D01*
X054988Y032898D01*
X055003Y032871D01*
X055014Y032843D01*
X055022Y032814D01*
X055026Y032784D01*
X055026Y032754D01*
X055022Y032724D01*
X055014Y032695D01*
X055003Y032667D01*
X054988Y032640D01*
X054970Y032616D01*
X054949Y032594D01*
X054925Y032575D01*
X054899Y032560D01*
X054872Y032548D01*
X054843Y032539D01*
X054813Y032534D01*
X054782Y032533D01*
X054752Y032536D01*
X054723Y032543D01*
X054694Y032553D01*
X054668Y032567D01*
X054643Y032584D01*
X054620Y032605D01*
X054601Y032628D01*
X054584Y032653D01*
X054571Y032680D01*
X054562Y032709D01*
X054556Y032739D01*
X054554Y032769D01*
X042763Y029351D02*
X042765Y029401D01*
X042771Y029451D01*
X042781Y029501D01*
X042794Y029549D01*
X042811Y029597D01*
X042832Y029643D01*
X042856Y029687D01*
X042884Y029729D01*
X042915Y029769D01*
X042949Y029806D01*
X042986Y029841D01*
X043025Y029872D01*
X043066Y029901D01*
X043110Y029926D01*
X043156Y029948D01*
X043203Y029966D01*
X043251Y029980D01*
X043300Y029991D01*
X043350Y029998D01*
X043400Y030001D01*
X043451Y030000D01*
X043501Y029995D01*
X043551Y029986D01*
X043599Y029974D01*
X043647Y029957D01*
X043693Y029937D01*
X043738Y029914D01*
X043781Y029887D01*
X043821Y029857D01*
X043859Y029824D01*
X043894Y029788D01*
X043927Y029749D01*
X043956Y029708D01*
X043982Y029665D01*
X044005Y029620D01*
X044024Y029573D01*
X044039Y029525D01*
X044051Y029476D01*
X044059Y029426D01*
X044063Y029376D01*
X044063Y029326D01*
X044059Y029276D01*
X044051Y029226D01*
X044039Y029177D01*
X044024Y029129D01*
X044005Y029082D01*
X043982Y029037D01*
X043956Y028994D01*
X043927Y028953D01*
X043894Y028914D01*
X043859Y028878D01*
X043821Y028845D01*
X043781Y028815D01*
X043738Y028788D01*
X043693Y028765D01*
X043647Y028745D01*
X043599Y028728D01*
X043551Y028716D01*
X043501Y028707D01*
X043451Y028702D01*
X043400Y028701D01*
X043350Y028704D01*
X043300Y028711D01*
X043251Y028722D01*
X043203Y028736D01*
X043156Y028754D01*
X043110Y028776D01*
X043066Y028801D01*
X043025Y028830D01*
X042986Y028861D01*
X042949Y028896D01*
X042915Y028933D01*
X042884Y028973D01*
X042856Y029015D01*
X042832Y029059D01*
X042811Y029105D01*
X042794Y029153D01*
X042781Y029201D01*
X042771Y029251D01*
X042765Y029301D01*
X042763Y029351D01*
X054554Y014769D02*
X054556Y014799D01*
X054562Y014829D01*
X054571Y014858D01*
X054584Y014885D01*
X054601Y014910D01*
X054620Y014933D01*
X054643Y014954D01*
X054668Y014971D01*
X054694Y014985D01*
X054723Y014995D01*
X054752Y015002D01*
X054782Y015005D01*
X054813Y015004D01*
X054843Y014999D01*
X054872Y014990D01*
X054899Y014978D01*
X054925Y014963D01*
X054949Y014944D01*
X054970Y014922D01*
X054988Y014898D01*
X055003Y014871D01*
X055014Y014843D01*
X055022Y014814D01*
X055026Y014784D01*
X055026Y014754D01*
X055022Y014724D01*
X055014Y014695D01*
X055003Y014667D01*
X054988Y014640D01*
X054970Y014616D01*
X054949Y014594D01*
X054925Y014575D01*
X054899Y014560D01*
X054872Y014548D01*
X054843Y014539D01*
X054813Y014534D01*
X054782Y014533D01*
X054752Y014536D01*
X054723Y014543D01*
X054694Y014553D01*
X054668Y014567D01*
X054643Y014584D01*
X054620Y014605D01*
X054601Y014628D01*
X054584Y014653D01*
X054571Y014680D01*
X054562Y014709D01*
X054556Y014739D01*
X054554Y014769D01*
X060554Y014769D02*
X060556Y014799D01*
X060562Y014829D01*
X060571Y014858D01*
X060584Y014885D01*
X060601Y014910D01*
X060620Y014933D01*
X060643Y014954D01*
X060668Y014971D01*
X060694Y014985D01*
X060723Y014995D01*
X060752Y015002D01*
X060782Y015005D01*
X060813Y015004D01*
X060843Y014999D01*
X060872Y014990D01*
X060899Y014978D01*
X060925Y014963D01*
X060949Y014944D01*
X060970Y014922D01*
X060988Y014898D01*
X061003Y014871D01*
X061014Y014843D01*
X061022Y014814D01*
X061026Y014784D01*
X061026Y014754D01*
X061022Y014724D01*
X061014Y014695D01*
X061003Y014667D01*
X060988Y014640D01*
X060970Y014616D01*
X060949Y014594D01*
X060925Y014575D01*
X060899Y014560D01*
X060872Y014548D01*
X060843Y014539D01*
X060813Y014534D01*
X060782Y014533D01*
X060752Y014536D01*
X060723Y014543D01*
X060694Y014553D01*
X060668Y014567D01*
X060643Y014584D01*
X060620Y014605D01*
X060601Y014628D01*
X060584Y014653D01*
X060571Y014680D01*
X060562Y014709D01*
X060556Y014739D01*
X060554Y014769D01*
X022140Y051465D02*
X022142Y051495D01*
X022148Y051525D01*
X022157Y051554D01*
X022170Y051581D01*
X022187Y051606D01*
X022206Y051629D01*
X022229Y051650D01*
X022254Y051667D01*
X022280Y051681D01*
X022309Y051691D01*
X022338Y051698D01*
X022368Y051701D01*
X022399Y051700D01*
X022429Y051695D01*
X022458Y051686D01*
X022485Y051674D01*
X022511Y051659D01*
X022535Y051640D01*
X022556Y051618D01*
X022574Y051594D01*
X022589Y051567D01*
X022600Y051539D01*
X022608Y051510D01*
X022612Y051480D01*
X022612Y051450D01*
X022608Y051420D01*
X022600Y051391D01*
X022589Y051363D01*
X022574Y051336D01*
X022556Y051312D01*
X022535Y051290D01*
X022511Y051271D01*
X022485Y051256D01*
X022458Y051244D01*
X022429Y051235D01*
X022399Y051230D01*
X022368Y051229D01*
X022338Y051232D01*
X022309Y051239D01*
X022280Y051249D01*
X022254Y051263D01*
X022229Y051280D01*
X022206Y051301D01*
X022187Y051324D01*
X022170Y051349D01*
X022157Y051376D01*
X022148Y051405D01*
X022142Y051435D01*
X022140Y051465D01*
X016140Y051465D02*
X016142Y051495D01*
X016148Y051525D01*
X016157Y051554D01*
X016170Y051581D01*
X016187Y051606D01*
X016206Y051629D01*
X016229Y051650D01*
X016254Y051667D01*
X016280Y051681D01*
X016309Y051691D01*
X016338Y051698D01*
X016368Y051701D01*
X016399Y051700D01*
X016429Y051695D01*
X016458Y051686D01*
X016485Y051674D01*
X016511Y051659D01*
X016535Y051640D01*
X016556Y051618D01*
X016574Y051594D01*
X016589Y051567D01*
X016600Y051539D01*
X016608Y051510D01*
X016612Y051480D01*
X016612Y051450D01*
X016608Y051420D01*
X016600Y051391D01*
X016589Y051363D01*
X016574Y051336D01*
X016556Y051312D01*
X016535Y051290D01*
X016511Y051271D01*
X016485Y051256D01*
X016458Y051244D01*
X016429Y051235D01*
X016399Y051230D01*
X016368Y051229D01*
X016338Y051232D01*
X016309Y051239D01*
X016280Y051249D01*
X016254Y051263D01*
X016229Y051280D01*
X016206Y051301D01*
X016187Y051324D01*
X016170Y051349D01*
X016157Y051376D01*
X016148Y051405D01*
X016142Y051435D01*
X016140Y051465D01*
X016140Y069465D02*
X016142Y069495D01*
X016148Y069525D01*
X016157Y069554D01*
X016170Y069581D01*
X016187Y069606D01*
X016206Y069629D01*
X016229Y069650D01*
X016254Y069667D01*
X016280Y069681D01*
X016309Y069691D01*
X016338Y069698D01*
X016368Y069701D01*
X016399Y069700D01*
X016429Y069695D01*
X016458Y069686D01*
X016485Y069674D01*
X016511Y069659D01*
X016535Y069640D01*
X016556Y069618D01*
X016574Y069594D01*
X016589Y069567D01*
X016600Y069539D01*
X016608Y069510D01*
X016612Y069480D01*
X016612Y069450D01*
X016608Y069420D01*
X016600Y069391D01*
X016589Y069363D01*
X016574Y069336D01*
X016556Y069312D01*
X016535Y069290D01*
X016511Y069271D01*
X016485Y069256D01*
X016458Y069244D01*
X016429Y069235D01*
X016399Y069230D01*
X016368Y069229D01*
X016338Y069232D01*
X016309Y069239D01*
X016280Y069249D01*
X016254Y069263D01*
X016229Y069280D01*
X016206Y069301D01*
X016187Y069324D01*
X016170Y069349D01*
X016157Y069376D01*
X016148Y069405D01*
X016142Y069435D01*
X016140Y069465D01*
X022140Y069465D02*
X022142Y069495D01*
X022148Y069525D01*
X022157Y069554D01*
X022170Y069581D01*
X022187Y069606D01*
X022206Y069629D01*
X022229Y069650D01*
X022254Y069667D01*
X022280Y069681D01*
X022309Y069691D01*
X022338Y069698D01*
X022368Y069701D01*
X022399Y069700D01*
X022429Y069695D01*
X022458Y069686D01*
X022485Y069674D01*
X022511Y069659D01*
X022535Y069640D01*
X022556Y069618D01*
X022574Y069594D01*
X022589Y069567D01*
X022600Y069539D01*
X022608Y069510D01*
X022612Y069480D01*
X022612Y069450D01*
X022608Y069420D01*
X022600Y069391D01*
X022589Y069363D01*
X022574Y069336D01*
X022556Y069312D01*
X022535Y069290D01*
X022511Y069271D01*
X022485Y069256D01*
X022458Y069244D01*
X022429Y069235D01*
X022399Y069230D01*
X022368Y069229D01*
X022338Y069232D01*
X022309Y069239D01*
X022280Y069249D01*
X022254Y069263D01*
X022229Y069280D01*
X022206Y069301D01*
X022187Y069324D01*
X022170Y069349D01*
X022157Y069376D01*
X022148Y069405D01*
X022142Y069435D01*
X022140Y069465D01*
M02*
