G75*
%MOIN*%
%OFA0B0*%
%FSLAX24Y24*%
%IPPOS*%
%LPD*%
%AMOC8*
5,1,8,0,0,1.08239X$1,22.5*
%
%ADD10C,0.0160*%
%ADD11C,0.0600*%
%ADD12R,0.0740X0.0740*%
%ADD13C,0.0740*%
%ADD14OC8,0.0600*%
%ADD15C,0.0740*%
%ADD16C,0.0000*%
%ADD17C,0.1380*%
%ADD18C,0.0120*%
%ADD19C,0.0600*%
%ADD20C,0.0634*%
%ADD21C,0.0785*%
%ADD22C,0.0680*%
%ADD23C,0.0700*%
%ADD24C,0.0552*%
%ADD25OC8,0.0680*%
%ADD26R,0.0476X0.0476*%
%ADD27C,0.0476*%
%ADD28C,0.0340*%
D10*
X037702Y037702D02*
X049513Y037702D01*
X049513Y049513D01*
X037702Y049513D01*
X037702Y037702D01*
X025103Y080615D02*
X024205Y080152D01*
X023318Y079667D01*
X022443Y079160D01*
X021581Y078632D01*
X020733Y078083D01*
X019898Y077513D01*
X019077Y076923D01*
X018271Y076314D01*
X017480Y075684D01*
X016704Y075036D01*
X015945Y074369D01*
X015202Y073683D01*
X014476Y072980D01*
X013768Y072259D01*
X013077Y071521D01*
X012405Y070766D01*
X011751Y069995D01*
X011116Y069208D01*
X010501Y068406D01*
X009906Y067589D01*
X009331Y066758D01*
X008776Y065913D01*
X008242Y065055D01*
X007729Y064184D01*
X007238Y063301D01*
X006768Y062406D01*
X006321Y061499D01*
X005895Y060582D01*
X005493Y059655D01*
X005113Y058719D01*
X004756Y057773D01*
X004422Y056819D01*
X004112Y055857D01*
X003825Y054888D01*
X003562Y053912D01*
X003323Y052929D01*
X003108Y051942D01*
X002918Y050949D01*
X002751Y049952D01*
X002609Y048951D01*
X002492Y047947D01*
X002399Y046941D01*
X002331Y045932D01*
X002288Y044922D01*
X002269Y043912D01*
X002275Y042901D01*
X002305Y041891D01*
X002361Y040881D01*
X002441Y039874D01*
X002545Y038868D01*
X002675Y037866D01*
X002828Y036867D01*
X003006Y035872D01*
X003208Y034881D01*
X003435Y033896D01*
X003685Y032917D01*
X003960Y031944D01*
X004258Y030978D01*
X004579Y030020D01*
X004924Y029070D01*
X005292Y028129D01*
X005683Y027196D01*
X006097Y026274D01*
X006533Y025362D01*
X006991Y024461D01*
X007471Y023572D01*
X007973Y022694D01*
X008496Y021829D01*
X009040Y020977D01*
X009604Y020139D01*
X010189Y019315D01*
X010794Y018505D01*
X011419Y017710D01*
X012063Y016931D01*
X012725Y016168D01*
X013406Y015421D01*
X014106Y014691D01*
X014822Y013978D01*
X015556Y013283D01*
X016307Y012606D01*
X017074Y011948D01*
X017857Y011309D01*
X018656Y010689D01*
X019469Y010089D01*
X020297Y009509D01*
X021139Y008949D01*
X021994Y008410D01*
X022862Y007892D01*
X023742Y007396D01*
X024634Y006921D01*
X025538Y006468D01*
X026453Y006037D01*
X027377Y005629D01*
X028312Y005244D01*
X029255Y004881D01*
X030207Y004542D01*
X031168Y004226D01*
X032135Y003934D01*
X033110Y003665D01*
X034090Y003420D01*
X035077Y003200D01*
X036068Y003003D01*
X037064Y002831D01*
X038064Y002683D01*
X039067Y002560D01*
X040073Y002461D01*
X041082Y002387D01*
X042091Y002338D01*
X043102Y002313D01*
X044112Y002313D01*
X045123Y002338D01*
X046132Y002387D01*
X047141Y002461D01*
X048147Y002560D01*
X049150Y002683D01*
X050150Y002831D01*
X051146Y003003D01*
X052137Y003200D01*
X053124Y003420D01*
X054104Y003665D01*
X055079Y003934D01*
X056046Y004226D01*
X057007Y004542D01*
X057959Y004881D01*
X058902Y005244D01*
X059837Y005629D01*
X060761Y006037D01*
X061676Y006468D01*
X062580Y006921D01*
X063472Y007396D01*
X064352Y007892D01*
X065220Y008410D01*
X066075Y008949D01*
X066917Y009509D01*
X067745Y010089D01*
X068558Y010689D01*
X069357Y011309D01*
X070140Y011948D01*
X070907Y012606D01*
X071658Y013283D01*
X072392Y013978D01*
X073108Y014691D01*
X073808Y015421D01*
X074489Y016168D01*
X075151Y016931D01*
X075795Y017710D01*
X076420Y018505D01*
X077025Y019315D01*
X077610Y020139D01*
X078174Y020977D01*
X078718Y021829D01*
X079241Y022694D01*
X079743Y023572D01*
X080223Y024461D01*
X080681Y025362D01*
X081117Y026274D01*
X081531Y027196D01*
X081922Y028129D01*
X082290Y029070D01*
X082635Y030020D01*
X082956Y030978D01*
X083254Y031944D01*
X083529Y032917D01*
X083779Y033896D01*
X084006Y034881D01*
X084208Y035872D01*
X084386Y036867D01*
X084539Y037866D01*
X084669Y038868D01*
X084773Y039874D01*
X084853Y040881D01*
X084909Y041891D01*
X084939Y042901D01*
X084945Y043912D01*
X084926Y044922D01*
X084883Y045932D01*
X084815Y046941D01*
X084722Y047947D01*
X084605Y048951D01*
X084463Y049952D01*
X084296Y050949D01*
X084106Y051942D01*
X083891Y052929D01*
X083652Y053912D01*
X083389Y054888D01*
X083102Y055857D01*
X082792Y056819D01*
X082458Y057773D01*
X082101Y058719D01*
X081721Y059655D01*
X081319Y060582D01*
X080893Y061499D01*
X080446Y062406D01*
X079976Y063301D01*
X079485Y064184D01*
X078972Y065055D01*
X078438Y065913D01*
X077883Y066758D01*
X077308Y067589D01*
X076713Y068406D01*
X076098Y069208D01*
X075463Y069995D01*
X074809Y070766D01*
X074137Y071521D01*
X073446Y072259D01*
X072738Y072980D01*
X072012Y073683D01*
X071269Y074369D01*
X070510Y075036D01*
X069734Y075684D01*
X068943Y076314D01*
X068137Y076923D01*
X067316Y077513D01*
X066481Y078083D01*
X065633Y078632D01*
X064771Y079160D01*
X063896Y079667D01*
X063009Y080152D01*
X062111Y080615D01*
X062049Y080655D01*
X061986Y080692D01*
X061921Y080725D01*
X061855Y080754D01*
X061786Y080780D01*
X061717Y080803D01*
X061646Y080822D01*
X061575Y080837D01*
X061503Y080848D01*
X061430Y080855D01*
X061357Y080859D01*
X061284Y080858D01*
X061212Y080854D01*
X061139Y080846D01*
X061067Y080834D01*
X060996Y080819D01*
X060925Y080799D01*
X060856Y080776D01*
X060788Y080750D01*
X060722Y080719D01*
X060657Y080686D01*
X060594Y080649D01*
X060533Y080608D01*
X060475Y080565D01*
X060419Y080518D01*
X054225Y074328D01*
X060037Y077694D02*
X060039Y077750D01*
X060045Y077805D01*
X060055Y077859D01*
X060068Y077913D01*
X060086Y077966D01*
X060107Y078017D01*
X060131Y078067D01*
X060159Y078115D01*
X060191Y078161D01*
X060225Y078205D01*
X060263Y078246D01*
X060303Y078284D01*
X060346Y078319D01*
X060391Y078351D01*
X060439Y078380D01*
X060488Y078406D01*
X060539Y078428D01*
X060591Y078446D01*
X060645Y078460D01*
X060700Y078471D01*
X060755Y078478D01*
X060810Y078481D01*
X060866Y078480D01*
X060921Y078475D01*
X060976Y078466D01*
X061030Y078454D01*
X061083Y078437D01*
X061135Y078417D01*
X061185Y078393D01*
X061233Y078366D01*
X061280Y078336D01*
X061324Y078302D01*
X061366Y078265D01*
X061404Y078225D01*
X061441Y078183D01*
X061474Y078138D01*
X061503Y078092D01*
X061530Y078043D01*
X061552Y077992D01*
X061572Y077940D01*
X061587Y077886D01*
X061599Y077832D01*
X061607Y077777D01*
X061611Y077722D01*
X061611Y077666D01*
X061607Y077611D01*
X061599Y077556D01*
X061587Y077502D01*
X061572Y077448D01*
X061552Y077396D01*
X061530Y077345D01*
X061503Y077296D01*
X061474Y077250D01*
X061441Y077205D01*
X061404Y077163D01*
X061366Y077123D01*
X061324Y077086D01*
X061280Y077052D01*
X061233Y077022D01*
X061185Y076995D01*
X061135Y076971D01*
X061083Y076951D01*
X061030Y076934D01*
X060976Y076922D01*
X060921Y076913D01*
X060866Y076908D01*
X060810Y076907D01*
X060755Y076910D01*
X060700Y076917D01*
X060645Y076928D01*
X060591Y076942D01*
X060539Y076960D01*
X060488Y076982D01*
X060439Y077008D01*
X060391Y077037D01*
X060346Y077069D01*
X060303Y077104D01*
X060263Y077142D01*
X060225Y077183D01*
X060191Y077227D01*
X060159Y077273D01*
X060131Y077321D01*
X060107Y077371D01*
X060086Y077422D01*
X060068Y077475D01*
X060055Y077529D01*
X060045Y077583D01*
X060039Y077638D01*
X060037Y077694D01*
X054225Y074328D02*
X053965Y074075D01*
X053700Y073827D01*
X053428Y073587D01*
X053151Y073353D01*
X052868Y073126D01*
X052579Y072905D01*
X052286Y072692D01*
X051987Y072486D01*
X051684Y072287D01*
X051375Y072096D01*
X051063Y071912D01*
X050745Y071735D01*
X050424Y071567D01*
X050099Y071406D01*
X049770Y071253D01*
X049437Y071108D01*
X049101Y070971D01*
X048762Y070842D01*
X048419Y070722D01*
X048074Y070610D01*
X047727Y070506D01*
X047376Y070411D01*
X047024Y070324D01*
X046670Y070246D01*
X046314Y070176D01*
X045956Y070115D01*
X045597Y070062D01*
X045237Y070019D01*
X044876Y069984D01*
X044514Y069957D01*
X044151Y069940D01*
X043788Y069931D01*
X043426Y069931D01*
X043063Y069940D01*
X042700Y069957D01*
X042338Y069984D01*
X041977Y070019D01*
X041617Y070062D01*
X041258Y070115D01*
X040900Y070176D01*
X040544Y070246D01*
X040190Y070324D01*
X039838Y070411D01*
X039487Y070506D01*
X039140Y070610D01*
X038795Y070722D01*
X038452Y070842D01*
X038113Y070971D01*
X037777Y071108D01*
X037444Y071253D01*
X037115Y071406D01*
X036790Y071567D01*
X036469Y071735D01*
X036151Y071912D01*
X035839Y072096D01*
X035530Y072287D01*
X035227Y072486D01*
X034928Y072692D01*
X034635Y072905D01*
X034346Y073126D01*
X034063Y073353D01*
X033786Y073587D01*
X033514Y073827D01*
X033249Y074075D01*
X032989Y074328D01*
X026836Y080476D01*
X026787Y080527D01*
X026736Y080576D01*
X026681Y080621D01*
X026624Y080663D01*
X026565Y080702D01*
X026504Y080738D01*
X026440Y080770D01*
X026376Y080799D01*
X026309Y080824D01*
X026241Y080845D01*
X026173Y080862D01*
X026103Y080876D01*
X026033Y080886D01*
X025962Y080891D01*
X025891Y080893D01*
X025820Y080891D01*
X025750Y080885D01*
X025679Y080874D01*
X025610Y080860D01*
X025541Y080842D01*
X025474Y080821D01*
X025408Y080795D01*
X025343Y080766D01*
X025280Y080733D01*
X025219Y080697D01*
X025160Y080658D01*
X025103Y080615D01*
X025604Y077694D02*
X025606Y077750D01*
X025612Y077805D01*
X025622Y077859D01*
X025635Y077913D01*
X025653Y077966D01*
X025674Y078017D01*
X025698Y078067D01*
X025726Y078115D01*
X025758Y078161D01*
X025792Y078205D01*
X025830Y078246D01*
X025870Y078284D01*
X025913Y078319D01*
X025958Y078351D01*
X026006Y078380D01*
X026055Y078406D01*
X026106Y078428D01*
X026158Y078446D01*
X026212Y078460D01*
X026267Y078471D01*
X026322Y078478D01*
X026377Y078481D01*
X026433Y078480D01*
X026488Y078475D01*
X026543Y078466D01*
X026597Y078454D01*
X026650Y078437D01*
X026702Y078417D01*
X026752Y078393D01*
X026800Y078366D01*
X026847Y078336D01*
X026891Y078302D01*
X026933Y078265D01*
X026971Y078225D01*
X027008Y078183D01*
X027041Y078138D01*
X027070Y078092D01*
X027097Y078043D01*
X027119Y077992D01*
X027139Y077940D01*
X027154Y077886D01*
X027166Y077832D01*
X027174Y077777D01*
X027178Y077722D01*
X027178Y077666D01*
X027174Y077611D01*
X027166Y077556D01*
X027154Y077502D01*
X027139Y077448D01*
X027119Y077396D01*
X027097Y077345D01*
X027070Y077296D01*
X027041Y077250D01*
X027008Y077205D01*
X026971Y077163D01*
X026933Y077123D01*
X026891Y077086D01*
X026847Y077052D01*
X026800Y077022D01*
X026752Y076995D01*
X026702Y076971D01*
X026650Y076951D01*
X026597Y076934D01*
X026543Y076922D01*
X026488Y076913D01*
X026433Y076908D01*
X026377Y076907D01*
X026322Y076910D01*
X026267Y076917D01*
X026212Y076928D01*
X026158Y076942D01*
X026106Y076960D01*
X026055Y076982D01*
X026006Y077008D01*
X025958Y077037D01*
X025913Y077069D01*
X025870Y077104D01*
X025830Y077142D01*
X025792Y077183D01*
X025758Y077227D01*
X025726Y077273D01*
X025698Y077321D01*
X025674Y077371D01*
X025653Y077422D01*
X025635Y077475D01*
X025622Y077529D01*
X025612Y077583D01*
X025606Y077638D01*
X025604Y077694D01*
X007387Y043607D02*
X007389Y043663D01*
X007395Y043718D01*
X007405Y043772D01*
X007418Y043826D01*
X007436Y043879D01*
X007457Y043930D01*
X007481Y043980D01*
X007509Y044028D01*
X007541Y044074D01*
X007575Y044118D01*
X007613Y044159D01*
X007653Y044197D01*
X007696Y044232D01*
X007741Y044264D01*
X007789Y044293D01*
X007838Y044319D01*
X007889Y044341D01*
X007941Y044359D01*
X007995Y044373D01*
X008050Y044384D01*
X008105Y044391D01*
X008160Y044394D01*
X008216Y044393D01*
X008271Y044388D01*
X008326Y044379D01*
X008380Y044367D01*
X008433Y044350D01*
X008485Y044330D01*
X008535Y044306D01*
X008583Y044279D01*
X008630Y044249D01*
X008674Y044215D01*
X008716Y044178D01*
X008754Y044138D01*
X008791Y044096D01*
X008824Y044051D01*
X008853Y044005D01*
X008880Y043956D01*
X008902Y043905D01*
X008922Y043853D01*
X008937Y043799D01*
X008949Y043745D01*
X008957Y043690D01*
X008961Y043635D01*
X008961Y043579D01*
X008957Y043524D01*
X008949Y043469D01*
X008937Y043415D01*
X008922Y043361D01*
X008902Y043309D01*
X008880Y043258D01*
X008853Y043209D01*
X008824Y043163D01*
X008791Y043118D01*
X008754Y043076D01*
X008716Y043036D01*
X008674Y042999D01*
X008630Y042965D01*
X008583Y042935D01*
X008535Y042908D01*
X008485Y042884D01*
X008433Y042864D01*
X008380Y042847D01*
X008326Y042835D01*
X008271Y042826D01*
X008216Y042821D01*
X008160Y042820D01*
X008105Y042823D01*
X008050Y042830D01*
X007995Y042841D01*
X007941Y042855D01*
X007889Y042873D01*
X007838Y042895D01*
X007789Y042921D01*
X007741Y042950D01*
X007696Y042982D01*
X007653Y043017D01*
X007613Y043055D01*
X007575Y043096D01*
X007541Y043140D01*
X007509Y043186D01*
X007481Y043234D01*
X007457Y043284D01*
X007436Y043335D01*
X007418Y043388D01*
X007405Y043442D01*
X007395Y043496D01*
X007389Y043551D01*
X007387Y043607D01*
X042820Y005418D02*
X042822Y005474D01*
X042828Y005529D01*
X042838Y005583D01*
X042851Y005637D01*
X042869Y005690D01*
X042890Y005741D01*
X042914Y005791D01*
X042942Y005839D01*
X042974Y005885D01*
X043008Y005929D01*
X043046Y005970D01*
X043086Y006008D01*
X043129Y006043D01*
X043174Y006075D01*
X043222Y006104D01*
X043271Y006130D01*
X043322Y006152D01*
X043374Y006170D01*
X043428Y006184D01*
X043483Y006195D01*
X043538Y006202D01*
X043593Y006205D01*
X043649Y006204D01*
X043704Y006199D01*
X043759Y006190D01*
X043813Y006178D01*
X043866Y006161D01*
X043918Y006141D01*
X043968Y006117D01*
X044016Y006090D01*
X044063Y006060D01*
X044107Y006026D01*
X044149Y005989D01*
X044187Y005949D01*
X044224Y005907D01*
X044257Y005862D01*
X044286Y005816D01*
X044313Y005767D01*
X044335Y005716D01*
X044355Y005664D01*
X044370Y005610D01*
X044382Y005556D01*
X044390Y005501D01*
X044394Y005446D01*
X044394Y005390D01*
X044390Y005335D01*
X044382Y005280D01*
X044370Y005226D01*
X044355Y005172D01*
X044335Y005120D01*
X044313Y005069D01*
X044286Y005020D01*
X044257Y004974D01*
X044224Y004929D01*
X044187Y004887D01*
X044149Y004847D01*
X044107Y004810D01*
X044063Y004776D01*
X044016Y004746D01*
X043968Y004719D01*
X043918Y004695D01*
X043866Y004675D01*
X043813Y004658D01*
X043759Y004646D01*
X043704Y004637D01*
X043649Y004632D01*
X043593Y004631D01*
X043538Y004634D01*
X043483Y004641D01*
X043428Y004652D01*
X043374Y004666D01*
X043322Y004684D01*
X043271Y004706D01*
X043222Y004732D01*
X043174Y004761D01*
X043129Y004793D01*
X043086Y004828D01*
X043046Y004866D01*
X043008Y004907D01*
X042974Y004951D01*
X042942Y004997D01*
X042914Y005045D01*
X042890Y005095D01*
X042869Y005146D01*
X042851Y005199D01*
X042838Y005253D01*
X042828Y005307D01*
X042822Y005362D01*
X042820Y005418D01*
X078253Y043607D02*
X078255Y043663D01*
X078261Y043718D01*
X078271Y043772D01*
X078284Y043826D01*
X078302Y043879D01*
X078323Y043930D01*
X078347Y043980D01*
X078375Y044028D01*
X078407Y044074D01*
X078441Y044118D01*
X078479Y044159D01*
X078519Y044197D01*
X078562Y044232D01*
X078607Y044264D01*
X078655Y044293D01*
X078704Y044319D01*
X078755Y044341D01*
X078807Y044359D01*
X078861Y044373D01*
X078916Y044384D01*
X078971Y044391D01*
X079026Y044394D01*
X079082Y044393D01*
X079137Y044388D01*
X079192Y044379D01*
X079246Y044367D01*
X079299Y044350D01*
X079351Y044330D01*
X079401Y044306D01*
X079449Y044279D01*
X079496Y044249D01*
X079540Y044215D01*
X079582Y044178D01*
X079620Y044138D01*
X079657Y044096D01*
X079690Y044051D01*
X079719Y044005D01*
X079746Y043956D01*
X079768Y043905D01*
X079788Y043853D01*
X079803Y043799D01*
X079815Y043745D01*
X079823Y043690D01*
X079827Y043635D01*
X079827Y043579D01*
X079823Y043524D01*
X079815Y043469D01*
X079803Y043415D01*
X079788Y043361D01*
X079768Y043309D01*
X079746Y043258D01*
X079719Y043209D01*
X079690Y043163D01*
X079657Y043118D01*
X079620Y043076D01*
X079582Y043036D01*
X079540Y042999D01*
X079496Y042965D01*
X079449Y042935D01*
X079401Y042908D01*
X079351Y042884D01*
X079299Y042864D01*
X079246Y042847D01*
X079192Y042835D01*
X079137Y042826D01*
X079082Y042821D01*
X079026Y042820D01*
X078971Y042823D01*
X078916Y042830D01*
X078861Y042841D01*
X078807Y042855D01*
X078755Y042873D01*
X078704Y042895D01*
X078655Y042921D01*
X078607Y042950D01*
X078562Y042982D01*
X078519Y043017D01*
X078479Y043055D01*
X078441Y043096D01*
X078407Y043140D01*
X078375Y043186D01*
X078347Y043234D01*
X078323Y043284D01*
X078302Y043335D01*
X078284Y043388D01*
X078271Y043442D01*
X078261Y043496D01*
X078255Y043551D01*
X078253Y043607D01*
D11*
X067711Y057243D03*
X065811Y057243D03*
X034271Y030225D03*
X035162Y027123D03*
X029451Y030702D03*
X029451Y032602D03*
D12*
X026812Y023738D03*
X058374Y059880D03*
D13*
X059374Y059880D03*
X060374Y059880D03*
X061374Y059880D03*
X062374Y059880D03*
X063374Y059880D03*
X064374Y059880D03*
X065374Y059880D03*
X066374Y059880D03*
X067374Y059880D03*
X068374Y059880D03*
X069374Y059880D03*
X070374Y059880D03*
X071374Y059880D03*
X071374Y062880D03*
X070374Y062880D03*
X069374Y062880D03*
X068374Y062880D03*
X067374Y062880D03*
X066374Y062880D03*
X065374Y062880D03*
X064374Y062880D03*
X063374Y062880D03*
X062374Y062880D03*
X061374Y062880D03*
X060374Y062880D03*
X059374Y062880D03*
X058374Y062880D03*
X026812Y036738D03*
X026812Y035738D03*
X026812Y034738D03*
X026812Y033738D03*
X026812Y032738D03*
X026812Y031738D03*
X026812Y030738D03*
X026812Y029738D03*
X026812Y028738D03*
X026812Y027738D03*
X026812Y026738D03*
X026812Y025738D03*
X026812Y024738D03*
X023812Y024738D03*
X023812Y023738D03*
X023812Y025738D03*
X023812Y026738D03*
X023812Y027738D03*
X023812Y028738D03*
X023812Y029738D03*
X023812Y030738D03*
X023812Y031738D03*
X023812Y032738D03*
X023812Y033738D03*
X023812Y034738D03*
X023812Y035738D03*
X023812Y036738D03*
D14*
X022461Y032711D03*
X022461Y029711D03*
X022301Y027425D03*
X021301Y027425D03*
X028268Y028110D03*
X029485Y028013D03*
X030485Y028013D03*
X028268Y025110D03*
X035162Y028123D03*
X035271Y030225D03*
X030461Y035367D03*
X029461Y035367D03*
X005487Y042589D03*
X005487Y044589D03*
X005450Y045633D03*
X004450Y045633D03*
X030801Y068332D03*
X032801Y068332D03*
X033713Y068558D03*
X033713Y069558D03*
X042583Y063494D03*
X044583Y063494D03*
X045394Y063498D03*
X045394Y064498D03*
X054419Y068318D03*
X056419Y068318D03*
X057251Y068338D03*
X057251Y069338D03*
X064971Y065220D03*
X065971Y065220D03*
X067334Y063764D03*
X067334Y066764D03*
X069431Y058857D03*
X069431Y055857D03*
X068955Y054553D03*
X067955Y054553D03*
X066215Y054348D03*
X065215Y054348D03*
X081622Y044623D03*
X081622Y042623D03*
X081621Y041760D03*
X082621Y041760D03*
X052501Y006286D03*
X050501Y006286D03*
X049666Y006401D03*
X049666Y005401D03*
X036782Y006346D03*
X034782Y006346D03*
X033943Y006446D03*
X033943Y005446D03*
D15*
X037183Y028351D02*
X037843Y028351D01*
X037843Y029351D02*
X037183Y029351D01*
X037183Y030351D02*
X037843Y030351D01*
D16*
X042763Y029351D02*
X042765Y029401D01*
X042771Y029451D01*
X042781Y029501D01*
X042794Y029549D01*
X042811Y029597D01*
X042832Y029643D01*
X042856Y029687D01*
X042884Y029729D01*
X042915Y029769D01*
X042949Y029806D01*
X042986Y029841D01*
X043025Y029872D01*
X043066Y029901D01*
X043110Y029926D01*
X043156Y029948D01*
X043203Y029966D01*
X043251Y029980D01*
X043300Y029991D01*
X043350Y029998D01*
X043400Y030001D01*
X043451Y030000D01*
X043501Y029995D01*
X043551Y029986D01*
X043599Y029974D01*
X043647Y029957D01*
X043693Y029937D01*
X043738Y029914D01*
X043781Y029887D01*
X043821Y029857D01*
X043859Y029824D01*
X043894Y029788D01*
X043927Y029749D01*
X043956Y029708D01*
X043982Y029665D01*
X044005Y029620D01*
X044024Y029573D01*
X044039Y029525D01*
X044051Y029476D01*
X044059Y029426D01*
X044063Y029376D01*
X044063Y029326D01*
X044059Y029276D01*
X044051Y029226D01*
X044039Y029177D01*
X044024Y029129D01*
X044005Y029082D01*
X043982Y029037D01*
X043956Y028994D01*
X043927Y028953D01*
X043894Y028914D01*
X043859Y028878D01*
X043821Y028845D01*
X043781Y028815D01*
X043738Y028788D01*
X043693Y028765D01*
X043647Y028745D01*
X043599Y028728D01*
X043551Y028716D01*
X043501Y028707D01*
X043451Y028702D01*
X043400Y028701D01*
X043350Y028704D01*
X043300Y028711D01*
X043251Y028722D01*
X043203Y028736D01*
X043156Y028754D01*
X043110Y028776D01*
X043066Y028801D01*
X043025Y028830D01*
X042986Y028861D01*
X042949Y028896D01*
X042915Y028933D01*
X042884Y028973D01*
X042856Y029015D01*
X042832Y029059D01*
X042811Y029105D01*
X042794Y029153D01*
X042781Y029201D01*
X042771Y029251D01*
X042765Y029301D01*
X042763Y029351D01*
X054554Y032769D02*
X054556Y032799D01*
X054562Y032829D01*
X054571Y032858D01*
X054584Y032885D01*
X054601Y032910D01*
X054620Y032933D01*
X054643Y032954D01*
X054668Y032971D01*
X054694Y032985D01*
X054723Y032995D01*
X054752Y033002D01*
X054782Y033005D01*
X054813Y033004D01*
X054843Y032999D01*
X054872Y032990D01*
X054899Y032978D01*
X054925Y032963D01*
X054949Y032944D01*
X054970Y032922D01*
X054988Y032898D01*
X055003Y032871D01*
X055014Y032843D01*
X055022Y032814D01*
X055026Y032784D01*
X055026Y032754D01*
X055022Y032724D01*
X055014Y032695D01*
X055003Y032667D01*
X054988Y032640D01*
X054970Y032616D01*
X054949Y032594D01*
X054925Y032575D01*
X054899Y032560D01*
X054872Y032548D01*
X054843Y032539D01*
X054813Y032534D01*
X054782Y032533D01*
X054752Y032536D01*
X054723Y032543D01*
X054694Y032553D01*
X054668Y032567D01*
X054643Y032584D01*
X054620Y032605D01*
X054601Y032628D01*
X054584Y032653D01*
X054571Y032680D01*
X054562Y032709D01*
X054556Y032739D01*
X054554Y032769D01*
X060554Y032769D02*
X060556Y032799D01*
X060562Y032829D01*
X060571Y032858D01*
X060584Y032885D01*
X060601Y032910D01*
X060620Y032933D01*
X060643Y032954D01*
X060668Y032971D01*
X060694Y032985D01*
X060723Y032995D01*
X060752Y033002D01*
X060782Y033005D01*
X060813Y033004D01*
X060843Y032999D01*
X060872Y032990D01*
X060899Y032978D01*
X060925Y032963D01*
X060949Y032944D01*
X060970Y032922D01*
X060988Y032898D01*
X061003Y032871D01*
X061014Y032843D01*
X061022Y032814D01*
X061026Y032784D01*
X061026Y032754D01*
X061022Y032724D01*
X061014Y032695D01*
X061003Y032667D01*
X060988Y032640D01*
X060970Y032616D01*
X060949Y032594D01*
X060925Y032575D01*
X060899Y032560D01*
X060872Y032548D01*
X060843Y032539D01*
X060813Y032534D01*
X060782Y032533D01*
X060752Y032536D01*
X060723Y032543D01*
X060694Y032553D01*
X060668Y032567D01*
X060643Y032584D01*
X060620Y032605D01*
X060601Y032628D01*
X060584Y032653D01*
X060571Y032680D01*
X060562Y032709D01*
X060556Y032739D01*
X060554Y032769D01*
X060554Y014769D02*
X060556Y014799D01*
X060562Y014829D01*
X060571Y014858D01*
X060584Y014885D01*
X060601Y014910D01*
X060620Y014933D01*
X060643Y014954D01*
X060668Y014971D01*
X060694Y014985D01*
X060723Y014995D01*
X060752Y015002D01*
X060782Y015005D01*
X060813Y015004D01*
X060843Y014999D01*
X060872Y014990D01*
X060899Y014978D01*
X060925Y014963D01*
X060949Y014944D01*
X060970Y014922D01*
X060988Y014898D01*
X061003Y014871D01*
X061014Y014843D01*
X061022Y014814D01*
X061026Y014784D01*
X061026Y014754D01*
X061022Y014724D01*
X061014Y014695D01*
X061003Y014667D01*
X060988Y014640D01*
X060970Y014616D01*
X060949Y014594D01*
X060925Y014575D01*
X060899Y014560D01*
X060872Y014548D01*
X060843Y014539D01*
X060813Y014534D01*
X060782Y014533D01*
X060752Y014536D01*
X060723Y014543D01*
X060694Y014553D01*
X060668Y014567D01*
X060643Y014584D01*
X060620Y014605D01*
X060601Y014628D01*
X060584Y014653D01*
X060571Y014680D01*
X060562Y014709D01*
X060556Y014739D01*
X060554Y014769D01*
X054554Y014769D02*
X054556Y014799D01*
X054562Y014829D01*
X054571Y014858D01*
X054584Y014885D01*
X054601Y014910D01*
X054620Y014933D01*
X054643Y014954D01*
X054668Y014971D01*
X054694Y014985D01*
X054723Y014995D01*
X054752Y015002D01*
X054782Y015005D01*
X054813Y015004D01*
X054843Y014999D01*
X054872Y014990D01*
X054899Y014978D01*
X054925Y014963D01*
X054949Y014944D01*
X054970Y014922D01*
X054988Y014898D01*
X055003Y014871D01*
X055014Y014843D01*
X055022Y014814D01*
X055026Y014784D01*
X055026Y014754D01*
X055022Y014724D01*
X055014Y014695D01*
X055003Y014667D01*
X054988Y014640D01*
X054970Y014616D01*
X054949Y014594D01*
X054925Y014575D01*
X054899Y014560D01*
X054872Y014548D01*
X054843Y014539D01*
X054813Y014534D01*
X054782Y014533D01*
X054752Y014536D01*
X054723Y014543D01*
X054694Y014553D01*
X054668Y014567D01*
X054643Y014584D01*
X054620Y014605D01*
X054601Y014628D01*
X054584Y014653D01*
X054571Y014680D01*
X054562Y014709D01*
X054556Y014739D01*
X054554Y014769D01*
X022140Y051465D02*
X022142Y051495D01*
X022148Y051525D01*
X022157Y051554D01*
X022170Y051581D01*
X022187Y051606D01*
X022206Y051629D01*
X022229Y051650D01*
X022254Y051667D01*
X022280Y051681D01*
X022309Y051691D01*
X022338Y051698D01*
X022368Y051701D01*
X022399Y051700D01*
X022429Y051695D01*
X022458Y051686D01*
X022485Y051674D01*
X022511Y051659D01*
X022535Y051640D01*
X022556Y051618D01*
X022574Y051594D01*
X022589Y051567D01*
X022600Y051539D01*
X022608Y051510D01*
X022612Y051480D01*
X022612Y051450D01*
X022608Y051420D01*
X022600Y051391D01*
X022589Y051363D01*
X022574Y051336D01*
X022556Y051312D01*
X022535Y051290D01*
X022511Y051271D01*
X022485Y051256D01*
X022458Y051244D01*
X022429Y051235D01*
X022399Y051230D01*
X022368Y051229D01*
X022338Y051232D01*
X022309Y051239D01*
X022280Y051249D01*
X022254Y051263D01*
X022229Y051280D01*
X022206Y051301D01*
X022187Y051324D01*
X022170Y051349D01*
X022157Y051376D01*
X022148Y051405D01*
X022142Y051435D01*
X022140Y051465D01*
X016140Y051465D02*
X016142Y051495D01*
X016148Y051525D01*
X016157Y051554D01*
X016170Y051581D01*
X016187Y051606D01*
X016206Y051629D01*
X016229Y051650D01*
X016254Y051667D01*
X016280Y051681D01*
X016309Y051691D01*
X016338Y051698D01*
X016368Y051701D01*
X016399Y051700D01*
X016429Y051695D01*
X016458Y051686D01*
X016485Y051674D01*
X016511Y051659D01*
X016535Y051640D01*
X016556Y051618D01*
X016574Y051594D01*
X016589Y051567D01*
X016600Y051539D01*
X016608Y051510D01*
X016612Y051480D01*
X016612Y051450D01*
X016608Y051420D01*
X016600Y051391D01*
X016589Y051363D01*
X016574Y051336D01*
X016556Y051312D01*
X016535Y051290D01*
X016511Y051271D01*
X016485Y051256D01*
X016458Y051244D01*
X016429Y051235D01*
X016399Y051230D01*
X016368Y051229D01*
X016338Y051232D01*
X016309Y051239D01*
X016280Y051249D01*
X016254Y051263D01*
X016229Y051280D01*
X016206Y051301D01*
X016187Y051324D01*
X016170Y051349D01*
X016157Y051376D01*
X016148Y051405D01*
X016142Y051435D01*
X016140Y051465D01*
X016140Y069465D02*
X016142Y069495D01*
X016148Y069525D01*
X016157Y069554D01*
X016170Y069581D01*
X016187Y069606D01*
X016206Y069629D01*
X016229Y069650D01*
X016254Y069667D01*
X016280Y069681D01*
X016309Y069691D01*
X016338Y069698D01*
X016368Y069701D01*
X016399Y069700D01*
X016429Y069695D01*
X016458Y069686D01*
X016485Y069674D01*
X016511Y069659D01*
X016535Y069640D01*
X016556Y069618D01*
X016574Y069594D01*
X016589Y069567D01*
X016600Y069539D01*
X016608Y069510D01*
X016612Y069480D01*
X016612Y069450D01*
X016608Y069420D01*
X016600Y069391D01*
X016589Y069363D01*
X016574Y069336D01*
X016556Y069312D01*
X016535Y069290D01*
X016511Y069271D01*
X016485Y069256D01*
X016458Y069244D01*
X016429Y069235D01*
X016399Y069230D01*
X016368Y069229D01*
X016338Y069232D01*
X016309Y069239D01*
X016280Y069249D01*
X016254Y069263D01*
X016229Y069280D01*
X016206Y069301D01*
X016187Y069324D01*
X016170Y069349D01*
X016157Y069376D01*
X016148Y069405D01*
X016142Y069435D01*
X016140Y069465D01*
X022140Y069465D02*
X022142Y069495D01*
X022148Y069525D01*
X022157Y069554D01*
X022170Y069581D01*
X022187Y069606D01*
X022206Y069629D01*
X022229Y069650D01*
X022254Y069667D01*
X022280Y069681D01*
X022309Y069691D01*
X022338Y069698D01*
X022368Y069701D01*
X022399Y069700D01*
X022429Y069695D01*
X022458Y069686D01*
X022485Y069674D01*
X022511Y069659D01*
X022535Y069640D01*
X022556Y069618D01*
X022574Y069594D01*
X022589Y069567D01*
X022600Y069539D01*
X022608Y069510D01*
X022612Y069480D01*
X022612Y069450D01*
X022608Y069420D01*
X022600Y069391D01*
X022589Y069363D01*
X022574Y069336D01*
X022556Y069312D01*
X022535Y069290D01*
X022511Y069271D01*
X022485Y069256D01*
X022458Y069244D01*
X022429Y069235D01*
X022399Y069230D01*
X022368Y069229D01*
X022338Y069232D01*
X022309Y069239D01*
X022280Y069249D01*
X022254Y069263D01*
X022229Y069280D01*
X022206Y069301D01*
X022187Y069324D01*
X022170Y069349D01*
X022157Y069376D01*
X022148Y069405D01*
X022142Y069435D01*
X022140Y069465D01*
D17*
X043413Y029351D03*
D18*
X019971Y013602D02*
X020031Y013542D01*
X019833Y013525D01*
X019681Y013652D01*
X019664Y013850D01*
X019791Y014002D01*
X019989Y014019D01*
X020141Y013892D01*
X020158Y013694D01*
X020031Y013542D01*
X019986Y013629D01*
X019863Y013618D01*
X019768Y013697D01*
X019757Y013820D01*
X019836Y013915D01*
X019959Y013926D01*
X020054Y013847D01*
X020065Y013724D01*
X019986Y013629D01*
X019941Y013716D01*
X019891Y013711D01*
X019855Y013742D01*
X019850Y013792D01*
X019881Y013828D01*
X019931Y013833D01*
X019967Y013802D01*
X019972Y013752D01*
X019941Y013716D01*
X018439Y014887D02*
X018499Y014827D01*
X018301Y014810D01*
X018149Y014937D01*
X018132Y015135D01*
X018259Y015287D01*
X018457Y015304D01*
X018609Y015177D01*
X018626Y014979D01*
X018499Y014827D01*
X018454Y014914D01*
X018331Y014903D01*
X018236Y014982D01*
X018225Y015105D01*
X018304Y015200D01*
X018427Y015211D01*
X018522Y015132D01*
X018533Y015009D01*
X018454Y014914D01*
X018409Y015001D01*
X018359Y014996D01*
X018323Y015027D01*
X018318Y015077D01*
X018349Y015113D01*
X018399Y015118D01*
X018435Y015087D01*
X018440Y015037D01*
X018409Y015001D01*
X017357Y015522D02*
X017297Y015462D01*
X017280Y015660D01*
X017407Y015812D01*
X017605Y015829D01*
X017757Y015702D01*
X017774Y015504D01*
X017647Y015352D01*
X017449Y015335D01*
X017297Y015462D01*
X017384Y015507D01*
X017373Y015630D01*
X017452Y015725D01*
X017575Y015736D01*
X017670Y015657D01*
X017681Y015534D01*
X017602Y015439D01*
X017479Y015428D01*
X017384Y015507D01*
X017471Y015552D01*
X017466Y015602D01*
X017497Y015638D01*
X017547Y015643D01*
X017583Y015612D01*
X017588Y015562D01*
X017557Y015526D01*
X017507Y015521D01*
X017471Y015552D01*
X016715Y014756D02*
X016655Y014696D01*
X016638Y014894D01*
X016765Y015046D01*
X016963Y015063D01*
X017115Y014936D01*
X017132Y014738D01*
X017005Y014586D01*
X016807Y014569D01*
X016655Y014696D01*
X016742Y014741D01*
X016731Y014864D01*
X016810Y014959D01*
X016933Y014970D01*
X017028Y014891D01*
X017039Y014768D01*
X016960Y014673D01*
X016837Y014662D01*
X016742Y014741D01*
X016829Y014786D01*
X016824Y014836D01*
X016855Y014872D01*
X016905Y014877D01*
X016941Y014846D01*
X016946Y014796D01*
X016915Y014760D01*
X016865Y014755D01*
X016829Y014786D01*
X009727Y026912D02*
X009667Y026972D01*
X009853Y026904D01*
X009937Y026724D01*
X009869Y026538D01*
X009689Y026454D01*
X009503Y026522D01*
X009419Y026702D01*
X009487Y026888D01*
X009667Y026972D01*
X009671Y026875D01*
X009787Y026832D01*
X009840Y026720D01*
X009797Y026604D01*
X009685Y026551D01*
X009569Y026594D01*
X009516Y026706D01*
X009559Y026822D01*
X009671Y026875D01*
X009675Y026777D01*
X009722Y026760D01*
X009742Y026716D01*
X009725Y026669D01*
X009681Y026649D01*
X009634Y026666D01*
X009614Y026710D01*
X009631Y026757D01*
X009675Y026777D01*
X008882Y028725D02*
X008822Y028785D01*
X009008Y028717D01*
X009092Y028537D01*
X009024Y028351D01*
X008844Y028267D01*
X008658Y028335D01*
X008574Y028515D01*
X008642Y028701D01*
X008822Y028785D01*
X008826Y028688D01*
X008942Y028645D01*
X008995Y028533D01*
X008952Y028417D01*
X008840Y028364D01*
X008724Y028407D01*
X008671Y028519D01*
X008714Y028635D01*
X008826Y028688D01*
X008830Y028590D01*
X008877Y028573D01*
X008897Y028529D01*
X008880Y028482D01*
X008836Y028462D01*
X008789Y028479D01*
X008769Y028523D01*
X008786Y028570D01*
X008830Y028590D01*
X008013Y029206D02*
X007953Y029146D01*
X008021Y029332D01*
X008201Y029416D01*
X008387Y029348D01*
X008471Y029168D01*
X008403Y028982D01*
X008223Y028898D01*
X008037Y028966D01*
X007953Y029146D01*
X008050Y029150D01*
X008093Y029266D01*
X008205Y029319D01*
X008321Y029276D01*
X008374Y029164D01*
X008331Y029048D01*
X008219Y028995D01*
X008103Y029038D01*
X008050Y029150D01*
X008148Y029154D01*
X008165Y029201D01*
X008209Y029221D01*
X008256Y029204D01*
X008276Y029160D01*
X008259Y029113D01*
X008215Y029093D01*
X008168Y029110D01*
X008148Y029154D01*
X007106Y028784D02*
X007046Y028724D01*
X007114Y028910D01*
X007294Y028994D01*
X007480Y028926D01*
X007564Y028746D01*
X007496Y028560D01*
X007316Y028476D01*
X007130Y028544D01*
X007046Y028724D01*
X007143Y028728D01*
X007186Y028844D01*
X007298Y028897D01*
X007414Y028854D01*
X007467Y028742D01*
X007424Y028626D01*
X007312Y028573D01*
X007196Y028616D01*
X007143Y028728D01*
X007241Y028732D01*
X007258Y028779D01*
X007302Y028799D01*
X007349Y028782D01*
X007369Y028738D01*
X007352Y028691D01*
X007308Y028671D01*
X007261Y028688D01*
X007241Y028732D01*
X008549Y058678D02*
X008489Y058618D01*
X008421Y058804D01*
X008505Y058984D01*
X008691Y059052D01*
X008871Y058968D01*
X008939Y058782D01*
X008855Y058602D01*
X008669Y058534D01*
X008489Y058618D01*
X008561Y058684D01*
X008518Y058800D01*
X008571Y058912D01*
X008687Y058955D01*
X008799Y058902D01*
X008842Y058786D01*
X008789Y058674D01*
X008673Y058631D01*
X008561Y058684D01*
X008633Y058749D01*
X008616Y058796D01*
X008636Y058840D01*
X008683Y058857D01*
X008727Y058837D01*
X008744Y058790D01*
X008724Y058746D01*
X008677Y058729D01*
X008633Y058749D01*
X009394Y060490D02*
X009334Y060430D01*
X009266Y060616D01*
X009350Y060796D01*
X009536Y060864D01*
X009716Y060780D01*
X009784Y060594D01*
X009700Y060414D01*
X009514Y060346D01*
X009334Y060430D01*
X009406Y060496D01*
X009363Y060612D01*
X009416Y060724D01*
X009532Y060767D01*
X009644Y060714D01*
X009687Y060598D01*
X009634Y060486D01*
X009518Y060443D01*
X009406Y060496D01*
X009478Y060561D01*
X009461Y060608D01*
X009481Y060652D01*
X009528Y060669D01*
X009572Y060649D01*
X009589Y060602D01*
X009569Y060558D01*
X009522Y060541D01*
X009478Y060561D01*
X009880Y061507D02*
X009820Y061567D01*
X010006Y061635D01*
X010186Y061551D01*
X010254Y061365D01*
X010170Y061185D01*
X009984Y061117D01*
X009804Y061201D01*
X009736Y061387D01*
X009820Y061567D01*
X009886Y061495D01*
X010002Y061538D01*
X010114Y061485D01*
X010157Y061369D01*
X010104Y061257D01*
X009988Y061214D01*
X009876Y061267D01*
X009833Y061383D01*
X009886Y061495D01*
X009951Y061423D01*
X009998Y061440D01*
X010042Y061420D01*
X010059Y061373D01*
X010039Y061329D01*
X009992Y061312D01*
X009948Y061332D01*
X009931Y061379D01*
X009951Y061423D01*
X008974Y061929D02*
X008914Y061989D01*
X009100Y062057D01*
X009280Y061973D01*
X009348Y061787D01*
X009264Y061607D01*
X009078Y061539D01*
X008898Y061623D01*
X008830Y061809D01*
X008914Y061989D01*
X008980Y061917D01*
X009096Y061960D01*
X009208Y061907D01*
X009251Y061791D01*
X009198Y061679D01*
X009082Y061636D01*
X008970Y061689D01*
X008927Y061805D01*
X008980Y061917D01*
X009045Y061845D01*
X009092Y061862D01*
X009136Y061842D01*
X009153Y061795D01*
X009133Y061751D01*
X009086Y061734D01*
X009042Y061754D01*
X009025Y061801D01*
X009045Y061845D01*
X018139Y072120D02*
X018079Y072060D01*
X018096Y072258D01*
X018248Y072385D01*
X018446Y072368D01*
X018573Y072216D01*
X018556Y072018D01*
X018404Y071891D01*
X018206Y071908D01*
X018079Y072060D01*
X018172Y072090D01*
X018183Y072213D01*
X018278Y072292D01*
X018401Y072281D01*
X018480Y072186D01*
X018469Y072063D01*
X018374Y071984D01*
X018251Y071995D01*
X018172Y072090D01*
X018265Y072118D01*
X018270Y072168D01*
X018306Y072199D01*
X018356Y072194D01*
X018387Y072158D01*
X018382Y072108D01*
X018346Y072077D01*
X018296Y072082D01*
X018265Y072118D01*
X019671Y073406D02*
X019611Y073346D01*
X019628Y073544D01*
X019780Y073671D01*
X019978Y073654D01*
X020105Y073502D01*
X020088Y073304D01*
X019936Y073177D01*
X019738Y073194D01*
X019611Y073346D01*
X019704Y073376D01*
X019715Y073499D01*
X019810Y073578D01*
X019933Y073567D01*
X020012Y073472D01*
X020001Y073349D01*
X019906Y073270D01*
X019783Y073281D01*
X019704Y073376D01*
X019797Y073404D01*
X019802Y073454D01*
X019838Y073485D01*
X019888Y073480D01*
X019919Y073444D01*
X019914Y073394D01*
X019878Y073363D01*
X019828Y073368D01*
X019797Y073404D01*
X020414Y074196D02*
X020354Y074256D01*
X020552Y074239D01*
X020679Y074087D01*
X020662Y073889D01*
X020510Y073762D01*
X020312Y073779D01*
X020185Y073931D01*
X020202Y074129D01*
X020354Y074256D01*
X020384Y074163D01*
X020507Y074152D01*
X020586Y074057D01*
X020575Y073934D01*
X020480Y073855D01*
X020357Y073866D01*
X020278Y073961D01*
X020289Y074084D01*
X020384Y074163D01*
X020412Y074070D01*
X020462Y074065D01*
X020493Y074029D01*
X020488Y073979D01*
X020452Y073948D01*
X020402Y073953D01*
X020371Y073989D01*
X020376Y074039D01*
X020412Y074070D01*
X019772Y074962D02*
X019712Y075022D01*
X019910Y075005D01*
X020037Y074853D01*
X020020Y074655D01*
X019868Y074528D01*
X019670Y074545D01*
X019543Y074697D01*
X019560Y074895D01*
X019712Y075022D01*
X019742Y074929D01*
X019865Y074918D01*
X019944Y074823D01*
X019933Y074700D01*
X019838Y074621D01*
X019715Y074632D01*
X019636Y074727D01*
X019647Y074850D01*
X019742Y074929D01*
X019770Y074836D01*
X019820Y074831D01*
X019851Y074795D01*
X019846Y074745D01*
X019810Y074714D01*
X019760Y074719D01*
X019729Y074755D01*
X019734Y074805D01*
X019770Y074836D01*
X067200Y073652D02*
X067140Y073712D01*
X067338Y073729D01*
X067490Y073602D01*
X067507Y073404D01*
X067380Y073252D01*
X067182Y073235D01*
X067030Y073362D01*
X067013Y073560D01*
X067140Y073712D01*
X067185Y073625D01*
X067308Y073636D01*
X067403Y073557D01*
X067414Y073434D01*
X067335Y073339D01*
X067212Y073328D01*
X067117Y073407D01*
X067106Y073530D01*
X067185Y073625D01*
X067230Y073538D01*
X067280Y073543D01*
X067316Y073512D01*
X067321Y073462D01*
X067290Y073426D01*
X067240Y073421D01*
X067204Y073452D01*
X067199Y073502D01*
X067230Y073538D01*
X068732Y072366D02*
X068672Y072426D01*
X068870Y072443D01*
X069022Y072316D01*
X069039Y072118D01*
X068912Y071966D01*
X068714Y071949D01*
X068562Y072076D01*
X068545Y072274D01*
X068672Y072426D01*
X068717Y072339D01*
X068840Y072350D01*
X068935Y072271D01*
X068946Y072148D01*
X068867Y072053D01*
X068744Y072042D01*
X068649Y072121D01*
X068638Y072244D01*
X068717Y072339D01*
X068762Y072252D01*
X068812Y072257D01*
X068848Y072226D01*
X068853Y072176D01*
X068822Y072140D01*
X068772Y072135D01*
X068736Y072166D01*
X068731Y072216D01*
X068762Y072252D01*
X069908Y071731D02*
X069968Y071791D01*
X069985Y071593D01*
X069858Y071441D01*
X069660Y071424D01*
X069508Y071551D01*
X069491Y071749D01*
X069618Y071901D01*
X069816Y071918D01*
X069968Y071791D01*
X069881Y071746D01*
X069892Y071623D01*
X069813Y071528D01*
X069690Y071517D01*
X069595Y071596D01*
X069584Y071719D01*
X069663Y071814D01*
X069786Y071825D01*
X069881Y071746D01*
X069794Y071701D01*
X069799Y071651D01*
X069768Y071615D01*
X069718Y071610D01*
X069682Y071641D01*
X069677Y071691D01*
X069708Y071727D01*
X069758Y071732D01*
X069794Y071701D01*
X070551Y072497D02*
X070611Y072557D01*
X070628Y072359D01*
X070501Y072207D01*
X070303Y072190D01*
X070151Y072317D01*
X070134Y072515D01*
X070261Y072667D01*
X070459Y072684D01*
X070611Y072557D01*
X070524Y072512D01*
X070535Y072389D01*
X070456Y072294D01*
X070333Y072283D01*
X070238Y072362D01*
X070227Y072485D01*
X070306Y072580D01*
X070429Y072591D01*
X070524Y072512D01*
X070437Y072467D01*
X070442Y072417D01*
X070411Y072381D01*
X070361Y072376D01*
X070325Y072407D01*
X070320Y072457D01*
X070351Y072493D01*
X070401Y072498D01*
X070437Y072467D01*
X077844Y060734D02*
X077784Y060794D01*
X077970Y060726D01*
X078054Y060546D01*
X077986Y060360D01*
X077806Y060276D01*
X077620Y060344D01*
X077536Y060524D01*
X077604Y060710D01*
X077784Y060794D01*
X077788Y060697D01*
X077904Y060654D01*
X077957Y060542D01*
X077914Y060426D01*
X077802Y060373D01*
X077686Y060416D01*
X077633Y060528D01*
X077676Y060644D01*
X077788Y060697D01*
X077792Y060599D01*
X077839Y060582D01*
X077859Y060538D01*
X077842Y060491D01*
X077798Y060471D01*
X077751Y060488D01*
X077731Y060532D01*
X077748Y060579D01*
X077792Y060599D01*
X078689Y058921D02*
X078629Y058981D01*
X078815Y058913D01*
X078899Y058733D01*
X078831Y058547D01*
X078651Y058463D01*
X078465Y058531D01*
X078381Y058711D01*
X078449Y058897D01*
X078629Y058981D01*
X078633Y058884D01*
X078749Y058841D01*
X078802Y058729D01*
X078759Y058613D01*
X078647Y058560D01*
X078531Y058603D01*
X078478Y058715D01*
X078521Y058831D01*
X078633Y058884D01*
X078637Y058786D01*
X078684Y058769D01*
X078704Y058725D01*
X078687Y058678D01*
X078643Y058658D01*
X078596Y058675D01*
X078576Y058719D01*
X078593Y058766D01*
X078637Y058786D01*
X079356Y057885D02*
X079416Y057945D01*
X079348Y057759D01*
X079168Y057675D01*
X078982Y057743D01*
X078898Y057923D01*
X078966Y058109D01*
X079146Y058193D01*
X079332Y058125D01*
X079416Y057945D01*
X079319Y057941D01*
X079276Y057825D01*
X079164Y057772D01*
X079048Y057815D01*
X078995Y057927D01*
X079038Y058043D01*
X079150Y058096D01*
X079266Y058053D01*
X079319Y057941D01*
X079221Y057937D01*
X079204Y057890D01*
X079160Y057870D01*
X079113Y057887D01*
X079093Y057931D01*
X079110Y057978D01*
X079154Y057998D01*
X079201Y057981D01*
X079221Y057937D01*
X080262Y058308D02*
X080322Y058368D01*
X080254Y058182D01*
X080074Y058098D01*
X079888Y058166D01*
X079804Y058346D01*
X079872Y058532D01*
X080052Y058616D01*
X080238Y058548D01*
X080322Y058368D01*
X080225Y058364D01*
X080182Y058248D01*
X080070Y058195D01*
X079954Y058238D01*
X079901Y058350D01*
X079944Y058466D01*
X080056Y058519D01*
X080172Y058476D01*
X080225Y058364D01*
X080127Y058360D01*
X080110Y058313D01*
X080066Y058293D01*
X080019Y058310D01*
X079999Y058354D01*
X080016Y058401D01*
X080060Y058421D01*
X080107Y058404D01*
X080127Y058360D01*
X078227Y028324D02*
X078167Y028264D01*
X078099Y028450D01*
X078183Y028630D01*
X078369Y028698D01*
X078549Y028614D01*
X078617Y028428D01*
X078533Y028248D01*
X078347Y028180D01*
X078167Y028264D01*
X078239Y028330D01*
X078196Y028446D01*
X078249Y028558D01*
X078365Y028601D01*
X078477Y028548D01*
X078520Y028432D01*
X078467Y028320D01*
X078351Y028277D01*
X078239Y028330D01*
X078311Y028395D01*
X078294Y028442D01*
X078314Y028486D01*
X078361Y028503D01*
X078405Y028483D01*
X078422Y028436D01*
X078402Y028392D01*
X078355Y028375D01*
X078311Y028395D01*
X077382Y026512D02*
X077322Y026452D01*
X077254Y026638D01*
X077338Y026818D01*
X077524Y026886D01*
X077704Y026802D01*
X077772Y026616D01*
X077688Y026436D01*
X077502Y026368D01*
X077322Y026452D01*
X077394Y026518D01*
X077351Y026634D01*
X077404Y026746D01*
X077520Y026789D01*
X077632Y026736D01*
X077675Y026620D01*
X077622Y026508D01*
X077506Y026465D01*
X077394Y026518D01*
X077466Y026583D01*
X077449Y026630D01*
X077469Y026674D01*
X077516Y026691D01*
X077560Y026671D01*
X077577Y026624D01*
X077557Y026580D01*
X077510Y026563D01*
X077466Y026583D01*
X077299Y025632D02*
X077359Y025572D01*
X077173Y025504D01*
X076993Y025588D01*
X076925Y025774D01*
X077009Y025954D01*
X077195Y026022D01*
X077375Y025938D01*
X077443Y025752D01*
X077359Y025572D01*
X077293Y025644D01*
X077177Y025601D01*
X077065Y025654D01*
X077022Y025770D01*
X077075Y025882D01*
X077191Y025925D01*
X077303Y025872D01*
X077346Y025756D01*
X077293Y025644D01*
X077228Y025716D01*
X077181Y025699D01*
X077137Y025719D01*
X077120Y025766D01*
X077140Y025810D01*
X077187Y025827D01*
X077231Y025807D01*
X077248Y025760D01*
X077228Y025716D01*
X078205Y025209D02*
X078265Y025149D01*
X078079Y025081D01*
X077899Y025165D01*
X077831Y025351D01*
X077915Y025531D01*
X078101Y025599D01*
X078281Y025515D01*
X078349Y025329D01*
X078265Y025149D01*
X078199Y025221D01*
X078083Y025178D01*
X077971Y025231D01*
X077928Y025347D01*
X077981Y025459D01*
X078097Y025502D01*
X078209Y025449D01*
X078252Y025333D01*
X078199Y025221D01*
X078134Y025293D01*
X078087Y025276D01*
X078043Y025296D01*
X078026Y025343D01*
X078046Y025387D01*
X078093Y025404D01*
X078137Y025384D01*
X078154Y025337D01*
X078134Y025293D01*
X068975Y015018D02*
X069035Y015078D01*
X069018Y014880D01*
X068866Y014753D01*
X068668Y014770D01*
X068541Y014922D01*
X068558Y015120D01*
X068710Y015247D01*
X068908Y015230D01*
X069035Y015078D01*
X068942Y015048D01*
X068931Y014925D01*
X068836Y014846D01*
X068713Y014857D01*
X068634Y014952D01*
X068645Y015075D01*
X068740Y015154D01*
X068863Y015143D01*
X068942Y015048D01*
X068849Y015020D01*
X068844Y014970D01*
X068808Y014939D01*
X068758Y014944D01*
X068727Y014980D01*
X068732Y015030D01*
X068768Y015061D01*
X068818Y015056D01*
X068849Y015020D01*
X067443Y013733D02*
X067503Y013793D01*
X067486Y013595D01*
X067334Y013468D01*
X067136Y013485D01*
X067009Y013637D01*
X067026Y013835D01*
X067178Y013962D01*
X067376Y013945D01*
X067503Y013793D01*
X067410Y013763D01*
X067399Y013640D01*
X067304Y013561D01*
X067181Y013572D01*
X067102Y013667D01*
X067113Y013790D01*
X067208Y013869D01*
X067331Y013858D01*
X067410Y013763D01*
X067317Y013735D01*
X067312Y013685D01*
X067276Y013654D01*
X067226Y013659D01*
X067195Y013695D01*
X067200Y013745D01*
X067236Y013776D01*
X067286Y013771D01*
X067317Y013735D01*
X066651Y012959D02*
X066711Y012899D01*
X066513Y012916D01*
X066386Y013068D01*
X066403Y013266D01*
X066555Y013393D01*
X066753Y013376D01*
X066880Y013224D01*
X066863Y013026D01*
X066711Y012899D01*
X066681Y012992D01*
X066558Y013003D01*
X066479Y013098D01*
X066490Y013221D01*
X066585Y013300D01*
X066708Y013289D01*
X066787Y013194D01*
X066776Y013071D01*
X066681Y012992D01*
X066653Y013085D01*
X066603Y013090D01*
X066572Y013126D01*
X066577Y013176D01*
X066613Y013207D01*
X066663Y013202D01*
X066694Y013166D01*
X066689Y013116D01*
X066653Y013085D01*
X067294Y012193D02*
X067354Y012133D01*
X067156Y012150D01*
X067029Y012302D01*
X067046Y012500D01*
X067198Y012627D01*
X067396Y012610D01*
X067523Y012458D01*
X067506Y012260D01*
X067354Y012133D01*
X067324Y012226D01*
X067201Y012237D01*
X067122Y012332D01*
X067133Y012455D01*
X067228Y012534D01*
X067351Y012523D01*
X067430Y012428D01*
X067419Y012305D01*
X067324Y012226D01*
X067296Y012319D01*
X067246Y012324D01*
X067215Y012360D01*
X067220Y012410D01*
X067256Y012441D01*
X067306Y012436D01*
X067337Y012400D01*
X067332Y012350D01*
X067296Y012319D01*
D19*
X017712Y014299D02*
X017378Y013901D01*
X018118Y013253D02*
X018452Y013651D01*
X019242Y012988D02*
X018908Y012590D01*
X008581Y026155D02*
X008110Y025935D01*
X007674Y026870D02*
X008145Y027089D01*
X007749Y027989D02*
X007277Y027770D01*
X004487Y042592D02*
X003967Y042592D01*
X003967Y043623D02*
X004487Y043623D01*
X004507Y044607D02*
X003987Y044607D01*
X007723Y059219D02*
X007252Y059439D01*
X007688Y060374D02*
X008159Y060154D01*
X008594Y061036D02*
X008122Y061256D01*
X017687Y072921D02*
X017352Y073319D01*
X018143Y073982D02*
X018477Y073584D01*
X019243Y074200D02*
X018909Y074598D01*
X030781Y069862D02*
X030781Y069342D01*
X031812Y069342D02*
X031812Y069862D01*
X032796Y069841D02*
X032796Y069321D01*
X042592Y065137D02*
X042592Y064617D01*
X043623Y064617D02*
X043623Y065137D01*
X044607Y065116D02*
X044607Y064596D01*
X054403Y069342D02*
X054403Y069862D01*
X055434Y069862D02*
X055434Y069342D01*
X056418Y069321D02*
X056418Y069841D01*
X067972Y074226D02*
X068306Y074624D01*
X069097Y073961D02*
X068762Y073563D01*
X069502Y072915D02*
X069836Y073313D01*
X078633Y061060D02*
X079104Y061279D01*
X079540Y060344D02*
X079069Y060125D01*
X079465Y059225D02*
X079937Y059444D01*
X082728Y044622D02*
X083248Y044622D01*
X083248Y043591D02*
X082728Y043591D01*
X082707Y042608D02*
X083227Y042608D01*
X079491Y027995D02*
X079962Y027775D01*
X079526Y026840D02*
X079055Y027060D01*
X078621Y026178D02*
X079092Y025958D01*
X069528Y014293D02*
X069862Y013895D01*
X069072Y013232D02*
X068737Y013630D01*
X067971Y013014D02*
X068305Y012616D01*
X052496Y005274D02*
X052496Y004754D01*
X051465Y004754D02*
X051465Y005274D01*
X050482Y005295D02*
X050482Y004775D01*
X036748Y004754D02*
X036748Y005274D01*
X035717Y005274D02*
X035717Y004754D01*
X034734Y004775D02*
X034734Y005295D01*
D20*
X033670Y023572D03*
X033670Y024359D03*
X032882Y024359D03*
X032882Y023572D03*
X032095Y023572D03*
X032095Y024359D03*
X042820Y035615D03*
X043607Y035615D03*
X043607Y036402D03*
X042820Y036402D03*
X044394Y036402D03*
X044394Y035615D03*
X050812Y042820D03*
X050812Y043607D03*
X051599Y043607D03*
X051599Y042820D03*
X051599Y044394D03*
X050812Y044394D03*
X044394Y050812D03*
X043607Y050812D03*
X043607Y051599D03*
X042820Y051599D03*
X042820Y050812D03*
X044394Y051599D03*
X036402Y044394D03*
X036402Y043607D03*
X035615Y043607D03*
X035615Y042820D03*
X036402Y042820D03*
X035615Y044394D03*
D21*
X034961Y037054D02*
X034463Y036556D01*
X035855Y035164D02*
X036353Y035663D01*
D22*
X021859Y024729D02*
X021259Y024729D01*
X021259Y023729D02*
X021859Y023729D01*
X021859Y022729D02*
X021259Y022729D01*
X021259Y021729D02*
X021859Y021729D01*
D23*
X022376Y052465D03*
X022376Y053465D03*
X022376Y054465D03*
X022376Y055465D03*
X022376Y056465D03*
X022376Y057465D03*
X022376Y058465D03*
X022376Y059465D03*
X022376Y060465D03*
X022376Y061465D03*
X022376Y062465D03*
X022376Y063465D03*
X022376Y064465D03*
X022376Y065465D03*
X022376Y066465D03*
X022376Y067465D03*
X022376Y068465D03*
X016376Y068465D03*
X016376Y067465D03*
X016376Y066465D03*
X016376Y065465D03*
X016376Y064465D03*
X016376Y063465D03*
X016376Y062465D03*
X016376Y061465D03*
X016376Y060465D03*
X016376Y059465D03*
X016376Y058465D03*
X016376Y057465D03*
X016376Y056465D03*
X016376Y055465D03*
X016376Y054465D03*
X016376Y053465D03*
X016376Y052465D03*
X054790Y031769D03*
X054790Y030769D03*
X054790Y029769D03*
X054790Y028769D03*
X054790Y027769D03*
X054790Y026769D03*
X054790Y025769D03*
X054790Y024769D03*
X054790Y023769D03*
X054790Y022769D03*
X054790Y021769D03*
X054790Y020769D03*
X054790Y019769D03*
X054790Y018769D03*
X054790Y017769D03*
X054790Y016769D03*
X054790Y015769D03*
X060790Y015769D03*
X060790Y016769D03*
X060790Y017769D03*
X060790Y018769D03*
X060790Y019769D03*
X060790Y020769D03*
X060790Y021769D03*
X060790Y022769D03*
X060790Y023769D03*
X060790Y024769D03*
X060790Y025769D03*
X060790Y026769D03*
X060790Y027769D03*
X060790Y028769D03*
X060790Y029769D03*
X060790Y030769D03*
X060790Y031769D03*
D24*
X060790Y032769D03*
X054790Y032769D03*
X054790Y014769D03*
X060790Y014769D03*
X022376Y051465D03*
X016376Y051465D03*
X016376Y069465D03*
X022376Y069465D03*
D25*
X024997Y061749D03*
X025997Y061749D03*
X025997Y060749D03*
X024997Y060749D03*
X024997Y059749D03*
X025997Y059749D03*
X025997Y058749D03*
X024997Y058749D03*
X024997Y057749D03*
X025997Y057749D03*
D26*
X023491Y056718D03*
X021642Y049995D03*
X013629Y053020D03*
X017944Y065403D03*
D27*
X044917Y052968D03*
X051096Y041689D03*
X054931Y038178D03*
X057177Y041641D03*
D28*
X052170Y044099D03*
X046265Y054040D03*
X039375Y053548D03*
X039178Y054040D03*
X038391Y052564D03*
X037702Y052564D03*
M02*
