G75*
%MOIN*%
%OFA0B0*%
%FSLAX24Y24*%
%IPPOS*%
%LPD*%
%AMOC8*
5,1,8,0,0,1.08239X$1,22.5*
%
%ADD10C,0.0160*%
%ADD11C,0.0060*%
%ADD12C,0.0050*%
%ADD13C,0.0030*%
%ADD14C,0.0080*%
%ADD15C,0.0120*%
%ADD16C,0.0100*%
%ADD17C,0.0040*%
%ADD18R,0.0200X0.0150*%
%ADD19C,0.0020*%
%ADD20C,0.0070*%
%ADD21R,0.0250X0.0300*%
%ADD22R,0.1100X0.0500*%
%ADD23C,0.0000*%
%ADD24C,0.0010*%
D10*
X028451Y030452D02*
X028451Y032852D01*
X028453Y032914D01*
X028459Y032975D01*
X028468Y033036D01*
X028481Y033096D01*
X028498Y033155D01*
X028519Y033213D01*
X028543Y033270D01*
X028570Y033325D01*
X028601Y033378D01*
X028635Y033430D01*
X028672Y033479D01*
X028712Y033526D01*
X028755Y033570D01*
X028800Y033611D01*
X028848Y033650D01*
X028899Y033686D01*
X028951Y033718D01*
X029005Y033747D01*
X029061Y033773D01*
X029119Y033795D01*
X029177Y033814D01*
X029237Y033829D01*
X029298Y033840D01*
X029359Y033848D01*
X029420Y033852D01*
X029482Y033852D01*
X029543Y033848D01*
X029604Y033840D01*
X029665Y033829D01*
X029725Y033814D01*
X029783Y033795D01*
X029841Y033773D01*
X029897Y033747D01*
X029951Y033718D01*
X030003Y033686D01*
X030054Y033650D01*
X030102Y033611D01*
X030147Y033570D01*
X030190Y033526D01*
X030230Y033479D01*
X030267Y033430D01*
X030301Y033378D01*
X030332Y033325D01*
X030359Y033270D01*
X030383Y033213D01*
X030404Y033155D01*
X030421Y033096D01*
X030434Y033036D01*
X030443Y032975D01*
X030449Y032914D01*
X030451Y032852D01*
X030451Y030452D01*
X030449Y030390D01*
X030443Y030329D01*
X030434Y030268D01*
X030421Y030208D01*
X030404Y030149D01*
X030383Y030091D01*
X030359Y030034D01*
X030332Y029979D01*
X030301Y029926D01*
X030267Y029874D01*
X030230Y029825D01*
X030190Y029778D01*
X030147Y029734D01*
X030102Y029693D01*
X030054Y029654D01*
X030003Y029618D01*
X029951Y029586D01*
X029897Y029557D01*
X029841Y029531D01*
X029783Y029509D01*
X029725Y029490D01*
X029665Y029475D01*
X029604Y029464D01*
X029543Y029456D01*
X029482Y029452D01*
X029420Y029452D01*
X029359Y029456D01*
X029298Y029464D01*
X029237Y029475D01*
X029177Y029490D01*
X029119Y029509D01*
X029061Y029531D01*
X029005Y029557D01*
X028951Y029586D01*
X028899Y029618D01*
X028848Y029654D01*
X028800Y029693D01*
X028755Y029734D01*
X028712Y029778D01*
X028672Y029825D01*
X028635Y029874D01*
X028601Y029926D01*
X028570Y029979D01*
X028543Y030034D01*
X028519Y030091D01*
X028498Y030149D01*
X028481Y030208D01*
X028468Y030268D01*
X028459Y030329D01*
X028453Y030390D01*
X028451Y030452D01*
X037702Y037702D02*
X049513Y037702D01*
X049513Y049513D01*
X037702Y049513D01*
X037702Y037702D01*
X025103Y080615D02*
X024205Y080152D01*
X023318Y079667D01*
X022443Y079160D01*
X021581Y078632D01*
X020733Y078083D01*
X019898Y077513D01*
X019077Y076923D01*
X018271Y076314D01*
X017480Y075684D01*
X016704Y075036D01*
X015945Y074369D01*
X015202Y073683D01*
X014476Y072980D01*
X013768Y072259D01*
X013077Y071521D01*
X012405Y070766D01*
X011751Y069995D01*
X011116Y069208D01*
X010501Y068406D01*
X009906Y067589D01*
X009331Y066758D01*
X008776Y065913D01*
X008242Y065055D01*
X007729Y064184D01*
X007238Y063301D01*
X006768Y062406D01*
X006321Y061499D01*
X005895Y060582D01*
X005493Y059655D01*
X005113Y058719D01*
X004756Y057773D01*
X004422Y056819D01*
X004112Y055857D01*
X003825Y054888D01*
X003562Y053912D01*
X003323Y052929D01*
X003108Y051942D01*
X002918Y050949D01*
X002751Y049952D01*
X002609Y048951D01*
X002492Y047947D01*
X002399Y046941D01*
X002331Y045932D01*
X002288Y044922D01*
X002269Y043912D01*
X002275Y042901D01*
X002305Y041891D01*
X002361Y040881D01*
X002441Y039874D01*
X002545Y038868D01*
X002675Y037866D01*
X002828Y036867D01*
X003006Y035872D01*
X003208Y034881D01*
X003435Y033896D01*
X003685Y032917D01*
X003960Y031944D01*
X004258Y030978D01*
X004579Y030020D01*
X004924Y029070D01*
X005292Y028129D01*
X005683Y027196D01*
X006097Y026274D01*
X006533Y025362D01*
X006991Y024461D01*
X007471Y023572D01*
X007973Y022694D01*
X008496Y021829D01*
X009040Y020977D01*
X009604Y020139D01*
X010189Y019315D01*
X010794Y018505D01*
X011419Y017710D01*
X012063Y016931D01*
X012725Y016168D01*
X013406Y015421D01*
X014106Y014691D01*
X014822Y013978D01*
X015556Y013283D01*
X016307Y012606D01*
X017074Y011948D01*
X017857Y011309D01*
X018656Y010689D01*
X019469Y010089D01*
X020297Y009509D01*
X021139Y008949D01*
X021994Y008410D01*
X022862Y007892D01*
X023742Y007396D01*
X024634Y006921D01*
X025538Y006468D01*
X026453Y006037D01*
X027377Y005629D01*
X028312Y005244D01*
X029255Y004881D01*
X030207Y004542D01*
X031168Y004226D01*
X032135Y003934D01*
X033110Y003665D01*
X034090Y003420D01*
X035077Y003200D01*
X036068Y003003D01*
X037064Y002831D01*
X038064Y002683D01*
X039067Y002560D01*
X040073Y002461D01*
X041082Y002387D01*
X042091Y002338D01*
X043102Y002313D01*
X044112Y002313D01*
X045123Y002338D01*
X046132Y002387D01*
X047141Y002461D01*
X048147Y002560D01*
X049150Y002683D01*
X050150Y002831D01*
X051146Y003003D01*
X052137Y003200D01*
X053124Y003420D01*
X054104Y003665D01*
X055079Y003934D01*
X056046Y004226D01*
X057007Y004542D01*
X057959Y004881D01*
X058902Y005244D01*
X059837Y005629D01*
X060761Y006037D01*
X061676Y006468D01*
X062580Y006921D01*
X063472Y007396D01*
X064352Y007892D01*
X065220Y008410D01*
X066075Y008949D01*
X066917Y009509D01*
X067745Y010089D01*
X068558Y010689D01*
X069357Y011309D01*
X070140Y011948D01*
X070907Y012606D01*
X071658Y013283D01*
X072392Y013978D01*
X073108Y014691D01*
X073808Y015421D01*
X074489Y016168D01*
X075151Y016931D01*
X075795Y017710D01*
X076420Y018505D01*
X077025Y019315D01*
X077610Y020139D01*
X078174Y020977D01*
X078718Y021829D01*
X079241Y022694D01*
X079743Y023572D01*
X080223Y024461D01*
X080681Y025362D01*
X081117Y026274D01*
X081531Y027196D01*
X081922Y028129D01*
X082290Y029070D01*
X082635Y030020D01*
X082956Y030978D01*
X083254Y031944D01*
X083529Y032917D01*
X083779Y033896D01*
X084006Y034881D01*
X084208Y035872D01*
X084386Y036867D01*
X084539Y037866D01*
X084669Y038868D01*
X084773Y039874D01*
X084853Y040881D01*
X084909Y041891D01*
X084939Y042901D01*
X084945Y043912D01*
X084926Y044922D01*
X084883Y045932D01*
X084815Y046941D01*
X084722Y047947D01*
X084605Y048951D01*
X084463Y049952D01*
X084296Y050949D01*
X084106Y051942D01*
X083891Y052929D01*
X083652Y053912D01*
X083389Y054888D01*
X083102Y055857D01*
X082792Y056819D01*
X082458Y057773D01*
X082101Y058719D01*
X081721Y059655D01*
X081319Y060582D01*
X080893Y061499D01*
X080446Y062406D01*
X079976Y063301D01*
X079485Y064184D01*
X078972Y065055D01*
X078438Y065913D01*
X077883Y066758D01*
X077308Y067589D01*
X076713Y068406D01*
X076098Y069208D01*
X075463Y069995D01*
X074809Y070766D01*
X074137Y071521D01*
X073446Y072259D01*
X072738Y072980D01*
X072012Y073683D01*
X071269Y074369D01*
X070510Y075036D01*
X069734Y075684D01*
X068943Y076314D01*
X068137Y076923D01*
X067316Y077513D01*
X066481Y078083D01*
X065633Y078632D01*
X064771Y079160D01*
X063896Y079667D01*
X063009Y080152D01*
X062111Y080615D01*
X062049Y080655D01*
X061986Y080692D01*
X061921Y080725D01*
X061855Y080754D01*
X061786Y080780D01*
X061717Y080803D01*
X061646Y080822D01*
X061575Y080837D01*
X061503Y080848D01*
X061430Y080855D01*
X061357Y080859D01*
X061284Y080858D01*
X061212Y080854D01*
X061139Y080846D01*
X061067Y080834D01*
X060996Y080819D01*
X060925Y080799D01*
X060856Y080776D01*
X060788Y080750D01*
X060722Y080719D01*
X060657Y080686D01*
X060594Y080649D01*
X060533Y080608D01*
X060475Y080565D01*
X060419Y080518D01*
X054225Y074328D01*
X060037Y077694D02*
X060039Y077750D01*
X060045Y077805D01*
X060055Y077859D01*
X060068Y077913D01*
X060086Y077966D01*
X060107Y078017D01*
X060131Y078067D01*
X060159Y078115D01*
X060191Y078161D01*
X060225Y078205D01*
X060263Y078246D01*
X060303Y078284D01*
X060346Y078319D01*
X060391Y078351D01*
X060439Y078380D01*
X060488Y078406D01*
X060539Y078428D01*
X060591Y078446D01*
X060645Y078460D01*
X060700Y078471D01*
X060755Y078478D01*
X060810Y078481D01*
X060866Y078480D01*
X060921Y078475D01*
X060976Y078466D01*
X061030Y078454D01*
X061083Y078437D01*
X061135Y078417D01*
X061185Y078393D01*
X061233Y078366D01*
X061280Y078336D01*
X061324Y078302D01*
X061366Y078265D01*
X061404Y078225D01*
X061441Y078183D01*
X061474Y078138D01*
X061503Y078092D01*
X061530Y078043D01*
X061552Y077992D01*
X061572Y077940D01*
X061587Y077886D01*
X061599Y077832D01*
X061607Y077777D01*
X061611Y077722D01*
X061611Y077666D01*
X061607Y077611D01*
X061599Y077556D01*
X061587Y077502D01*
X061572Y077448D01*
X061552Y077396D01*
X061530Y077345D01*
X061503Y077296D01*
X061474Y077250D01*
X061441Y077205D01*
X061404Y077163D01*
X061366Y077123D01*
X061324Y077086D01*
X061280Y077052D01*
X061233Y077022D01*
X061185Y076995D01*
X061135Y076971D01*
X061083Y076951D01*
X061030Y076934D01*
X060976Y076922D01*
X060921Y076913D01*
X060866Y076908D01*
X060810Y076907D01*
X060755Y076910D01*
X060700Y076917D01*
X060645Y076928D01*
X060591Y076942D01*
X060539Y076960D01*
X060488Y076982D01*
X060439Y077008D01*
X060391Y077037D01*
X060346Y077069D01*
X060303Y077104D01*
X060263Y077142D01*
X060225Y077183D01*
X060191Y077227D01*
X060159Y077273D01*
X060131Y077321D01*
X060107Y077371D01*
X060086Y077422D01*
X060068Y077475D01*
X060055Y077529D01*
X060045Y077583D01*
X060039Y077638D01*
X060037Y077694D01*
X054225Y074328D02*
X053965Y074075D01*
X053700Y073827D01*
X053428Y073587D01*
X053151Y073353D01*
X052868Y073126D01*
X052579Y072905D01*
X052286Y072692D01*
X051987Y072486D01*
X051684Y072287D01*
X051375Y072096D01*
X051063Y071912D01*
X050745Y071735D01*
X050424Y071567D01*
X050099Y071406D01*
X049770Y071253D01*
X049437Y071108D01*
X049101Y070971D01*
X048762Y070842D01*
X048419Y070722D01*
X048074Y070610D01*
X047727Y070506D01*
X047376Y070411D01*
X047024Y070324D01*
X046670Y070246D01*
X046314Y070176D01*
X045956Y070115D01*
X045597Y070062D01*
X045237Y070019D01*
X044876Y069984D01*
X044514Y069957D01*
X044151Y069940D01*
X043788Y069931D01*
X043426Y069931D01*
X043063Y069940D01*
X042700Y069957D01*
X042338Y069984D01*
X041977Y070019D01*
X041617Y070062D01*
X041258Y070115D01*
X040900Y070176D01*
X040544Y070246D01*
X040190Y070324D01*
X039838Y070411D01*
X039487Y070506D01*
X039140Y070610D01*
X038795Y070722D01*
X038452Y070842D01*
X038113Y070971D01*
X037777Y071108D01*
X037444Y071253D01*
X037115Y071406D01*
X036790Y071567D01*
X036469Y071735D01*
X036151Y071912D01*
X035839Y072096D01*
X035530Y072287D01*
X035227Y072486D01*
X034928Y072692D01*
X034635Y072905D01*
X034346Y073126D01*
X034063Y073353D01*
X033786Y073587D01*
X033514Y073827D01*
X033249Y074075D01*
X032989Y074328D01*
X026836Y080476D01*
X026787Y080527D01*
X026736Y080576D01*
X026681Y080621D01*
X026624Y080663D01*
X026565Y080702D01*
X026504Y080738D01*
X026440Y080770D01*
X026376Y080799D01*
X026309Y080824D01*
X026241Y080845D01*
X026173Y080862D01*
X026103Y080876D01*
X026033Y080886D01*
X025962Y080891D01*
X025891Y080893D01*
X025820Y080891D01*
X025750Y080885D01*
X025679Y080874D01*
X025610Y080860D01*
X025541Y080842D01*
X025474Y080821D01*
X025408Y080795D01*
X025343Y080766D01*
X025280Y080733D01*
X025219Y080697D01*
X025160Y080658D01*
X025103Y080615D01*
X025604Y077694D02*
X025606Y077750D01*
X025612Y077805D01*
X025622Y077859D01*
X025635Y077913D01*
X025653Y077966D01*
X025674Y078017D01*
X025698Y078067D01*
X025726Y078115D01*
X025758Y078161D01*
X025792Y078205D01*
X025830Y078246D01*
X025870Y078284D01*
X025913Y078319D01*
X025958Y078351D01*
X026006Y078380D01*
X026055Y078406D01*
X026106Y078428D01*
X026158Y078446D01*
X026212Y078460D01*
X026267Y078471D01*
X026322Y078478D01*
X026377Y078481D01*
X026433Y078480D01*
X026488Y078475D01*
X026543Y078466D01*
X026597Y078454D01*
X026650Y078437D01*
X026702Y078417D01*
X026752Y078393D01*
X026800Y078366D01*
X026847Y078336D01*
X026891Y078302D01*
X026933Y078265D01*
X026971Y078225D01*
X027008Y078183D01*
X027041Y078138D01*
X027070Y078092D01*
X027097Y078043D01*
X027119Y077992D01*
X027139Y077940D01*
X027154Y077886D01*
X027166Y077832D01*
X027174Y077777D01*
X027178Y077722D01*
X027178Y077666D01*
X027174Y077611D01*
X027166Y077556D01*
X027154Y077502D01*
X027139Y077448D01*
X027119Y077396D01*
X027097Y077345D01*
X027070Y077296D01*
X027041Y077250D01*
X027008Y077205D01*
X026971Y077163D01*
X026933Y077123D01*
X026891Y077086D01*
X026847Y077052D01*
X026800Y077022D01*
X026752Y076995D01*
X026702Y076971D01*
X026650Y076951D01*
X026597Y076934D01*
X026543Y076922D01*
X026488Y076913D01*
X026433Y076908D01*
X026377Y076907D01*
X026322Y076910D01*
X026267Y076917D01*
X026212Y076928D01*
X026158Y076942D01*
X026106Y076960D01*
X026055Y076982D01*
X026006Y077008D01*
X025958Y077037D01*
X025913Y077069D01*
X025870Y077104D01*
X025830Y077142D01*
X025792Y077183D01*
X025758Y077227D01*
X025726Y077273D01*
X025698Y077321D01*
X025674Y077371D01*
X025653Y077422D01*
X025635Y077475D01*
X025622Y077529D01*
X025612Y077583D01*
X025606Y077638D01*
X025604Y077694D01*
X007387Y043607D02*
X007389Y043663D01*
X007395Y043718D01*
X007405Y043772D01*
X007418Y043826D01*
X007436Y043879D01*
X007457Y043930D01*
X007481Y043980D01*
X007509Y044028D01*
X007541Y044074D01*
X007575Y044118D01*
X007613Y044159D01*
X007653Y044197D01*
X007696Y044232D01*
X007741Y044264D01*
X007789Y044293D01*
X007838Y044319D01*
X007889Y044341D01*
X007941Y044359D01*
X007995Y044373D01*
X008050Y044384D01*
X008105Y044391D01*
X008160Y044394D01*
X008216Y044393D01*
X008271Y044388D01*
X008326Y044379D01*
X008380Y044367D01*
X008433Y044350D01*
X008485Y044330D01*
X008535Y044306D01*
X008583Y044279D01*
X008630Y044249D01*
X008674Y044215D01*
X008716Y044178D01*
X008754Y044138D01*
X008791Y044096D01*
X008824Y044051D01*
X008853Y044005D01*
X008880Y043956D01*
X008902Y043905D01*
X008922Y043853D01*
X008937Y043799D01*
X008949Y043745D01*
X008957Y043690D01*
X008961Y043635D01*
X008961Y043579D01*
X008957Y043524D01*
X008949Y043469D01*
X008937Y043415D01*
X008922Y043361D01*
X008902Y043309D01*
X008880Y043258D01*
X008853Y043209D01*
X008824Y043163D01*
X008791Y043118D01*
X008754Y043076D01*
X008716Y043036D01*
X008674Y042999D01*
X008630Y042965D01*
X008583Y042935D01*
X008535Y042908D01*
X008485Y042884D01*
X008433Y042864D01*
X008380Y042847D01*
X008326Y042835D01*
X008271Y042826D01*
X008216Y042821D01*
X008160Y042820D01*
X008105Y042823D01*
X008050Y042830D01*
X007995Y042841D01*
X007941Y042855D01*
X007889Y042873D01*
X007838Y042895D01*
X007789Y042921D01*
X007741Y042950D01*
X007696Y042982D01*
X007653Y043017D01*
X007613Y043055D01*
X007575Y043096D01*
X007541Y043140D01*
X007509Y043186D01*
X007481Y043234D01*
X007457Y043284D01*
X007436Y043335D01*
X007418Y043388D01*
X007405Y043442D01*
X007395Y043496D01*
X007389Y043551D01*
X007387Y043607D01*
X042820Y005418D02*
X042822Y005474D01*
X042828Y005529D01*
X042838Y005583D01*
X042851Y005637D01*
X042869Y005690D01*
X042890Y005741D01*
X042914Y005791D01*
X042942Y005839D01*
X042974Y005885D01*
X043008Y005929D01*
X043046Y005970D01*
X043086Y006008D01*
X043129Y006043D01*
X043174Y006075D01*
X043222Y006104D01*
X043271Y006130D01*
X043322Y006152D01*
X043374Y006170D01*
X043428Y006184D01*
X043483Y006195D01*
X043538Y006202D01*
X043593Y006205D01*
X043649Y006204D01*
X043704Y006199D01*
X043759Y006190D01*
X043813Y006178D01*
X043866Y006161D01*
X043918Y006141D01*
X043968Y006117D01*
X044016Y006090D01*
X044063Y006060D01*
X044107Y006026D01*
X044149Y005989D01*
X044187Y005949D01*
X044224Y005907D01*
X044257Y005862D01*
X044286Y005816D01*
X044313Y005767D01*
X044335Y005716D01*
X044355Y005664D01*
X044370Y005610D01*
X044382Y005556D01*
X044390Y005501D01*
X044394Y005446D01*
X044394Y005390D01*
X044390Y005335D01*
X044382Y005280D01*
X044370Y005226D01*
X044355Y005172D01*
X044335Y005120D01*
X044313Y005069D01*
X044286Y005020D01*
X044257Y004974D01*
X044224Y004929D01*
X044187Y004887D01*
X044149Y004847D01*
X044107Y004810D01*
X044063Y004776D01*
X044016Y004746D01*
X043968Y004719D01*
X043918Y004695D01*
X043866Y004675D01*
X043813Y004658D01*
X043759Y004646D01*
X043704Y004637D01*
X043649Y004632D01*
X043593Y004631D01*
X043538Y004634D01*
X043483Y004641D01*
X043428Y004652D01*
X043374Y004666D01*
X043322Y004684D01*
X043271Y004706D01*
X043222Y004732D01*
X043174Y004761D01*
X043129Y004793D01*
X043086Y004828D01*
X043046Y004866D01*
X043008Y004907D01*
X042974Y004951D01*
X042942Y004997D01*
X042914Y005045D01*
X042890Y005095D01*
X042869Y005146D01*
X042851Y005199D01*
X042838Y005253D01*
X042828Y005307D01*
X042822Y005362D01*
X042820Y005418D01*
X078253Y043607D02*
X078255Y043663D01*
X078261Y043718D01*
X078271Y043772D01*
X078284Y043826D01*
X078302Y043879D01*
X078323Y043930D01*
X078347Y043980D01*
X078375Y044028D01*
X078407Y044074D01*
X078441Y044118D01*
X078479Y044159D01*
X078519Y044197D01*
X078562Y044232D01*
X078607Y044264D01*
X078655Y044293D01*
X078704Y044319D01*
X078755Y044341D01*
X078807Y044359D01*
X078861Y044373D01*
X078916Y044384D01*
X078971Y044391D01*
X079026Y044394D01*
X079082Y044393D01*
X079137Y044388D01*
X079192Y044379D01*
X079246Y044367D01*
X079299Y044350D01*
X079351Y044330D01*
X079401Y044306D01*
X079449Y044279D01*
X079496Y044249D01*
X079540Y044215D01*
X079582Y044178D01*
X079620Y044138D01*
X079657Y044096D01*
X079690Y044051D01*
X079719Y044005D01*
X079746Y043956D01*
X079768Y043905D01*
X079788Y043853D01*
X079803Y043799D01*
X079815Y043745D01*
X079823Y043690D01*
X079827Y043635D01*
X079827Y043579D01*
X079823Y043524D01*
X079815Y043469D01*
X079803Y043415D01*
X079788Y043361D01*
X079768Y043309D01*
X079746Y043258D01*
X079719Y043209D01*
X079690Y043163D01*
X079657Y043118D01*
X079620Y043076D01*
X079582Y043036D01*
X079540Y042999D01*
X079496Y042965D01*
X079449Y042935D01*
X079401Y042908D01*
X079351Y042884D01*
X079299Y042864D01*
X079246Y042847D01*
X079192Y042835D01*
X079137Y042826D01*
X079082Y042821D01*
X079026Y042820D01*
X078971Y042823D01*
X078916Y042830D01*
X078861Y042841D01*
X078807Y042855D01*
X078755Y042873D01*
X078704Y042895D01*
X078655Y042921D01*
X078607Y042950D01*
X078562Y042982D01*
X078519Y043017D01*
X078479Y043055D01*
X078441Y043096D01*
X078407Y043140D01*
X078375Y043186D01*
X078347Y043234D01*
X078323Y043284D01*
X078302Y043335D01*
X078284Y043388D01*
X078271Y043442D01*
X078261Y043496D01*
X078255Y043551D01*
X078253Y043607D01*
X067961Y056243D02*
X065561Y056243D01*
X065499Y056245D01*
X065438Y056251D01*
X065377Y056260D01*
X065317Y056273D01*
X065258Y056290D01*
X065200Y056311D01*
X065143Y056335D01*
X065088Y056362D01*
X065035Y056393D01*
X064983Y056427D01*
X064934Y056464D01*
X064887Y056504D01*
X064843Y056547D01*
X064802Y056592D01*
X064763Y056640D01*
X064727Y056691D01*
X064695Y056743D01*
X064666Y056797D01*
X064640Y056853D01*
X064618Y056911D01*
X064599Y056969D01*
X064584Y057029D01*
X064573Y057090D01*
X064565Y057151D01*
X064561Y057212D01*
X064561Y057274D01*
X064565Y057335D01*
X064573Y057396D01*
X064584Y057457D01*
X064599Y057517D01*
X064618Y057575D01*
X064640Y057633D01*
X064666Y057689D01*
X064695Y057743D01*
X064727Y057795D01*
X064763Y057846D01*
X064802Y057894D01*
X064843Y057939D01*
X064887Y057982D01*
X064934Y058022D01*
X064983Y058059D01*
X065035Y058093D01*
X065088Y058124D01*
X065143Y058151D01*
X065200Y058175D01*
X065258Y058196D01*
X065317Y058213D01*
X065377Y058226D01*
X065438Y058235D01*
X065499Y058241D01*
X065561Y058243D01*
X067961Y058243D01*
X068023Y058241D01*
X068084Y058235D01*
X068145Y058226D01*
X068205Y058213D01*
X068264Y058196D01*
X068322Y058175D01*
X068379Y058151D01*
X068434Y058124D01*
X068487Y058093D01*
X068539Y058059D01*
X068588Y058022D01*
X068635Y057982D01*
X068679Y057939D01*
X068720Y057894D01*
X068759Y057846D01*
X068795Y057795D01*
X068827Y057743D01*
X068856Y057689D01*
X068882Y057633D01*
X068904Y057575D01*
X068923Y057517D01*
X068938Y057457D01*
X068949Y057396D01*
X068957Y057335D01*
X068961Y057274D01*
X068961Y057212D01*
X068957Y057151D01*
X068949Y057090D01*
X068938Y057029D01*
X068923Y056969D01*
X068904Y056911D01*
X068882Y056853D01*
X068856Y056797D01*
X068827Y056743D01*
X068795Y056691D01*
X068759Y056640D01*
X068720Y056592D01*
X068679Y056547D01*
X068635Y056504D01*
X068588Y056464D01*
X068539Y056427D01*
X068487Y056393D01*
X068434Y056362D01*
X068379Y056335D01*
X068322Y056311D01*
X068264Y056290D01*
X068205Y056273D01*
X068145Y056260D01*
X068084Y056251D01*
X068023Y056245D01*
X067961Y056243D01*
D11*
X016851Y014387D02*
X016468Y014708D01*
X016468Y014709D02*
X016450Y014727D01*
X016433Y014747D01*
X016420Y014770D01*
X016409Y014794D01*
X016402Y014819D01*
X016398Y014845D01*
X016397Y014871D01*
X016400Y014897D01*
X016406Y014922D01*
X016416Y014947D01*
X016428Y014969D01*
X016444Y014991D01*
X016443Y014990D02*
X017279Y015986D01*
X017297Y016004D01*
X017317Y016021D01*
X017340Y016034D01*
X017364Y016045D01*
X017389Y016052D01*
X017415Y016056D01*
X017441Y016057D01*
X017467Y016054D01*
X017492Y016048D01*
X017517Y016038D01*
X017539Y016026D01*
X017561Y016010D01*
X017561Y016011D02*
X017944Y015689D01*
X017962Y015671D01*
X017979Y015651D01*
X017992Y015628D01*
X018003Y015604D01*
X018010Y015579D01*
X018014Y015553D01*
X018015Y015527D01*
X018012Y015501D01*
X018006Y015476D01*
X017996Y015451D01*
X017984Y015429D01*
X017968Y015407D01*
X017969Y015407D02*
X017133Y014412D01*
X017133Y014411D02*
X017115Y014393D01*
X017095Y014376D01*
X017072Y014363D01*
X017048Y014352D01*
X017023Y014345D01*
X016997Y014341D01*
X016971Y014340D01*
X016945Y014343D01*
X016920Y014349D01*
X016895Y014359D01*
X016873Y014371D01*
X016851Y014387D01*
X018461Y014532D02*
X018537Y014468D01*
X018608Y014474D01*
X019297Y013896D01*
X019303Y013825D01*
X019380Y013761D01*
X019380Y013760D02*
X019394Y013750D01*
X019410Y013743D01*
X019427Y013739D01*
X019444Y013737D01*
X019461Y013739D01*
X019478Y013743D01*
X019494Y013750D01*
X019508Y013760D01*
X019521Y013773D01*
X019843Y014156D02*
X019853Y014170D01*
X019860Y014186D01*
X019864Y014203D01*
X019866Y014220D01*
X019864Y014237D01*
X019860Y014254D01*
X019853Y014270D01*
X019843Y014284D01*
X019830Y014297D01*
X019753Y014361D01*
X019683Y014355D01*
X018993Y014934D01*
X018987Y015004D01*
X018911Y015068D01*
X018910Y015069D02*
X018894Y015080D01*
X018876Y015087D01*
X018857Y015091D01*
X018837Y015092D01*
X018818Y015088D01*
X018800Y015081D01*
X018783Y015070D01*
X018769Y015056D01*
X018448Y014673D02*
X018437Y014657D01*
X018430Y014639D01*
X018426Y014620D01*
X018425Y014600D01*
X018429Y014581D01*
X018436Y014563D01*
X018447Y014546D01*
X018461Y014532D01*
X021309Y021229D02*
X021059Y021479D01*
X021059Y021979D01*
X021309Y022229D01*
X021059Y022479D01*
X021059Y022979D01*
X021309Y023229D01*
X021059Y023479D01*
X021059Y023979D01*
X021309Y024229D01*
X021059Y024479D01*
X021059Y024979D01*
X021309Y025229D01*
X021809Y025229D01*
X022059Y024979D01*
X022059Y024479D01*
X021809Y024229D01*
X022059Y023979D01*
X022059Y023479D01*
X021809Y023229D01*
X022059Y022979D01*
X022059Y022479D01*
X021809Y022229D01*
X022059Y021979D01*
X022059Y021479D01*
X021809Y021229D01*
X021309Y021229D01*
X024192Y023388D02*
X025192Y023388D01*
X025432Y023388D01*
X026292Y023388D01*
X025432Y023388D02*
X025430Y023409D01*
X025425Y023429D01*
X025416Y023448D01*
X025404Y023465D01*
X025389Y023480D01*
X025372Y023492D01*
X025353Y023501D01*
X025333Y023506D01*
X025312Y023508D01*
X025291Y023506D01*
X025271Y023501D01*
X025252Y023492D01*
X025235Y023480D01*
X025220Y023465D01*
X025208Y023448D01*
X025199Y023429D01*
X025194Y023409D01*
X025192Y023388D01*
X027868Y025710D02*
X027868Y025860D01*
X027918Y025910D01*
X027918Y027310D01*
X027868Y027360D01*
X027868Y027510D01*
X027870Y027527D01*
X027874Y027544D01*
X027881Y027560D01*
X027891Y027574D01*
X027904Y027587D01*
X027918Y027597D01*
X027934Y027604D01*
X027951Y027608D01*
X027968Y027610D01*
X028568Y027610D01*
X028585Y027608D01*
X028602Y027604D01*
X028618Y027597D01*
X028632Y027587D01*
X028645Y027574D01*
X028655Y027560D01*
X028662Y027544D01*
X028666Y027527D01*
X028668Y027510D01*
X028668Y027360D01*
X028618Y027310D01*
X028618Y025910D01*
X028668Y025860D01*
X028668Y025710D01*
X028666Y025693D01*
X028662Y025676D01*
X028655Y025660D01*
X028645Y025646D01*
X028632Y025633D01*
X028618Y025623D01*
X028602Y025616D01*
X028585Y025612D01*
X028568Y025610D01*
X027968Y025610D01*
X027951Y025612D01*
X027934Y025616D01*
X027918Y025623D01*
X027904Y025633D01*
X027891Y025646D01*
X027881Y025660D01*
X027874Y025676D01*
X027870Y025693D01*
X027868Y025710D01*
X029335Y027563D02*
X030635Y027563D01*
X030661Y027565D01*
X030687Y027570D01*
X030712Y027578D01*
X030735Y027590D01*
X030757Y027604D01*
X030776Y027622D01*
X030794Y027641D01*
X030808Y027663D01*
X030820Y027686D01*
X030828Y027711D01*
X030833Y027737D01*
X030835Y027763D01*
X030835Y028263D01*
X030833Y028289D01*
X030828Y028315D01*
X030820Y028340D01*
X030808Y028363D01*
X030794Y028385D01*
X030776Y028404D01*
X030757Y028422D01*
X030735Y028436D01*
X030712Y028448D01*
X030687Y028456D01*
X030661Y028461D01*
X030635Y028463D01*
X029335Y028463D01*
X029309Y028461D01*
X029283Y028456D01*
X029258Y028448D01*
X029235Y028436D01*
X029213Y028422D01*
X029194Y028404D01*
X029176Y028385D01*
X029162Y028363D01*
X029150Y028340D01*
X029142Y028315D01*
X029137Y028289D01*
X029135Y028263D01*
X029135Y027763D01*
X029137Y027737D01*
X029142Y027711D01*
X029150Y027686D01*
X029162Y027663D01*
X029176Y027641D01*
X029194Y027622D01*
X029213Y027604D01*
X029235Y027590D01*
X029258Y027578D01*
X029283Y027570D01*
X029309Y027565D01*
X029335Y027563D01*
X028651Y030452D02*
X028653Y030396D01*
X028659Y030341D01*
X028668Y030286D01*
X028682Y030231D01*
X028699Y030178D01*
X028720Y030127D01*
X028745Y030076D01*
X028773Y030028D01*
X028804Y029982D01*
X028838Y029938D01*
X028876Y029896D01*
X028916Y029857D01*
X028958Y029822D01*
X029004Y029789D01*
X029051Y029759D01*
X029100Y029733D01*
X029151Y029710D01*
X029204Y029691D01*
X029257Y029676D01*
X029312Y029664D01*
X029367Y029656D01*
X029423Y029652D01*
X029479Y029652D01*
X029535Y029656D01*
X029590Y029664D01*
X029645Y029676D01*
X029698Y029691D01*
X029751Y029710D01*
X029802Y029733D01*
X029851Y029759D01*
X029898Y029789D01*
X029944Y029822D01*
X029986Y029857D01*
X030026Y029896D01*
X030064Y029938D01*
X030098Y029982D01*
X030129Y030028D01*
X030157Y030076D01*
X030182Y030127D01*
X030203Y030178D01*
X030220Y030231D01*
X030234Y030286D01*
X030243Y030341D01*
X030249Y030396D01*
X030251Y030452D01*
X030251Y032852D01*
X030249Y032908D01*
X030243Y032963D01*
X030234Y033018D01*
X030220Y033073D01*
X030203Y033126D01*
X030182Y033177D01*
X030157Y033228D01*
X030129Y033276D01*
X030098Y033322D01*
X030064Y033366D01*
X030026Y033408D01*
X029986Y033447D01*
X029944Y033482D01*
X029898Y033515D01*
X029851Y033545D01*
X029802Y033571D01*
X029751Y033594D01*
X029698Y033613D01*
X029645Y033628D01*
X029590Y033640D01*
X029535Y033648D01*
X029479Y033652D01*
X029423Y033652D01*
X029367Y033648D01*
X029312Y033640D01*
X029257Y033628D01*
X029204Y033613D01*
X029151Y033594D01*
X029100Y033571D01*
X029051Y033545D01*
X029004Y033515D01*
X028958Y033482D01*
X028916Y033447D01*
X028876Y033408D01*
X028838Y033366D01*
X028804Y033322D01*
X028773Y033276D01*
X028745Y033228D01*
X028720Y033177D01*
X028699Y033126D01*
X028682Y033073D01*
X028668Y033018D01*
X028659Y032963D01*
X028653Y032908D01*
X028651Y032852D01*
X028651Y030452D01*
X029051Y031382D02*
X029451Y031382D01*
X029451Y031102D01*
X029451Y031382D02*
X029851Y031382D01*
X029851Y031532D02*
X029851Y031782D01*
X029051Y031782D01*
X029051Y031532D01*
X029851Y031532D01*
X029851Y031922D02*
X029451Y031922D01*
X029051Y031922D01*
X029451Y031922D02*
X029451Y032202D01*
X029311Y034917D02*
X030611Y034917D01*
X030637Y034919D01*
X030663Y034924D01*
X030688Y034932D01*
X030711Y034944D01*
X030733Y034958D01*
X030752Y034976D01*
X030770Y034995D01*
X030784Y035017D01*
X030796Y035040D01*
X030804Y035065D01*
X030809Y035091D01*
X030811Y035117D01*
X030811Y035617D01*
X030809Y035643D01*
X030804Y035669D01*
X030796Y035694D01*
X030784Y035717D01*
X030770Y035739D01*
X030752Y035758D01*
X030733Y035776D01*
X030711Y035790D01*
X030688Y035802D01*
X030663Y035810D01*
X030637Y035815D01*
X030611Y035817D01*
X029311Y035817D01*
X029285Y035815D01*
X029259Y035810D01*
X029234Y035802D01*
X029211Y035790D01*
X029189Y035776D01*
X029170Y035758D01*
X029152Y035739D01*
X029138Y035717D01*
X029126Y035694D01*
X029118Y035669D01*
X029113Y035643D01*
X029111Y035617D01*
X029111Y035117D01*
X029113Y035091D01*
X029118Y035065D01*
X029126Y035040D01*
X029138Y035017D01*
X029152Y034995D01*
X029170Y034976D01*
X029189Y034958D01*
X029211Y034944D01*
X029234Y034932D01*
X029259Y034924D01*
X029285Y034919D01*
X029311Y034917D01*
X026432Y037088D02*
X024192Y037088D01*
X022761Y032211D02*
X022161Y032211D01*
X022144Y032209D01*
X022127Y032205D01*
X022111Y032198D01*
X022097Y032188D01*
X022084Y032175D01*
X022074Y032161D01*
X022067Y032145D01*
X022063Y032128D01*
X022061Y032111D01*
X022061Y031961D01*
X022111Y031911D01*
X022111Y030511D01*
X022061Y030461D01*
X022061Y030311D01*
X022063Y030294D01*
X022067Y030277D01*
X022074Y030261D01*
X022084Y030247D01*
X022097Y030234D01*
X022111Y030224D01*
X022127Y030217D01*
X022144Y030213D01*
X022161Y030211D01*
X022761Y030211D01*
X022778Y030213D01*
X022795Y030217D01*
X022811Y030224D01*
X022825Y030234D01*
X022838Y030247D01*
X022848Y030261D01*
X022855Y030277D01*
X022859Y030294D01*
X022861Y030311D01*
X022861Y030461D01*
X022811Y030511D01*
X022811Y031911D01*
X022861Y031961D01*
X022861Y032111D01*
X022859Y032128D01*
X022855Y032145D01*
X022848Y032161D01*
X022838Y032175D01*
X022825Y032188D01*
X022811Y032198D01*
X022795Y032205D01*
X022778Y032209D01*
X022761Y032211D01*
X020801Y027425D02*
X020803Y027488D01*
X020809Y027550D01*
X020819Y027612D01*
X020832Y027674D01*
X020850Y027734D01*
X020871Y027793D01*
X020896Y027851D01*
X020925Y027907D01*
X020957Y027961D01*
X020992Y028013D01*
X021030Y028062D01*
X021072Y028110D01*
X021116Y028154D01*
X021164Y028196D01*
X021213Y028234D01*
X021265Y028269D01*
X021319Y028301D01*
X021375Y028330D01*
X021433Y028355D01*
X021492Y028376D01*
X021552Y028394D01*
X021614Y028407D01*
X021676Y028417D01*
X021738Y028423D01*
X021801Y028425D01*
X021864Y028423D01*
X021926Y028417D01*
X021988Y028407D01*
X022050Y028394D01*
X022110Y028376D01*
X022169Y028355D01*
X022227Y028330D01*
X022283Y028301D01*
X022337Y028269D01*
X022389Y028234D01*
X022438Y028196D01*
X022486Y028154D01*
X022530Y028110D01*
X022572Y028062D01*
X022610Y028013D01*
X022645Y027961D01*
X022677Y027907D01*
X022706Y027851D01*
X022731Y027793D01*
X022752Y027734D01*
X022770Y027674D01*
X022783Y027612D01*
X022793Y027550D01*
X022799Y027488D01*
X022801Y027425D01*
X022799Y027362D01*
X022793Y027300D01*
X022783Y027238D01*
X022770Y027176D01*
X022752Y027116D01*
X022731Y027057D01*
X022706Y026999D01*
X022677Y026943D01*
X022645Y026889D01*
X022610Y026837D01*
X022572Y026788D01*
X022530Y026740D01*
X022486Y026696D01*
X022438Y026654D01*
X022389Y026616D01*
X022337Y026581D01*
X022283Y026549D01*
X022227Y026520D01*
X022169Y026495D01*
X022110Y026474D01*
X022050Y026456D01*
X021988Y026443D01*
X021926Y026433D01*
X021864Y026427D01*
X021801Y026425D01*
X021738Y026427D01*
X021676Y026433D01*
X021614Y026443D01*
X021552Y026456D01*
X021492Y026474D01*
X021433Y026495D01*
X021375Y026520D01*
X021319Y026549D01*
X021265Y026581D01*
X021213Y026616D01*
X021164Y026654D01*
X021116Y026696D01*
X021072Y026740D01*
X021030Y026788D01*
X020992Y026837D01*
X020957Y026889D01*
X020925Y026943D01*
X020896Y026999D01*
X020871Y027057D01*
X020850Y027116D01*
X020832Y027176D01*
X020819Y027238D01*
X020809Y027300D01*
X020803Y027362D01*
X020801Y027425D01*
X009826Y027224D02*
X009784Y027314D01*
X009718Y027339D01*
X009337Y028154D01*
X009362Y028221D01*
X009319Y028311D01*
X009320Y028311D02*
X009311Y028326D01*
X009300Y028340D01*
X009286Y028351D01*
X009271Y028360D01*
X009255Y028366D01*
X009238Y028369D01*
X009220Y028369D01*
X009203Y028366D01*
X009187Y028360D01*
X008734Y028149D02*
X008719Y028140D01*
X008705Y028129D01*
X008694Y028115D01*
X008685Y028100D01*
X008679Y028084D01*
X008676Y028067D01*
X008676Y028049D01*
X008679Y028032D01*
X008685Y028016D01*
X008727Y027925D01*
X008794Y027901D01*
X009174Y027085D01*
X009150Y027019D01*
X009192Y026928D01*
X009201Y026913D01*
X009212Y026899D01*
X009226Y026888D01*
X009241Y026879D01*
X009257Y026873D01*
X009274Y026870D01*
X009292Y026870D01*
X009309Y026873D01*
X009325Y026879D01*
X009778Y027091D02*
X009795Y027101D01*
X009810Y027114D01*
X009821Y027130D01*
X009830Y027148D01*
X009835Y027167D01*
X009836Y027186D01*
X009833Y027206D01*
X009827Y027224D01*
X008538Y028813D02*
X007360Y028264D01*
X007335Y028254D01*
X007310Y028248D01*
X007284Y028245D01*
X007258Y028246D01*
X007232Y028250D01*
X007207Y028257D01*
X007183Y028268D01*
X007160Y028281D01*
X007140Y028298D01*
X007122Y028316D01*
X007106Y028338D01*
X007094Y028360D01*
X006883Y028813D01*
X006873Y028838D01*
X006867Y028863D01*
X006864Y028889D01*
X006865Y028915D01*
X006869Y028941D01*
X006876Y028966D01*
X006887Y028990D01*
X006900Y029013D01*
X006917Y029033D01*
X006935Y029051D01*
X006957Y029067D01*
X006979Y029079D01*
X008158Y029629D01*
X008157Y029628D02*
X008182Y029638D01*
X008207Y029644D01*
X008233Y029647D01*
X008259Y029646D01*
X008285Y029642D01*
X008310Y029635D01*
X008334Y029624D01*
X008357Y029611D01*
X008377Y029594D01*
X008395Y029576D01*
X008411Y029554D01*
X008423Y029532D01*
X008635Y029079D01*
X008634Y029079D02*
X008644Y029054D01*
X008650Y029029D01*
X008653Y029003D01*
X008652Y028977D01*
X008648Y028951D01*
X008641Y028926D01*
X008630Y028902D01*
X008617Y028879D01*
X008600Y028859D01*
X008582Y028841D01*
X008560Y028825D01*
X008538Y028813D01*
X005837Y042989D02*
X005837Y043089D01*
X005787Y043139D01*
X005787Y044039D01*
X005837Y044089D01*
X005837Y044189D01*
X005835Y044206D01*
X005831Y044223D01*
X005824Y044239D01*
X005814Y044253D01*
X005801Y044266D01*
X005787Y044276D01*
X005771Y044283D01*
X005754Y044287D01*
X005737Y044289D01*
X005237Y044289D02*
X005220Y044287D01*
X005203Y044283D01*
X005187Y044276D01*
X005173Y044266D01*
X005160Y044253D01*
X005150Y044239D01*
X005143Y044223D01*
X005139Y044206D01*
X005137Y044189D01*
X005137Y044089D01*
X005187Y044039D01*
X005187Y043139D01*
X005137Y043089D01*
X005137Y042989D01*
X005139Y042972D01*
X005143Y042955D01*
X005150Y042939D01*
X005160Y042925D01*
X005173Y042912D01*
X005187Y042902D01*
X005203Y042895D01*
X005220Y042891D01*
X005237Y042889D01*
X005737Y042889D02*
X005754Y042891D01*
X005771Y042895D01*
X005787Y042902D01*
X005801Y042912D01*
X005814Y042925D01*
X005824Y042939D01*
X005831Y042955D01*
X005835Y042972D01*
X005837Y042989D01*
X005600Y045183D02*
X004300Y045183D01*
X004274Y045185D01*
X004248Y045190D01*
X004223Y045198D01*
X004200Y045210D01*
X004178Y045224D01*
X004159Y045242D01*
X004141Y045261D01*
X004127Y045283D01*
X004115Y045306D01*
X004107Y045331D01*
X004102Y045357D01*
X004100Y045383D01*
X004100Y045883D01*
X004102Y045909D01*
X004107Y045935D01*
X004115Y045960D01*
X004127Y045983D01*
X004141Y046005D01*
X004159Y046024D01*
X004178Y046042D01*
X004200Y046056D01*
X004223Y046068D01*
X004248Y046076D01*
X004274Y046081D01*
X004300Y046083D01*
X005600Y046083D01*
X005626Y046081D01*
X005652Y046076D01*
X005677Y046068D01*
X005700Y046056D01*
X005722Y046042D01*
X005741Y046024D01*
X005759Y046005D01*
X005773Y045983D01*
X005785Y045960D01*
X005793Y045935D01*
X005798Y045909D01*
X005800Y045883D01*
X005800Y045383D01*
X005798Y045357D01*
X005793Y045331D01*
X005785Y045306D01*
X005773Y045283D01*
X005759Y045261D01*
X005741Y045242D01*
X005722Y045224D01*
X005700Y045210D01*
X005677Y045198D01*
X005652Y045190D01*
X005626Y045185D01*
X005600Y045183D01*
X016926Y051715D02*
X017176Y051465D01*
X018676Y051465D01*
X018926Y051715D01*
X018926Y052215D01*
X018676Y052465D01*
X017176Y052465D01*
X016926Y052715D01*
X016926Y053215D01*
X017176Y053465D01*
X018676Y053465D01*
X018926Y053715D01*
X018926Y054215D01*
X018676Y054465D01*
X017176Y054465D01*
X016926Y054215D01*
X016926Y053715D01*
X017176Y053465D01*
X017176Y052465D02*
X016926Y052215D01*
X016926Y051715D01*
X018676Y052465D02*
X018926Y052715D01*
X018926Y053215D01*
X018676Y053465D01*
X024497Y057499D02*
X024747Y057249D01*
X026247Y057249D01*
X026497Y057499D01*
X026497Y057999D01*
X026247Y058249D01*
X026497Y058499D01*
X026497Y058999D01*
X026247Y059249D01*
X026497Y059499D01*
X026497Y059999D01*
X026247Y060249D01*
X026497Y060499D01*
X026497Y060999D01*
X026247Y061249D01*
X026497Y061499D01*
X026497Y061999D01*
X026247Y062249D01*
X024747Y062249D01*
X024497Y061999D01*
X024497Y061499D01*
X024747Y061249D01*
X024497Y060999D01*
X024497Y060499D01*
X024747Y060249D01*
X024497Y059999D01*
X024497Y059499D01*
X024747Y059249D01*
X024497Y058999D01*
X024497Y058499D01*
X024747Y058249D01*
X024497Y057999D01*
X024497Y057499D01*
X031201Y067982D02*
X031301Y067982D01*
X031351Y068032D01*
X032251Y068032D01*
X032301Y067982D01*
X032401Y067982D01*
X032418Y067984D01*
X032435Y067988D01*
X032451Y067995D01*
X032465Y068005D01*
X032478Y068018D01*
X032488Y068032D01*
X032495Y068048D01*
X032499Y068065D01*
X032501Y068082D01*
X032501Y068582D02*
X032499Y068599D01*
X032495Y068616D01*
X032488Y068632D01*
X032478Y068646D01*
X032465Y068659D01*
X032451Y068669D01*
X032435Y068676D01*
X032418Y068680D01*
X032401Y068682D01*
X032301Y068682D01*
X032251Y068632D01*
X031351Y068632D01*
X031301Y068682D01*
X031201Y068682D01*
X031184Y068680D01*
X031167Y068676D01*
X031151Y068669D01*
X031137Y068659D01*
X031124Y068646D01*
X031114Y068632D01*
X031107Y068616D01*
X031103Y068599D01*
X031101Y068582D01*
X031101Y068082D02*
X031103Y068065D01*
X031107Y068048D01*
X031114Y068032D01*
X031124Y068018D01*
X031137Y068005D01*
X031151Y067995D01*
X031167Y067988D01*
X031184Y067984D01*
X031201Y067982D01*
X033263Y068408D02*
X033263Y069708D01*
X033265Y069734D01*
X033270Y069760D01*
X033278Y069785D01*
X033290Y069808D01*
X033304Y069830D01*
X033322Y069849D01*
X033341Y069867D01*
X033363Y069881D01*
X033386Y069893D01*
X033411Y069901D01*
X033437Y069906D01*
X033463Y069908D01*
X033963Y069908D01*
X033989Y069906D01*
X034015Y069901D01*
X034040Y069893D01*
X034063Y069881D01*
X034085Y069867D01*
X034104Y069849D01*
X034122Y069830D01*
X034136Y069808D01*
X034148Y069785D01*
X034156Y069760D01*
X034161Y069734D01*
X034163Y069708D01*
X034163Y068408D01*
X034161Y068382D01*
X034156Y068356D01*
X034148Y068331D01*
X034136Y068308D01*
X034122Y068286D01*
X034104Y068267D01*
X034085Y068249D01*
X034063Y068235D01*
X034040Y068223D01*
X034015Y068215D01*
X033989Y068210D01*
X033963Y068208D01*
X033463Y068208D01*
X033437Y068210D01*
X033411Y068215D01*
X033386Y068223D01*
X033363Y068235D01*
X033341Y068249D01*
X033322Y068267D01*
X033304Y068286D01*
X033290Y068308D01*
X033278Y068331D01*
X033270Y068356D01*
X033265Y068382D01*
X033263Y068408D01*
X042983Y063844D02*
X043083Y063844D01*
X043133Y063794D01*
X044033Y063794D01*
X044083Y063844D01*
X044183Y063844D01*
X044200Y063842D01*
X044217Y063838D01*
X044233Y063831D01*
X044247Y063821D01*
X044260Y063808D01*
X044270Y063794D01*
X044277Y063778D01*
X044281Y063761D01*
X044283Y063744D01*
X044283Y063244D02*
X044281Y063227D01*
X044277Y063210D01*
X044270Y063194D01*
X044260Y063180D01*
X044247Y063167D01*
X044233Y063157D01*
X044217Y063150D01*
X044200Y063146D01*
X044183Y063144D01*
X044083Y063144D01*
X044033Y063194D01*
X043133Y063194D01*
X043083Y063144D01*
X042983Y063144D01*
X042966Y063146D01*
X042949Y063150D01*
X042933Y063157D01*
X042919Y063167D01*
X042906Y063180D01*
X042896Y063194D01*
X042889Y063210D01*
X042885Y063227D01*
X042883Y063244D01*
X042883Y063744D02*
X042885Y063761D01*
X042889Y063778D01*
X042896Y063794D01*
X042906Y063808D01*
X042919Y063821D01*
X042933Y063831D01*
X042949Y063838D01*
X042966Y063842D01*
X042983Y063844D01*
X044944Y063348D02*
X044944Y064648D01*
X044946Y064674D01*
X044951Y064700D01*
X044959Y064725D01*
X044971Y064748D01*
X044985Y064770D01*
X045003Y064789D01*
X045022Y064807D01*
X045044Y064821D01*
X045067Y064833D01*
X045092Y064841D01*
X045118Y064846D01*
X045144Y064848D01*
X045644Y064848D01*
X045670Y064846D01*
X045696Y064841D01*
X045721Y064833D01*
X045744Y064821D01*
X045766Y064807D01*
X045785Y064789D01*
X045803Y064770D01*
X045817Y064748D01*
X045829Y064725D01*
X045837Y064700D01*
X045842Y064674D01*
X045844Y064648D01*
X045844Y063348D01*
X045842Y063322D01*
X045837Y063296D01*
X045829Y063271D01*
X045817Y063248D01*
X045803Y063226D01*
X045785Y063207D01*
X045766Y063189D01*
X045744Y063175D01*
X045721Y063163D01*
X045696Y063155D01*
X045670Y063150D01*
X045644Y063148D01*
X045144Y063148D01*
X045118Y063150D01*
X045092Y063155D01*
X045067Y063163D01*
X045044Y063175D01*
X045022Y063189D01*
X045003Y063207D01*
X044985Y063226D01*
X044971Y063248D01*
X044959Y063271D01*
X044951Y063296D01*
X044946Y063322D01*
X044944Y063348D01*
X054819Y067968D02*
X054919Y067968D01*
X054969Y068018D01*
X055869Y068018D01*
X055919Y067968D01*
X056019Y067968D01*
X056036Y067970D01*
X056053Y067974D01*
X056069Y067981D01*
X056083Y067991D01*
X056096Y068004D01*
X056106Y068018D01*
X056113Y068034D01*
X056117Y068051D01*
X056119Y068068D01*
X056119Y068568D02*
X056117Y068585D01*
X056113Y068602D01*
X056106Y068618D01*
X056096Y068632D01*
X056083Y068645D01*
X056069Y068655D01*
X056053Y068662D01*
X056036Y068666D01*
X056019Y068668D01*
X055919Y068668D01*
X055869Y068618D01*
X054969Y068618D01*
X054919Y068668D01*
X054819Y068668D01*
X054802Y068666D01*
X054785Y068662D01*
X054769Y068655D01*
X054755Y068645D01*
X054742Y068632D01*
X054732Y068618D01*
X054725Y068602D01*
X054721Y068585D01*
X054719Y068568D01*
X054719Y068068D02*
X054721Y068051D01*
X054725Y068034D01*
X054732Y068018D01*
X054742Y068004D01*
X054755Y067991D01*
X054769Y067981D01*
X054785Y067974D01*
X054802Y067970D01*
X054819Y067968D01*
X056801Y068188D02*
X056801Y069488D01*
X056803Y069514D01*
X056808Y069540D01*
X056816Y069565D01*
X056828Y069588D01*
X056842Y069610D01*
X056860Y069629D01*
X056879Y069647D01*
X056901Y069661D01*
X056924Y069673D01*
X056949Y069681D01*
X056975Y069686D01*
X057001Y069688D01*
X057501Y069688D01*
X057527Y069686D01*
X057553Y069681D01*
X057578Y069673D01*
X057601Y069661D01*
X057623Y069647D01*
X057642Y069629D01*
X057660Y069610D01*
X057674Y069588D01*
X057686Y069565D01*
X057694Y069540D01*
X057699Y069514D01*
X057701Y069488D01*
X057701Y068188D01*
X057699Y068162D01*
X057694Y068136D01*
X057686Y068111D01*
X057674Y068088D01*
X057660Y068066D01*
X057642Y068047D01*
X057623Y068029D01*
X057601Y068015D01*
X057578Y068003D01*
X057553Y067995D01*
X057527Y067990D01*
X057501Y067988D01*
X057001Y067988D01*
X056975Y067990D01*
X056949Y067995D01*
X056924Y068003D01*
X056901Y068015D01*
X056879Y068029D01*
X056860Y068047D01*
X056842Y068066D01*
X056828Y068088D01*
X056816Y068111D01*
X056808Y068136D01*
X056803Y068162D01*
X056801Y068188D01*
X058024Y062500D02*
X058024Y061500D01*
X058024Y061260D01*
X058024Y060400D01*
X058024Y061260D02*
X058045Y061262D01*
X058065Y061267D01*
X058084Y061276D01*
X058101Y061288D01*
X058116Y061303D01*
X058128Y061320D01*
X058137Y061339D01*
X058142Y061359D01*
X058144Y061380D01*
X058142Y061401D01*
X058137Y061421D01*
X058128Y061440D01*
X058116Y061457D01*
X058101Y061472D01*
X058084Y061484D01*
X058065Y061493D01*
X058045Y061498D01*
X058024Y061500D01*
X064865Y054598D02*
X064865Y054098D01*
X064867Y054072D01*
X064872Y054046D01*
X064880Y054021D01*
X064892Y053998D01*
X064906Y053976D01*
X064924Y053957D01*
X064943Y053939D01*
X064965Y053925D01*
X064988Y053913D01*
X065013Y053905D01*
X065039Y053900D01*
X065065Y053898D01*
X066365Y053898D01*
X066391Y053900D01*
X066417Y053905D01*
X066442Y053913D01*
X066465Y053925D01*
X066487Y053939D01*
X066506Y053957D01*
X066524Y053976D01*
X066538Y053998D01*
X066550Y054021D01*
X066558Y054046D01*
X066563Y054072D01*
X066565Y054098D01*
X066565Y054598D01*
X066563Y054624D01*
X066558Y054650D01*
X066550Y054675D01*
X066538Y054698D01*
X066524Y054720D01*
X066506Y054739D01*
X066487Y054757D01*
X066465Y054771D01*
X066442Y054783D01*
X066417Y054791D01*
X066391Y054796D01*
X066365Y054798D01*
X065065Y054798D01*
X065039Y054796D01*
X065013Y054791D01*
X064988Y054783D01*
X064965Y054771D01*
X064943Y054757D01*
X064924Y054739D01*
X064906Y054720D01*
X064892Y054698D01*
X064880Y054675D01*
X064872Y054650D01*
X064867Y054624D01*
X064865Y054598D01*
X065561Y056443D02*
X067961Y056443D01*
X068017Y056445D01*
X068072Y056451D01*
X068127Y056460D01*
X068182Y056474D01*
X068235Y056491D01*
X068286Y056512D01*
X068337Y056537D01*
X068385Y056565D01*
X068431Y056596D01*
X068475Y056630D01*
X068517Y056668D01*
X068556Y056708D01*
X068591Y056750D01*
X068624Y056796D01*
X068654Y056843D01*
X068680Y056892D01*
X068703Y056943D01*
X068722Y056996D01*
X068737Y057049D01*
X068749Y057104D01*
X068757Y057159D01*
X068761Y057215D01*
X068761Y057271D01*
X068757Y057327D01*
X068749Y057382D01*
X068737Y057437D01*
X068722Y057490D01*
X068703Y057543D01*
X068680Y057594D01*
X068654Y057643D01*
X068624Y057690D01*
X068591Y057736D01*
X068556Y057778D01*
X068517Y057818D01*
X068475Y057856D01*
X068431Y057890D01*
X068385Y057921D01*
X068337Y057949D01*
X068286Y057974D01*
X068235Y057995D01*
X068182Y058012D01*
X068127Y058026D01*
X068072Y058035D01*
X068017Y058041D01*
X067961Y058043D01*
X065561Y058043D01*
X065505Y058041D01*
X065450Y058035D01*
X065395Y058026D01*
X065340Y058012D01*
X065287Y057995D01*
X065236Y057974D01*
X065185Y057949D01*
X065137Y057921D01*
X065091Y057890D01*
X065047Y057856D01*
X065005Y057818D01*
X064966Y057778D01*
X064931Y057736D01*
X064898Y057690D01*
X064868Y057643D01*
X064842Y057594D01*
X064819Y057543D01*
X064800Y057490D01*
X064785Y057437D01*
X064773Y057382D01*
X064765Y057327D01*
X064761Y057271D01*
X064761Y057215D01*
X064765Y057159D01*
X064773Y057104D01*
X064785Y057049D01*
X064800Y056996D01*
X064819Y056943D01*
X064842Y056892D01*
X064868Y056843D01*
X064898Y056796D01*
X064931Y056750D01*
X064966Y056708D01*
X065005Y056668D01*
X065047Y056630D01*
X065091Y056596D01*
X065137Y056565D01*
X065185Y056537D01*
X065236Y056512D01*
X065287Y056491D01*
X065340Y056474D01*
X065395Y056460D01*
X065450Y056451D01*
X065505Y056445D01*
X065561Y056443D01*
X066491Y056843D02*
X066491Y057243D01*
X066491Y057643D01*
X066641Y057643D02*
X066641Y056843D01*
X066891Y056843D01*
X066891Y057643D01*
X066641Y057643D01*
X067031Y057643D02*
X067031Y057243D01*
X067311Y057243D01*
X067031Y057243D02*
X067031Y056843D01*
X066491Y057243D02*
X066211Y057243D01*
X067805Y055003D02*
X069105Y055003D01*
X069131Y055001D01*
X069157Y054996D01*
X069182Y054988D01*
X069205Y054976D01*
X069227Y054962D01*
X069246Y054944D01*
X069264Y054925D01*
X069278Y054903D01*
X069290Y054880D01*
X069298Y054855D01*
X069303Y054829D01*
X069305Y054803D01*
X069305Y054303D01*
X069303Y054277D01*
X069298Y054251D01*
X069290Y054226D01*
X069278Y054203D01*
X069264Y054181D01*
X069246Y054162D01*
X069227Y054144D01*
X069205Y054130D01*
X069182Y054118D01*
X069157Y054110D01*
X069131Y054105D01*
X069105Y054103D01*
X067805Y054103D01*
X067779Y054105D01*
X067753Y054110D01*
X067728Y054118D01*
X067705Y054130D01*
X067683Y054144D01*
X067664Y054162D01*
X067646Y054181D01*
X067632Y054203D01*
X067620Y054226D01*
X067612Y054251D01*
X067607Y054277D01*
X067605Y054303D01*
X067605Y054803D01*
X067607Y054829D01*
X067612Y054855D01*
X067620Y054880D01*
X067632Y054903D01*
X067646Y054925D01*
X067664Y054944D01*
X067683Y054962D01*
X067705Y054976D01*
X067728Y054988D01*
X067753Y054996D01*
X067779Y055001D01*
X067805Y055003D01*
X069131Y056357D02*
X069731Y056357D01*
X069748Y056359D01*
X069765Y056363D01*
X069781Y056370D01*
X069795Y056380D01*
X069808Y056393D01*
X069818Y056407D01*
X069825Y056423D01*
X069829Y056440D01*
X069831Y056457D01*
X069831Y056607D01*
X069781Y056657D01*
X069781Y058057D01*
X069831Y058107D01*
X069831Y058257D01*
X069829Y058274D01*
X069825Y058291D01*
X069818Y058307D01*
X069808Y058321D01*
X069795Y058334D01*
X069781Y058344D01*
X069765Y058351D01*
X069748Y058355D01*
X069731Y058357D01*
X069131Y058357D01*
X069114Y058355D01*
X069097Y058351D01*
X069081Y058344D01*
X069067Y058334D01*
X069054Y058321D01*
X069044Y058307D01*
X069037Y058291D01*
X069033Y058274D01*
X069031Y058257D01*
X069031Y058107D01*
X069081Y058057D01*
X069081Y056657D01*
X069031Y056607D01*
X069031Y056457D01*
X069033Y056440D01*
X069037Y056423D01*
X069044Y056407D01*
X069054Y056393D01*
X069067Y056380D01*
X069081Y056370D01*
X069097Y056363D01*
X069114Y056359D01*
X069131Y056357D01*
X071724Y060260D02*
X071724Y062500D01*
X067734Y064364D02*
X067734Y064514D01*
X067684Y064564D01*
X067684Y065964D01*
X067734Y066014D01*
X067734Y066164D01*
X067732Y066181D01*
X067728Y066198D01*
X067721Y066214D01*
X067711Y066228D01*
X067698Y066241D01*
X067684Y066251D01*
X067668Y066258D01*
X067651Y066262D01*
X067634Y066264D01*
X067034Y066264D01*
X067017Y066262D01*
X067000Y066258D01*
X066984Y066251D01*
X066970Y066241D01*
X066957Y066228D01*
X066947Y066214D01*
X066940Y066198D01*
X066936Y066181D01*
X066934Y066164D01*
X066934Y066014D01*
X066984Y065964D01*
X066984Y064564D01*
X066934Y064514D01*
X066934Y064364D01*
X066936Y064347D01*
X066940Y064330D01*
X066947Y064314D01*
X066957Y064300D01*
X066970Y064287D01*
X066984Y064277D01*
X067000Y064270D01*
X067017Y064266D01*
X067034Y064264D01*
X067634Y064264D01*
X067651Y064266D01*
X067668Y064270D01*
X067684Y064277D01*
X067698Y064287D01*
X067711Y064300D01*
X067721Y064314D01*
X067728Y064330D01*
X067732Y064347D01*
X067734Y064364D01*
X064471Y065220D02*
X064473Y065283D01*
X064479Y065345D01*
X064489Y065407D01*
X064502Y065469D01*
X064520Y065529D01*
X064541Y065588D01*
X064566Y065646D01*
X064595Y065702D01*
X064627Y065756D01*
X064662Y065808D01*
X064700Y065857D01*
X064742Y065905D01*
X064786Y065949D01*
X064834Y065991D01*
X064883Y066029D01*
X064935Y066064D01*
X064989Y066096D01*
X065045Y066125D01*
X065103Y066150D01*
X065162Y066171D01*
X065222Y066189D01*
X065284Y066202D01*
X065346Y066212D01*
X065408Y066218D01*
X065471Y066220D01*
X065534Y066218D01*
X065596Y066212D01*
X065658Y066202D01*
X065720Y066189D01*
X065780Y066171D01*
X065839Y066150D01*
X065897Y066125D01*
X065953Y066096D01*
X066007Y066064D01*
X066059Y066029D01*
X066108Y065991D01*
X066156Y065949D01*
X066200Y065905D01*
X066242Y065857D01*
X066280Y065808D01*
X066315Y065756D01*
X066347Y065702D01*
X066376Y065646D01*
X066401Y065588D01*
X066422Y065529D01*
X066440Y065469D01*
X066453Y065407D01*
X066463Y065345D01*
X066469Y065283D01*
X066471Y065220D01*
X066469Y065157D01*
X066463Y065095D01*
X066453Y065033D01*
X066440Y064971D01*
X066422Y064911D01*
X066401Y064852D01*
X066376Y064794D01*
X066347Y064738D01*
X066315Y064684D01*
X066280Y064632D01*
X066242Y064583D01*
X066200Y064535D01*
X066156Y064491D01*
X066108Y064449D01*
X066059Y064411D01*
X066007Y064376D01*
X065953Y064344D01*
X065897Y064315D01*
X065839Y064290D01*
X065780Y064269D01*
X065720Y064251D01*
X065658Y064238D01*
X065596Y064228D01*
X065534Y064222D01*
X065471Y064220D01*
X065408Y064222D01*
X065346Y064228D01*
X065284Y064238D01*
X065222Y064251D01*
X065162Y064269D01*
X065103Y064290D01*
X065045Y064315D01*
X064989Y064344D01*
X064935Y064376D01*
X064883Y064411D01*
X064834Y064449D01*
X064786Y064491D01*
X064742Y064535D01*
X064700Y064583D01*
X064662Y064632D01*
X064627Y064684D01*
X064595Y064738D01*
X064566Y064794D01*
X064541Y064852D01*
X064520Y064911D01*
X064502Y064971D01*
X064489Y065033D01*
X064479Y065095D01*
X064473Y065157D01*
X064471Y065220D01*
X069705Y071242D02*
X069322Y071564D01*
X069321Y071564D02*
X069303Y071582D01*
X069286Y071602D01*
X069273Y071625D01*
X069262Y071649D01*
X069255Y071674D01*
X069251Y071700D01*
X069250Y071726D01*
X069253Y071752D01*
X069259Y071777D01*
X069269Y071802D01*
X069281Y071824D01*
X069297Y071846D01*
X069297Y071845D02*
X070133Y072841D01*
X070133Y072842D02*
X070151Y072860D01*
X070171Y072877D01*
X070194Y072890D01*
X070218Y072901D01*
X070243Y072908D01*
X070269Y072912D01*
X070295Y072913D01*
X070321Y072910D01*
X070346Y072904D01*
X070371Y072894D01*
X070393Y072882D01*
X070415Y072866D01*
X070798Y072544D01*
X070816Y072526D01*
X070833Y072506D01*
X070846Y072483D01*
X070857Y072459D01*
X070864Y072434D01*
X070868Y072408D01*
X070869Y072382D01*
X070866Y072356D01*
X070860Y072331D01*
X070850Y072306D01*
X070838Y072284D01*
X070822Y072262D01*
X070822Y072263D02*
X069987Y071267D01*
X069986Y071266D02*
X069968Y071248D01*
X069948Y071231D01*
X069925Y071218D01*
X069901Y071207D01*
X069876Y071200D01*
X069850Y071196D01*
X069824Y071195D01*
X069798Y071198D01*
X069773Y071204D01*
X069748Y071214D01*
X069726Y071226D01*
X069704Y071242D01*
X068402Y072198D02*
X068389Y072185D01*
X068375Y072175D01*
X068359Y072168D01*
X068342Y072164D01*
X068325Y072162D01*
X068308Y072164D01*
X068291Y072168D01*
X068275Y072175D01*
X068261Y072185D01*
X068184Y072249D01*
X068178Y072320D01*
X067489Y072898D01*
X067418Y072892D01*
X067342Y072957D01*
X067342Y072956D02*
X067328Y072970D01*
X067317Y072987D01*
X067310Y073005D01*
X067306Y073024D01*
X067307Y073044D01*
X067311Y073063D01*
X067318Y073081D01*
X067329Y073097D01*
X067650Y073480D02*
X067664Y073494D01*
X067681Y073505D01*
X067699Y073512D01*
X067718Y073516D01*
X067738Y073515D01*
X067757Y073511D01*
X067775Y073504D01*
X067791Y073493D01*
X067868Y073428D01*
X067874Y073358D01*
X068564Y072780D01*
X068634Y072786D01*
X068711Y072721D01*
X068710Y072722D02*
X068723Y072709D01*
X068733Y072695D01*
X068740Y072679D01*
X068744Y072662D01*
X068746Y072645D01*
X068744Y072628D01*
X068740Y072611D01*
X068733Y072595D01*
X068723Y072581D01*
X077647Y060025D02*
X077689Y059934D01*
X077755Y059910D01*
X078136Y059094D01*
X078112Y059028D01*
X078154Y058937D01*
X078153Y058937D02*
X078162Y058922D01*
X078173Y058908D01*
X078187Y058897D01*
X078202Y058888D01*
X078218Y058882D01*
X078235Y058879D01*
X078253Y058879D01*
X078270Y058882D01*
X078286Y058888D01*
X078740Y059100D02*
X078757Y059110D01*
X078772Y059123D01*
X078783Y059139D01*
X078792Y059157D01*
X078797Y059176D01*
X078798Y059195D01*
X078795Y059215D01*
X078789Y059233D01*
X078788Y059233D02*
X078746Y059323D01*
X078680Y059348D01*
X078299Y060163D01*
X078323Y060230D01*
X078281Y060320D01*
X078272Y060335D01*
X078261Y060349D01*
X078247Y060360D01*
X078232Y060369D01*
X078216Y060375D01*
X078199Y060378D01*
X078181Y060378D01*
X078164Y060375D01*
X078148Y060369D01*
X077695Y060158D02*
X077680Y060149D01*
X077666Y060138D01*
X077655Y060124D01*
X077646Y060109D01*
X077640Y060093D01*
X077637Y060076D01*
X077637Y060058D01*
X077640Y060041D01*
X077646Y060025D01*
X078831Y058279D02*
X080009Y058828D01*
X080008Y058828D02*
X080033Y058838D01*
X080058Y058844D01*
X080084Y058847D01*
X080110Y058846D01*
X080136Y058842D01*
X080161Y058835D01*
X080185Y058824D01*
X080208Y058811D01*
X080228Y058794D01*
X080246Y058776D01*
X080262Y058754D01*
X080274Y058732D01*
X080275Y058731D02*
X080486Y058278D01*
X080486Y058279D02*
X080496Y058254D01*
X080502Y058229D01*
X080505Y058203D01*
X080504Y058177D01*
X080500Y058151D01*
X080493Y058126D01*
X080482Y058102D01*
X080469Y058079D01*
X080452Y058059D01*
X080434Y058041D01*
X080412Y058025D01*
X080390Y058013D01*
X080389Y058012D02*
X079211Y057463D01*
X079186Y057453D01*
X079161Y057447D01*
X079135Y057444D01*
X079109Y057445D01*
X079083Y057449D01*
X079058Y057456D01*
X079034Y057467D01*
X079011Y057480D01*
X078991Y057497D01*
X078973Y057515D01*
X078957Y057537D01*
X078945Y057559D01*
X078945Y057560D02*
X078734Y058013D01*
X078734Y058012D02*
X078724Y058037D01*
X078718Y058062D01*
X078715Y058088D01*
X078716Y058114D01*
X078720Y058140D01*
X078727Y058165D01*
X078738Y058189D01*
X078751Y058212D01*
X078768Y058232D01*
X078786Y058250D01*
X078808Y058266D01*
X078830Y058278D01*
X081272Y044223D02*
X081272Y044123D01*
X081322Y044073D01*
X081322Y043173D01*
X081272Y043123D01*
X081272Y043023D01*
X081274Y043006D01*
X081278Y042989D01*
X081285Y042973D01*
X081295Y042959D01*
X081308Y042946D01*
X081322Y042936D01*
X081338Y042929D01*
X081355Y042925D01*
X081372Y042923D01*
X081872Y042923D02*
X081889Y042925D01*
X081906Y042929D01*
X081922Y042936D01*
X081936Y042946D01*
X081949Y042959D01*
X081959Y042973D01*
X081966Y042989D01*
X081970Y043006D01*
X081972Y043023D01*
X081972Y043123D01*
X081922Y043173D01*
X081922Y044073D01*
X081972Y044123D01*
X081972Y044223D01*
X081970Y044240D01*
X081966Y044257D01*
X081959Y044273D01*
X081949Y044287D01*
X081936Y044300D01*
X081922Y044310D01*
X081906Y044317D01*
X081889Y044321D01*
X081872Y044323D01*
X081372Y044323D02*
X081355Y044321D01*
X081338Y044317D01*
X081322Y044310D01*
X081308Y044300D01*
X081295Y044287D01*
X081285Y044273D01*
X081278Y044257D01*
X081274Y044240D01*
X081272Y044223D01*
X077871Y028225D02*
X077829Y028134D01*
X077853Y028068D01*
X077473Y027252D01*
X077407Y027228D01*
X077364Y027137D01*
X077358Y027119D01*
X077355Y027099D01*
X077356Y027080D01*
X077361Y027061D01*
X077370Y027043D01*
X077381Y027027D01*
X077396Y027014D01*
X077413Y027004D01*
X077866Y026792D02*
X077882Y026786D01*
X077899Y026783D01*
X077917Y026783D01*
X077934Y026786D01*
X077950Y026792D01*
X077965Y026801D01*
X077979Y026812D01*
X077990Y026826D01*
X077999Y026841D01*
X078041Y026932D01*
X078017Y026998D01*
X078397Y027814D01*
X078464Y027838D01*
X078506Y027929D01*
X078512Y027947D01*
X078515Y027967D01*
X078514Y027986D01*
X078509Y028005D01*
X078500Y028023D01*
X078489Y028039D01*
X078474Y028052D01*
X078457Y028062D01*
X078004Y028273D02*
X077988Y028279D01*
X077971Y028282D01*
X077953Y028282D01*
X077936Y028279D01*
X077920Y028273D01*
X077905Y028264D01*
X077891Y028253D01*
X077880Y028239D01*
X077871Y028224D01*
X077238Y026234D02*
X078416Y025685D01*
X078417Y025684D02*
X078439Y025672D01*
X078461Y025656D01*
X078479Y025638D01*
X078496Y025618D01*
X078509Y025595D01*
X078520Y025571D01*
X078527Y025546D01*
X078531Y025520D01*
X078532Y025494D01*
X078529Y025468D01*
X078523Y025443D01*
X078513Y025418D01*
X078513Y025419D02*
X078302Y024966D01*
X078301Y024965D02*
X078289Y024943D01*
X078273Y024921D01*
X078255Y024903D01*
X078235Y024886D01*
X078212Y024873D01*
X078188Y024862D01*
X078163Y024855D01*
X078137Y024851D01*
X078111Y024850D01*
X078085Y024853D01*
X078060Y024859D01*
X078035Y024869D01*
X078036Y024869D02*
X076858Y025418D01*
X076857Y025419D02*
X076835Y025431D01*
X076813Y025447D01*
X076795Y025465D01*
X076778Y025485D01*
X076765Y025508D01*
X076754Y025532D01*
X076747Y025557D01*
X076743Y025583D01*
X076742Y025609D01*
X076745Y025635D01*
X076751Y025660D01*
X076761Y025685D01*
X076761Y025684D02*
X076972Y026137D01*
X076972Y026138D02*
X076984Y026160D01*
X077000Y026182D01*
X077018Y026200D01*
X077038Y026217D01*
X077061Y026230D01*
X077085Y026241D01*
X077110Y026248D01*
X077136Y026252D01*
X077162Y026253D01*
X077188Y026250D01*
X077213Y026244D01*
X077238Y026234D01*
X068257Y015011D02*
X068180Y014947D01*
X068174Y014877D01*
X067485Y014298D01*
X067414Y014304D01*
X067338Y014240D01*
X067325Y014227D01*
X067315Y014213D01*
X067308Y014197D01*
X067304Y014180D01*
X067302Y014163D01*
X067304Y014146D01*
X067308Y014129D01*
X067315Y014113D01*
X067325Y014099D01*
X067646Y013716D02*
X067659Y013703D01*
X067673Y013693D01*
X067689Y013686D01*
X067706Y013682D01*
X067723Y013680D01*
X067740Y013682D01*
X067757Y013686D01*
X067773Y013693D01*
X067787Y013703D01*
X067788Y013704D02*
X067864Y013768D01*
X067870Y013839D01*
X068560Y014417D01*
X068630Y014411D01*
X068707Y014475D01*
X068720Y014488D01*
X068730Y014502D01*
X068737Y014518D01*
X068741Y014535D01*
X068743Y014552D01*
X068741Y014569D01*
X068737Y014586D01*
X068730Y014602D01*
X068720Y014616D01*
X068398Y014999D02*
X068385Y015012D01*
X068371Y015022D01*
X068355Y015029D01*
X068338Y015033D01*
X068321Y015035D01*
X068304Y015033D01*
X068287Y015029D01*
X068271Y015022D01*
X068257Y015012D01*
X066881Y013550D02*
X067717Y012554D01*
X067717Y012555D02*
X067733Y012533D01*
X067745Y012511D01*
X067755Y012486D01*
X067761Y012461D01*
X067764Y012435D01*
X067763Y012409D01*
X067759Y012383D01*
X067752Y012358D01*
X067741Y012334D01*
X067728Y012311D01*
X067711Y012291D01*
X067693Y012273D01*
X067692Y012273D02*
X067309Y011951D01*
X067310Y011951D02*
X067288Y011935D01*
X067266Y011923D01*
X067241Y011913D01*
X067216Y011907D01*
X067190Y011904D01*
X067164Y011905D01*
X067138Y011909D01*
X067113Y011916D01*
X067089Y011927D01*
X067066Y011940D01*
X067046Y011957D01*
X067028Y011975D01*
X067028Y011976D02*
X066192Y012972D01*
X066192Y012971D02*
X066176Y012993D01*
X066164Y013015D01*
X066154Y013040D01*
X066148Y013065D01*
X066145Y013091D01*
X066146Y013117D01*
X066150Y013143D01*
X066157Y013168D01*
X066168Y013192D01*
X066181Y013215D01*
X066198Y013235D01*
X066216Y013253D01*
X066217Y013254D02*
X066600Y013575D01*
X066599Y013575D02*
X066621Y013591D01*
X066643Y013603D01*
X066668Y013613D01*
X066693Y013619D01*
X066719Y013622D01*
X066745Y013621D01*
X066771Y013617D01*
X066796Y013610D01*
X066820Y013599D01*
X066843Y013586D01*
X066863Y013569D01*
X066881Y013551D01*
X052101Y006636D02*
X052001Y006636D01*
X051951Y006586D01*
X051051Y006586D01*
X051001Y006636D01*
X050901Y006636D01*
X050884Y006634D01*
X050867Y006630D01*
X050851Y006623D01*
X050837Y006613D01*
X050824Y006600D01*
X050814Y006586D01*
X050807Y006570D01*
X050803Y006553D01*
X050801Y006536D01*
X050801Y006036D02*
X050803Y006019D01*
X050807Y006002D01*
X050814Y005986D01*
X050824Y005972D01*
X050837Y005959D01*
X050851Y005949D01*
X050867Y005942D01*
X050884Y005938D01*
X050901Y005936D01*
X051001Y005936D01*
X051051Y005986D01*
X051951Y005986D01*
X052001Y005936D01*
X052101Y005936D01*
X052118Y005938D01*
X052135Y005942D01*
X052151Y005949D01*
X052165Y005959D01*
X052178Y005972D01*
X052188Y005986D01*
X052195Y006002D01*
X052199Y006019D01*
X052201Y006036D01*
X052201Y006536D02*
X052199Y006553D01*
X052195Y006570D01*
X052188Y006586D01*
X052178Y006600D01*
X052165Y006613D01*
X052151Y006623D01*
X052135Y006630D01*
X052118Y006634D01*
X052101Y006636D01*
X050116Y006551D02*
X050116Y005251D01*
X050114Y005225D01*
X050109Y005199D01*
X050101Y005174D01*
X050089Y005151D01*
X050075Y005129D01*
X050057Y005110D01*
X050038Y005092D01*
X050016Y005078D01*
X049993Y005066D01*
X049968Y005058D01*
X049942Y005053D01*
X049916Y005051D01*
X049416Y005051D01*
X049390Y005053D01*
X049364Y005058D01*
X049339Y005066D01*
X049316Y005078D01*
X049294Y005092D01*
X049275Y005110D01*
X049257Y005129D01*
X049243Y005151D01*
X049231Y005174D01*
X049223Y005199D01*
X049218Y005225D01*
X049216Y005251D01*
X049216Y006551D01*
X049218Y006577D01*
X049223Y006603D01*
X049231Y006628D01*
X049243Y006651D01*
X049257Y006673D01*
X049275Y006692D01*
X049294Y006710D01*
X049316Y006724D01*
X049339Y006736D01*
X049364Y006744D01*
X049390Y006749D01*
X049416Y006751D01*
X049916Y006751D01*
X049942Y006749D01*
X049968Y006744D01*
X049993Y006736D01*
X050016Y006724D01*
X050038Y006710D01*
X050057Y006692D01*
X050075Y006673D01*
X050089Y006651D01*
X050101Y006628D01*
X050109Y006603D01*
X050114Y006577D01*
X050116Y006551D01*
X036482Y006596D02*
X036480Y006613D01*
X036476Y006630D01*
X036469Y006646D01*
X036459Y006660D01*
X036446Y006673D01*
X036432Y006683D01*
X036416Y006690D01*
X036399Y006694D01*
X036382Y006696D01*
X036282Y006696D01*
X036232Y006646D01*
X035332Y006646D01*
X035282Y006696D01*
X035182Y006696D01*
X035165Y006694D01*
X035148Y006690D01*
X035132Y006683D01*
X035118Y006673D01*
X035105Y006660D01*
X035095Y006646D01*
X035088Y006630D01*
X035084Y006613D01*
X035082Y006596D01*
X035082Y006096D02*
X035084Y006079D01*
X035088Y006062D01*
X035095Y006046D01*
X035105Y006032D01*
X035118Y006019D01*
X035132Y006009D01*
X035148Y006002D01*
X035165Y005998D01*
X035182Y005996D01*
X035282Y005996D01*
X035332Y006046D01*
X036232Y006046D01*
X036282Y005996D01*
X036382Y005996D01*
X036399Y005998D01*
X036416Y006002D01*
X036432Y006009D01*
X036446Y006019D01*
X036459Y006032D01*
X036469Y006046D01*
X036476Y006062D01*
X036480Y006079D01*
X036482Y006096D01*
X034393Y006596D02*
X034393Y005296D01*
X034391Y005270D01*
X034386Y005244D01*
X034378Y005219D01*
X034366Y005196D01*
X034352Y005174D01*
X034334Y005155D01*
X034315Y005137D01*
X034293Y005123D01*
X034270Y005111D01*
X034245Y005103D01*
X034219Y005098D01*
X034193Y005096D01*
X033693Y005096D01*
X033667Y005098D01*
X033641Y005103D01*
X033616Y005111D01*
X033593Y005123D01*
X033571Y005137D01*
X033552Y005155D01*
X033534Y005174D01*
X033520Y005196D01*
X033508Y005219D01*
X033500Y005244D01*
X033495Y005270D01*
X033493Y005296D01*
X033493Y006596D01*
X033495Y006622D01*
X033500Y006648D01*
X033508Y006673D01*
X033520Y006696D01*
X033534Y006718D01*
X033552Y006737D01*
X033571Y006755D01*
X033593Y006769D01*
X033616Y006781D01*
X033641Y006789D01*
X033667Y006794D01*
X033693Y006796D01*
X034193Y006796D01*
X034219Y006794D01*
X034245Y006789D01*
X034270Y006781D01*
X034293Y006769D01*
X034315Y006755D01*
X034334Y006737D01*
X034352Y006718D01*
X034366Y006696D01*
X034378Y006673D01*
X034386Y006648D01*
X034391Y006622D01*
X034393Y006596D01*
X034612Y026973D02*
X034612Y027273D01*
X034762Y027123D02*
X034462Y027123D01*
X034162Y027623D02*
X034164Y027686D01*
X034170Y027748D01*
X034180Y027810D01*
X034193Y027872D01*
X034211Y027932D01*
X034232Y027991D01*
X034257Y028049D01*
X034286Y028105D01*
X034318Y028159D01*
X034353Y028211D01*
X034391Y028260D01*
X034433Y028308D01*
X034477Y028352D01*
X034525Y028394D01*
X034574Y028432D01*
X034626Y028467D01*
X034680Y028499D01*
X034736Y028528D01*
X034794Y028553D01*
X034853Y028574D01*
X034913Y028592D01*
X034975Y028605D01*
X035037Y028615D01*
X035099Y028621D01*
X035162Y028623D01*
X035225Y028621D01*
X035287Y028615D01*
X035349Y028605D01*
X035411Y028592D01*
X035471Y028574D01*
X035530Y028553D01*
X035588Y028528D01*
X035644Y028499D01*
X035698Y028467D01*
X035750Y028432D01*
X035799Y028394D01*
X035847Y028352D01*
X035891Y028308D01*
X035933Y028260D01*
X035971Y028211D01*
X036006Y028159D01*
X036038Y028105D01*
X036067Y028049D01*
X036092Y027991D01*
X036113Y027932D01*
X036131Y027872D01*
X036144Y027810D01*
X036154Y027748D01*
X036160Y027686D01*
X036162Y027623D01*
X036160Y027560D01*
X036154Y027498D01*
X036144Y027436D01*
X036131Y027374D01*
X036113Y027314D01*
X036092Y027255D01*
X036067Y027197D01*
X036038Y027141D01*
X036006Y027087D01*
X035971Y027035D01*
X035933Y026986D01*
X035891Y026938D01*
X035847Y026894D01*
X035799Y026852D01*
X035750Y026814D01*
X035698Y026779D01*
X035644Y026747D01*
X035588Y026718D01*
X035530Y026693D01*
X035471Y026672D01*
X035411Y026654D01*
X035349Y026641D01*
X035287Y026631D01*
X035225Y026625D01*
X035162Y026623D01*
X035099Y026625D01*
X035037Y026631D01*
X034975Y026641D01*
X034913Y026654D01*
X034853Y026672D01*
X034794Y026693D01*
X034736Y026718D01*
X034680Y026747D01*
X034626Y026779D01*
X034574Y026814D01*
X034525Y026852D01*
X034477Y026894D01*
X034433Y026938D01*
X034391Y026986D01*
X034353Y027035D01*
X034318Y027087D01*
X034286Y027141D01*
X034257Y027197D01*
X034232Y027255D01*
X034211Y027314D01*
X034193Y027374D01*
X034180Y027436D01*
X034170Y027498D01*
X034164Y027560D01*
X034162Y027623D01*
X033771Y030225D02*
X033773Y030288D01*
X033779Y030350D01*
X033789Y030412D01*
X033802Y030474D01*
X033820Y030534D01*
X033841Y030593D01*
X033866Y030651D01*
X033895Y030707D01*
X033927Y030761D01*
X033962Y030813D01*
X034000Y030862D01*
X034042Y030910D01*
X034086Y030954D01*
X034134Y030996D01*
X034183Y031034D01*
X034235Y031069D01*
X034289Y031101D01*
X034345Y031130D01*
X034403Y031155D01*
X034462Y031176D01*
X034522Y031194D01*
X034584Y031207D01*
X034646Y031217D01*
X034708Y031223D01*
X034771Y031225D01*
X034834Y031223D01*
X034896Y031217D01*
X034958Y031207D01*
X035020Y031194D01*
X035080Y031176D01*
X035139Y031155D01*
X035197Y031130D01*
X035253Y031101D01*
X035307Y031069D01*
X035359Y031034D01*
X035408Y030996D01*
X035456Y030954D01*
X035500Y030910D01*
X035542Y030862D01*
X035580Y030813D01*
X035615Y030761D01*
X035647Y030707D01*
X035676Y030651D01*
X035701Y030593D01*
X035722Y030534D01*
X035740Y030474D01*
X035753Y030412D01*
X035763Y030350D01*
X035769Y030288D01*
X035771Y030225D01*
X035769Y030162D01*
X035763Y030100D01*
X035753Y030038D01*
X035740Y029976D01*
X035722Y029916D01*
X035701Y029857D01*
X035676Y029799D01*
X035647Y029743D01*
X035615Y029689D01*
X035580Y029637D01*
X035542Y029588D01*
X035500Y029540D01*
X035456Y029496D01*
X035408Y029454D01*
X035359Y029416D01*
X035307Y029381D01*
X035253Y029349D01*
X035197Y029320D01*
X035139Y029295D01*
X035080Y029274D01*
X035020Y029256D01*
X034958Y029243D01*
X034896Y029233D01*
X034834Y029227D01*
X034771Y029225D01*
X034708Y029227D01*
X034646Y029233D01*
X034584Y029243D01*
X034522Y029256D01*
X034462Y029274D01*
X034403Y029295D01*
X034345Y029320D01*
X034289Y029349D01*
X034235Y029381D01*
X034183Y029416D01*
X034134Y029454D01*
X034086Y029496D01*
X034042Y029540D01*
X034000Y029588D01*
X033962Y029637D01*
X033927Y029689D01*
X033895Y029743D01*
X033866Y029799D01*
X033841Y029857D01*
X033820Y029916D01*
X033802Y029976D01*
X033789Y030038D01*
X033779Y030100D01*
X033773Y030162D01*
X033771Y030225D01*
X034271Y030625D02*
X034271Y030925D01*
X034421Y030775D02*
X034121Y030775D01*
X035631Y033553D02*
X036296Y034217D01*
X038134Y036056D01*
X035356Y038835D01*
X035412Y038891D01*
X038191Y036112D01*
X038134Y036056D01*
X036874Y036381D02*
X036876Y036409D01*
X036882Y036436D01*
X036891Y036462D01*
X036904Y036487D01*
X036921Y036510D01*
X036940Y036530D01*
X036962Y036547D01*
X036986Y036561D01*
X037012Y036571D01*
X037039Y036578D01*
X037067Y036581D01*
X037095Y036580D01*
X037122Y036575D01*
X037149Y036566D01*
X037174Y036554D01*
X037197Y036539D01*
X037218Y036520D01*
X037236Y036499D01*
X037251Y036475D01*
X037262Y036449D01*
X037270Y036423D01*
X037274Y036395D01*
X037274Y036367D01*
X037270Y036339D01*
X037262Y036313D01*
X037251Y036287D01*
X037236Y036263D01*
X037218Y036242D01*
X037197Y036223D01*
X037174Y036208D01*
X037149Y036196D01*
X037122Y036187D01*
X037095Y036182D01*
X037067Y036181D01*
X037039Y036184D01*
X037012Y036191D01*
X036986Y036201D01*
X036962Y036215D01*
X036940Y036232D01*
X036921Y036252D01*
X036904Y036275D01*
X036891Y036300D01*
X036882Y036326D01*
X036876Y036353D01*
X036874Y036381D01*
X035481Y037774D02*
X035483Y037802D01*
X035489Y037829D01*
X035498Y037855D01*
X035511Y037880D01*
X035528Y037903D01*
X035547Y037923D01*
X035569Y037940D01*
X035593Y037954D01*
X035619Y037964D01*
X035646Y037971D01*
X035674Y037974D01*
X035702Y037973D01*
X035729Y037968D01*
X035756Y037959D01*
X035781Y037947D01*
X035804Y037932D01*
X035825Y037913D01*
X035843Y037892D01*
X035858Y037868D01*
X035869Y037842D01*
X035877Y037816D01*
X035881Y037788D01*
X035881Y037760D01*
X035877Y037732D01*
X035869Y037706D01*
X035858Y037680D01*
X035843Y037656D01*
X035825Y037635D01*
X035804Y037616D01*
X035781Y037601D01*
X035756Y037589D01*
X035729Y037580D01*
X035702Y037575D01*
X035674Y037574D01*
X035646Y037577D01*
X035619Y037584D01*
X035593Y037594D01*
X035569Y037608D01*
X035547Y037625D01*
X035528Y037645D01*
X035511Y037668D01*
X035498Y037693D01*
X035489Y037719D01*
X035483Y037746D01*
X035481Y037774D01*
X035356Y038835D02*
X033517Y036996D01*
X033963Y036551D01*
X033517Y036996D02*
X032852Y036331D01*
X035631Y033553D01*
X036296Y034217D02*
X035851Y034663D01*
X035356Y035158D02*
X034458Y036056D01*
X038513Y031401D02*
X043413Y031401D01*
X043413Y031051D01*
X044013Y031051D01*
X044013Y031401D01*
X044763Y031401D01*
X044763Y027301D01*
X044013Y027301D01*
X044013Y027651D01*
X043413Y027651D01*
X043413Y027301D01*
X038513Y027301D01*
X038513Y031401D01*
X042703Y029351D02*
X042705Y029404D01*
X042711Y029457D01*
X042721Y029509D01*
X042735Y029560D01*
X042752Y029610D01*
X042773Y029659D01*
X042798Y029706D01*
X042826Y029751D01*
X042858Y029794D01*
X042893Y029834D01*
X042930Y029871D01*
X042970Y029906D01*
X043013Y029938D01*
X043058Y029966D01*
X043105Y029991D01*
X043154Y030012D01*
X043204Y030029D01*
X043255Y030043D01*
X043307Y030053D01*
X043360Y030059D01*
X043413Y030061D01*
X043466Y030059D01*
X043519Y030053D01*
X043571Y030043D01*
X043622Y030029D01*
X043672Y030012D01*
X043721Y029991D01*
X043768Y029966D01*
X043813Y029938D01*
X043856Y029906D01*
X043896Y029871D01*
X043933Y029834D01*
X043968Y029794D01*
X044000Y029751D01*
X044028Y029706D01*
X044053Y029659D01*
X044074Y029610D01*
X044091Y029560D01*
X044105Y029509D01*
X044115Y029457D01*
X044121Y029404D01*
X044123Y029351D01*
X044121Y029298D01*
X044115Y029245D01*
X044105Y029193D01*
X044091Y029142D01*
X044074Y029092D01*
X044053Y029043D01*
X044028Y028996D01*
X044000Y028951D01*
X043968Y028908D01*
X043933Y028868D01*
X043896Y028831D01*
X043856Y028796D01*
X043813Y028764D01*
X043768Y028736D01*
X043721Y028711D01*
X043672Y028690D01*
X043622Y028673D01*
X043571Y028659D01*
X043519Y028649D01*
X043466Y028643D01*
X043413Y028641D01*
X043360Y028643D01*
X043307Y028649D01*
X043255Y028659D01*
X043204Y028673D01*
X043154Y028690D01*
X043105Y028711D01*
X043058Y028736D01*
X043013Y028764D01*
X042970Y028796D01*
X042930Y028831D01*
X042893Y028868D01*
X042858Y028908D01*
X042826Y028951D01*
X042798Y028996D01*
X042773Y029043D01*
X042752Y029092D01*
X042735Y029142D01*
X042721Y029193D01*
X042711Y029245D01*
X042705Y029298D01*
X042703Y029351D01*
X058240Y030019D02*
X058240Y030519D01*
X058490Y030769D01*
X059990Y030769D01*
X060240Y030519D01*
X060240Y030019D01*
X059990Y029769D01*
X058490Y029769D01*
X058240Y030019D01*
X058490Y030769D02*
X058240Y031019D01*
X058240Y031519D01*
X058490Y031769D01*
X059990Y031769D01*
X060240Y031519D01*
X060240Y031019D01*
X059990Y030769D01*
X059990Y031769D02*
X060240Y032019D01*
X060240Y032519D01*
X059990Y032769D01*
X058490Y032769D01*
X058240Y032519D01*
X058240Y032019D01*
X058490Y031769D01*
X019630Y072840D02*
X018940Y072262D01*
X018934Y072191D01*
X018857Y072127D01*
X018843Y072117D01*
X018827Y072110D01*
X018810Y072106D01*
X018793Y072104D01*
X018776Y072106D01*
X018759Y072110D01*
X018743Y072117D01*
X018729Y072127D01*
X018716Y072140D01*
X018395Y072523D02*
X018385Y072537D01*
X018378Y072553D01*
X018374Y072570D01*
X018372Y072587D01*
X018374Y072604D01*
X018378Y072621D01*
X018385Y072637D01*
X018395Y072651D01*
X018408Y072664D01*
X018407Y072663D02*
X018484Y072728D01*
X018555Y072721D01*
X019244Y073300D01*
X019250Y073370D01*
X019327Y073435D01*
X019341Y073445D01*
X019357Y073452D01*
X019374Y073456D01*
X019391Y073458D01*
X019408Y073456D01*
X019425Y073452D01*
X019441Y073445D01*
X019455Y073435D01*
X019468Y073422D01*
X019789Y073039D02*
X019799Y073025D01*
X019806Y073009D01*
X019810Y072992D01*
X019812Y072975D01*
X019810Y072958D01*
X019806Y072941D01*
X019799Y072925D01*
X019789Y072911D01*
X019776Y072898D01*
X019777Y072898D02*
X019700Y072834D01*
X019630Y072840D01*
X020184Y073605D02*
X019348Y074601D01*
X019349Y074600D02*
X019333Y074622D01*
X019321Y074644D01*
X019311Y074669D01*
X019305Y074694D01*
X019302Y074720D01*
X019303Y074746D01*
X019307Y074772D01*
X019314Y074797D01*
X019325Y074821D01*
X019338Y074844D01*
X019355Y074864D01*
X019373Y074882D01*
X019373Y074883D02*
X019756Y075204D01*
X019778Y075220D01*
X019800Y075232D01*
X019825Y075242D01*
X019850Y075248D01*
X019876Y075251D01*
X019902Y075250D01*
X019928Y075246D01*
X019953Y075239D01*
X019977Y075228D01*
X020000Y075215D01*
X020020Y075198D01*
X020038Y075180D01*
X020038Y075179D02*
X020874Y074184D01*
X020873Y074184D02*
X020889Y074162D01*
X020901Y074140D01*
X020911Y074115D01*
X020917Y074090D01*
X020920Y074064D01*
X020919Y074038D01*
X020915Y074012D01*
X020908Y073987D01*
X020897Y073963D01*
X020884Y073940D01*
X020867Y073920D01*
X020849Y073902D01*
X020466Y073580D01*
X020466Y073581D02*
X020444Y073565D01*
X020422Y073553D01*
X020397Y073543D01*
X020372Y073537D01*
X020346Y073534D01*
X020320Y073535D01*
X020294Y073539D01*
X020269Y073546D01*
X020245Y073557D01*
X020222Y073570D01*
X020202Y073587D01*
X020184Y073605D01*
X010321Y061720D02*
X009143Y062270D01*
X009143Y062269D02*
X009118Y062279D01*
X009093Y062285D01*
X009067Y062288D01*
X009041Y062287D01*
X009015Y062283D01*
X008990Y062276D01*
X008966Y062265D01*
X008943Y062252D01*
X008923Y062235D01*
X008905Y062217D01*
X008889Y062195D01*
X008877Y062173D01*
X008666Y061720D01*
X008656Y061695D01*
X008650Y061670D01*
X008647Y061644D01*
X008648Y061618D01*
X008652Y061592D01*
X008659Y061567D01*
X008670Y061543D01*
X008683Y061520D01*
X008700Y061500D01*
X008718Y061482D01*
X008740Y061466D01*
X008762Y061454D01*
X009941Y060904D01*
X009940Y060905D02*
X009965Y060895D01*
X009990Y060889D01*
X010016Y060886D01*
X010042Y060887D01*
X010068Y060891D01*
X010093Y060898D01*
X010117Y060909D01*
X010140Y060922D01*
X010160Y060939D01*
X010178Y060957D01*
X010194Y060979D01*
X010206Y061001D01*
X010418Y061454D01*
X010428Y061479D01*
X010434Y061504D01*
X010437Y061530D01*
X010436Y061556D01*
X010432Y061582D01*
X010425Y061607D01*
X010414Y061631D01*
X010401Y061654D01*
X010384Y061674D01*
X010366Y061692D01*
X010344Y061708D01*
X010322Y061720D01*
X009625Y060228D02*
X009642Y060218D01*
X009657Y060205D01*
X009668Y060189D01*
X009677Y060171D01*
X009682Y060152D01*
X009683Y060133D01*
X009680Y060113D01*
X009674Y060095D01*
X009631Y060004D01*
X009565Y059980D01*
X009185Y059164D01*
X009209Y059098D01*
X009167Y059007D01*
X009158Y058992D01*
X009147Y058978D01*
X009133Y058967D01*
X009118Y058958D01*
X009102Y058952D01*
X009085Y058949D01*
X009067Y058949D01*
X009050Y058952D01*
X009034Y058958D01*
X008581Y059170D02*
X008564Y059180D01*
X008549Y059193D01*
X008538Y059209D01*
X008529Y059227D01*
X008524Y059246D01*
X008523Y059265D01*
X008526Y059285D01*
X008532Y059303D01*
X008574Y059394D01*
X008641Y059418D01*
X009021Y060233D01*
X008997Y060300D01*
X009039Y060391D01*
X009039Y060390D02*
X009048Y060405D01*
X009059Y060419D01*
X009073Y060430D01*
X009088Y060439D01*
X009104Y060445D01*
X009121Y060448D01*
X009139Y060448D01*
X009156Y060445D01*
X009172Y060439D01*
D12*
X009348Y060546D02*
X009621Y060419D01*
X009348Y060546D02*
X009539Y060954D01*
X009362Y060954D02*
X009330Y060886D01*
X009230Y060850D01*
X009267Y060750D01*
X009235Y060682D01*
X009135Y060646D01*
X008999Y060709D01*
X008963Y060809D01*
X009046Y060809D02*
X008214Y059025D01*
X007418Y059179D01*
X006787Y059690D01*
X006870Y059869D01*
X007536Y061296D01*
X007619Y061475D01*
X008416Y061320D01*
X009046Y060809D01*
X009162Y060881D02*
X009230Y060850D01*
X009362Y060954D02*
X009326Y061054D01*
X009189Y061117D01*
X009090Y061081D01*
X008945Y061149D02*
X008908Y061248D01*
X008772Y061312D01*
X008672Y061276D01*
X008546Y061003D01*
X008582Y060904D01*
X008718Y060840D01*
X008818Y060876D01*
X008369Y061003D02*
X008296Y061203D01*
X008364Y061171D02*
X008160Y061266D01*
X008097Y061130D02*
X008287Y061538D01*
X008491Y061443D01*
X008527Y061343D01*
X008464Y061207D01*
X008364Y061171D01*
X007955Y061196D02*
X007818Y061260D01*
X007886Y061228D02*
X008077Y061636D01*
X008009Y061668D02*
X008145Y061604D01*
X007536Y061296D02*
X007480Y061299D01*
X007423Y061298D01*
X007367Y061292D01*
X007311Y061284D01*
X007256Y061271D01*
X007201Y061255D01*
X007148Y061235D01*
X007097Y061211D01*
X007047Y061184D01*
X006999Y061154D01*
X006953Y061121D01*
X006910Y061084D01*
X006869Y061045D01*
X006831Y061003D01*
X006796Y060959D01*
X006763Y060913D01*
X006734Y060864D01*
X006709Y060813D01*
X006687Y060761D01*
X006668Y060708D01*
X006653Y060653D01*
X006642Y060598D01*
X006634Y060542D01*
X006630Y060485D01*
X006631Y060429D01*
X006634Y060372D01*
X006642Y060316D01*
X006654Y060261D01*
X006669Y060206D01*
X006687Y060153D01*
X006710Y060101D01*
X006736Y060050D01*
X006765Y060002D01*
X006797Y059955D01*
X006832Y059911D01*
X006871Y059869D01*
X015876Y050965D02*
X015876Y069965D01*
X022876Y069965D01*
X022876Y050965D01*
X015876Y050965D01*
X016676Y051665D02*
X016676Y052215D01*
X016676Y051665D02*
X016976Y051365D01*
X016826Y054565D02*
X016828Y054578D01*
X016833Y054591D01*
X016842Y054602D01*
X016853Y054609D01*
X016866Y054614D01*
X016879Y054615D01*
X016893Y054612D01*
X016905Y054606D01*
X016915Y054597D01*
X016922Y054585D01*
X016926Y054572D01*
X016926Y054558D01*
X016922Y054545D01*
X016915Y054533D01*
X016905Y054524D01*
X016893Y054518D01*
X016879Y054515D01*
X016866Y054516D01*
X016853Y054521D01*
X016842Y054528D01*
X016833Y054539D01*
X016828Y054552D01*
X016826Y054565D01*
X023871Y057349D02*
X023947Y057274D01*
X024022Y057274D01*
X024097Y057349D01*
X024097Y057499D01*
X024172Y057574D01*
X024247Y057574D01*
X024322Y057499D01*
X024322Y057349D01*
X024247Y057274D01*
X023871Y057349D02*
X023871Y057499D01*
X023947Y057574D01*
X023871Y057734D02*
X024172Y057734D01*
X024322Y057884D01*
X024172Y058034D01*
X023871Y058034D01*
X024022Y058195D02*
X023871Y058345D01*
X024322Y058345D01*
X024322Y058195D02*
X024322Y058495D01*
X026671Y057724D02*
X027122Y057724D01*
X027122Y057574D02*
X027122Y057874D01*
X026822Y057574D02*
X026671Y057724D01*
X024322Y061574D02*
X024322Y061874D01*
X024322Y061724D02*
X023871Y061724D01*
X024022Y061574D01*
X023947Y062034D02*
X023871Y062109D01*
X023871Y062259D01*
X023947Y062334D01*
X024247Y062034D01*
X024322Y062109D01*
X024322Y062259D01*
X024247Y062334D01*
X023947Y062334D01*
X023947Y062034D02*
X024247Y062034D01*
X020746Y068295D02*
X017966Y068295D01*
X017966Y070295D01*
X020746Y070295D01*
X020746Y068295D01*
X018050Y072537D02*
X017393Y073014D01*
X017037Y073743D01*
X017188Y073870D01*
X018395Y074882D01*
X018545Y075009D01*
X019202Y074532D01*
X019558Y073802D01*
X018050Y072537D01*
X019049Y074064D02*
X019155Y074054D01*
X019049Y074064D02*
X018952Y074179D01*
X018962Y074284D01*
X019192Y074477D01*
X019297Y074468D01*
X019394Y074353D01*
X019385Y074247D01*
X019487Y074125D02*
X019593Y074115D01*
X019690Y074000D01*
X019680Y073895D01*
X019623Y073846D01*
X019200Y073883D01*
X019393Y073653D01*
X019496Y073531D02*
X019689Y073301D01*
X019496Y073531D02*
X019841Y073820D01*
X019089Y074600D02*
X018974Y074503D01*
X018868Y074513D01*
X018723Y074685D01*
X018608Y074589D02*
X018953Y074878D01*
X019098Y074706D01*
X019089Y074600D01*
X018820Y074570D02*
X018801Y074359D01*
X018507Y074709D02*
X018411Y074824D01*
X018459Y074766D02*
X018804Y075056D01*
X018756Y075113D02*
X018852Y074998D01*
X018394Y074882D02*
X018344Y074909D01*
X018292Y074931D01*
X018239Y074950D01*
X018185Y074966D01*
X018129Y074978D01*
X018073Y074986D01*
X018017Y074990D01*
X017960Y074991D01*
X017904Y074987D01*
X017847Y074980D01*
X017792Y074969D01*
X017737Y074955D01*
X017684Y074937D01*
X017631Y074915D01*
X017581Y074890D01*
X017532Y074861D01*
X017485Y074829D01*
X017440Y074794D01*
X017398Y074756D01*
X017359Y074716D01*
X017322Y074673D01*
X017288Y074627D01*
X017258Y074579D01*
X017231Y074530D01*
X017207Y074479D01*
X017186Y074426D01*
X017170Y074372D01*
X017157Y074317D01*
X017147Y074261D01*
X017142Y074204D01*
X017140Y074148D01*
X017142Y074091D01*
X017148Y074035D01*
X017158Y073979D01*
X017171Y073924D01*
X017188Y073870D01*
X030812Y070389D02*
X030615Y069602D01*
X030812Y068814D01*
X032781Y068814D01*
X032978Y069602D01*
X032781Y070389D01*
X032584Y070389D01*
X031009Y070389D01*
X030812Y070389D01*
X031010Y070389D02*
X031031Y070442D01*
X031056Y070492D01*
X031085Y070541D01*
X031117Y070588D01*
X031151Y070633D01*
X031189Y070675D01*
X031230Y070715D01*
X031273Y070751D01*
X031318Y070785D01*
X031366Y070816D01*
X031415Y070843D01*
X031466Y070867D01*
X031519Y070888D01*
X031573Y070905D01*
X031628Y070918D01*
X031684Y070927D01*
X031740Y070933D01*
X031797Y070935D01*
X031854Y070933D01*
X031910Y070927D01*
X031966Y070918D01*
X032021Y070905D01*
X032075Y070888D01*
X032128Y070867D01*
X032179Y070843D01*
X032228Y070816D01*
X032276Y070785D01*
X032321Y070751D01*
X032364Y070715D01*
X032405Y070675D01*
X032443Y070633D01*
X032477Y070588D01*
X032509Y070541D01*
X032538Y070492D01*
X032563Y070442D01*
X032584Y070389D01*
X034287Y069323D02*
X034738Y069323D01*
X034738Y069623D01*
X034738Y069162D02*
X034738Y068862D01*
X034738Y069012D02*
X034287Y069012D01*
X034438Y068862D01*
X034363Y068702D02*
X034287Y068627D01*
X034287Y068477D01*
X034363Y068402D01*
X034663Y068402D01*
X034738Y068477D01*
X034738Y068627D01*
X034663Y068702D01*
X034738Y068242D02*
X034588Y068091D01*
X034588Y068167D02*
X034588Y067941D01*
X034738Y067941D02*
X034287Y067941D01*
X034287Y068167D01*
X034363Y068242D01*
X034513Y068242D01*
X034588Y068167D01*
X034738Y067785D02*
X034738Y067634D01*
X034738Y067709D02*
X034287Y067709D01*
X034287Y067634D02*
X034287Y067785D01*
X042623Y065665D02*
X042426Y064877D01*
X042623Y064090D01*
X044592Y064090D01*
X044789Y064877D01*
X044592Y065665D01*
X044395Y065665D01*
X042820Y065665D01*
X042623Y065665D01*
X042821Y065665D02*
X042842Y065718D01*
X042867Y065768D01*
X042896Y065817D01*
X042928Y065864D01*
X042962Y065909D01*
X043000Y065951D01*
X043041Y065991D01*
X043084Y066027D01*
X043129Y066061D01*
X043177Y066092D01*
X043226Y066119D01*
X043277Y066143D01*
X043330Y066164D01*
X043384Y066181D01*
X043439Y066194D01*
X043495Y066203D01*
X043551Y066209D01*
X043608Y066211D01*
X043665Y066209D01*
X043721Y066203D01*
X043777Y066194D01*
X043832Y066181D01*
X043886Y066164D01*
X043939Y066143D01*
X043990Y066119D01*
X044039Y066092D01*
X044087Y066061D01*
X044132Y066027D01*
X044175Y065991D01*
X044216Y065951D01*
X044254Y065909D01*
X044288Y065864D01*
X044320Y065817D01*
X044349Y065768D01*
X044374Y065718D01*
X044395Y065665D01*
X045969Y064412D02*
X046419Y064412D01*
X046419Y064262D02*
X046419Y064562D01*
X046119Y064262D02*
X045969Y064412D01*
X046044Y064102D02*
X046194Y064102D01*
X046269Y064027D01*
X046269Y063802D01*
X046269Y063952D02*
X046419Y064102D01*
X046419Y063802D02*
X045969Y063802D01*
X045969Y064027D01*
X046044Y064102D01*
X046194Y063642D02*
X046194Y063341D01*
X045969Y063567D01*
X046419Y063567D01*
X046344Y063181D02*
X046419Y063106D01*
X046419Y062956D01*
X046344Y062881D01*
X046044Y062881D01*
X045969Y062956D01*
X045969Y063106D01*
X046044Y063181D01*
X046044Y062721D02*
X046194Y062721D01*
X046269Y062646D01*
X046269Y062421D01*
X046269Y062571D02*
X046419Y062721D01*
X046419Y062421D02*
X045969Y062421D01*
X045969Y062646D01*
X046044Y062721D01*
X045969Y062264D02*
X045969Y062114D01*
X045969Y062189D02*
X046419Y062189D01*
X046419Y062114D02*
X046419Y062264D01*
X054434Y068814D02*
X054237Y069602D01*
X054434Y070389D01*
X054631Y070389D01*
X056206Y070389D01*
X056403Y070389D01*
X056600Y069602D01*
X056403Y068814D01*
X054434Y068814D01*
X054632Y070389D02*
X054653Y070442D01*
X054678Y070492D01*
X054707Y070541D01*
X054739Y070588D01*
X054773Y070633D01*
X054811Y070675D01*
X054852Y070715D01*
X054895Y070751D01*
X054940Y070785D01*
X054988Y070816D01*
X055037Y070843D01*
X055088Y070867D01*
X055141Y070888D01*
X055195Y070905D01*
X055250Y070918D01*
X055306Y070927D01*
X055362Y070933D01*
X055419Y070935D01*
X055476Y070933D01*
X055532Y070927D01*
X055588Y070918D01*
X055643Y070905D01*
X055697Y070888D01*
X055750Y070867D01*
X055801Y070843D01*
X055850Y070816D01*
X055898Y070785D01*
X055943Y070751D01*
X055986Y070715D01*
X056027Y070675D01*
X056065Y070633D01*
X056099Y070588D01*
X056131Y070541D01*
X056160Y070492D01*
X056185Y070442D01*
X056206Y070389D01*
X057826Y069328D02*
X057826Y069103D01*
X058276Y069103D01*
X058126Y069103D02*
X058126Y069328D01*
X058051Y069403D01*
X057901Y069403D01*
X057826Y069328D01*
X058126Y069253D02*
X058276Y069403D01*
X058276Y068943D02*
X058276Y068642D01*
X058276Y068792D02*
X057826Y068792D01*
X057976Y068642D01*
X057901Y068482D02*
X057826Y068407D01*
X057826Y068257D01*
X057901Y068182D01*
X058201Y068182D01*
X058276Y068257D01*
X058276Y068407D01*
X058201Y068482D01*
X058276Y068022D02*
X058126Y067872D01*
X058126Y067947D02*
X058126Y067721D01*
X058276Y067721D02*
X057826Y067721D01*
X057826Y067947D01*
X057901Y068022D01*
X058051Y068022D01*
X058126Y067947D01*
X058276Y067565D02*
X058276Y067415D01*
X058276Y067490D02*
X057826Y067490D01*
X057826Y067415D02*
X057826Y067565D01*
X061637Y064985D02*
X061787Y064985D01*
X061712Y064985D02*
X061712Y064535D01*
X061637Y064535D02*
X061787Y064535D01*
X061944Y064535D02*
X061944Y064985D01*
X062169Y064985D01*
X062244Y064910D01*
X062244Y064760D01*
X062169Y064685D01*
X061944Y064685D01*
X062094Y064685D02*
X062244Y064535D01*
X062404Y064760D02*
X062705Y064760D01*
X062865Y064985D02*
X062865Y064535D01*
X063165Y064535D01*
X063325Y064535D02*
X063625Y064535D01*
X063786Y064535D02*
X063786Y064985D01*
X064011Y064985D01*
X064086Y064910D01*
X064086Y064610D01*
X064011Y064535D01*
X063786Y064535D01*
X063475Y064760D02*
X063325Y064760D01*
X063325Y064985D02*
X063325Y064535D01*
X063325Y064985D02*
X063625Y064985D01*
X069185Y071907D02*
X069282Y072022D01*
X069234Y071964D02*
X068889Y072254D01*
X068937Y072311D02*
X068840Y072196D01*
X069038Y072431D02*
X069182Y072604D01*
X069288Y072613D01*
X069403Y072516D01*
X069412Y072411D01*
X069268Y072238D01*
X069383Y072142D02*
X069038Y072431D01*
X069165Y072536D02*
X067657Y073802D01*
X068013Y074531D01*
X068669Y075008D01*
X068820Y074882D01*
X070027Y073869D01*
X070177Y073743D01*
X069822Y073013D01*
X069165Y072536D01*
X069364Y072353D02*
X069576Y072372D01*
X069621Y072543D02*
X069727Y072552D01*
X069823Y072667D01*
X069814Y072773D01*
X069975Y072847D02*
X069938Y073270D01*
X069880Y073318D01*
X069774Y073309D01*
X069678Y073194D01*
X069687Y073088D01*
X069584Y072966D02*
X069478Y072956D01*
X069382Y072841D01*
X069391Y072736D01*
X069621Y072543D01*
X069975Y072847D02*
X070168Y073077D01*
X070271Y073200D02*
X069925Y073489D01*
X070070Y073662D01*
X070176Y073671D01*
X070291Y073574D01*
X070300Y073469D01*
X070156Y073296D01*
X070252Y073411D02*
X070464Y073430D01*
X070027Y073869D02*
X070044Y073923D01*
X070057Y073978D01*
X070067Y074034D01*
X070073Y074090D01*
X070075Y074147D01*
X070073Y074203D01*
X070068Y074260D01*
X070058Y074316D01*
X070045Y074371D01*
X070029Y074425D01*
X070008Y074478D01*
X069984Y074529D01*
X069957Y074578D01*
X069927Y074626D01*
X069893Y074672D01*
X069856Y074715D01*
X069817Y074755D01*
X069775Y074793D01*
X069730Y074828D01*
X069683Y074860D01*
X069634Y074889D01*
X069584Y074914D01*
X069531Y074936D01*
X069478Y074954D01*
X069423Y074968D01*
X069368Y074979D01*
X069311Y074986D01*
X069255Y074990D01*
X069198Y074989D01*
X069142Y074985D01*
X069086Y074977D01*
X069030Y074965D01*
X068976Y074949D01*
X068923Y074930D01*
X068871Y074908D01*
X068821Y074881D01*
X078799Y061319D02*
X078168Y060808D01*
X079000Y059024D01*
X079797Y059178D01*
X080427Y059690D01*
X080344Y059868D01*
X079679Y061295D01*
X079596Y061474D01*
X078799Y061319D01*
X079679Y061295D02*
X079735Y061298D01*
X079792Y061297D01*
X079848Y061291D01*
X079904Y061283D01*
X079959Y061270D01*
X080014Y061254D01*
X080067Y061234D01*
X080118Y061210D01*
X080168Y061183D01*
X080216Y061153D01*
X080262Y061120D01*
X080305Y061083D01*
X080346Y061044D01*
X080384Y061002D01*
X080419Y060958D01*
X080452Y060912D01*
X080481Y060863D01*
X080506Y060812D01*
X080528Y060760D01*
X080547Y060707D01*
X080562Y060652D01*
X080573Y060597D01*
X080581Y060541D01*
X080585Y060484D01*
X080584Y060428D01*
X080581Y060371D01*
X080573Y060315D01*
X080561Y060260D01*
X080546Y060205D01*
X080528Y060152D01*
X080505Y060100D01*
X080479Y060049D01*
X080450Y060001D01*
X080418Y059954D01*
X080383Y059910D01*
X080344Y059868D01*
X080299Y059598D02*
X080398Y059562D01*
X080462Y059426D01*
X080426Y059326D01*
X080222Y059231D01*
X080358Y059294D02*
X080557Y059222D01*
X080285Y059095D02*
X080095Y059503D01*
X080299Y059598D01*
X079981Y059367D02*
X080013Y059299D01*
X079977Y059200D01*
X080076Y059163D01*
X080108Y059095D01*
X080072Y058995D01*
X079936Y058932D01*
X079836Y058968D01*
X079691Y058901D02*
X079655Y058801D01*
X079518Y058737D01*
X079419Y058774D01*
X079292Y059046D01*
X079328Y059146D01*
X079464Y059209D01*
X079564Y059173D01*
X079709Y059240D02*
X079745Y059340D01*
X079881Y059404D01*
X079981Y059367D01*
X079977Y059200D02*
X079909Y059168D01*
X079210Y058842D02*
X079174Y058742D01*
X078970Y058647D01*
X079033Y058511D02*
X078843Y058919D01*
X079047Y059015D01*
X079147Y058978D01*
X079210Y058842D01*
X079106Y058711D02*
X079305Y058638D01*
X078891Y058445D02*
X078755Y058381D01*
X078823Y058413D02*
X078633Y058821D01*
X078565Y058790D02*
X078701Y058853D01*
X069020Y053903D02*
X068945Y053978D01*
X068795Y053978D01*
X068720Y053903D01*
X068560Y053903D02*
X068485Y053978D01*
X068334Y053978D01*
X068259Y053903D01*
X068259Y053603D01*
X068334Y053528D01*
X068485Y053528D01*
X068560Y053603D01*
X068720Y053528D02*
X069020Y053828D01*
X069020Y053903D01*
X069020Y053528D02*
X068720Y053528D01*
X068099Y053978D02*
X067799Y053978D01*
X067949Y053978D02*
X067949Y053528D01*
X067639Y053528D02*
X067639Y053828D01*
X067489Y053978D01*
X067339Y053828D01*
X067339Y053528D01*
X067339Y053753D02*
X067639Y053753D01*
X067178Y053753D02*
X066878Y053753D01*
X066718Y053753D02*
X066643Y053678D01*
X066418Y053678D01*
X066568Y053678D02*
X066718Y053528D01*
X066718Y053753D02*
X066718Y053903D01*
X066643Y053978D01*
X066418Y053978D01*
X066418Y053528D01*
X066261Y053528D02*
X066111Y053528D01*
X066186Y053528D02*
X066186Y053978D01*
X066111Y053978D02*
X066261Y053978D01*
X066130Y053773D02*
X066130Y053323D01*
X065980Y053323D02*
X066280Y053323D01*
X065980Y053623D02*
X066130Y053773D01*
X065820Y053698D02*
X065745Y053773D01*
X065595Y053773D01*
X065520Y053698D01*
X065520Y053398D01*
X065595Y053323D01*
X065745Y053323D01*
X065820Y053398D01*
X065359Y053773D02*
X065059Y053773D01*
X065209Y053773D02*
X065209Y053323D01*
X064899Y053323D02*
X064899Y053623D01*
X064749Y053773D01*
X064599Y053623D01*
X064599Y053323D01*
X064599Y053548D02*
X064899Y053548D01*
X064439Y053548D02*
X064138Y053548D01*
X063978Y053548D02*
X063903Y053473D01*
X063678Y053473D01*
X063678Y053323D02*
X063678Y053773D01*
X063903Y053773D01*
X063978Y053698D01*
X063978Y053548D01*
X063828Y053473D02*
X063978Y053323D01*
X063521Y053323D02*
X063371Y053323D01*
X063446Y053323D02*
X063446Y053773D01*
X063371Y053773D02*
X063521Y053773D01*
X066637Y055518D02*
X066787Y055518D01*
X066712Y055518D02*
X066712Y055968D01*
X066637Y055968D02*
X066787Y055968D01*
X066944Y055968D02*
X067169Y055968D01*
X067244Y055893D01*
X067244Y055743D01*
X067169Y055668D01*
X066944Y055668D01*
X066944Y055518D02*
X066944Y055968D01*
X067094Y055668D02*
X067244Y055518D01*
X067404Y055743D02*
X067705Y055743D01*
X067865Y055593D02*
X067940Y055518D01*
X068090Y055518D01*
X068165Y055593D01*
X068325Y055518D02*
X068325Y055968D01*
X068550Y055968D01*
X068626Y055893D01*
X068626Y055743D01*
X068550Y055668D01*
X068325Y055668D01*
X068475Y055668D02*
X068626Y055518D01*
X068165Y055893D02*
X068090Y055968D01*
X067940Y055968D01*
X067865Y055893D01*
X067865Y055593D01*
X082200Y044591D02*
X082200Y042622D01*
X082988Y042426D01*
X083775Y042622D01*
X083775Y042819D01*
X083775Y044394D01*
X083775Y044591D01*
X082988Y044788D01*
X082200Y044591D01*
X083775Y044394D02*
X083828Y044373D01*
X083878Y044348D01*
X083927Y044319D01*
X083974Y044287D01*
X084019Y044253D01*
X084061Y044215D01*
X084101Y044174D01*
X084137Y044131D01*
X084171Y044086D01*
X084202Y044038D01*
X084229Y043989D01*
X084253Y043938D01*
X084274Y043885D01*
X084291Y043831D01*
X084304Y043776D01*
X084313Y043720D01*
X084319Y043664D01*
X084321Y043607D01*
X084319Y043550D01*
X084313Y043494D01*
X084304Y043438D01*
X084291Y043383D01*
X084274Y043329D01*
X084253Y043276D01*
X084229Y043225D01*
X084202Y043176D01*
X084171Y043128D01*
X084137Y043083D01*
X084101Y043040D01*
X084061Y042999D01*
X084019Y042961D01*
X083974Y042927D01*
X083927Y042895D01*
X083878Y042866D01*
X083828Y042841D01*
X083775Y042820D01*
X079797Y028035D02*
X079000Y028189D01*
X078168Y026405D01*
X078798Y025894D01*
X079595Y025740D01*
X079678Y025918D01*
X080344Y027345D01*
X080427Y027524D01*
X079797Y028035D01*
X080343Y027345D02*
X080382Y027303D01*
X080417Y027259D01*
X080449Y027212D01*
X080478Y027164D01*
X080504Y027113D01*
X080527Y027061D01*
X080545Y027008D01*
X080560Y026953D01*
X080572Y026898D01*
X080580Y026842D01*
X080583Y026785D01*
X080584Y026729D01*
X080580Y026672D01*
X080572Y026616D01*
X080561Y026561D01*
X080546Y026506D01*
X080527Y026453D01*
X080505Y026401D01*
X080480Y026350D01*
X080451Y026301D01*
X080418Y026255D01*
X080383Y026211D01*
X080345Y026169D01*
X080304Y026130D01*
X080261Y026093D01*
X080215Y026060D01*
X080167Y026030D01*
X080117Y026003D01*
X080066Y025979D01*
X080013Y025959D01*
X079958Y025943D01*
X079903Y025930D01*
X079847Y025922D01*
X079791Y025916D01*
X079734Y025915D01*
X079678Y025918D01*
X079229Y025858D02*
X079165Y025722D01*
X079066Y025685D01*
X078861Y025781D01*
X078798Y025645D02*
X078988Y026053D01*
X079192Y025958D01*
X079229Y025858D01*
X078998Y025717D02*
X079070Y025518D01*
X078685Y025780D02*
X078585Y025744D01*
X078449Y025807D01*
X078412Y025907D01*
X078476Y026043D02*
X078644Y026048D01*
X078712Y026016D01*
X078748Y025916D01*
X078685Y025780D01*
X078476Y026043D02*
X078571Y026247D01*
X078843Y026120D01*
X078394Y026247D02*
X078358Y026347D01*
X078222Y026410D01*
X078122Y026374D01*
X077995Y026102D01*
X078032Y026002D01*
X078168Y025939D01*
X078267Y025975D01*
X077818Y026101D02*
X077746Y026301D01*
X077814Y026269D02*
X077610Y026364D01*
X077546Y026228D02*
X077737Y026636D01*
X077941Y026541D01*
X077977Y026442D01*
X077914Y026306D01*
X077814Y026269D01*
X077404Y026295D02*
X077268Y026358D01*
X077336Y026326D02*
X077526Y026734D01*
X077594Y026703D02*
X077458Y026766D01*
X069164Y014677D02*
X069821Y014200D01*
X070177Y013471D01*
X070026Y013344D01*
X068820Y012332D01*
X068669Y012205D01*
X068012Y012682D01*
X067656Y013412D01*
X069164Y014677D01*
X070026Y013344D02*
X070043Y013290D01*
X070056Y013235D01*
X070066Y013179D01*
X070072Y013123D01*
X070074Y013066D01*
X070072Y013010D01*
X070067Y012953D01*
X070057Y012897D01*
X070044Y012842D01*
X070028Y012788D01*
X070007Y012735D01*
X069983Y012684D01*
X069956Y012635D01*
X069926Y012587D01*
X069892Y012541D01*
X069855Y012498D01*
X069816Y012458D01*
X069774Y012420D01*
X069729Y012385D01*
X069682Y012353D01*
X069633Y012324D01*
X069583Y012299D01*
X069530Y012277D01*
X069477Y012259D01*
X069422Y012245D01*
X069367Y012234D01*
X069310Y012227D01*
X069254Y012223D01*
X069197Y012224D01*
X069141Y012228D01*
X069085Y012236D01*
X069029Y012248D01*
X068975Y012264D01*
X068922Y012283D01*
X068870Y012305D01*
X068820Y012332D01*
X068527Y012368D02*
X068412Y012271D01*
X068306Y012281D01*
X068161Y012453D01*
X068046Y012357D02*
X068391Y012646D01*
X068536Y012474D01*
X068527Y012368D01*
X068258Y012338D02*
X068239Y012127D01*
X068001Y012527D02*
X068058Y012576D01*
X068067Y012681D01*
X067923Y012854D01*
X067808Y012758D01*
X067798Y012652D01*
X067895Y012537D01*
X068001Y012527D01*
X068134Y012836D02*
X067923Y012854D01*
X068134Y012836D02*
X068288Y012769D01*
X067935Y013073D02*
X067944Y013179D01*
X067848Y013294D01*
X067742Y013303D01*
X067512Y013110D01*
X067503Y013004D01*
X067599Y012889D01*
X067705Y012880D01*
X067351Y013185D02*
X067370Y013396D01*
X067418Y013339D02*
X067273Y013511D01*
X067158Y013415D02*
X067503Y013704D01*
X067648Y013532D01*
X067639Y013426D01*
X067524Y013329D01*
X067418Y013339D01*
X067058Y013535D02*
X066961Y013650D01*
X067009Y013592D02*
X067354Y013882D01*
X067306Y013939D02*
X067403Y013824D01*
X061290Y014269D02*
X061290Y033269D01*
X054290Y033269D01*
X054290Y014269D01*
X061290Y014269D01*
X059200Y013939D02*
X056420Y013939D01*
X056420Y015939D01*
X059200Y015939D01*
X059200Y013939D01*
X052465Y005801D02*
X050496Y005801D01*
X050300Y005014D01*
X050496Y004227D01*
X050693Y004227D01*
X052268Y004227D01*
X052465Y004227D01*
X052662Y005014D01*
X052465Y005801D01*
X052268Y004227D02*
X052247Y004174D01*
X052222Y004124D01*
X052193Y004075D01*
X052161Y004028D01*
X052127Y003983D01*
X052089Y003941D01*
X052048Y003901D01*
X052005Y003865D01*
X051960Y003831D01*
X051912Y003800D01*
X051863Y003773D01*
X051812Y003749D01*
X051759Y003728D01*
X051705Y003711D01*
X051650Y003698D01*
X051594Y003689D01*
X051538Y003683D01*
X051481Y003681D01*
X051424Y003683D01*
X051368Y003689D01*
X051312Y003698D01*
X051257Y003711D01*
X051203Y003728D01*
X051150Y003749D01*
X051099Y003773D01*
X051050Y003800D01*
X051002Y003831D01*
X050957Y003865D01*
X050914Y003901D01*
X050873Y003941D01*
X050835Y003983D01*
X050801Y004028D01*
X050769Y004075D01*
X050740Y004124D01*
X050715Y004174D01*
X050694Y004227D01*
X049091Y005226D02*
X049091Y005376D01*
X049091Y005301D02*
X048641Y005301D01*
X048641Y005226D02*
X048641Y005376D01*
X048641Y005533D02*
X048641Y005758D01*
X048716Y005833D01*
X048866Y005833D01*
X048941Y005758D01*
X048941Y005533D01*
X049091Y005533D02*
X048641Y005533D01*
X048941Y005683D02*
X049091Y005833D01*
X049016Y005993D02*
X049091Y006068D01*
X049091Y006219D01*
X049016Y006294D01*
X049016Y006454D02*
X049091Y006454D01*
X049016Y006454D02*
X048716Y006754D01*
X048641Y006754D01*
X048641Y006454D01*
X048716Y006294D02*
X048641Y006219D01*
X048641Y006068D01*
X048716Y005993D01*
X049016Y005993D01*
X048941Y006914D02*
X048941Y007139D01*
X048866Y007214D01*
X048716Y007214D01*
X048641Y007139D01*
X048641Y006914D01*
X049091Y006914D01*
X048941Y007064D02*
X049091Y007214D01*
X036914Y005014D02*
X036717Y004227D01*
X036520Y004227D01*
X034945Y004227D01*
X034748Y004227D01*
X034551Y005014D01*
X034748Y005801D01*
X036717Y005801D01*
X036914Y005014D01*
X036520Y004227D02*
X036499Y004174D01*
X036474Y004124D01*
X036445Y004075D01*
X036413Y004028D01*
X036379Y003983D01*
X036341Y003941D01*
X036300Y003901D01*
X036257Y003865D01*
X036212Y003831D01*
X036164Y003800D01*
X036115Y003773D01*
X036064Y003749D01*
X036011Y003728D01*
X035957Y003711D01*
X035902Y003698D01*
X035846Y003689D01*
X035790Y003683D01*
X035733Y003681D01*
X035676Y003683D01*
X035620Y003689D01*
X035564Y003698D01*
X035509Y003711D01*
X035455Y003728D01*
X035402Y003749D01*
X035351Y003773D01*
X035302Y003800D01*
X035254Y003831D01*
X035209Y003865D01*
X035166Y003901D01*
X035125Y003941D01*
X035087Y003983D01*
X035053Y004028D01*
X035021Y004075D01*
X034992Y004124D01*
X034967Y004174D01*
X034946Y004227D01*
X033368Y005271D02*
X033368Y005421D01*
X033368Y005346D02*
X032917Y005346D01*
X032917Y005271D02*
X032917Y005421D01*
X032917Y005578D02*
X032917Y005803D01*
X032992Y005879D01*
X033143Y005879D01*
X033218Y005803D01*
X033218Y005578D01*
X033368Y005578D02*
X032917Y005578D01*
X033218Y005728D02*
X033368Y005879D01*
X033293Y006039D02*
X033368Y006114D01*
X033368Y006264D01*
X033293Y006339D01*
X033293Y006499D02*
X033368Y006499D01*
X033293Y006499D02*
X032992Y006799D01*
X032917Y006799D01*
X032917Y006499D01*
X032992Y006339D02*
X032917Y006264D01*
X032917Y006114D01*
X032992Y006039D01*
X033293Y006039D01*
X033368Y006959D02*
X032917Y006959D01*
X033368Y006959D02*
X033368Y007260D01*
X019557Y013412D02*
X019202Y012683D01*
X018545Y012206D01*
X018394Y012333D01*
X017188Y013345D01*
X017037Y013471D01*
X017392Y014201D01*
X018049Y014678D01*
X019557Y013412D01*
X018161Y014743D02*
X018354Y014973D01*
X018161Y014743D02*
X017816Y015032D01*
X017713Y014909D02*
X017674Y014746D01*
X017693Y014535D01*
X017838Y014707D01*
X017943Y014716D01*
X018001Y014668D01*
X018010Y014562D01*
X017914Y014447D01*
X017808Y014438D01*
X017693Y014535D01*
X017475Y014508D02*
X017369Y014499D01*
X017273Y014384D01*
X017282Y014278D01*
X017512Y014085D01*
X017618Y014095D01*
X017714Y014210D01*
X017705Y014315D01*
X017466Y013915D02*
X017255Y013896D01*
X017303Y013954D02*
X017158Y013781D01*
X017273Y013685D02*
X016928Y013974D01*
X017073Y014147D01*
X017179Y014156D01*
X017294Y014059D01*
X017303Y013954D01*
X017173Y013564D02*
X017076Y013449D01*
X017124Y013507D02*
X016779Y013796D01*
X016731Y013739D02*
X016828Y013854D01*
X017188Y013345D02*
X017171Y013291D01*
X017158Y013236D01*
X017148Y013180D01*
X017142Y013124D01*
X017140Y013067D01*
X017142Y013011D01*
X017147Y012954D01*
X017157Y012898D01*
X017170Y012843D01*
X017186Y012789D01*
X017207Y012736D01*
X017231Y012685D01*
X017258Y012636D01*
X017288Y012588D01*
X017322Y012542D01*
X017359Y012499D01*
X017398Y012459D01*
X017440Y012421D01*
X017485Y012386D01*
X017532Y012354D01*
X017581Y012325D01*
X017631Y012300D01*
X017684Y012278D01*
X017737Y012260D01*
X017792Y012246D01*
X017847Y012235D01*
X017904Y012228D01*
X017960Y012224D01*
X018017Y012225D01*
X018073Y012229D01*
X018129Y012237D01*
X018185Y012249D01*
X018239Y012265D01*
X018292Y012284D01*
X018344Y012306D01*
X018394Y012333D01*
X021484Y020804D02*
X021334Y020954D01*
X021784Y020954D01*
X021784Y020804D02*
X021784Y021105D01*
X020884Y021329D02*
X020884Y021479D01*
X020809Y021555D01*
X020809Y021715D02*
X020884Y021790D01*
X020884Y021940D01*
X020809Y022015D01*
X020509Y022015D01*
X020434Y021940D01*
X020434Y021790D01*
X020509Y021715D01*
X020809Y021715D01*
X020509Y021555D02*
X020434Y021479D01*
X020434Y021329D01*
X020509Y021254D01*
X020809Y021254D01*
X020884Y021329D01*
X020884Y022175D02*
X020434Y022175D01*
X020584Y022325D01*
X020434Y022475D01*
X020884Y022475D01*
X020884Y022635D02*
X020434Y022635D01*
X020434Y022861D01*
X020509Y022936D01*
X020659Y022936D01*
X020734Y022861D01*
X020734Y022635D01*
X020659Y023096D02*
X020659Y023396D01*
X020584Y023396D02*
X020884Y023396D01*
X020809Y023556D02*
X020884Y023631D01*
X020884Y023781D01*
X020809Y023856D01*
X020734Y023856D01*
X020659Y023781D01*
X020659Y023631D01*
X020584Y023556D01*
X020509Y023556D01*
X020434Y023631D01*
X020434Y023781D01*
X020509Y023856D01*
X020509Y024017D02*
X020584Y024017D01*
X020659Y024092D01*
X020659Y024242D01*
X020734Y024317D01*
X020809Y024317D01*
X020884Y024242D01*
X020884Y024092D01*
X020809Y024017D01*
X020509Y024017D02*
X020434Y024092D01*
X020434Y024242D01*
X020509Y024317D01*
X020584Y023396D02*
X020434Y023246D01*
X020584Y023096D01*
X020884Y023096D01*
X021559Y025354D02*
X021559Y025655D01*
X021784Y025579D02*
X021334Y025579D01*
X021559Y025354D01*
X023151Y027660D02*
X023301Y027660D01*
X023376Y027735D01*
X023536Y027735D02*
X023611Y027660D01*
X023761Y027660D01*
X023836Y027735D01*
X023836Y027810D01*
X023761Y027885D01*
X023611Y027885D01*
X023536Y027960D01*
X023536Y028035D01*
X023611Y028110D01*
X023761Y028110D01*
X023836Y028035D01*
X023996Y027885D02*
X024297Y027885D01*
X024457Y027660D02*
X024757Y027660D01*
X024917Y027660D02*
X025218Y027660D01*
X025378Y027660D02*
X025603Y027660D01*
X025678Y027735D01*
X025678Y028035D01*
X025603Y028110D01*
X025378Y028110D01*
X025378Y027660D01*
X025067Y027885D02*
X024917Y027885D01*
X024917Y028110D02*
X024917Y027660D01*
X024917Y028110D02*
X025218Y028110D01*
X024457Y028110D02*
X024457Y027660D01*
X023376Y028035D02*
X023301Y028110D01*
X023151Y028110D01*
X023076Y028035D01*
X023076Y027735D01*
X023151Y027660D01*
X027487Y027363D02*
X027487Y027063D01*
X027562Y026988D01*
X027712Y026988D01*
X027787Y027063D01*
X027947Y027063D02*
X028022Y026988D01*
X028172Y026988D01*
X028247Y027063D01*
X028247Y027138D01*
X028172Y027213D01*
X028022Y027213D01*
X027947Y027288D01*
X027947Y027363D01*
X028022Y027438D01*
X028172Y027438D01*
X028247Y027363D01*
X028408Y027213D02*
X028708Y027213D01*
X028868Y027213D02*
X029168Y027213D01*
X029168Y027288D02*
X029168Y026988D01*
X028868Y026988D02*
X028868Y027288D01*
X029018Y027438D01*
X029168Y027288D01*
X029328Y027438D02*
X029629Y027438D01*
X029478Y027438D02*
X029478Y026988D01*
X029789Y027063D02*
X029864Y026988D01*
X030014Y026988D01*
X030089Y027063D01*
X030249Y026988D02*
X030549Y026988D01*
X030399Y026988D02*
X030399Y027438D01*
X030249Y027288D01*
X030089Y027363D02*
X030014Y027438D01*
X029864Y027438D01*
X029789Y027363D01*
X029789Y027063D01*
X027787Y027363D02*
X027712Y027438D01*
X027562Y027438D01*
X027487Y027363D01*
X030801Y031375D02*
X031101Y031375D01*
X031176Y031450D01*
X031176Y031600D01*
X031101Y031675D01*
X031101Y031835D02*
X031176Y031910D01*
X031176Y032060D01*
X031101Y032135D01*
X031026Y032135D01*
X030951Y032060D01*
X030951Y031910D01*
X030876Y031835D01*
X030801Y031835D01*
X030726Y031910D01*
X030726Y032060D01*
X030801Y032135D01*
X030951Y032295D02*
X030951Y032596D01*
X030801Y032756D02*
X031101Y032756D01*
X031176Y032831D01*
X031176Y032981D01*
X031101Y033056D01*
X031026Y033216D02*
X031026Y033441D01*
X030951Y033516D01*
X030801Y033516D01*
X030726Y033441D01*
X030726Y033216D01*
X031176Y033216D01*
X031026Y033366D02*
X031176Y033516D01*
X030801Y033056D02*
X030726Y032981D01*
X030726Y032831D01*
X030801Y032756D01*
X030801Y031675D02*
X030726Y031600D01*
X030726Y031450D01*
X030801Y031375D01*
X030526Y034342D02*
X030226Y034342D01*
X030526Y034642D01*
X030526Y034717D01*
X030451Y034792D01*
X030301Y034792D01*
X030226Y034717D01*
X030066Y034717D02*
X029990Y034792D01*
X029840Y034792D01*
X029765Y034717D01*
X029765Y034417D01*
X029840Y034342D01*
X029990Y034342D01*
X030066Y034417D01*
X029605Y034792D02*
X029305Y034792D01*
X029455Y034792D02*
X029455Y034342D01*
X029145Y034342D02*
X029145Y034642D01*
X028995Y034792D01*
X028844Y034642D01*
X028844Y034342D01*
X028844Y034567D02*
X029145Y034567D01*
X028684Y034567D02*
X028384Y034567D01*
X028224Y034492D02*
X028224Y034417D01*
X028149Y034342D01*
X027999Y034342D01*
X027924Y034417D01*
X027764Y034417D02*
X027688Y034342D01*
X027538Y034342D01*
X027463Y034417D01*
X027463Y034717D01*
X027538Y034792D01*
X027688Y034792D01*
X027764Y034717D01*
X027924Y034717D02*
X027924Y034642D01*
X027999Y034567D01*
X028149Y034567D01*
X028224Y034492D01*
X028224Y034717D02*
X028149Y034792D01*
X027999Y034792D01*
X027924Y034717D01*
X033439Y036034D02*
X033652Y036034D01*
X033864Y036247D01*
X033977Y036133D02*
X033659Y035815D01*
X033871Y035603D01*
X033984Y035489D02*
X034197Y035277D01*
X033984Y035489D02*
X034303Y035808D01*
X034189Y035921D02*
X033977Y036133D01*
X033818Y035974D02*
X033924Y035868D01*
X033439Y036034D02*
X033439Y036247D01*
X033652Y036459D01*
X034924Y037689D02*
X034712Y037901D01*
X034818Y037795D02*
X035137Y038114D01*
X034924Y038114D01*
X036356Y036788D02*
X036462Y036788D01*
X036569Y036682D01*
X036569Y036575D01*
X036515Y036522D01*
X036091Y036522D01*
X036303Y036310D01*
X036328Y031200D02*
X036403Y031125D01*
X036403Y030975D01*
X036328Y030900D01*
X036103Y030900D01*
X036253Y030900D02*
X036403Y030750D01*
X036563Y030975D02*
X036864Y030975D01*
X037024Y030900D02*
X037249Y030900D01*
X037324Y030975D01*
X037324Y031125D01*
X037249Y031200D01*
X037024Y031200D01*
X037024Y030750D01*
X037174Y030900D02*
X037324Y030750D01*
X037484Y030825D02*
X037559Y030750D01*
X037709Y030750D01*
X037784Y030825D01*
X037945Y030750D02*
X038245Y031050D01*
X038245Y031125D01*
X038170Y031200D01*
X038020Y031200D01*
X037945Y031125D01*
X037784Y031125D02*
X037709Y031200D01*
X037559Y031200D01*
X037484Y031125D01*
X037484Y030825D01*
X037945Y030750D02*
X038245Y030750D01*
X036328Y031200D02*
X036103Y031200D01*
X036103Y030750D01*
X035946Y030750D02*
X035796Y030750D01*
X035871Y030750D02*
X035871Y031200D01*
X035796Y031200D02*
X035946Y031200D01*
X034637Y031097D02*
X034637Y030797D01*
X034637Y030947D02*
X034187Y030947D01*
X034337Y030797D01*
X034262Y030637D02*
X034187Y030562D01*
X034187Y030412D01*
X034262Y030337D01*
X034562Y030337D01*
X034637Y030412D01*
X034637Y030562D01*
X034562Y030637D01*
X034637Y030176D02*
X034487Y030026D01*
X034487Y030101D02*
X034487Y029876D01*
X034496Y029740D02*
X034723Y029740D01*
X034610Y029740D02*
X034610Y029400D01*
X034637Y029256D02*
X034487Y029106D01*
X034487Y029181D02*
X034487Y028955D01*
X034637Y028955D02*
X034187Y028955D01*
X034187Y029181D01*
X034262Y029256D01*
X034412Y029256D01*
X034487Y029181D01*
X034412Y029416D02*
X034412Y029716D01*
X034637Y029876D02*
X034187Y029876D01*
X034187Y030101D01*
X034262Y030176D01*
X034412Y030176D01*
X034487Y030101D01*
X034855Y029740D02*
X035082Y029740D01*
X034969Y029740D02*
X034969Y029400D01*
X034637Y028799D02*
X034637Y028648D01*
X034637Y028724D02*
X034187Y028724D01*
X034187Y028799D02*
X034187Y028648D01*
X035647Y027934D02*
X035647Y027708D01*
X035647Y027821D02*
X035987Y027821D01*
X035987Y027462D02*
X035647Y027462D01*
X035647Y027575D02*
X035647Y027348D01*
X060240Y029669D02*
X060242Y029682D01*
X060247Y029695D01*
X060256Y029706D01*
X060267Y029713D01*
X060280Y029718D01*
X060293Y029719D01*
X060307Y029716D01*
X060319Y029710D01*
X060329Y029701D01*
X060336Y029689D01*
X060340Y029676D01*
X060340Y029662D01*
X060336Y029649D01*
X060329Y029637D01*
X060319Y029628D01*
X060307Y029622D01*
X060293Y029619D01*
X060280Y029620D01*
X060267Y029625D01*
X060256Y029632D01*
X060247Y029643D01*
X060242Y029656D01*
X060240Y029669D01*
X060490Y032019D02*
X060490Y032569D01*
X060190Y032869D01*
X009046Y026406D02*
X008415Y025895D01*
X007619Y025740D01*
X007535Y025919D01*
X006870Y027346D01*
X006787Y027525D01*
X007417Y028036D01*
X008214Y028190D01*
X009046Y026406D01*
X007535Y025919D02*
X007479Y025916D01*
X007422Y025917D01*
X007366Y025923D01*
X007310Y025931D01*
X007255Y025944D01*
X007200Y025960D01*
X007147Y025980D01*
X007096Y026004D01*
X007046Y026031D01*
X006998Y026061D01*
X006952Y026094D01*
X006909Y026131D01*
X006868Y026170D01*
X006830Y026212D01*
X006795Y026256D01*
X006762Y026302D01*
X006733Y026351D01*
X006708Y026402D01*
X006686Y026454D01*
X006667Y026507D01*
X006652Y026562D01*
X006641Y026617D01*
X006633Y026673D01*
X006629Y026730D01*
X006630Y026786D01*
X006633Y026843D01*
X006641Y026899D01*
X006653Y026954D01*
X006668Y027009D01*
X006686Y027062D01*
X006709Y027114D01*
X006735Y027165D01*
X006764Y027213D01*
X006796Y027260D01*
X006831Y027304D01*
X006870Y027346D01*
X006902Y027416D02*
X007038Y027479D01*
X006970Y027447D02*
X006779Y027855D01*
X006711Y027824D02*
X006847Y027887D01*
X006989Y027953D02*
X007194Y028049D01*
X007293Y028012D01*
X007357Y027876D01*
X007320Y027777D01*
X007116Y027681D01*
X007180Y027545D02*
X006989Y027953D01*
X007252Y027745D02*
X007452Y027672D01*
X007565Y027808D02*
X007665Y027772D01*
X007801Y027835D01*
X007837Y027935D01*
X007983Y028002D02*
X008082Y027966D01*
X008218Y028030D01*
X008255Y028129D01*
X008191Y028265D01*
X008092Y028302D01*
X008024Y028270D01*
X007919Y028139D01*
X007824Y028343D01*
X008096Y028470D01*
X008241Y028537D02*
X008432Y028129D01*
X008704Y028256D01*
X007711Y028207D02*
X007611Y028243D01*
X007475Y028180D01*
X007438Y028080D01*
X007565Y027808D01*
X004227Y042426D02*
X003439Y042623D01*
X003439Y042820D01*
X003439Y044395D01*
X003439Y044592D01*
X004227Y044789D01*
X005014Y044592D01*
X005014Y042623D01*
X004227Y042426D01*
X003439Y042821D02*
X003386Y042842D01*
X003336Y042867D01*
X003287Y042896D01*
X003240Y042928D01*
X003195Y042962D01*
X003153Y043000D01*
X003113Y043041D01*
X003077Y043084D01*
X003043Y043129D01*
X003012Y043177D01*
X002985Y043226D01*
X002961Y043277D01*
X002940Y043330D01*
X002923Y043384D01*
X002910Y043439D01*
X002901Y043495D01*
X002895Y043551D01*
X002893Y043608D01*
X002895Y043665D01*
X002901Y043721D01*
X002910Y043777D01*
X002923Y043832D01*
X002940Y043886D01*
X002961Y043939D01*
X002985Y043990D01*
X003012Y044039D01*
X003043Y044087D01*
X003077Y044132D01*
X003113Y044175D01*
X003153Y044216D01*
X003195Y044254D01*
X003240Y044288D01*
X003287Y044320D01*
X003336Y044349D01*
X003386Y044374D01*
X003439Y044395D01*
X003527Y044608D02*
X003677Y044608D01*
X003602Y044608D02*
X003602Y045058D01*
X003527Y045058D02*
X003677Y045058D01*
X003834Y045058D02*
X004059Y045058D01*
X004134Y044983D01*
X004134Y044833D01*
X004059Y044758D01*
X003834Y044758D01*
X003984Y044758D02*
X004134Y044608D01*
X004294Y044683D02*
X004369Y044608D01*
X004519Y044608D01*
X004595Y044683D01*
X004755Y044833D02*
X005055Y044833D01*
X004980Y044608D02*
X004980Y045058D01*
X004755Y044833D01*
X004595Y044983D02*
X004519Y045058D01*
X004369Y045058D01*
X004294Y044983D01*
X004294Y044683D01*
X003834Y044608D02*
X003834Y045058D01*
X005215Y045058D02*
X005215Y044608D01*
X005515Y044608D01*
D13*
X026714Y023205D02*
X027027Y022891D01*
X026871Y022891D02*
X026871Y023205D01*
X027027Y023205D02*
X026714Y022891D01*
X026714Y023048D02*
X027027Y023048D01*
X057527Y059665D02*
X057841Y059978D01*
X057841Y059821D02*
X057527Y059821D01*
X057527Y059978D02*
X057841Y059665D01*
X057684Y059665D02*
X057684Y059978D01*
D14*
X064471Y064470D02*
X064471Y065970D01*
X072884Y062742D02*
X072884Y062248D01*
X072884Y062495D02*
X073624Y062495D01*
X073624Y061987D02*
X073131Y061987D01*
X072884Y061740D01*
X073131Y061493D01*
X073624Y061493D01*
X073254Y061493D02*
X073254Y061987D01*
X073254Y061232D02*
X073254Y060738D01*
X073254Y060477D02*
X073378Y060353D01*
X073378Y059983D01*
X073624Y059983D02*
X072884Y059983D01*
X072884Y060353D01*
X073007Y060477D01*
X073254Y060477D01*
X073378Y060230D02*
X073624Y060477D01*
X073624Y059726D02*
X073624Y059480D01*
X073624Y059603D02*
X072884Y059603D01*
X072884Y059480D02*
X072884Y059726D01*
X051954Y044729D02*
X051954Y042485D01*
X051363Y042485D01*
X051351Y042506D01*
X051336Y042525D01*
X051319Y042543D01*
X051299Y042557D01*
X051277Y042569D01*
X051254Y042577D01*
X051230Y042582D01*
X051206Y042584D01*
X051182Y042582D01*
X051158Y042577D01*
X051135Y042569D01*
X051113Y042557D01*
X051093Y042543D01*
X051076Y042525D01*
X051061Y042506D01*
X051049Y042485D01*
X051048Y042485D02*
X050457Y042485D01*
X050457Y044729D01*
X051048Y044729D01*
X051049Y044729D02*
X051061Y044708D01*
X051076Y044689D01*
X051093Y044671D01*
X051113Y044657D01*
X051135Y044645D01*
X051158Y044637D01*
X051182Y044632D01*
X051206Y044630D01*
X051230Y044632D01*
X051254Y044637D01*
X051277Y044645D01*
X051299Y044657D01*
X051319Y044671D01*
X051336Y044689D01*
X051351Y044708D01*
X051363Y044729D01*
X051954Y044729D01*
X044729Y050457D02*
X044729Y051048D01*
X044729Y051049D02*
X044708Y051061D01*
X044689Y051076D01*
X044671Y051093D01*
X044657Y051113D01*
X044645Y051135D01*
X044637Y051158D01*
X044632Y051182D01*
X044630Y051206D01*
X044632Y051230D01*
X044637Y051254D01*
X044645Y051277D01*
X044657Y051299D01*
X044671Y051319D01*
X044689Y051336D01*
X044708Y051351D01*
X044729Y051363D01*
X044729Y051954D01*
X042485Y051954D01*
X042485Y051363D01*
X042506Y051351D01*
X042525Y051336D01*
X042543Y051319D01*
X042557Y051299D01*
X042569Y051277D01*
X042577Y051254D01*
X042582Y051230D01*
X042584Y051206D01*
X042582Y051182D01*
X042577Y051158D01*
X042569Y051135D01*
X042557Y051113D01*
X042543Y051093D01*
X042525Y051076D01*
X042506Y051061D01*
X042485Y051049D01*
X042485Y051048D02*
X042485Y050457D01*
X044729Y050457D01*
X036757Y044729D02*
X036757Y042485D01*
X036166Y042485D01*
X036154Y042506D01*
X036139Y042525D01*
X036122Y042543D01*
X036102Y042557D01*
X036080Y042569D01*
X036057Y042577D01*
X036033Y042582D01*
X036009Y042584D01*
X035985Y042582D01*
X035961Y042577D01*
X035938Y042569D01*
X035916Y042557D01*
X035896Y042543D01*
X035879Y042525D01*
X035864Y042506D01*
X035852Y042485D01*
X035851Y042485D02*
X035261Y042485D01*
X035261Y044729D01*
X035851Y044729D01*
X035852Y044729D02*
X035864Y044708D01*
X035879Y044689D01*
X035896Y044671D01*
X035916Y044657D01*
X035938Y044645D01*
X035961Y044637D01*
X035985Y044632D01*
X036009Y044630D01*
X036033Y044632D01*
X036057Y044637D01*
X036080Y044645D01*
X036102Y044657D01*
X036122Y044671D01*
X036139Y044689D01*
X036154Y044708D01*
X036166Y044729D01*
X036757Y044729D01*
X042485Y036757D02*
X042485Y036166D01*
X042506Y036154D01*
X042525Y036139D01*
X042543Y036122D01*
X042557Y036102D01*
X042569Y036080D01*
X042577Y036057D01*
X042582Y036033D01*
X042584Y036009D01*
X042582Y035985D01*
X042577Y035961D01*
X042569Y035938D01*
X042557Y035916D01*
X042543Y035896D01*
X042525Y035879D01*
X042506Y035864D01*
X042485Y035852D01*
X042485Y035851D02*
X042485Y035261D01*
X044729Y035261D01*
X044729Y035851D01*
X044729Y035852D02*
X044708Y035864D01*
X044689Y035879D01*
X044671Y035896D01*
X044657Y035916D01*
X044645Y035938D01*
X044637Y035961D01*
X044632Y035985D01*
X044630Y036009D01*
X044632Y036033D01*
X044637Y036057D01*
X044645Y036080D01*
X044657Y036102D01*
X044671Y036122D01*
X044689Y036139D01*
X044708Y036154D01*
X044729Y036166D01*
X044729Y036757D01*
X042485Y036757D01*
X034004Y024714D02*
X031760Y024714D01*
X031760Y024123D01*
X031761Y024123D02*
X031782Y024111D01*
X031801Y024096D01*
X031819Y024079D01*
X031833Y024059D01*
X031845Y024037D01*
X031853Y024014D01*
X031858Y023990D01*
X031860Y023966D01*
X031858Y023942D01*
X031853Y023918D01*
X031845Y023895D01*
X031833Y023873D01*
X031819Y023853D01*
X031801Y023836D01*
X031782Y023821D01*
X031761Y023809D01*
X031760Y023808D02*
X031760Y023218D01*
X034004Y023218D01*
X034004Y023808D01*
X034004Y023809D02*
X033983Y023821D01*
X033964Y023836D01*
X033946Y023853D01*
X033932Y023873D01*
X033920Y023895D01*
X033912Y023918D01*
X033907Y023942D01*
X033905Y023966D01*
X033907Y023990D01*
X033912Y024014D01*
X033920Y024037D01*
X033932Y024059D01*
X033946Y024079D01*
X033964Y024096D01*
X033983Y024111D01*
X034004Y024123D01*
X034004Y024714D01*
X022801Y026675D02*
X022801Y028175D01*
X023698Y038247D02*
X024192Y038247D01*
X023945Y038247D02*
X023945Y038988D01*
X024453Y038988D02*
X024453Y038494D01*
X024700Y038247D01*
X024947Y038494D01*
X024947Y038988D01*
X024947Y038618D02*
X024453Y038618D01*
X025208Y038618D02*
X025702Y038618D01*
X025964Y038741D02*
X025964Y038865D01*
X026087Y038988D01*
X026334Y038988D01*
X026457Y038865D01*
X026719Y038865D02*
X026842Y038988D01*
X027089Y038988D01*
X027212Y038865D01*
X027212Y038371D01*
X027089Y038247D01*
X026842Y038247D01*
X026719Y038371D01*
X026457Y038371D02*
X026457Y038494D01*
X026334Y038618D01*
X026087Y038618D01*
X025964Y038741D01*
X025964Y038371D02*
X026087Y038247D01*
X026334Y038247D01*
X026457Y038371D01*
D15*
X029831Y035667D02*
X029831Y035067D01*
X030081Y035067D02*
X030081Y035667D01*
X030105Y028313D02*
X030105Y027713D01*
X029855Y027713D02*
X029855Y028313D01*
X017513Y015098D02*
X017053Y015484D01*
X016893Y015292D02*
X017352Y014906D01*
X007994Y028725D02*
X007741Y029269D01*
X007514Y029163D02*
X007768Y028619D01*
X005070Y045333D02*
X005070Y045933D01*
X004820Y045933D02*
X004820Y045333D01*
X009524Y061264D02*
X009777Y061808D01*
X009551Y061914D02*
X009297Y061370D01*
X019958Y074107D02*
X020418Y074493D01*
X020257Y074685D02*
X019798Y074299D01*
X033413Y069178D02*
X034013Y069178D01*
X034013Y068928D02*
X033413Y068928D01*
X045094Y064118D02*
X045694Y064118D01*
X045694Y063868D02*
X045094Y063868D01*
X056951Y068708D02*
X057551Y068708D01*
X057551Y068958D02*
X056951Y068958D01*
X069753Y072155D02*
X070212Y071769D01*
X070373Y071961D02*
X069914Y072346D01*
X079374Y058367D02*
X079628Y057823D01*
X079854Y057929D02*
X079601Y058472D01*
X068575Y054853D02*
X068575Y054253D01*
X068325Y054253D02*
X068325Y054853D01*
X065835Y054648D02*
X065835Y054048D01*
X065585Y054048D02*
X065585Y054648D01*
X077655Y025874D02*
X077401Y025330D01*
X077628Y025225D02*
X077881Y025769D01*
X067107Y013048D02*
X066648Y012662D01*
X066808Y012471D02*
X067268Y012856D01*
X049966Y006031D02*
X049366Y006031D01*
X049366Y005781D02*
X049966Y005781D01*
X034243Y005826D02*
X033643Y005826D01*
X033643Y006076D02*
X034243Y006076D01*
D16*
X022801Y026675D02*
X022758Y026621D01*
X022712Y026569D01*
X022663Y026520D01*
X022611Y026473D01*
X022557Y026430D01*
X022501Y026389D01*
X022442Y026352D01*
X022382Y026318D01*
X022319Y026288D01*
X022256Y026261D01*
X022190Y026237D01*
X022124Y026217D01*
X022056Y026201D01*
X021988Y026189D01*
X021919Y026181D01*
X021850Y026176D01*
X021780Y026175D01*
X021711Y026178D01*
X021642Y026185D01*
X021574Y026196D01*
X021506Y026210D01*
X021439Y026229D01*
X021373Y026251D01*
X021308Y026276D01*
X021245Y026305D01*
X021184Y026338D01*
X021125Y026374D01*
X021068Y026413D01*
X021012Y026455D01*
X020960Y026500D01*
X020910Y026548D01*
X020863Y026599D01*
X020818Y026653D01*
X020777Y026708D01*
X020739Y026766D01*
X020704Y026826D01*
X020672Y026888D01*
X020644Y026951D01*
X020620Y027016D01*
X020599Y027082D01*
X020582Y027150D01*
X020568Y027218D01*
X020559Y027287D01*
X020553Y027356D01*
X020551Y027425D01*
X020553Y027494D01*
X020559Y027563D01*
X020568Y027632D01*
X020582Y027700D01*
X020599Y027768D01*
X020620Y027834D01*
X020644Y027899D01*
X020672Y027962D01*
X020704Y028024D01*
X020739Y028084D01*
X020777Y028142D01*
X020818Y028197D01*
X020863Y028251D01*
X020910Y028302D01*
X020960Y028350D01*
X021012Y028395D01*
X021068Y028437D01*
X021125Y028476D01*
X021184Y028512D01*
X021245Y028545D01*
X021308Y028574D01*
X021373Y028599D01*
X021439Y028621D01*
X021506Y028640D01*
X021574Y028654D01*
X021642Y028665D01*
X021711Y028672D01*
X021780Y028675D01*
X021850Y028674D01*
X021919Y028669D01*
X021988Y028661D01*
X022056Y028649D01*
X022124Y028633D01*
X022190Y028613D01*
X022256Y028589D01*
X022319Y028562D01*
X022382Y028532D01*
X022442Y028498D01*
X022501Y028461D01*
X022557Y028420D01*
X022611Y028377D01*
X022663Y028330D01*
X022712Y028281D01*
X022758Y028229D01*
X022801Y028175D01*
X064471Y064470D02*
X064514Y064416D01*
X064560Y064364D01*
X064609Y064315D01*
X064661Y064268D01*
X064715Y064225D01*
X064771Y064184D01*
X064830Y064147D01*
X064890Y064113D01*
X064953Y064083D01*
X065016Y064056D01*
X065082Y064032D01*
X065148Y064012D01*
X065216Y063996D01*
X065284Y063984D01*
X065353Y063976D01*
X065422Y063971D01*
X065492Y063970D01*
X065561Y063973D01*
X065630Y063980D01*
X065698Y063991D01*
X065766Y064005D01*
X065833Y064024D01*
X065899Y064046D01*
X065964Y064071D01*
X066027Y064100D01*
X066088Y064133D01*
X066147Y064169D01*
X066204Y064208D01*
X066260Y064250D01*
X066312Y064295D01*
X066362Y064343D01*
X066409Y064394D01*
X066454Y064448D01*
X066495Y064503D01*
X066533Y064561D01*
X066568Y064621D01*
X066600Y064683D01*
X066628Y064746D01*
X066652Y064811D01*
X066673Y064877D01*
X066690Y064945D01*
X066704Y065013D01*
X066713Y065082D01*
X066719Y065151D01*
X066721Y065220D01*
X066719Y065289D01*
X066713Y065358D01*
X066704Y065427D01*
X066690Y065495D01*
X066673Y065563D01*
X066652Y065629D01*
X066628Y065694D01*
X066600Y065757D01*
X066568Y065819D01*
X066533Y065879D01*
X066495Y065937D01*
X066454Y065992D01*
X066409Y066046D01*
X066362Y066097D01*
X066312Y066145D01*
X066260Y066190D01*
X066204Y066232D01*
X066147Y066271D01*
X066088Y066307D01*
X066027Y066340D01*
X065964Y066369D01*
X065899Y066394D01*
X065833Y066416D01*
X065766Y066435D01*
X065698Y066449D01*
X065630Y066460D01*
X065561Y066467D01*
X065492Y066470D01*
X065422Y066469D01*
X065353Y066464D01*
X065284Y066456D01*
X065216Y066444D01*
X065148Y066428D01*
X065082Y066408D01*
X065016Y066384D01*
X064953Y066357D01*
X064890Y066327D01*
X064830Y066293D01*
X064771Y066256D01*
X064715Y066215D01*
X064661Y066172D01*
X064609Y066125D01*
X064560Y066076D01*
X064514Y066024D01*
X064471Y065970D01*
D17*
X067863Y065983D02*
X067922Y065925D01*
X067863Y065983D02*
X067863Y066100D01*
X067922Y066158D01*
X067980Y066158D01*
X068214Y065925D01*
X068214Y066158D01*
X068214Y065799D02*
X068097Y065682D01*
X068097Y065741D02*
X068097Y065566D01*
X068214Y065566D02*
X067863Y065566D01*
X067863Y065741D01*
X067922Y065799D01*
X068039Y065799D01*
X068097Y065741D01*
X068039Y065440D02*
X068039Y065207D01*
X068039Y065081D02*
X068097Y065023D01*
X068097Y064847D01*
X068214Y064847D02*
X067863Y064847D01*
X067863Y065023D01*
X067922Y065081D01*
X068039Y065081D01*
X068097Y064964D02*
X068214Y065081D01*
X068214Y064725D02*
X068214Y064608D01*
X068214Y064666D02*
X067863Y064666D01*
X067863Y064608D02*
X067863Y064725D01*
X069961Y058135D02*
X070311Y058135D01*
X070311Y058251D02*
X070311Y058018D01*
X070311Y057892D02*
X070194Y057776D01*
X070194Y057834D02*
X070194Y057659D01*
X070311Y057659D02*
X069961Y057659D01*
X069961Y057834D01*
X070019Y057892D01*
X070136Y057892D01*
X070194Y057834D01*
X070078Y058018D02*
X069961Y058135D01*
X070136Y057533D02*
X070136Y057300D01*
X070136Y057174D02*
X070194Y057116D01*
X070194Y056941D01*
X070194Y057057D02*
X070311Y057174D01*
X070136Y057174D02*
X070019Y057174D01*
X069961Y057116D01*
X069961Y056941D01*
X070311Y056941D01*
X070311Y056818D02*
X070311Y056701D01*
X070311Y056760D02*
X069961Y056760D01*
X069961Y056818D02*
X069961Y056701D01*
X077124Y060010D02*
X077441Y060158D01*
X077417Y060211D02*
X077466Y060105D01*
X077518Y059994D02*
X077592Y059835D01*
X077564Y059757D01*
X077458Y059708D01*
X077380Y059736D01*
X077306Y059895D01*
X077200Y059846D02*
X077518Y059994D01*
X077356Y059789D02*
X077299Y059634D01*
X077352Y059520D02*
X077670Y059668D01*
X077744Y059509D01*
X077716Y059432D01*
X077610Y059383D01*
X077532Y059411D01*
X077458Y059570D01*
X077507Y059464D02*
X077451Y059309D01*
X077557Y059219D02*
X077529Y059142D01*
X077578Y059036D01*
X077656Y059008D01*
X077709Y059032D01*
X077737Y059110D01*
X077712Y059163D01*
X077737Y059110D02*
X077814Y059082D01*
X077867Y059106D01*
X077896Y059184D01*
X077846Y059290D01*
X077769Y059318D01*
X077973Y059017D02*
X078047Y058859D01*
X078019Y058781D01*
X077913Y058732D01*
X077836Y058760D01*
X077762Y058919D01*
X077811Y058813D02*
X077754Y058658D01*
X077656Y058869D02*
X077973Y059017D01*
X077149Y059957D02*
X077099Y060063D01*
X068017Y071763D02*
X068002Y071928D01*
X068047Y071890D02*
X067913Y072003D01*
X067838Y071913D02*
X068063Y072182D01*
X068197Y072069D01*
X068205Y071987D01*
X068129Y071897D01*
X068047Y071890D01*
X067742Y071994D02*
X067563Y072144D01*
X067892Y072173D01*
X067929Y072218D01*
X067922Y072300D01*
X067833Y072375D01*
X067751Y072368D01*
X067654Y072448D02*
X067579Y072359D01*
X067497Y072352D01*
X067363Y072464D01*
X067452Y072389D02*
X067467Y072225D01*
X067288Y072375D02*
X067513Y072643D01*
X067647Y072531D01*
X067654Y072448D01*
X067379Y072679D02*
X067304Y072590D01*
X067222Y072583D01*
X067088Y072695D01*
X067177Y072620D02*
X067192Y072456D01*
X067013Y072606D02*
X067238Y072874D01*
X067372Y072762D01*
X067379Y072679D01*
X067144Y072953D02*
X067054Y073028D01*
X067099Y072991D02*
X066874Y072722D01*
X066829Y072760D02*
X066919Y072685D01*
X056104Y067780D02*
X056104Y067663D01*
X056045Y067605D01*
X055870Y067605D01*
X055870Y067488D02*
X055870Y067839D01*
X056045Y067839D01*
X056104Y067780D01*
X055987Y067605D02*
X056104Y067488D01*
X055745Y067488D02*
X055511Y067488D01*
X055628Y067488D02*
X055628Y067839D01*
X055511Y067722D01*
X055386Y067780D02*
X055386Y067663D01*
X055327Y067605D01*
X055152Y067605D01*
X055152Y067488D02*
X055152Y067839D01*
X055327Y067839D01*
X055386Y067780D01*
X055269Y067605D02*
X055386Y067488D01*
X055026Y067488D02*
X054910Y067605D01*
X054968Y067605D02*
X054793Y067605D01*
X054793Y067488D02*
X054793Y067839D01*
X054968Y067839D01*
X055026Y067780D01*
X055026Y067663D01*
X054968Y067605D01*
X054670Y067488D02*
X054554Y067488D01*
X054612Y067488D02*
X054612Y067839D01*
X054554Y067839D02*
X054670Y067839D01*
X044606Y064324D02*
X044606Y063974D01*
X044489Y063974D02*
X044723Y063974D01*
X044489Y064208D02*
X044606Y064324D01*
X044364Y064266D02*
X044364Y064149D01*
X044305Y064091D01*
X044130Y064091D01*
X044247Y064091D02*
X044364Y063974D01*
X044130Y063974D02*
X044130Y064324D01*
X044305Y064324D01*
X044364Y064266D01*
X044005Y064149D02*
X043771Y064149D01*
X043946Y064324D01*
X043946Y063974D01*
X043645Y063974D02*
X043529Y064091D01*
X043587Y064091D02*
X043412Y064091D01*
X043412Y063974D02*
X043412Y064324D01*
X043587Y064324D01*
X043645Y064266D01*
X043645Y064149D01*
X043587Y064091D01*
X043286Y064149D02*
X043228Y064091D01*
X043053Y064091D01*
X043170Y064091D02*
X043286Y063974D01*
X043286Y064149D02*
X043286Y064266D01*
X043228Y064324D01*
X043053Y064324D01*
X043053Y063974D01*
X042930Y063974D02*
X042813Y063974D01*
X042872Y063974D02*
X042872Y064324D01*
X042930Y064324D02*
X042813Y064324D01*
X032485Y067502D02*
X032252Y067502D01*
X032252Y067852D01*
X032009Y067852D02*
X032009Y067502D01*
X031893Y067502D02*
X032126Y067502D01*
X031893Y067735D02*
X032009Y067852D01*
X031767Y067794D02*
X031767Y067677D01*
X031709Y067618D01*
X031534Y067618D01*
X031650Y067618D02*
X031767Y067502D01*
X031534Y067502D02*
X031534Y067852D01*
X031709Y067852D01*
X031767Y067794D01*
X031408Y067794D02*
X031408Y067677D01*
X031350Y067618D01*
X031174Y067618D01*
X031174Y067502D02*
X031174Y067852D01*
X031350Y067852D01*
X031408Y067794D01*
X031291Y067618D02*
X031408Y067502D01*
X031052Y067502D02*
X030935Y067502D01*
X030993Y067502D02*
X030993Y067852D01*
X030935Y067852D02*
X031052Y067852D01*
X020150Y072585D02*
X019971Y072435D01*
X019746Y072703D01*
X019687Y072578D02*
X019605Y072585D01*
X019515Y072510D01*
X019508Y072428D01*
X019412Y072347D02*
X019487Y072257D01*
X019480Y072175D01*
X019346Y072063D01*
X019435Y072138D02*
X019600Y072123D01*
X019696Y072204D02*
X019725Y072533D01*
X019687Y072578D01*
X019875Y072354D02*
X019696Y072204D01*
X019412Y072347D02*
X019330Y072354D01*
X019196Y072242D01*
X019421Y071973D01*
X019325Y071892D02*
X019160Y071907D01*
X019205Y071944D02*
X019071Y071832D01*
X019146Y071742D02*
X018921Y072011D01*
X019055Y072123D01*
X019137Y072116D01*
X019212Y072027D01*
X019205Y071944D01*
X019052Y071664D02*
X018962Y071588D01*
X019007Y071626D02*
X018782Y071894D01*
X018737Y071857D02*
X018827Y071932D01*
X019375Y062332D02*
X019299Y062255D01*
X019299Y062101D01*
X019375Y062025D01*
X019529Y062025D01*
X019606Y062101D01*
X019606Y062255D01*
X019529Y062332D01*
X019375Y062332D01*
X019299Y061871D02*
X019299Y061794D01*
X019452Y061641D01*
X019299Y061641D02*
X019606Y061641D01*
X019606Y061487D02*
X019606Y061257D01*
X019529Y061181D01*
X019375Y061181D01*
X019299Y061257D01*
X019299Y061487D01*
X019299Y060950D02*
X019606Y060950D01*
X019606Y060874D02*
X019606Y061027D01*
X019606Y060720D02*
X019145Y060720D01*
X019299Y060567D01*
X019145Y060413D01*
X019606Y060413D01*
X019895Y060643D02*
X020356Y060643D01*
X020356Y060413D01*
X020279Y060336D01*
X020125Y060336D01*
X020049Y060413D01*
X020049Y060643D01*
X020049Y060797D02*
X020279Y060797D01*
X020356Y060874D01*
X020356Y061104D01*
X020049Y061104D01*
X020049Y061257D02*
X020049Y061334D01*
X020356Y061334D01*
X020356Y061257D02*
X020356Y061411D01*
X020356Y061564D02*
X020049Y061564D01*
X020049Y061794D01*
X020125Y061871D01*
X020356Y061871D01*
X020279Y062025D02*
X020356Y062101D01*
X020356Y062255D01*
X020279Y062332D01*
X020125Y062332D01*
X020049Y062255D01*
X020049Y062101D01*
X020125Y062025D01*
X020279Y062025D01*
X019895Y061334D02*
X019818Y061334D01*
X019299Y060950D02*
X019299Y060874D01*
X019145Y060950D02*
X019068Y060950D01*
X020049Y060183D02*
X020049Y060106D01*
X020202Y059953D01*
X020049Y059953D02*
X020356Y059953D01*
X020356Y059799D02*
X020049Y059799D01*
X019895Y059646D01*
X020049Y059492D01*
X020356Y059492D01*
X020125Y059492D02*
X020125Y059799D01*
X018623Y055085D02*
X018700Y055009D01*
X018700Y054855D01*
X018623Y054778D01*
X018393Y054778D01*
X018393Y054625D02*
X018393Y055085D01*
X018623Y055085D01*
X018240Y055009D02*
X018163Y055085D01*
X018010Y055085D01*
X017933Y055009D01*
X017933Y054932D01*
X018010Y054855D01*
X018163Y054855D01*
X018240Y054778D01*
X018240Y054702D01*
X018163Y054625D01*
X018010Y054625D01*
X017933Y054702D01*
X017779Y054702D02*
X017703Y054625D01*
X017549Y054625D01*
X017472Y054702D01*
X017472Y055009D01*
X017549Y055085D01*
X017703Y055085D01*
X017779Y055009D01*
X017319Y055085D02*
X017166Y055085D01*
X017242Y055085D02*
X017242Y054625D01*
X017166Y054625D02*
X017319Y054625D01*
X009689Y058992D02*
X009534Y058935D01*
X009559Y058988D02*
X009485Y058830D01*
X009590Y058780D02*
X009273Y058928D01*
X009347Y059087D01*
X009424Y059115D01*
X009530Y059066D01*
X009559Y058988D01*
X009636Y059155D02*
X009710Y059314D01*
X009682Y059391D01*
X009576Y059441D01*
X009499Y059413D01*
X009425Y059254D01*
X009742Y059106D01*
X009686Y059261D02*
X009841Y059317D01*
X009841Y059456D02*
X009919Y059484D01*
X009968Y059590D01*
X009940Y059668D01*
X009887Y059692D01*
X009809Y059664D01*
X009785Y059611D01*
X009809Y059664D02*
X009781Y059742D01*
X009728Y059766D01*
X009650Y059738D01*
X009601Y059632D01*
X009629Y059555D01*
X009728Y059905D02*
X010046Y059757D01*
X010144Y059968D01*
X009539Y058669D02*
X009489Y058563D01*
X009514Y058616D02*
X009196Y058764D01*
X009172Y058711D02*
X009221Y058817D01*
X006317Y044273D02*
X006317Y044040D01*
X005967Y044040D01*
X005967Y043856D02*
X006142Y043681D01*
X006142Y043914D01*
X006317Y043856D02*
X005967Y043856D01*
X006025Y043555D02*
X006142Y043555D01*
X006200Y043497D01*
X006200Y043322D01*
X006200Y043438D02*
X006317Y043555D01*
X006317Y043322D02*
X005967Y043322D01*
X005967Y043497D01*
X006025Y043555D01*
X006025Y043196D02*
X006142Y043196D01*
X006200Y043138D01*
X006200Y042962D01*
X006317Y042962D02*
X005967Y042962D01*
X005967Y043138D01*
X006025Y043196D01*
X006200Y043079D02*
X006317Y043196D01*
X006317Y042840D02*
X006317Y042723D01*
X006317Y042781D02*
X005967Y042781D01*
X005967Y042723D02*
X005967Y042840D01*
X008455Y028202D02*
X008504Y028096D01*
X008480Y028149D02*
X008162Y028001D01*
X008138Y028054D02*
X008187Y027948D01*
X008239Y027837D02*
X008556Y027985D01*
X008630Y027826D01*
X008602Y027748D01*
X008496Y027699D01*
X008419Y027727D01*
X008345Y027886D01*
X008394Y027780D02*
X008337Y027625D01*
X008390Y027511D02*
X008708Y027659D01*
X008782Y027501D01*
X008754Y027423D01*
X008648Y027374D01*
X008570Y027402D01*
X008496Y027561D01*
X008546Y027455D02*
X008489Y027300D01*
X008595Y027210D02*
X008567Y027133D01*
X008616Y027027D01*
X008694Y026999D01*
X008800Y027048D01*
X008828Y027126D01*
X008803Y027179D01*
X008701Y027260D01*
X008860Y027334D01*
X008958Y027122D01*
X009011Y027008D02*
X008694Y026860D01*
X008793Y026649D01*
X021581Y030290D02*
X021639Y030231D01*
X021873Y030231D01*
X021931Y030290D01*
X021931Y030407D01*
X021873Y030465D01*
X021873Y030591D02*
X021931Y030649D01*
X021931Y030766D01*
X021873Y030824D01*
X021814Y030824D01*
X021756Y030766D01*
X021756Y030649D01*
X021697Y030591D01*
X021639Y030591D01*
X021581Y030649D01*
X021581Y030766D01*
X021639Y030824D01*
X021756Y030950D02*
X021756Y031183D01*
X021814Y031309D02*
X021814Y031484D01*
X021756Y031542D01*
X021639Y031542D01*
X021581Y031484D01*
X021581Y031309D01*
X021931Y031309D01*
X021814Y031426D02*
X021931Y031542D01*
X021931Y031668D02*
X021697Y031901D01*
X021639Y031901D01*
X021581Y031843D01*
X021581Y031726D01*
X021639Y031668D01*
X021931Y031668D02*
X021931Y031901D01*
X021639Y030465D02*
X021581Y030407D01*
X021581Y030290D01*
X028798Y027388D02*
X029148Y027388D01*
X029148Y027271D02*
X029148Y027505D01*
X028914Y027271D02*
X028798Y027388D01*
X028856Y027146D02*
X028973Y027146D01*
X029031Y027087D01*
X029031Y026912D01*
X029031Y027029D02*
X029148Y027146D01*
X029148Y026912D02*
X028798Y026912D01*
X028798Y027087D01*
X028856Y027146D01*
X028973Y026787D02*
X028973Y026553D01*
X029031Y026427D02*
X029090Y026427D01*
X029148Y026369D01*
X029148Y026252D01*
X029090Y026194D01*
X029090Y026068D02*
X029148Y026010D01*
X029148Y025893D01*
X029090Y025835D01*
X028856Y025835D01*
X028798Y025893D01*
X028798Y026010D01*
X028856Y026068D01*
X028856Y026194D02*
X028914Y026194D01*
X028973Y026252D01*
X028973Y026369D01*
X029031Y026427D01*
X028856Y026427D02*
X028798Y026369D01*
X028798Y026252D01*
X028856Y026194D01*
X031871Y022946D02*
X032178Y022946D01*
X032331Y022946D02*
X032638Y022486D01*
X032331Y022486D02*
X032638Y022946D01*
X032792Y022946D02*
X033099Y022946D01*
X032945Y022946D02*
X032945Y022486D01*
X032024Y022486D02*
X032024Y022946D01*
X020098Y014699D02*
X019873Y014431D01*
X020052Y014281D01*
X019814Y014556D02*
X019852Y014601D01*
X019844Y014683D01*
X019710Y014796D01*
X019635Y014706D01*
X019642Y014624D01*
X019732Y014549D01*
X019814Y014556D01*
X019875Y014810D02*
X019710Y014796D01*
X019614Y014877D02*
X019532Y014869D01*
X019398Y014982D01*
X019487Y014907D02*
X019501Y014742D01*
X019614Y014877D02*
X019689Y014966D01*
X019682Y015048D01*
X019548Y015161D01*
X019322Y014892D01*
X019226Y014973D02*
X019212Y015138D01*
X019257Y015100D02*
X019122Y015213D01*
X019047Y015123D02*
X019273Y015392D01*
X019407Y015279D01*
X019414Y015197D01*
X019339Y015107D01*
X019257Y015100D01*
X018953Y015202D02*
X018864Y015277D01*
X018909Y015240D02*
X019134Y015508D01*
X019089Y015546D02*
X019179Y015471D01*
X019875Y014810D02*
X020002Y014780D01*
X035012Y007176D02*
X035129Y007176D01*
X035071Y007176D02*
X035071Y006826D01*
X035129Y006826D02*
X035012Y006826D01*
X035252Y006826D02*
X035252Y007176D01*
X035427Y007176D01*
X035485Y007118D01*
X035485Y007001D01*
X035427Y006943D01*
X035252Y006943D01*
X035369Y006943D02*
X035485Y006826D01*
X035611Y006826D02*
X035611Y007176D01*
X035786Y007176D01*
X035844Y007118D01*
X035844Y007001D01*
X035786Y006943D01*
X035611Y006943D01*
X035728Y006943D02*
X035844Y006826D01*
X035970Y006826D02*
X035970Y006884D01*
X036204Y007118D01*
X036204Y007176D01*
X035970Y007176D01*
X036329Y007176D02*
X036329Y006826D01*
X036563Y006826D01*
X050731Y006766D02*
X050848Y006766D01*
X050790Y006766D02*
X050790Y007117D01*
X050848Y007117D02*
X050731Y007117D01*
X050971Y007117D02*
X051146Y007117D01*
X051204Y007058D01*
X051204Y006942D01*
X051146Y006883D01*
X050971Y006883D01*
X051087Y006883D02*
X051204Y006766D01*
X051330Y006766D02*
X051330Y007117D01*
X051505Y007117D01*
X051563Y007058D01*
X051563Y006942D01*
X051505Y006883D01*
X051330Y006883D01*
X051447Y006883D02*
X051563Y006766D01*
X051689Y006766D02*
X051689Y006825D01*
X051922Y007058D01*
X051922Y007117D01*
X051689Y007117D01*
X052048Y007117D02*
X052223Y007117D01*
X052282Y007058D01*
X052282Y006942D01*
X052223Y006883D01*
X052048Y006883D01*
X052048Y006766D02*
X052048Y007117D01*
X052165Y006883D02*
X052282Y006766D01*
X050971Y006766D02*
X050971Y007117D01*
X056963Y021789D02*
X056810Y021942D01*
X056963Y022096D01*
X057270Y022096D01*
X057270Y022249D02*
X056963Y022249D01*
X057116Y022249D02*
X056963Y022403D01*
X056963Y022479D01*
X057040Y022633D02*
X056963Y022710D01*
X056963Y022940D01*
X056963Y023093D02*
X057193Y023093D01*
X057270Y023170D01*
X057270Y023400D01*
X056963Y023400D01*
X056963Y023554D02*
X056963Y023630D01*
X057270Y023630D01*
X057270Y023554D02*
X057270Y023707D01*
X057270Y023861D02*
X056963Y023861D01*
X056963Y024091D01*
X057040Y024168D01*
X057270Y024168D01*
X057193Y024321D02*
X057270Y024398D01*
X057270Y024551D01*
X057193Y024628D01*
X057040Y024628D01*
X056963Y024551D01*
X056963Y024398D01*
X057040Y024321D01*
X057193Y024321D01*
X056810Y023630D02*
X056733Y023630D01*
X056810Y022940D02*
X057270Y022940D01*
X057270Y022710D01*
X057193Y022633D01*
X057040Y022633D01*
X057040Y022096D02*
X057040Y021789D01*
X056963Y021789D02*
X057270Y021789D01*
X057560Y021789D02*
X057713Y021942D01*
X057560Y022096D01*
X058020Y022096D01*
X058020Y022249D02*
X058020Y022403D01*
X058020Y022326D02*
X057713Y022326D01*
X057713Y022249D01*
X057560Y022326D02*
X057483Y022326D01*
X057790Y022556D02*
X057943Y022556D01*
X058020Y022633D01*
X058020Y022863D01*
X058020Y023017D02*
X057713Y023017D01*
X057713Y023170D02*
X057713Y023247D01*
X057713Y023170D02*
X057866Y023017D01*
X057713Y022863D02*
X057713Y022633D01*
X057790Y022556D01*
X058020Y021789D02*
X057560Y021789D01*
X057790Y023400D02*
X057943Y023400D01*
X058020Y023477D01*
X058020Y023630D01*
X057943Y023707D01*
X057790Y023707D01*
X057713Y023630D01*
X057713Y023477D01*
X057790Y023400D01*
X058352Y029149D02*
X058505Y029149D01*
X058429Y029149D02*
X058429Y029609D01*
X058505Y029609D02*
X058352Y029609D01*
X058659Y029533D02*
X058659Y029226D01*
X058735Y029149D01*
X058889Y029149D01*
X058966Y029226D01*
X059119Y029226D02*
X059196Y029149D01*
X059349Y029149D01*
X059426Y029226D01*
X059426Y029302D01*
X059349Y029379D01*
X059196Y029379D01*
X059119Y029456D01*
X059119Y029533D01*
X059196Y029609D01*
X059349Y029609D01*
X059426Y029533D01*
X059580Y029609D02*
X059810Y029609D01*
X059886Y029533D01*
X059886Y029379D01*
X059810Y029302D01*
X059580Y029302D01*
X059580Y029149D02*
X059580Y029609D01*
X058966Y029533D02*
X058889Y029609D01*
X058735Y029609D01*
X058659Y029533D01*
X052471Y043277D02*
X052548Y043354D01*
X052548Y043508D01*
X052471Y043584D01*
X052394Y043584D01*
X052318Y043508D01*
X052318Y043354D01*
X052241Y043277D01*
X052164Y043277D01*
X052087Y043354D01*
X052087Y043508D01*
X052164Y043584D01*
X052318Y043738D02*
X052318Y044045D01*
X052394Y044198D02*
X052394Y044428D01*
X052318Y044505D01*
X052164Y044505D01*
X052087Y044428D01*
X052087Y044198D01*
X052548Y044198D01*
X052548Y043968D02*
X052087Y043968D01*
X052318Y043738D01*
X044428Y035127D02*
X044505Y035050D01*
X044505Y034897D01*
X044428Y034820D01*
X044198Y034820D01*
X044045Y034820D02*
X044045Y034743D01*
X043968Y034666D01*
X043815Y034666D01*
X043738Y034743D01*
X043584Y034743D02*
X043508Y034666D01*
X043354Y034666D01*
X043277Y034743D01*
X043354Y034897D02*
X043508Y034897D01*
X043584Y034820D01*
X043584Y034743D01*
X043354Y034897D02*
X043277Y034973D01*
X043277Y035050D01*
X043354Y035127D01*
X043508Y035127D01*
X043584Y035050D01*
X043738Y035050D02*
X043815Y035127D01*
X043968Y035127D01*
X044045Y035050D01*
X044045Y034973D01*
X043968Y034897D01*
X044045Y034820D01*
X043968Y034897D02*
X043891Y034897D01*
X044198Y035127D02*
X044198Y034666D01*
X044198Y035127D02*
X044428Y035127D01*
X035126Y042672D02*
X035050Y042596D01*
X035126Y042672D02*
X035126Y042826D01*
X035050Y042903D01*
X034973Y042903D01*
X034896Y042826D01*
X034896Y042672D01*
X034820Y042596D01*
X034743Y042596D01*
X034666Y042672D01*
X034666Y042826D01*
X034743Y042903D01*
X034743Y043056D02*
X034666Y043133D01*
X034666Y043286D01*
X034743Y043363D01*
X034820Y043363D01*
X035126Y043056D01*
X035126Y043363D01*
X035126Y043516D02*
X034666Y043516D01*
X034666Y043747D01*
X034743Y043823D01*
X034896Y043823D01*
X034973Y043747D01*
X034973Y043516D01*
X042672Y052088D02*
X042596Y052164D01*
X042672Y052088D02*
X042826Y052088D01*
X042903Y052164D01*
X042903Y052241D01*
X042826Y052318D01*
X042672Y052318D01*
X042596Y052395D01*
X042596Y052471D01*
X042672Y052548D01*
X042826Y052548D01*
X042903Y052471D01*
X043056Y052395D02*
X043209Y052548D01*
X043209Y052088D01*
X043056Y052088D02*
X043363Y052088D01*
X043516Y052088D02*
X043516Y052548D01*
X043747Y052548D01*
X043823Y052471D01*
X043823Y052318D01*
X043747Y052241D01*
X043516Y052241D01*
X078507Y027625D02*
X078409Y027413D01*
X078567Y027339D01*
X078564Y027470D01*
X078589Y027523D01*
X078666Y027551D01*
X078772Y027502D01*
X078800Y027424D01*
X078751Y027318D01*
X078673Y027290D01*
X078673Y027152D02*
X078518Y027095D01*
X078543Y027148D02*
X078469Y026989D01*
X078574Y026940D02*
X078257Y027088D01*
X078331Y027247D01*
X078409Y027275D01*
X078514Y027226D01*
X078543Y027148D01*
X078363Y026900D02*
X078391Y026822D01*
X078317Y026664D01*
X078366Y026770D02*
X078521Y026826D01*
X078363Y026900D02*
X078257Y026949D01*
X078179Y026921D01*
X078105Y026762D01*
X078423Y026614D01*
X078371Y026503D02*
X078321Y026397D01*
X078346Y026450D02*
X078029Y026598D01*
X078004Y026545D02*
X078053Y026651D01*
X078560Y027739D02*
X078634Y027898D01*
X078712Y027926D01*
X078818Y027876D01*
X078846Y027799D01*
X078772Y027640D01*
X078878Y027591D02*
X078560Y027739D01*
X078821Y027746D02*
X078977Y027802D01*
X068124Y015450D02*
X068199Y015361D01*
X068192Y015279D01*
X068058Y015166D01*
X068133Y015077D02*
X067907Y015345D01*
X068042Y015458D01*
X068124Y015450D01*
X068147Y015241D02*
X068312Y015227D01*
X067999Y015041D02*
X067992Y014959D01*
X067902Y014883D01*
X067820Y014891D01*
X067745Y014980D01*
X067879Y015093D01*
X067961Y015085D01*
X067999Y015041D01*
X067759Y015145D02*
X067745Y014980D01*
X067649Y014899D02*
X067642Y014817D01*
X067507Y014705D01*
X067597Y014780D02*
X067761Y014765D01*
X067649Y014899D02*
X067574Y014989D01*
X067491Y014996D01*
X067357Y014883D01*
X067582Y014615D01*
X067486Y014534D02*
X067322Y014549D01*
X067366Y014586D02*
X067232Y014474D01*
X067307Y014384D02*
X067082Y014653D01*
X067216Y014765D01*
X067299Y014758D01*
X067374Y014669D01*
X067366Y014586D01*
X067213Y014305D02*
X067124Y014230D01*
X067169Y014268D02*
X066943Y014536D01*
X066899Y014499D02*
X066988Y014574D01*
X067759Y015145D02*
X067811Y015264D01*
X080792Y042853D02*
X080792Y042970D01*
X080792Y042912D02*
X081142Y042912D01*
X081142Y042970D02*
X081142Y042853D01*
X081142Y043093D02*
X080792Y043093D01*
X080792Y043268D01*
X080850Y043326D01*
X080967Y043326D01*
X081025Y043268D01*
X081025Y043093D01*
X081025Y043210D02*
X081142Y043326D01*
X081142Y043452D02*
X080792Y043452D01*
X080792Y043627D01*
X080850Y043686D01*
X080967Y043686D01*
X081025Y043627D01*
X081025Y043452D01*
X081025Y043569D02*
X081142Y043686D01*
X080967Y043811D02*
X080967Y044045D01*
X081025Y044170D02*
X081025Y044345D01*
X080967Y044404D01*
X080850Y044404D01*
X080792Y044345D01*
X080792Y044170D01*
X081142Y044170D01*
X081025Y044287D02*
X081142Y044404D01*
X081142Y043986D02*
X080792Y043986D01*
X080967Y043811D01*
D18*
X069431Y056282D03*
X069431Y058432D03*
X067334Y064189D03*
X067334Y066339D03*
X028268Y027685D03*
X028268Y025535D03*
X022461Y030136D03*
X022461Y032286D03*
D19*
X038763Y031151D02*
X038763Y027551D01*
X042013Y027551D01*
X042013Y031151D01*
X038763Y031151D01*
X054550Y031209D02*
X054580Y031179D01*
X054610Y031179D01*
X054640Y031209D01*
X054640Y031269D01*
X054670Y031299D01*
X054700Y031299D01*
X054730Y031269D01*
X054730Y031209D01*
X054700Y031179D01*
X054850Y031209D02*
X054880Y031179D01*
X054910Y031179D01*
X054940Y031209D01*
X054940Y031269D01*
X054970Y031299D01*
X055000Y031299D01*
X055030Y031269D01*
X055030Y031209D01*
X055000Y031179D01*
X054850Y031209D02*
X054850Y031269D01*
X054880Y031299D01*
X054580Y031299D02*
X054550Y031269D01*
X054550Y031209D01*
X055200Y031479D02*
X055260Y031539D01*
X055200Y031599D01*
X055380Y031599D01*
X055350Y031663D02*
X055380Y031693D01*
X055380Y031753D01*
X055350Y031783D01*
X055230Y031783D01*
X055200Y031753D01*
X055200Y031693D01*
X055230Y031663D01*
X055350Y031663D01*
X055350Y031847D02*
X055380Y031877D01*
X055380Y031937D01*
X055350Y031967D01*
X055320Y031967D01*
X055290Y031937D01*
X055290Y031877D01*
X055260Y031847D01*
X055230Y031847D01*
X055200Y031877D01*
X055200Y031937D01*
X055230Y031967D01*
X055200Y032031D02*
X055200Y032091D01*
X055200Y032061D02*
X055380Y032061D01*
X055380Y032031D02*
X055380Y032091D01*
X055380Y031479D02*
X055200Y031479D01*
X055030Y030299D02*
X054850Y030179D01*
X054850Y030299D02*
X055030Y030179D01*
X054730Y030239D02*
X054550Y030239D01*
X054550Y030179D02*
X054550Y030299D01*
X054580Y029299D02*
X054640Y029299D01*
X054670Y029269D01*
X054670Y029179D01*
X054730Y029179D02*
X054550Y029179D01*
X054550Y029269D01*
X054580Y029299D01*
X054670Y029239D02*
X054730Y029299D01*
X054850Y029299D02*
X055030Y029179D01*
X055030Y029299D02*
X054850Y029179D01*
X054880Y028299D02*
X054940Y028299D01*
X054970Y028269D01*
X054970Y028179D01*
X055030Y028179D02*
X054850Y028179D01*
X054850Y028269D01*
X054880Y028299D01*
X054970Y028239D02*
X055030Y028299D01*
X055000Y027299D02*
X054940Y027299D01*
X054940Y027239D01*
X055000Y027299D02*
X055030Y027269D01*
X055030Y027209D01*
X055000Y027179D01*
X054880Y027179D01*
X054850Y027209D01*
X054850Y027269D01*
X054880Y027299D01*
X054880Y026299D02*
X054850Y026269D01*
X054850Y026209D01*
X054880Y026179D01*
X054880Y026299D02*
X054910Y026299D01*
X055030Y026179D01*
X055030Y026299D01*
X055000Y025299D02*
X055030Y025269D01*
X055030Y025209D01*
X055000Y025179D01*
X054940Y025239D02*
X054940Y025269D01*
X054970Y025299D01*
X055000Y025299D01*
X054940Y025269D02*
X054910Y025299D01*
X054880Y025299D01*
X054850Y025269D01*
X054850Y025209D01*
X054880Y025179D01*
X054940Y024299D02*
X054940Y024179D01*
X054850Y024269D01*
X055030Y024269D01*
X055000Y023299D02*
X054940Y023299D01*
X054910Y023269D01*
X054910Y023239D01*
X054940Y023179D01*
X054850Y023179D01*
X054850Y023299D01*
X055000Y023299D02*
X055030Y023269D01*
X055030Y023209D01*
X055000Y023179D01*
X055000Y022299D02*
X054970Y022299D01*
X054940Y022269D01*
X054940Y022179D01*
X055000Y022179D01*
X055030Y022209D01*
X055030Y022269D01*
X055000Y022299D01*
X054880Y022239D02*
X054940Y022179D01*
X054880Y022239D02*
X054850Y022299D01*
X054850Y021299D02*
X054880Y021299D01*
X055000Y021179D01*
X055030Y021179D01*
X054850Y021179D02*
X054850Y021299D01*
X054880Y020299D02*
X054910Y020299D01*
X054940Y020269D01*
X054940Y020209D01*
X054910Y020179D01*
X054880Y020179D01*
X054850Y020209D01*
X054850Y020269D01*
X054880Y020299D01*
X054940Y020269D02*
X054970Y020299D01*
X055000Y020299D01*
X055030Y020269D01*
X055030Y020209D01*
X055000Y020179D01*
X054970Y020179D01*
X054940Y020209D01*
X054850Y019299D02*
X054730Y019299D01*
X054700Y019269D01*
X054700Y019209D01*
X054730Y019179D01*
X054760Y019179D01*
X054790Y019209D01*
X054790Y019299D01*
X054850Y019299D02*
X054880Y019269D01*
X054880Y019209D01*
X054850Y019179D01*
X054880Y018299D02*
X055000Y018179D01*
X055030Y018209D01*
X055030Y018269D01*
X055000Y018299D01*
X054880Y018299D01*
X054850Y018269D01*
X054850Y018209D01*
X054880Y018179D01*
X055000Y018179D01*
X054730Y018179D02*
X054730Y018299D01*
X054730Y018239D02*
X054550Y018239D01*
X054610Y018179D01*
X054730Y017299D02*
X054730Y017179D01*
X054730Y017239D02*
X054550Y017239D01*
X054610Y017179D01*
X054850Y017239D02*
X055030Y017239D01*
X055030Y017179D02*
X055030Y017299D01*
X054910Y017179D02*
X054850Y017239D01*
X054880Y016299D02*
X054850Y016269D01*
X054850Y016209D01*
X054880Y016179D01*
X054880Y016299D02*
X054910Y016299D01*
X055030Y016179D01*
X055030Y016299D01*
X054730Y016299D02*
X054730Y016179D01*
X054730Y016239D02*
X054550Y016239D01*
X054610Y016179D01*
X060550Y016239D02*
X060730Y016239D01*
X060730Y016179D02*
X060730Y016299D01*
X060850Y016269D02*
X060880Y016299D01*
X060910Y016299D01*
X060940Y016269D01*
X060970Y016299D01*
X061000Y016299D01*
X061030Y016269D01*
X061030Y016209D01*
X061000Y016179D01*
X060940Y016239D02*
X060940Y016269D01*
X060850Y016269D02*
X060850Y016209D01*
X060880Y016179D01*
X060610Y016179D02*
X060550Y016239D01*
X060580Y017179D02*
X060550Y017209D01*
X060550Y017269D01*
X060580Y017299D01*
X060610Y017299D01*
X060640Y017269D01*
X060670Y017299D01*
X060700Y017299D01*
X060730Y017269D01*
X060730Y017209D01*
X060700Y017179D01*
X060640Y017239D02*
X060640Y017269D01*
X060850Y017299D02*
X060970Y017299D01*
X061030Y017239D01*
X060970Y017179D01*
X060850Y017179D01*
X060850Y018229D02*
X060850Y018349D01*
X060940Y018289D02*
X060940Y018229D01*
X061030Y018229D02*
X060850Y018229D01*
X060730Y018229D02*
X060550Y018229D01*
X060550Y018319D01*
X060580Y018349D01*
X060640Y018349D01*
X060670Y018319D01*
X060670Y018229D01*
X060670Y018289D02*
X060730Y018349D01*
X060730Y019179D02*
X060610Y019179D01*
X060550Y019239D01*
X060610Y019299D01*
X060730Y019299D01*
X060640Y019299D02*
X060640Y019179D01*
X060850Y019209D02*
X060850Y019269D01*
X060880Y019299D01*
X061000Y019179D01*
X061030Y019209D01*
X061030Y019269D01*
X061000Y019299D01*
X060880Y019299D01*
X060850Y019209D02*
X060880Y019179D01*
X061000Y019179D01*
X061030Y020179D02*
X061030Y020299D01*
X061030Y020239D02*
X060850Y020239D01*
X060910Y020179D01*
X060730Y020179D02*
X060610Y020179D01*
X060550Y020239D01*
X060610Y020299D01*
X060730Y020299D01*
X060640Y020299D02*
X060640Y020179D01*
X060640Y021179D02*
X060640Y021299D01*
X060610Y021299D02*
X060730Y021299D01*
X060730Y021179D02*
X060610Y021179D01*
X060550Y021239D01*
X060610Y021299D01*
X060850Y021269D02*
X060850Y021209D01*
X060880Y021179D01*
X060850Y021269D02*
X060880Y021299D01*
X060910Y021299D01*
X061030Y021179D01*
X061030Y021299D01*
X061000Y022179D02*
X061030Y022209D01*
X061030Y022269D01*
X061000Y022299D01*
X060970Y022299D01*
X060940Y022269D01*
X060940Y022239D01*
X060940Y022269D02*
X060910Y022299D01*
X060880Y022299D01*
X060850Y022269D01*
X060850Y022209D01*
X060880Y022179D01*
X060730Y022179D02*
X060610Y022179D01*
X060550Y022239D01*
X060610Y022299D01*
X060730Y022299D01*
X060640Y022299D02*
X060640Y022179D01*
X060640Y023179D02*
X060640Y023299D01*
X060610Y023299D02*
X060730Y023299D01*
X060730Y023179D02*
X060610Y023179D01*
X060550Y023239D01*
X060610Y023299D01*
X060850Y023269D02*
X060940Y023179D01*
X060940Y023299D01*
X061030Y023269D02*
X060850Y023269D01*
X060850Y024179D02*
X060940Y024179D01*
X060910Y024239D01*
X060910Y024269D01*
X060940Y024299D01*
X061000Y024299D01*
X061030Y024269D01*
X061030Y024209D01*
X061000Y024179D01*
X060850Y024179D02*
X060850Y024299D01*
X060730Y024299D02*
X060610Y024299D01*
X060550Y024239D01*
X060610Y024179D01*
X060730Y024179D01*
X060640Y024179D02*
X060640Y024299D01*
X060650Y027179D02*
X060680Y027209D01*
X060680Y027269D01*
X060650Y027299D01*
X060590Y027299D01*
X060560Y027269D01*
X060560Y027239D01*
X060590Y027179D01*
X060500Y027179D01*
X060500Y027299D01*
X060800Y027299D02*
X060920Y027299D01*
X060980Y027239D01*
X060920Y027179D01*
X060800Y027179D01*
X060830Y028179D02*
X060860Y028179D01*
X060890Y028209D01*
X060890Y028269D01*
X060920Y028299D01*
X060950Y028299D01*
X060980Y028269D01*
X060980Y028209D01*
X060950Y028179D01*
X060830Y028179D02*
X060800Y028209D01*
X060800Y028269D01*
X060830Y028299D01*
X060680Y028299D02*
X060620Y028239D01*
X060620Y028269D02*
X060620Y028179D01*
X060680Y028179D02*
X060500Y028179D01*
X060500Y028269D01*
X060530Y028299D01*
X060590Y028299D01*
X060620Y028269D01*
X060650Y029229D02*
X060680Y029259D01*
X060680Y029319D01*
X060650Y029349D01*
X060590Y029349D01*
X060590Y029289D01*
X060530Y029229D02*
X060650Y029229D01*
X060530Y029229D02*
X060500Y029259D01*
X060500Y029319D01*
X060530Y029349D01*
X060500Y030229D02*
X060620Y030229D01*
X060680Y030289D01*
X060620Y030349D01*
X060500Y030349D01*
X060800Y030289D02*
X060800Y030229D01*
X060800Y030259D02*
X060980Y030259D01*
X060980Y030229D02*
X060980Y030289D01*
X060980Y031229D02*
X060980Y031289D01*
X060980Y031259D02*
X060800Y031259D01*
X060800Y031229D02*
X060800Y031289D01*
X060680Y031349D02*
X060500Y031349D01*
X060560Y031289D01*
X060500Y031229D01*
X060680Y031229D01*
X060130Y032879D02*
X059950Y032879D01*
X060040Y032909D02*
X060130Y032999D01*
X060070Y032879D02*
X059950Y032999D01*
X059830Y032969D02*
X059800Y032999D01*
X059830Y032969D02*
X059830Y032909D01*
X059800Y032879D01*
X059680Y032879D01*
X059650Y032909D01*
X059650Y032969D01*
X059680Y032999D01*
X059530Y032969D02*
X059530Y032909D01*
X059500Y032879D01*
X059440Y032909D02*
X059440Y032969D01*
X059470Y032999D01*
X059500Y032999D01*
X059530Y032969D01*
X059440Y032909D02*
X059410Y032879D01*
X059380Y032879D01*
X059350Y032909D01*
X059350Y032969D01*
X059380Y032999D01*
X022616Y052921D02*
X022586Y052891D01*
X022616Y052921D02*
X022616Y052981D01*
X022586Y053011D01*
X022556Y053011D01*
X022525Y052981D01*
X022525Y052921D01*
X022495Y052891D01*
X022465Y052891D01*
X022435Y052921D01*
X022435Y052981D01*
X022465Y053011D01*
X022316Y052981D02*
X022316Y052921D01*
X022286Y052891D01*
X022225Y052921D02*
X022225Y052981D01*
X022256Y053011D01*
X022286Y053011D01*
X022316Y052981D01*
X022225Y052921D02*
X022195Y052891D01*
X022165Y052891D01*
X022135Y052921D01*
X022135Y052981D01*
X022165Y053011D01*
X021966Y052712D02*
X021966Y052652D01*
X021966Y052682D02*
X021785Y052682D01*
X021785Y052652D02*
X021785Y052712D01*
X021815Y052588D02*
X021785Y052558D01*
X021785Y052498D01*
X021815Y052468D01*
X021845Y052468D01*
X021875Y052498D01*
X021875Y052558D01*
X021906Y052588D01*
X021936Y052588D01*
X021966Y052558D01*
X021966Y052498D01*
X021936Y052468D01*
X021936Y052404D02*
X021815Y052404D01*
X021785Y052374D01*
X021785Y052314D01*
X021815Y052284D01*
X021936Y052284D01*
X021966Y052314D01*
X021966Y052374D01*
X021936Y052404D01*
X021966Y052220D02*
X021785Y052220D01*
X021845Y052160D01*
X021785Y052100D01*
X021966Y052100D01*
X022135Y053891D02*
X022135Y054011D01*
X022135Y053951D02*
X022316Y053951D01*
X022435Y054011D02*
X022616Y053891D01*
X022616Y054011D02*
X022435Y053891D01*
X022435Y054891D02*
X022616Y055011D01*
X022616Y054891D02*
X022435Y055011D01*
X022316Y055011D02*
X022256Y054951D01*
X022256Y054981D02*
X022256Y054891D01*
X022316Y054891D02*
X022135Y054891D01*
X022135Y054981D01*
X022165Y055011D01*
X022225Y055011D01*
X022256Y054981D01*
X022256Y055891D02*
X022256Y055981D01*
X022225Y056011D01*
X022165Y056011D01*
X022135Y055981D01*
X022135Y055891D01*
X022316Y055891D01*
X022256Y055951D02*
X022316Y056011D01*
X022286Y056891D02*
X022316Y056921D01*
X022316Y056981D01*
X022286Y057011D01*
X022225Y057011D01*
X022225Y056951D01*
X022165Y057011D02*
X022135Y056981D01*
X022135Y056921D01*
X022165Y056891D01*
X022286Y056891D01*
X022316Y057891D02*
X022195Y058011D01*
X022165Y058011D01*
X022135Y057981D01*
X022135Y057921D01*
X022165Y057891D01*
X022316Y057891D02*
X022316Y058011D01*
X022286Y058891D02*
X022316Y058921D01*
X022316Y058981D01*
X022286Y059011D01*
X022256Y059011D01*
X022225Y058981D01*
X022225Y058951D01*
X022225Y058981D02*
X022195Y059011D01*
X022165Y059011D01*
X022135Y058981D01*
X022135Y058921D01*
X022165Y058891D01*
X022225Y059891D02*
X022225Y060011D01*
X022135Y059981D02*
X022225Y059891D01*
X022316Y059981D02*
X022135Y059981D01*
X022135Y060891D02*
X022225Y060891D01*
X022195Y060951D01*
X022195Y060981D01*
X022225Y061011D01*
X022286Y061011D01*
X022316Y060981D01*
X022316Y060921D01*
X022286Y060891D01*
X022135Y060891D02*
X022135Y061011D01*
X022225Y061891D02*
X022225Y061981D01*
X022256Y062011D01*
X022286Y062011D01*
X022316Y061981D01*
X022316Y061921D01*
X022286Y061891D01*
X022225Y061891D01*
X022165Y061951D01*
X022135Y062011D01*
X022135Y062891D02*
X022135Y063011D01*
X022165Y063011D01*
X022286Y062891D01*
X022316Y062891D01*
X022286Y063891D02*
X022256Y063891D01*
X022225Y063921D01*
X022225Y063981D01*
X022256Y064011D01*
X022286Y064011D01*
X022316Y063981D01*
X022316Y063921D01*
X022286Y063891D01*
X022225Y063921D02*
X022195Y063891D01*
X022165Y063891D01*
X022135Y063921D01*
X022135Y063981D01*
X022165Y064011D01*
X022195Y064011D01*
X022225Y063981D01*
X022315Y064891D02*
X022345Y064891D01*
X022375Y064921D01*
X022375Y065011D01*
X022315Y065011D02*
X022285Y064981D01*
X022285Y064921D01*
X022315Y064891D01*
X022315Y065011D02*
X022436Y065011D01*
X022466Y064981D01*
X022466Y064921D01*
X022436Y064891D01*
X022465Y065891D02*
X022435Y065921D01*
X022435Y065981D01*
X022465Y066011D01*
X022586Y065891D01*
X022616Y065921D01*
X022616Y065981D01*
X022586Y066011D01*
X022465Y066011D01*
X022465Y065891D02*
X022586Y065891D01*
X022316Y065891D02*
X022316Y066011D01*
X022316Y065951D02*
X022135Y065951D01*
X022195Y065891D01*
X022195Y066891D02*
X022135Y066951D01*
X022316Y066951D01*
X022316Y066891D02*
X022316Y067011D01*
X022435Y066951D02*
X022616Y066951D01*
X022616Y066891D02*
X022616Y067011D01*
X022495Y066891D02*
X022435Y066951D01*
X022465Y067891D02*
X022435Y067921D01*
X022435Y067981D01*
X022465Y068011D01*
X022495Y068011D01*
X022616Y067891D01*
X022616Y068011D01*
X022316Y068011D02*
X022316Y067891D01*
X022316Y067951D02*
X022135Y067951D01*
X022195Y067891D01*
X016616Y067921D02*
X016586Y067891D01*
X016616Y067921D02*
X016616Y067981D01*
X016586Y068011D01*
X016556Y068011D01*
X016525Y067981D01*
X016525Y067951D01*
X016525Y067981D02*
X016495Y068011D01*
X016465Y068011D01*
X016435Y067981D01*
X016435Y067921D01*
X016465Y067891D01*
X016316Y067891D02*
X016316Y068011D01*
X016316Y067951D02*
X016135Y067951D01*
X016195Y067891D01*
X016195Y067011D02*
X016225Y066981D01*
X016256Y067011D01*
X016286Y067011D01*
X016316Y066981D01*
X016316Y066921D01*
X016286Y066891D01*
X016225Y066951D02*
X016225Y066981D01*
X016195Y067011D02*
X016165Y067011D01*
X016135Y066981D01*
X016135Y066921D01*
X016165Y066891D01*
X016435Y066891D02*
X016556Y066891D01*
X016616Y066951D01*
X016556Y067011D01*
X016435Y067011D01*
X016435Y065961D02*
X016435Y065841D01*
X016616Y065841D01*
X016525Y065841D02*
X016525Y065901D01*
X016316Y065961D02*
X016256Y065901D01*
X016256Y065931D02*
X016256Y065841D01*
X016316Y065841D02*
X016135Y065841D01*
X016135Y065931D01*
X016165Y065961D01*
X016225Y065961D01*
X016256Y065931D01*
X016225Y065011D02*
X016225Y064891D01*
X016195Y064891D02*
X016135Y064951D01*
X016195Y065011D01*
X016316Y065011D01*
X016316Y064891D02*
X016195Y064891D01*
X016435Y064921D02*
X016435Y064981D01*
X016465Y065011D01*
X016586Y064891D01*
X016616Y064921D01*
X016616Y064981D01*
X016586Y065011D01*
X016465Y065011D01*
X016435Y064921D02*
X016465Y064891D01*
X016586Y064891D01*
X016616Y064011D02*
X016616Y063891D01*
X016616Y063951D02*
X016435Y063951D01*
X016495Y063891D01*
X016316Y063891D02*
X016195Y063891D01*
X016135Y063951D01*
X016195Y064011D01*
X016316Y064011D01*
X016225Y064011D02*
X016225Y063891D01*
X016225Y063011D02*
X016225Y062891D01*
X016195Y062891D02*
X016135Y062951D01*
X016195Y063011D01*
X016316Y063011D01*
X016316Y062891D02*
X016195Y062891D01*
X016435Y062921D02*
X016465Y062891D01*
X016435Y062921D02*
X016435Y062981D01*
X016465Y063011D01*
X016495Y063011D01*
X016616Y062891D01*
X016616Y063011D01*
X016586Y062011D02*
X016556Y062011D01*
X016525Y061981D01*
X016525Y061951D01*
X016525Y061981D02*
X016495Y062011D01*
X016465Y062011D01*
X016435Y061981D01*
X016435Y061921D01*
X016465Y061891D01*
X016586Y061891D02*
X016616Y061921D01*
X016616Y061981D01*
X016586Y062011D01*
X016316Y062011D02*
X016195Y062011D01*
X016135Y061951D01*
X016195Y061891D01*
X016316Y061891D01*
X016225Y061891D02*
X016225Y062011D01*
X016225Y061011D02*
X016225Y060891D01*
X016195Y060891D02*
X016135Y060951D01*
X016195Y061011D01*
X016316Y061011D01*
X016316Y060891D02*
X016195Y060891D01*
X016435Y060981D02*
X016525Y060891D01*
X016525Y061011D01*
X016435Y060981D02*
X016616Y060981D01*
X016586Y060011D02*
X016525Y060011D01*
X016495Y059981D01*
X016495Y059951D01*
X016525Y059891D01*
X016435Y059891D01*
X016435Y060011D01*
X016316Y060011D02*
X016195Y060011D01*
X016135Y059951D01*
X016195Y059891D01*
X016316Y059891D01*
X016225Y059891D02*
X016225Y060011D01*
X016586Y060011D02*
X016616Y059981D01*
X016616Y059921D01*
X016586Y059891D01*
X016606Y057011D02*
X016485Y057011D01*
X016485Y056891D02*
X016606Y056891D01*
X016666Y056951D01*
X016606Y057011D01*
X016366Y056981D02*
X016366Y056921D01*
X016336Y056891D01*
X016275Y056891D02*
X016245Y056951D01*
X016245Y056981D01*
X016275Y057011D01*
X016336Y057011D01*
X016366Y056981D01*
X016275Y056891D02*
X016185Y056891D01*
X016185Y057011D01*
X016215Y056011D02*
X016275Y056011D01*
X016306Y055981D01*
X016306Y055891D01*
X016366Y055891D02*
X016185Y055891D01*
X016185Y055981D01*
X016215Y056011D01*
X016306Y055951D02*
X016366Y056011D01*
X016485Y055981D02*
X016485Y055921D01*
X016515Y055891D01*
X016545Y055891D01*
X016575Y055921D01*
X016575Y055981D01*
X016606Y056011D01*
X016636Y056011D01*
X016666Y055981D01*
X016666Y055921D01*
X016636Y055891D01*
X016515Y056011D02*
X016485Y055981D01*
X016515Y054961D02*
X016485Y054931D01*
X016485Y054871D01*
X016515Y054841D01*
X016636Y054841D01*
X016666Y054871D01*
X016666Y054931D01*
X016636Y054961D01*
X016575Y054961D01*
X016575Y054901D01*
X016306Y053961D02*
X016185Y053961D01*
X016185Y053841D02*
X016306Y053841D01*
X016366Y053901D01*
X016306Y053961D01*
X016485Y053901D02*
X016485Y053841D01*
X016485Y053871D02*
X016666Y053871D01*
X016666Y053841D02*
X016666Y053901D01*
X016366Y052961D02*
X016185Y052961D01*
X016245Y052901D01*
X016185Y052841D01*
X016366Y052841D01*
X016485Y052841D02*
X016485Y052901D01*
X016485Y052871D02*
X016666Y052871D01*
X016666Y052841D02*
X016666Y052901D01*
X017065Y051311D02*
X017035Y051281D01*
X017035Y051221D01*
X017065Y051191D01*
X017095Y051191D01*
X017125Y051221D01*
X017125Y051281D01*
X017156Y051311D01*
X017186Y051311D01*
X017216Y051281D01*
X017216Y051221D01*
X017186Y051191D01*
X017335Y051221D02*
X017365Y051191D01*
X017486Y051191D01*
X017516Y051221D01*
X017516Y051281D01*
X017486Y051311D01*
X017365Y051311D02*
X017335Y051281D01*
X017335Y051221D01*
X017635Y051191D02*
X017816Y051191D01*
X017756Y051191D02*
X017635Y051311D01*
X017725Y051221D02*
X017816Y051311D01*
D20*
X037248Y032166D02*
X037458Y032166D01*
X037353Y032166D02*
X037353Y031536D01*
X037248Y031536D02*
X037458Y031536D01*
X037678Y031536D02*
X037678Y032166D01*
X037993Y032166D01*
X038098Y032061D01*
X038098Y031851D01*
X037993Y031746D01*
X037678Y031746D01*
X037888Y031746D02*
X038098Y031536D01*
X038322Y031851D02*
X038743Y031851D01*
X038967Y032166D02*
X039387Y032166D01*
X039177Y032166D02*
X039177Y031536D01*
X039611Y031536D02*
X039611Y032166D01*
X039927Y032166D01*
X040032Y032061D01*
X040032Y031851D01*
X039927Y031746D01*
X039611Y031746D01*
X039822Y031746D02*
X040032Y031536D01*
X040256Y031536D02*
X040256Y031956D01*
X040466Y032166D01*
X040676Y031956D01*
X040676Y031536D01*
X040900Y031536D02*
X040900Y032166D01*
X041321Y031536D01*
X041321Y032166D01*
X040676Y031851D02*
X040256Y031851D01*
D21*
X037288Y030351D03*
X037288Y029351D03*
X037288Y028351D03*
D22*
X037963Y028351D03*
X037963Y029351D03*
X037963Y030351D03*
D23*
X042763Y029351D02*
X042765Y029401D01*
X042771Y029451D01*
X042781Y029501D01*
X042794Y029549D01*
X042811Y029597D01*
X042832Y029643D01*
X042856Y029687D01*
X042884Y029729D01*
X042915Y029769D01*
X042949Y029806D01*
X042986Y029841D01*
X043025Y029872D01*
X043066Y029901D01*
X043110Y029926D01*
X043156Y029948D01*
X043203Y029966D01*
X043251Y029980D01*
X043300Y029991D01*
X043350Y029998D01*
X043400Y030001D01*
X043451Y030000D01*
X043501Y029995D01*
X043551Y029986D01*
X043599Y029974D01*
X043647Y029957D01*
X043693Y029937D01*
X043738Y029914D01*
X043781Y029887D01*
X043821Y029857D01*
X043859Y029824D01*
X043894Y029788D01*
X043927Y029749D01*
X043956Y029708D01*
X043982Y029665D01*
X044005Y029620D01*
X044024Y029573D01*
X044039Y029525D01*
X044051Y029476D01*
X044059Y029426D01*
X044063Y029376D01*
X044063Y029326D01*
X044059Y029276D01*
X044051Y029226D01*
X044039Y029177D01*
X044024Y029129D01*
X044005Y029082D01*
X043982Y029037D01*
X043956Y028994D01*
X043927Y028953D01*
X043894Y028914D01*
X043859Y028878D01*
X043821Y028845D01*
X043781Y028815D01*
X043738Y028788D01*
X043693Y028765D01*
X043647Y028745D01*
X043599Y028728D01*
X043551Y028716D01*
X043501Y028707D01*
X043451Y028702D01*
X043400Y028701D01*
X043350Y028704D01*
X043300Y028711D01*
X043251Y028722D01*
X043203Y028736D01*
X043156Y028754D01*
X043110Y028776D01*
X043066Y028801D01*
X043025Y028830D01*
X042986Y028861D01*
X042949Y028896D01*
X042915Y028933D01*
X042884Y028973D01*
X042856Y029015D01*
X042832Y029059D01*
X042811Y029105D01*
X042794Y029153D01*
X042781Y029201D01*
X042771Y029251D01*
X042765Y029301D01*
X042763Y029351D01*
X054554Y032769D02*
X054556Y032799D01*
X054562Y032829D01*
X054571Y032858D01*
X054584Y032885D01*
X054601Y032910D01*
X054620Y032933D01*
X054643Y032954D01*
X054668Y032971D01*
X054694Y032985D01*
X054723Y032995D01*
X054752Y033002D01*
X054782Y033005D01*
X054813Y033004D01*
X054843Y032999D01*
X054872Y032990D01*
X054899Y032978D01*
X054925Y032963D01*
X054949Y032944D01*
X054970Y032922D01*
X054988Y032898D01*
X055003Y032871D01*
X055014Y032843D01*
X055022Y032814D01*
X055026Y032784D01*
X055026Y032754D01*
X055022Y032724D01*
X055014Y032695D01*
X055003Y032667D01*
X054988Y032640D01*
X054970Y032616D01*
X054949Y032594D01*
X054925Y032575D01*
X054899Y032560D01*
X054872Y032548D01*
X054843Y032539D01*
X054813Y032534D01*
X054782Y032533D01*
X054752Y032536D01*
X054723Y032543D01*
X054694Y032553D01*
X054668Y032567D01*
X054643Y032584D01*
X054620Y032605D01*
X054601Y032628D01*
X054584Y032653D01*
X054571Y032680D01*
X054562Y032709D01*
X054556Y032739D01*
X054554Y032769D01*
X060554Y032769D02*
X060556Y032799D01*
X060562Y032829D01*
X060571Y032858D01*
X060584Y032885D01*
X060601Y032910D01*
X060620Y032933D01*
X060643Y032954D01*
X060668Y032971D01*
X060694Y032985D01*
X060723Y032995D01*
X060752Y033002D01*
X060782Y033005D01*
X060813Y033004D01*
X060843Y032999D01*
X060872Y032990D01*
X060899Y032978D01*
X060925Y032963D01*
X060949Y032944D01*
X060970Y032922D01*
X060988Y032898D01*
X061003Y032871D01*
X061014Y032843D01*
X061022Y032814D01*
X061026Y032784D01*
X061026Y032754D01*
X061022Y032724D01*
X061014Y032695D01*
X061003Y032667D01*
X060988Y032640D01*
X060970Y032616D01*
X060949Y032594D01*
X060925Y032575D01*
X060899Y032560D01*
X060872Y032548D01*
X060843Y032539D01*
X060813Y032534D01*
X060782Y032533D01*
X060752Y032536D01*
X060723Y032543D01*
X060694Y032553D01*
X060668Y032567D01*
X060643Y032584D01*
X060620Y032605D01*
X060601Y032628D01*
X060584Y032653D01*
X060571Y032680D01*
X060562Y032709D01*
X060556Y032739D01*
X060554Y032769D01*
X060554Y014769D02*
X060556Y014799D01*
X060562Y014829D01*
X060571Y014858D01*
X060584Y014885D01*
X060601Y014910D01*
X060620Y014933D01*
X060643Y014954D01*
X060668Y014971D01*
X060694Y014985D01*
X060723Y014995D01*
X060752Y015002D01*
X060782Y015005D01*
X060813Y015004D01*
X060843Y014999D01*
X060872Y014990D01*
X060899Y014978D01*
X060925Y014963D01*
X060949Y014944D01*
X060970Y014922D01*
X060988Y014898D01*
X061003Y014871D01*
X061014Y014843D01*
X061022Y014814D01*
X061026Y014784D01*
X061026Y014754D01*
X061022Y014724D01*
X061014Y014695D01*
X061003Y014667D01*
X060988Y014640D01*
X060970Y014616D01*
X060949Y014594D01*
X060925Y014575D01*
X060899Y014560D01*
X060872Y014548D01*
X060843Y014539D01*
X060813Y014534D01*
X060782Y014533D01*
X060752Y014536D01*
X060723Y014543D01*
X060694Y014553D01*
X060668Y014567D01*
X060643Y014584D01*
X060620Y014605D01*
X060601Y014628D01*
X060584Y014653D01*
X060571Y014680D01*
X060562Y014709D01*
X060556Y014739D01*
X060554Y014769D01*
X054554Y014769D02*
X054556Y014799D01*
X054562Y014829D01*
X054571Y014858D01*
X054584Y014885D01*
X054601Y014910D01*
X054620Y014933D01*
X054643Y014954D01*
X054668Y014971D01*
X054694Y014985D01*
X054723Y014995D01*
X054752Y015002D01*
X054782Y015005D01*
X054813Y015004D01*
X054843Y014999D01*
X054872Y014990D01*
X054899Y014978D01*
X054925Y014963D01*
X054949Y014944D01*
X054970Y014922D01*
X054988Y014898D01*
X055003Y014871D01*
X055014Y014843D01*
X055022Y014814D01*
X055026Y014784D01*
X055026Y014754D01*
X055022Y014724D01*
X055014Y014695D01*
X055003Y014667D01*
X054988Y014640D01*
X054970Y014616D01*
X054949Y014594D01*
X054925Y014575D01*
X054899Y014560D01*
X054872Y014548D01*
X054843Y014539D01*
X054813Y014534D01*
X054782Y014533D01*
X054752Y014536D01*
X054723Y014543D01*
X054694Y014553D01*
X054668Y014567D01*
X054643Y014584D01*
X054620Y014605D01*
X054601Y014628D01*
X054584Y014653D01*
X054571Y014680D01*
X054562Y014709D01*
X054556Y014739D01*
X054554Y014769D01*
X022140Y051465D02*
X022142Y051495D01*
X022148Y051525D01*
X022157Y051554D01*
X022170Y051581D01*
X022187Y051606D01*
X022206Y051629D01*
X022229Y051650D01*
X022254Y051667D01*
X022280Y051681D01*
X022309Y051691D01*
X022338Y051698D01*
X022368Y051701D01*
X022399Y051700D01*
X022429Y051695D01*
X022458Y051686D01*
X022485Y051674D01*
X022511Y051659D01*
X022535Y051640D01*
X022556Y051618D01*
X022574Y051594D01*
X022589Y051567D01*
X022600Y051539D01*
X022608Y051510D01*
X022612Y051480D01*
X022612Y051450D01*
X022608Y051420D01*
X022600Y051391D01*
X022589Y051363D01*
X022574Y051336D01*
X022556Y051312D01*
X022535Y051290D01*
X022511Y051271D01*
X022485Y051256D01*
X022458Y051244D01*
X022429Y051235D01*
X022399Y051230D01*
X022368Y051229D01*
X022338Y051232D01*
X022309Y051239D01*
X022280Y051249D01*
X022254Y051263D01*
X022229Y051280D01*
X022206Y051301D01*
X022187Y051324D01*
X022170Y051349D01*
X022157Y051376D01*
X022148Y051405D01*
X022142Y051435D01*
X022140Y051465D01*
X016140Y051465D02*
X016142Y051495D01*
X016148Y051525D01*
X016157Y051554D01*
X016170Y051581D01*
X016187Y051606D01*
X016206Y051629D01*
X016229Y051650D01*
X016254Y051667D01*
X016280Y051681D01*
X016309Y051691D01*
X016338Y051698D01*
X016368Y051701D01*
X016399Y051700D01*
X016429Y051695D01*
X016458Y051686D01*
X016485Y051674D01*
X016511Y051659D01*
X016535Y051640D01*
X016556Y051618D01*
X016574Y051594D01*
X016589Y051567D01*
X016600Y051539D01*
X016608Y051510D01*
X016612Y051480D01*
X016612Y051450D01*
X016608Y051420D01*
X016600Y051391D01*
X016589Y051363D01*
X016574Y051336D01*
X016556Y051312D01*
X016535Y051290D01*
X016511Y051271D01*
X016485Y051256D01*
X016458Y051244D01*
X016429Y051235D01*
X016399Y051230D01*
X016368Y051229D01*
X016338Y051232D01*
X016309Y051239D01*
X016280Y051249D01*
X016254Y051263D01*
X016229Y051280D01*
X016206Y051301D01*
X016187Y051324D01*
X016170Y051349D01*
X016157Y051376D01*
X016148Y051405D01*
X016142Y051435D01*
X016140Y051465D01*
X016140Y069465D02*
X016142Y069495D01*
X016148Y069525D01*
X016157Y069554D01*
X016170Y069581D01*
X016187Y069606D01*
X016206Y069629D01*
X016229Y069650D01*
X016254Y069667D01*
X016280Y069681D01*
X016309Y069691D01*
X016338Y069698D01*
X016368Y069701D01*
X016399Y069700D01*
X016429Y069695D01*
X016458Y069686D01*
X016485Y069674D01*
X016511Y069659D01*
X016535Y069640D01*
X016556Y069618D01*
X016574Y069594D01*
X016589Y069567D01*
X016600Y069539D01*
X016608Y069510D01*
X016612Y069480D01*
X016612Y069450D01*
X016608Y069420D01*
X016600Y069391D01*
X016589Y069363D01*
X016574Y069336D01*
X016556Y069312D01*
X016535Y069290D01*
X016511Y069271D01*
X016485Y069256D01*
X016458Y069244D01*
X016429Y069235D01*
X016399Y069230D01*
X016368Y069229D01*
X016338Y069232D01*
X016309Y069239D01*
X016280Y069249D01*
X016254Y069263D01*
X016229Y069280D01*
X016206Y069301D01*
X016187Y069324D01*
X016170Y069349D01*
X016157Y069376D01*
X016148Y069405D01*
X016142Y069435D01*
X016140Y069465D01*
X022140Y069465D02*
X022142Y069495D01*
X022148Y069525D01*
X022157Y069554D01*
X022170Y069581D01*
X022187Y069606D01*
X022206Y069629D01*
X022229Y069650D01*
X022254Y069667D01*
X022280Y069681D01*
X022309Y069691D01*
X022338Y069698D01*
X022368Y069701D01*
X022399Y069700D01*
X022429Y069695D01*
X022458Y069686D01*
X022485Y069674D01*
X022511Y069659D01*
X022535Y069640D01*
X022556Y069618D01*
X022574Y069594D01*
X022589Y069567D01*
X022600Y069539D01*
X022608Y069510D01*
X022612Y069480D01*
X022612Y069450D01*
X022608Y069420D01*
X022600Y069391D01*
X022589Y069363D01*
X022574Y069336D01*
X022556Y069312D01*
X022535Y069290D01*
X022511Y069271D01*
X022485Y069256D01*
X022458Y069244D01*
X022429Y069235D01*
X022399Y069230D01*
X022368Y069229D01*
X022338Y069232D01*
X022309Y069239D01*
X022280Y069249D01*
X022254Y069263D01*
X022229Y069280D01*
X022206Y069301D01*
X022187Y069324D01*
X022170Y069349D01*
X022157Y069376D01*
X022148Y069405D01*
X022142Y069435D01*
X022140Y069465D01*
D24*
X042569Y050595D02*
X042605Y050632D01*
X042605Y050522D01*
X042569Y050522D02*
X042642Y050522D01*
X050521Y044582D02*
X050632Y044582D01*
X050632Y044618D02*
X050632Y044545D01*
X050558Y044545D02*
X050521Y044582D01*
X044582Y036693D02*
X044582Y036583D01*
X044618Y036583D02*
X044545Y036583D01*
X044545Y036656D02*
X044582Y036693D01*
X036693Y042569D02*
X036693Y042642D01*
X036693Y042605D02*
X036583Y042605D01*
X036619Y042569D01*
X031881Y023392D02*
X031881Y023282D01*
X031844Y023282D02*
X031918Y023282D01*
X031844Y023355D02*
X031881Y023392D01*
M02*
