G75*
%MOIN*%
%OFA0B0*%
%FSLAX24Y24*%
%IPPOS*%
%LPD*%
%AMOC8*
5,1,8,0,0,1.08239X$1,22.5*
%
%ADD10C,0.0160*%
%ADD11C,0.0520*%
%ADD12R,0.0660X0.0660*%
%ADD13C,0.0660*%
%ADD14OC8,0.0520*%
%ADD15C,0.0660*%
%ADD16C,0.0000*%
%ADD17C,0.0104*%
%ADD18C,0.0520*%
%ADD19C,0.0554*%
%ADD20C,0.0705*%
%ADD21C,0.0600*%
%ADD22C,0.0620*%
%ADD23OC8,0.0600*%
%ADD24C,0.0400*%
%ADD25C,0.0394*%
%ADD26R,0.0396X0.0396*%
%ADD27C,0.0396*%
%ADD28C,0.0860*%
%ADD29C,0.0260*%
D10*
X037702Y037702D02*
X049513Y037702D01*
X049513Y049513D01*
X037702Y049513D01*
X037702Y037702D01*
X025103Y080615D02*
X024205Y080152D01*
X023318Y079667D01*
X022443Y079160D01*
X021581Y078632D01*
X020733Y078083D01*
X019898Y077513D01*
X019077Y076923D01*
X018271Y076314D01*
X017480Y075684D01*
X016704Y075036D01*
X015945Y074369D01*
X015202Y073683D01*
X014476Y072980D01*
X013768Y072259D01*
X013077Y071521D01*
X012405Y070766D01*
X011751Y069995D01*
X011116Y069208D01*
X010501Y068406D01*
X009906Y067589D01*
X009331Y066758D01*
X008776Y065913D01*
X008242Y065055D01*
X007729Y064184D01*
X007238Y063301D01*
X006768Y062406D01*
X006321Y061499D01*
X005895Y060582D01*
X005493Y059655D01*
X005113Y058719D01*
X004756Y057773D01*
X004422Y056819D01*
X004112Y055857D01*
X003825Y054888D01*
X003562Y053912D01*
X003323Y052929D01*
X003108Y051942D01*
X002918Y050949D01*
X002751Y049952D01*
X002609Y048951D01*
X002492Y047947D01*
X002399Y046941D01*
X002331Y045932D01*
X002288Y044922D01*
X002269Y043912D01*
X002275Y042901D01*
X002305Y041891D01*
X002361Y040881D01*
X002441Y039874D01*
X002545Y038868D01*
X002675Y037866D01*
X002828Y036867D01*
X003006Y035872D01*
X003208Y034881D01*
X003435Y033896D01*
X003685Y032917D01*
X003960Y031944D01*
X004258Y030978D01*
X004579Y030020D01*
X004924Y029070D01*
X005292Y028129D01*
X005683Y027196D01*
X006097Y026274D01*
X006533Y025362D01*
X006991Y024461D01*
X007471Y023572D01*
X007973Y022694D01*
X008496Y021829D01*
X009040Y020977D01*
X009604Y020139D01*
X010189Y019315D01*
X010794Y018505D01*
X011419Y017710D01*
X012063Y016931D01*
X012725Y016168D01*
X013406Y015421D01*
X014106Y014691D01*
X014822Y013978D01*
X015556Y013283D01*
X016307Y012606D01*
X017074Y011948D01*
X017857Y011309D01*
X018656Y010689D01*
X019469Y010089D01*
X020297Y009509D01*
X021139Y008949D01*
X021994Y008410D01*
X022862Y007892D01*
X023742Y007396D01*
X024634Y006921D01*
X025538Y006468D01*
X026453Y006037D01*
X027377Y005629D01*
X028312Y005244D01*
X029255Y004881D01*
X030207Y004542D01*
X031168Y004226D01*
X032135Y003934D01*
X033110Y003665D01*
X034090Y003420D01*
X035077Y003200D01*
X036068Y003003D01*
X037064Y002831D01*
X038064Y002683D01*
X039067Y002560D01*
X040073Y002461D01*
X041082Y002387D01*
X042091Y002338D01*
X043102Y002313D01*
X044112Y002313D01*
X045123Y002338D01*
X046132Y002387D01*
X047141Y002461D01*
X048147Y002560D01*
X049150Y002683D01*
X050150Y002831D01*
X051146Y003003D01*
X052137Y003200D01*
X053124Y003420D01*
X054104Y003665D01*
X055079Y003934D01*
X056046Y004226D01*
X057007Y004542D01*
X057959Y004881D01*
X058902Y005244D01*
X059837Y005629D01*
X060761Y006037D01*
X061676Y006468D01*
X062580Y006921D01*
X063472Y007396D01*
X064352Y007892D01*
X065220Y008410D01*
X066075Y008949D01*
X066917Y009509D01*
X067745Y010089D01*
X068558Y010689D01*
X069357Y011309D01*
X070140Y011948D01*
X070907Y012606D01*
X071658Y013283D01*
X072392Y013978D01*
X073108Y014691D01*
X073808Y015421D01*
X074489Y016168D01*
X075151Y016931D01*
X075795Y017710D01*
X076420Y018505D01*
X077025Y019315D01*
X077610Y020139D01*
X078174Y020977D01*
X078718Y021829D01*
X079241Y022694D01*
X079743Y023572D01*
X080223Y024461D01*
X080681Y025362D01*
X081117Y026274D01*
X081531Y027196D01*
X081922Y028129D01*
X082290Y029070D01*
X082635Y030020D01*
X082956Y030978D01*
X083254Y031944D01*
X083529Y032917D01*
X083779Y033896D01*
X084006Y034881D01*
X084208Y035872D01*
X084386Y036867D01*
X084539Y037866D01*
X084669Y038868D01*
X084773Y039874D01*
X084853Y040881D01*
X084909Y041891D01*
X084939Y042901D01*
X084945Y043912D01*
X084926Y044922D01*
X084883Y045932D01*
X084815Y046941D01*
X084722Y047947D01*
X084605Y048951D01*
X084463Y049952D01*
X084296Y050949D01*
X084106Y051942D01*
X083891Y052929D01*
X083652Y053912D01*
X083389Y054888D01*
X083102Y055857D01*
X082792Y056819D01*
X082458Y057773D01*
X082101Y058719D01*
X081721Y059655D01*
X081319Y060582D01*
X080893Y061499D01*
X080446Y062406D01*
X079976Y063301D01*
X079485Y064184D01*
X078972Y065055D01*
X078438Y065913D01*
X077883Y066758D01*
X077308Y067589D01*
X076713Y068406D01*
X076098Y069208D01*
X075463Y069995D01*
X074809Y070766D01*
X074137Y071521D01*
X073446Y072259D01*
X072738Y072980D01*
X072012Y073683D01*
X071269Y074369D01*
X070510Y075036D01*
X069734Y075684D01*
X068943Y076314D01*
X068137Y076923D01*
X067316Y077513D01*
X066481Y078083D01*
X065633Y078632D01*
X064771Y079160D01*
X063896Y079667D01*
X063009Y080152D01*
X062111Y080615D01*
X062049Y080655D01*
X061986Y080692D01*
X061921Y080725D01*
X061855Y080754D01*
X061786Y080780D01*
X061717Y080803D01*
X061646Y080822D01*
X061575Y080837D01*
X061503Y080848D01*
X061430Y080855D01*
X061357Y080859D01*
X061284Y080858D01*
X061212Y080854D01*
X061139Y080846D01*
X061067Y080834D01*
X060996Y080819D01*
X060925Y080799D01*
X060856Y080776D01*
X060788Y080750D01*
X060722Y080719D01*
X060657Y080686D01*
X060594Y080649D01*
X060533Y080608D01*
X060475Y080565D01*
X060419Y080518D01*
X054225Y074328D01*
X060037Y077694D02*
X060039Y077750D01*
X060045Y077805D01*
X060055Y077859D01*
X060068Y077913D01*
X060086Y077966D01*
X060107Y078017D01*
X060131Y078067D01*
X060159Y078115D01*
X060191Y078161D01*
X060225Y078205D01*
X060263Y078246D01*
X060303Y078284D01*
X060346Y078319D01*
X060391Y078351D01*
X060439Y078380D01*
X060488Y078406D01*
X060539Y078428D01*
X060591Y078446D01*
X060645Y078460D01*
X060700Y078471D01*
X060755Y078478D01*
X060810Y078481D01*
X060866Y078480D01*
X060921Y078475D01*
X060976Y078466D01*
X061030Y078454D01*
X061083Y078437D01*
X061135Y078417D01*
X061185Y078393D01*
X061233Y078366D01*
X061280Y078336D01*
X061324Y078302D01*
X061366Y078265D01*
X061404Y078225D01*
X061441Y078183D01*
X061474Y078138D01*
X061503Y078092D01*
X061530Y078043D01*
X061552Y077992D01*
X061572Y077940D01*
X061587Y077886D01*
X061599Y077832D01*
X061607Y077777D01*
X061611Y077722D01*
X061611Y077666D01*
X061607Y077611D01*
X061599Y077556D01*
X061587Y077502D01*
X061572Y077448D01*
X061552Y077396D01*
X061530Y077345D01*
X061503Y077296D01*
X061474Y077250D01*
X061441Y077205D01*
X061404Y077163D01*
X061366Y077123D01*
X061324Y077086D01*
X061280Y077052D01*
X061233Y077022D01*
X061185Y076995D01*
X061135Y076971D01*
X061083Y076951D01*
X061030Y076934D01*
X060976Y076922D01*
X060921Y076913D01*
X060866Y076908D01*
X060810Y076907D01*
X060755Y076910D01*
X060700Y076917D01*
X060645Y076928D01*
X060591Y076942D01*
X060539Y076960D01*
X060488Y076982D01*
X060439Y077008D01*
X060391Y077037D01*
X060346Y077069D01*
X060303Y077104D01*
X060263Y077142D01*
X060225Y077183D01*
X060191Y077227D01*
X060159Y077273D01*
X060131Y077321D01*
X060107Y077371D01*
X060086Y077422D01*
X060068Y077475D01*
X060055Y077529D01*
X060045Y077583D01*
X060039Y077638D01*
X060037Y077694D01*
X054225Y074328D02*
X053965Y074075D01*
X053700Y073827D01*
X053428Y073587D01*
X053151Y073353D01*
X052868Y073126D01*
X052579Y072905D01*
X052286Y072692D01*
X051987Y072486D01*
X051684Y072287D01*
X051375Y072096D01*
X051063Y071912D01*
X050745Y071735D01*
X050424Y071567D01*
X050099Y071406D01*
X049770Y071253D01*
X049437Y071108D01*
X049101Y070971D01*
X048762Y070842D01*
X048419Y070722D01*
X048074Y070610D01*
X047727Y070506D01*
X047376Y070411D01*
X047024Y070324D01*
X046670Y070246D01*
X046314Y070176D01*
X045956Y070115D01*
X045597Y070062D01*
X045237Y070019D01*
X044876Y069984D01*
X044514Y069957D01*
X044151Y069940D01*
X043788Y069931D01*
X043426Y069931D01*
X043063Y069940D01*
X042700Y069957D01*
X042338Y069984D01*
X041977Y070019D01*
X041617Y070062D01*
X041258Y070115D01*
X040900Y070176D01*
X040544Y070246D01*
X040190Y070324D01*
X039838Y070411D01*
X039487Y070506D01*
X039140Y070610D01*
X038795Y070722D01*
X038452Y070842D01*
X038113Y070971D01*
X037777Y071108D01*
X037444Y071253D01*
X037115Y071406D01*
X036790Y071567D01*
X036469Y071735D01*
X036151Y071912D01*
X035839Y072096D01*
X035530Y072287D01*
X035227Y072486D01*
X034928Y072692D01*
X034635Y072905D01*
X034346Y073126D01*
X034063Y073353D01*
X033786Y073587D01*
X033514Y073827D01*
X033249Y074075D01*
X032989Y074328D01*
X026836Y080476D01*
X026787Y080527D01*
X026736Y080576D01*
X026681Y080621D01*
X026624Y080663D01*
X026565Y080702D01*
X026504Y080738D01*
X026440Y080770D01*
X026376Y080799D01*
X026309Y080824D01*
X026241Y080845D01*
X026173Y080862D01*
X026103Y080876D01*
X026033Y080886D01*
X025962Y080891D01*
X025891Y080893D01*
X025820Y080891D01*
X025750Y080885D01*
X025679Y080874D01*
X025610Y080860D01*
X025541Y080842D01*
X025474Y080821D01*
X025408Y080795D01*
X025343Y080766D01*
X025280Y080733D01*
X025219Y080697D01*
X025160Y080658D01*
X025103Y080615D01*
X025604Y077694D02*
X025606Y077750D01*
X025612Y077805D01*
X025622Y077859D01*
X025635Y077913D01*
X025653Y077966D01*
X025674Y078017D01*
X025698Y078067D01*
X025726Y078115D01*
X025758Y078161D01*
X025792Y078205D01*
X025830Y078246D01*
X025870Y078284D01*
X025913Y078319D01*
X025958Y078351D01*
X026006Y078380D01*
X026055Y078406D01*
X026106Y078428D01*
X026158Y078446D01*
X026212Y078460D01*
X026267Y078471D01*
X026322Y078478D01*
X026377Y078481D01*
X026433Y078480D01*
X026488Y078475D01*
X026543Y078466D01*
X026597Y078454D01*
X026650Y078437D01*
X026702Y078417D01*
X026752Y078393D01*
X026800Y078366D01*
X026847Y078336D01*
X026891Y078302D01*
X026933Y078265D01*
X026971Y078225D01*
X027008Y078183D01*
X027041Y078138D01*
X027070Y078092D01*
X027097Y078043D01*
X027119Y077992D01*
X027139Y077940D01*
X027154Y077886D01*
X027166Y077832D01*
X027174Y077777D01*
X027178Y077722D01*
X027178Y077666D01*
X027174Y077611D01*
X027166Y077556D01*
X027154Y077502D01*
X027139Y077448D01*
X027119Y077396D01*
X027097Y077345D01*
X027070Y077296D01*
X027041Y077250D01*
X027008Y077205D01*
X026971Y077163D01*
X026933Y077123D01*
X026891Y077086D01*
X026847Y077052D01*
X026800Y077022D01*
X026752Y076995D01*
X026702Y076971D01*
X026650Y076951D01*
X026597Y076934D01*
X026543Y076922D01*
X026488Y076913D01*
X026433Y076908D01*
X026377Y076907D01*
X026322Y076910D01*
X026267Y076917D01*
X026212Y076928D01*
X026158Y076942D01*
X026106Y076960D01*
X026055Y076982D01*
X026006Y077008D01*
X025958Y077037D01*
X025913Y077069D01*
X025870Y077104D01*
X025830Y077142D01*
X025792Y077183D01*
X025758Y077227D01*
X025726Y077273D01*
X025698Y077321D01*
X025674Y077371D01*
X025653Y077422D01*
X025635Y077475D01*
X025622Y077529D01*
X025612Y077583D01*
X025606Y077638D01*
X025604Y077694D01*
X007387Y043607D02*
X007389Y043663D01*
X007395Y043718D01*
X007405Y043772D01*
X007418Y043826D01*
X007436Y043879D01*
X007457Y043930D01*
X007481Y043980D01*
X007509Y044028D01*
X007541Y044074D01*
X007575Y044118D01*
X007613Y044159D01*
X007653Y044197D01*
X007696Y044232D01*
X007741Y044264D01*
X007789Y044293D01*
X007838Y044319D01*
X007889Y044341D01*
X007941Y044359D01*
X007995Y044373D01*
X008050Y044384D01*
X008105Y044391D01*
X008160Y044394D01*
X008216Y044393D01*
X008271Y044388D01*
X008326Y044379D01*
X008380Y044367D01*
X008433Y044350D01*
X008485Y044330D01*
X008535Y044306D01*
X008583Y044279D01*
X008630Y044249D01*
X008674Y044215D01*
X008716Y044178D01*
X008754Y044138D01*
X008791Y044096D01*
X008824Y044051D01*
X008853Y044005D01*
X008880Y043956D01*
X008902Y043905D01*
X008922Y043853D01*
X008937Y043799D01*
X008949Y043745D01*
X008957Y043690D01*
X008961Y043635D01*
X008961Y043579D01*
X008957Y043524D01*
X008949Y043469D01*
X008937Y043415D01*
X008922Y043361D01*
X008902Y043309D01*
X008880Y043258D01*
X008853Y043209D01*
X008824Y043163D01*
X008791Y043118D01*
X008754Y043076D01*
X008716Y043036D01*
X008674Y042999D01*
X008630Y042965D01*
X008583Y042935D01*
X008535Y042908D01*
X008485Y042884D01*
X008433Y042864D01*
X008380Y042847D01*
X008326Y042835D01*
X008271Y042826D01*
X008216Y042821D01*
X008160Y042820D01*
X008105Y042823D01*
X008050Y042830D01*
X007995Y042841D01*
X007941Y042855D01*
X007889Y042873D01*
X007838Y042895D01*
X007789Y042921D01*
X007741Y042950D01*
X007696Y042982D01*
X007653Y043017D01*
X007613Y043055D01*
X007575Y043096D01*
X007541Y043140D01*
X007509Y043186D01*
X007481Y043234D01*
X007457Y043284D01*
X007436Y043335D01*
X007418Y043388D01*
X007405Y043442D01*
X007395Y043496D01*
X007389Y043551D01*
X007387Y043607D01*
X042820Y005418D02*
X042822Y005474D01*
X042828Y005529D01*
X042838Y005583D01*
X042851Y005637D01*
X042869Y005690D01*
X042890Y005741D01*
X042914Y005791D01*
X042942Y005839D01*
X042974Y005885D01*
X043008Y005929D01*
X043046Y005970D01*
X043086Y006008D01*
X043129Y006043D01*
X043174Y006075D01*
X043222Y006104D01*
X043271Y006130D01*
X043322Y006152D01*
X043374Y006170D01*
X043428Y006184D01*
X043483Y006195D01*
X043538Y006202D01*
X043593Y006205D01*
X043649Y006204D01*
X043704Y006199D01*
X043759Y006190D01*
X043813Y006178D01*
X043866Y006161D01*
X043918Y006141D01*
X043968Y006117D01*
X044016Y006090D01*
X044063Y006060D01*
X044107Y006026D01*
X044149Y005989D01*
X044187Y005949D01*
X044224Y005907D01*
X044257Y005862D01*
X044286Y005816D01*
X044313Y005767D01*
X044335Y005716D01*
X044355Y005664D01*
X044370Y005610D01*
X044382Y005556D01*
X044390Y005501D01*
X044394Y005446D01*
X044394Y005390D01*
X044390Y005335D01*
X044382Y005280D01*
X044370Y005226D01*
X044355Y005172D01*
X044335Y005120D01*
X044313Y005069D01*
X044286Y005020D01*
X044257Y004974D01*
X044224Y004929D01*
X044187Y004887D01*
X044149Y004847D01*
X044107Y004810D01*
X044063Y004776D01*
X044016Y004746D01*
X043968Y004719D01*
X043918Y004695D01*
X043866Y004675D01*
X043813Y004658D01*
X043759Y004646D01*
X043704Y004637D01*
X043649Y004632D01*
X043593Y004631D01*
X043538Y004634D01*
X043483Y004641D01*
X043428Y004652D01*
X043374Y004666D01*
X043322Y004684D01*
X043271Y004706D01*
X043222Y004732D01*
X043174Y004761D01*
X043129Y004793D01*
X043086Y004828D01*
X043046Y004866D01*
X043008Y004907D01*
X042974Y004951D01*
X042942Y004997D01*
X042914Y005045D01*
X042890Y005095D01*
X042869Y005146D01*
X042851Y005199D01*
X042838Y005253D01*
X042828Y005307D01*
X042822Y005362D01*
X042820Y005418D01*
X078253Y043607D02*
X078255Y043663D01*
X078261Y043718D01*
X078271Y043772D01*
X078284Y043826D01*
X078302Y043879D01*
X078323Y043930D01*
X078347Y043980D01*
X078375Y044028D01*
X078407Y044074D01*
X078441Y044118D01*
X078479Y044159D01*
X078519Y044197D01*
X078562Y044232D01*
X078607Y044264D01*
X078655Y044293D01*
X078704Y044319D01*
X078755Y044341D01*
X078807Y044359D01*
X078861Y044373D01*
X078916Y044384D01*
X078971Y044391D01*
X079026Y044394D01*
X079082Y044393D01*
X079137Y044388D01*
X079192Y044379D01*
X079246Y044367D01*
X079299Y044350D01*
X079351Y044330D01*
X079401Y044306D01*
X079449Y044279D01*
X079496Y044249D01*
X079540Y044215D01*
X079582Y044178D01*
X079620Y044138D01*
X079657Y044096D01*
X079690Y044051D01*
X079719Y044005D01*
X079746Y043956D01*
X079768Y043905D01*
X079788Y043853D01*
X079803Y043799D01*
X079815Y043745D01*
X079823Y043690D01*
X079827Y043635D01*
X079827Y043579D01*
X079823Y043524D01*
X079815Y043469D01*
X079803Y043415D01*
X079788Y043361D01*
X079768Y043309D01*
X079746Y043258D01*
X079719Y043209D01*
X079690Y043163D01*
X079657Y043118D01*
X079620Y043076D01*
X079582Y043036D01*
X079540Y042999D01*
X079496Y042965D01*
X079449Y042935D01*
X079401Y042908D01*
X079351Y042884D01*
X079299Y042864D01*
X079246Y042847D01*
X079192Y042835D01*
X079137Y042826D01*
X079082Y042821D01*
X079026Y042820D01*
X078971Y042823D01*
X078916Y042830D01*
X078861Y042841D01*
X078807Y042855D01*
X078755Y042873D01*
X078704Y042895D01*
X078655Y042921D01*
X078607Y042950D01*
X078562Y042982D01*
X078519Y043017D01*
X078479Y043055D01*
X078441Y043096D01*
X078407Y043140D01*
X078375Y043186D01*
X078347Y043234D01*
X078323Y043284D01*
X078302Y043335D01*
X078284Y043388D01*
X078271Y043442D01*
X078261Y043496D01*
X078255Y043551D01*
X078253Y043607D01*
D11*
X067711Y057243D03*
X065811Y057243D03*
X034271Y030225D03*
X035162Y027123D03*
X029451Y030702D03*
X029451Y032602D03*
D12*
X026812Y023738D03*
X058374Y059880D03*
D13*
X059374Y059880D03*
X060374Y059880D03*
X061374Y059880D03*
X062374Y059880D03*
X063374Y059880D03*
X064374Y059880D03*
X065374Y059880D03*
X066374Y059880D03*
X067374Y059880D03*
X068374Y059880D03*
X069374Y059880D03*
X070374Y059880D03*
X071374Y059880D03*
X071374Y062880D03*
X070374Y062880D03*
X069374Y062880D03*
X068374Y062880D03*
X067374Y062880D03*
X066374Y062880D03*
X065374Y062880D03*
X064374Y062880D03*
X063374Y062880D03*
X062374Y062880D03*
X061374Y062880D03*
X060374Y062880D03*
X059374Y062880D03*
X058374Y062880D03*
X026812Y036738D03*
X026812Y035738D03*
X026812Y034738D03*
X026812Y033738D03*
X026812Y032738D03*
X026812Y031738D03*
X026812Y030738D03*
X026812Y029738D03*
X026812Y028738D03*
X026812Y027738D03*
X026812Y026738D03*
X026812Y025738D03*
X026812Y024738D03*
X023812Y024738D03*
X023812Y023738D03*
X023812Y025738D03*
X023812Y026738D03*
X023812Y027738D03*
X023812Y028738D03*
X023812Y029738D03*
X023812Y030738D03*
X023812Y031738D03*
X023812Y032738D03*
X023812Y033738D03*
X023812Y034738D03*
X023812Y035738D03*
X023812Y036738D03*
D14*
X022461Y032711D03*
X022461Y029711D03*
X022301Y027425D03*
X021301Y027425D03*
X028268Y028110D03*
X029485Y028013D03*
X030485Y028013D03*
X028268Y025110D03*
X035162Y028123D03*
X035271Y030225D03*
X030461Y035367D03*
X029461Y035367D03*
X005487Y042589D03*
X005487Y044589D03*
X005450Y045633D03*
X004450Y045633D03*
X030801Y068332D03*
X032801Y068332D03*
X033713Y068558D03*
X033713Y069558D03*
X042583Y063494D03*
X044583Y063494D03*
X045394Y063498D03*
X045394Y064498D03*
X054419Y068318D03*
X056419Y068318D03*
X057251Y068338D03*
X057251Y069338D03*
X064971Y065220D03*
X065971Y065220D03*
X067334Y063764D03*
X067334Y066764D03*
X069431Y058857D03*
X069431Y055857D03*
X068955Y054553D03*
X067955Y054553D03*
X066215Y054348D03*
X065215Y054348D03*
X081622Y044623D03*
X081622Y042623D03*
X081621Y041760D03*
X082621Y041760D03*
X052501Y006286D03*
X050501Y006286D03*
X049666Y006401D03*
X049666Y005401D03*
X036782Y006346D03*
X034782Y006346D03*
X033943Y006446D03*
X033943Y005446D03*
D15*
X037183Y028351D02*
X037843Y028351D01*
X037843Y029351D02*
X037183Y029351D01*
X037183Y030351D02*
X037843Y030351D01*
D16*
X042763Y029351D02*
X042765Y029401D01*
X042771Y029451D01*
X042781Y029501D01*
X042794Y029549D01*
X042811Y029597D01*
X042832Y029643D01*
X042856Y029687D01*
X042884Y029729D01*
X042915Y029769D01*
X042949Y029806D01*
X042986Y029841D01*
X043025Y029872D01*
X043066Y029901D01*
X043110Y029926D01*
X043156Y029948D01*
X043203Y029966D01*
X043251Y029980D01*
X043300Y029991D01*
X043350Y029998D01*
X043400Y030001D01*
X043451Y030000D01*
X043501Y029995D01*
X043551Y029986D01*
X043599Y029974D01*
X043647Y029957D01*
X043693Y029937D01*
X043738Y029914D01*
X043781Y029887D01*
X043821Y029857D01*
X043859Y029824D01*
X043894Y029788D01*
X043927Y029749D01*
X043956Y029708D01*
X043982Y029665D01*
X044005Y029620D01*
X044024Y029573D01*
X044039Y029525D01*
X044051Y029476D01*
X044059Y029426D01*
X044063Y029376D01*
X044063Y029326D01*
X044059Y029276D01*
X044051Y029226D01*
X044039Y029177D01*
X044024Y029129D01*
X044005Y029082D01*
X043982Y029037D01*
X043956Y028994D01*
X043927Y028953D01*
X043894Y028914D01*
X043859Y028878D01*
X043821Y028845D01*
X043781Y028815D01*
X043738Y028788D01*
X043693Y028765D01*
X043647Y028745D01*
X043599Y028728D01*
X043551Y028716D01*
X043501Y028707D01*
X043451Y028702D01*
X043400Y028701D01*
X043350Y028704D01*
X043300Y028711D01*
X043251Y028722D01*
X043203Y028736D01*
X043156Y028754D01*
X043110Y028776D01*
X043066Y028801D01*
X043025Y028830D01*
X042986Y028861D01*
X042949Y028896D01*
X042915Y028933D01*
X042884Y028973D01*
X042856Y029015D01*
X042832Y029059D01*
X042811Y029105D01*
X042794Y029153D01*
X042781Y029201D01*
X042771Y029251D01*
X042765Y029301D01*
X042763Y029351D01*
X054554Y032769D02*
X054556Y032799D01*
X054562Y032829D01*
X054571Y032858D01*
X054584Y032885D01*
X054601Y032910D01*
X054620Y032933D01*
X054643Y032954D01*
X054668Y032971D01*
X054694Y032985D01*
X054723Y032995D01*
X054752Y033002D01*
X054782Y033005D01*
X054813Y033004D01*
X054843Y032999D01*
X054872Y032990D01*
X054899Y032978D01*
X054925Y032963D01*
X054949Y032944D01*
X054970Y032922D01*
X054988Y032898D01*
X055003Y032871D01*
X055014Y032843D01*
X055022Y032814D01*
X055026Y032784D01*
X055026Y032754D01*
X055022Y032724D01*
X055014Y032695D01*
X055003Y032667D01*
X054988Y032640D01*
X054970Y032616D01*
X054949Y032594D01*
X054925Y032575D01*
X054899Y032560D01*
X054872Y032548D01*
X054843Y032539D01*
X054813Y032534D01*
X054782Y032533D01*
X054752Y032536D01*
X054723Y032543D01*
X054694Y032553D01*
X054668Y032567D01*
X054643Y032584D01*
X054620Y032605D01*
X054601Y032628D01*
X054584Y032653D01*
X054571Y032680D01*
X054562Y032709D01*
X054556Y032739D01*
X054554Y032769D01*
X060554Y032769D02*
X060556Y032799D01*
X060562Y032829D01*
X060571Y032858D01*
X060584Y032885D01*
X060601Y032910D01*
X060620Y032933D01*
X060643Y032954D01*
X060668Y032971D01*
X060694Y032985D01*
X060723Y032995D01*
X060752Y033002D01*
X060782Y033005D01*
X060813Y033004D01*
X060843Y032999D01*
X060872Y032990D01*
X060899Y032978D01*
X060925Y032963D01*
X060949Y032944D01*
X060970Y032922D01*
X060988Y032898D01*
X061003Y032871D01*
X061014Y032843D01*
X061022Y032814D01*
X061026Y032784D01*
X061026Y032754D01*
X061022Y032724D01*
X061014Y032695D01*
X061003Y032667D01*
X060988Y032640D01*
X060970Y032616D01*
X060949Y032594D01*
X060925Y032575D01*
X060899Y032560D01*
X060872Y032548D01*
X060843Y032539D01*
X060813Y032534D01*
X060782Y032533D01*
X060752Y032536D01*
X060723Y032543D01*
X060694Y032553D01*
X060668Y032567D01*
X060643Y032584D01*
X060620Y032605D01*
X060601Y032628D01*
X060584Y032653D01*
X060571Y032680D01*
X060562Y032709D01*
X060556Y032739D01*
X060554Y032769D01*
X060554Y014769D02*
X060556Y014799D01*
X060562Y014829D01*
X060571Y014858D01*
X060584Y014885D01*
X060601Y014910D01*
X060620Y014933D01*
X060643Y014954D01*
X060668Y014971D01*
X060694Y014985D01*
X060723Y014995D01*
X060752Y015002D01*
X060782Y015005D01*
X060813Y015004D01*
X060843Y014999D01*
X060872Y014990D01*
X060899Y014978D01*
X060925Y014963D01*
X060949Y014944D01*
X060970Y014922D01*
X060988Y014898D01*
X061003Y014871D01*
X061014Y014843D01*
X061022Y014814D01*
X061026Y014784D01*
X061026Y014754D01*
X061022Y014724D01*
X061014Y014695D01*
X061003Y014667D01*
X060988Y014640D01*
X060970Y014616D01*
X060949Y014594D01*
X060925Y014575D01*
X060899Y014560D01*
X060872Y014548D01*
X060843Y014539D01*
X060813Y014534D01*
X060782Y014533D01*
X060752Y014536D01*
X060723Y014543D01*
X060694Y014553D01*
X060668Y014567D01*
X060643Y014584D01*
X060620Y014605D01*
X060601Y014628D01*
X060584Y014653D01*
X060571Y014680D01*
X060562Y014709D01*
X060556Y014739D01*
X060554Y014769D01*
X054554Y014769D02*
X054556Y014799D01*
X054562Y014829D01*
X054571Y014858D01*
X054584Y014885D01*
X054601Y014910D01*
X054620Y014933D01*
X054643Y014954D01*
X054668Y014971D01*
X054694Y014985D01*
X054723Y014995D01*
X054752Y015002D01*
X054782Y015005D01*
X054813Y015004D01*
X054843Y014999D01*
X054872Y014990D01*
X054899Y014978D01*
X054925Y014963D01*
X054949Y014944D01*
X054970Y014922D01*
X054988Y014898D01*
X055003Y014871D01*
X055014Y014843D01*
X055022Y014814D01*
X055026Y014784D01*
X055026Y014754D01*
X055022Y014724D01*
X055014Y014695D01*
X055003Y014667D01*
X054988Y014640D01*
X054970Y014616D01*
X054949Y014594D01*
X054925Y014575D01*
X054899Y014560D01*
X054872Y014548D01*
X054843Y014539D01*
X054813Y014534D01*
X054782Y014533D01*
X054752Y014536D01*
X054723Y014543D01*
X054694Y014553D01*
X054668Y014567D01*
X054643Y014584D01*
X054620Y014605D01*
X054601Y014628D01*
X054584Y014653D01*
X054571Y014680D01*
X054562Y014709D01*
X054556Y014739D01*
X054554Y014769D01*
X022140Y051465D02*
X022142Y051495D01*
X022148Y051525D01*
X022157Y051554D01*
X022170Y051581D01*
X022187Y051606D01*
X022206Y051629D01*
X022229Y051650D01*
X022254Y051667D01*
X022280Y051681D01*
X022309Y051691D01*
X022338Y051698D01*
X022368Y051701D01*
X022399Y051700D01*
X022429Y051695D01*
X022458Y051686D01*
X022485Y051674D01*
X022511Y051659D01*
X022535Y051640D01*
X022556Y051618D01*
X022574Y051594D01*
X022589Y051567D01*
X022600Y051539D01*
X022608Y051510D01*
X022612Y051480D01*
X022612Y051450D01*
X022608Y051420D01*
X022600Y051391D01*
X022589Y051363D01*
X022574Y051336D01*
X022556Y051312D01*
X022535Y051290D01*
X022511Y051271D01*
X022485Y051256D01*
X022458Y051244D01*
X022429Y051235D01*
X022399Y051230D01*
X022368Y051229D01*
X022338Y051232D01*
X022309Y051239D01*
X022280Y051249D01*
X022254Y051263D01*
X022229Y051280D01*
X022206Y051301D01*
X022187Y051324D01*
X022170Y051349D01*
X022157Y051376D01*
X022148Y051405D01*
X022142Y051435D01*
X022140Y051465D01*
X016140Y051465D02*
X016142Y051495D01*
X016148Y051525D01*
X016157Y051554D01*
X016170Y051581D01*
X016187Y051606D01*
X016206Y051629D01*
X016229Y051650D01*
X016254Y051667D01*
X016280Y051681D01*
X016309Y051691D01*
X016338Y051698D01*
X016368Y051701D01*
X016399Y051700D01*
X016429Y051695D01*
X016458Y051686D01*
X016485Y051674D01*
X016511Y051659D01*
X016535Y051640D01*
X016556Y051618D01*
X016574Y051594D01*
X016589Y051567D01*
X016600Y051539D01*
X016608Y051510D01*
X016612Y051480D01*
X016612Y051450D01*
X016608Y051420D01*
X016600Y051391D01*
X016589Y051363D01*
X016574Y051336D01*
X016556Y051312D01*
X016535Y051290D01*
X016511Y051271D01*
X016485Y051256D01*
X016458Y051244D01*
X016429Y051235D01*
X016399Y051230D01*
X016368Y051229D01*
X016338Y051232D01*
X016309Y051239D01*
X016280Y051249D01*
X016254Y051263D01*
X016229Y051280D01*
X016206Y051301D01*
X016187Y051324D01*
X016170Y051349D01*
X016157Y051376D01*
X016148Y051405D01*
X016142Y051435D01*
X016140Y051465D01*
X016140Y069465D02*
X016142Y069495D01*
X016148Y069525D01*
X016157Y069554D01*
X016170Y069581D01*
X016187Y069606D01*
X016206Y069629D01*
X016229Y069650D01*
X016254Y069667D01*
X016280Y069681D01*
X016309Y069691D01*
X016338Y069698D01*
X016368Y069701D01*
X016399Y069700D01*
X016429Y069695D01*
X016458Y069686D01*
X016485Y069674D01*
X016511Y069659D01*
X016535Y069640D01*
X016556Y069618D01*
X016574Y069594D01*
X016589Y069567D01*
X016600Y069539D01*
X016608Y069510D01*
X016612Y069480D01*
X016612Y069450D01*
X016608Y069420D01*
X016600Y069391D01*
X016589Y069363D01*
X016574Y069336D01*
X016556Y069312D01*
X016535Y069290D01*
X016511Y069271D01*
X016485Y069256D01*
X016458Y069244D01*
X016429Y069235D01*
X016399Y069230D01*
X016368Y069229D01*
X016338Y069232D01*
X016309Y069239D01*
X016280Y069249D01*
X016254Y069263D01*
X016229Y069280D01*
X016206Y069301D01*
X016187Y069324D01*
X016170Y069349D01*
X016157Y069376D01*
X016148Y069405D01*
X016142Y069435D01*
X016140Y069465D01*
X022140Y069465D02*
X022142Y069495D01*
X022148Y069525D01*
X022157Y069554D01*
X022170Y069581D01*
X022187Y069606D01*
X022206Y069629D01*
X022229Y069650D01*
X022254Y069667D01*
X022280Y069681D01*
X022309Y069691D01*
X022338Y069698D01*
X022368Y069701D01*
X022399Y069700D01*
X022429Y069695D01*
X022458Y069686D01*
X022485Y069674D01*
X022511Y069659D01*
X022535Y069640D01*
X022556Y069618D01*
X022574Y069594D01*
X022589Y069567D01*
X022600Y069539D01*
X022608Y069510D01*
X022612Y069480D01*
X022612Y069450D01*
X022608Y069420D01*
X022600Y069391D01*
X022589Y069363D01*
X022574Y069336D01*
X022556Y069312D01*
X022535Y069290D01*
X022511Y069271D01*
X022485Y069256D01*
X022458Y069244D01*
X022429Y069235D01*
X022399Y069230D01*
X022368Y069229D01*
X022338Y069232D01*
X022309Y069239D01*
X022280Y069249D01*
X022254Y069263D01*
X022229Y069280D01*
X022206Y069301D01*
X022187Y069324D01*
X022170Y069349D01*
X022157Y069376D01*
X022148Y069405D01*
X022142Y069435D01*
X022140Y069465D01*
D17*
X018164Y072123D02*
X018112Y072071D01*
X018127Y072242D01*
X018259Y072352D01*
X018430Y072337D01*
X018540Y072205D01*
X018525Y072034D01*
X018393Y071924D01*
X018222Y071939D01*
X018112Y072071D01*
X018193Y072096D01*
X018202Y072203D01*
X018284Y072271D01*
X018391Y072262D01*
X018459Y072180D01*
X018450Y072073D01*
X018368Y072005D01*
X018261Y072014D01*
X018193Y072096D01*
X018273Y072121D01*
X018277Y072164D01*
X018309Y072191D01*
X018352Y072187D01*
X018379Y072155D01*
X018375Y072112D01*
X018343Y072085D01*
X018300Y072089D01*
X018273Y072121D01*
X019696Y073409D02*
X019644Y073357D01*
X019659Y073528D01*
X019791Y073638D01*
X019962Y073623D01*
X020072Y073491D01*
X020057Y073320D01*
X019925Y073210D01*
X019754Y073225D01*
X019644Y073357D01*
X019725Y073382D01*
X019734Y073489D01*
X019816Y073557D01*
X019923Y073548D01*
X019991Y073466D01*
X019982Y073359D01*
X019900Y073291D01*
X019793Y073300D01*
X019725Y073382D01*
X019805Y073407D01*
X019809Y073450D01*
X019841Y073477D01*
X019884Y073473D01*
X019911Y073441D01*
X019907Y073398D01*
X019875Y073371D01*
X019832Y073375D01*
X019805Y073407D01*
X020417Y074171D02*
X020365Y074223D01*
X020536Y074208D01*
X020646Y074076D01*
X020631Y073905D01*
X020499Y073795D01*
X020328Y073810D01*
X020218Y073942D01*
X020233Y074113D01*
X020365Y074223D01*
X020390Y074142D01*
X020497Y074133D01*
X020565Y074051D01*
X020556Y073944D01*
X020474Y073876D01*
X020367Y073885D01*
X020299Y073967D01*
X020308Y074074D01*
X020390Y074142D01*
X020415Y074062D01*
X020458Y074058D01*
X020485Y074026D01*
X020481Y073983D01*
X020449Y073956D01*
X020406Y073960D01*
X020379Y073992D01*
X020383Y074035D01*
X020415Y074062D01*
X019775Y074937D02*
X019723Y074989D01*
X019894Y074974D01*
X020004Y074842D01*
X019989Y074671D01*
X019857Y074561D01*
X019686Y074576D01*
X019576Y074708D01*
X019591Y074879D01*
X019723Y074989D01*
X019748Y074908D01*
X019855Y074899D01*
X019923Y074817D01*
X019914Y074710D01*
X019832Y074642D01*
X019725Y074651D01*
X019657Y074733D01*
X019666Y074840D01*
X019748Y074908D01*
X019773Y074828D01*
X019816Y074824D01*
X019843Y074792D01*
X019839Y074749D01*
X019807Y074722D01*
X019764Y074726D01*
X019737Y074758D01*
X019741Y074801D01*
X019773Y074828D01*
X008989Y061911D02*
X008937Y061963D01*
X009098Y062022D01*
X009254Y061950D01*
X009313Y061789D01*
X009241Y061633D01*
X009080Y061574D01*
X008924Y061646D01*
X008865Y061807D01*
X008937Y061963D01*
X008994Y061900D01*
X009095Y061938D01*
X009191Y061893D01*
X009229Y061792D01*
X009184Y061696D01*
X009083Y061658D01*
X008987Y061703D01*
X008949Y061804D01*
X008994Y061900D01*
X009051Y061839D01*
X009091Y061854D01*
X009130Y061836D01*
X009145Y061796D01*
X009127Y061757D01*
X009087Y061742D01*
X009048Y061760D01*
X009033Y061800D01*
X009051Y061839D01*
X009895Y061489D02*
X009843Y061541D01*
X010004Y061600D01*
X010160Y061528D01*
X010219Y061367D01*
X010147Y061211D01*
X009986Y061152D01*
X009830Y061224D01*
X009771Y061385D01*
X009843Y061541D01*
X009900Y061478D01*
X010001Y061516D01*
X010097Y061471D01*
X010135Y061370D01*
X010090Y061274D01*
X009989Y061236D01*
X009893Y061281D01*
X009855Y061382D01*
X009900Y061478D01*
X009957Y061417D01*
X009997Y061432D01*
X010036Y061414D01*
X010051Y061374D01*
X010033Y061335D01*
X009993Y061320D01*
X009954Y061338D01*
X009939Y061378D01*
X009957Y061417D01*
X009412Y060505D02*
X009360Y060453D01*
X009301Y060614D01*
X009373Y060770D01*
X009534Y060829D01*
X009690Y060757D01*
X009749Y060596D01*
X009677Y060440D01*
X009516Y060381D01*
X009360Y060453D01*
X009423Y060510D01*
X009385Y060611D01*
X009430Y060707D01*
X009531Y060745D01*
X009627Y060700D01*
X009665Y060599D01*
X009620Y060503D01*
X009519Y060465D01*
X009423Y060510D01*
X009484Y060567D01*
X009469Y060607D01*
X009487Y060646D01*
X009527Y060661D01*
X009566Y060643D01*
X009581Y060603D01*
X009563Y060564D01*
X009523Y060549D01*
X009484Y060567D01*
X008567Y058693D02*
X008515Y058641D01*
X008456Y058802D01*
X008528Y058958D01*
X008689Y059017D01*
X008845Y058945D01*
X008904Y058784D01*
X008832Y058628D01*
X008671Y058569D01*
X008515Y058641D01*
X008578Y058698D01*
X008540Y058799D01*
X008585Y058895D01*
X008686Y058933D01*
X008782Y058888D01*
X008820Y058787D01*
X008775Y058691D01*
X008674Y058653D01*
X008578Y058698D01*
X008639Y058755D01*
X008624Y058795D01*
X008642Y058834D01*
X008682Y058849D01*
X008721Y058831D01*
X008736Y058791D01*
X008718Y058752D01*
X008678Y058737D01*
X008639Y058755D01*
X008040Y029200D02*
X007988Y029148D01*
X008047Y029309D01*
X008203Y029381D01*
X008364Y029322D01*
X008436Y029166D01*
X008377Y029005D01*
X008221Y028933D01*
X008060Y028992D01*
X007988Y029148D01*
X008072Y029151D01*
X008110Y029252D01*
X008206Y029297D01*
X008307Y029259D01*
X008352Y029163D01*
X008314Y029062D01*
X008218Y029017D01*
X008117Y029055D01*
X008072Y029151D01*
X008156Y029155D01*
X008171Y029195D01*
X008210Y029213D01*
X008250Y029198D01*
X008268Y029159D01*
X008253Y029119D01*
X008214Y029101D01*
X008174Y029116D01*
X008156Y029155D01*
X008876Y028698D02*
X008824Y028750D01*
X008985Y028691D01*
X009057Y028535D01*
X008998Y028374D01*
X008842Y028302D01*
X008681Y028361D01*
X008609Y028517D01*
X008668Y028678D01*
X008824Y028750D01*
X008827Y028666D01*
X008928Y028628D01*
X008973Y028532D01*
X008935Y028431D01*
X008839Y028386D01*
X008738Y028424D01*
X008693Y028520D01*
X008731Y028621D01*
X008827Y028666D01*
X008831Y028582D01*
X008871Y028567D01*
X008889Y028528D01*
X008874Y028488D01*
X008835Y028470D01*
X008795Y028485D01*
X008777Y028524D01*
X008792Y028564D01*
X008831Y028582D01*
X007133Y028778D02*
X007081Y028726D01*
X007140Y028887D01*
X007296Y028959D01*
X007457Y028900D01*
X007529Y028744D01*
X007470Y028583D01*
X007314Y028511D01*
X007153Y028570D01*
X007081Y028726D01*
X007165Y028729D01*
X007203Y028830D01*
X007299Y028875D01*
X007400Y028837D01*
X007445Y028741D01*
X007407Y028640D01*
X007311Y028595D01*
X007210Y028633D01*
X007165Y028729D01*
X007249Y028733D01*
X007264Y028773D01*
X007303Y028791D01*
X007343Y028776D01*
X007361Y028737D01*
X007346Y028697D01*
X007307Y028679D01*
X007267Y028694D01*
X007249Y028733D01*
X009721Y026885D02*
X009669Y026937D01*
X009830Y026878D01*
X009902Y026722D01*
X009843Y026561D01*
X009687Y026489D01*
X009526Y026548D01*
X009454Y026704D01*
X009513Y026865D01*
X009669Y026937D01*
X009672Y026853D01*
X009773Y026815D01*
X009818Y026719D01*
X009780Y026618D01*
X009684Y026573D01*
X009583Y026611D01*
X009538Y026707D01*
X009576Y026808D01*
X009672Y026853D01*
X009676Y026769D01*
X009716Y026754D01*
X009734Y026715D01*
X009719Y026675D01*
X009680Y026657D01*
X009640Y026672D01*
X009622Y026711D01*
X009637Y026751D01*
X009676Y026769D01*
X017380Y015530D02*
X017328Y015478D01*
X017313Y015649D01*
X017423Y015781D01*
X017594Y015796D01*
X017726Y015686D01*
X017741Y015515D01*
X017631Y015383D01*
X017460Y015368D01*
X017328Y015478D01*
X017403Y015517D01*
X017394Y015624D01*
X017462Y015706D01*
X017569Y015715D01*
X017651Y015647D01*
X017660Y015540D01*
X017592Y015458D01*
X017485Y015449D01*
X017403Y015517D01*
X017478Y015556D01*
X017474Y015599D01*
X017501Y015631D01*
X017544Y015635D01*
X017576Y015608D01*
X017580Y015565D01*
X017553Y015533D01*
X017510Y015529D01*
X017478Y015556D01*
X016738Y014764D02*
X016686Y014712D01*
X016671Y014883D01*
X016781Y015015D01*
X016952Y015030D01*
X017084Y014920D01*
X017099Y014749D01*
X016989Y014617D01*
X016818Y014602D01*
X016686Y014712D01*
X016761Y014751D01*
X016752Y014858D01*
X016820Y014940D01*
X016927Y014949D01*
X017009Y014881D01*
X017018Y014774D01*
X016950Y014692D01*
X016843Y014683D01*
X016761Y014751D01*
X016836Y014790D01*
X016832Y014833D01*
X016859Y014865D01*
X016902Y014869D01*
X016934Y014842D01*
X016938Y014799D01*
X016911Y014767D01*
X016868Y014763D01*
X016836Y014790D01*
X018431Y014910D02*
X018483Y014858D01*
X018312Y014843D01*
X018180Y014953D01*
X018165Y015124D01*
X018275Y015256D01*
X018446Y015271D01*
X018578Y015161D01*
X018593Y014990D01*
X018483Y014858D01*
X018444Y014933D01*
X018337Y014924D01*
X018255Y014992D01*
X018246Y015099D01*
X018314Y015181D01*
X018421Y015190D01*
X018503Y015122D01*
X018512Y015015D01*
X018444Y014933D01*
X018405Y015008D01*
X018362Y015004D01*
X018330Y015031D01*
X018326Y015074D01*
X018353Y015106D01*
X018396Y015110D01*
X018428Y015083D01*
X018432Y015040D01*
X018405Y015008D01*
X019963Y013625D02*
X020015Y013573D01*
X019844Y013558D01*
X019712Y013668D01*
X019697Y013839D01*
X019807Y013971D01*
X019978Y013986D01*
X020110Y013876D01*
X020125Y013705D01*
X020015Y013573D01*
X019976Y013648D01*
X019869Y013639D01*
X019787Y013707D01*
X019778Y013814D01*
X019846Y013896D01*
X019953Y013905D01*
X020035Y013837D01*
X020044Y013730D01*
X019976Y013648D01*
X019937Y013723D01*
X019894Y013719D01*
X019862Y013746D01*
X019858Y013789D01*
X019885Y013821D01*
X019928Y013825D01*
X019960Y013798D01*
X019964Y013755D01*
X019937Y013723D01*
X066648Y012984D02*
X066700Y012932D01*
X066529Y012947D01*
X066419Y013079D01*
X066434Y013250D01*
X066566Y013360D01*
X066737Y013345D01*
X066847Y013213D01*
X066832Y013042D01*
X066700Y012932D01*
X066675Y013013D01*
X066568Y013022D01*
X066500Y013104D01*
X066509Y013211D01*
X066591Y013279D01*
X066698Y013270D01*
X066766Y013188D01*
X066757Y013081D01*
X066675Y013013D01*
X066650Y013093D01*
X066607Y013097D01*
X066580Y013129D01*
X066584Y013172D01*
X066616Y013199D01*
X066659Y013195D01*
X066686Y013163D01*
X066682Y013120D01*
X066650Y013093D01*
X067418Y013730D02*
X067470Y013782D01*
X067455Y013611D01*
X067323Y013501D01*
X067152Y013516D01*
X067042Y013648D01*
X067057Y013819D01*
X067189Y013929D01*
X067360Y013914D01*
X067470Y013782D01*
X067389Y013757D01*
X067380Y013650D01*
X067298Y013582D01*
X067191Y013591D01*
X067123Y013673D01*
X067132Y013780D01*
X067214Y013848D01*
X067321Y013839D01*
X067389Y013757D01*
X067309Y013732D01*
X067305Y013689D01*
X067273Y013662D01*
X067230Y013666D01*
X067203Y013698D01*
X067207Y013741D01*
X067239Y013768D01*
X067282Y013764D01*
X067309Y013732D01*
X067291Y012218D02*
X067343Y012166D01*
X067172Y012181D01*
X067062Y012313D01*
X067077Y012484D01*
X067209Y012594D01*
X067380Y012579D01*
X067490Y012447D01*
X067475Y012276D01*
X067343Y012166D01*
X067318Y012247D01*
X067211Y012256D01*
X067143Y012338D01*
X067152Y012445D01*
X067234Y012513D01*
X067341Y012504D01*
X067409Y012422D01*
X067400Y012315D01*
X067318Y012247D01*
X067293Y012327D01*
X067250Y012331D01*
X067223Y012363D01*
X067227Y012406D01*
X067259Y012433D01*
X067302Y012429D01*
X067329Y012397D01*
X067325Y012354D01*
X067293Y012327D01*
X068950Y015015D02*
X069002Y015067D01*
X068987Y014896D01*
X068855Y014786D01*
X068684Y014801D01*
X068574Y014933D01*
X068589Y015104D01*
X068721Y015214D01*
X068892Y015199D01*
X069002Y015067D01*
X068921Y015042D01*
X068912Y014935D01*
X068830Y014867D01*
X068723Y014876D01*
X068655Y014958D01*
X068664Y015065D01*
X068746Y015133D01*
X068853Y015124D01*
X068921Y015042D01*
X068841Y015017D01*
X068837Y014974D01*
X068805Y014947D01*
X068762Y014951D01*
X068735Y014983D01*
X068739Y015026D01*
X068771Y015053D01*
X068814Y015049D01*
X068841Y015017D01*
X077284Y025650D02*
X077336Y025598D01*
X077175Y025539D01*
X077019Y025611D01*
X076960Y025772D01*
X077032Y025928D01*
X077193Y025987D01*
X077349Y025915D01*
X077408Y025754D01*
X077336Y025598D01*
X077279Y025661D01*
X077178Y025623D01*
X077082Y025668D01*
X077044Y025769D01*
X077089Y025865D01*
X077190Y025903D01*
X077286Y025858D01*
X077324Y025757D01*
X077279Y025661D01*
X077222Y025722D01*
X077182Y025707D01*
X077143Y025725D01*
X077128Y025765D01*
X077146Y025804D01*
X077186Y025819D01*
X077225Y025801D01*
X077240Y025761D01*
X077222Y025722D01*
X078190Y025227D02*
X078242Y025175D01*
X078081Y025116D01*
X077925Y025188D01*
X077866Y025349D01*
X077938Y025505D01*
X078099Y025564D01*
X078255Y025492D01*
X078314Y025331D01*
X078242Y025175D01*
X078185Y025238D01*
X078084Y025200D01*
X077988Y025245D01*
X077950Y025346D01*
X077995Y025442D01*
X078096Y025480D01*
X078192Y025435D01*
X078230Y025334D01*
X078185Y025238D01*
X078128Y025299D01*
X078088Y025284D01*
X078049Y025302D01*
X078034Y025342D01*
X078052Y025381D01*
X078092Y025396D01*
X078131Y025378D01*
X078146Y025338D01*
X078128Y025299D01*
X077400Y026527D02*
X077348Y026475D01*
X077289Y026636D01*
X077361Y026792D01*
X077522Y026851D01*
X077678Y026779D01*
X077737Y026618D01*
X077665Y026462D01*
X077504Y026403D01*
X077348Y026475D01*
X077411Y026532D01*
X077373Y026633D01*
X077418Y026729D01*
X077519Y026767D01*
X077615Y026722D01*
X077653Y026621D01*
X077608Y026525D01*
X077507Y026487D01*
X077411Y026532D01*
X077472Y026589D01*
X077457Y026629D01*
X077475Y026668D01*
X077515Y026683D01*
X077554Y026665D01*
X077569Y026625D01*
X077551Y026586D01*
X077511Y026571D01*
X077472Y026589D01*
X078245Y028339D02*
X078193Y028287D01*
X078134Y028448D01*
X078206Y028604D01*
X078367Y028663D01*
X078523Y028591D01*
X078582Y028430D01*
X078510Y028274D01*
X078349Y028215D01*
X078193Y028287D01*
X078256Y028344D01*
X078218Y028445D01*
X078263Y028541D01*
X078364Y028579D01*
X078460Y028534D01*
X078498Y028433D01*
X078453Y028337D01*
X078352Y028299D01*
X078256Y028344D01*
X078317Y028401D01*
X078302Y028441D01*
X078320Y028480D01*
X078360Y028495D01*
X078399Y028477D01*
X078414Y028437D01*
X078396Y028398D01*
X078356Y028383D01*
X078317Y028401D01*
X079329Y057891D02*
X079381Y057943D01*
X079322Y057782D01*
X079166Y057710D01*
X079005Y057769D01*
X078933Y057925D01*
X078992Y058086D01*
X079148Y058158D01*
X079309Y058099D01*
X079381Y057943D01*
X079297Y057940D01*
X079259Y057839D01*
X079163Y057794D01*
X079062Y057832D01*
X079017Y057928D01*
X079055Y058029D01*
X079151Y058074D01*
X079252Y058036D01*
X079297Y057940D01*
X079213Y057936D01*
X079198Y057896D01*
X079159Y057878D01*
X079119Y057893D01*
X079101Y057932D01*
X079116Y057972D01*
X079155Y057990D01*
X079195Y057975D01*
X079213Y057936D01*
X080235Y058314D02*
X080287Y058366D01*
X080228Y058205D01*
X080072Y058133D01*
X079911Y058192D01*
X079839Y058348D01*
X079898Y058509D01*
X080054Y058581D01*
X080215Y058522D01*
X080287Y058366D01*
X080203Y058363D01*
X080165Y058262D01*
X080069Y058217D01*
X079968Y058255D01*
X079923Y058351D01*
X079961Y058452D01*
X080057Y058497D01*
X080158Y058459D01*
X080203Y058363D01*
X080119Y058359D01*
X080104Y058319D01*
X080065Y058301D01*
X080025Y058316D01*
X080007Y058355D01*
X080022Y058395D01*
X080061Y058413D01*
X080101Y058398D01*
X080119Y058359D01*
X078683Y058894D02*
X078631Y058946D01*
X078792Y058887D01*
X078864Y058731D01*
X078805Y058570D01*
X078649Y058498D01*
X078488Y058557D01*
X078416Y058713D01*
X078475Y058874D01*
X078631Y058946D01*
X078634Y058862D01*
X078735Y058824D01*
X078780Y058728D01*
X078742Y058627D01*
X078646Y058582D01*
X078545Y058620D01*
X078500Y058716D01*
X078538Y058817D01*
X078634Y058862D01*
X078638Y058778D01*
X078678Y058763D01*
X078696Y058724D01*
X078681Y058684D01*
X078642Y058666D01*
X078602Y058681D01*
X078584Y058720D01*
X078599Y058760D01*
X078638Y058778D01*
X077838Y060707D02*
X077786Y060759D01*
X077947Y060700D01*
X078019Y060544D01*
X077960Y060383D01*
X077804Y060311D01*
X077643Y060370D01*
X077571Y060526D01*
X077630Y060687D01*
X077786Y060759D01*
X077789Y060675D01*
X077890Y060637D01*
X077935Y060541D01*
X077897Y060440D01*
X077801Y060395D01*
X077700Y060433D01*
X077655Y060529D01*
X077693Y060630D01*
X077789Y060675D01*
X077793Y060591D01*
X077833Y060576D01*
X077851Y060537D01*
X077836Y060497D01*
X077797Y060479D01*
X077757Y060494D01*
X077739Y060533D01*
X077754Y060573D01*
X077793Y060591D01*
X069885Y071723D02*
X069937Y071775D01*
X069952Y071604D01*
X069842Y071472D01*
X069671Y071457D01*
X069539Y071567D01*
X069524Y071738D01*
X069634Y071870D01*
X069805Y071885D01*
X069937Y071775D01*
X069862Y071736D01*
X069871Y071629D01*
X069803Y071547D01*
X069696Y071538D01*
X069614Y071606D01*
X069605Y071713D01*
X069673Y071795D01*
X069780Y071804D01*
X069862Y071736D01*
X069787Y071697D01*
X069791Y071654D01*
X069764Y071622D01*
X069721Y071618D01*
X069689Y071645D01*
X069685Y071688D01*
X069712Y071720D01*
X069755Y071724D01*
X069787Y071697D01*
X070528Y072489D02*
X070580Y072541D01*
X070595Y072370D01*
X070485Y072238D01*
X070314Y072223D01*
X070182Y072333D01*
X070167Y072504D01*
X070277Y072636D01*
X070448Y072651D01*
X070580Y072541D01*
X070505Y072502D01*
X070514Y072395D01*
X070446Y072313D01*
X070339Y072304D01*
X070257Y072372D01*
X070248Y072479D01*
X070316Y072561D01*
X070423Y072570D01*
X070505Y072502D01*
X070430Y072463D01*
X070434Y072420D01*
X070407Y072388D01*
X070364Y072384D01*
X070332Y072411D01*
X070328Y072454D01*
X070355Y072486D01*
X070398Y072490D01*
X070430Y072463D01*
X068740Y072343D02*
X068688Y072395D01*
X068859Y072410D01*
X068991Y072300D01*
X069006Y072129D01*
X068896Y071997D01*
X068725Y071982D01*
X068593Y072092D01*
X068578Y072263D01*
X068688Y072395D01*
X068727Y072320D01*
X068834Y072329D01*
X068916Y072261D01*
X068925Y072154D01*
X068857Y072072D01*
X068750Y072063D01*
X068668Y072131D01*
X068659Y072238D01*
X068727Y072320D01*
X068766Y072245D01*
X068809Y072249D01*
X068841Y072222D01*
X068845Y072179D01*
X068818Y072147D01*
X068775Y072143D01*
X068743Y072170D01*
X068739Y072213D01*
X068766Y072245D01*
X067208Y073629D02*
X067156Y073681D01*
X067327Y073696D01*
X067459Y073586D01*
X067474Y073415D01*
X067364Y073283D01*
X067193Y073268D01*
X067061Y073378D01*
X067046Y073549D01*
X067156Y073681D01*
X067195Y073606D01*
X067302Y073615D01*
X067384Y073547D01*
X067393Y073440D01*
X067325Y073358D01*
X067218Y073349D01*
X067136Y073417D01*
X067127Y073524D01*
X067195Y073606D01*
X067234Y073531D01*
X067277Y073535D01*
X067309Y073508D01*
X067313Y073465D01*
X067286Y073433D01*
X067243Y073429D01*
X067211Y073456D01*
X067207Y073499D01*
X067234Y073531D01*
D18*
X067972Y074226D02*
X068306Y074624D01*
X069097Y073961D02*
X068762Y073563D01*
X069502Y072915D02*
X069836Y073313D01*
X078633Y061060D02*
X079104Y061279D01*
X079540Y060344D02*
X079069Y060125D01*
X079465Y059225D02*
X079937Y059444D01*
X082728Y044622D02*
X083248Y044622D01*
X083248Y043591D02*
X082728Y043591D01*
X082707Y042608D02*
X083227Y042608D01*
X079491Y027995D02*
X079962Y027775D01*
X079526Y026840D02*
X079055Y027060D01*
X078621Y026178D02*
X079092Y025958D01*
X069528Y014293D02*
X069862Y013895D01*
X069072Y013232D02*
X068737Y013630D01*
X067971Y013014D02*
X068305Y012616D01*
X052496Y005274D02*
X052496Y004754D01*
X051465Y004754D02*
X051465Y005274D01*
X050482Y005295D02*
X050482Y004775D01*
X036748Y004754D02*
X036748Y005274D01*
X035717Y005274D02*
X035717Y004754D01*
X034734Y004775D02*
X034734Y005295D01*
X019242Y012988D02*
X018908Y012590D01*
X018118Y013253D02*
X018452Y013651D01*
X017712Y014299D02*
X017378Y013901D01*
X008581Y026155D02*
X008110Y025935D01*
X007674Y026870D02*
X008145Y027089D01*
X007749Y027989D02*
X007277Y027770D01*
X004487Y042592D02*
X003967Y042592D01*
X003967Y043623D02*
X004487Y043623D01*
X004507Y044607D02*
X003987Y044607D01*
X007723Y059219D02*
X007252Y059439D01*
X007688Y060374D02*
X008159Y060154D01*
X008594Y061036D02*
X008122Y061256D01*
X017687Y072921D02*
X017352Y073319D01*
X018143Y073982D02*
X018477Y073584D01*
X019243Y074200D02*
X018909Y074598D01*
X030781Y069862D02*
X030781Y069342D01*
X031812Y069342D02*
X031812Y069862D01*
X032796Y069841D02*
X032796Y069321D01*
X042592Y065137D02*
X042592Y064617D01*
X043623Y064617D02*
X043623Y065137D01*
X044607Y065116D02*
X044607Y064596D01*
X054403Y069342D02*
X054403Y069862D01*
X055434Y069862D02*
X055434Y069342D01*
X056418Y069321D02*
X056418Y069841D01*
D19*
X044394Y051599D03*
X043607Y051599D03*
X043607Y050812D03*
X042820Y050812D03*
X042820Y051599D03*
X044394Y050812D03*
X050812Y044394D03*
X050812Y043607D03*
X051599Y043607D03*
X051599Y042820D03*
X050812Y042820D03*
X051599Y044394D03*
X044394Y036402D03*
X043607Y036402D03*
X043607Y035615D03*
X042820Y035615D03*
X042820Y036402D03*
X044394Y035615D03*
X036402Y042820D03*
X035615Y042820D03*
X035615Y043607D03*
X036402Y043607D03*
X036402Y044394D03*
X035615Y044394D03*
X033670Y024359D03*
X033670Y023572D03*
X032882Y023572D03*
X032095Y023572D03*
X032095Y024359D03*
X032882Y024359D03*
D20*
X035855Y035164D02*
X036353Y035663D01*
X034961Y037054D02*
X034463Y036556D01*
D21*
X021859Y024729D02*
X021259Y024729D01*
X021259Y023729D02*
X021859Y023729D01*
X021859Y022729D02*
X021259Y022729D01*
X021259Y021729D02*
X021859Y021729D01*
D22*
X022376Y052465D03*
X022376Y053465D03*
X022376Y054465D03*
X022376Y055465D03*
X022376Y056465D03*
X022376Y057465D03*
X022376Y058465D03*
X022376Y059465D03*
X022376Y060465D03*
X022376Y061465D03*
X022376Y062465D03*
X022376Y063465D03*
X022376Y064465D03*
X022376Y065465D03*
X022376Y066465D03*
X022376Y067465D03*
X022376Y068465D03*
X016376Y068465D03*
X016376Y067465D03*
X016376Y066465D03*
X016376Y065465D03*
X016376Y064465D03*
X016376Y063465D03*
X016376Y062465D03*
X016376Y061465D03*
X016376Y060465D03*
X016376Y059465D03*
X016376Y058465D03*
X016376Y057465D03*
X016376Y056465D03*
X016376Y055465D03*
X016376Y054465D03*
X016376Y053465D03*
X016376Y052465D03*
X054790Y031769D03*
X054790Y030769D03*
X054790Y029769D03*
X054790Y028769D03*
X054790Y027769D03*
X054790Y026769D03*
X054790Y025769D03*
X054790Y024769D03*
X054790Y023769D03*
X054790Y022769D03*
X054790Y021769D03*
X054790Y020769D03*
X054790Y019769D03*
X054790Y018769D03*
X054790Y017769D03*
X054790Y016769D03*
X054790Y015769D03*
X060790Y015769D03*
X060790Y016769D03*
X060790Y017769D03*
X060790Y018769D03*
X060790Y019769D03*
X060790Y020769D03*
X060790Y021769D03*
X060790Y022769D03*
X060790Y023769D03*
X060790Y024769D03*
X060790Y025769D03*
X060790Y026769D03*
X060790Y027769D03*
X060790Y028769D03*
X060790Y029769D03*
X060790Y030769D03*
X060790Y031769D03*
D23*
X025997Y057749D03*
X025997Y058749D03*
X025997Y059749D03*
X025997Y060749D03*
X024997Y060749D03*
X024997Y059749D03*
X024997Y058749D03*
X024997Y057749D03*
X024997Y061749D03*
X025997Y061749D03*
D24*
X017233Y014915D02*
X014867Y014915D01*
X015261Y014517D02*
X017935Y014517D01*
X018151Y014335D02*
X018729Y014385D01*
X019102Y014830D01*
X019051Y015407D01*
X018607Y015780D01*
X018216Y015746D01*
X018199Y015932D01*
X017755Y016304D01*
X017178Y016254D01*
X016805Y015810D01*
X016855Y015232D01*
X017300Y014859D01*
X017691Y014893D01*
X017707Y014708D01*
X018151Y014335D01*
X018252Y014336D02*
X018005Y014208D01*
X017492Y013596D01*
X017408Y013331D01*
X017432Y013053D01*
X017561Y012806D01*
X017774Y012627D01*
X018040Y012543D01*
X018208Y012558D01*
X018223Y012390D01*
X018351Y012143D01*
X018565Y011964D01*
X018830Y011880D01*
X019108Y011905D01*
X019355Y012033D01*
X019868Y012645D01*
X019952Y012910D01*
X019937Y013071D01*
X020261Y013100D01*
X020634Y013544D01*
X020583Y014122D01*
X020139Y014494D01*
X019562Y014444D01*
X019189Y014000D01*
X019216Y013689D01*
X019152Y013683D01*
X019137Y013851D01*
X019009Y014098D01*
X018795Y014277D01*
X018530Y014361D01*
X018252Y014336D01*
X017930Y014118D02*
X015665Y014118D01*
X015577Y014196D02*
X013838Y015956D01*
X012209Y017817D01*
X010696Y019774D01*
X009305Y021820D01*
X008041Y023947D01*
X006909Y026146D01*
X005912Y028410D01*
X005055Y030731D01*
X004341Y033099D01*
X003772Y035507D01*
X003351Y037944D01*
X003078Y040403D01*
X002956Y042874D01*
X002984Y045347D01*
X003162Y047815D01*
X003491Y050267D01*
X003967Y052694D01*
X004591Y055088D01*
X005359Y057440D01*
X006268Y059740D01*
X007316Y061981D01*
X008498Y064154D01*
X009810Y066251D01*
X011247Y068265D01*
X012804Y070187D01*
X014475Y072011D01*
X016254Y073731D01*
X018134Y075338D01*
X020108Y076829D01*
X022169Y078197D01*
X024310Y079436D01*
X025357Y079980D01*
X025422Y079999D01*
X025472Y080039D01*
X025528Y080067D01*
X025566Y080111D01*
X025588Y080126D01*
X025723Y080187D01*
X025869Y080212D01*
X026016Y080201D01*
X026156Y080152D01*
X026279Y080071D01*
X026287Y080064D01*
X026344Y080007D01*
X026423Y079919D01*
X026439Y079912D01*
X032510Y073845D01*
X033053Y073301D01*
X033053Y073301D01*
X034246Y072323D01*
X035528Y071466D01*
X036888Y070739D01*
X038313Y070149D01*
X039789Y069701D01*
X041301Y069401D01*
X042836Y069249D01*
X044378Y069249D01*
X045913Y069401D01*
X047426Y069701D01*
X048901Y070149D01*
X048901Y070149D01*
X050326Y070739D01*
X050326Y070739D01*
X051686Y071466D01*
X051686Y071466D01*
X052969Y072323D01*
X054161Y073301D01*
X054705Y073845D01*
X060875Y080013D01*
X060940Y080062D01*
X061106Y080143D01*
X061287Y080177D01*
X061472Y080164D01*
X061646Y080102D01*
X061666Y080090D01*
X061686Y080067D01*
X061764Y080028D01*
X061837Y079978D01*
X061879Y079969D01*
X062904Y079436D01*
X065045Y078197D01*
X067106Y076829D01*
X069081Y075338D01*
X070961Y073731D01*
X072739Y072011D01*
X074410Y070187D01*
X075967Y068265D01*
X077404Y066251D01*
X078716Y064154D01*
X079898Y061981D01*
X080946Y059740D01*
X081856Y057440D01*
X082623Y055088D01*
X083247Y052694D01*
X083724Y050267D01*
X084052Y047815D01*
X084230Y045347D01*
X084258Y042874D01*
X084136Y040403D01*
X083863Y037944D01*
X083442Y035507D01*
X082873Y033099D01*
X082159Y030731D01*
X081302Y028410D01*
X080305Y026146D01*
X079173Y023947D01*
X077909Y021820D01*
X076518Y019774D01*
X075005Y017817D01*
X073376Y015956D01*
X071637Y014196D01*
X069794Y012546D01*
X067854Y011011D01*
X065824Y009597D01*
X063712Y008309D01*
X061526Y007152D01*
X059273Y006130D01*
X056962Y005246D01*
X054602Y004505D01*
X053725Y004287D01*
X060844Y011406D01*
X065520Y011406D01*
X065755Y011504D01*
X066690Y012438D01*
X066861Y012423D01*
X067305Y012796D01*
X067324Y013006D01*
X067484Y012992D01*
X067928Y013365D01*
X067979Y013943D01*
X067834Y014116D01*
X067798Y014174D01*
X067769Y014243D01*
X067732Y014280D01*
X067704Y014325D01*
X067643Y014369D01*
X067590Y014423D01*
X067541Y014443D01*
X067499Y014473D01*
X067426Y014491D01*
X067356Y014520D01*
X067303Y014520D01*
X067252Y014532D01*
X067178Y014520D01*
X067102Y014520D01*
X067054Y014499D01*
X067002Y014491D01*
X066938Y014451D01*
X066868Y014423D01*
X066831Y014386D01*
X066787Y014358D01*
X066743Y014297D01*
X066394Y013948D01*
X066386Y013945D01*
X066135Y013694D01*
X066113Y013673D01*
X066111Y013670D01*
X065128Y012686D01*
X062603Y012686D01*
X063259Y013343D01*
X063259Y013343D01*
X063438Y013522D01*
X063535Y013756D01*
X063535Y038723D01*
X076438Y025820D01*
X076427Y025796D01*
X076625Y025251D01*
X077151Y025006D01*
X077696Y025204D01*
X077881Y025603D01*
X078023Y025744D01*
X078202Y025924D01*
X078299Y026158D01*
X078299Y026411D01*
X078245Y026541D01*
X078269Y026594D01*
X078071Y027138D01*
X077546Y027384D01*
X077001Y027185D01*
X076961Y027099D01*
X042586Y061474D01*
X053580Y061474D01*
X057044Y058010D01*
X057223Y057831D01*
X057457Y057734D01*
X058894Y057734D01*
X064130Y052498D01*
X064309Y052319D01*
X064543Y052222D01*
X066572Y052222D01*
X077713Y041081D01*
X077892Y040902D01*
X078126Y040805D01*
X081529Y040805D01*
X081763Y040902D01*
X082009Y041148D01*
X082067Y041188D01*
X082098Y041237D01*
X082139Y041278D01*
X082144Y041290D01*
X082157Y041296D01*
X082160Y041299D01*
X082165Y041301D01*
X082250Y041388D01*
X082336Y041475D01*
X082338Y041479D01*
X082341Y041483D01*
X082386Y041596D01*
X082433Y041709D01*
X082433Y041714D01*
X082435Y041718D01*
X082433Y041840D01*
X082433Y042622D01*
X082433Y042747D01*
X082433Y042748D01*
X082433Y042750D01*
X082385Y042865D01*
X082337Y042982D01*
X082336Y042982D01*
X082336Y042984D01*
X082247Y043072D01*
X082159Y043161D01*
X082158Y043162D01*
X082157Y043163D01*
X082041Y043211D01*
X082013Y043223D01*
X081912Y043323D01*
X081332Y043323D01*
X080922Y042913D01*
X080922Y042334D01*
X081063Y042192D01*
X080950Y042079D01*
X078517Y042079D01*
X067196Y053399D01*
X066962Y053496D01*
X064934Y053496D01*
X059519Y058911D01*
X059285Y059008D01*
X057847Y059008D01*
X054204Y062651D01*
X053970Y062748D01*
X042296Y062748D01*
X039042Y066002D01*
X065015Y066002D01*
X065023Y065999D01*
X065277Y065999D01*
X065285Y066002D01*
X065387Y066002D01*
X065621Y066099D01*
X065801Y066278D01*
X065876Y066459D01*
X066934Y067518D01*
X068831Y067518D01*
X078078Y058271D01*
X078128Y058164D01*
X078276Y058110D01*
X078404Y057914D01*
X078400Y057901D01*
X078645Y057376D01*
X079190Y057177D01*
X079715Y057422D01*
X079914Y057967D01*
X079669Y058493D01*
X079520Y058547D01*
X079392Y058742D01*
X079397Y058755D01*
X079152Y059281D01*
X078722Y059437D01*
X078205Y059954D01*
X078353Y060023D01*
X078371Y060070D01*
X078376Y059955D01*
X078493Y059703D01*
X078699Y059515D01*
X078960Y059419D01*
X079239Y059431D01*
X079962Y059769D01*
X080150Y059974D01*
X080246Y060236D01*
X080233Y060514D01*
X080116Y060767D01*
X079910Y060955D01*
X079752Y061012D01*
X079810Y061171D01*
X079798Y061449D01*
X079680Y061701D01*
X079475Y061890D01*
X079213Y061985D01*
X078935Y061973D01*
X078211Y061635D01*
X078023Y061430D01*
X077948Y061224D01*
X077762Y061292D01*
X077236Y061047D01*
X077203Y060956D01*
X069459Y068700D01*
X069224Y068798D01*
X066542Y068798D01*
X066306Y068700D01*
X064882Y067275D01*
X023109Y067275D01*
X023126Y067316D01*
X023126Y067614D01*
X023011Y067890D01*
X022936Y067965D01*
X023011Y068040D01*
X023126Y068316D01*
X023126Y068614D01*
X023011Y068890D01*
X022997Y068904D01*
X023084Y068991D01*
X023212Y069299D01*
X023212Y069631D01*
X023084Y069939D01*
X022849Y070174D01*
X022542Y070301D01*
X022209Y070301D01*
X021902Y070174D01*
X021667Y069939D01*
X021539Y069631D01*
X021539Y069299D01*
X021667Y068991D01*
X021754Y068904D01*
X021740Y068890D01*
X021626Y068614D01*
X021626Y068316D01*
X021740Y068040D01*
X021815Y067965D01*
X021740Y067890D01*
X021626Y067614D01*
X021626Y067316D01*
X021740Y067040D01*
X021815Y066965D01*
X021740Y066890D01*
X021626Y066614D01*
X021626Y066316D01*
X021740Y066040D01*
X021815Y065965D01*
X021740Y065890D01*
X021626Y065614D01*
X021626Y065316D01*
X021740Y065040D01*
X021815Y064965D01*
X021740Y064890D01*
X021626Y064614D01*
X021626Y064316D01*
X021740Y064040D01*
X021815Y063965D01*
X021770Y063920D01*
X021548Y064143D01*
X021548Y067167D01*
X021451Y067402D01*
X021271Y067582D01*
X017458Y071394D01*
X017223Y071492D01*
X015478Y071492D01*
X015243Y071394D01*
X015063Y071214D01*
X010978Y067130D01*
X010880Y066894D01*
X010880Y061590D01*
X010884Y061582D01*
X010884Y028717D01*
X010981Y028483D01*
X020429Y019034D01*
X020609Y018855D01*
X020843Y018758D01*
X034485Y018758D01*
X049241Y004002D01*
X049244Y003994D01*
X049777Y003461D01*
X049769Y003460D01*
X047313Y003160D01*
X044844Y003009D01*
X042370Y003009D01*
X039901Y003160D01*
X037446Y003460D01*
X035013Y003909D01*
X032612Y004505D01*
X030252Y005246D01*
X027941Y006130D01*
X025688Y007152D01*
X023502Y008309D01*
X021390Y009597D01*
X019360Y011011D01*
X017420Y012546D01*
X015577Y014196D01*
X016110Y013720D02*
X017596Y013720D01*
X017409Y013321D02*
X016555Y013321D01*
X017000Y012923D02*
X017500Y012923D01*
X017448Y012524D02*
X018211Y012524D01*
X018372Y012126D02*
X017952Y012126D01*
X018456Y011727D02*
X041516Y011727D01*
X041914Y011329D02*
X018959Y011329D01*
X019477Y010930D02*
X042313Y010930D01*
X042711Y010532D02*
X020049Y010532D01*
X020621Y010133D02*
X043110Y010133D01*
X043508Y009735D02*
X021193Y009735D01*
X021818Y009336D02*
X043907Y009336D01*
X044305Y008938D02*
X022472Y008938D01*
X023125Y008539D02*
X044704Y008539D01*
X045102Y008141D02*
X023820Y008141D01*
X024573Y007742D02*
X045501Y007742D01*
X045899Y007344D02*
X025326Y007344D01*
X026144Y006945D02*
X033452Y006945D01*
X033653Y007146D02*
X033243Y006736D01*
X033243Y006156D01*
X033653Y005746D01*
X034233Y005746D01*
X034312Y005826D01*
X034492Y005646D01*
X035072Y005646D01*
X035482Y006056D01*
X035482Y006636D01*
X035072Y007046D01*
X034492Y007046D01*
X034413Y006966D01*
X034233Y007146D01*
X033653Y007146D01*
X033243Y006547D02*
X027022Y006547D01*
X027901Y006148D02*
X033251Y006148D01*
X033650Y005750D02*
X028936Y005750D01*
X029978Y005351D02*
X035017Y005351D01*
X035017Y005413D02*
X035123Y005670D01*
X035320Y005867D01*
X035578Y005974D01*
X035856Y005974D01*
X036113Y005867D01*
X036233Y005748D01*
X036311Y005827D01*
X036082Y006056D01*
X036082Y006636D01*
X036492Y007046D01*
X037072Y007046D01*
X037482Y006636D01*
X037482Y006056D01*
X037219Y005793D01*
X037342Y005670D01*
X037448Y005413D01*
X037448Y004615D01*
X037342Y004357D01*
X037145Y004161D01*
X036888Y004054D01*
X036609Y004054D01*
X036352Y004161D01*
X036233Y004280D01*
X036113Y004161D01*
X035856Y004054D01*
X035578Y004054D01*
X035320Y004161D01*
X035123Y004357D01*
X035017Y004615D01*
X035017Y005413D01*
X035176Y005750D02*
X035203Y005750D01*
X035482Y006148D02*
X036082Y006148D01*
X036082Y006547D02*
X035482Y006547D01*
X035173Y006945D02*
X036392Y006945D01*
X037173Y006945D02*
X046298Y006945D01*
X046696Y006547D02*
X044528Y006547D01*
X044470Y006605D02*
X044794Y006281D01*
X044794Y006281D01*
X045003Y005872D01*
X045003Y005872D01*
X045074Y005418D01*
X045003Y004965D01*
X045003Y004965D01*
X044794Y004556D01*
X044794Y004556D01*
X044470Y004231D01*
X044470Y004231D01*
X044061Y004023D01*
X043607Y003951D01*
X043154Y004023D01*
X042745Y004231D01*
X042420Y004556D01*
X042420Y004556D01*
X042212Y004965D01*
X042212Y004965D01*
X042140Y005418D01*
X042140Y005418D01*
X042212Y005872D01*
X042212Y005872D01*
X042420Y006281D01*
X042420Y006281D01*
X042745Y006605D01*
X042745Y006605D01*
X043154Y006814D01*
X043154Y006814D01*
X043607Y006886D01*
X043607Y006886D01*
X044061Y006814D01*
X044061Y006814D01*
X044470Y006605D01*
X044470Y006605D01*
X044862Y006148D02*
X047095Y006148D01*
X047493Y005750D02*
X045022Y005750D01*
X045064Y005351D02*
X047892Y005351D01*
X048290Y004953D02*
X044997Y004953D01*
X044793Y004554D02*
X048689Y004554D01*
X049087Y004156D02*
X044322Y004156D01*
X042893Y004156D02*
X037133Y004156D01*
X037423Y004554D02*
X042421Y004554D01*
X042420Y004556D02*
X042420Y004556D01*
X042218Y004953D02*
X037448Y004953D01*
X037448Y005351D02*
X042150Y005351D01*
X042192Y005750D02*
X037263Y005750D01*
X037482Y006148D02*
X042352Y006148D01*
X042686Y006547D02*
X037482Y006547D01*
X036234Y005750D02*
X036231Y005750D01*
X035017Y004953D02*
X031188Y004953D01*
X032457Y004554D02*
X035042Y004554D01*
X035332Y004156D02*
X034020Y004156D01*
X034236Y005750D02*
X034389Y005750D01*
X036101Y004156D02*
X036364Y004156D01*
X035836Y003757D02*
X049481Y003757D01*
X048939Y003359D02*
X038275Y003359D01*
X045689Y010930D02*
X058557Y010930D01*
X058159Y010532D02*
X046087Y010532D01*
X046486Y010133D02*
X057760Y010133D01*
X057362Y009735D02*
X046884Y009735D01*
X047283Y009336D02*
X056963Y009336D01*
X056565Y008938D02*
X047681Y008938D01*
X048080Y008539D02*
X056166Y008539D01*
X055768Y008141D02*
X048478Y008141D01*
X048877Y007742D02*
X055369Y007742D01*
X054971Y007344D02*
X049275Y007344D01*
X049518Y007101D02*
X036094Y020525D01*
X035860Y020622D01*
X026842Y020622D01*
X031480Y025260D01*
X032092Y025260D01*
X032302Y025050D01*
X032238Y025077D01*
X031952Y025077D01*
X031689Y024967D01*
X031487Y024766D01*
X031378Y024502D01*
X031378Y024217D01*
X031482Y023966D01*
X031378Y023715D01*
X031378Y023429D01*
X031487Y023166D01*
X031689Y022964D01*
X031952Y022855D01*
X032238Y022855D01*
X032489Y022959D01*
X032740Y022855D01*
X033025Y022855D01*
X033276Y022959D01*
X033527Y022855D01*
X033813Y022855D01*
X034076Y022964D01*
X034278Y023166D01*
X034387Y023429D01*
X034387Y023715D01*
X034283Y023966D01*
X034387Y024217D01*
X034387Y024502D01*
X034310Y024688D01*
X034310Y024715D01*
X034212Y024950D01*
X034032Y025130D01*
X032720Y026442D01*
X032485Y026540D01*
X031088Y026540D01*
X030852Y026442D01*
X030672Y026262D01*
X025622Y021212D01*
X021627Y021212D01*
X020334Y022505D01*
X020331Y022513D01*
X019838Y023006D01*
X019838Y023169D01*
X020586Y022421D01*
X020632Y022310D01*
X020840Y022102D01*
X020946Y022058D01*
X020987Y022015D01*
X020996Y022011D01*
X021002Y022004D01*
X021111Y021959D01*
X021218Y021911D01*
X021228Y021911D01*
X021236Y021907D01*
X021354Y021907D01*
X021472Y021904D01*
X021480Y021907D01*
X021490Y021907D01*
X021598Y021952D01*
X021695Y021989D01*
X022006Y021989D01*
X022278Y022102D01*
X022486Y022310D01*
X022599Y022582D01*
X022599Y022876D01*
X022486Y023148D01*
X022405Y023229D01*
X022486Y023310D01*
X022599Y023582D01*
X022599Y023876D01*
X022486Y024148D01*
X022405Y024229D01*
X022486Y024310D01*
X022599Y024582D01*
X022599Y024876D01*
X022486Y025148D01*
X022278Y025357D01*
X022006Y025469D01*
X021112Y025469D01*
X020840Y025357D01*
X020632Y025148D01*
X020519Y024876D01*
X020519Y024582D01*
X020632Y024310D01*
X020712Y024229D01*
X020645Y024162D01*
X020425Y024383D01*
X020425Y034485D01*
X036194Y050254D01*
X041178Y050254D01*
X041239Y050193D01*
X037566Y050193D01*
X037316Y050089D01*
X037125Y049898D01*
X037022Y049648D01*
X037022Y043199D01*
X037010Y043226D01*
X036809Y043428D01*
X036545Y043537D01*
X036332Y043537D01*
X036332Y043750D01*
X036228Y044001D01*
X036332Y044252D01*
X036332Y044537D01*
X036223Y044801D01*
X036021Y045002D01*
X035758Y045112D01*
X035472Y045112D01*
X035209Y045002D01*
X035007Y044801D01*
X034898Y044537D01*
X034898Y044252D01*
X035002Y044001D01*
X034898Y043750D01*
X034898Y043464D01*
X035002Y043213D01*
X034898Y042962D01*
X034898Y042677D01*
X035007Y042413D01*
X035209Y042212D01*
X035472Y042103D01*
X035758Y042103D01*
X036009Y042207D01*
X036260Y042103D01*
X036545Y042103D01*
X036809Y042212D01*
X037010Y042413D01*
X037022Y042441D01*
X037022Y037566D01*
X037125Y037316D01*
X037316Y037125D01*
X037566Y037022D01*
X044015Y037022D01*
X043988Y037010D01*
X043787Y036809D01*
X043677Y036545D01*
X043677Y036332D01*
X043464Y036332D01*
X043213Y036228D01*
X042962Y036332D01*
X042677Y036332D01*
X042413Y036223D01*
X042212Y036021D01*
X042103Y035758D01*
X042103Y035472D01*
X042212Y035209D01*
X042413Y035007D01*
X042677Y034898D01*
X042962Y034898D01*
X043213Y035002D01*
X043260Y034982D01*
X044248Y033994D01*
X044427Y033815D01*
X044662Y033718D01*
X054170Y033718D01*
X054383Y033505D01*
X054316Y033478D01*
X054081Y033243D01*
X053954Y032935D01*
X053954Y032603D01*
X054081Y032295D01*
X054168Y032208D01*
X054154Y032194D01*
X054040Y031918D01*
X054040Y031620D01*
X054154Y031344D01*
X054229Y031269D01*
X054154Y031194D01*
X054040Y030918D01*
X054040Y030620D01*
X054154Y030344D01*
X054229Y030269D01*
X054154Y030194D01*
X054040Y029918D01*
X054040Y029620D01*
X054154Y029344D01*
X054229Y029269D01*
X054154Y029194D01*
X054040Y028918D01*
X054040Y028620D01*
X054154Y028344D01*
X054229Y028269D01*
X054154Y028194D01*
X054040Y027918D01*
X054040Y027620D01*
X054154Y027344D01*
X054365Y027133D01*
X054641Y027019D01*
X054939Y027019D01*
X055215Y027133D01*
X055426Y027344D01*
X055540Y027620D01*
X055540Y027918D01*
X055426Y028194D01*
X055351Y028269D01*
X055426Y028344D01*
X055540Y028620D01*
X055540Y028918D01*
X055426Y029194D01*
X055351Y029269D01*
X055426Y029344D01*
X055540Y029620D01*
X055540Y029918D01*
X055426Y030194D01*
X055351Y030269D01*
X055426Y030344D01*
X055540Y030620D01*
X055540Y030918D01*
X055426Y031194D01*
X055351Y031269D01*
X055426Y031344D01*
X055540Y031620D01*
X055540Y031918D01*
X055426Y032194D01*
X055412Y032208D01*
X055499Y032295D01*
X055526Y032362D01*
X055766Y032123D01*
X055766Y024189D01*
X055862Y023955D01*
X060040Y019778D01*
X060040Y019620D01*
X060154Y019344D01*
X060229Y019269D01*
X060154Y019194D01*
X060040Y018918D01*
X060040Y018620D01*
X060154Y018344D01*
X060229Y018269D01*
X060154Y018194D01*
X060040Y017918D01*
X060040Y017620D01*
X060154Y017344D01*
X060229Y017269D01*
X060154Y017194D01*
X060040Y016918D01*
X060040Y016620D01*
X060154Y016344D01*
X060229Y016269D01*
X060154Y016194D01*
X060040Y015918D01*
X060040Y015620D01*
X060154Y015344D01*
X060168Y015330D01*
X060081Y015243D01*
X059954Y014935D01*
X059954Y014603D01*
X059988Y014520D01*
X055592Y014520D01*
X055626Y014603D01*
X055626Y014935D01*
X055499Y015243D01*
X055412Y015330D01*
X055426Y015344D01*
X055540Y015620D01*
X055540Y015918D01*
X055426Y016194D01*
X055351Y016269D01*
X055426Y016344D01*
X055540Y016620D01*
X055540Y016918D01*
X055426Y017194D01*
X055351Y017269D01*
X055426Y017344D01*
X055540Y017620D01*
X055540Y017918D01*
X055426Y018194D01*
X055351Y018269D01*
X055426Y018344D01*
X055540Y018620D01*
X055540Y018918D01*
X055426Y019194D01*
X055351Y019269D01*
X055426Y019344D01*
X055540Y019620D01*
X055540Y019918D01*
X055426Y020194D01*
X055351Y020269D01*
X055426Y020344D01*
X055540Y020620D01*
X055540Y020918D01*
X055426Y021194D01*
X055351Y021269D01*
X055426Y021344D01*
X055540Y021620D01*
X055540Y021918D01*
X055426Y022194D01*
X055351Y022269D01*
X055426Y022344D01*
X055540Y022620D01*
X055540Y022918D01*
X055426Y023194D01*
X055351Y023269D01*
X055426Y023344D01*
X055540Y023620D01*
X055540Y023918D01*
X055426Y024194D01*
X055351Y024269D01*
X055426Y024344D01*
X055540Y024620D01*
X055540Y024918D01*
X055426Y025194D01*
X055351Y025269D01*
X055426Y025344D01*
X055540Y025620D01*
X055540Y025918D01*
X055426Y026194D01*
X055215Y026405D01*
X054939Y026519D01*
X054641Y026519D01*
X054365Y026405D01*
X054154Y026194D01*
X054040Y025918D01*
X054040Y025620D01*
X054154Y025344D01*
X054229Y025269D01*
X054154Y025194D01*
X054040Y024918D01*
X054040Y024620D01*
X054154Y024344D01*
X054229Y024269D01*
X054154Y024194D01*
X054040Y023918D01*
X054040Y023620D01*
X054154Y023344D01*
X054229Y023269D01*
X054154Y023194D01*
X054040Y022918D01*
X054040Y022620D01*
X054154Y022344D01*
X054229Y022269D01*
X054154Y022194D01*
X054040Y021918D01*
X054040Y021620D01*
X054154Y021344D01*
X054229Y021269D01*
X054154Y021194D01*
X054040Y020918D01*
X054040Y020620D01*
X054154Y020344D01*
X054229Y020269D01*
X054154Y020194D01*
X054040Y019918D01*
X054040Y019620D01*
X054154Y019344D01*
X054229Y019269D01*
X054154Y019194D01*
X054040Y018918D01*
X054040Y018620D01*
X054154Y018344D01*
X054229Y018269D01*
X054154Y018194D01*
X054040Y017918D01*
X054040Y017620D01*
X054154Y017344D01*
X054229Y017269D01*
X054154Y017194D01*
X054040Y016918D01*
X054040Y016620D01*
X054154Y016344D01*
X054229Y016269D01*
X054154Y016194D01*
X054040Y015918D01*
X054040Y015620D01*
X054154Y015344D01*
X054168Y015330D01*
X054081Y015243D01*
X054050Y015167D01*
X040504Y028713D01*
X040504Y028905D01*
X040507Y028913D01*
X040507Y030545D01*
X040409Y030781D01*
X039273Y031917D01*
X039266Y031920D01*
X038535Y032650D01*
X038535Y035663D01*
X038438Y035897D01*
X038259Y036076D01*
X035503Y038832D01*
X035269Y038929D01*
X035016Y038929D01*
X034782Y038832D01*
X034603Y038653D01*
X033028Y037078D01*
X032931Y036844D01*
X032931Y029898D01*
X033028Y029664D01*
X033128Y029564D01*
X033128Y026551D01*
X033225Y026317D01*
X033404Y026138D01*
X047380Y012162D01*
X047614Y012065D01*
X059692Y012065D01*
X053151Y005523D01*
X053090Y005670D01*
X052982Y005778D01*
X053201Y005997D01*
X053201Y006576D01*
X052791Y006986D01*
X052211Y006986D01*
X051801Y006576D01*
X051801Y005997D01*
X052015Y005783D01*
X051981Y005748D01*
X051861Y005867D01*
X051604Y005974D01*
X051326Y005974D01*
X051075Y005870D01*
X051201Y005997D01*
X051201Y006576D01*
X050791Y006986D01*
X050211Y006986D01*
X050141Y006916D01*
X049956Y007101D01*
X049518Y007101D01*
X050112Y006945D02*
X050170Y006945D01*
X050833Y006945D02*
X052170Y006945D01*
X051801Y006547D02*
X051201Y006547D01*
X051201Y006148D02*
X051801Y006148D01*
X051979Y005750D02*
X051982Y005750D01*
X053011Y005750D02*
X053377Y005750D01*
X053201Y006148D02*
X053775Y006148D01*
X054174Y006547D02*
X053201Y006547D01*
X052833Y006945D02*
X054572Y006945D01*
X055585Y006148D02*
X059314Y006148D01*
X060192Y006547D02*
X055984Y006547D01*
X056382Y006945D02*
X061070Y006945D01*
X061888Y007344D02*
X056781Y007344D01*
X057179Y007742D02*
X062641Y007742D01*
X063394Y008141D02*
X057578Y008141D01*
X057976Y008539D02*
X064089Y008539D01*
X064743Y008938D02*
X058375Y008938D01*
X058773Y009336D02*
X065396Y009336D01*
X066021Y009735D02*
X059172Y009735D01*
X059570Y010133D02*
X066593Y010133D01*
X067165Y010532D02*
X059969Y010532D01*
X060368Y010930D02*
X067737Y010930D01*
X068255Y011329D02*
X060766Y011329D01*
X060578Y012046D02*
X052600Y004067D01*
X051801Y004067D01*
X051527Y003793D01*
X050350Y003793D01*
X049787Y004357D01*
X050142Y004902D02*
X049483Y005561D01*
X049551Y005569D01*
X049654Y005569D01*
X049724Y005556D01*
X049779Y005569D01*
X050480Y005569D01*
X050589Y005563D01*
X050606Y005569D01*
X050624Y005569D01*
X050666Y005586D01*
X050791Y005586D01*
X050869Y005664D01*
X050765Y005413D01*
X050765Y004615D01*
X050840Y004433D01*
X050615Y004433D01*
X050149Y004899D01*
X050142Y004902D01*
X050091Y004953D02*
X050765Y004953D01*
X050765Y005351D02*
X049693Y005351D01*
X050494Y004554D02*
X050790Y004554D01*
X053991Y004554D02*
X054757Y004554D01*
X054390Y004953D02*
X056027Y004953D01*
X055187Y005750D02*
X058279Y005750D01*
X057236Y005351D02*
X054788Y005351D01*
X058956Y011329D02*
X045290Y011329D01*
X044892Y011727D02*
X059354Y011727D01*
X060578Y012046D02*
X065393Y012046D01*
X066749Y013402D01*
X066161Y013720D02*
X063520Y013720D01*
X063535Y014118D02*
X066564Y014118D01*
X067095Y014517D02*
X063535Y014517D01*
X063535Y014915D02*
X068078Y014915D01*
X068066Y014773D02*
X068439Y014328D01*
X068583Y014316D01*
X068394Y014256D01*
X068181Y014077D01*
X068052Y013830D01*
X068028Y013553D01*
X068112Y013287D01*
X068625Y012675D01*
X068872Y012547D01*
X069149Y012523D01*
X069415Y012606D01*
X069628Y012785D01*
X069757Y013032D01*
X069772Y013200D01*
X069940Y013186D01*
X070205Y013269D01*
X070418Y013448D01*
X070547Y013695D01*
X070571Y013973D01*
X070488Y014238D01*
X069974Y014850D01*
X069727Y014979D01*
X069491Y014999D01*
X069511Y015228D01*
X069138Y015672D01*
X068561Y015723D01*
X068116Y015350D01*
X068066Y014773D01*
X068281Y014517D02*
X067363Y014517D01*
X067832Y014118D02*
X068230Y014118D01*
X068043Y013720D02*
X067959Y013720D01*
X067876Y013321D02*
X068101Y013321D01*
X068418Y012923D02*
X067316Y012923D01*
X066981Y012524D02*
X069132Y012524D01*
X069154Y012524D02*
X069766Y012524D01*
X069700Y012923D02*
X070214Y012923D01*
X070267Y013321D02*
X070659Y013321D01*
X070549Y013720D02*
X071104Y013720D01*
X071549Y014118D02*
X070525Y014118D01*
X070254Y014517D02*
X071953Y014517D01*
X071637Y014196D02*
X071637Y014196D01*
X072347Y014915D02*
X069849Y014915D01*
X069439Y015314D02*
X072741Y015314D01*
X073135Y015712D02*
X068686Y015712D01*
X068547Y015712D02*
X063535Y015712D01*
X063535Y015314D02*
X068113Y015314D01*
X065762Y013321D02*
X063237Y013321D01*
X062839Y012923D02*
X065364Y012923D01*
X065979Y011727D02*
X068758Y011727D01*
X069262Y012126D02*
X066377Y012126D01*
X063535Y016111D02*
X073512Y016111D01*
X073860Y016509D02*
X063535Y016509D01*
X063535Y016908D02*
X074209Y016908D01*
X074558Y017306D02*
X063535Y017306D01*
X063535Y017705D02*
X074907Y017705D01*
X075226Y018103D02*
X063535Y018103D01*
X063535Y018502D02*
X075534Y018502D01*
X075842Y018900D02*
X063535Y018900D01*
X063535Y019299D02*
X076150Y019299D01*
X076458Y019697D02*
X063535Y019697D01*
X063535Y020096D02*
X076736Y020096D01*
X077007Y020494D02*
X063535Y020494D01*
X063535Y020893D02*
X077278Y020893D01*
X077549Y021291D02*
X063535Y021291D01*
X063535Y021690D02*
X077820Y021690D01*
X078068Y022088D02*
X063535Y022088D01*
X063535Y022487D02*
X078305Y022487D01*
X078542Y022885D02*
X063535Y022885D01*
X063535Y023284D02*
X078779Y023284D01*
X079016Y023682D02*
X063535Y023682D01*
X063535Y024081D02*
X079242Y024081D01*
X079447Y024479D02*
X063535Y024479D01*
X063535Y024878D02*
X079652Y024878D01*
X079858Y025276D02*
X077729Y025276D01*
X077953Y025675D02*
X080063Y025675D01*
X080268Y026073D02*
X078264Y026073D01*
X078274Y026472D02*
X078661Y026472D01*
X078633Y026484D02*
X078445Y026690D01*
X078350Y026951D01*
X078362Y027230D01*
X078480Y027482D01*
X078685Y027670D01*
X078843Y027728D01*
X078797Y027854D01*
X078325Y027682D01*
X077799Y027927D01*
X077601Y028472D01*
X077846Y028998D01*
X078391Y029196D01*
X078916Y028951D01*
X079062Y028551D01*
X079121Y028605D01*
X079383Y028700D01*
X079661Y028688D01*
X080384Y028351D01*
X080573Y028145D01*
X080668Y027884D01*
X080656Y027605D01*
X080538Y027353D01*
X080333Y027165D01*
X080174Y027107D01*
X080232Y026949D01*
X080220Y026671D01*
X080102Y026418D01*
X079897Y026230D01*
X079635Y026135D01*
X079357Y026147D01*
X078633Y026484D01*
X078379Y026870D02*
X078169Y026870D01*
X078380Y027269D02*
X077792Y027269D01*
X077230Y027269D02*
X076791Y027269D01*
X076393Y027667D02*
X078682Y027667D01*
X077749Y028066D02*
X075994Y028066D01*
X075596Y028464D02*
X077604Y028464D01*
X077783Y028863D02*
X075197Y028863D01*
X074799Y029261D02*
X081616Y029261D01*
X081469Y028863D02*
X078949Y028863D01*
X080141Y028464D02*
X081322Y028464D01*
X081150Y028066D02*
X080602Y028066D01*
X080658Y027667D02*
X080975Y027667D01*
X080799Y027269D02*
X080446Y027269D01*
X080624Y026870D02*
X080228Y026870D01*
X080127Y026472D02*
X080449Y026472D01*
X081763Y029660D02*
X074400Y029660D01*
X074002Y030058D02*
X081910Y030058D01*
X082058Y030457D02*
X073603Y030457D01*
X073205Y030855D02*
X082196Y030855D01*
X082317Y031254D02*
X072806Y031254D01*
X072408Y031652D02*
X082437Y031652D01*
X082557Y032051D02*
X072009Y032051D01*
X071611Y032449D02*
X082677Y032449D01*
X082797Y032848D02*
X071212Y032848D01*
X070814Y033246D02*
X082908Y033246D01*
X083002Y033645D02*
X070415Y033645D01*
X070017Y034043D02*
X083096Y034043D01*
X083190Y034442D02*
X069618Y034442D01*
X069220Y034840D02*
X083285Y034840D01*
X083379Y035239D02*
X068821Y035239D01*
X068423Y035637D02*
X083465Y035637D01*
X083533Y036036D02*
X068024Y036036D01*
X067626Y036434D02*
X083602Y036434D01*
X083671Y036833D02*
X067227Y036833D01*
X066829Y037231D02*
X083740Y037231D01*
X083809Y037630D02*
X066430Y037630D01*
X066032Y038028D02*
X083873Y038028D01*
X083917Y038427D02*
X065633Y038427D01*
X065235Y038825D02*
X083961Y038825D01*
X084005Y039224D02*
X064836Y039224D01*
X064438Y039622D02*
X084049Y039622D01*
X084094Y040021D02*
X064039Y040021D01*
X063641Y040419D02*
X084137Y040419D01*
X084156Y040818D02*
X081560Y040818D01*
X082085Y041216D02*
X084176Y041216D01*
X084196Y041615D02*
X082394Y041615D01*
X082433Y042013D02*
X084216Y042013D01*
X084235Y042412D02*
X082433Y042412D01*
X082408Y042810D02*
X084255Y042810D01*
X084254Y043209D02*
X083847Y043209D01*
X083841Y043194D02*
X083948Y043452D01*
X083948Y043730D01*
X083841Y043987D01*
X083722Y044107D01*
X083841Y044226D01*
X083948Y044483D01*
X083948Y044762D01*
X083841Y045019D01*
X083644Y045216D01*
X083387Y045322D01*
X082588Y045322D01*
X082331Y045216D01*
X082175Y045060D01*
X081912Y045323D01*
X081332Y045323D01*
X080922Y044913D01*
X080922Y044334D01*
X081332Y043923D01*
X081912Y043923D01*
X082174Y044186D01*
X082253Y044107D01*
X082134Y043987D01*
X082028Y043730D01*
X082028Y043452D01*
X082134Y043194D01*
X082331Y042997D01*
X082588Y042891D01*
X083387Y042891D01*
X083644Y042997D01*
X083841Y043194D01*
X083948Y043607D02*
X084250Y043607D01*
X084245Y044006D02*
X083823Y044006D01*
X083915Y044404D02*
X084241Y044404D01*
X084236Y044803D02*
X083931Y044803D01*
X083659Y045201D02*
X084232Y045201D01*
X084212Y045600D02*
X074996Y045600D01*
X075394Y045201D02*
X081210Y045201D01*
X080922Y044803D02*
X079886Y044803D01*
X079903Y044794D02*
X079494Y045003D01*
X079040Y045074D01*
X078587Y045003D01*
X078587Y045003D01*
X078178Y044794D01*
X078178Y044794D01*
X077853Y044470D01*
X077853Y044470D01*
X077645Y044061D01*
X077645Y044061D01*
X077573Y043607D01*
X077645Y043154D01*
X077645Y043154D01*
X077853Y042745D01*
X077853Y042745D01*
X078178Y042420D01*
X078587Y042212D01*
X079040Y042140D01*
X079040Y042140D01*
X079494Y042212D01*
X079903Y042420D01*
X080227Y042745D01*
X080436Y043154D01*
X080508Y043607D01*
X082028Y043607D01*
X082046Y043209D02*
X082128Y043209D01*
X082152Y044006D02*
X081994Y044006D01*
X081250Y044006D02*
X080444Y044006D01*
X080436Y044061D02*
X080508Y043607D01*
X080508Y043607D01*
X080444Y043209D02*
X081217Y043209D01*
X080922Y042810D02*
X080261Y042810D01*
X079903Y042420D02*
X079903Y042420D01*
X079886Y042412D02*
X080922Y042412D01*
X080436Y044061D02*
X080436Y044061D01*
X080227Y044470D01*
X079903Y044794D01*
X079903Y044794D01*
X080227Y044470D02*
X080227Y044470D01*
X080261Y044404D02*
X080922Y044404D01*
X079494Y045003D02*
X079494Y045003D01*
X079040Y045074D02*
X079040Y045074D01*
X078194Y044803D02*
X075793Y044803D01*
X076191Y044404D02*
X077820Y044404D01*
X077636Y044006D02*
X076590Y044006D01*
X076988Y043607D02*
X077573Y043607D01*
X077573Y043607D01*
X077636Y043209D02*
X077387Y043209D01*
X077785Y042810D02*
X077820Y042810D01*
X078178Y042420D02*
X078178Y042420D01*
X078184Y042412D02*
X078194Y042412D01*
X078587Y042212D02*
X078587Y042212D01*
X078095Y040818D02*
X063242Y040818D01*
X062844Y041216D02*
X077578Y041216D01*
X077179Y041615D02*
X062445Y041615D01*
X062047Y042013D02*
X076781Y042013D01*
X076382Y042412D02*
X061648Y042412D01*
X061250Y042810D02*
X075984Y042810D01*
X075585Y043209D02*
X060851Y043209D01*
X060453Y043607D02*
X075187Y043607D01*
X074788Y044006D02*
X060054Y044006D01*
X059656Y044404D02*
X074390Y044404D01*
X073991Y044803D02*
X059257Y044803D01*
X058859Y045201D02*
X073593Y045201D01*
X073194Y045600D02*
X058460Y045600D01*
X058062Y045998D02*
X072796Y045998D01*
X072397Y046397D02*
X057663Y046397D01*
X057265Y046795D02*
X071999Y046795D01*
X071600Y047194D02*
X056866Y047194D01*
X056468Y047592D02*
X071202Y047592D01*
X070803Y047991D02*
X056069Y047991D01*
X055671Y048389D02*
X070405Y048389D01*
X070006Y048788D02*
X055272Y048788D01*
X054874Y049186D02*
X069608Y049186D01*
X069209Y049585D02*
X054475Y049585D01*
X054077Y049983D02*
X068811Y049983D01*
X068412Y050382D02*
X053678Y050382D01*
X053280Y050780D02*
X068014Y050780D01*
X067615Y051179D02*
X052881Y051179D01*
X052483Y051577D02*
X067217Y051577D01*
X066818Y051976D02*
X052084Y051976D01*
X051686Y052374D02*
X064254Y052374D01*
X063856Y052773D02*
X051287Y052773D01*
X050889Y053171D02*
X063457Y053171D01*
X063059Y053570D02*
X050490Y053570D01*
X050092Y053968D02*
X062660Y053968D01*
X062262Y054367D02*
X049693Y054367D01*
X049295Y054765D02*
X061863Y054765D01*
X061465Y055164D02*
X048896Y055164D01*
X048498Y055562D02*
X061066Y055562D01*
X060668Y055961D02*
X048099Y055961D01*
X047701Y056359D02*
X060269Y056359D01*
X059871Y056758D02*
X047302Y056758D01*
X046904Y057156D02*
X059472Y057156D01*
X059074Y057555D02*
X046505Y057555D01*
X046107Y057953D02*
X057101Y057953D01*
X057044Y058010D02*
X057044Y058010D01*
X056702Y058352D02*
X045708Y058352D01*
X045310Y058750D02*
X056304Y058750D01*
X055905Y059149D02*
X044911Y059149D01*
X044513Y059547D02*
X055507Y059547D01*
X055108Y059946D02*
X044114Y059946D01*
X043716Y060344D02*
X054710Y060344D01*
X054311Y060743D02*
X043317Y060743D01*
X042919Y061141D02*
X053913Y061141D01*
X054917Y061938D02*
X074411Y061938D01*
X074013Y062337D02*
X071920Y062337D01*
X072027Y062443D02*
X072144Y062726D01*
X072144Y063033D01*
X072027Y063316D01*
X071811Y063532D01*
X072817Y063532D01*
X072419Y063931D02*
X068034Y063931D01*
X068034Y064054D02*
X067624Y064464D01*
X067044Y064464D01*
X066634Y064054D01*
X066634Y063606D01*
X066528Y063650D01*
X066221Y063650D01*
X065938Y063532D01*
X065811Y063532D01*
X065528Y063650D01*
X065221Y063650D01*
X064938Y063532D01*
X063811Y063532D01*
X063528Y063650D01*
X063221Y063650D01*
X062938Y063532D01*
X062811Y063532D01*
X062528Y063650D01*
X062221Y063650D01*
X061938Y063532D01*
X061811Y063532D01*
X061528Y063650D01*
X061221Y063650D01*
X060938Y063532D01*
X060811Y063532D01*
X060528Y063650D01*
X060221Y063650D01*
X059938Y063532D01*
X059811Y063532D01*
X059528Y063650D01*
X059221Y063650D01*
X058938Y063532D01*
X058811Y063532D01*
X058528Y063650D01*
X058221Y063650D01*
X057938Y063532D01*
X046094Y063532D01*
X046094Y063788D02*
X045684Y064198D01*
X045104Y064198D01*
X044987Y064080D01*
X044873Y064194D01*
X044293Y064194D01*
X043883Y063784D01*
X043883Y063204D01*
X044293Y062794D01*
X044873Y062794D01*
X044990Y062911D01*
X045104Y062798D01*
X045684Y062798D01*
X046094Y063208D01*
X046094Y063788D01*
X045951Y063931D02*
X066634Y063931D01*
X066909Y064329D02*
X044262Y064329D01*
X044217Y064221D02*
X044323Y064478D01*
X044323Y065277D01*
X044217Y065534D01*
X044020Y065731D01*
X043763Y065837D01*
X043484Y065837D01*
X043227Y065731D01*
X043108Y065612D01*
X042988Y065731D01*
X042731Y065837D01*
X042453Y065837D01*
X042195Y065731D01*
X041998Y065534D01*
X041892Y065277D01*
X041892Y064478D01*
X041998Y064221D01*
X042159Y064060D01*
X041883Y063784D01*
X041883Y063204D01*
X042293Y062794D01*
X042873Y062794D01*
X043283Y063204D01*
X043283Y063784D01*
X043016Y064052D01*
X043108Y064143D01*
X043227Y064024D01*
X043484Y063917D01*
X043763Y063917D01*
X044020Y064024D01*
X044217Y064221D01*
X044030Y063931D02*
X043794Y063931D01*
X043452Y063931D02*
X043137Y063931D01*
X043283Y063532D02*
X043883Y063532D01*
X043954Y063134D02*
X043213Y063134D01*
X041954Y063134D02*
X041910Y063134D01*
X041883Y063532D02*
X041512Y063532D01*
X041113Y063931D02*
X042030Y063931D01*
X041954Y064329D02*
X040715Y064329D01*
X040316Y064728D02*
X041892Y064728D01*
X041892Y065126D02*
X039918Y065126D01*
X039519Y065525D02*
X041995Y065525D01*
X044221Y065525D02*
X065286Y065525D01*
X065271Y065510D02*
X065271Y064930D01*
X065681Y064520D01*
X066261Y064520D01*
X066671Y064930D01*
X066671Y065510D01*
X066261Y065920D01*
X065681Y065920D01*
X065271Y065510D01*
X065271Y065126D02*
X044323Y065126D01*
X044323Y064728D02*
X065474Y064728D01*
X066468Y064728D02*
X071622Y064728D01*
X071223Y065126D02*
X066671Y065126D01*
X066656Y065525D02*
X070825Y065525D01*
X070426Y065923D02*
X039121Y065923D01*
X039789Y069701D02*
X039789Y069701D01*
X039107Y069908D02*
X032512Y069908D01*
X032512Y070001D02*
X032512Y069203D01*
X032406Y068945D01*
X032209Y068748D01*
X031952Y068642D01*
X031673Y068642D01*
X031416Y068748D01*
X031297Y068868D01*
X031276Y068847D01*
X031501Y068622D01*
X031501Y068042D01*
X031091Y067632D01*
X030511Y067632D01*
X030101Y068042D01*
X030101Y068622D01*
X030306Y068827D01*
X030187Y068945D01*
X030081Y069203D01*
X030081Y070001D01*
X030187Y070258D01*
X030384Y070455D01*
X030642Y070562D01*
X030920Y070562D01*
X031177Y070455D01*
X031297Y070336D01*
X031416Y070455D01*
X031673Y070562D01*
X031952Y070562D01*
X032209Y070455D01*
X032406Y070258D01*
X032512Y070001D01*
X032357Y070307D02*
X037933Y070307D01*
X038313Y070149D02*
X038313Y070149D01*
X036971Y070705D02*
X018147Y070705D01*
X017749Y071104D02*
X036206Y071104D01*
X035528Y071466D02*
X035528Y071466D01*
X035474Y071502D02*
X018657Y071502D01*
X018554Y071415D02*
X018998Y071788D01*
X019049Y072366D01*
X018676Y072810D01*
X018382Y072836D01*
X018386Y072889D01*
X018554Y072874D01*
X018820Y072958D01*
X019033Y073137D01*
X019150Y073361D01*
X019136Y073196D01*
X019508Y072752D01*
X020086Y072701D01*
X020530Y073074D01*
X020550Y073296D01*
X020660Y073287D01*
X021104Y073659D01*
X021155Y074237D01*
X020782Y074681D01*
X020205Y074732D01*
X019760Y074359D01*
X019741Y074137D01*
X019630Y074146D01*
X019186Y073773D01*
X019178Y073686D01*
X019102Y073927D01*
X018589Y074539D01*
X018342Y074667D01*
X018065Y074692D01*
X017799Y074608D01*
X017586Y074429D01*
X017457Y074182D01*
X017443Y074014D01*
X017275Y074029D01*
X017009Y073945D01*
X016796Y073766D01*
X016667Y073519D01*
X016643Y073241D01*
X016727Y072976D01*
X017240Y072364D01*
X017487Y072236D01*
X017631Y072223D01*
X017603Y071910D01*
X017976Y071466D01*
X018554Y071415D01*
X017946Y071502D02*
X014008Y071502D01*
X013643Y071104D02*
X014952Y071104D01*
X014553Y070705D02*
X013278Y070705D01*
X012913Y070307D02*
X014155Y070307D01*
X013756Y069908D02*
X012578Y069908D01*
X012255Y069510D02*
X013358Y069510D01*
X012959Y069111D02*
X011932Y069111D01*
X011610Y068713D02*
X012561Y068713D01*
X012162Y068314D02*
X011287Y068314D01*
X010998Y067916D02*
X011764Y067916D01*
X011365Y067517D02*
X010713Y067517D01*
X010973Y067119D02*
X010429Y067119D01*
X010144Y066720D02*
X010880Y066720D01*
X010880Y066322D02*
X009860Y066322D01*
X009604Y065923D02*
X010880Y065923D01*
X010880Y065525D02*
X009355Y065525D01*
X009106Y065126D02*
X010880Y065126D01*
X010880Y064728D02*
X008857Y064728D01*
X008607Y064329D02*
X010880Y064329D01*
X010880Y063931D02*
X008376Y063931D01*
X008159Y063532D02*
X010880Y063532D01*
X010880Y063134D02*
X007943Y063134D01*
X007726Y062735D02*
X010880Y062735D01*
X010880Y062337D02*
X007509Y062337D01*
X007296Y061938D02*
X009493Y061938D01*
X009483Y061934D02*
X010028Y062133D01*
X010554Y061888D01*
X010752Y061343D01*
X010507Y060817D01*
X010230Y060716D01*
X010282Y060572D01*
X010037Y060047D01*
X009492Y059848D01*
X008967Y060093D01*
X008769Y060638D01*
X009014Y061164D01*
X009290Y061265D01*
X009238Y061409D01*
X009483Y061934D01*
X009299Y061540D02*
X007109Y061540D01*
X006923Y061141D02*
X009003Y061141D01*
X008817Y060743D02*
X008553Y060743D01*
X008581Y060730D02*
X008769Y060524D01*
X008864Y060263D01*
X008852Y059984D01*
X008735Y059732D01*
X008529Y059544D01*
X008371Y059486D01*
X008391Y059432D01*
X008713Y059549D01*
X009239Y059304D01*
X009437Y058759D01*
X009192Y058234D01*
X008647Y058036D01*
X008122Y058281D01*
X008013Y058580D01*
X007832Y058514D01*
X007553Y058526D01*
X006830Y058863D01*
X006642Y059069D01*
X006546Y059330D01*
X006559Y059609D01*
X006676Y059861D01*
X006882Y060049D01*
X007040Y060107D01*
X006982Y060265D01*
X006994Y060544D01*
X007112Y060796D01*
X007317Y060984D01*
X007579Y061079D01*
X007857Y061067D01*
X008581Y060730D01*
X008835Y060344D02*
X008876Y060344D01*
X008834Y059946D02*
X009284Y059946D01*
X009760Y059946D02*
X010884Y059946D01*
X010884Y060344D02*
X010176Y060344D01*
X010302Y060743D02*
X010884Y060743D01*
X010884Y061141D02*
X010658Y061141D01*
X010680Y061540D02*
X010884Y061540D01*
X010880Y061938D02*
X010445Y061938D01*
X011520Y061717D02*
X011520Y066767D01*
X015605Y070852D01*
X017096Y070852D01*
X020908Y067039D01*
X020908Y063878D01*
X022321Y062465D01*
X022376Y062465D01*
X023075Y062735D02*
X024039Y062735D01*
X023776Y062472D02*
X024944Y063640D01*
X023115Y063640D01*
X023126Y063614D01*
X023126Y063316D01*
X023011Y063040D01*
X022936Y062965D01*
X023011Y062890D01*
X023126Y062614D01*
X023126Y062316D01*
X023011Y062040D01*
X022936Y061965D01*
X023011Y061890D01*
X023126Y061614D01*
X023126Y061316D01*
X023011Y061040D01*
X022936Y060965D01*
X023011Y060890D01*
X023126Y060614D01*
X023126Y060316D01*
X023011Y060040D01*
X022936Y059965D01*
X023011Y059890D01*
X023126Y059614D01*
X023126Y059316D01*
X023011Y059040D01*
X022936Y058965D01*
X023011Y058890D01*
X023126Y058614D01*
X023126Y058316D01*
X023011Y058040D01*
X022800Y057829D01*
X022525Y057715D01*
X022226Y057715D01*
X021951Y057829D01*
X021740Y058040D01*
X021626Y058316D01*
X021626Y058614D01*
X021740Y058890D01*
X021815Y058965D01*
X021798Y058982D01*
X020625Y057809D01*
X020625Y054307D01*
X020622Y054299D01*
X020622Y052142D01*
X020525Y051908D01*
X012748Y044131D01*
X012748Y029304D01*
X018558Y023494D01*
X018558Y025130D01*
X018561Y025138D01*
X018561Y045834D01*
X018558Y045842D01*
X018558Y046097D01*
X018655Y046332D01*
X024476Y052152D01*
X024476Y053264D01*
X023915Y053825D01*
X023038Y053825D01*
X023126Y053614D01*
X023126Y053316D01*
X023011Y053040D01*
X022936Y052965D01*
X023011Y052890D01*
X023126Y052614D01*
X023126Y052316D01*
X023011Y052040D01*
X022997Y052026D01*
X023084Y051939D01*
X023212Y051631D01*
X023212Y051299D01*
X023084Y050991D01*
X022849Y050756D01*
X022542Y050629D01*
X022209Y050629D01*
X021902Y050756D01*
X021667Y050991D01*
X021539Y051299D01*
X021539Y051631D01*
X021667Y051939D01*
X021754Y052026D01*
X021740Y052040D01*
X021626Y052316D01*
X021626Y052614D01*
X021740Y052890D01*
X021815Y052965D01*
X021740Y053040D01*
X021626Y053316D01*
X021626Y053614D01*
X021740Y053890D01*
X021815Y053965D01*
X021740Y054040D01*
X021626Y054316D01*
X021626Y054614D01*
X021740Y054890D01*
X021815Y054965D01*
X021740Y055040D01*
X021626Y055316D01*
X021626Y055614D01*
X021740Y055890D01*
X021815Y055965D01*
X021740Y056040D01*
X021626Y056316D01*
X021626Y056614D01*
X021740Y056890D01*
X021951Y057101D01*
X022226Y057215D01*
X022525Y057215D01*
X022800Y057101D01*
X023011Y056890D01*
X023126Y056614D01*
X023126Y056316D01*
X023011Y056040D01*
X022936Y055965D01*
X023011Y055890D01*
X023126Y055614D01*
X023126Y055316D01*
X023038Y055105D01*
X024308Y055105D01*
X024543Y055008D01*
X024723Y054828D01*
X025658Y053892D01*
X025756Y053657D01*
X025756Y051760D01*
X025658Y051525D01*
X025478Y051345D01*
X019834Y045701D01*
X019834Y035696D01*
X035390Y051251D01*
X035569Y051430D01*
X035803Y051527D01*
X037837Y051527D01*
X037162Y052203D01*
X037072Y052419D01*
X028717Y052419D01*
X028483Y052516D01*
X023955Y057044D01*
X023776Y057223D01*
X023679Y057457D01*
X023679Y062238D01*
X023776Y062472D01*
X023720Y062337D02*
X023126Y062337D01*
X022963Y061938D02*
X023679Y061938D01*
X023679Y061540D02*
X023126Y061540D01*
X023053Y061141D02*
X023679Y061141D01*
X023679Y060743D02*
X023072Y060743D01*
X023126Y060344D02*
X023679Y060344D01*
X023679Y059946D02*
X022956Y059946D01*
X023126Y059547D02*
X023679Y059547D01*
X023679Y059149D02*
X023056Y059149D01*
X023069Y058750D02*
X023679Y058750D01*
X023679Y058352D02*
X023126Y058352D01*
X022924Y057953D02*
X023679Y057953D01*
X023679Y057555D02*
X020625Y057555D01*
X020625Y057156D02*
X022084Y057156D01*
X021685Y056758D02*
X020625Y056758D01*
X020625Y056359D02*
X021626Y056359D01*
X021811Y055961D02*
X020625Y055961D01*
X020625Y055562D02*
X021626Y055562D01*
X021689Y055164D02*
X020625Y055164D01*
X020625Y054765D02*
X021688Y054765D01*
X021626Y054367D02*
X020625Y054367D01*
X020622Y053968D02*
X021812Y053968D01*
X021626Y053570D02*
X020622Y053570D01*
X020622Y053171D02*
X021685Y053171D01*
X021691Y052773D02*
X020622Y052773D01*
X020622Y052374D02*
X021626Y052374D01*
X021704Y051976D02*
X020553Y051976D01*
X020194Y051577D02*
X021539Y051577D01*
X021589Y051179D02*
X019796Y051179D01*
X019397Y050780D02*
X021878Y050780D01*
X022306Y049983D02*
X018600Y049983D01*
X018202Y049585D02*
X021908Y049585D01*
X021509Y049186D02*
X017803Y049186D01*
X017405Y048788D02*
X021111Y048788D01*
X020712Y048389D02*
X017006Y048389D01*
X016608Y047991D02*
X020314Y047991D01*
X019915Y047592D02*
X016209Y047592D01*
X015811Y047194D02*
X019517Y047194D01*
X019118Y046795D02*
X015412Y046795D01*
X015014Y046397D02*
X018720Y046397D01*
X018558Y045998D02*
X014615Y045998D01*
X014217Y045600D02*
X018561Y045600D01*
X018561Y045201D02*
X013818Y045201D01*
X013420Y044803D02*
X018561Y044803D01*
X018561Y044404D02*
X013021Y044404D01*
X012748Y044006D02*
X018561Y044006D01*
X018561Y043607D02*
X012748Y043607D01*
X012748Y043209D02*
X018561Y043209D01*
X018561Y042810D02*
X012748Y042810D01*
X012748Y042412D02*
X018561Y042412D01*
X018561Y042013D02*
X012748Y042013D01*
X012748Y041615D02*
X018561Y041615D01*
X018561Y041216D02*
X012748Y041216D01*
X012748Y040818D02*
X018561Y040818D01*
X018561Y040419D02*
X012748Y040419D01*
X012748Y040021D02*
X018561Y040021D01*
X018561Y039622D02*
X012748Y039622D01*
X012748Y039224D02*
X018561Y039224D01*
X018561Y038825D02*
X012748Y038825D01*
X012748Y038427D02*
X018561Y038427D01*
X018561Y038028D02*
X012748Y038028D01*
X012748Y037630D02*
X018561Y037630D01*
X018561Y037231D02*
X012748Y037231D01*
X012748Y036833D02*
X018561Y036833D01*
X018561Y036434D02*
X012748Y036434D01*
X012748Y036036D02*
X018561Y036036D01*
X018561Y035637D02*
X012748Y035637D01*
X012748Y035239D02*
X018561Y035239D01*
X018561Y034840D02*
X012748Y034840D01*
X012748Y034442D02*
X018561Y034442D01*
X018561Y034043D02*
X012748Y034043D01*
X012748Y033645D02*
X018561Y033645D01*
X018561Y033246D02*
X012748Y033246D01*
X012748Y032848D02*
X018561Y032848D01*
X018561Y032449D02*
X012748Y032449D01*
X012748Y032051D02*
X018561Y032051D01*
X018561Y031652D02*
X012748Y031652D01*
X012748Y031254D02*
X018561Y031254D01*
X018561Y030855D02*
X012748Y030855D01*
X012748Y030457D02*
X018561Y030457D01*
X018561Y030058D02*
X012748Y030058D01*
X012748Y029660D02*
X018561Y029660D01*
X018561Y029261D02*
X012791Y029261D01*
X013189Y028863D02*
X018561Y028863D01*
X018561Y028464D02*
X013588Y028464D01*
X013986Y028066D02*
X018561Y028066D01*
X018561Y027667D02*
X014385Y027667D01*
X014783Y027269D02*
X018561Y027269D01*
X018561Y026870D02*
X015182Y026870D01*
X015580Y026472D02*
X018561Y026472D01*
X018561Y026073D02*
X015979Y026073D01*
X016377Y025675D02*
X018561Y025675D01*
X018561Y025276D02*
X016776Y025276D01*
X017174Y024878D02*
X018558Y024878D01*
X018558Y024479D02*
X017573Y024479D01*
X017971Y024081D02*
X018558Y024081D01*
X018558Y023682D02*
X018370Y023682D01*
X019198Y022741D02*
X019198Y025003D01*
X020425Y024878D02*
X020519Y024878D01*
X020562Y024479D02*
X020425Y024479D01*
X020425Y025276D02*
X020759Y025276D01*
X020425Y025675D02*
X023042Y025675D01*
X023042Y025585D02*
X023160Y025302D01*
X023223Y025238D01*
X023160Y025174D01*
X023042Y024891D01*
X023042Y024585D01*
X023160Y024302D01*
X023223Y024238D01*
X023160Y024174D01*
X023042Y023891D01*
X023042Y023585D01*
X023160Y023302D01*
X023376Y023085D01*
X023659Y022968D01*
X023965Y022968D01*
X024248Y023085D01*
X024465Y023302D01*
X024582Y023585D01*
X024582Y023891D01*
X024465Y024174D01*
X024401Y024238D01*
X024465Y024302D01*
X024582Y024585D01*
X024582Y024891D01*
X024465Y025174D01*
X024401Y025238D01*
X024465Y025302D01*
X024582Y025585D01*
X024582Y025891D01*
X024465Y026174D01*
X024401Y026238D01*
X024465Y026302D01*
X024582Y026585D01*
X024582Y026891D01*
X024465Y027174D01*
X024401Y027238D01*
X024465Y027302D01*
X024582Y027585D01*
X024582Y027891D01*
X024465Y028174D01*
X024401Y028238D01*
X024465Y028302D01*
X024582Y028585D01*
X024582Y028891D01*
X024465Y029174D01*
X024248Y029391D01*
X023965Y029508D01*
X023659Y029508D01*
X023376Y029391D01*
X023160Y029174D01*
X023042Y028891D01*
X023042Y028585D01*
X023160Y028302D01*
X023223Y028238D01*
X023160Y028174D01*
X023042Y027891D01*
X023042Y027585D01*
X023160Y027302D01*
X023223Y027238D01*
X023160Y027174D01*
X023042Y026891D01*
X023042Y026585D01*
X023160Y026302D01*
X023223Y026238D01*
X023160Y026174D01*
X023042Y025891D01*
X023042Y025585D01*
X023185Y025276D02*
X022359Y025276D01*
X022598Y024878D02*
X023042Y024878D01*
X023086Y024479D02*
X022556Y024479D01*
X022514Y024081D02*
X023121Y024081D01*
X023042Y023682D02*
X022599Y023682D01*
X022460Y023284D02*
X023178Y023284D01*
X022595Y022885D02*
X027295Y022885D01*
X027230Y022968D02*
X027392Y023035D01*
X027515Y023159D01*
X027582Y023320D01*
X027582Y024156D01*
X027515Y024317D01*
X027484Y024348D01*
X027582Y024585D01*
X027582Y024806D01*
X027978Y024410D01*
X028558Y024410D01*
X028968Y024820D01*
X028968Y025400D01*
X028558Y025810D01*
X027978Y025810D01*
X027568Y025400D01*
X027568Y024926D01*
X027465Y025174D01*
X027401Y025238D01*
X027465Y025302D01*
X027582Y025585D01*
X027582Y025891D01*
X027465Y026174D01*
X027401Y026238D01*
X027465Y026302D01*
X027582Y026585D01*
X027582Y026891D01*
X027465Y027174D01*
X027401Y027238D01*
X027465Y027302D01*
X027582Y027585D01*
X027582Y027806D01*
X027978Y027410D01*
X028558Y027410D01*
X028828Y027680D01*
X029195Y027313D01*
X029774Y027313D01*
X030185Y027723D01*
X030185Y028303D01*
X030091Y028396D01*
X030091Y030418D01*
X030151Y030562D01*
X030151Y030841D01*
X030045Y031098D01*
X029848Y031295D01*
X029703Y031355D01*
X028777Y032281D01*
X028542Y032378D01*
X027497Y032378D01*
X027525Y032447D01*
X028758Y032447D01*
X028858Y032205D01*
X029055Y032008D01*
X029312Y031902D01*
X029591Y031902D01*
X029848Y032008D01*
X030045Y032205D01*
X030105Y032350D01*
X031075Y033320D01*
X031173Y033556D01*
X031173Y034422D01*
X031075Y034657D01*
X030895Y034837D01*
X030161Y035572D01*
X030161Y035656D01*
X029751Y036067D01*
X029171Y036067D01*
X028761Y035656D01*
X028761Y035077D01*
X029171Y034667D01*
X029256Y034667D01*
X029893Y034030D01*
X029893Y033948D01*
X029555Y033610D01*
X029535Y033630D01*
X029300Y033727D01*
X027582Y033727D01*
X027582Y033891D01*
X027465Y034174D01*
X027401Y034238D01*
X027465Y034302D01*
X027582Y034585D01*
X027582Y034891D01*
X027465Y035174D01*
X027401Y035238D01*
X027465Y035302D01*
X027582Y035585D01*
X027582Y035891D01*
X027465Y036174D01*
X027401Y036238D01*
X027465Y036302D01*
X027582Y036585D01*
X027582Y036891D01*
X027465Y037174D01*
X027248Y037391D01*
X026965Y037508D01*
X026659Y037508D01*
X026376Y037391D01*
X026160Y037174D01*
X026042Y036891D01*
X026042Y036585D01*
X026160Y036302D01*
X026223Y036238D01*
X026160Y036174D01*
X026042Y035891D01*
X026042Y035585D01*
X026160Y035302D01*
X026223Y035238D01*
X026160Y035174D01*
X026042Y034891D01*
X026042Y034585D01*
X026160Y034302D01*
X026223Y034238D01*
X026160Y034174D01*
X026042Y033891D01*
X026042Y033585D01*
X026160Y033302D01*
X026223Y033238D01*
X026160Y033174D01*
X026042Y032891D01*
X026042Y032585D01*
X026160Y032302D01*
X026223Y032238D01*
X026160Y032174D01*
X026042Y031891D01*
X026042Y031585D01*
X026160Y031302D01*
X026376Y031085D01*
X026659Y030968D01*
X026965Y030968D01*
X027248Y031085D01*
X027261Y031098D01*
X028150Y031098D01*
X028798Y030450D01*
X028811Y030418D01*
X028811Y028557D01*
X028558Y028810D01*
X027978Y028810D01*
X027568Y028400D01*
X027568Y027926D01*
X027465Y028174D01*
X027401Y028238D01*
X027465Y028302D01*
X027582Y028585D01*
X027582Y028891D01*
X027465Y029174D01*
X027401Y029238D01*
X027465Y029302D01*
X027582Y029585D01*
X027582Y029891D01*
X027465Y030174D01*
X027248Y030391D01*
X026965Y030508D01*
X026659Y030508D01*
X026376Y030391D01*
X026363Y030378D01*
X025077Y030378D01*
X024582Y030873D01*
X024582Y030891D01*
X024465Y031174D01*
X024401Y031238D01*
X024465Y031302D01*
X024582Y031585D01*
X024582Y031891D01*
X024465Y032174D01*
X024401Y032238D01*
X024465Y032302D01*
X024582Y032585D01*
X024582Y032891D01*
X024465Y033174D01*
X024401Y033238D01*
X024465Y033302D01*
X024582Y033585D01*
X024582Y033891D01*
X024465Y034174D01*
X024401Y034238D01*
X024465Y034302D01*
X024582Y034585D01*
X024582Y034891D01*
X024465Y035174D01*
X024401Y035238D01*
X024465Y035302D01*
X024582Y035585D01*
X024582Y035891D01*
X024465Y036174D01*
X024401Y036238D01*
X024465Y036302D01*
X024582Y036585D01*
X024582Y036891D01*
X024465Y037174D01*
X024248Y037391D01*
X023965Y037508D01*
X023659Y037508D01*
X023376Y037391D01*
X023160Y037174D01*
X023042Y036891D01*
X023042Y036585D01*
X023160Y036302D01*
X023223Y036238D01*
X023160Y036174D01*
X023042Y035891D01*
X023042Y035585D01*
X023160Y035302D01*
X023223Y035238D01*
X023160Y035174D01*
X023042Y034891D01*
X023042Y034585D01*
X023160Y034302D01*
X023223Y034238D01*
X023160Y034174D01*
X023042Y033891D01*
X023042Y033585D01*
X023160Y033302D01*
X023223Y033238D01*
X023160Y033174D01*
X023109Y033053D01*
X022751Y033411D01*
X022171Y033411D01*
X021761Y033001D01*
X021761Y032422D01*
X022171Y032011D01*
X022751Y032011D01*
X023125Y032385D01*
X023160Y032302D01*
X023223Y032238D01*
X023160Y032174D01*
X023042Y031891D01*
X023042Y031585D01*
X023160Y031302D01*
X023223Y031238D01*
X023160Y031174D01*
X023042Y030891D01*
X023042Y030585D01*
X023160Y030302D01*
X023376Y030085D01*
X023659Y029968D01*
X023677Y029968D01*
X024270Y029375D01*
X024450Y029195D01*
X024685Y029098D01*
X026128Y029098D01*
X026042Y028891D01*
X026042Y028585D01*
X026160Y028302D01*
X026223Y028238D01*
X026160Y028174D01*
X026042Y027891D01*
X026042Y027585D01*
X026160Y027302D01*
X026223Y027238D01*
X026160Y027174D01*
X026042Y026891D01*
X026042Y026585D01*
X026160Y026302D01*
X026223Y026238D01*
X026160Y026174D01*
X026042Y025891D01*
X026042Y025585D01*
X026160Y025302D01*
X026223Y025238D01*
X026160Y025174D01*
X026042Y024891D01*
X026042Y024585D01*
X026140Y024348D01*
X026109Y024317D01*
X026042Y024156D01*
X026042Y023320D01*
X026109Y023159D01*
X026233Y023035D01*
X026395Y022968D01*
X027230Y022968D01*
X027567Y023284D02*
X027693Y023284D01*
X027582Y023682D02*
X028092Y023682D01*
X028490Y024081D02*
X027582Y024081D01*
X027539Y024479D02*
X027909Y024479D01*
X028627Y024479D02*
X028889Y024479D01*
X028968Y024878D02*
X029287Y024878D01*
X028968Y025276D02*
X029686Y025276D01*
X030084Y025675D02*
X028694Y025675D01*
X027842Y025675D02*
X027582Y025675D01*
X027568Y025276D02*
X027439Y025276D01*
X027507Y026073D02*
X030483Y026073D01*
X030923Y026472D02*
X027535Y026472D01*
X027582Y026870D02*
X033128Y026870D01*
X033128Y027269D02*
X027432Y027269D01*
X027582Y027667D02*
X027721Y027667D01*
X027568Y028066D02*
X027510Y028066D01*
X027532Y028464D02*
X027632Y028464D01*
X027582Y028863D02*
X028811Y028863D01*
X028811Y029261D02*
X027424Y029261D01*
X027582Y029660D02*
X028811Y029660D01*
X028811Y030058D02*
X027513Y030058D01*
X027090Y030457D02*
X028791Y030457D01*
X028393Y030855D02*
X024600Y030855D01*
X024417Y031254D02*
X026208Y031254D01*
X026042Y031652D02*
X024582Y031652D01*
X024516Y032051D02*
X026108Y032051D01*
X026099Y032449D02*
X024526Y032449D01*
X024582Y032848D02*
X026042Y032848D01*
X026215Y033246D02*
X024409Y033246D01*
X024582Y033645D02*
X026042Y033645D01*
X026105Y034043D02*
X024519Y034043D01*
X024523Y034442D02*
X026102Y034442D01*
X026042Y034840D02*
X024582Y034840D01*
X024402Y035239D02*
X026223Y035239D01*
X026042Y035637D02*
X024582Y035637D01*
X024523Y036036D02*
X026102Y036036D01*
X026105Y036434D02*
X024520Y036434D01*
X024582Y036833D02*
X026042Y036833D01*
X026216Y037231D02*
X024408Y037231D01*
X023968Y038028D02*
X033978Y038028D01*
X034376Y038427D02*
X024367Y038427D01*
X024765Y038825D02*
X034775Y038825D01*
X035510Y038825D02*
X037022Y038825D01*
X037022Y038427D02*
X035909Y038427D01*
X036307Y038028D02*
X037022Y038028D01*
X037022Y037630D02*
X036706Y037630D01*
X037104Y037231D02*
X037210Y037231D01*
X037503Y036833D02*
X043810Y036833D01*
X043677Y036434D02*
X037901Y036434D01*
X038300Y036036D02*
X042226Y036036D01*
X042103Y035637D02*
X038535Y035637D01*
X038535Y035239D02*
X042199Y035239D01*
X043403Y034840D02*
X038535Y034840D01*
X038535Y034442D02*
X043801Y034442D01*
X044200Y034043D02*
X038535Y034043D01*
X038535Y033645D02*
X054244Y033645D01*
X054085Y033246D02*
X038535Y033246D01*
X038535Y032848D02*
X053954Y032848D01*
X054017Y032449D02*
X038737Y032449D01*
X039135Y032051D02*
X054095Y032051D01*
X054040Y031652D02*
X039538Y031652D01*
X039937Y031254D02*
X054214Y031254D01*
X054040Y030855D02*
X040335Y030855D01*
X040507Y030457D02*
X042483Y030457D01*
X042529Y030503D02*
X042261Y030235D01*
X042071Y029906D01*
X041973Y029540D01*
X041973Y029161D01*
X042071Y028795D01*
X042261Y028466D01*
X042529Y028198D01*
X042857Y028009D01*
X043223Y027911D01*
X043603Y027911D01*
X043969Y028009D01*
X044297Y028198D01*
X044565Y028466D01*
X044755Y028795D01*
X044853Y029161D01*
X044853Y029540D01*
X044755Y029906D01*
X044565Y030235D01*
X044297Y030503D01*
X043969Y030692D01*
X043603Y030791D01*
X043223Y030791D01*
X042857Y030692D01*
X042529Y030503D01*
X042159Y030058D02*
X040507Y030058D01*
X040507Y029660D02*
X042005Y029660D01*
X041973Y029261D02*
X040507Y029261D01*
X040504Y028863D02*
X042053Y028863D01*
X042263Y028464D02*
X040753Y028464D01*
X041152Y028066D02*
X042759Y028066D01*
X041949Y027269D02*
X054230Y027269D01*
X054040Y027667D02*
X041550Y027667D01*
X042347Y026870D02*
X055766Y026870D01*
X055766Y026472D02*
X055053Y026472D01*
X054527Y026472D02*
X042746Y026472D01*
X043144Y026073D02*
X054104Y026073D01*
X054040Y025675D02*
X043543Y025675D01*
X043941Y025276D02*
X054222Y025276D01*
X054040Y024878D02*
X044340Y024878D01*
X044738Y024479D02*
X054098Y024479D01*
X054107Y024081D02*
X045137Y024081D01*
X045535Y023682D02*
X054040Y023682D01*
X054215Y023284D02*
X045934Y023284D01*
X046332Y022885D02*
X054040Y022885D01*
X054095Y022487D02*
X046731Y022487D01*
X047129Y022088D02*
X054110Y022088D01*
X054040Y021690D02*
X047528Y021690D01*
X047926Y021291D02*
X054207Y021291D01*
X054040Y020893D02*
X048325Y020893D01*
X048723Y020494D02*
X054092Y020494D01*
X054113Y020096D02*
X049122Y020096D01*
X049520Y019697D02*
X054040Y019697D01*
X054200Y019299D02*
X049919Y019299D01*
X050317Y018900D02*
X054040Y018900D01*
X054089Y018502D02*
X050716Y018502D01*
X051114Y018103D02*
X054117Y018103D01*
X054040Y017705D02*
X051513Y017705D01*
X051911Y017306D02*
X054192Y017306D01*
X054040Y016908D02*
X052310Y016908D01*
X052708Y016509D02*
X054086Y016509D01*
X054120Y016111D02*
X053107Y016111D01*
X053505Y015712D02*
X054040Y015712D01*
X054152Y015314D02*
X053904Y015314D01*
X055428Y015314D02*
X060152Y015314D01*
X060040Y015712D02*
X055540Y015712D01*
X055460Y016111D02*
X060120Y016111D01*
X060086Y016509D02*
X055494Y016509D01*
X055540Y016908D02*
X060040Y016908D01*
X060192Y017306D02*
X055388Y017306D01*
X055540Y017705D02*
X060040Y017705D01*
X060117Y018103D02*
X055463Y018103D01*
X055491Y018502D02*
X060089Y018502D01*
X060040Y018900D02*
X055540Y018900D01*
X055380Y019299D02*
X060200Y019299D01*
X060040Y019697D02*
X055540Y019697D01*
X055466Y020096D02*
X059722Y020096D01*
X059323Y020494D02*
X055488Y020494D01*
X055540Y020893D02*
X058925Y020893D01*
X058526Y021291D02*
X055373Y021291D01*
X055540Y021690D02*
X058128Y021690D01*
X057729Y022088D02*
X055470Y022088D01*
X055485Y022487D02*
X057331Y022487D01*
X056932Y022885D02*
X055540Y022885D01*
X055365Y023284D02*
X056534Y023284D01*
X056135Y023682D02*
X055540Y023682D01*
X055473Y024081D02*
X055810Y024081D01*
X055766Y024479D02*
X055482Y024479D01*
X055540Y024878D02*
X055766Y024878D01*
X055766Y025276D02*
X055358Y025276D01*
X055540Y025675D02*
X055766Y025675D01*
X055766Y026073D02*
X055476Y026073D01*
X055350Y027269D02*
X055766Y027269D01*
X055766Y027667D02*
X055540Y027667D01*
X055479Y028066D02*
X055766Y028066D01*
X055766Y028464D02*
X055475Y028464D01*
X055540Y028863D02*
X055766Y028863D01*
X055766Y029261D02*
X055358Y029261D01*
X055540Y029660D02*
X055766Y029660D01*
X055766Y030058D02*
X055482Y030058D01*
X055472Y030457D02*
X055766Y030457D01*
X055766Y030855D02*
X055540Y030855D01*
X055366Y031254D02*
X055766Y031254D01*
X055766Y031652D02*
X055540Y031652D01*
X055485Y032051D02*
X055766Y032051D01*
X057423Y033645D02*
X061671Y033645D01*
X061671Y034043D02*
X057024Y034043D01*
X056626Y034442D02*
X061671Y034442D01*
X061671Y034840D02*
X056227Y034840D01*
X055829Y035239D02*
X061671Y035239D01*
X061671Y035637D02*
X055430Y035637D01*
X055032Y036036D02*
X061671Y036036D01*
X061671Y036434D02*
X054633Y036434D01*
X054235Y036833D02*
X061671Y036833D01*
X061671Y037231D02*
X053836Y037231D01*
X053438Y037630D02*
X061671Y037630D01*
X061671Y038028D02*
X053397Y038028D01*
X053397Y037670D02*
X053397Y041307D01*
X053401Y041314D01*
X053401Y046692D01*
X061671Y038422D01*
X061671Y029790D01*
X061538Y029924D01*
X061426Y030194D01*
X061351Y030269D01*
X061426Y030344D01*
X061540Y030620D01*
X061540Y030918D01*
X061426Y031194D01*
X061351Y031269D01*
X061426Y031344D01*
X061540Y031620D01*
X061540Y031918D01*
X061426Y032194D01*
X061412Y032208D01*
X061499Y032295D01*
X061626Y032603D01*
X061626Y032935D01*
X061499Y033243D01*
X061264Y033478D01*
X060956Y033605D01*
X060624Y033605D01*
X060316Y033478D01*
X060081Y033243D01*
X059954Y032935D01*
X059954Y032603D01*
X060081Y032295D01*
X060168Y032208D01*
X060154Y032194D01*
X060040Y031918D01*
X060040Y031620D01*
X060154Y031344D01*
X060229Y031269D01*
X060154Y031194D01*
X060040Y030918D01*
X060040Y030620D01*
X060154Y030344D01*
X060229Y030269D01*
X060154Y030194D01*
X060040Y029918D01*
X060040Y029620D01*
X060154Y029344D01*
X060365Y029133D01*
X060641Y029019D01*
X061455Y028205D01*
X061671Y027989D01*
X061671Y023688D01*
X061540Y023819D01*
X061540Y023918D01*
X061426Y024194D01*
X061351Y024269D01*
X061426Y024344D01*
X061540Y024620D01*
X061540Y024918D01*
X061426Y025194D01*
X061351Y025269D01*
X061426Y025344D01*
X061540Y025620D01*
X061540Y025918D01*
X061426Y026194D01*
X061351Y026269D01*
X061426Y026344D01*
X061540Y026620D01*
X061540Y026918D01*
X061426Y027194D01*
X061351Y027269D01*
X061426Y027344D01*
X061540Y027620D01*
X061540Y027918D01*
X061426Y028194D01*
X061215Y028405D01*
X060939Y028519D01*
X060641Y028519D01*
X060365Y028405D01*
X060154Y028194D01*
X060040Y027918D01*
X060040Y027620D01*
X060154Y027344D01*
X060229Y027269D01*
X060154Y027194D01*
X060040Y026918D01*
X060040Y026620D01*
X060154Y026344D01*
X060229Y026269D01*
X060154Y026194D01*
X060040Y025918D01*
X060040Y025620D01*
X060154Y025344D01*
X060229Y025269D01*
X060154Y025194D01*
X060040Y024918D01*
X060040Y024620D01*
X060154Y024344D01*
X060229Y024269D01*
X060217Y024256D01*
X058023Y026450D01*
X058023Y032907D01*
X057927Y033141D01*
X057747Y033320D01*
X053397Y037670D01*
X053397Y038427D02*
X061666Y038427D01*
X061268Y038825D02*
X053397Y038825D01*
X053397Y039224D02*
X060869Y039224D01*
X060471Y039622D02*
X053397Y039622D01*
X053397Y040021D02*
X060072Y040021D01*
X059674Y040419D02*
X053397Y040419D01*
X053397Y040818D02*
X059275Y040818D01*
X058877Y041216D02*
X053397Y041216D01*
X053401Y041615D02*
X058478Y041615D01*
X058080Y042013D02*
X053401Y042013D01*
X053401Y042412D02*
X057681Y042412D01*
X057283Y042810D02*
X053401Y042810D01*
X053401Y043209D02*
X056884Y043209D01*
X056486Y043607D02*
X053401Y043607D01*
X053401Y044006D02*
X056087Y044006D01*
X055689Y044404D02*
X053401Y044404D01*
X053401Y044803D02*
X055290Y044803D01*
X054892Y045201D02*
X053401Y045201D01*
X053401Y045600D02*
X054493Y045600D01*
X054095Y045998D02*
X053401Y045998D01*
X053401Y046397D02*
X053696Y046397D01*
X052761Y047249D02*
X049848Y050161D01*
X048916Y050193D02*
X043219Y050193D01*
X043360Y050333D01*
X043363Y050341D01*
X043428Y050406D01*
X043537Y050669D01*
X043537Y050882D01*
X043750Y050882D01*
X044001Y050986D01*
X044252Y050882D01*
X044537Y050882D01*
X044801Y050991D01*
X045002Y051193D01*
X045112Y051457D01*
X045112Y051742D01*
X045002Y052005D01*
X044801Y052207D01*
X044741Y052232D01*
X044062Y052911D01*
X046198Y052911D01*
X048916Y050193D01*
X048727Y050382D02*
X043404Y050382D01*
X043537Y050780D02*
X048329Y050780D01*
X047930Y051179D02*
X044988Y051179D01*
X045112Y051577D02*
X047532Y051577D01*
X047133Y051976D02*
X045015Y051976D01*
X044599Y052374D02*
X046735Y052374D01*
X046336Y052773D02*
X044200Y052773D01*
X045416Y054677D02*
X039051Y054677D01*
X038817Y054580D01*
X038638Y054401D01*
X038541Y054167D01*
X038541Y053913D01*
X038633Y053693D01*
X029107Y053693D01*
X024953Y057847D01*
X024953Y058009D01*
X025303Y058009D01*
X025497Y058202D01*
X025690Y058009D01*
X026303Y058009D01*
X026737Y058442D01*
X026737Y059055D01*
X026543Y059249D01*
X026737Y059442D01*
X026737Y060055D01*
X026543Y060249D01*
X026737Y060442D01*
X026737Y061055D01*
X026543Y061249D01*
X026737Y061442D01*
X026737Y061663D01*
X027139Y062065D01*
X038028Y062065D01*
X045416Y054677D01*
X045328Y054765D02*
X028035Y054765D01*
X028433Y054367D02*
X038624Y054367D01*
X038541Y053968D02*
X028832Y053968D01*
X028226Y052773D02*
X025756Y052773D01*
X025756Y053171D02*
X027827Y053171D01*
X027429Y053570D02*
X025756Y053570D01*
X025582Y053968D02*
X027030Y053968D01*
X026632Y054367D02*
X025184Y054367D01*
X024785Y054765D02*
X026233Y054765D01*
X025835Y055164D02*
X023063Y055164D01*
X023126Y055562D02*
X025436Y055562D01*
X025038Y055961D02*
X022941Y055961D01*
X023126Y056359D02*
X024639Y056359D01*
X024241Y056758D02*
X023066Y056758D01*
X022667Y057156D02*
X023842Y057156D01*
X024953Y057953D02*
X042140Y057953D01*
X042538Y057555D02*
X025245Y057555D01*
X025644Y057156D02*
X042937Y057156D01*
X043335Y056758D02*
X026042Y056758D01*
X026441Y056359D02*
X043734Y056359D01*
X044132Y055961D02*
X026839Y055961D01*
X027238Y055562D02*
X044531Y055562D01*
X044929Y055164D02*
X027636Y055164D01*
X025116Y053530D02*
X024180Y054465D01*
X022376Y054465D01*
X023126Y053570D02*
X024171Y053570D01*
X024476Y053171D02*
X023066Y053171D01*
X023060Y052773D02*
X024476Y052773D01*
X024476Y052374D02*
X023126Y052374D01*
X023048Y051976D02*
X024299Y051976D01*
X023900Y051577D02*
X023212Y051577D01*
X023162Y051179D02*
X023502Y051179D01*
X023103Y050780D02*
X022873Y050780D01*
X022705Y050382D02*
X018999Y050382D01*
X017994Y051179D02*
X017162Y051179D01*
X017212Y051299D02*
X017212Y051631D01*
X017084Y051939D01*
X016997Y052026D01*
X017011Y052040D01*
X017126Y052316D01*
X017126Y052614D01*
X017011Y052890D01*
X016936Y052965D01*
X017011Y053040D01*
X017126Y053316D01*
X017126Y053614D01*
X017011Y053890D01*
X016936Y053965D01*
X017011Y054040D01*
X017126Y054316D01*
X017126Y054614D01*
X017011Y054890D01*
X016800Y055101D01*
X016525Y055215D01*
X016226Y055215D01*
X015951Y055101D01*
X015740Y054890D01*
X015626Y054614D01*
X015626Y054316D01*
X015740Y054040D01*
X015815Y053965D01*
X015740Y053890D01*
X015626Y053614D01*
X015626Y053316D01*
X015740Y053040D01*
X015815Y052965D01*
X015740Y052890D01*
X015626Y052614D01*
X015626Y052316D01*
X015740Y052040D01*
X015754Y052026D01*
X015667Y051939D01*
X015539Y051631D01*
X015539Y051299D01*
X015667Y050991D01*
X015902Y050756D01*
X016209Y050629D01*
X016542Y050629D01*
X016849Y050756D01*
X017084Y050991D01*
X017212Y051299D01*
X017212Y051577D02*
X018393Y051577D01*
X018791Y051976D02*
X017048Y051976D01*
X017126Y052374D02*
X019190Y052374D01*
X019348Y052532D02*
X012157Y045341D01*
X012157Y061582D01*
X012160Y061590D01*
X012160Y066502D01*
X015870Y070212D01*
X015993Y070212D01*
X015902Y070174D01*
X015667Y069939D01*
X015539Y069631D01*
X015539Y069299D01*
X015667Y068991D01*
X015754Y068904D01*
X015740Y068890D01*
X015626Y068614D01*
X015626Y068316D01*
X015740Y068040D01*
X015815Y067965D01*
X015740Y067890D01*
X015626Y067614D01*
X015626Y067316D01*
X015740Y067040D01*
X015815Y066965D01*
X015740Y066890D01*
X015626Y066614D01*
X015626Y066316D01*
X015740Y066040D01*
X015815Y065965D01*
X015740Y065890D01*
X015626Y065614D01*
X015626Y065316D01*
X015740Y065040D01*
X015815Y064965D01*
X015740Y064890D01*
X015626Y064614D01*
X015626Y064316D01*
X015740Y064040D01*
X015815Y063965D01*
X015740Y063890D01*
X015626Y063614D01*
X015626Y063316D01*
X015740Y063040D01*
X015815Y062965D01*
X015740Y062890D01*
X015626Y062614D01*
X015626Y062316D01*
X015740Y062040D01*
X015815Y061965D01*
X015740Y061890D01*
X015626Y061614D01*
X015626Y061316D01*
X015740Y061040D01*
X015815Y060965D01*
X015740Y060890D01*
X015626Y060614D01*
X015626Y060316D01*
X015740Y060040D01*
X015815Y059965D01*
X015740Y059890D01*
X015626Y059614D01*
X015626Y059316D01*
X015740Y059040D01*
X015815Y058965D01*
X015740Y058890D01*
X015626Y058614D01*
X015626Y058316D01*
X015740Y058040D01*
X015815Y057965D01*
X015740Y057890D01*
X015626Y057614D01*
X015626Y057316D01*
X015740Y057040D01*
X015815Y056965D01*
X015740Y056890D01*
X015626Y056614D01*
X015626Y056316D01*
X015740Y056040D01*
X015951Y055829D01*
X016226Y055715D01*
X016525Y055715D01*
X016800Y055829D01*
X017011Y056040D01*
X017126Y056316D01*
X017126Y056614D01*
X017011Y056890D01*
X016936Y056965D01*
X017011Y057040D01*
X017126Y057316D01*
X017126Y057614D01*
X017011Y057890D01*
X016936Y057965D01*
X017011Y058040D01*
X017126Y058316D01*
X017126Y058614D01*
X017011Y058890D01*
X016936Y058965D01*
X017011Y059040D01*
X017126Y059316D01*
X017126Y059614D01*
X017011Y059890D01*
X016936Y059965D01*
X017011Y060040D01*
X017126Y060316D01*
X017126Y060614D01*
X017011Y060890D01*
X016936Y060965D01*
X017011Y061040D01*
X017126Y061316D01*
X017126Y061614D01*
X017011Y061890D01*
X016936Y061965D01*
X017011Y062040D01*
X017126Y062316D01*
X017126Y062614D01*
X017011Y062890D01*
X016936Y062965D01*
X017011Y063040D01*
X017126Y063316D01*
X017126Y063614D01*
X017011Y063890D01*
X016936Y063965D01*
X017011Y064040D01*
X017126Y064316D01*
X017126Y064614D01*
X017011Y064890D01*
X016936Y064965D01*
X017011Y065040D01*
X017126Y065316D01*
X017126Y065614D01*
X017011Y065890D01*
X016936Y065965D01*
X017011Y066040D01*
X017126Y066316D01*
X017126Y066614D01*
X017011Y066890D01*
X016936Y066965D01*
X017011Y067040D01*
X017126Y067316D01*
X017126Y067614D01*
X017011Y067890D01*
X016936Y067965D01*
X017011Y068040D01*
X017126Y068316D01*
X017126Y068614D01*
X017011Y068890D01*
X016997Y068904D01*
X017084Y068991D01*
X017212Y069299D01*
X017212Y069631D01*
X017084Y069939D01*
X016849Y070174D01*
X016758Y070212D01*
X016831Y070212D01*
X020268Y066774D01*
X020268Y063750D01*
X020366Y063515D01*
X021669Y062212D01*
X021740Y062040D01*
X021815Y061965D01*
X021740Y061890D01*
X021626Y061614D01*
X021626Y061316D01*
X021740Y061040D01*
X021815Y060965D01*
X021740Y060890D01*
X021630Y060624D01*
X019442Y058437D01*
X019345Y058202D01*
X019345Y054307D01*
X019348Y054299D01*
X019348Y052532D01*
X019348Y052773D02*
X017060Y052773D01*
X017066Y053171D02*
X019348Y053171D01*
X019348Y053570D02*
X017126Y053570D01*
X016939Y053968D02*
X019348Y053968D01*
X019345Y054367D02*
X017126Y054367D01*
X017063Y054765D02*
X019345Y054765D01*
X019345Y055164D02*
X016649Y055164D01*
X016102Y055164D02*
X012157Y055164D01*
X012157Y055562D02*
X019345Y055562D01*
X019345Y055961D02*
X016932Y055961D01*
X017126Y056359D02*
X019345Y056359D01*
X019345Y056758D02*
X017066Y056758D01*
X017059Y057156D02*
X019345Y057156D01*
X019345Y057555D02*
X017126Y057555D01*
X016948Y057953D02*
X019345Y057953D01*
X019407Y058352D02*
X017126Y058352D01*
X017069Y058750D02*
X019756Y058750D01*
X020154Y059149D02*
X017056Y059149D01*
X017126Y059547D02*
X020553Y059547D01*
X020951Y059946D02*
X016956Y059946D01*
X017126Y060344D02*
X021350Y060344D01*
X021679Y060743D02*
X017072Y060743D01*
X017053Y061141D02*
X021698Y061141D01*
X021626Y061540D02*
X017126Y061540D01*
X016963Y061938D02*
X021788Y061938D01*
X021544Y062337D02*
X017126Y062337D01*
X017075Y062735D02*
X021145Y062735D01*
X020747Y063134D02*
X017050Y063134D01*
X017126Y063532D02*
X020359Y063532D01*
X020268Y063931D02*
X016971Y063931D01*
X017126Y064329D02*
X020268Y064329D01*
X020268Y064728D02*
X017079Y064728D01*
X017047Y065126D02*
X020268Y065126D01*
X020268Y065525D02*
X017126Y065525D01*
X016978Y065923D02*
X020268Y065923D01*
X020268Y066322D02*
X017126Y066322D01*
X017082Y066720D02*
X020268Y066720D01*
X019924Y067119D02*
X017044Y067119D01*
X017126Y067517D02*
X019525Y067517D01*
X019127Y067916D02*
X016986Y067916D01*
X017125Y068314D02*
X018728Y068314D01*
X018330Y068713D02*
X017085Y068713D01*
X017134Y069111D02*
X017931Y069111D01*
X017533Y069510D02*
X017212Y069510D01*
X017134Y069908D02*
X017097Y069908D01*
X015654Y069908D02*
X015567Y069908D01*
X015539Y069510D02*
X015168Y069510D01*
X014770Y069111D02*
X015617Y069111D01*
X015666Y068713D02*
X014371Y068713D01*
X013973Y068314D02*
X015626Y068314D01*
X015766Y067916D02*
X013574Y067916D01*
X013176Y067517D02*
X015626Y067517D01*
X015707Y067119D02*
X012777Y067119D01*
X012379Y066720D02*
X015669Y066720D01*
X015626Y066322D02*
X012160Y066322D01*
X012160Y065923D02*
X015773Y065923D01*
X015626Y065525D02*
X012160Y065525D01*
X012160Y065126D02*
X015704Y065126D01*
X015673Y064728D02*
X012160Y064728D01*
X012160Y064329D02*
X015626Y064329D01*
X015781Y063931D02*
X012160Y063931D01*
X012160Y063532D02*
X015626Y063532D01*
X015701Y063134D02*
X012160Y063134D01*
X012160Y062735D02*
X015676Y062735D01*
X015626Y062337D02*
X012160Y062337D01*
X012160Y061938D02*
X015788Y061938D01*
X015626Y061540D02*
X012157Y061540D01*
X012157Y061141D02*
X015698Y061141D01*
X015679Y060743D02*
X012157Y060743D01*
X012157Y060344D02*
X015626Y060344D01*
X015796Y059946D02*
X012157Y059946D01*
X012157Y059547D02*
X015626Y059547D01*
X015695Y059149D02*
X012157Y059149D01*
X012157Y058750D02*
X015682Y058750D01*
X015626Y058352D02*
X012157Y058352D01*
X012157Y057953D02*
X015803Y057953D01*
X015626Y057555D02*
X012157Y057555D01*
X012157Y057156D02*
X015692Y057156D01*
X015685Y056758D02*
X012157Y056758D01*
X012157Y056359D02*
X015626Y056359D01*
X015819Y055961D02*
X012157Y055961D01*
X010884Y055961D02*
X004876Y055961D01*
X005006Y056359D02*
X010884Y056359D01*
X010884Y056758D02*
X005136Y056758D01*
X005266Y057156D02*
X010884Y057156D01*
X010884Y057555D02*
X005404Y057555D01*
X005562Y057953D02*
X010884Y057953D01*
X010884Y058352D02*
X009247Y058352D01*
X009433Y058750D02*
X010884Y058750D01*
X010884Y059149D02*
X009296Y059149D01*
X008718Y059547D02*
X010884Y059547D01*
X008707Y059547D02*
X008533Y059547D01*
X008096Y058352D02*
X005719Y058352D01*
X005877Y058750D02*
X007073Y058750D01*
X006613Y059149D02*
X006034Y059149D01*
X006192Y059547D02*
X006556Y059547D01*
X006364Y059946D02*
X006768Y059946D01*
X006551Y060344D02*
X006986Y060344D01*
X007087Y060743D02*
X006737Y060743D01*
X004746Y055562D02*
X010884Y055562D01*
X010884Y055164D02*
X004615Y055164D01*
X004591Y055088D02*
X004591Y055088D01*
X004507Y054765D02*
X010884Y054765D01*
X010884Y054367D02*
X004403Y054367D01*
X004299Y053968D02*
X010884Y053968D01*
X010884Y053570D02*
X004195Y053570D01*
X004092Y053171D02*
X010884Y053171D01*
X010884Y052773D02*
X003988Y052773D01*
X003905Y052374D02*
X010884Y052374D01*
X010884Y051976D02*
X003826Y051976D01*
X003748Y051577D02*
X010884Y051577D01*
X010884Y051179D02*
X003670Y051179D01*
X003591Y050780D02*
X010884Y050780D01*
X010884Y050382D02*
X003513Y050382D01*
X003453Y049983D02*
X010884Y049983D01*
X010884Y049585D02*
X003399Y049585D01*
X003346Y049186D02*
X010884Y049186D01*
X010884Y048788D02*
X003293Y048788D01*
X003239Y048389D02*
X010884Y048389D01*
X010884Y047991D02*
X003186Y047991D01*
X003146Y047592D02*
X010884Y047592D01*
X010884Y047194D02*
X003118Y047194D01*
X003089Y046795D02*
X010884Y046795D01*
X010884Y046397D02*
X003060Y046397D01*
X003031Y045998D02*
X004826Y045998D01*
X004750Y045923D02*
X004750Y045343D01*
X005001Y045093D01*
X004787Y044879D01*
X004787Y044299D01*
X004860Y044226D01*
X004626Y044323D01*
X003827Y044323D01*
X003570Y044217D01*
X003373Y044020D01*
X003267Y043763D01*
X003267Y043484D01*
X003373Y043227D01*
X003492Y043108D01*
X003373Y042988D01*
X003267Y042731D01*
X003267Y042453D01*
X003373Y042195D01*
X003570Y041998D01*
X003827Y041892D01*
X004626Y041892D01*
X004883Y041998D01*
X004985Y042101D01*
X005197Y041889D01*
X005777Y041889D01*
X006187Y042299D01*
X006187Y042879D01*
X005777Y043289D01*
X005197Y043289D01*
X004988Y043080D01*
X004961Y043108D01*
X005080Y043227D01*
X005187Y043484D01*
X005187Y043763D01*
X005090Y043996D01*
X005197Y043889D01*
X005777Y043889D01*
X006187Y044299D01*
X006187Y044879D01*
X005937Y045129D01*
X006150Y045343D01*
X006150Y045923D01*
X005740Y046333D01*
X005160Y046333D01*
X004750Y045923D01*
X004750Y045600D02*
X003002Y045600D01*
X002982Y045201D02*
X004892Y045201D01*
X004787Y044803D02*
X002978Y044803D01*
X002973Y044404D02*
X004787Y044404D01*
X005187Y043607D02*
X006707Y043607D01*
X006778Y043154D01*
X006778Y043154D01*
X006987Y042745D01*
X006987Y042745D01*
X007311Y042420D01*
X007311Y042420D01*
X007721Y042212D01*
X008174Y042140D01*
X008627Y042212D01*
X008627Y042212D01*
X009037Y042420D01*
X009361Y042745D01*
X009570Y043154D01*
X009641Y043607D01*
X009570Y044061D01*
X009361Y044470D01*
X009037Y044794D01*
X009037Y044794D01*
X008627Y045003D01*
X008174Y045074D01*
X007721Y045003D01*
X007721Y045003D01*
X007311Y044794D01*
X006987Y044470D01*
X006987Y044470D01*
X006778Y044061D01*
X006778Y044061D01*
X006707Y043607D01*
X006707Y043607D01*
X006770Y043209D02*
X005857Y043209D01*
X006187Y042810D02*
X006953Y042810D01*
X007328Y042412D02*
X006187Y042412D01*
X005901Y042013D02*
X010884Y042013D01*
X010884Y041615D02*
X003018Y041615D01*
X002999Y042013D02*
X003555Y042013D01*
X003284Y042412D02*
X002979Y042412D01*
X002959Y042810D02*
X003299Y042810D01*
X003391Y043209D02*
X002960Y043209D01*
X002964Y043607D02*
X003267Y043607D01*
X003367Y044006D02*
X002969Y044006D01*
X005062Y043209D02*
X005117Y043209D01*
X005894Y044006D02*
X006770Y044006D01*
X006953Y044404D02*
X006187Y044404D01*
X006187Y044803D02*
X007328Y044803D01*
X007311Y044794D02*
X007311Y044794D01*
X008174Y045074D02*
X008174Y045074D01*
X008627Y045003D02*
X008627Y045003D01*
X009020Y044803D02*
X010884Y044803D01*
X010884Y045201D02*
X006009Y045201D01*
X006150Y045600D02*
X010884Y045600D01*
X010884Y045998D02*
X006075Y045998D01*
X009361Y044470D02*
X009361Y044470D01*
X009395Y044404D02*
X010884Y044404D01*
X010884Y044006D02*
X009578Y044006D01*
X009570Y044061D02*
X009570Y044061D01*
X009641Y043607D02*
X010884Y043607D01*
X010884Y043209D02*
X009578Y043209D01*
X009570Y043154D02*
X009570Y043154D01*
X009395Y042810D02*
X010884Y042810D01*
X010884Y042412D02*
X009020Y042412D01*
X009037Y042420D02*
X009037Y042420D01*
X009361Y042745D02*
X009361Y042745D01*
X008174Y042140D02*
X008174Y042140D01*
X007721Y042212D02*
X007721Y042212D01*
X005073Y042013D02*
X004898Y042013D01*
X003038Y041216D02*
X010884Y041216D01*
X010884Y040818D02*
X003058Y040818D01*
X003077Y040419D02*
X010884Y040419D01*
X010884Y040021D02*
X003121Y040021D01*
X003165Y039622D02*
X010884Y039622D01*
X010884Y039224D02*
X003209Y039224D01*
X003253Y038825D02*
X010884Y038825D01*
X010884Y038427D02*
X003297Y038427D01*
X003341Y038028D02*
X010884Y038028D01*
X010884Y037630D02*
X003405Y037630D01*
X003474Y037231D02*
X010884Y037231D01*
X010884Y036833D02*
X003543Y036833D01*
X003612Y036434D02*
X010884Y036434D01*
X010884Y036036D02*
X003681Y036036D01*
X003750Y035637D02*
X010884Y035637D01*
X010884Y035239D02*
X003835Y035239D01*
X003930Y034840D02*
X010884Y034840D01*
X010884Y034442D02*
X004024Y034442D01*
X004118Y034043D02*
X010884Y034043D01*
X010884Y033645D02*
X004212Y033645D01*
X004306Y033246D02*
X010884Y033246D01*
X010884Y032848D02*
X004417Y032848D01*
X004537Y032449D02*
X010884Y032449D01*
X010884Y032051D02*
X004657Y032051D01*
X004777Y031652D02*
X010884Y031652D01*
X010884Y031254D02*
X004898Y031254D01*
X005018Y030855D02*
X010884Y030855D01*
X010884Y030457D02*
X005157Y030457D01*
X005304Y030058D02*
X010884Y030058D01*
X010884Y029660D02*
X008750Y029660D01*
X008724Y029716D02*
X008179Y029914D01*
X007653Y029669D01*
X007455Y029124D01*
X007700Y028599D01*
X008094Y028456D01*
X008321Y027967D01*
X008866Y027769D01*
X009392Y028014D01*
X009590Y028559D01*
X009345Y029085D01*
X008951Y029228D01*
X008724Y029716D01*
X008936Y029261D02*
X010884Y029261D01*
X010884Y028863D02*
X009449Y028863D01*
X009555Y028464D02*
X010999Y028464D01*
X011398Y028066D02*
X009410Y028066D01*
X009645Y027470D02*
X009120Y027225D01*
X008952Y026764D01*
X008951Y026765D01*
X008793Y026822D01*
X008851Y026981D01*
X008839Y027259D01*
X008721Y027511D01*
X008516Y027700D01*
X008254Y027795D01*
X007976Y027783D01*
X007252Y027445D01*
X007064Y027240D01*
X006969Y026978D01*
X006981Y026700D01*
X007098Y026448D01*
X007304Y026260D01*
X007462Y026202D01*
X007405Y026043D01*
X007417Y025765D01*
X007534Y025513D01*
X007740Y025325D01*
X008001Y025229D01*
X008280Y025242D01*
X009003Y025579D01*
X009191Y025784D01*
X009287Y026046D01*
X009284Y026112D01*
X009711Y025956D01*
X010237Y026202D01*
X010435Y026746D01*
X010190Y027272D01*
X009645Y027470D01*
X009213Y027269D02*
X008834Y027269D01*
X008810Y026870D02*
X008990Y026870D01*
X009285Y026073D02*
X009391Y026073D01*
X009091Y025675D02*
X013789Y025675D01*
X014187Y025276D02*
X008354Y025276D01*
X007873Y025276D02*
X007357Y025276D01*
X007459Y025675D02*
X007151Y025675D01*
X006946Y026073D02*
X007415Y026073D01*
X007087Y026472D02*
X006765Y026472D01*
X006590Y026870D02*
X006973Y026870D01*
X007090Y027269D02*
X006415Y027269D01*
X006239Y027667D02*
X007728Y027667D01*
X008275Y028066D02*
X006064Y028066D01*
X005892Y028464D02*
X008070Y028464D01*
X007577Y028863D02*
X005745Y028863D01*
X005598Y029261D02*
X007505Y029261D01*
X007650Y029660D02*
X005451Y029660D01*
X008551Y027667D02*
X011796Y027667D01*
X012195Y027269D02*
X010192Y027269D01*
X010378Y026870D02*
X012593Y026870D01*
X012992Y026472D02*
X010335Y026472D01*
X009961Y026073D02*
X013390Y026073D01*
X014586Y024878D02*
X007562Y024878D01*
X007767Y024479D02*
X014984Y024479D01*
X015383Y024081D02*
X007972Y024081D01*
X008198Y023682D02*
X015781Y023682D01*
X016180Y023284D02*
X008435Y023284D01*
X008672Y022885D02*
X016578Y022885D01*
X016977Y022487D02*
X008909Y022487D01*
X009146Y022088D02*
X017375Y022088D01*
X017774Y021690D02*
X009394Y021690D01*
X009665Y021291D02*
X018172Y021291D01*
X018571Y020893D02*
X009936Y020893D01*
X010207Y020494D02*
X018969Y020494D01*
X019368Y020096D02*
X010478Y020096D01*
X010756Y019697D02*
X019766Y019697D01*
X020165Y019299D02*
X011064Y019299D01*
X011372Y018900D02*
X020563Y018900D01*
X021548Y021291D02*
X025701Y021291D01*
X026099Y021690D02*
X021150Y021690D01*
X020873Y022088D02*
X020751Y022088D01*
X020520Y022487D02*
X020353Y022487D01*
X020121Y022885D02*
X019959Y022885D01*
X019788Y022150D02*
X019198Y022741D01*
X022245Y022088D02*
X026498Y022088D01*
X026896Y022487D02*
X022559Y022487D01*
X024447Y023284D02*
X026058Y023284D01*
X026042Y023682D02*
X024582Y023682D01*
X024504Y024081D02*
X026042Y024081D01*
X026086Y024479D02*
X024539Y024479D01*
X024582Y024878D02*
X026042Y024878D01*
X026185Y025276D02*
X024439Y025276D01*
X024582Y025675D02*
X026042Y025675D01*
X026118Y026073D02*
X024507Y026073D01*
X024535Y026472D02*
X026089Y026472D01*
X026042Y026870D02*
X024582Y026870D01*
X024432Y027269D02*
X026193Y027269D01*
X026042Y027667D02*
X024582Y027667D01*
X024510Y028066D02*
X026115Y028066D01*
X026092Y028464D02*
X024532Y028464D01*
X024582Y028863D02*
X026042Y028863D01*
X026812Y029738D02*
X024812Y029738D01*
X023812Y030738D01*
X023095Y030457D02*
X020425Y030457D01*
X020425Y030855D02*
X023042Y030855D01*
X023208Y031254D02*
X020425Y031254D01*
X020425Y031652D02*
X023042Y031652D01*
X023108Y032051D02*
X022790Y032051D01*
X022132Y032051D02*
X020425Y032051D01*
X020425Y032449D02*
X021761Y032449D01*
X021761Y032848D02*
X020425Y032848D01*
X020425Y033246D02*
X022006Y033246D01*
X022916Y033246D02*
X023215Y033246D01*
X023042Y033645D02*
X020425Y033645D01*
X020425Y034043D02*
X023105Y034043D01*
X023102Y034442D02*
X020425Y034442D01*
X020780Y034840D02*
X023042Y034840D01*
X023223Y035239D02*
X021179Y035239D01*
X021577Y035637D02*
X023042Y035637D01*
X023102Y036036D02*
X021976Y036036D01*
X022374Y036434D02*
X023105Y036434D01*
X023042Y036833D02*
X022773Y036833D01*
X023171Y037231D02*
X023216Y037231D01*
X023570Y037630D02*
X033579Y037630D01*
X033181Y037231D02*
X027408Y037231D01*
X027582Y036833D02*
X032931Y036833D01*
X032931Y036434D02*
X027520Y036434D01*
X027523Y036036D02*
X029140Y036036D01*
X028761Y035637D02*
X027582Y035637D01*
X027402Y035239D02*
X028761Y035239D01*
X028998Y034840D02*
X027582Y034840D01*
X027523Y034442D02*
X029481Y034442D01*
X029879Y034043D02*
X027519Y034043D01*
X027162Y033087D02*
X026812Y032738D01*
X027162Y033087D02*
X029173Y033087D01*
X029451Y032809D01*
X029451Y032602D01*
X030533Y033683D01*
X030533Y034295D01*
X029461Y035367D01*
X029782Y036036D02*
X032931Y036036D01*
X032931Y035637D02*
X030161Y035637D01*
X030494Y035239D02*
X032931Y035239D01*
X032931Y034840D02*
X030893Y034840D01*
X031165Y034442D02*
X032931Y034442D01*
X032931Y034043D02*
X031173Y034043D01*
X031173Y033645D02*
X032931Y033645D01*
X032931Y033246D02*
X031001Y033246D01*
X030602Y032848D02*
X032931Y032848D01*
X032931Y032449D02*
X030204Y032449D01*
X029890Y032051D02*
X032931Y032051D01*
X032931Y031652D02*
X029406Y031652D01*
X029012Y032051D02*
X029007Y032051D01*
X028415Y031738D02*
X029451Y030702D01*
X029451Y028046D01*
X029485Y028013D01*
X030185Y028066D02*
X033128Y028066D01*
X033128Y028464D02*
X030091Y028464D01*
X030091Y028863D02*
X033128Y028863D01*
X033128Y029261D02*
X030091Y029261D01*
X030091Y029660D02*
X033032Y029660D01*
X032931Y030058D02*
X030091Y030058D01*
X030108Y030457D02*
X032931Y030457D01*
X032931Y030855D02*
X030145Y030855D01*
X029889Y031254D02*
X032931Y031254D01*
X034205Y031254D02*
X035070Y031254D01*
X035234Y031418D02*
X034904Y031088D01*
X034534Y030718D01*
X034401Y030398D01*
X034401Y030052D01*
X034534Y029732D01*
X034778Y029487D01*
X035098Y029355D01*
X035444Y029355D01*
X035748Y029481D01*
X037686Y029481D01*
X037723Y029496D01*
X038171Y029048D01*
X037996Y029121D01*
X037030Y029121D01*
X036747Y029003D01*
X036530Y028787D01*
X036413Y028504D01*
X036413Y028197D01*
X036530Y027914D01*
X036747Y027698D01*
X037030Y027581D01*
X037996Y027581D01*
X038279Y027698D01*
X038496Y027914D01*
X038613Y028197D01*
X038613Y028504D01*
X038541Y028678D01*
X038640Y028580D01*
X038640Y027929D01*
X038736Y027695D01*
X038916Y027516D01*
X053093Y013338D01*
X048005Y013338D01*
X034847Y026496D01*
X035023Y026423D01*
X035301Y026423D01*
X035558Y026530D01*
X035755Y026727D01*
X035862Y026984D01*
X035862Y027263D01*
X035755Y027520D01*
X035558Y027717D01*
X035301Y027823D01*
X035023Y027823D01*
X034765Y027717D01*
X034568Y027520D01*
X034462Y027263D01*
X034462Y026984D01*
X034535Y026808D01*
X034401Y026942D01*
X034401Y029954D01*
X034304Y030188D01*
X034205Y030288D01*
X034205Y036454D01*
X035143Y037391D01*
X036113Y036421D01*
X035904Y036334D01*
X035798Y036228D01*
X035611Y036151D01*
X035366Y035906D01*
X035289Y035719D01*
X035183Y035613D01*
X035062Y035322D01*
X035062Y035006D01*
X035183Y034715D01*
X035234Y034664D01*
X035234Y031418D01*
X035234Y031652D02*
X034205Y031652D01*
X034205Y032051D02*
X035234Y032051D01*
X035234Y032449D02*
X034205Y032449D01*
X034205Y032848D02*
X035234Y032848D01*
X035234Y033246D02*
X034205Y033246D01*
X034205Y033645D02*
X035234Y033645D01*
X035234Y034043D02*
X034205Y034043D01*
X034205Y034442D02*
X035234Y034442D01*
X035131Y034840D02*
X034205Y034840D01*
X034205Y035239D02*
X035062Y035239D01*
X035207Y035637D02*
X034205Y035637D01*
X034205Y036036D02*
X035496Y036036D01*
X036100Y036434D02*
X034205Y036434D01*
X034584Y036833D02*
X035701Y036833D01*
X035303Y037231D02*
X034982Y037231D01*
X037022Y039224D02*
X025164Y039224D01*
X025562Y039622D02*
X037022Y039622D01*
X037022Y040021D02*
X025961Y040021D01*
X026359Y040419D02*
X037022Y040419D01*
X037022Y040818D02*
X026758Y040818D01*
X027156Y041216D02*
X037022Y041216D01*
X037022Y041615D02*
X027555Y041615D01*
X027953Y042013D02*
X037022Y042013D01*
X037008Y042412D02*
X037022Y042412D01*
X037018Y043209D02*
X037022Y043209D01*
X037022Y043607D02*
X036332Y043607D01*
X036230Y044006D02*
X037022Y044006D01*
X037022Y044404D02*
X036332Y044404D01*
X036221Y044803D02*
X037022Y044803D01*
X037022Y045201D02*
X031141Y045201D01*
X030743Y044803D02*
X035009Y044803D01*
X034898Y044404D02*
X030344Y044404D01*
X029946Y044006D02*
X035000Y044006D01*
X034898Y043607D02*
X029547Y043607D01*
X029149Y043209D02*
X035000Y043209D01*
X034898Y042810D02*
X028750Y042810D01*
X028352Y042412D02*
X035009Y042412D01*
X037022Y045600D02*
X031540Y045600D01*
X031938Y045998D02*
X037022Y045998D01*
X037022Y046397D02*
X032337Y046397D01*
X032735Y046795D02*
X037022Y046795D01*
X037022Y047194D02*
X033134Y047194D01*
X033532Y047592D02*
X037022Y047592D01*
X037022Y047991D02*
X033931Y047991D01*
X034329Y048389D02*
X037022Y048389D01*
X037022Y048788D02*
X034728Y048788D01*
X035126Y049186D02*
X037022Y049186D01*
X037022Y049585D02*
X035525Y049585D01*
X035923Y049983D02*
X037210Y049983D01*
X037788Y051577D02*
X025680Y051577D01*
X025756Y051976D02*
X037389Y051976D01*
X037091Y052374D02*
X025756Y052374D01*
X025116Y051887D02*
X025116Y053530D01*
X025116Y051887D02*
X019198Y045969D01*
X019834Y045600D02*
X029738Y045600D01*
X030137Y045998D02*
X020132Y045998D01*
X020530Y046397D02*
X030535Y046397D01*
X030934Y046795D02*
X020929Y046795D01*
X021327Y047194D02*
X031332Y047194D01*
X031731Y047592D02*
X021726Y047592D01*
X022124Y047991D02*
X032129Y047991D01*
X032528Y048389D02*
X022523Y048389D01*
X022921Y048788D02*
X032926Y048788D01*
X033325Y049186D02*
X023320Y049186D01*
X023718Y049585D02*
X033723Y049585D01*
X034122Y049983D02*
X024117Y049983D01*
X024515Y050382D02*
X034520Y050382D01*
X034919Y050780D02*
X024914Y050780D01*
X025312Y051179D02*
X035317Y051179D01*
X029340Y045201D02*
X019834Y045201D01*
X019834Y044803D02*
X028941Y044803D01*
X028543Y044404D02*
X019834Y044404D01*
X019834Y044006D02*
X028144Y044006D01*
X027746Y043607D02*
X019834Y043607D01*
X019834Y043209D02*
X027347Y043209D01*
X026949Y042810D02*
X019834Y042810D01*
X019834Y042412D02*
X026550Y042412D01*
X026152Y042013D02*
X019834Y042013D01*
X019834Y041615D02*
X025753Y041615D01*
X025355Y041216D02*
X019834Y041216D01*
X019834Y040818D02*
X024956Y040818D01*
X024558Y040419D02*
X019834Y040419D01*
X019834Y040021D02*
X024159Y040021D01*
X023761Y039622D02*
X019834Y039622D01*
X019834Y039224D02*
X023362Y039224D01*
X022964Y038825D02*
X019834Y038825D01*
X019834Y038427D02*
X022565Y038427D01*
X022167Y038028D02*
X019834Y038028D01*
X019834Y037630D02*
X021768Y037630D01*
X021370Y037231D02*
X019834Y037231D01*
X019834Y036833D02*
X020971Y036833D01*
X020573Y036434D02*
X019834Y036434D01*
X019834Y036036D02*
X020174Y036036D01*
X022171Y030411D02*
X021761Y030001D01*
X021761Y029422D01*
X022171Y029011D01*
X022751Y029011D01*
X023161Y029422D01*
X023161Y030001D01*
X022751Y030411D01*
X022171Y030411D01*
X021818Y030058D02*
X020425Y030058D01*
X020425Y029660D02*
X021761Y029660D01*
X021921Y029261D02*
X020425Y029261D01*
X020425Y028863D02*
X023042Y028863D01*
X023001Y029261D02*
X023246Y029261D01*
X023161Y029660D02*
X023986Y029660D01*
X024378Y029261D02*
X024384Y029261D01*
X023442Y030058D02*
X023104Y030058D01*
X023092Y028464D02*
X020425Y028464D01*
X020425Y028066D02*
X020951Y028066D01*
X021011Y028125D02*
X020601Y027715D01*
X020601Y027135D01*
X021011Y026725D01*
X021591Y026725D01*
X022001Y027135D01*
X022001Y027715D01*
X021591Y028125D01*
X021011Y028125D01*
X020601Y027667D02*
X020425Y027667D01*
X020425Y027269D02*
X020601Y027269D01*
X020425Y026870D02*
X020865Y026870D01*
X020425Y026472D02*
X023089Y026472D01*
X023118Y026073D02*
X020425Y026073D01*
X021736Y026870D02*
X023042Y026870D01*
X023193Y027269D02*
X022001Y027269D01*
X022001Y027667D02*
X023042Y027667D01*
X023115Y028066D02*
X021650Y028066D01*
X024999Y030457D02*
X026535Y030457D01*
X026812Y031738D02*
X028415Y031738D01*
X029500Y033645D02*
X029589Y033645D01*
X034205Y030855D02*
X034671Y030855D01*
X034425Y030457D02*
X034205Y030457D01*
X034358Y030058D02*
X034401Y030058D01*
X034401Y029660D02*
X034606Y029660D01*
X034401Y029261D02*
X037958Y029261D01*
X038613Y028464D02*
X038640Y028464D01*
X038640Y028066D02*
X038558Y028066D01*
X038765Y027667D02*
X038205Y027667D01*
X039163Y027269D02*
X035859Y027269D01*
X035815Y026870D02*
X039562Y026870D01*
X039960Y026472D02*
X035417Y026472D01*
X035270Y026073D02*
X040359Y026073D01*
X040757Y025675D02*
X035669Y025675D01*
X036067Y025276D02*
X041156Y025276D01*
X041554Y024878D02*
X036466Y024878D01*
X036864Y024479D02*
X041953Y024479D01*
X042351Y024081D02*
X037263Y024081D01*
X037661Y023682D02*
X042750Y023682D01*
X043148Y023284D02*
X038060Y023284D01*
X038458Y022885D02*
X043547Y022885D01*
X043945Y022487D02*
X038857Y022487D01*
X039255Y022088D02*
X044344Y022088D01*
X044742Y021690D02*
X039654Y021690D01*
X040052Y021291D02*
X045141Y021291D01*
X045539Y020893D02*
X040451Y020893D01*
X040849Y020494D02*
X045938Y020494D01*
X046336Y020096D02*
X041248Y020096D01*
X041646Y019697D02*
X046735Y019697D01*
X047133Y019299D02*
X042045Y019299D01*
X042443Y018900D02*
X047532Y018900D01*
X047930Y018502D02*
X042842Y018502D01*
X043240Y018103D02*
X048329Y018103D01*
X048727Y017705D02*
X043639Y017705D01*
X044037Y017306D02*
X049126Y017306D01*
X049524Y016908D02*
X044436Y016908D01*
X044834Y016509D02*
X049923Y016509D01*
X050321Y016111D02*
X045233Y016111D01*
X045631Y015712D02*
X050720Y015712D01*
X051118Y015314D02*
X046030Y015314D01*
X046428Y014915D02*
X051517Y014915D01*
X051915Y014517D02*
X046827Y014517D01*
X047225Y014118D02*
X052314Y014118D01*
X052712Y013720D02*
X047624Y013720D01*
X046619Y012923D02*
X043696Y012923D01*
X043298Y013321D02*
X046221Y013321D01*
X045822Y013720D02*
X042899Y013720D01*
X042501Y014118D02*
X045424Y014118D01*
X045025Y014517D02*
X042102Y014517D01*
X041704Y014915D02*
X044627Y014915D01*
X044228Y015314D02*
X041305Y015314D01*
X040907Y015712D02*
X043830Y015712D01*
X043431Y016111D02*
X040508Y016111D01*
X040110Y016509D02*
X043033Y016509D01*
X042634Y016908D02*
X039711Y016908D01*
X039313Y017306D02*
X042236Y017306D01*
X041837Y017705D02*
X038914Y017705D01*
X038516Y018103D02*
X041439Y018103D01*
X041040Y018502D02*
X038117Y018502D01*
X037719Y018900D02*
X040642Y018900D01*
X040243Y019299D02*
X037320Y019299D01*
X036922Y019697D02*
X039845Y019697D01*
X039446Y020096D02*
X036523Y020096D01*
X036125Y020494D02*
X039048Y020494D01*
X038649Y020893D02*
X027113Y020893D01*
X027511Y021291D02*
X038251Y021291D01*
X037852Y021690D02*
X027910Y021690D01*
X028308Y022088D02*
X037454Y022088D01*
X037055Y022487D02*
X028707Y022487D01*
X029105Y022885D02*
X031880Y022885D01*
X032311Y022885D02*
X032667Y022885D01*
X033098Y022885D02*
X033454Y022885D01*
X033885Y022885D02*
X036657Y022885D01*
X036258Y023284D02*
X034327Y023284D01*
X034387Y023682D02*
X035860Y023682D01*
X035461Y024081D02*
X034331Y024081D01*
X034387Y024479D02*
X035063Y024479D01*
X034664Y024878D02*
X034242Y024878D01*
X034266Y025276D02*
X033886Y025276D01*
X033867Y025675D02*
X033488Y025675D01*
X033469Y026073D02*
X033089Y026073D01*
X033404Y026138D02*
X033404Y026138D01*
X033161Y026472D02*
X032650Y026472D01*
X032357Y025900D02*
X033670Y024587D01*
X033670Y024359D01*
X032357Y025900D02*
X031215Y025900D01*
X025891Y020576D01*
X029504Y023284D02*
X031438Y023284D01*
X031378Y023682D02*
X029902Y023682D01*
X030301Y024081D02*
X031434Y024081D01*
X031378Y024479D02*
X030699Y024479D01*
X031098Y024878D02*
X031599Y024878D01*
X034473Y026870D02*
X034509Y026870D01*
X034464Y027269D02*
X034401Y027269D01*
X034401Y027667D02*
X034716Y027667D01*
X034401Y028066D02*
X036468Y028066D01*
X036413Y028464D02*
X034401Y028464D01*
X034401Y028863D02*
X036606Y028863D01*
X036821Y027667D02*
X035608Y027667D01*
X034907Y026472D02*
X034872Y026472D01*
X033128Y027667D02*
X030128Y027667D01*
X028841Y027667D02*
X028815Y027667D01*
X038911Y031374D02*
X039867Y030418D01*
X039867Y029040D01*
X044067Y028066D02*
X054101Y028066D01*
X054104Y028464D02*
X044563Y028464D01*
X044773Y028863D02*
X054040Y028863D01*
X054221Y029261D02*
X044853Y029261D01*
X044821Y029660D02*
X054040Y029660D01*
X054098Y030058D02*
X044667Y030058D01*
X044343Y030457D02*
X054107Y030457D01*
X058023Y030457D02*
X060107Y030457D01*
X060098Y030058D02*
X058023Y030058D01*
X058023Y029660D02*
X060040Y029660D01*
X060237Y029261D02*
X058023Y029261D01*
X058023Y028863D02*
X060797Y028863D01*
X060641Y029019D02*
X060641Y029019D01*
X060508Y028464D02*
X058023Y028464D01*
X058023Y028066D02*
X060101Y028066D01*
X060040Y027667D02*
X058023Y027667D01*
X058023Y027269D02*
X060229Y027269D01*
X060040Y026870D02*
X058023Y026870D01*
X058023Y026472D02*
X060101Y026472D01*
X060104Y026073D02*
X058400Y026073D01*
X058799Y025675D02*
X060040Y025675D01*
X060222Y025276D02*
X059197Y025276D01*
X059596Y024878D02*
X060040Y024878D01*
X059994Y024479D02*
X060098Y024479D01*
X061482Y024479D02*
X061671Y024479D01*
X061671Y024081D02*
X061473Y024081D01*
X061540Y024878D02*
X061671Y024878D01*
X061671Y025276D02*
X061358Y025276D01*
X061540Y025675D02*
X061671Y025675D01*
X061671Y026073D02*
X061476Y026073D01*
X061479Y026472D02*
X061671Y026472D01*
X061671Y026870D02*
X061540Y026870D01*
X061671Y027269D02*
X061351Y027269D01*
X061540Y027667D02*
X061671Y027667D01*
X061594Y028066D02*
X061479Y028066D01*
X061196Y028464D02*
X061071Y028464D01*
X061482Y030058D02*
X061671Y030058D01*
X061671Y030457D02*
X061472Y030457D01*
X061540Y030855D02*
X061671Y030855D01*
X061671Y031254D02*
X061366Y031254D01*
X061540Y031652D02*
X061671Y031652D01*
X061671Y032051D02*
X061485Y032051D01*
X061563Y032449D02*
X061671Y032449D01*
X061671Y032848D02*
X061626Y032848D01*
X061671Y033246D02*
X061495Y033246D01*
X060085Y033246D02*
X057821Y033246D01*
X058023Y032848D02*
X059954Y032848D01*
X060017Y032449D02*
X058023Y032449D01*
X058023Y032051D02*
X060095Y032051D01*
X060040Y031652D02*
X058023Y031652D01*
X058023Y031254D02*
X060214Y031254D01*
X060040Y030855D02*
X058023Y030855D01*
X063535Y030855D02*
X071403Y030855D01*
X071005Y031254D02*
X063535Y031254D01*
X063535Y031652D02*
X070606Y031652D01*
X070208Y032051D02*
X063535Y032051D01*
X063535Y032449D02*
X069809Y032449D01*
X069411Y032848D02*
X063535Y032848D01*
X063535Y033246D02*
X069012Y033246D01*
X068614Y033645D02*
X063535Y033645D01*
X063535Y034043D02*
X068215Y034043D01*
X067817Y034442D02*
X063535Y034442D01*
X063535Y034840D02*
X067418Y034840D01*
X067020Y035239D02*
X063535Y035239D01*
X063535Y035637D02*
X066621Y035637D01*
X066223Y036036D02*
X063535Y036036D01*
X063535Y036434D02*
X065824Y036434D01*
X065426Y036833D02*
X063535Y036833D01*
X063535Y037231D02*
X065027Y037231D01*
X064629Y037630D02*
X063535Y037630D01*
X063535Y038028D02*
X064230Y038028D01*
X063832Y038427D02*
X063535Y038427D01*
X063535Y030457D02*
X071802Y030457D01*
X072200Y030058D02*
X063535Y030058D01*
X063535Y029660D02*
X072599Y029660D01*
X072997Y029261D02*
X063535Y029261D01*
X063535Y028863D02*
X073396Y028863D01*
X073794Y028464D02*
X063535Y028464D01*
X063535Y028066D02*
X074193Y028066D01*
X074591Y027667D02*
X063535Y027667D01*
X063535Y027269D02*
X074990Y027269D01*
X075388Y026870D02*
X063535Y026870D01*
X063535Y026472D02*
X075787Y026472D01*
X076185Y026073D02*
X063535Y026073D01*
X063535Y025675D02*
X076471Y025675D01*
X076616Y025276D02*
X063535Y025276D01*
X059954Y014915D02*
X055626Y014915D01*
X047467Y012126D02*
X044493Y012126D01*
X044095Y012524D02*
X047018Y012524D01*
X041117Y012126D02*
X019432Y012126D01*
X019766Y012524D02*
X040719Y012524D01*
X040320Y012923D02*
X019950Y012923D01*
X020447Y013321D02*
X039922Y013321D01*
X039523Y013720D02*
X020619Y013720D01*
X020584Y014118D02*
X039125Y014118D01*
X038726Y014517D02*
X018839Y014517D01*
X018984Y014118D02*
X019288Y014118D01*
X019213Y013720D02*
X019149Y013720D01*
X019094Y014915D02*
X038328Y014915D01*
X037929Y015314D02*
X019060Y015314D01*
X018688Y015712D02*
X037531Y015712D01*
X037132Y016111D02*
X017986Y016111D01*
X017057Y016111D02*
X013702Y016111D01*
X013354Y016509D02*
X036734Y016509D01*
X036335Y016908D02*
X013005Y016908D01*
X012656Y017306D02*
X035937Y017306D01*
X035538Y017705D02*
X012308Y017705D01*
X011988Y018103D02*
X035140Y018103D01*
X034741Y018502D02*
X011680Y018502D01*
X014079Y015712D02*
X016813Y015712D01*
X016848Y015314D02*
X014473Y015314D01*
X012415Y045600D02*
X012157Y045600D01*
X012157Y045998D02*
X012814Y045998D01*
X013212Y046397D02*
X012157Y046397D01*
X012157Y046795D02*
X013611Y046795D01*
X014009Y047194D02*
X012157Y047194D01*
X012157Y047592D02*
X014408Y047592D01*
X014806Y047991D02*
X012157Y047991D01*
X012157Y048389D02*
X015205Y048389D01*
X015603Y048788D02*
X012157Y048788D01*
X012157Y049186D02*
X016002Y049186D01*
X016400Y049585D02*
X012157Y049585D01*
X012157Y049983D02*
X016799Y049983D01*
X017197Y050382D02*
X012157Y050382D01*
X012157Y050780D02*
X015878Y050780D01*
X015589Y051179D02*
X012157Y051179D01*
X012157Y051577D02*
X015539Y051577D01*
X015704Y051976D02*
X012157Y051976D01*
X012157Y052374D02*
X015626Y052374D01*
X015691Y052773D02*
X012157Y052773D01*
X012157Y053171D02*
X015685Y053171D01*
X015626Y053570D02*
X012157Y053570D01*
X012157Y053968D02*
X015812Y053968D01*
X015626Y054367D02*
X012157Y054367D01*
X012157Y054765D02*
X015688Y054765D01*
X016873Y050780D02*
X017596Y050780D01*
X019985Y054434D02*
X019985Y058074D01*
X022376Y060465D01*
X021682Y058750D02*
X021566Y058750D01*
X021626Y058352D02*
X021167Y058352D01*
X020769Y057953D02*
X021827Y057953D01*
X026646Y058352D02*
X041741Y058352D01*
X041343Y058750D02*
X026737Y058750D01*
X026644Y059149D02*
X040944Y059149D01*
X040546Y059547D02*
X026737Y059547D01*
X026737Y059946D02*
X040147Y059946D01*
X039749Y060344D02*
X026639Y060344D01*
X026737Y060743D02*
X039350Y060743D01*
X038952Y061141D02*
X026651Y061141D01*
X026737Y061540D02*
X038553Y061540D01*
X038155Y061938D02*
X027012Y061938D01*
X024836Y063532D02*
X023126Y063532D01*
X023050Y063134D02*
X024438Y063134D01*
X021781Y063931D02*
X021760Y063931D01*
X021626Y064329D02*
X021548Y064329D01*
X021548Y064728D02*
X021673Y064728D01*
X021704Y065126D02*
X021548Y065126D01*
X021548Y065525D02*
X021626Y065525D01*
X021548Y065923D02*
X021773Y065923D01*
X021626Y066322D02*
X021548Y066322D01*
X021548Y066720D02*
X021669Y066720D01*
X021707Y067119D02*
X021548Y067119D01*
X021626Y067517D02*
X021335Y067517D01*
X020937Y067916D02*
X021766Y067916D01*
X021626Y068314D02*
X020538Y068314D01*
X020140Y068713D02*
X021666Y068713D01*
X021617Y069111D02*
X019741Y069111D01*
X019343Y069510D02*
X021539Y069510D01*
X021654Y069908D02*
X018944Y069908D01*
X018546Y070307D02*
X030236Y070307D01*
X030081Y069908D02*
X023097Y069908D01*
X023212Y069510D02*
X030081Y069510D01*
X030119Y069111D02*
X023134Y069111D01*
X023085Y068713D02*
X030192Y068713D01*
X030101Y068314D02*
X023125Y068314D01*
X022986Y067916D02*
X030227Y067916D01*
X031375Y067916D02*
X032227Y067916D01*
X032101Y068042D02*
X032511Y067632D01*
X033091Y067632D01*
X033370Y067911D01*
X033423Y067858D01*
X034003Y067858D01*
X034413Y068268D01*
X034413Y068848D01*
X034003Y069258D01*
X033423Y069258D01*
X033144Y068979D01*
X033091Y069032D01*
X032511Y069032D01*
X032101Y068622D01*
X032101Y068042D01*
X032101Y068314D02*
X031501Y068314D01*
X031502Y068713D02*
X031410Y068713D01*
X032122Y068713D02*
X032192Y068713D01*
X032474Y069111D02*
X033276Y069111D01*
X032512Y069510D02*
X040753Y069510D01*
X041301Y069401D02*
X041301Y069401D01*
X036888Y070739D02*
X036888Y070739D01*
X034878Y071901D02*
X019008Y071901D01*
X019043Y072299D02*
X034281Y072299D01*
X034246Y072323D02*
X034246Y072323D01*
X033789Y072698D02*
X018770Y072698D01*
X018984Y073096D02*
X019219Y073096D01*
X019113Y073893D02*
X019329Y073893D01*
X019754Y074292D02*
X018797Y074292D01*
X018083Y074690D02*
X020155Y074690D01*
X020682Y074690D02*
X031664Y074690D01*
X031265Y075089D02*
X017841Y075089D01*
X018060Y074690D02*
X017375Y074690D01*
X017514Y074292D02*
X016910Y074292D01*
X016947Y073893D02*
X016444Y073893D01*
X016665Y073495D02*
X016009Y073495D01*
X015597Y073096D02*
X016689Y073096D01*
X016960Y072698D02*
X015185Y072698D01*
X014772Y072299D02*
X017365Y072299D01*
X017611Y071901D02*
X014373Y071901D01*
X018331Y075487D02*
X030867Y075487D01*
X030468Y075886D02*
X018858Y075886D01*
X019386Y076284D02*
X026026Y076284D01*
X025937Y076298D02*
X026391Y076226D01*
X026844Y076298D01*
X027253Y076507D01*
X027253Y076507D01*
X027578Y076831D01*
X027786Y077240D01*
X027786Y077240D01*
X027858Y077694D01*
X027786Y078147D01*
X027786Y078147D01*
X027578Y078556D01*
X027578Y078556D01*
X027253Y078881D01*
X026844Y079089D01*
X026391Y079161D01*
X026391Y079161D01*
X025937Y079089D01*
X025528Y078881D01*
X025528Y078881D01*
X025528Y078881D01*
X025203Y078556D01*
X024995Y078147D01*
X024923Y077694D01*
X024995Y077240D01*
X025203Y076831D01*
X025528Y076507D01*
X025937Y076298D01*
X025937Y076298D01*
X025528Y076507D02*
X025528Y076507D01*
X025352Y076683D02*
X019914Y076683D01*
X020488Y077081D02*
X025076Y077081D01*
X024957Y077480D02*
X021089Y077480D01*
X021689Y077878D02*
X024952Y077878D01*
X025061Y078277D02*
X022307Y078277D01*
X022995Y078675D02*
X025322Y078675D01*
X025203Y078556D02*
X025203Y078556D01*
X025906Y079074D02*
X023683Y079074D01*
X024379Y079472D02*
X026879Y079472D01*
X026844Y079089D02*
X026844Y079089D01*
X026875Y079074D02*
X027278Y079074D01*
X027253Y078881D02*
X027253Y078881D01*
X027459Y078675D02*
X027676Y078675D01*
X027720Y078277D02*
X028075Y078277D01*
X027829Y077878D02*
X028474Y077878D01*
X028873Y077480D02*
X027824Y077480D01*
X027705Y077081D02*
X029271Y077081D01*
X029670Y076683D02*
X027429Y076683D01*
X027578Y076831D02*
X027578Y076831D01*
X026844Y076298D02*
X026844Y076298D01*
X026756Y076284D02*
X030069Y076284D01*
X032063Y074292D02*
X021109Y074292D01*
X021125Y073893D02*
X032462Y073893D01*
X032860Y073495D02*
X020908Y073495D01*
X020532Y073096D02*
X033304Y073096D01*
X034150Y069111D02*
X053741Y069111D01*
X053703Y069203D02*
X053809Y068945D01*
X053933Y068822D01*
X053719Y068608D01*
X053719Y068028D01*
X054129Y067618D01*
X054709Y067618D01*
X055119Y068028D01*
X055119Y068608D01*
X054889Y068838D01*
X054919Y068868D01*
X055038Y068748D01*
X055295Y068642D01*
X055574Y068642D01*
X055831Y068748D01*
X056028Y068945D01*
X056134Y069203D01*
X056134Y070001D01*
X056028Y070258D01*
X055831Y070455D01*
X055574Y070562D01*
X055295Y070562D01*
X055038Y070455D01*
X054919Y070336D01*
X054799Y070455D01*
X054542Y070562D01*
X054264Y070562D01*
X054006Y070455D01*
X053809Y070258D01*
X053703Y070001D01*
X053703Y069203D01*
X053703Y069510D02*
X046461Y069510D01*
X045913Y069401D02*
X045913Y069401D01*
X047426Y069701D02*
X047426Y069701D01*
X048107Y069908D02*
X053703Y069908D01*
X053858Y070307D02*
X049282Y070307D01*
X050244Y070705D02*
X073936Y070705D01*
X074301Y070307D02*
X055979Y070307D01*
X056134Y069908D02*
X074636Y069908D01*
X074959Y069510D02*
X056134Y069510D01*
X056096Y069111D02*
X075282Y069111D01*
X075605Y068713D02*
X069429Y068713D01*
X069845Y068314D02*
X075927Y068314D01*
X076217Y067916D02*
X070244Y067916D01*
X070642Y067517D02*
X076501Y067517D01*
X076785Y067119D02*
X071041Y067119D01*
X071439Y066720D02*
X077070Y066720D01*
X077354Y066322D02*
X071838Y066322D01*
X072236Y065923D02*
X077610Y065923D01*
X077859Y065525D02*
X072635Y065525D01*
X073033Y065126D02*
X078108Y065126D01*
X078358Y064728D02*
X073432Y064728D01*
X073830Y064329D02*
X078607Y064329D01*
X078838Y063931D02*
X074229Y063931D01*
X074627Y063532D02*
X079055Y063532D01*
X079271Y063134D02*
X075026Y063134D01*
X075424Y062735D02*
X079488Y062735D01*
X079705Y062337D02*
X075823Y062337D01*
X076221Y061938D02*
X078861Y061938D01*
X079341Y061938D02*
X079918Y061938D01*
X079755Y061540D02*
X080105Y061540D01*
X080291Y061141D02*
X079799Y061141D01*
X080127Y060743D02*
X080477Y060743D01*
X080664Y060344D02*
X080241Y060344D01*
X080124Y059946D02*
X080850Y059946D01*
X081022Y059547D02*
X079487Y059547D01*
X079214Y059149D02*
X081180Y059149D01*
X081337Y058750D02*
X079395Y058750D01*
X079734Y058352D02*
X081495Y058352D01*
X081652Y057953D02*
X079908Y057953D01*
X079763Y057555D02*
X081810Y057555D01*
X081948Y057156D02*
X068583Y057156D01*
X068595Y057126D02*
X068498Y057361D01*
X068364Y057495D01*
X068304Y057640D01*
X068107Y057836D01*
X068014Y057875D01*
X068014Y059195D01*
X068221Y059110D01*
X068528Y059110D01*
X068811Y059227D01*
X068874Y059291D01*
X068875Y059290D01*
X068731Y059147D01*
X068731Y058567D01*
X069141Y058157D01*
X069721Y058157D01*
X070131Y058567D01*
X070131Y059147D01*
X070221Y059110D01*
X070528Y059110D01*
X070811Y059227D01*
X070874Y059291D01*
X070938Y059227D01*
X071221Y059110D01*
X071528Y059110D01*
X071811Y059227D01*
X072027Y059443D01*
X072144Y059726D01*
X072144Y060033D01*
X072027Y060316D01*
X071811Y060532D01*
X071528Y060650D01*
X071221Y060650D01*
X070938Y060532D01*
X070874Y060468D01*
X070811Y060532D01*
X070528Y060650D01*
X070221Y060650D01*
X069938Y060532D01*
X069874Y060468D01*
X069811Y060532D01*
X069528Y060650D01*
X069221Y060650D01*
X068938Y060532D01*
X068874Y060468D01*
X068811Y060532D01*
X068528Y060650D01*
X068221Y060650D01*
X067938Y060532D01*
X067874Y060468D01*
X067811Y060532D01*
X067528Y060650D01*
X067221Y060650D01*
X066938Y060532D01*
X066874Y060468D01*
X066811Y060532D01*
X066528Y060650D01*
X066221Y060650D01*
X065938Y060532D01*
X065722Y060316D01*
X065604Y060033D01*
X065604Y059726D01*
X065722Y059443D01*
X065734Y059431D01*
X065734Y058072D01*
X065559Y057896D01*
X065414Y057836D01*
X065217Y057640D01*
X065157Y057495D01*
X064673Y057010D01*
X064575Y056775D01*
X064575Y054698D01*
X064515Y054638D01*
X064515Y054058D01*
X064925Y053648D01*
X065505Y053648D01*
X065915Y054058D01*
X065915Y054638D01*
X065855Y054698D01*
X065855Y056383D01*
X066062Y056590D01*
X066207Y056650D01*
X066404Y056846D01*
X066464Y056991D01*
X066737Y057264D01*
X066790Y057317D01*
X066832Y057217D01*
X067057Y056991D01*
X067117Y056846D01*
X067314Y056650D01*
X067315Y056649D01*
X067315Y054903D01*
X067255Y054843D01*
X067255Y054263D01*
X067665Y053853D01*
X068245Y053853D01*
X068655Y054263D01*
X068655Y054843D01*
X068595Y054903D01*
X068595Y057126D01*
X068595Y056758D02*
X082078Y056758D01*
X082208Y056359D02*
X069919Y056359D01*
X069721Y056557D02*
X070131Y056147D01*
X070131Y055567D01*
X069721Y055157D01*
X069141Y055157D01*
X068731Y055567D01*
X068731Y056147D01*
X069141Y056557D01*
X069721Y056557D01*
X070131Y055961D02*
X082338Y055961D01*
X082469Y055562D02*
X070126Y055562D01*
X069728Y055164D02*
X082599Y055164D01*
X082707Y054765D02*
X068655Y054765D01*
X068655Y054367D02*
X082811Y054367D01*
X082915Y053968D02*
X068361Y053968D01*
X067955Y054553D02*
X067955Y056998D01*
X067711Y057243D01*
X067374Y057579D01*
X067374Y059880D01*
X068014Y059149D02*
X068127Y059149D01*
X068014Y058750D02*
X068731Y058750D01*
X068733Y059149D02*
X068622Y059149D01*
X068947Y058352D02*
X068014Y058352D01*
X068014Y057953D02*
X078379Y057953D01*
X078561Y057555D02*
X068339Y057555D01*
X067206Y056758D02*
X066315Y056758D01*
X066629Y057156D02*
X066892Y057156D01*
X066374Y057807D02*
X066374Y059880D01*
X065679Y059547D02*
X065070Y059547D01*
X065027Y059443D02*
X065144Y059726D01*
X065144Y060033D01*
X065027Y060316D01*
X064811Y060532D01*
X064528Y060650D01*
X064221Y060650D01*
X063938Y060532D01*
X063874Y060468D01*
X063811Y060532D01*
X063528Y060650D01*
X063221Y060650D01*
X062938Y060532D01*
X062874Y060468D01*
X062811Y060532D01*
X062528Y060650D01*
X062221Y060650D01*
X061938Y060532D01*
X061874Y060468D01*
X061811Y060532D01*
X061528Y060650D01*
X061221Y060650D01*
X060938Y060532D01*
X060874Y060468D01*
X060811Y060532D01*
X060528Y060650D01*
X060221Y060650D01*
X059938Y060532D01*
X059874Y060468D01*
X059811Y060532D01*
X059528Y060650D01*
X059221Y060650D01*
X058985Y060552D01*
X058954Y060583D01*
X058792Y060650D01*
X057957Y060650D01*
X057795Y060583D01*
X057671Y060459D01*
X057604Y060297D01*
X057604Y059462D01*
X057671Y059300D01*
X057795Y059176D01*
X057957Y059110D01*
X058792Y059110D01*
X058954Y059176D01*
X058985Y059208D01*
X059221Y059110D01*
X059528Y059110D01*
X059811Y059227D01*
X059874Y059291D01*
X059938Y059227D01*
X060221Y059110D01*
X060528Y059110D01*
X060811Y059227D01*
X060874Y059291D01*
X060938Y059227D01*
X061221Y059110D01*
X061528Y059110D01*
X061811Y059227D01*
X061874Y059291D01*
X061938Y059227D01*
X062221Y059110D01*
X062528Y059110D01*
X062811Y059227D01*
X062874Y059291D01*
X062938Y059227D01*
X063221Y059110D01*
X063528Y059110D01*
X063811Y059227D01*
X063874Y059291D01*
X063938Y059227D01*
X064221Y059110D01*
X064528Y059110D01*
X064811Y059227D01*
X065027Y059443D01*
X064622Y059149D02*
X065734Y059149D01*
X065734Y058750D02*
X059680Y058750D01*
X059622Y059149D02*
X060127Y059149D01*
X060622Y059149D02*
X061127Y059149D01*
X061622Y059149D02*
X062127Y059149D01*
X062622Y059149D02*
X063127Y059149D01*
X063622Y059149D02*
X064127Y059149D01*
X065144Y059946D02*
X065604Y059946D01*
X065750Y060344D02*
X064999Y060344D01*
X065221Y062110D02*
X065528Y062110D01*
X065811Y062227D01*
X065874Y062291D01*
X065938Y062227D01*
X066221Y062110D01*
X066528Y062110D01*
X066811Y062227D01*
X066874Y062291D01*
X066938Y062227D01*
X067221Y062110D01*
X067528Y062110D01*
X067811Y062227D01*
X067874Y062291D01*
X067938Y062227D01*
X068221Y062110D01*
X068528Y062110D01*
X068811Y062227D01*
X068874Y062291D01*
X068938Y062227D01*
X069221Y062110D01*
X069528Y062110D01*
X069811Y062227D01*
X069874Y062291D01*
X069938Y062227D01*
X070221Y062110D01*
X070528Y062110D01*
X070811Y062227D01*
X070874Y062291D01*
X070938Y062227D01*
X071221Y062110D01*
X071528Y062110D01*
X071811Y062227D01*
X072027Y062443D01*
X072144Y062735D02*
X073614Y062735D01*
X073216Y063134D02*
X072103Y063134D01*
X071811Y063532D02*
X071528Y063650D01*
X071221Y063650D01*
X070938Y063532D01*
X070811Y063532D01*
X070528Y063650D01*
X070221Y063650D01*
X069938Y063532D01*
X069811Y063532D01*
X069528Y063650D01*
X069221Y063650D01*
X068938Y063532D01*
X068811Y063532D01*
X068528Y063650D01*
X068221Y063650D01*
X068034Y063572D01*
X068034Y064054D01*
X067758Y064329D02*
X072020Y064329D01*
X070938Y063532D02*
X070874Y063468D01*
X070811Y063532D01*
X069938Y063532D02*
X069874Y063468D01*
X069811Y063532D01*
X068938Y063532D02*
X068874Y063468D01*
X068811Y063532D01*
X067624Y066064D02*
X067044Y066064D01*
X066634Y066474D01*
X066634Y067054D01*
X067044Y067464D01*
X067624Y067464D01*
X068034Y067054D01*
X068034Y066474D01*
X067624Y066064D01*
X067881Y066322D02*
X070028Y066322D01*
X069629Y066720D02*
X068034Y066720D01*
X067969Y067119D02*
X069231Y067119D01*
X068832Y067517D02*
X066933Y067517D01*
X066699Y067119D02*
X066535Y067119D01*
X066634Y066720D02*
X066136Y066720D01*
X065819Y066322D02*
X066786Y066322D01*
X065150Y066639D02*
X066669Y068158D01*
X069097Y068158D01*
X078532Y058722D01*
X078640Y058722D01*
X079157Y057934D01*
X077998Y058352D02*
X069916Y058352D01*
X070131Y058750D02*
X077599Y058750D01*
X077201Y059149D02*
X071622Y059149D01*
X071127Y059149D02*
X070622Y059149D01*
X072070Y059547D02*
X076802Y059547D01*
X076404Y059946D02*
X072144Y059946D01*
X071999Y060344D02*
X076005Y060344D01*
X075607Y060743D02*
X056112Y060743D01*
X055714Y061141D02*
X075208Y061141D01*
X074810Y061540D02*
X055315Y061540D01*
X054518Y062337D02*
X057828Y062337D01*
X057722Y062443D02*
X057938Y062227D01*
X058221Y062110D01*
X058528Y062110D01*
X058811Y062227D01*
X058874Y062291D01*
X058938Y062227D01*
X059221Y062110D01*
X059528Y062110D01*
X059811Y062227D01*
X059874Y062291D01*
X059938Y062227D01*
X060221Y062110D01*
X060528Y062110D01*
X060811Y062227D01*
X060874Y062291D01*
X060938Y062227D01*
X061221Y062110D01*
X061528Y062110D01*
X061811Y062227D01*
X061874Y062291D01*
X061938Y062227D01*
X062221Y062110D01*
X062528Y062110D01*
X062811Y062227D01*
X062874Y062291D01*
X062938Y062227D01*
X063221Y062110D01*
X063528Y062110D01*
X063811Y062227D01*
X064027Y062443D01*
X064144Y062726D01*
X064144Y063033D01*
X064027Y063316D01*
X063811Y063532D01*
X064103Y063134D02*
X064646Y063134D01*
X064604Y063033D02*
X064604Y062726D01*
X064722Y062443D01*
X064938Y062227D01*
X065221Y062110D01*
X064828Y062337D02*
X063920Y062337D01*
X064144Y062735D02*
X064604Y062735D01*
X064604Y063033D02*
X064722Y063316D01*
X064938Y063532D01*
X065811Y063532D02*
X065874Y063468D01*
X065938Y063532D01*
X062938Y063532D02*
X062874Y063468D01*
X062811Y063532D01*
X061938Y063532D02*
X061874Y063468D01*
X061811Y063532D01*
X060938Y063532D02*
X060874Y063468D01*
X060811Y063532D01*
X059938Y063532D02*
X059874Y063468D01*
X059811Y063532D01*
X058938Y063532D02*
X058874Y063468D01*
X058811Y063532D01*
X057938Y063532D02*
X057722Y063316D01*
X057604Y063033D01*
X057604Y062726D01*
X057722Y062443D01*
X057604Y062735D02*
X054001Y062735D01*
X056511Y060344D02*
X057624Y060344D01*
X057604Y059946D02*
X056909Y059946D01*
X057308Y059547D02*
X057604Y059547D01*
X057706Y059149D02*
X057863Y059149D01*
X058886Y059149D02*
X059127Y059149D01*
X060078Y058352D02*
X065734Y058352D01*
X065616Y057953D02*
X060477Y057953D01*
X060875Y057555D02*
X065182Y057555D01*
X064819Y057156D02*
X061274Y057156D01*
X061672Y056758D02*
X064575Y056758D01*
X064575Y056359D02*
X062071Y056359D01*
X062469Y055961D02*
X064575Y055961D01*
X064575Y055562D02*
X062868Y055562D01*
X063266Y055164D02*
X064575Y055164D01*
X064575Y054765D02*
X063665Y054765D01*
X064063Y054367D02*
X064515Y054367D01*
X064462Y053968D02*
X064605Y053968D01*
X064860Y053570D02*
X083019Y053570D01*
X083123Y053171D02*
X067424Y053171D01*
X067823Y052773D02*
X083226Y052773D01*
X083310Y052374D02*
X068221Y052374D01*
X068620Y051976D02*
X083388Y051976D01*
X083466Y051577D02*
X069018Y051577D01*
X069417Y051179D02*
X083544Y051179D01*
X083623Y050780D02*
X069815Y050780D01*
X070214Y050382D02*
X083701Y050382D01*
X083761Y049983D02*
X070612Y049983D01*
X071011Y049585D02*
X083815Y049585D01*
X083868Y049186D02*
X071409Y049186D01*
X071808Y048788D02*
X083921Y048788D01*
X083975Y048389D02*
X072206Y048389D01*
X072605Y047991D02*
X084028Y047991D01*
X084068Y047592D02*
X073003Y047592D01*
X073402Y047194D02*
X084097Y047194D01*
X084125Y046795D02*
X073800Y046795D01*
X074199Y046397D02*
X084154Y046397D01*
X084183Y045998D02*
X074597Y045998D01*
X082034Y045201D02*
X082316Y045201D01*
X069135Y055164D02*
X068595Y055164D01*
X068595Y055562D02*
X068736Y055562D01*
X068731Y055961D02*
X068595Y055961D01*
X068595Y056359D02*
X068943Y056359D01*
X067315Y056359D02*
X065855Y056359D01*
X065855Y055961D02*
X067315Y055961D01*
X067315Y055562D02*
X065855Y055562D01*
X065855Y055164D02*
X067315Y055164D01*
X067255Y054765D02*
X065855Y054765D01*
X065915Y054367D02*
X067255Y054367D01*
X067550Y053968D02*
X065825Y053968D01*
X065215Y054348D02*
X065215Y056648D01*
X065811Y057243D01*
X065951Y057383D01*
X066374Y057807D01*
X057646Y063134D02*
X046020Y063134D01*
X053832Y067916D02*
X034061Y067916D01*
X034413Y068314D02*
X053719Y068314D01*
X053824Y068713D02*
X034413Y068713D01*
X026391Y076226D02*
X026391Y076226D01*
X025937Y079089D02*
X025937Y079089D01*
X026480Y079871D02*
X025145Y079871D01*
X023126Y067517D02*
X065123Y067517D01*
X065522Y067916D02*
X057819Y067916D01*
X057951Y068048D02*
X057541Y067638D01*
X056961Y067638D01*
X056845Y067754D01*
X056709Y067618D01*
X056129Y067618D01*
X055719Y068028D01*
X055719Y068608D01*
X056129Y069018D01*
X056709Y069018D01*
X056825Y068902D01*
X056961Y069038D01*
X057541Y069038D01*
X057951Y068628D01*
X057951Y068048D01*
X057951Y068314D02*
X065920Y068314D01*
X066336Y068713D02*
X057866Y068713D01*
X055824Y068713D02*
X055744Y068713D01*
X055719Y068314D02*
X055119Y068314D01*
X055124Y068713D02*
X055015Y068713D01*
X055007Y067916D02*
X055832Y067916D01*
X052933Y072299D02*
X068080Y072299D01*
X068070Y072424D02*
X068120Y071846D01*
X068564Y071474D01*
X069049Y071516D01*
X069066Y071321D01*
X069511Y070948D01*
X070088Y070999D01*
X070461Y071443D01*
X070410Y072021D01*
X069966Y072394D01*
X069481Y072351D01*
X069464Y072546D01*
X069028Y072912D01*
X069209Y073006D01*
X069722Y073618D01*
X069806Y073884D01*
X069782Y074161D01*
X069653Y074408D01*
X069440Y074587D01*
X069174Y074671D01*
X069006Y074656D01*
X068992Y074824D01*
X068863Y075071D01*
X068650Y075250D01*
X068384Y075334D01*
X068107Y075310D01*
X067860Y075181D01*
X067346Y074569D01*
X067263Y074304D01*
X067273Y074186D01*
X066910Y074154D01*
X066537Y073710D01*
X066588Y073132D01*
X067032Y072759D01*
X067610Y072810D01*
X067983Y073254D01*
X067959Y073522D01*
X068062Y073531D01*
X068077Y073363D01*
X068206Y073116D01*
X068419Y072937D01*
X068595Y072882D01*
X068442Y072868D01*
X068070Y072424D01*
X068299Y072698D02*
X053425Y072698D01*
X053911Y073096D02*
X066631Y073096D01*
X066556Y073495D02*
X054354Y073495D01*
X054752Y073893D02*
X066691Y073893D01*
X067264Y074292D02*
X055151Y074292D01*
X055550Y074690D02*
X067448Y074690D01*
X067782Y075089D02*
X055949Y075089D01*
X056347Y075487D02*
X068884Y075487D01*
X068842Y075089D02*
X069373Y075089D01*
X069003Y074690D02*
X069839Y074690D01*
X069714Y074292D02*
X070305Y074292D01*
X070771Y073893D02*
X069805Y073893D01*
X069619Y073495D02*
X071205Y073495D01*
X071617Y073096D02*
X069284Y073096D01*
X069284Y072698D02*
X072029Y072698D01*
X072442Y072299D02*
X070079Y072299D01*
X070421Y071901D02*
X072841Y071901D01*
X073206Y071502D02*
X070456Y071502D01*
X070176Y071104D02*
X073571Y071104D01*
X069326Y071104D02*
X051008Y071104D01*
X051740Y071502D02*
X068530Y071502D01*
X068890Y071502D02*
X069050Y071502D01*
X068115Y071901D02*
X052336Y071901D01*
X056746Y075886D02*
X068356Y075886D01*
X067828Y076284D02*
X061189Y076284D01*
X061277Y076298D02*
X061277Y076298D01*
X061686Y076507D01*
X062011Y076831D01*
X062011Y076831D01*
X062219Y077240D01*
X062219Y077240D01*
X062291Y077694D01*
X062219Y078147D01*
X062011Y078556D01*
X062011Y078556D01*
X061686Y078881D01*
X061277Y079089D01*
X060824Y079161D01*
X060824Y079161D01*
X060370Y079089D01*
X059961Y078881D01*
X059636Y078556D01*
X059428Y078147D01*
X059356Y077694D01*
X059356Y077694D01*
X059428Y077240D01*
X059636Y076831D01*
X059961Y076507D01*
X060370Y076298D01*
X060370Y076298D01*
X060824Y076226D01*
X061277Y076298D01*
X060824Y076226D02*
X060824Y076226D01*
X060459Y076284D02*
X057145Y076284D01*
X057543Y076683D02*
X059785Y076683D01*
X059636Y076831D02*
X059636Y076831D01*
X059509Y077081D02*
X057942Y077081D01*
X058341Y077480D02*
X059390Y077480D01*
X059428Y077240D02*
X059428Y077240D01*
X059385Y077878D02*
X058740Y077878D01*
X059138Y078277D02*
X059494Y078277D01*
X059428Y078147D02*
X059428Y078147D01*
X059636Y078556D02*
X059636Y078556D01*
X059537Y078675D02*
X059755Y078675D01*
X059961Y078881D02*
X059961Y078881D01*
X059936Y079074D02*
X060339Y079074D01*
X060370Y079089D02*
X060370Y079089D01*
X060334Y079472D02*
X062836Y079472D01*
X063531Y079074D02*
X061308Y079074D01*
X061277Y079089D02*
X061277Y079089D01*
X061686Y078881D02*
X061686Y078881D01*
X061892Y078675D02*
X064219Y078675D01*
X064907Y078277D02*
X062153Y078277D01*
X062219Y078147D02*
X062219Y078147D01*
X062262Y077878D02*
X065525Y077878D01*
X066126Y077480D02*
X062257Y077480D01*
X062138Y077081D02*
X066726Y077081D01*
X067106Y076829D02*
X067106Y076829D01*
X067300Y076683D02*
X061862Y076683D01*
X061686Y076507D02*
X061686Y076507D01*
X059961Y076507D02*
X059961Y076507D01*
X060733Y079871D02*
X062069Y079871D01*
X067962Y073495D02*
X068066Y073495D01*
X068230Y073096D02*
X067850Y073096D01*
X076620Y061540D02*
X078123Y061540D01*
X077438Y061141D02*
X077018Y061141D01*
X078214Y059946D02*
X078380Y059946D01*
X078612Y059547D02*
X078663Y059547D01*
X052761Y047249D02*
X052761Y041442D01*
X052269Y041245D02*
X052269Y044001D01*
X052170Y044099D01*
X051103Y041722D02*
X051580Y041244D01*
D25*
X051776Y041048D01*
X051776Y038981D01*
X049217Y036422D01*
X044394Y036422D01*
X044394Y036402D01*
X043607Y035615D02*
X043607Y035536D01*
X044788Y034355D01*
X054434Y034355D01*
X056402Y032387D01*
X056402Y024316D01*
X060930Y019788D01*
X060790Y019769D01*
X060790Y021769D02*
X060782Y021806D01*
X056894Y025694D01*
X056894Y032583D01*
X052269Y037209D01*
X052269Y041245D01*
X052761Y041442D02*
X052761Y037406D01*
X057387Y032780D01*
X057387Y026186D01*
X060782Y022790D01*
X060790Y022769D01*
X061717Y022741D02*
X060733Y023725D01*
X060790Y023769D01*
X061717Y022741D02*
X061717Y014473D01*
X061127Y013883D01*
X054434Y013883D01*
X039867Y028450D01*
X039867Y029040D01*
X039276Y028843D02*
X037898Y030221D01*
X037513Y030351D01*
X038911Y031374D02*
X037898Y032387D01*
X037898Y035536D01*
X035143Y038292D01*
X033568Y036717D01*
X033568Y030024D01*
X033765Y029828D01*
X033765Y026678D01*
X047741Y012702D01*
X061717Y012702D01*
X062898Y013883D01*
X062898Y038883D01*
X037308Y064473D01*
X026678Y064473D01*
X024316Y062111D01*
X024316Y057583D01*
X028843Y053056D01*
X043017Y053056D01*
X044394Y051678D01*
X044394Y051599D01*
X043607Y051629D02*
X043607Y051599D01*
X043607Y051629D02*
X043066Y052170D01*
X038784Y052170D01*
X038391Y052564D01*
X037702Y052564D02*
X038637Y051629D01*
X042820Y051629D01*
X042820Y051599D01*
X042820Y050812D02*
X042820Y050694D01*
X042426Y050300D01*
X042032Y050300D01*
X041442Y050891D01*
X035930Y050891D01*
X019788Y034749D01*
X019788Y024119D01*
X021363Y022544D01*
X021559Y022729D01*
X019788Y022150D02*
X021363Y020576D01*
X025891Y020576D01*
X021166Y019985D02*
X035733Y019985D01*
X049513Y006206D01*
X049666Y006401D01*
X049709Y006206D01*
X050497Y006206D01*
X050501Y006286D01*
X049787Y004357D02*
X034749Y019394D01*
X020969Y019394D01*
X011520Y028843D01*
X011520Y061717D01*
X019985Y054434D02*
X019985Y052269D01*
X012111Y044394D01*
X012111Y029040D01*
X021166Y019985D01*
X019198Y023922D02*
X019198Y025003D01*
X019198Y045969D01*
X022376Y054465D02*
X022544Y054434D01*
X022347Y060339D02*
X022376Y060465D01*
X022376Y062465D02*
X022347Y062505D01*
X022544Y064276D02*
X022376Y064465D01*
X022544Y064276D02*
X025694Y064276D01*
X026481Y065064D01*
X038095Y065064D01*
X077269Y025891D01*
X077184Y025763D01*
X077269Y025891D02*
X077662Y026284D01*
X077465Y026481D01*
X077513Y026627D01*
X067229Y013883D02*
X066749Y013402D01*
X066639Y013292D01*
X066633Y013146D01*
X067256Y013715D02*
X067229Y013883D01*
X062308Y014080D02*
X061520Y013292D01*
X054040Y013292D01*
X039276Y028056D01*
X039276Y028843D01*
X039276Y031009D02*
X038911Y031374D01*
X035192Y028154D02*
X035162Y028123D01*
X034271Y030225D02*
X034207Y030320D01*
X050251Y042574D02*
X050251Y043853D01*
X050792Y044394D01*
X050812Y044394D01*
X050251Y042574D02*
X051103Y041722D01*
X050152Y049857D02*
X049848Y050161D01*
X046461Y053548D01*
X039375Y053548D01*
X039178Y054040D02*
X046265Y054040D01*
X042032Y062111D02*
X053843Y062111D01*
X057583Y058371D01*
X059158Y058371D01*
X064670Y052859D01*
X066835Y052859D01*
X078253Y041442D01*
X081402Y041442D01*
X081599Y041639D01*
X081621Y041760D01*
X081796Y041835D01*
X081796Y042623D01*
X081622Y042623D01*
X062308Y038686D02*
X062308Y029237D01*
X061816Y028745D01*
X060930Y029631D01*
X060790Y029769D01*
X061816Y028745D02*
X062308Y028253D01*
X062308Y014080D01*
X049906Y004237D02*
X049787Y004357D01*
X062308Y038686D02*
X038292Y062702D01*
X026875Y062702D01*
X026087Y061914D01*
X025997Y061749D01*
X022376Y065465D02*
X022544Y065654D01*
X038489Y065654D01*
X042032Y062111D01*
X022544Y066639D02*
X022376Y066465D01*
X022544Y066639D02*
X065150Y066639D01*
X065261Y066639D01*
D26*
X023491Y056718D03*
X021642Y049995D03*
X013629Y053020D03*
X017944Y065403D03*
D27*
X044917Y052968D03*
X051096Y041689D03*
X054931Y038178D03*
X057177Y041641D03*
D28*
X037513Y030351D02*
X035397Y030351D01*
X035271Y030225D01*
X036104Y031058D01*
X036104Y035413D01*
D29*
X052170Y044099D03*
X046265Y054040D03*
X039375Y053548D03*
X039178Y054040D03*
X038391Y052564D03*
X037702Y052564D03*
M02*
