G75*
%MOIN*%
%OFA0B0*%
%FSLAX24Y24*%
%IPPOS*%
%LPD*%
%AMOC8*
5,1,8,0,0,1.08239X$1,22.5*
%
%ADD10C,0.0160*%
%ADD11R,0.6240X0.0020*%
%ADD12R,0.6420X0.0020*%
%ADD13R,0.6480X0.0020*%
%ADD14R,0.6560X0.0020*%
%ADD15R,0.6640X0.0020*%
%ADD16R,0.6900X0.0020*%
%ADD17R,0.6980X0.0020*%
%ADD18R,0.7000X0.0020*%
%ADD19R,0.7020X0.0020*%
%ADD20R,0.7100X0.0020*%
%ADD21R,0.7280X0.0020*%
%ADD22R,0.7360X0.0020*%
%ADD23R,0.7380X0.0020*%
%ADD24R,0.7420X0.0020*%
%ADD25R,0.7460X0.0020*%
%ADD26R,0.7560X0.0020*%
%ADD27R,0.7680X0.0020*%
%ADD28R,0.7720X0.0020*%
%ADD29R,0.7760X0.0020*%
%ADD30R,0.7840X0.0020*%
%ADD31R,0.7920X0.0020*%
%ADD32R,0.7960X0.0020*%
%ADD33R,0.8000X0.0020*%
%ADD34R,0.8020X0.0020*%
%ADD35R,0.8060X0.0020*%
%ADD36R,0.8120X0.0020*%
%ADD37R,0.8160X0.0020*%
%ADD38R,0.8200X0.0020*%
%ADD39R,0.8220X0.0020*%
%ADD40R,0.8260X0.0020*%
%ADD41R,0.8320X0.0020*%
%ADD42R,0.8360X0.0020*%
%ADD43R,0.8400X0.0020*%
%ADD44R,0.8440X0.0020*%
%ADD45R,0.8480X0.0020*%
%ADD46R,0.8520X0.0020*%
%ADD47R,0.8560X0.0020*%
%ADD48R,0.8600X0.0020*%
%ADD49R,0.8620X0.0020*%
%ADD50R,0.8660X0.0020*%
%ADD51R,0.3600X0.0020*%
%ADD52R,0.3620X0.0020*%
%ADD53R,0.3660X0.0020*%
%ADD54R,0.3680X0.0020*%
%ADD55R,0.3640X0.0020*%
%ADD56R,0.3700X0.0020*%
%ADD57R,0.3720X0.0020*%
%ADD58R,0.3740X0.0020*%
%ADD59R,0.3760X0.0020*%
%ADD60R,0.3780X0.0020*%
%ADD61R,0.3840X0.0020*%
%ADD62R,0.3980X0.0020*%
%ADD63R,0.4020X0.0020*%
%ADD64R,0.4060X0.0020*%
%ADD65R,0.3800X0.0020*%
%ADD66R,0.4140X0.0020*%
%ADD67R,0.3820X0.0020*%
%ADD68R,0.4540X0.0020*%
%ADD69R,0.3860X0.0020*%
%ADD70R,0.4620X0.0020*%
%ADD71R,0.4660X0.0020*%
%ADD72R,0.4680X0.0020*%
%ADD73R,0.4740X0.0020*%
%ADD74R,0.5140X0.0020*%
%ADD75R,0.5240X0.0020*%
%ADD76R,0.5280X0.0020*%
%ADD77R,0.5340X0.0020*%
%ADD78R,0.5420X0.0020*%
%ADD79R,0.3880X0.0020*%
%ADD80R,0.9520X0.0020*%
%ADD81R,0.9560X0.0020*%
%ADD82R,0.9580X0.0020*%
%ADD83R,0.1840X0.0020*%
%ADD84R,0.0160X0.0020*%
%ADD85R,0.5060X0.0020*%
%ADD86R,0.0280X0.0020*%
%ADD87R,0.1800X0.0020*%
%ADD88R,0.1780X0.0020*%
%ADD89R,0.4860X0.0020*%
%ADD90R,0.1680X0.0020*%
%ADD91R,0.1540X0.0020*%
%ADD92R,0.1520X0.0020*%
%ADD93R,0.1460X0.0020*%
%ADD94R,0.4400X0.0020*%
%ADD95R,0.1420X0.0020*%
%ADD96R,0.4380X0.0020*%
%ADD97R,0.4320X0.0020*%
%ADD98R,0.1380X0.0020*%
%ADD99R,0.4160X0.0020*%
%ADD100R,0.1360X0.0020*%
%ADD101R,0.1280X0.0020*%
%ADD102R,0.1260X0.0020*%
%ADD103R,0.1240X0.0020*%
%ADD104R,0.3900X0.0020*%
%ADD105R,0.1220X0.0020*%
%ADD106R,0.1180X0.0020*%
%ADD107R,0.1160X0.0020*%
%ADD108R,0.1100X0.0020*%
%ADD109R,0.1120X0.0020*%
%ADD110R,0.3580X0.0020*%
%ADD111R,0.1080X0.0020*%
%ADD112R,0.3540X0.0020*%
%ADD113R,0.3500X0.0020*%
%ADD114R,0.1060X0.0020*%
%ADD115R,0.3440X0.0020*%
%ADD116R,0.1040X0.0020*%
%ADD117R,0.3360X0.0020*%
%ADD118R,0.1020X0.0020*%
%ADD119R,0.3280X0.0020*%
%ADD120R,0.1000X0.0020*%
%ADD121R,0.3260X0.0020*%
%ADD122R,0.0980X0.0020*%
%ADD123R,0.3220X0.0020*%
%ADD124R,0.0960X0.0020*%
%ADD125R,0.3180X0.0020*%
%ADD126R,0.0940X0.0020*%
%ADD127R,0.3120X0.0020*%
%ADD128R,0.0920X0.0020*%
%ADD129R,0.3080X0.0020*%
%ADD130R,0.0900X0.0020*%
%ADD131R,0.3060X0.0020*%
%ADD132R,0.0880X0.0020*%
%ADD133R,0.3020X0.0020*%
%ADD134R,0.2980X0.0020*%
%ADD135R,0.2920X0.0020*%
%ADD136R,0.1880X0.0020*%
%ADD137R,0.2880X0.0020*%
%ADD138R,0.1820X0.0020*%
%ADD139R,0.1860X0.0020*%
%ADD140R,0.2860X0.0020*%
%ADD141R,0.2820X0.0020*%
%ADD142R,0.2780X0.0020*%
%ADD143R,0.2740X0.0020*%
%ADD144R,0.2700X0.0020*%
%ADD145R,0.2660X0.0020*%
%ADD146R,0.2640X0.0020*%
%ADD147R,0.2600X0.0020*%
%ADD148R,0.1740X0.0020*%
%ADD149R,0.2580X0.0020*%
%ADD150R,0.1760X0.0020*%
%ADD151R,0.1720X0.0020*%
%ADD152R,0.2520X0.0020*%
%ADD153R,0.2480X0.0020*%
%ADD154R,0.1700X0.0020*%
%ADD155R,0.2460X0.0020*%
%ADD156R,0.2420X0.0020*%
%ADD157R,0.2400X0.0020*%
%ADD158R,0.1660X0.0020*%
%ADD159R,0.2380X0.0020*%
%ADD160R,0.1640X0.0020*%
%ADD161R,0.2320X0.0020*%
%ADD162R,0.2300X0.0020*%
%ADD163R,0.1620X0.0020*%
%ADD164R,0.2280X0.0020*%
%ADD165R,0.1600X0.0020*%
%ADD166R,0.2260X0.0020*%
%ADD167R,0.2240X0.0020*%
%ADD168R,0.2220X0.0020*%
%ADD169R,0.1980X0.0020*%
%ADD170R,0.2200X0.0020*%
%ADD171R,0.2060X0.0020*%
%ADD172R,0.2180X0.0020*%
%ADD173R,0.0040X0.0020*%
%ADD174R,0.2080X0.0020*%
%ADD175R,0.2160X0.0020*%
%ADD176R,0.2100X0.0020*%
%ADD177R,0.2120X0.0020*%
%ADD178R,0.2140X0.0020*%
%ADD179R,0.2040X0.0020*%
%ADD180R,0.2020X0.0020*%
%ADD181R,0.1960X0.0020*%
%ADD182R,0.1940X0.0020*%
%ADD183R,0.0340X0.0020*%
%ADD184R,0.0320X0.0020*%
%ADD185R,0.0460X0.0020*%
%ADD186R,0.0440X0.0020*%
%ADD187R,0.0540X0.0020*%
%ADD188R,0.1920X0.0020*%
%ADD189R,0.0500X0.0020*%
%ADD190R,0.0580X0.0020*%
%ADD191R,0.0520X0.0020*%
%ADD192R,0.0600X0.0020*%
%ADD193R,0.1900X0.0020*%
%ADD194R,0.0640X0.0020*%
%ADD195R,0.0680X0.0020*%
%ADD196R,0.0660X0.0020*%
%ADD197R,0.0700X0.0020*%
%ADD198R,0.0740X0.0020*%
%ADD199R,0.0720X0.0020*%
%ADD200R,0.0760X0.0020*%
%ADD201R,0.0800X0.0020*%
%ADD202R,0.0780X0.0020*%
%ADD203R,0.0840X0.0020*%
%ADD204R,0.0860X0.0020*%
%ADD205R,0.0820X0.0020*%
%ADD206R,0.0620X0.0020*%
%ADD207R,0.0480X0.0020*%
%ADD208R,0.0420X0.0020*%
%ADD209R,0.0400X0.0020*%
%ADD210R,0.0360X0.0020*%
%ADD211R,0.0220X0.0020*%
%ADD212R,0.0300X0.0020*%
%ADD213R,0.0120X0.0020*%
%ADD214R,0.2000X0.0020*%
%ADD215R,0.1580X0.0020*%
%ADD216R,0.2340X0.0020*%
%ADD217R,0.2440X0.0020*%
%ADD218R,0.2560X0.0020*%
%ADD219R,0.2620X0.0020*%
%ADD220R,0.2720X0.0020*%
%ADD221R,0.2760X0.0020*%
%ADD222R,0.2800X0.0020*%
%ADD223R,0.0080X0.0020*%
%ADD224R,0.2960X0.0020*%
%ADD225R,0.3000X0.0020*%
%ADD226R,0.3160X0.0020*%
%ADD227R,0.3200X0.0020*%
%ADD228R,0.3240X0.0020*%
%ADD229R,0.1140X0.0020*%
%ADD230R,0.3420X0.0020*%
%ADD231R,0.3460X0.0020*%
%ADD232R,0.3480X0.0020*%
%ADD233R,0.1300X0.0020*%
%ADD234R,0.1320X0.0020*%
%ADD235R,0.3920X0.0020*%
%ADD236R,0.4120X0.0020*%
%ADD237R,0.1480X0.0020*%
%ADD238R,0.4260X0.0020*%
%ADD239R,0.1560X0.0020*%
%ADD240R,0.4340X0.0020*%
%ADD241R,0.4460X0.0020*%
%ADD242R,0.4780X0.0020*%
%ADD243R,0.4920X0.0020*%
%ADD244R,0.5200X0.0020*%
%ADD245R,0.7580X0.0020*%
%ADD246R,0.7620X0.0020*%
%ADD247R,0.9860X0.0020*%
%ADD248R,0.9880X0.0020*%
%ADD249R,0.9840X0.0020*%
%ADD250R,0.9820X0.0020*%
%ADD251R,0.9800X0.0020*%
%ADD252R,0.9780X0.0020*%
%ADD253R,0.9740X0.0020*%
%ADD254R,0.9720X0.0020*%
%ADD255R,0.9700X0.0020*%
%ADD256R,0.9680X0.0020*%
%ADD257R,0.9660X0.0020*%
%ADD258R,0.9620X0.0020*%
%ADD259R,0.9600X0.0020*%
%ADD260R,0.9540X0.0020*%
%ADD261R,0.9480X0.0020*%
%ADD262R,0.9460X0.0020*%
%ADD263R,0.9440X0.0020*%
%ADD264R,0.9400X0.0020*%
%ADD265R,0.9380X0.0020*%
%ADD266R,0.9360X0.0020*%
%ADD267R,0.9320X0.0020*%
%ADD268R,0.9260X0.0020*%
%ADD269R,0.9220X0.0020*%
%ADD270R,0.9200X0.0020*%
%ADD271R,0.9180X0.0020*%
%ADD272R,0.9140X0.0020*%
%ADD273R,0.9080X0.0020*%
%ADD274R,0.9040X0.0020*%
%ADD275R,0.9020X0.0020*%
%ADD276R,0.9000X0.0020*%
%ADD277R,0.8980X0.0020*%
%ADD278R,0.8940X0.0020*%
%ADD279R,0.8920X0.0020*%
%ADD280R,0.8900X0.0020*%
%ADD281R,0.8880X0.0020*%
%ADD282R,0.8840X0.0020*%
%ADD283R,0.8820X0.0020*%
%ADD284R,0.8780X0.0020*%
%ADD285R,0.8740X0.0020*%
%ADD286R,0.8680X0.0020*%
%ADD287R,0.8640X0.0020*%
%ADD288R,0.8460X0.0020*%
%ADD289R,0.8420X0.0020*%
%ADD290R,0.8040X0.0020*%
%ADD291R,0.7980X0.0020*%
%ADD292R,0.7860X0.0020*%
%ADD293R,0.7660X0.0020*%
%ADD294R,0.7440X0.0020*%
%ADD295R,0.7340X0.0020*%
%ADD296R,0.7320X0.0020*%
%ADD297R,0.7200X0.0020*%
%ADD298R,0.7060X0.0020*%
%ADD299R,0.6960X0.0020*%
%ADD300R,0.6940X0.0020*%
%ADD301R,0.6880X0.0020*%
%ADD302R,0.6760X0.0020*%
%ADD303R,0.6400X0.0020*%
%ADD304R,0.6360X0.0020*%
%ADD305R,0.6280X0.0020*%
%ADD306R,0.6160X0.0020*%
%ADD307R,0.0560X0.0020*%
%ADD308R,0.0020X0.0020*%
%ADD309R,0.0380X0.0020*%
%ADD310R,0.0260X0.0020*%
%ADD311R,0.0240X0.0020*%
%ADD312R,0.0200X0.0020*%
%ADD313R,0.0180X0.0020*%
%ADD314R,0.0140X0.0020*%
%ADD315C,0.0000*%
%ADD316C,0.0080*%
%ADD317C,0.0060*%
%ADD318C,0.0120*%
%ADD319C,0.0050*%
%ADD320C,0.0010*%
%ADD321C,0.0040*%
D10*
X026639Y032780D02*
X026641Y032830D01*
X026647Y032880D01*
X026657Y032929D01*
X026671Y032977D01*
X026688Y033024D01*
X026709Y033069D01*
X026734Y033113D01*
X026762Y033154D01*
X026794Y033193D01*
X026828Y033230D01*
X026865Y033264D01*
X026905Y033294D01*
X026947Y033321D01*
X026991Y033345D01*
X027037Y033366D01*
X027084Y033382D01*
X027132Y033395D01*
X027182Y033404D01*
X027231Y033409D01*
X027282Y033410D01*
X027332Y033407D01*
X027381Y033400D01*
X027430Y033389D01*
X027478Y033374D01*
X027524Y033356D01*
X027569Y033334D01*
X027612Y033308D01*
X027653Y033279D01*
X027692Y033247D01*
X027728Y033212D01*
X027760Y033174D01*
X027790Y033134D01*
X027817Y033091D01*
X027840Y033047D01*
X027859Y033001D01*
X027875Y032953D01*
X027887Y032904D01*
X027895Y032855D01*
X027899Y032805D01*
X027899Y032755D01*
X027895Y032705D01*
X027887Y032656D01*
X027875Y032607D01*
X027859Y032559D01*
X027840Y032513D01*
X027817Y032469D01*
X027790Y032426D01*
X027760Y032386D01*
X027728Y032348D01*
X027692Y032313D01*
X027653Y032281D01*
X027612Y032252D01*
X027569Y032226D01*
X027524Y032204D01*
X027478Y032186D01*
X027430Y032171D01*
X027381Y032160D01*
X027332Y032153D01*
X027282Y032150D01*
X027231Y032151D01*
X027182Y032156D01*
X027132Y032165D01*
X027084Y032178D01*
X027037Y032194D01*
X026991Y032215D01*
X026947Y032239D01*
X026905Y032266D01*
X026865Y032296D01*
X026828Y032330D01*
X026794Y032367D01*
X026762Y032406D01*
X026734Y032447D01*
X026709Y032491D01*
X026688Y032536D01*
X026671Y032583D01*
X026657Y032631D01*
X026647Y032680D01*
X026641Y032730D01*
X026639Y032780D01*
X021261Y040446D02*
X021263Y040496D01*
X021269Y040546D01*
X021279Y040595D01*
X021293Y040643D01*
X021310Y040690D01*
X021331Y040735D01*
X021356Y040779D01*
X021384Y040820D01*
X021416Y040859D01*
X021450Y040896D01*
X021487Y040930D01*
X021527Y040960D01*
X021569Y040987D01*
X021613Y041011D01*
X021659Y041032D01*
X021706Y041048D01*
X021754Y041061D01*
X021804Y041070D01*
X021853Y041075D01*
X021904Y041076D01*
X021954Y041073D01*
X022003Y041066D01*
X022052Y041055D01*
X022100Y041040D01*
X022146Y041022D01*
X022191Y041000D01*
X022234Y040974D01*
X022275Y040945D01*
X022314Y040913D01*
X022350Y040878D01*
X022382Y040840D01*
X022412Y040800D01*
X022439Y040757D01*
X022462Y040713D01*
X022481Y040667D01*
X022497Y040619D01*
X022509Y040570D01*
X022517Y040521D01*
X022521Y040471D01*
X022521Y040421D01*
X022517Y040371D01*
X022509Y040322D01*
X022497Y040273D01*
X022481Y040225D01*
X022462Y040179D01*
X022439Y040135D01*
X022412Y040092D01*
X022382Y040052D01*
X022350Y040014D01*
X022314Y039979D01*
X022275Y039947D01*
X022234Y039918D01*
X022191Y039892D01*
X022146Y039870D01*
X022100Y039852D01*
X022052Y039837D01*
X022003Y039826D01*
X021954Y039819D01*
X021904Y039816D01*
X021853Y039817D01*
X021804Y039822D01*
X021754Y039831D01*
X021706Y039844D01*
X021659Y039860D01*
X021613Y039881D01*
X021569Y039905D01*
X021527Y039932D01*
X021487Y039962D01*
X021450Y039996D01*
X021416Y040033D01*
X021384Y040072D01*
X021356Y040113D01*
X021331Y040157D01*
X021310Y040202D01*
X021293Y040249D01*
X021279Y040297D01*
X021269Y040346D01*
X021263Y040396D01*
X021261Y040446D01*
X021261Y046643D02*
X021263Y046693D01*
X021269Y046743D01*
X021279Y046792D01*
X021293Y046840D01*
X021310Y046887D01*
X021331Y046932D01*
X021356Y046976D01*
X021384Y047017D01*
X021416Y047056D01*
X021450Y047093D01*
X021487Y047127D01*
X021527Y047157D01*
X021569Y047184D01*
X021613Y047208D01*
X021659Y047229D01*
X021706Y047245D01*
X021754Y047258D01*
X021804Y047267D01*
X021853Y047272D01*
X021904Y047273D01*
X021954Y047270D01*
X022003Y047263D01*
X022052Y047252D01*
X022100Y047237D01*
X022146Y047219D01*
X022191Y047197D01*
X022234Y047171D01*
X022275Y047142D01*
X022314Y047110D01*
X022350Y047075D01*
X022382Y047037D01*
X022412Y046997D01*
X022439Y046954D01*
X022462Y046910D01*
X022481Y046864D01*
X022497Y046816D01*
X022509Y046767D01*
X022517Y046718D01*
X022521Y046668D01*
X022521Y046618D01*
X022517Y046568D01*
X022509Y046519D01*
X022497Y046470D01*
X022481Y046422D01*
X022462Y046376D01*
X022439Y046332D01*
X022412Y046289D01*
X022382Y046249D01*
X022350Y046211D01*
X022314Y046176D01*
X022275Y046144D01*
X022234Y046115D01*
X022191Y046089D01*
X022146Y046067D01*
X022100Y046049D01*
X022052Y046034D01*
X022003Y046023D01*
X021954Y046016D01*
X021904Y046013D01*
X021853Y046014D01*
X021804Y046019D01*
X021754Y046028D01*
X021706Y046041D01*
X021659Y046057D01*
X021613Y046078D01*
X021569Y046102D01*
X021527Y046129D01*
X021487Y046159D01*
X021450Y046193D01*
X021416Y046230D01*
X021384Y046269D01*
X021356Y046310D01*
X021331Y046354D01*
X021310Y046399D01*
X021293Y046446D01*
X021279Y046494D01*
X021269Y046543D01*
X021263Y046593D01*
X021261Y046643D01*
X026639Y054434D02*
X026641Y054484D01*
X026647Y054534D01*
X026657Y054583D01*
X026671Y054631D01*
X026688Y054678D01*
X026709Y054723D01*
X026734Y054767D01*
X026762Y054808D01*
X026794Y054847D01*
X026828Y054884D01*
X026865Y054918D01*
X026905Y054948D01*
X026947Y054975D01*
X026991Y054999D01*
X027037Y055020D01*
X027084Y055036D01*
X027132Y055049D01*
X027182Y055058D01*
X027231Y055063D01*
X027282Y055064D01*
X027332Y055061D01*
X027381Y055054D01*
X027430Y055043D01*
X027478Y055028D01*
X027524Y055010D01*
X027569Y054988D01*
X027612Y054962D01*
X027653Y054933D01*
X027692Y054901D01*
X027728Y054866D01*
X027760Y054828D01*
X027790Y054788D01*
X027817Y054745D01*
X027840Y054701D01*
X027859Y054655D01*
X027875Y054607D01*
X027887Y054558D01*
X027895Y054509D01*
X027899Y054459D01*
X027899Y054409D01*
X027895Y054359D01*
X027887Y054310D01*
X027875Y054261D01*
X027859Y054213D01*
X027840Y054167D01*
X027817Y054123D01*
X027790Y054080D01*
X027760Y054040D01*
X027728Y054002D01*
X027692Y053967D01*
X027653Y053935D01*
X027612Y053906D01*
X027569Y053880D01*
X027524Y053858D01*
X027478Y053840D01*
X027430Y053825D01*
X027381Y053814D01*
X027332Y053807D01*
X027282Y053804D01*
X027231Y053805D01*
X027182Y053810D01*
X027132Y053819D01*
X027084Y053832D01*
X027037Y053848D01*
X026991Y053869D01*
X026947Y053893D01*
X026905Y053920D01*
X026865Y053950D01*
X026828Y053984D01*
X026794Y054021D01*
X026762Y054060D01*
X026734Y054101D01*
X026709Y054145D01*
X026688Y054190D01*
X026671Y054237D01*
X026657Y054285D01*
X026647Y054334D01*
X026641Y054384D01*
X026639Y054434D01*
X025029Y055822D02*
X024415Y055822D01*
X024722Y055822D02*
X024722Y057664D01*
X025029Y057664D02*
X024415Y057664D01*
X023802Y057050D02*
X022881Y057050D01*
X022574Y056743D01*
X022574Y055822D01*
X021653Y056129D02*
X021346Y055822D01*
X021653Y056129D02*
X021653Y057357D01*
X021960Y057050D02*
X021346Y057050D01*
X020732Y056743D02*
X020732Y056129D01*
X020425Y055822D01*
X019812Y055822D01*
X019505Y056436D02*
X020732Y056436D01*
X020732Y056743D02*
X020425Y057050D01*
X019812Y057050D01*
X019505Y056743D01*
X019505Y056436D01*
X018891Y055822D02*
X018277Y055822D01*
X018584Y055822D02*
X018584Y057664D01*
X018891Y057664D01*
X017663Y057050D02*
X017356Y057050D01*
X017356Y055822D01*
X017663Y055822D02*
X017049Y055822D01*
X016435Y055822D02*
X016435Y057664D01*
X015515Y057664D01*
X015208Y057357D01*
X015208Y056743D01*
X015515Y056436D01*
X016435Y056436D01*
X015821Y056436D02*
X015208Y055822D01*
X014594Y056129D02*
X014287Y055822D01*
X013673Y055822D01*
X013366Y056129D01*
X013366Y056743D01*
X013673Y057050D01*
X014287Y057050D01*
X014594Y056743D01*
X014594Y056129D01*
X012752Y055822D02*
X012752Y057664D01*
X012752Y057050D02*
X011831Y057050D01*
X011524Y056743D01*
X011524Y056129D01*
X011831Y055822D01*
X012752Y055822D01*
X010911Y056129D02*
X010911Y056743D01*
X010604Y057050D01*
X009990Y057050D01*
X009683Y056743D01*
X009683Y056129D01*
X009990Y055822D01*
X010604Y055822D01*
X010911Y056129D01*
X009069Y057050D02*
X008455Y057050D01*
X008762Y057357D02*
X008762Y056129D01*
X008455Y055822D01*
X016048Y059355D02*
X023922Y059355D01*
X023922Y067229D01*
X016048Y067229D01*
X016048Y059355D01*
X017356Y057971D02*
X017356Y057664D01*
X023802Y057050D02*
X023802Y055822D01*
X037953Y067296D02*
X037955Y067346D01*
X037961Y067396D01*
X037971Y067445D01*
X037985Y067493D01*
X038002Y067540D01*
X038023Y067585D01*
X038048Y067629D01*
X038076Y067670D01*
X038108Y067709D01*
X038142Y067746D01*
X038179Y067780D01*
X038219Y067810D01*
X038261Y067837D01*
X038305Y067861D01*
X038351Y067882D01*
X038398Y067898D01*
X038446Y067911D01*
X038496Y067920D01*
X038545Y067925D01*
X038596Y067926D01*
X038646Y067923D01*
X038695Y067916D01*
X038744Y067905D01*
X038792Y067890D01*
X038838Y067872D01*
X038883Y067850D01*
X038926Y067824D01*
X038967Y067795D01*
X039006Y067763D01*
X039042Y067728D01*
X039074Y067690D01*
X039104Y067650D01*
X039131Y067607D01*
X039154Y067563D01*
X039173Y067517D01*
X039189Y067469D01*
X039201Y067420D01*
X039209Y067371D01*
X039213Y067321D01*
X039213Y067271D01*
X039209Y067221D01*
X039201Y067172D01*
X039189Y067123D01*
X039173Y067075D01*
X039154Y067029D01*
X039131Y066985D01*
X039104Y066942D01*
X039074Y066902D01*
X039042Y066864D01*
X039006Y066829D01*
X038967Y066797D01*
X038926Y066768D01*
X038883Y066742D01*
X038838Y066720D01*
X038792Y066702D01*
X038744Y066687D01*
X038695Y066676D01*
X038646Y066669D01*
X038596Y066666D01*
X038545Y066667D01*
X038496Y066672D01*
X038446Y066681D01*
X038398Y066694D01*
X038351Y066710D01*
X038305Y066731D01*
X038261Y066755D01*
X038219Y066782D01*
X038179Y066812D01*
X038142Y066846D01*
X038108Y066883D01*
X038076Y066922D01*
X038048Y066963D01*
X038023Y067007D01*
X038002Y067052D01*
X037985Y067099D01*
X037971Y067147D01*
X037961Y067196D01*
X037955Y067246D01*
X037953Y067296D01*
X037741Y071335D02*
X037743Y071385D01*
X037749Y071435D01*
X037759Y071484D01*
X037773Y071532D01*
X037790Y071579D01*
X037811Y071624D01*
X037836Y071668D01*
X037864Y071709D01*
X037896Y071748D01*
X037930Y071785D01*
X037967Y071819D01*
X038007Y071849D01*
X038049Y071876D01*
X038093Y071900D01*
X038139Y071921D01*
X038186Y071937D01*
X038234Y071950D01*
X038284Y071959D01*
X038333Y071964D01*
X038384Y071965D01*
X038434Y071962D01*
X038483Y071955D01*
X038532Y071944D01*
X038580Y071929D01*
X038626Y071911D01*
X038671Y071889D01*
X038714Y071863D01*
X038755Y071834D01*
X038794Y071802D01*
X038830Y071767D01*
X038862Y071729D01*
X038892Y071689D01*
X038919Y071646D01*
X038942Y071602D01*
X038961Y071556D01*
X038977Y071508D01*
X038989Y071459D01*
X038997Y071410D01*
X039001Y071360D01*
X039001Y071310D01*
X038997Y071260D01*
X038989Y071211D01*
X038977Y071162D01*
X038961Y071114D01*
X038942Y071068D01*
X038919Y071024D01*
X038892Y070981D01*
X038862Y070941D01*
X038830Y070903D01*
X038794Y070868D01*
X038755Y070836D01*
X038714Y070807D01*
X038671Y070781D01*
X038626Y070759D01*
X038580Y070741D01*
X038532Y070726D01*
X038483Y070715D01*
X038434Y070708D01*
X038384Y070705D01*
X038333Y070706D01*
X038284Y070711D01*
X038234Y070720D01*
X038186Y070733D01*
X038139Y070749D01*
X038093Y070770D01*
X038049Y070794D01*
X038007Y070821D01*
X037967Y070851D01*
X037930Y070885D01*
X037896Y070922D01*
X037864Y070961D01*
X037836Y071002D01*
X037811Y071046D01*
X037790Y071091D01*
X037773Y071138D01*
X037759Y071186D01*
X037749Y071235D01*
X037743Y071285D01*
X037741Y071335D01*
X046300Y067296D02*
X046302Y067346D01*
X046308Y067396D01*
X046318Y067445D01*
X046332Y067493D01*
X046349Y067540D01*
X046370Y067585D01*
X046395Y067629D01*
X046423Y067670D01*
X046455Y067709D01*
X046489Y067746D01*
X046526Y067780D01*
X046566Y067810D01*
X046608Y067837D01*
X046652Y067861D01*
X046698Y067882D01*
X046745Y067898D01*
X046793Y067911D01*
X046843Y067920D01*
X046892Y067925D01*
X046943Y067926D01*
X046993Y067923D01*
X047042Y067916D01*
X047091Y067905D01*
X047139Y067890D01*
X047185Y067872D01*
X047230Y067850D01*
X047273Y067824D01*
X047314Y067795D01*
X047353Y067763D01*
X047389Y067728D01*
X047421Y067690D01*
X047451Y067650D01*
X047478Y067607D01*
X047501Y067563D01*
X047520Y067517D01*
X047536Y067469D01*
X047548Y067420D01*
X047556Y067371D01*
X047560Y067321D01*
X047560Y067271D01*
X047556Y067221D01*
X047548Y067172D01*
X047536Y067123D01*
X047520Y067075D01*
X047501Y067029D01*
X047478Y066985D01*
X047451Y066942D01*
X047421Y066902D01*
X047389Y066864D01*
X047353Y066829D01*
X047314Y066797D01*
X047273Y066768D01*
X047230Y066742D01*
X047185Y066720D01*
X047139Y066702D01*
X047091Y066687D01*
X047042Y066676D01*
X046993Y066669D01*
X046943Y066666D01*
X046892Y066667D01*
X046843Y066672D01*
X046793Y066681D01*
X046745Y066694D01*
X046698Y066710D01*
X046652Y066731D01*
X046608Y066755D01*
X046566Y066782D01*
X046526Y066812D01*
X046489Y066846D01*
X046455Y066883D01*
X046423Y066922D01*
X046395Y066963D01*
X046370Y067007D01*
X046349Y067052D01*
X046332Y067099D01*
X046318Y067147D01*
X046308Y067196D01*
X046302Y067246D01*
X046300Y067296D01*
X060037Y077694D02*
X060039Y077750D01*
X060045Y077805D01*
X060055Y077859D01*
X060068Y077913D01*
X060086Y077966D01*
X060107Y078017D01*
X060131Y078067D01*
X060159Y078115D01*
X060191Y078161D01*
X060225Y078205D01*
X060263Y078246D01*
X060303Y078284D01*
X060346Y078319D01*
X060391Y078351D01*
X060439Y078380D01*
X060488Y078406D01*
X060539Y078428D01*
X060591Y078446D01*
X060645Y078460D01*
X060700Y078471D01*
X060755Y078478D01*
X060810Y078481D01*
X060866Y078480D01*
X060921Y078475D01*
X060976Y078466D01*
X061030Y078454D01*
X061083Y078437D01*
X061135Y078417D01*
X061185Y078393D01*
X061233Y078366D01*
X061280Y078336D01*
X061324Y078302D01*
X061366Y078265D01*
X061404Y078225D01*
X061441Y078183D01*
X061474Y078138D01*
X061503Y078092D01*
X061530Y078043D01*
X061552Y077992D01*
X061572Y077940D01*
X061587Y077886D01*
X061599Y077832D01*
X061607Y077777D01*
X061611Y077722D01*
X061611Y077666D01*
X061607Y077611D01*
X061599Y077556D01*
X061587Y077502D01*
X061572Y077448D01*
X061552Y077396D01*
X061530Y077345D01*
X061503Y077296D01*
X061474Y077250D01*
X061441Y077205D01*
X061404Y077163D01*
X061366Y077123D01*
X061324Y077086D01*
X061280Y077052D01*
X061233Y077022D01*
X061185Y076995D01*
X061135Y076971D01*
X061083Y076951D01*
X061030Y076934D01*
X060976Y076922D01*
X060921Y076913D01*
X060866Y076908D01*
X060810Y076907D01*
X060755Y076910D01*
X060700Y076917D01*
X060645Y076928D01*
X060591Y076942D01*
X060539Y076960D01*
X060488Y076982D01*
X060439Y077008D01*
X060391Y077037D01*
X060346Y077069D01*
X060303Y077104D01*
X060263Y077142D01*
X060225Y077183D01*
X060191Y077227D01*
X060159Y077273D01*
X060131Y077321D01*
X060107Y077371D01*
X060086Y077422D01*
X060068Y077475D01*
X060055Y077529D01*
X060045Y077583D01*
X060039Y077638D01*
X060037Y077694D01*
X064438Y079225D02*
X023304Y079225D01*
X025604Y077694D02*
X025606Y077750D01*
X025612Y077805D01*
X025622Y077859D01*
X025635Y077913D01*
X025653Y077966D01*
X025674Y078017D01*
X025698Y078067D01*
X025726Y078115D01*
X025758Y078161D01*
X025792Y078205D01*
X025830Y078246D01*
X025870Y078284D01*
X025913Y078319D01*
X025958Y078351D01*
X026006Y078380D01*
X026055Y078406D01*
X026106Y078428D01*
X026158Y078446D01*
X026212Y078460D01*
X026267Y078471D01*
X026322Y078478D01*
X026377Y078481D01*
X026433Y078480D01*
X026488Y078475D01*
X026543Y078466D01*
X026597Y078454D01*
X026650Y078437D01*
X026702Y078417D01*
X026752Y078393D01*
X026800Y078366D01*
X026847Y078336D01*
X026891Y078302D01*
X026933Y078265D01*
X026971Y078225D01*
X027008Y078183D01*
X027041Y078138D01*
X027070Y078092D01*
X027097Y078043D01*
X027119Y077992D01*
X027139Y077940D01*
X027154Y077886D01*
X027166Y077832D01*
X027174Y077777D01*
X027178Y077722D01*
X027178Y077666D01*
X027174Y077611D01*
X027166Y077556D01*
X027154Y077502D01*
X027139Y077448D01*
X027119Y077396D01*
X027097Y077345D01*
X027070Y077296D01*
X027041Y077250D01*
X027008Y077205D01*
X026971Y077163D01*
X026933Y077123D01*
X026891Y077086D01*
X026847Y077052D01*
X026800Y077022D01*
X026752Y076995D01*
X026702Y076971D01*
X026650Y076951D01*
X026597Y076934D01*
X026543Y076922D01*
X026488Y076913D01*
X026433Y076908D01*
X026377Y076907D01*
X026322Y076910D01*
X026267Y076917D01*
X026212Y076928D01*
X026158Y076942D01*
X026106Y076960D01*
X026055Y076982D01*
X026006Y077008D01*
X025958Y077037D01*
X025913Y077069D01*
X025870Y077104D01*
X025830Y077142D01*
X025792Y077183D01*
X025758Y077227D01*
X025726Y077273D01*
X025698Y077321D01*
X025674Y077371D01*
X025653Y077422D01*
X025635Y077475D01*
X025622Y077529D01*
X025612Y077583D01*
X025606Y077638D01*
X025604Y077694D01*
X007387Y043607D02*
X007389Y043663D01*
X007395Y043718D01*
X007405Y043772D01*
X007418Y043826D01*
X007436Y043879D01*
X007457Y043930D01*
X007481Y043980D01*
X007509Y044028D01*
X007541Y044074D01*
X007575Y044118D01*
X007613Y044159D01*
X007653Y044197D01*
X007696Y044232D01*
X007741Y044264D01*
X007789Y044293D01*
X007838Y044319D01*
X007889Y044341D01*
X007941Y044359D01*
X007995Y044373D01*
X008050Y044384D01*
X008105Y044391D01*
X008160Y044394D01*
X008216Y044393D01*
X008271Y044388D01*
X008326Y044379D01*
X008380Y044367D01*
X008433Y044350D01*
X008485Y044330D01*
X008535Y044306D01*
X008583Y044279D01*
X008630Y044249D01*
X008674Y044215D01*
X008716Y044178D01*
X008754Y044138D01*
X008791Y044096D01*
X008824Y044051D01*
X008853Y044005D01*
X008880Y043956D01*
X008902Y043905D01*
X008922Y043853D01*
X008937Y043799D01*
X008949Y043745D01*
X008957Y043690D01*
X008961Y043635D01*
X008961Y043579D01*
X008957Y043524D01*
X008949Y043469D01*
X008937Y043415D01*
X008922Y043361D01*
X008902Y043309D01*
X008880Y043258D01*
X008853Y043209D01*
X008824Y043163D01*
X008791Y043118D01*
X008754Y043076D01*
X008716Y043036D01*
X008674Y042999D01*
X008630Y042965D01*
X008583Y042935D01*
X008535Y042908D01*
X008485Y042884D01*
X008433Y042864D01*
X008380Y042847D01*
X008326Y042835D01*
X008271Y042826D01*
X008216Y042821D01*
X008160Y042820D01*
X008105Y042823D01*
X008050Y042830D01*
X007995Y042841D01*
X007941Y042855D01*
X007889Y042873D01*
X007838Y042895D01*
X007789Y042921D01*
X007741Y042950D01*
X007696Y042982D01*
X007653Y043017D01*
X007613Y043055D01*
X007575Y043096D01*
X007541Y043140D01*
X007509Y043186D01*
X007481Y043234D01*
X007457Y043284D01*
X007436Y043335D01*
X007418Y043388D01*
X007405Y043442D01*
X007395Y043496D01*
X007389Y043551D01*
X007387Y043607D01*
X023304Y079226D02*
X022432Y078711D01*
X021573Y078175D01*
X020727Y077619D01*
X019895Y077042D01*
X019077Y076444D01*
X018274Y075827D01*
X017487Y075191D01*
X016716Y074535D01*
X015960Y073860D01*
X015222Y073168D01*
X014501Y072457D01*
X013797Y071729D01*
X013111Y070984D01*
X012444Y070222D01*
X011796Y069445D01*
X011167Y068651D01*
X010557Y067843D01*
X009968Y067019D01*
X009399Y066182D01*
X008850Y065331D01*
X008323Y064467D01*
X007817Y063590D01*
X007332Y062701D01*
X006870Y061800D01*
X006429Y060888D01*
X006011Y059966D01*
X005616Y059034D01*
X005244Y058092D01*
X004895Y057142D01*
X004569Y056183D01*
X004267Y055216D01*
X003989Y054243D01*
X003734Y053263D01*
X003504Y052277D01*
X003298Y051286D01*
X003116Y050289D01*
X002959Y049289D01*
X002826Y048285D01*
X002718Y047279D01*
X002634Y046270D01*
X002575Y045259D01*
X002541Y044247D01*
X002532Y043234D01*
X002548Y042222D01*
X002588Y041210D01*
X002653Y040200D01*
X002743Y039191D01*
X002858Y038185D01*
X002997Y037182D01*
X003161Y036183D01*
X003349Y035188D01*
X003561Y034198D01*
X003798Y033214D01*
X004059Y032235D01*
X004343Y031264D01*
X004651Y030299D01*
X004983Y029343D01*
X005338Y028394D01*
X005717Y027455D01*
X006118Y026525D01*
X006542Y025606D01*
X006988Y024697D01*
X007456Y023799D01*
X007946Y022913D01*
X008458Y022039D01*
X008991Y021179D01*
X009545Y020331D01*
X010119Y019497D01*
X010714Y018678D01*
X011328Y017873D01*
X011963Y017084D01*
X012616Y016310D01*
X013288Y015553D01*
X013978Y014812D01*
X014686Y014088D01*
X015412Y013382D01*
X016155Y012694D01*
X016915Y012025D01*
X017690Y011374D01*
X018482Y010742D01*
X019288Y010130D01*
X020110Y009538D01*
X020945Y008966D01*
X021795Y008415D01*
X022657Y007885D01*
X023533Y007376D01*
X024420Y006889D01*
X025319Y006423D01*
X026230Y005980D01*
X027151Y005559D01*
X028082Y005161D01*
X029022Y004786D01*
X029971Y004434D01*
X030929Y004105D01*
X031895Y003800D01*
X032867Y003518D01*
X033846Y003261D01*
X034832Y003027D01*
X035822Y002818D01*
X036818Y002633D01*
X037818Y002473D01*
X038821Y002337D01*
X039827Y002225D01*
X040836Y002139D01*
X041847Y002077D01*
X042859Y002039D01*
X043871Y002027D01*
X044883Y002039D01*
X045895Y002077D01*
X046906Y002139D01*
X047915Y002225D01*
X048921Y002337D01*
X049924Y002473D01*
X050924Y002633D01*
X051920Y002818D01*
X052910Y003027D01*
X053896Y003261D01*
X054875Y003518D01*
X055847Y003800D01*
X056813Y004105D01*
X057771Y004434D01*
X058720Y004786D01*
X059660Y005161D01*
X060591Y005559D01*
X061512Y005980D01*
X062423Y006423D01*
X063322Y006889D01*
X064209Y007376D01*
X065085Y007885D01*
X065947Y008415D01*
X066797Y008966D01*
X067632Y009538D01*
X068454Y010130D01*
X069260Y010742D01*
X070052Y011374D01*
X070827Y012025D01*
X071587Y012694D01*
X072330Y013382D01*
X073056Y014088D01*
X073764Y014812D01*
X074454Y015553D01*
X075126Y016310D01*
X075779Y017084D01*
X076414Y017873D01*
X077028Y018678D01*
X077623Y019497D01*
X078197Y020331D01*
X078751Y021179D01*
X079284Y022039D01*
X079796Y022913D01*
X080286Y023799D01*
X080754Y024697D01*
X081200Y025606D01*
X081624Y026525D01*
X082025Y027455D01*
X082404Y028394D01*
X082759Y029343D01*
X083091Y030299D01*
X083399Y031264D01*
X083683Y032235D01*
X083944Y033214D01*
X084181Y034198D01*
X084393Y035188D01*
X084581Y036183D01*
X084745Y037182D01*
X084884Y038185D01*
X084999Y039191D01*
X085089Y040200D01*
X085154Y041210D01*
X085194Y042222D01*
X085210Y043234D01*
X085201Y044247D01*
X085167Y045259D01*
X085108Y046270D01*
X085024Y047279D01*
X084916Y048285D01*
X084783Y049289D01*
X084626Y050289D01*
X084444Y051286D01*
X084238Y052277D01*
X084008Y053263D01*
X083753Y054243D01*
X083475Y055216D01*
X083173Y056183D01*
X082847Y057142D01*
X082498Y058092D01*
X082126Y059034D01*
X081731Y059966D01*
X081313Y060888D01*
X080872Y061800D01*
X080410Y062701D01*
X079925Y063590D01*
X079419Y064467D01*
X078892Y065331D01*
X078343Y066182D01*
X077774Y067019D01*
X077185Y067843D01*
X076575Y068651D01*
X075946Y069445D01*
X075298Y070222D01*
X074631Y070984D01*
X073945Y071729D01*
X073241Y072457D01*
X072520Y073168D01*
X071782Y073860D01*
X071026Y074535D01*
X070255Y075191D01*
X069468Y075827D01*
X068665Y076444D01*
X067847Y077042D01*
X067015Y077619D01*
X066169Y078175D01*
X065310Y078711D01*
X064438Y079226D01*
X078253Y043607D02*
X078255Y043663D01*
X078261Y043718D01*
X078271Y043772D01*
X078284Y043826D01*
X078302Y043879D01*
X078323Y043930D01*
X078347Y043980D01*
X078375Y044028D01*
X078407Y044074D01*
X078441Y044118D01*
X078479Y044159D01*
X078519Y044197D01*
X078562Y044232D01*
X078607Y044264D01*
X078655Y044293D01*
X078704Y044319D01*
X078755Y044341D01*
X078807Y044359D01*
X078861Y044373D01*
X078916Y044384D01*
X078971Y044391D01*
X079026Y044394D01*
X079082Y044393D01*
X079137Y044388D01*
X079192Y044379D01*
X079246Y044367D01*
X079299Y044350D01*
X079351Y044330D01*
X079401Y044306D01*
X079449Y044279D01*
X079496Y044249D01*
X079540Y044215D01*
X079582Y044178D01*
X079620Y044138D01*
X079657Y044096D01*
X079690Y044051D01*
X079719Y044005D01*
X079746Y043956D01*
X079768Y043905D01*
X079788Y043853D01*
X079803Y043799D01*
X079815Y043745D01*
X079823Y043690D01*
X079827Y043635D01*
X079827Y043579D01*
X079823Y043524D01*
X079815Y043469D01*
X079803Y043415D01*
X079788Y043361D01*
X079768Y043309D01*
X079746Y043258D01*
X079719Y043209D01*
X079690Y043163D01*
X079657Y043118D01*
X079620Y043076D01*
X079582Y043036D01*
X079540Y042999D01*
X079496Y042965D01*
X079449Y042935D01*
X079401Y042908D01*
X079351Y042884D01*
X079299Y042864D01*
X079246Y042847D01*
X079192Y042835D01*
X079137Y042826D01*
X079082Y042821D01*
X079026Y042820D01*
X078971Y042823D01*
X078916Y042830D01*
X078861Y042841D01*
X078807Y042855D01*
X078755Y042873D01*
X078704Y042895D01*
X078655Y042921D01*
X078607Y042950D01*
X078562Y042982D01*
X078519Y043017D01*
X078479Y043055D01*
X078441Y043096D01*
X078407Y043140D01*
X078375Y043186D01*
X078347Y043234D01*
X078323Y043284D01*
X078302Y043335D01*
X078284Y043388D01*
X078271Y043442D01*
X078261Y043496D01*
X078255Y043551D01*
X078253Y043607D01*
X057741Y032780D02*
X057743Y032830D01*
X057749Y032880D01*
X057759Y032929D01*
X057773Y032977D01*
X057790Y033024D01*
X057811Y033069D01*
X057836Y033113D01*
X057864Y033154D01*
X057896Y033193D01*
X057930Y033230D01*
X057967Y033264D01*
X058007Y033294D01*
X058049Y033321D01*
X058093Y033345D01*
X058139Y033366D01*
X058186Y033382D01*
X058234Y033395D01*
X058284Y033404D01*
X058333Y033409D01*
X058384Y033410D01*
X058434Y033407D01*
X058483Y033400D01*
X058532Y033389D01*
X058580Y033374D01*
X058626Y033356D01*
X058671Y033334D01*
X058714Y033308D01*
X058755Y033279D01*
X058794Y033247D01*
X058830Y033212D01*
X058862Y033174D01*
X058892Y033134D01*
X058919Y033091D01*
X058942Y033047D01*
X058961Y033001D01*
X058977Y032953D01*
X058989Y032904D01*
X058997Y032855D01*
X059001Y032805D01*
X059001Y032755D01*
X058997Y032705D01*
X058989Y032656D01*
X058977Y032607D01*
X058961Y032559D01*
X058942Y032513D01*
X058919Y032469D01*
X058892Y032426D01*
X058862Y032386D01*
X058830Y032348D01*
X058794Y032313D01*
X058755Y032281D01*
X058714Y032252D01*
X058671Y032226D01*
X058626Y032204D01*
X058580Y032186D01*
X058532Y032171D01*
X058483Y032160D01*
X058434Y032153D01*
X058384Y032150D01*
X058333Y032151D01*
X058284Y032156D01*
X058234Y032165D01*
X058186Y032178D01*
X058139Y032194D01*
X058093Y032215D01*
X058049Y032239D01*
X058007Y032266D01*
X057967Y032296D01*
X057930Y032330D01*
X057896Y032367D01*
X057864Y032406D01*
X057836Y032447D01*
X057811Y032491D01*
X057790Y032536D01*
X057773Y032583D01*
X057759Y032631D01*
X057749Y032680D01*
X057743Y032730D01*
X057741Y032780D01*
X042820Y005418D02*
X042822Y005474D01*
X042828Y005529D01*
X042838Y005583D01*
X042851Y005637D01*
X042869Y005690D01*
X042890Y005741D01*
X042914Y005791D01*
X042942Y005839D01*
X042974Y005885D01*
X043008Y005929D01*
X043046Y005970D01*
X043086Y006008D01*
X043129Y006043D01*
X043174Y006075D01*
X043222Y006104D01*
X043271Y006130D01*
X043322Y006152D01*
X043374Y006170D01*
X043428Y006184D01*
X043483Y006195D01*
X043538Y006202D01*
X043593Y006205D01*
X043649Y006204D01*
X043704Y006199D01*
X043759Y006190D01*
X043813Y006178D01*
X043866Y006161D01*
X043918Y006141D01*
X043968Y006117D01*
X044016Y006090D01*
X044063Y006060D01*
X044107Y006026D01*
X044149Y005989D01*
X044187Y005949D01*
X044224Y005907D01*
X044257Y005862D01*
X044286Y005816D01*
X044313Y005767D01*
X044335Y005716D01*
X044355Y005664D01*
X044370Y005610D01*
X044382Y005556D01*
X044390Y005501D01*
X044394Y005446D01*
X044394Y005390D01*
X044390Y005335D01*
X044382Y005280D01*
X044370Y005226D01*
X044355Y005172D01*
X044335Y005120D01*
X044313Y005069D01*
X044286Y005020D01*
X044257Y004974D01*
X044224Y004929D01*
X044187Y004887D01*
X044149Y004847D01*
X044107Y004810D01*
X044063Y004776D01*
X044016Y004746D01*
X043968Y004719D01*
X043918Y004695D01*
X043866Y004675D01*
X043813Y004658D01*
X043759Y004646D01*
X043704Y004637D01*
X043649Y004632D01*
X043593Y004631D01*
X043538Y004634D01*
X043483Y004641D01*
X043428Y004652D01*
X043374Y004666D01*
X043322Y004684D01*
X043271Y004706D01*
X043222Y004732D01*
X043174Y004761D01*
X043129Y004793D01*
X043086Y004828D01*
X043046Y004866D01*
X043008Y004907D01*
X042974Y004951D01*
X042942Y004997D01*
X042914Y005045D01*
X042890Y005095D01*
X042869Y005146D01*
X042851Y005199D01*
X042838Y005253D01*
X042828Y005307D01*
X042822Y005362D01*
X042820Y005418D01*
D11*
X073037Y022867D03*
D12*
X073047Y022887D03*
D13*
X073037Y022907D03*
D14*
X073037Y022927D03*
X073017Y032667D03*
D15*
X073037Y022947D03*
D16*
X073007Y022967D03*
D17*
X073027Y022987D03*
D18*
X073017Y023007D03*
D19*
X073027Y023027D03*
D20*
X073007Y023047D03*
D21*
X073017Y023067D03*
D22*
X073037Y023087D03*
D23*
X073027Y023107D03*
X073027Y032487D03*
D24*
X073027Y023127D03*
D25*
X073027Y023147D03*
D26*
X073037Y023167D03*
X073037Y032447D03*
D27*
X073017Y032387D03*
X073037Y023187D03*
D28*
X073037Y023207D03*
D29*
X073037Y023227D03*
X073017Y032367D03*
D30*
X073037Y023247D03*
D31*
X073037Y023267D03*
X073017Y032327D03*
D32*
X073017Y032307D03*
X073037Y023287D03*
D33*
X073037Y023307D03*
D34*
X073027Y023327D03*
D35*
X073027Y023347D03*
D36*
X073037Y023367D03*
X073037Y032247D03*
D37*
X073037Y032227D03*
X073037Y023387D03*
D38*
X073037Y023407D03*
X073037Y032207D03*
D39*
X073027Y032187D03*
X073027Y023427D03*
D40*
X073027Y023447D03*
X073027Y032167D03*
D41*
X073037Y032147D03*
X073037Y023467D03*
D42*
X073037Y023487D03*
X073037Y032127D03*
D43*
X073037Y032107D03*
X073037Y023507D03*
D44*
X073037Y023527D03*
D45*
X073037Y023547D03*
D46*
X073037Y023567D03*
X073037Y032047D03*
D47*
X073037Y032027D03*
X073037Y023587D03*
D48*
X073037Y023607D03*
X073037Y031987D03*
X073037Y032007D03*
D49*
X073027Y023627D03*
D50*
X073027Y023647D03*
D51*
X070477Y023667D03*
X070457Y023687D03*
X070437Y023707D03*
X070437Y023727D03*
X075597Y023667D03*
X075617Y023687D03*
X075637Y023707D03*
X075637Y023727D03*
X075637Y023747D03*
D52*
X075647Y023767D03*
X075647Y023787D03*
X070427Y023747D03*
D53*
X070407Y023767D03*
X075667Y023827D03*
D54*
X075677Y023847D03*
X075677Y023867D03*
X070397Y023807D03*
X070397Y023787D03*
X070377Y023867D03*
X070377Y023887D03*
X070357Y023927D03*
X070337Y023947D03*
D55*
X073017Y024667D03*
X075657Y023807D03*
D56*
X075687Y023887D03*
X075687Y023907D03*
X075687Y023927D03*
X070387Y023847D03*
X070387Y023827D03*
X070367Y023907D03*
X070307Y023967D03*
X070307Y023987D03*
D57*
X070297Y024007D03*
X070297Y024027D03*
X073037Y027867D03*
X075697Y023947D03*
D58*
X075707Y023967D03*
X073027Y024647D03*
D59*
X075717Y023987D03*
X075737Y024007D03*
X075737Y024027D03*
X070297Y024047D03*
D60*
X073047Y027887D03*
X075747Y024107D03*
X075747Y024087D03*
X075747Y024067D03*
X075747Y024047D03*
D61*
X075817Y024247D03*
X075837Y024307D03*
X075837Y024327D03*
X073017Y024607D03*
X070337Y024067D03*
X073037Y027927D03*
D62*
X073007Y024567D03*
X070407Y024087D03*
D63*
X070407Y024107D03*
D64*
X070407Y024127D03*
D65*
X073017Y024627D03*
X075757Y024127D03*
X073037Y027907D03*
D66*
X070427Y024147D03*
D67*
X075767Y024147D03*
X075827Y024267D03*
X075827Y024287D03*
D68*
X072987Y024467D03*
X070627Y024167D03*
D69*
X075787Y024167D03*
X075787Y024187D03*
X075807Y024207D03*
X075807Y024227D03*
D70*
X070647Y024187D03*
D71*
X070667Y024207D03*
D72*
X070677Y024227D03*
D73*
X070687Y024247D03*
D74*
X070887Y024267D03*
D75*
X070937Y024287D03*
D76*
X070937Y024307D03*
D77*
X070947Y024327D03*
D78*
X070967Y024347D03*
D79*
X075817Y024347D03*
D80*
X073017Y024367D03*
X073017Y031227D03*
D81*
X073017Y031187D03*
X073017Y024387D03*
D82*
X073027Y024407D03*
X073027Y031147D03*
X073027Y031167D03*
D83*
X073017Y026467D03*
X073017Y026447D03*
X073017Y026007D03*
X073017Y025987D03*
X069157Y024427D03*
X068037Y024967D03*
X067957Y025047D03*
X078057Y025007D03*
X078077Y025027D03*
X078097Y025047D03*
X078117Y027447D03*
D84*
X070257Y024427D03*
X073257Y035187D03*
X073317Y035307D03*
D85*
X072987Y024427D03*
D86*
X075757Y024427D03*
X075777Y028107D03*
X073177Y034927D03*
X073177Y034947D03*
X073357Y035347D03*
D87*
X078137Y027407D03*
X078137Y027387D03*
X078137Y025127D03*
X078137Y025107D03*
X078137Y025087D03*
X078117Y025067D03*
X078017Y024967D03*
X076917Y024427D03*
X067917Y025127D03*
X067917Y027407D03*
X067917Y027427D03*
X067937Y027447D03*
X067937Y027467D03*
X067957Y027527D03*
D88*
X067907Y027387D03*
X067907Y025147D03*
X069127Y024447D03*
X078147Y025147D03*
X078147Y027367D03*
D89*
X072987Y024447D03*
D90*
X076977Y024447D03*
X078197Y025287D03*
X078197Y025307D03*
X078197Y025327D03*
X078197Y027187D03*
X078197Y027207D03*
X067857Y025287D03*
D91*
X069007Y024467D03*
X068847Y028007D03*
D92*
X068837Y027987D03*
X072957Y034087D03*
X073157Y034227D03*
X077177Y027987D03*
X077077Y024467D03*
D93*
X077107Y024487D03*
X068967Y024487D03*
X068807Y027967D03*
D94*
X073017Y024487D03*
D95*
X068947Y024507D03*
X068947Y024527D03*
X077127Y024527D03*
X077127Y024507D03*
D96*
X073007Y024507D03*
D97*
X072997Y024527D03*
X073057Y028007D03*
D98*
X068907Y024547D03*
X077247Y027947D03*
D99*
X072977Y024547D03*
D100*
X077157Y024547D03*
X068757Y027947D03*
D101*
X068717Y027907D03*
X068717Y027887D03*
X068857Y024567D03*
X073037Y032767D03*
X077297Y027867D03*
D102*
X077207Y024567D03*
X068807Y024627D03*
D103*
X068817Y024607D03*
X068837Y024587D03*
X068777Y024647D03*
X068697Y027867D03*
X073277Y034247D03*
D104*
X073007Y024587D03*
D105*
X077227Y024587D03*
X077247Y024607D03*
X077247Y024627D03*
X077327Y027847D03*
X073027Y032787D03*
D106*
X073027Y032807D03*
X073027Y032827D03*
X073027Y032847D03*
X077347Y027827D03*
X077267Y024647D03*
X068667Y027847D03*
D107*
X068657Y027827D03*
X068657Y027807D03*
X068737Y024667D03*
X073037Y032867D03*
X073037Y032887D03*
X073037Y032907D03*
X077357Y027807D03*
D108*
X077307Y024667D03*
X073067Y032947D03*
X073067Y032967D03*
X068627Y027767D03*
X068687Y024727D03*
X068707Y024707D03*
D109*
X068717Y024687D03*
D110*
X073007Y024687D03*
X073007Y027847D03*
D111*
X077397Y027767D03*
X077357Y024707D03*
X077337Y024687D03*
X073077Y032987D03*
X073077Y033007D03*
X073077Y033027D03*
X073077Y033047D03*
X073077Y033067D03*
X068677Y024747D03*
D112*
X073007Y024707D03*
D113*
X073007Y024727D03*
D114*
X077367Y024727D03*
X077387Y024747D03*
X068607Y027747D03*
X073087Y033087D03*
X073087Y033107D03*
X073087Y033127D03*
D115*
X072997Y024747D03*
D116*
X068657Y024767D03*
X077417Y027747D03*
X073097Y033147D03*
D117*
X073037Y027767D03*
X072997Y024767D03*
D118*
X068647Y024787D03*
X077407Y024767D03*
X077427Y024787D03*
X077427Y027727D03*
X073107Y033167D03*
D119*
X073037Y027747D03*
X072997Y024787D03*
D120*
X068637Y024807D03*
X068577Y027727D03*
X077437Y027707D03*
X077437Y024807D03*
D121*
X073007Y024807D03*
D122*
X068627Y024827D03*
X068567Y027687D03*
X068567Y027707D03*
X073107Y033187D03*
X073107Y033207D03*
X077447Y027687D03*
X077467Y027667D03*
X077567Y027567D03*
X077447Y024827D03*
D123*
X073007Y024827D03*
D124*
X068617Y024847D03*
X068497Y024947D03*
X077457Y024847D03*
X077477Y027647D03*
X073097Y033227D03*
D125*
X073007Y024847D03*
D126*
X068587Y024867D03*
X068547Y024927D03*
X068527Y027647D03*
X068547Y027667D03*
X073407Y034267D03*
X077487Y027627D03*
X077507Y027607D03*
X077527Y027587D03*
D127*
X073037Y027667D03*
X072997Y024867D03*
D128*
X068577Y024887D03*
X068557Y024907D03*
X077477Y024867D03*
X073097Y033247D03*
X073097Y033267D03*
D129*
X072997Y024887D03*
D130*
X075787Y026127D03*
X075787Y026147D03*
X075787Y026167D03*
X075787Y026187D03*
X075787Y026207D03*
X075787Y026227D03*
X075787Y026247D03*
X075787Y026267D03*
X075787Y026287D03*
X075787Y026307D03*
X075787Y026327D03*
X075787Y026347D03*
X075787Y026367D03*
X077507Y024927D03*
X077487Y024887D03*
X068507Y027607D03*
X068507Y027627D03*
X068487Y027587D03*
X068467Y027567D03*
X073087Y033287D03*
X073087Y033307D03*
X073087Y033327D03*
D131*
X073027Y027647D03*
X073007Y024907D03*
D132*
X070277Y026167D03*
X070277Y026187D03*
X070277Y026207D03*
X070277Y026227D03*
X070277Y026247D03*
X070277Y026267D03*
X070277Y026287D03*
X070277Y026307D03*
X070277Y026327D03*
X070277Y026347D03*
X070277Y026367D03*
X075797Y026387D03*
X075797Y026407D03*
X075797Y026427D03*
X075797Y026107D03*
X075797Y026087D03*
X077497Y024907D03*
X077537Y024947D03*
X073097Y033347D03*
X073097Y033367D03*
D133*
X073027Y027627D03*
X073007Y024927D03*
D134*
X073007Y024947D03*
D135*
X072997Y024967D03*
X073037Y027567D03*
D136*
X076997Y028067D03*
X078097Y027487D03*
X067997Y024987D03*
X067977Y025027D03*
D137*
X072997Y024987D03*
D138*
X073027Y026027D03*
X073027Y026047D03*
X073027Y026067D03*
X073027Y026087D03*
X073027Y026107D03*
X073027Y026127D03*
X073027Y026147D03*
X073027Y026167D03*
X073027Y026187D03*
X073027Y026207D03*
X073027Y026227D03*
X073027Y026247D03*
X073027Y026267D03*
X073027Y026287D03*
X073027Y026307D03*
X073027Y026327D03*
X073027Y026347D03*
X073027Y026367D03*
X073027Y026387D03*
X073027Y026407D03*
X073027Y026427D03*
X068987Y028087D03*
X067987Y027547D03*
X067947Y027507D03*
X067947Y027487D03*
X067927Y025107D03*
X067927Y025087D03*
X067947Y025067D03*
X078047Y024987D03*
X078127Y027427D03*
D139*
X078107Y027467D03*
X073007Y026527D03*
X073007Y026507D03*
X073007Y026487D03*
X073007Y025967D03*
X067987Y025007D03*
D140*
X073007Y025007D03*
X073027Y027547D03*
D141*
X073027Y027527D03*
X073007Y025027D03*
D142*
X073007Y025047D03*
D143*
X073007Y025067D03*
D144*
X073007Y025087D03*
D145*
X073007Y025107D03*
X073027Y027447D03*
D146*
X073017Y025127D03*
D147*
X073017Y025147D03*
X073037Y027387D03*
X073037Y027407D03*
D148*
X068947Y028067D03*
X067887Y027347D03*
X067887Y025167D03*
X073047Y034147D03*
X073047Y034167D03*
X078167Y027347D03*
D149*
X073007Y025167D03*
D150*
X078157Y025167D03*
X067897Y027367D03*
D151*
X067877Y027327D03*
X067877Y027307D03*
X067877Y027287D03*
X067877Y025227D03*
X067877Y025207D03*
X067877Y025187D03*
X078177Y025187D03*
X078177Y025207D03*
X078177Y027307D03*
X078177Y027327D03*
D152*
X073017Y027347D03*
X072997Y025207D03*
X072997Y025187D03*
D153*
X072997Y025227D03*
X073017Y027307D03*
X073017Y027327D03*
D154*
X067867Y027267D03*
X067867Y025267D03*
X067867Y025247D03*
X078187Y025247D03*
X078187Y025227D03*
X078187Y025267D03*
X078187Y027227D03*
X078187Y027247D03*
X078187Y027267D03*
X078187Y027287D03*
D155*
X073007Y025247D03*
D156*
X073027Y025267D03*
X073027Y027247D03*
X073027Y027267D03*
D157*
X073037Y027227D03*
X073017Y025287D03*
D158*
X067847Y025307D03*
X067847Y025327D03*
X067787Y025447D03*
X067847Y027247D03*
D159*
X073027Y027207D03*
X073027Y027187D03*
X073027Y025327D03*
X073027Y025307D03*
D160*
X068897Y028047D03*
X067837Y027227D03*
X067837Y025367D03*
X067837Y025347D03*
X078217Y025347D03*
X078257Y027067D03*
X078217Y027167D03*
D161*
X073017Y025347D03*
D162*
X073007Y025367D03*
X073007Y027147D03*
D163*
X077127Y028047D03*
X078227Y027147D03*
X078247Y027087D03*
X078267Y025487D03*
X078247Y025467D03*
X078247Y025447D03*
X078227Y025367D03*
X067827Y025387D03*
X067827Y025407D03*
X067827Y025427D03*
X067727Y027027D03*
X067827Y027147D03*
X067827Y027167D03*
X067827Y027187D03*
X067827Y027207D03*
D164*
X072997Y025387D03*
D165*
X078237Y025387D03*
X078237Y025407D03*
X078237Y025427D03*
X078237Y027107D03*
X078237Y027127D03*
X073137Y034187D03*
X067817Y027127D03*
X067817Y027107D03*
X067757Y027047D03*
D166*
X073027Y027127D03*
X073007Y025407D03*
D167*
X073017Y025427D03*
D168*
X073027Y025447D03*
X073027Y027067D03*
X073027Y027087D03*
X073027Y027107D03*
X078627Y026947D03*
X078627Y026927D03*
X078627Y025607D03*
X078627Y025587D03*
D169*
X073027Y025747D03*
X073027Y025767D03*
X073027Y026667D03*
X073027Y026687D03*
X073027Y026707D03*
X067607Y025467D03*
D170*
X067437Y025567D03*
X067437Y025587D03*
X067437Y025607D03*
X067437Y025627D03*
X067437Y025647D03*
X067437Y026887D03*
X067437Y026907D03*
X067437Y026927D03*
X067437Y026947D03*
X067437Y026967D03*
X073017Y025467D03*
X078637Y025627D03*
X078637Y025647D03*
X078637Y025667D03*
X078637Y025687D03*
X078637Y025707D03*
X078637Y025727D03*
X078637Y025747D03*
X078637Y025767D03*
X078637Y026767D03*
X078637Y026787D03*
X078637Y026807D03*
X078637Y026827D03*
X078637Y026847D03*
X078637Y026867D03*
X078637Y026887D03*
X078637Y026907D03*
X078557Y026987D03*
D171*
X073007Y026927D03*
X073007Y026907D03*
X073007Y025647D03*
X067527Y025487D03*
X074787Y032767D03*
D172*
X073027Y027047D03*
X073027Y027027D03*
X073027Y027007D03*
X073027Y025507D03*
X073027Y025487D03*
X067427Y025667D03*
X067427Y025687D03*
X067427Y025707D03*
X067427Y026847D03*
X067427Y026867D03*
X078547Y027007D03*
X078547Y027027D03*
X078587Y026967D03*
X078647Y026747D03*
X078647Y026727D03*
X078647Y026707D03*
X078647Y025827D03*
X078647Y025807D03*
X078647Y025787D03*
X078607Y025567D03*
X078567Y025547D03*
D173*
X079557Y025487D03*
X076097Y026487D03*
X073077Y034027D03*
D174*
X069117Y028147D03*
X067497Y027007D03*
X067517Y025507D03*
X072997Y025587D03*
X072997Y025607D03*
X072997Y025627D03*
D175*
X073017Y025527D03*
X073017Y026987D03*
X067417Y026827D03*
X067417Y025727D03*
X078537Y025527D03*
X078537Y025507D03*
X078657Y025847D03*
X078657Y026687D03*
D176*
X078687Y026587D03*
X078687Y026567D03*
X078687Y026547D03*
X078687Y026527D03*
X078687Y026067D03*
X078687Y026047D03*
X078687Y026027D03*
X078687Y026007D03*
X073007Y026947D03*
X073007Y026967D03*
X067387Y026727D03*
X067387Y026707D03*
X067387Y026687D03*
X067387Y026667D03*
X067387Y026647D03*
X067387Y026627D03*
X067387Y026607D03*
X067387Y026587D03*
X067387Y026567D03*
X067387Y026547D03*
X067387Y026527D03*
X067387Y026507D03*
X067387Y026487D03*
X067387Y026467D03*
X067387Y026447D03*
X067387Y026427D03*
X067387Y026407D03*
X067387Y026387D03*
X067387Y026367D03*
X067387Y026347D03*
X067387Y026327D03*
X067387Y026307D03*
X067387Y026287D03*
X067387Y026267D03*
X067387Y026247D03*
X067387Y026227D03*
X067387Y026207D03*
X067387Y026187D03*
X067387Y026167D03*
X067387Y026147D03*
X067387Y026127D03*
X067387Y026107D03*
X067387Y026087D03*
X067387Y026067D03*
X067387Y026047D03*
X067387Y026027D03*
X067387Y026007D03*
X067387Y025987D03*
X067387Y025967D03*
X067387Y025947D03*
X067387Y025927D03*
X067387Y025907D03*
X067387Y025887D03*
X067387Y025867D03*
X067387Y025847D03*
X067507Y025527D03*
D177*
X067477Y025547D03*
X067397Y025767D03*
X067397Y025787D03*
X067397Y025807D03*
X067397Y025827D03*
X067397Y026747D03*
X067397Y026767D03*
X067397Y026787D03*
X067477Y026987D03*
X072997Y025567D03*
X078677Y025887D03*
X078677Y025907D03*
X078677Y025927D03*
X078677Y025947D03*
X078677Y025967D03*
X078677Y025987D03*
X078677Y026087D03*
X078677Y026107D03*
X078677Y026127D03*
X078677Y026147D03*
X078677Y026167D03*
X078677Y026187D03*
X078677Y026207D03*
X078677Y026227D03*
X078677Y026247D03*
X078677Y026267D03*
X078677Y026287D03*
X078677Y026307D03*
X078677Y026327D03*
X078677Y026347D03*
X078677Y026367D03*
X078677Y026387D03*
X078677Y026407D03*
X078677Y026427D03*
X078677Y026447D03*
X078677Y026467D03*
X078677Y026487D03*
X078677Y026507D03*
X078677Y026607D03*
X078677Y026627D03*
X078677Y026647D03*
D178*
X078667Y026667D03*
X078527Y027047D03*
X078667Y025867D03*
X073007Y025547D03*
X067407Y025747D03*
X067407Y026807D03*
X071227Y032767D03*
D179*
X069097Y028127D03*
X073017Y026887D03*
X073017Y025667D03*
D180*
X073027Y025687D03*
X073027Y025707D03*
X073027Y025727D03*
X073027Y026847D03*
X073027Y026867D03*
X069087Y028107D03*
D181*
X073017Y026647D03*
X073017Y025807D03*
X073017Y025787D03*
X076957Y028107D03*
D182*
X073007Y026627D03*
X073007Y025867D03*
X073007Y025847D03*
X073007Y025827D03*
D183*
X070287Y025847D03*
X070187Y026647D03*
X066647Y027027D03*
X073367Y035367D03*
D184*
X073177Y034887D03*
X075777Y025847D03*
D185*
X075707Y026567D03*
X070267Y025867D03*
X072727Y033867D03*
X073567Y034347D03*
X073207Y034767D03*
X073187Y034827D03*
X073387Y035427D03*
X073367Y035647D03*
D186*
X073357Y035667D03*
X073377Y035407D03*
X073237Y034747D03*
X073257Y034707D03*
X073277Y034687D03*
X073297Y034667D03*
X073557Y034367D03*
X070177Y026587D03*
X075797Y025867D03*
D187*
X075787Y025927D03*
X070247Y025887D03*
X072987Y033707D03*
X072967Y033727D03*
X072647Y033967D03*
D188*
X076977Y028087D03*
X072997Y026607D03*
X072997Y026587D03*
X072997Y025907D03*
X072997Y025887D03*
D189*
X075787Y025887D03*
X072687Y033907D03*
X072667Y033947D03*
X073567Y034327D03*
X073387Y035487D03*
X073387Y035507D03*
X073387Y035527D03*
X073367Y035627D03*
D190*
X070247Y025907D03*
D191*
X075697Y026487D03*
X075697Y026507D03*
X075697Y026527D03*
X075797Y025907D03*
X072897Y033767D03*
X073577Y034307D03*
X073377Y035547D03*
X073377Y035567D03*
X073377Y035587D03*
X073377Y035607D03*
D192*
X072637Y034007D03*
X073017Y033667D03*
X075797Y025947D03*
X070257Y025927D03*
D193*
X073007Y025927D03*
X073007Y025947D03*
X073007Y026547D03*
X073007Y026567D03*
X078047Y027547D03*
X078067Y027527D03*
X078087Y027507D03*
D194*
X072637Y034027D03*
X070257Y025947D03*
D195*
X070257Y025967D03*
D196*
X075787Y025967D03*
X073067Y033647D03*
D197*
X073087Y033627D03*
X073087Y033607D03*
X070247Y026527D03*
X070267Y025987D03*
X075787Y025987D03*
D198*
X075787Y026027D03*
X070267Y026007D03*
X070247Y026487D03*
X070247Y026507D03*
D199*
X075797Y026007D03*
X073097Y033587D03*
D200*
X073117Y033567D03*
X070257Y026027D03*
D201*
X070257Y026047D03*
X070257Y026067D03*
X070257Y026447D03*
X073137Y033487D03*
X073137Y033507D03*
X073137Y033527D03*
D202*
X073127Y033547D03*
X075807Y026467D03*
X075807Y026047D03*
X070247Y026467D03*
D203*
X070257Y026427D03*
X070257Y026107D03*
X070257Y026087D03*
X075797Y026067D03*
X073117Y033407D03*
D204*
X073107Y033387D03*
X072727Y034047D03*
X070267Y026407D03*
X070267Y026387D03*
X070267Y026147D03*
X070267Y026127D03*
D205*
X075807Y026447D03*
X073127Y033427D03*
X073127Y033447D03*
X073127Y033467D03*
D206*
X070227Y026547D03*
D207*
X070177Y026567D03*
X075697Y026547D03*
X072857Y033787D03*
X072837Y033807D03*
X072817Y033827D03*
X072777Y033847D03*
X072697Y033887D03*
X072677Y033927D03*
X073197Y034787D03*
X073197Y034807D03*
X073377Y035447D03*
X073377Y035467D03*
D208*
X073347Y035687D03*
X073187Y034847D03*
X073247Y034727D03*
X073327Y034647D03*
X073347Y034627D03*
X073347Y034607D03*
X073367Y034587D03*
X073387Y034567D03*
X073547Y034387D03*
X075727Y026607D03*
X075727Y026587D03*
X070167Y026607D03*
X070167Y026627D03*
D209*
X075737Y026627D03*
X073537Y034407D03*
X073477Y034467D03*
X073457Y034487D03*
X073437Y034507D03*
X073437Y034527D03*
X073417Y034547D03*
X073377Y035387D03*
D210*
X073337Y035727D03*
X073177Y034867D03*
X075737Y026647D03*
D211*
X075787Y026687D03*
X070227Y026667D03*
X073167Y035007D03*
X073207Y035047D03*
D212*
X073187Y034907D03*
X073347Y035747D03*
X075767Y026667D03*
D213*
X070237Y026687D03*
D214*
X073037Y026727D03*
X073037Y026747D03*
X073037Y026767D03*
X073037Y026787D03*
X073037Y026807D03*
X073037Y026827D03*
D215*
X077147Y028027D03*
X073147Y034207D03*
X072967Y034127D03*
X067807Y027087D03*
X067787Y027067D03*
D216*
X073027Y027167D03*
D217*
X073017Y027287D03*
D218*
X073037Y027367D03*
D219*
X073027Y027427D03*
D220*
X073037Y027467D03*
D221*
X073037Y027487D03*
D222*
X073037Y027507D03*
D223*
X067217Y027567D03*
X078857Y027567D03*
D224*
X073037Y027587D03*
D225*
X073037Y027607D03*
D226*
X073037Y027687D03*
D227*
X073037Y027707D03*
D228*
X073037Y027727D03*
D229*
X077367Y027787D03*
X073047Y032927D03*
X068647Y027787D03*
D230*
X073027Y027787D03*
D231*
X073027Y027807D03*
D232*
X073017Y027827D03*
D233*
X077287Y027887D03*
X068727Y027927D03*
D234*
X072917Y034067D03*
X077277Y027927D03*
X077277Y027907D03*
D235*
X073057Y027947D03*
D236*
X073057Y027967D03*
D237*
X077197Y027967D03*
D238*
X073047Y027987D03*
D239*
X077157Y028007D03*
X072957Y034107D03*
X068857Y028027D03*
D240*
X073047Y028027D03*
D241*
X073047Y028047D03*
D242*
X073047Y028067D03*
D243*
X073077Y028087D03*
D244*
X072997Y028107D03*
D245*
X074147Y028127D03*
D246*
X074127Y028147D03*
X073027Y032427D03*
D247*
X073007Y030427D03*
X073007Y030327D03*
X073007Y030307D03*
X073007Y030287D03*
X073007Y030267D03*
X073007Y030247D03*
X073007Y030227D03*
X073007Y030207D03*
X073007Y030187D03*
X073007Y030167D03*
X073007Y030147D03*
X073007Y030127D03*
X073007Y030107D03*
X073007Y030087D03*
X073007Y030067D03*
X073007Y030047D03*
X073007Y030027D03*
X073007Y030007D03*
X073007Y029987D03*
X073007Y029967D03*
X073007Y029947D03*
X073007Y029927D03*
X073007Y029907D03*
X073007Y029887D03*
X073007Y029867D03*
X073007Y029847D03*
X073007Y029827D03*
X073007Y029807D03*
X073007Y029787D03*
X073007Y029767D03*
X073007Y029747D03*
X073007Y029727D03*
X073007Y029707D03*
X073007Y029687D03*
X073007Y029667D03*
X073007Y029647D03*
X073007Y029627D03*
X073007Y029607D03*
X073007Y029587D03*
X073007Y029567D03*
X073007Y029547D03*
X073007Y029527D03*
X073007Y029507D03*
X073007Y029487D03*
X073007Y029467D03*
X073007Y029447D03*
X073007Y029427D03*
X073007Y029407D03*
X073007Y029387D03*
X073007Y029367D03*
X073007Y029347D03*
X073007Y029327D03*
X073007Y029307D03*
X073007Y029287D03*
X073007Y029267D03*
X073007Y029247D03*
X073007Y029227D03*
X073007Y029207D03*
X073007Y029187D03*
X073007Y029167D03*
X073007Y029147D03*
X073007Y029127D03*
X073007Y029107D03*
X073007Y029087D03*
X073007Y029067D03*
X073007Y029047D03*
X073007Y029027D03*
X073007Y029007D03*
X073007Y028987D03*
X073007Y028967D03*
X073007Y028947D03*
X073007Y028927D03*
X073007Y028907D03*
X073007Y028887D03*
X073007Y028867D03*
X073007Y028847D03*
X073007Y028827D03*
X073007Y028807D03*
X073007Y028787D03*
X073007Y028767D03*
X073007Y028747D03*
X073007Y028727D03*
X073007Y028707D03*
X073007Y028687D03*
X073007Y028667D03*
X073007Y028647D03*
X073007Y028627D03*
X073007Y028607D03*
X073007Y028587D03*
X073007Y028567D03*
X073007Y028547D03*
X073007Y028527D03*
X073007Y028507D03*
X073007Y028487D03*
X073007Y028467D03*
X073007Y028447D03*
X073007Y028427D03*
X073007Y028407D03*
X073007Y028387D03*
X073007Y028367D03*
X073007Y028347D03*
X073007Y028327D03*
X073007Y028307D03*
X073007Y028287D03*
X073007Y028267D03*
X073007Y028247D03*
X073007Y028227D03*
X073007Y028207D03*
X073007Y028187D03*
X073007Y028167D03*
D248*
X072997Y030347D03*
X072997Y030367D03*
X072997Y030387D03*
X072997Y030407D03*
D249*
X073017Y030447D03*
X073017Y030467D03*
D250*
X073027Y030487D03*
X073027Y030507D03*
X073027Y030527D03*
X073027Y030547D03*
D251*
X073037Y030567D03*
X073037Y030587D03*
X073037Y030607D03*
X073037Y030627D03*
X073037Y030647D03*
X073037Y030667D03*
X073037Y030687D03*
X073037Y030707D03*
X073037Y030727D03*
X073037Y030747D03*
X073037Y030767D03*
X073037Y030787D03*
X073037Y030807D03*
X073037Y030827D03*
D252*
X073027Y030847D03*
X073027Y030867D03*
X073027Y030887D03*
D253*
X073027Y030907D03*
D254*
X073017Y030927D03*
D255*
X073007Y030947D03*
X073007Y030967D03*
D256*
X073017Y030987D03*
D257*
X073027Y031007D03*
D258*
X073027Y031027D03*
X073027Y031047D03*
X073027Y031067D03*
D259*
X073037Y031087D03*
X073037Y031107D03*
X073037Y031127D03*
D260*
X073027Y031207D03*
D261*
X073017Y031247D03*
D262*
X073027Y031267D03*
D263*
X073037Y031287D03*
X073037Y031307D03*
D264*
X073037Y031327D03*
X073037Y031347D03*
X073037Y031367D03*
D265*
X073027Y031387D03*
X073027Y031407D03*
D266*
X073037Y031427D03*
D267*
X073017Y031447D03*
D268*
X073027Y031467D03*
D269*
X073027Y031487D03*
X073027Y031507D03*
D270*
X073037Y031527D03*
X073037Y031547D03*
D271*
X073027Y031567D03*
X073027Y031587D03*
X073027Y031607D03*
D272*
X073027Y031627D03*
D273*
X073017Y031647D03*
D274*
X073037Y031667D03*
D275*
X073027Y031687D03*
D276*
X073037Y031707D03*
X073037Y031727D03*
D277*
X073027Y031747D03*
D278*
X073027Y031767D03*
D279*
X073017Y031787D03*
D280*
X073007Y031807D03*
D281*
X073017Y031827D03*
D282*
X073017Y031847D03*
D283*
X073027Y031867D03*
D284*
X073027Y031887D03*
X073027Y031907D03*
D285*
X073027Y031927D03*
D286*
X073017Y031947D03*
D287*
X073037Y031967D03*
D288*
X073027Y032067D03*
D289*
X073027Y032087D03*
D290*
X073037Y032267D03*
D291*
X073027Y032287D03*
D292*
X073007Y032347D03*
D293*
X073027Y032407D03*
D294*
X073037Y032467D03*
D295*
X073027Y032507D03*
D296*
X073017Y032527D03*
D297*
X073017Y032547D03*
D298*
X073027Y032567D03*
D299*
X073037Y032587D03*
D300*
X073027Y032607D03*
D301*
X073037Y032627D03*
D302*
X073037Y032647D03*
D303*
X073017Y032687D03*
D304*
X073037Y032707D03*
D305*
X073037Y032727D03*
D306*
X073037Y032747D03*
D307*
X072997Y033687D03*
X072937Y033747D03*
X072637Y033987D03*
X073577Y034287D03*
D308*
X073867Y034127D03*
D309*
X073527Y034427D03*
X073507Y034447D03*
X073347Y035707D03*
D310*
X073167Y034967D03*
D311*
X073157Y034987D03*
X073177Y035027D03*
D312*
X073217Y035067D03*
X073237Y035087D03*
X073237Y035107D03*
X073237Y035127D03*
D313*
X073247Y035147D03*
X073247Y035167D03*
X073327Y035327D03*
D314*
X073307Y035287D03*
X073287Y035267D03*
X073287Y035247D03*
X073267Y035227D03*
X073267Y035207D03*
D315*
X068810Y022594D02*
X068817Y022587D01*
X068817Y022574D01*
X068810Y022567D01*
X068790Y022567D01*
X068780Y022567D02*
X068780Y022587D01*
X068773Y022594D01*
X068767Y022587D01*
X068767Y022567D01*
X068753Y022567D02*
X068753Y022594D01*
X068760Y022594D01*
X068767Y022587D01*
X068743Y022587D02*
X068737Y022594D01*
X068717Y022594D01*
X068717Y022607D02*
X068717Y022567D01*
X068737Y022567D01*
X068743Y022574D01*
X068743Y022587D01*
X068705Y022574D02*
X068705Y022567D01*
X068698Y022567D01*
X068698Y022574D01*
X068705Y022574D01*
X068687Y022567D02*
X068680Y022574D01*
X068680Y022600D01*
X068674Y022594D02*
X068687Y022594D01*
X068663Y022587D02*
X068657Y022594D01*
X068643Y022594D01*
X068637Y022587D01*
X068637Y022574D01*
X068643Y022567D01*
X068657Y022567D01*
X068663Y022574D01*
X068663Y022587D01*
X068627Y022587D02*
X068620Y022594D01*
X068600Y022594D01*
X068590Y022587D02*
X068583Y022594D01*
X068570Y022594D01*
X068563Y022587D01*
X068563Y022574D01*
X068570Y022567D01*
X068583Y022567D01*
X068590Y022574D01*
X068590Y022587D01*
X068600Y022567D02*
X068620Y022567D01*
X068627Y022574D01*
X068627Y022587D01*
X068600Y022607D02*
X068600Y022567D01*
X068553Y022567D02*
X068540Y022580D01*
X068546Y022580D02*
X068526Y022580D01*
X068526Y022567D02*
X068526Y022607D01*
X068546Y022607D01*
X068553Y022600D01*
X068553Y022587D01*
X068546Y022580D01*
X068515Y022567D02*
X068502Y022567D01*
X068508Y022567D02*
X068508Y022594D01*
X068502Y022594D01*
X068508Y022607D02*
X068508Y022614D01*
X068484Y022607D02*
X068484Y022567D01*
X068490Y022567D02*
X068477Y022567D01*
X068460Y022567D02*
X068447Y022567D01*
X068440Y022574D01*
X068440Y022587D01*
X068447Y022594D01*
X068460Y022594D01*
X068467Y022587D01*
X068467Y022580D01*
X068440Y022580D01*
X068429Y022567D02*
X068422Y022574D01*
X068422Y022600D01*
X068416Y022594D02*
X068429Y022594D01*
X068406Y022587D02*
X068406Y022567D01*
X068406Y022587D02*
X068399Y022594D01*
X068379Y022594D01*
X068379Y022567D01*
X068368Y022567D02*
X068354Y022567D01*
X068361Y022567D02*
X068361Y022607D01*
X068354Y022607D02*
X068368Y022607D01*
X068344Y022607D02*
X068318Y022567D01*
X068307Y022567D02*
X068281Y022567D01*
X068307Y022594D01*
X068307Y022600D01*
X068301Y022607D01*
X068287Y022607D01*
X068281Y022600D01*
X068271Y022587D02*
X068244Y022587D01*
X068234Y022574D02*
X068227Y022567D01*
X068214Y022567D01*
X068207Y022574D01*
X068207Y022600D01*
X068214Y022607D01*
X068227Y022607D01*
X068234Y022600D01*
X068197Y022600D02*
X068197Y022594D01*
X068190Y022587D01*
X068170Y022587D01*
X068160Y022587D02*
X068153Y022580D01*
X068133Y022580D01*
X068133Y022567D02*
X068133Y022607D01*
X068153Y022607D01*
X068160Y022600D01*
X068160Y022587D01*
X068170Y022567D02*
X068190Y022567D01*
X068197Y022574D01*
X068197Y022580D01*
X068190Y022587D01*
X068197Y022600D02*
X068190Y022607D01*
X068170Y022607D01*
X068170Y022567D01*
X068123Y022607D02*
X068097Y022567D01*
X068086Y022567D02*
X068066Y022567D01*
X068060Y022574D01*
X068066Y022580D01*
X068086Y022580D01*
X068086Y022587D02*
X068086Y022567D01*
X068086Y022587D02*
X068080Y022594D01*
X068066Y022594D01*
X068050Y022594D02*
X068030Y022594D01*
X068023Y022587D01*
X068023Y022574D01*
X068030Y022567D01*
X068050Y022567D01*
X068012Y022567D02*
X067998Y022567D01*
X068005Y022567D02*
X068005Y022594D01*
X067998Y022594D01*
X067988Y022587D02*
X067988Y022567D01*
X067988Y022587D02*
X067982Y022594D01*
X067961Y022594D01*
X067961Y022567D01*
X067951Y022574D02*
X067951Y022587D01*
X067945Y022594D01*
X067931Y022594D01*
X067925Y022587D01*
X067925Y022574D01*
X067931Y022567D01*
X067945Y022567D01*
X067951Y022574D01*
X067914Y022594D02*
X067907Y022594D01*
X067894Y022580D01*
X067894Y022567D02*
X067894Y022594D01*
X067883Y022594D02*
X067869Y022594D01*
X067876Y022600D02*
X067876Y022574D01*
X067883Y022567D01*
X067859Y022567D02*
X067839Y022567D01*
X067833Y022574D01*
X067833Y022587D01*
X067839Y022594D01*
X067859Y022594D01*
X067822Y022587D02*
X067822Y022580D01*
X067796Y022580D01*
X067796Y022574D02*
X067796Y022587D01*
X067802Y022594D01*
X067816Y022594D01*
X067822Y022587D01*
X067816Y022567D02*
X067802Y022567D01*
X067796Y022574D01*
X067785Y022567D02*
X067771Y022567D01*
X067778Y022567D02*
X067778Y022607D01*
X067771Y022607D01*
X067754Y022594D02*
X067761Y022587D01*
X067761Y022580D01*
X067734Y022580D01*
X067734Y022574D02*
X067734Y022587D01*
X067741Y022594D01*
X067754Y022594D01*
X067754Y022567D02*
X067741Y022567D01*
X067734Y022574D01*
X067724Y022607D02*
X067698Y022567D01*
X067687Y022574D02*
X067687Y022580D01*
X067681Y022587D01*
X067661Y022587D01*
X067661Y022574D01*
X067667Y022567D01*
X067681Y022567D01*
X067687Y022574D01*
X067674Y022600D02*
X067661Y022587D01*
X067674Y022600D02*
X067687Y022607D01*
X067637Y022607D02*
X067637Y022567D01*
X067624Y022567D02*
X067651Y022567D01*
X067614Y022567D02*
X067587Y022567D01*
X067587Y022607D01*
X067577Y022607D02*
X067550Y022567D01*
X067540Y022574D02*
X067540Y022587D01*
X067533Y022594D01*
X067513Y022594D01*
X067503Y022594D02*
X067503Y022567D01*
X067483Y022567D01*
X067477Y022574D01*
X067477Y022594D01*
X067466Y022587D02*
X067466Y022567D01*
X067466Y022587D02*
X067460Y022594D01*
X067446Y022594D01*
X067440Y022587D01*
X067429Y022594D02*
X067415Y022594D01*
X067422Y022600D02*
X067422Y022574D01*
X067429Y022567D01*
X067440Y022567D02*
X067440Y022607D01*
X067397Y022614D02*
X067397Y022607D01*
X067397Y022594D02*
X067397Y022567D01*
X067391Y022567D02*
X067404Y022567D01*
X067380Y022567D02*
X067360Y022567D01*
X067354Y022574D01*
X067354Y022587D01*
X067360Y022594D01*
X067380Y022594D01*
X067380Y022560D01*
X067374Y022554D01*
X067367Y022554D01*
X067391Y022594D02*
X067397Y022594D01*
X067344Y022607D02*
X067317Y022567D01*
X067307Y022574D02*
X067300Y022567D01*
X067280Y022567D01*
X067270Y022574D02*
X067270Y022587D01*
X067263Y022594D01*
X067250Y022594D01*
X067243Y022587D01*
X067243Y022574D01*
X067250Y022567D01*
X067263Y022567D01*
X067270Y022574D01*
X067280Y022594D02*
X067300Y022594D01*
X067307Y022587D01*
X067307Y022574D01*
X067280Y022554D02*
X067280Y022594D01*
X067232Y022594D02*
X067219Y022594D01*
X067225Y022600D02*
X067225Y022574D01*
X067232Y022567D01*
X067208Y022567D02*
X067188Y022580D01*
X067208Y022594D01*
X067188Y022607D02*
X067188Y022567D01*
X067178Y022574D02*
X067171Y022580D01*
X067158Y022580D01*
X067151Y022587D01*
X067158Y022594D01*
X067178Y022594D01*
X067178Y022574D02*
X067171Y022567D01*
X067151Y022567D01*
X067134Y022567D02*
X067121Y022567D01*
X067114Y022574D01*
X067114Y022587D01*
X067121Y022594D01*
X067134Y022594D01*
X067141Y022587D01*
X067141Y022580D01*
X067114Y022580D01*
X067104Y022574D02*
X067104Y022600D01*
X067098Y022607D01*
X067078Y022607D01*
X067078Y022567D01*
X067098Y022567D01*
X067104Y022574D01*
X067067Y022607D02*
X067041Y022567D01*
X067031Y022574D02*
X067031Y022587D01*
X067024Y022594D01*
X067011Y022594D01*
X067004Y022587D01*
X067004Y022574D01*
X067011Y022567D01*
X067024Y022567D01*
X067031Y022574D01*
X066994Y022567D02*
X066974Y022567D01*
X066967Y022574D01*
X066967Y022587D01*
X066974Y022594D01*
X066994Y022594D01*
X066994Y022560D01*
X066987Y022554D01*
X066980Y022554D01*
X066957Y022567D02*
X066957Y022594D01*
X066930Y022594D02*
X066930Y022574D01*
X066937Y022567D01*
X066957Y022567D01*
X066920Y022567D02*
X066920Y022587D01*
X066913Y022594D01*
X066900Y022594D01*
X066893Y022587D01*
X066893Y022607D02*
X066893Y022567D01*
X066846Y022574D02*
X066840Y022580D01*
X066826Y022580D01*
X066820Y022587D01*
X066826Y022594D01*
X066846Y022594D01*
X066846Y022574D02*
X066840Y022567D01*
X066820Y022567D01*
X066810Y022574D02*
X066810Y022587D01*
X066803Y022594D01*
X066790Y022594D01*
X066783Y022587D01*
X066783Y022574D01*
X066790Y022567D01*
X066803Y022567D01*
X066810Y022574D01*
X066772Y022567D02*
X066758Y022567D01*
X066765Y022567D02*
X066765Y022607D01*
X066758Y022607D01*
X066748Y022594D02*
X066741Y022594D01*
X066728Y022580D01*
X066718Y022580D02*
X066698Y022580D01*
X066691Y022574D01*
X066698Y022567D01*
X066718Y022567D01*
X066718Y022587D01*
X066711Y022594D01*
X066698Y022594D01*
X066681Y022594D02*
X066661Y022594D01*
X066654Y022587D01*
X066654Y022574D01*
X066661Y022567D01*
X066681Y022567D01*
X066728Y022567D02*
X066728Y022594D01*
X066644Y022607D02*
X066617Y022567D01*
X066607Y022574D02*
X066600Y022580D01*
X066587Y022580D01*
X066580Y022587D01*
X066587Y022594D01*
X066607Y022594D01*
X066607Y022574D02*
X066600Y022567D01*
X066580Y022567D01*
X066570Y022594D02*
X066563Y022594D01*
X066550Y022580D01*
X066540Y022580D02*
X066513Y022580D01*
X066513Y022574D02*
X066513Y022587D01*
X066519Y022594D01*
X066533Y022594D01*
X066540Y022587D01*
X066540Y022580D01*
X066533Y022567D02*
X066519Y022567D01*
X066513Y022574D01*
X066503Y022574D02*
X066496Y022580D01*
X066483Y022580D01*
X066476Y022587D01*
X066483Y022594D01*
X066503Y022594D01*
X066503Y022574D02*
X066496Y022567D01*
X066476Y022567D01*
X066466Y022574D02*
X066466Y022607D01*
X066439Y022607D02*
X066439Y022574D01*
X066446Y022567D01*
X066459Y022567D01*
X066466Y022574D01*
X066429Y022607D02*
X066402Y022567D01*
X066391Y022567D02*
X066384Y022567D01*
X066384Y022574D01*
X066391Y022574D01*
X066391Y022567D01*
X066374Y022574D02*
X066367Y022567D01*
X066354Y022567D01*
X066347Y022574D01*
X066347Y022600D01*
X066354Y022607D01*
X066367Y022607D01*
X066374Y022600D01*
X066384Y022594D02*
X066384Y022587D01*
X066391Y022587D01*
X066391Y022594D01*
X066384Y022594D01*
X066550Y022594D02*
X066550Y022567D01*
X067513Y022567D02*
X067533Y022567D01*
X067540Y022574D01*
X067513Y022567D02*
X067513Y022607D01*
X067624Y022594D02*
X067637Y022607D01*
X068005Y022614D02*
X068005Y022607D01*
X068477Y022607D02*
X068484Y022607D01*
X068790Y022594D02*
X068810Y022594D01*
X068790Y022594D02*
X068790Y022554D01*
D316*
X063242Y022838D02*
X062922Y022838D01*
X063002Y023078D02*
X063242Y022838D01*
X063002Y022598D02*
X063002Y023078D01*
X062726Y023078D02*
X062406Y023078D01*
X062406Y022998D01*
X062726Y022678D01*
X062726Y022598D01*
X062726Y022078D02*
X062726Y021838D01*
X062566Y021918D01*
X062486Y021918D01*
X062406Y021838D01*
X062406Y021678D01*
X062486Y021598D01*
X062646Y021598D01*
X062726Y021678D01*
X062922Y021838D02*
X063242Y021838D01*
X063002Y022078D01*
X063002Y021598D01*
X063002Y021078D02*
X063242Y020838D01*
X062922Y020838D01*
X062726Y020998D02*
X062646Y021078D01*
X062486Y021078D01*
X062406Y020998D01*
X062406Y020918D01*
X062486Y020838D01*
X062406Y020758D01*
X062406Y020678D01*
X062486Y020598D01*
X062646Y020598D01*
X062726Y020678D01*
X062566Y020838D02*
X062486Y020838D01*
X063002Y020598D02*
X063002Y021078D01*
X063002Y020078D02*
X063242Y019838D01*
X062922Y019838D01*
X062726Y019918D02*
X062566Y020078D01*
X062566Y019598D01*
X062726Y019598D02*
X062406Y019598D01*
X062486Y019078D02*
X062646Y019078D01*
X062726Y018998D01*
X062726Y018918D01*
X062646Y018838D01*
X062406Y018838D01*
X062406Y018998D02*
X062486Y019078D01*
X062406Y018998D02*
X062406Y018678D01*
X062486Y018598D01*
X062646Y018598D01*
X062726Y018678D01*
X062922Y018678D02*
X063002Y018598D01*
X063162Y018598D01*
X063242Y018678D01*
X063082Y018838D02*
X063002Y018838D01*
X062922Y018758D01*
X062922Y018678D01*
X063002Y018838D02*
X062922Y018918D01*
X062922Y018998D01*
X063002Y019078D01*
X063162Y019078D01*
X063242Y018998D01*
X063002Y019598D02*
X063002Y020078D01*
X063002Y018078D02*
X062922Y017998D01*
X062922Y017918D01*
X063002Y017838D01*
X062922Y017758D01*
X062922Y017678D01*
X063002Y017598D01*
X063162Y017598D01*
X063242Y017678D01*
X063082Y017838D02*
X063002Y017838D01*
X063002Y018078D02*
X063162Y018078D01*
X063242Y017998D01*
X062726Y018078D02*
X062406Y018078D01*
X062406Y017998D01*
X062726Y017678D01*
X062726Y017598D01*
X062726Y017078D02*
X062726Y016838D01*
X062566Y016918D01*
X062486Y016918D01*
X062406Y016838D01*
X062406Y016678D01*
X062486Y016598D01*
X062646Y016598D01*
X062726Y016678D01*
X062922Y016678D02*
X063002Y016598D01*
X063162Y016598D01*
X063242Y016678D01*
X063082Y016838D02*
X063002Y016838D01*
X062922Y016758D01*
X062922Y016678D01*
X063002Y016838D02*
X062922Y016918D01*
X062922Y016998D01*
X063002Y017078D01*
X063162Y017078D01*
X063242Y016998D01*
X062726Y017078D02*
X062406Y017078D01*
X062486Y016078D02*
X062406Y015998D01*
X062406Y015918D01*
X062486Y015838D01*
X062406Y015758D01*
X062406Y015678D01*
X062486Y015598D01*
X062646Y015598D01*
X062726Y015678D01*
X062922Y015678D02*
X063002Y015598D01*
X063162Y015598D01*
X063242Y015678D01*
X063082Y015838D02*
X063002Y015838D01*
X062922Y015758D01*
X062922Y015678D01*
X063002Y015838D02*
X062922Y015918D01*
X062922Y015998D01*
X063002Y016078D01*
X063162Y016078D01*
X063242Y015998D01*
X062726Y015998D02*
X062646Y016078D01*
X062486Y016078D01*
X062486Y015838D02*
X062566Y015838D01*
X062566Y015078D02*
X062566Y014598D01*
X062726Y014598D02*
X062406Y014598D01*
X062726Y014918D02*
X062566Y015078D01*
X062922Y014998D02*
X062922Y014918D01*
X063002Y014838D01*
X062922Y014758D01*
X062922Y014678D01*
X063002Y014598D01*
X063162Y014598D01*
X063242Y014678D01*
X063082Y014838D02*
X063002Y014838D01*
X062922Y014998D02*
X063002Y015078D01*
X063162Y015078D01*
X063242Y014998D01*
X063501Y014828D02*
X063501Y028328D01*
X062501Y029328D01*
X062501Y029828D01*
X023501Y029828D01*
X023501Y008828D01*
X061501Y008828D01*
X062501Y009828D01*
X062501Y013828D01*
X063501Y014828D01*
X059802Y014688D02*
X059722Y014608D01*
X059562Y014608D01*
X059482Y014688D01*
X059482Y014768D01*
X059562Y014848D01*
X059642Y014848D01*
X059562Y014848D02*
X059482Y014928D01*
X059482Y015008D01*
X059562Y015088D01*
X059722Y015088D01*
X059802Y015008D01*
X059286Y015008D02*
X059206Y015088D01*
X059046Y015088D01*
X058966Y015008D01*
X059286Y014688D01*
X059206Y014608D01*
X059046Y014608D01*
X058966Y014688D01*
X058966Y015008D01*
X059286Y015008D02*
X059286Y014688D01*
X059206Y014088D02*
X059046Y014088D01*
X058966Y014008D01*
X058966Y013928D01*
X059046Y013848D01*
X059206Y013848D01*
X059286Y013928D01*
X059286Y014008D01*
X059206Y014088D01*
X059206Y013848D02*
X059286Y013768D01*
X059286Y013688D01*
X059206Y013608D01*
X059046Y013608D01*
X058966Y013688D01*
X058966Y013768D01*
X059046Y013848D01*
X059482Y013928D02*
X059482Y014008D01*
X059562Y014088D01*
X059722Y014088D01*
X059802Y014008D01*
X059482Y013928D02*
X059802Y013608D01*
X059482Y013608D01*
X059562Y013088D02*
X059722Y013088D01*
X059802Y013008D01*
X059562Y013088D02*
X059482Y013008D01*
X059482Y012928D01*
X059802Y012608D01*
X059482Y012608D01*
X059286Y012688D02*
X059286Y012848D01*
X059046Y012848D01*
X058966Y012768D01*
X058966Y012688D01*
X059046Y012608D01*
X059206Y012608D01*
X059286Y012688D01*
X059286Y012848D02*
X059126Y013008D01*
X058966Y013088D01*
X059046Y012088D02*
X059286Y011848D01*
X058966Y011848D01*
X059046Y011608D02*
X059046Y012088D01*
X059482Y012008D02*
X059562Y012088D01*
X059722Y012088D01*
X059802Y012008D01*
X059482Y012008D02*
X059482Y011928D01*
X059802Y011608D01*
X059482Y011608D01*
X059562Y011088D02*
X059722Y011088D01*
X059802Y011008D01*
X059562Y011088D02*
X059482Y011008D01*
X059482Y010928D01*
X059802Y010608D01*
X059482Y010608D01*
X059286Y010608D02*
X058966Y010928D01*
X058966Y011008D01*
X059046Y011088D01*
X059206Y011088D01*
X059286Y011008D01*
X059286Y010608D02*
X058966Y010608D01*
X058001Y010078D02*
X057751Y010328D01*
X057251Y010328D01*
X057001Y010078D01*
X056751Y010328D01*
X056251Y010328D01*
X056001Y010078D01*
X055751Y010328D01*
X055251Y010328D01*
X055001Y010078D01*
X054751Y010328D01*
X054251Y010328D01*
X054001Y010078D01*
X053751Y010328D01*
X053251Y010328D01*
X053001Y010078D01*
X052751Y010328D01*
X052251Y010328D01*
X052001Y010078D01*
X051751Y010328D01*
X051251Y010328D01*
X051001Y010078D01*
X050751Y010328D01*
X050251Y010328D01*
X050001Y010078D01*
X050001Y009578D01*
X050251Y009328D01*
X050751Y009328D01*
X051001Y009578D01*
X051251Y009328D01*
X051751Y009328D01*
X052001Y009578D01*
X052251Y009328D01*
X052751Y009328D01*
X053001Y009578D01*
X053251Y009328D01*
X053751Y009328D01*
X054001Y009578D01*
X054251Y009328D01*
X054751Y009328D01*
X055001Y009578D01*
X055251Y009328D01*
X055751Y009328D01*
X056001Y009578D01*
X056251Y009328D01*
X056751Y009328D01*
X057001Y009578D01*
X057251Y009328D01*
X057751Y009328D01*
X058001Y009578D01*
X058001Y010078D01*
X057691Y010618D02*
X057771Y010698D01*
X057771Y010858D01*
X057691Y010938D01*
X057611Y010938D01*
X057291Y010618D01*
X057291Y010938D01*
X057291Y011133D02*
X057291Y011453D01*
X057291Y011293D02*
X057771Y011293D01*
X057611Y011133D01*
X056721Y011213D02*
X056721Y011373D01*
X056641Y011453D01*
X056321Y011133D01*
X056241Y011213D01*
X056241Y011373D01*
X056321Y011453D01*
X056641Y011453D01*
X056721Y011213D02*
X056641Y011133D01*
X056321Y011133D01*
X056241Y010938D02*
X056241Y010618D01*
X056561Y010938D01*
X056641Y010938D01*
X056721Y010858D01*
X056721Y010698D01*
X056641Y010618D01*
X055721Y010728D02*
X055241Y010728D01*
X055241Y010568D02*
X055241Y010888D01*
X055321Y011083D02*
X055241Y011163D01*
X055241Y011323D01*
X055321Y011403D01*
X055641Y011403D01*
X055721Y011323D01*
X055721Y011163D01*
X055641Y011083D01*
X055561Y011083D01*
X055481Y011163D01*
X055481Y011403D01*
X054771Y011323D02*
X054691Y011403D01*
X054611Y011403D01*
X054531Y011323D01*
X054531Y011163D01*
X054611Y011083D01*
X054691Y011083D01*
X054771Y011163D01*
X054771Y011323D01*
X054531Y011323D02*
X054451Y011403D01*
X054371Y011403D01*
X054291Y011323D01*
X054291Y011163D01*
X054371Y011083D01*
X054451Y011083D01*
X054531Y011163D01*
X054291Y010888D02*
X054291Y010568D01*
X054291Y010728D02*
X054771Y010728D01*
X054611Y010568D01*
X053721Y010728D02*
X053241Y010728D01*
X053241Y010568D02*
X053241Y010888D01*
X053241Y011083D02*
X053321Y011083D01*
X053641Y011403D01*
X053721Y011403D01*
X053721Y011083D01*
X053721Y010728D02*
X053561Y010568D01*
X052771Y010728D02*
X052291Y010728D01*
X052291Y010568D02*
X052291Y010888D01*
X052371Y011083D02*
X052291Y011163D01*
X052291Y011323D01*
X052371Y011403D01*
X052451Y011403D01*
X052531Y011323D01*
X052531Y011083D01*
X052371Y011083D01*
X052531Y011083D02*
X052691Y011243D01*
X052771Y011403D01*
X052771Y010728D02*
X052611Y010568D01*
X051721Y010728D02*
X051241Y010728D01*
X051241Y010568D02*
X051241Y010888D01*
X051321Y011083D02*
X051241Y011163D01*
X051241Y011323D01*
X051321Y011403D01*
X051481Y011403D01*
X051561Y011323D01*
X051561Y011243D01*
X051481Y011083D01*
X051721Y011083D01*
X051721Y011403D01*
X051721Y010728D02*
X051561Y010568D01*
X050771Y010728D02*
X050291Y010728D01*
X050291Y010568D02*
X050291Y010888D01*
X050531Y011083D02*
X050531Y011403D01*
X050771Y011323D02*
X050531Y011083D01*
X050291Y011323D02*
X050771Y011323D01*
X050771Y010728D02*
X050611Y010568D01*
X049001Y010078D02*
X048751Y010328D01*
X048251Y010328D01*
X048001Y010078D01*
X047751Y010328D01*
X047251Y010328D01*
X047001Y010078D01*
X046751Y010328D01*
X046251Y010328D01*
X046001Y010078D01*
X045751Y010328D01*
X045251Y010328D01*
X045001Y010078D01*
X044751Y010328D01*
X044251Y010328D01*
X044001Y010078D01*
X043751Y010328D01*
X043251Y010328D01*
X043001Y010078D01*
X042751Y010328D01*
X042251Y010328D01*
X042001Y010078D01*
X041751Y010328D01*
X041251Y010328D01*
X041001Y010078D01*
X041001Y009578D01*
X041251Y009328D01*
X041751Y009328D01*
X042001Y009578D01*
X042251Y009328D01*
X042751Y009328D01*
X043001Y009578D01*
X043251Y009328D01*
X043751Y009328D01*
X044001Y009578D01*
X044251Y009328D01*
X044751Y009328D01*
X045001Y009578D01*
X045251Y009328D01*
X045751Y009328D01*
X046001Y009578D01*
X046251Y009328D01*
X046751Y009328D01*
X047001Y009578D01*
X047251Y009328D01*
X047751Y009328D01*
X048001Y009578D01*
X048251Y009328D01*
X048751Y009328D01*
X049001Y009578D01*
X049001Y010078D01*
X048691Y010568D02*
X048771Y010648D01*
X048771Y010808D01*
X048691Y010888D01*
X048371Y010568D01*
X048291Y010648D01*
X048291Y010808D01*
X048371Y010888D01*
X048691Y010888D01*
X048691Y010568D02*
X048371Y010568D01*
X047771Y010728D02*
X047291Y010728D01*
X047291Y010568D02*
X047291Y010888D01*
X047611Y010568D02*
X047771Y010728D01*
X046771Y010808D02*
X046771Y010648D01*
X046691Y010568D01*
X046771Y010808D02*
X046691Y010888D01*
X046611Y010888D01*
X046291Y010568D01*
X046291Y010888D01*
X045771Y010808D02*
X045691Y010888D01*
X045611Y010888D01*
X045531Y010808D01*
X045451Y010888D01*
X045371Y010888D01*
X045291Y010808D01*
X045291Y010648D01*
X045371Y010568D01*
X045531Y010728D02*
X045531Y010808D01*
X045771Y010808D02*
X045771Y010648D01*
X045691Y010568D01*
X044771Y010808D02*
X044531Y010568D01*
X044531Y010888D01*
X044291Y010808D02*
X044771Y010808D01*
X043771Y010888D02*
X043771Y010568D01*
X043531Y010568D01*
X043611Y010728D01*
X043611Y010808D01*
X043531Y010888D01*
X043371Y010888D01*
X043291Y010808D01*
X043291Y010648D01*
X043371Y010568D01*
X042771Y010888D02*
X042691Y010728D01*
X042531Y010568D01*
X042531Y010808D01*
X042451Y010888D01*
X042371Y010888D01*
X042291Y010808D01*
X042291Y010648D01*
X042371Y010568D01*
X042531Y010568D01*
X041771Y010568D02*
X041771Y010888D01*
X041691Y010888D01*
X041371Y010568D01*
X041291Y010568D01*
X040401Y010078D02*
X040151Y010328D01*
X039651Y010328D01*
X039401Y010078D01*
X039151Y010328D01*
X038651Y010328D01*
X038401Y010078D01*
X038151Y010328D01*
X037651Y010328D01*
X037401Y010078D01*
X037151Y010328D01*
X036651Y010328D01*
X036401Y010078D01*
X036151Y010328D01*
X035651Y010328D01*
X035401Y010078D01*
X035151Y010328D01*
X034651Y010328D01*
X034401Y010078D01*
X034151Y010328D01*
X033651Y010328D01*
X033401Y010078D01*
X033151Y010328D01*
X032651Y010328D01*
X032401Y010078D01*
X032151Y010328D01*
X031651Y010328D01*
X031401Y010078D01*
X031151Y010328D01*
X030651Y010328D01*
X030401Y010078D01*
X030401Y009578D01*
X030651Y009328D01*
X031151Y009328D01*
X031401Y009578D01*
X031651Y009328D01*
X032151Y009328D01*
X032401Y009578D01*
X032651Y009328D01*
X033151Y009328D01*
X033401Y009578D01*
X033651Y009328D01*
X034151Y009328D01*
X034401Y009578D01*
X034651Y009328D01*
X035151Y009328D01*
X035401Y009578D01*
X035651Y009328D01*
X036151Y009328D01*
X036401Y009578D01*
X036651Y009328D01*
X037151Y009328D01*
X037401Y009578D01*
X037651Y009328D01*
X038151Y009328D01*
X038401Y009578D01*
X038651Y009328D01*
X039151Y009328D01*
X039401Y009578D01*
X039651Y009328D01*
X040151Y009328D01*
X040401Y009578D01*
X040401Y010078D01*
X040091Y010568D02*
X040011Y010568D01*
X039931Y010648D01*
X039931Y010808D01*
X039851Y010888D01*
X039771Y010888D01*
X039691Y010808D01*
X039691Y010648D01*
X039771Y010568D01*
X039851Y010568D01*
X039931Y010648D01*
X039931Y010808D02*
X040011Y010888D01*
X040091Y010888D01*
X040171Y010808D01*
X040171Y010648D01*
X040091Y010568D01*
X039121Y010648D02*
X039041Y010568D01*
X038961Y010568D01*
X038881Y010648D01*
X038881Y010888D01*
X039041Y010888D02*
X039121Y010808D01*
X039121Y010648D01*
X039041Y010888D02*
X038721Y010888D01*
X038641Y010808D01*
X038641Y010648D01*
X038721Y010568D01*
X038171Y010728D02*
X037691Y010728D01*
X037691Y010568D02*
X037691Y010888D01*
X037771Y011083D02*
X038091Y011403D01*
X037771Y011403D01*
X037691Y011323D01*
X037691Y011163D01*
X037771Y011083D01*
X038091Y011083D01*
X038171Y011163D01*
X038171Y011323D01*
X038091Y011403D01*
X038171Y010728D02*
X038011Y010568D01*
X037121Y010728D02*
X036641Y010728D01*
X036641Y010568D02*
X036641Y010888D01*
X036641Y011083D02*
X036641Y011403D01*
X036641Y011243D02*
X037121Y011243D01*
X036961Y011083D01*
X037121Y010728D02*
X036961Y010568D01*
X036121Y010728D02*
X035641Y010728D01*
X035641Y010568D02*
X035641Y010888D01*
X035641Y011083D02*
X035961Y011403D01*
X036041Y011403D01*
X036121Y011323D01*
X036121Y011163D01*
X036041Y011083D01*
X036121Y010728D02*
X035961Y010568D01*
X035641Y011083D02*
X035641Y011403D01*
X035121Y011323D02*
X035041Y011403D01*
X034961Y011403D01*
X034881Y011323D01*
X034801Y011403D01*
X034721Y011403D01*
X034641Y011323D01*
X034641Y011163D01*
X034721Y011083D01*
X034641Y010888D02*
X034641Y010568D01*
X034641Y010728D02*
X035121Y010728D01*
X034961Y010568D01*
X035041Y011083D02*
X035121Y011163D01*
X035121Y011323D01*
X034881Y011323D02*
X034881Y011243D01*
X034121Y011083D02*
X033641Y011403D01*
X034121Y011403D01*
X034121Y011599D02*
X034121Y011839D01*
X034041Y011919D01*
X033721Y011919D01*
X033641Y011839D01*
X033641Y011599D01*
X034121Y011599D01*
X034121Y011083D02*
X033641Y011083D01*
X033721Y010888D02*
X033881Y010888D01*
X033881Y010728D01*
X034041Y010888D02*
X034121Y010808D01*
X034121Y010648D01*
X034041Y010568D01*
X033721Y010568D01*
X033641Y010648D01*
X033641Y010808D01*
X033721Y010888D01*
X033171Y010728D02*
X033011Y010888D01*
X032691Y010888D01*
X032691Y011083D02*
X033171Y011083D01*
X033171Y011323D01*
X033091Y011403D01*
X032931Y011403D01*
X032851Y011323D01*
X032851Y011083D01*
X032851Y011243D02*
X032691Y011403D01*
X032691Y011599D02*
X032691Y011919D01*
X032691Y012114D02*
X033171Y012114D01*
X033171Y012435D01*
X032931Y012275D02*
X032931Y012114D01*
X033171Y011919D02*
X033171Y011599D01*
X032691Y011599D01*
X032931Y011599D02*
X032931Y011759D01*
X032931Y010888D02*
X032931Y010568D01*
X033011Y010568D02*
X033171Y010728D01*
X033011Y010568D02*
X032691Y010568D01*
X033281Y016011D02*
X033601Y016011D01*
X033761Y016171D01*
X033601Y016331D01*
X033281Y016331D01*
X033281Y016526D02*
X033281Y016847D01*
X033281Y016686D02*
X033761Y016686D01*
X033601Y016526D01*
X033521Y016331D02*
X033521Y016011D01*
X033681Y017042D02*
X033761Y017122D01*
X033761Y017282D01*
X033681Y017362D01*
X033361Y017042D01*
X033281Y017122D01*
X033281Y017282D01*
X033361Y017362D01*
X033681Y017362D01*
X033681Y017042D02*
X033361Y017042D01*
X033228Y018368D02*
X032921Y018368D01*
X032768Y018521D01*
X032768Y019135D01*
X033382Y018521D01*
X033228Y018368D01*
X033382Y018521D02*
X033382Y019135D01*
X033228Y019288D01*
X032921Y019288D01*
X032768Y019135D01*
X033689Y019288D02*
X033995Y019135D01*
X034302Y018828D01*
X033842Y018828D01*
X033689Y018674D01*
X033689Y018521D01*
X033842Y018368D01*
X034149Y018368D01*
X034302Y018521D01*
X034302Y018828D01*
X034609Y018828D02*
X034609Y018521D01*
X034763Y018368D01*
X035070Y018368D01*
X035223Y018521D01*
X035223Y018828D02*
X034916Y018981D01*
X034763Y018981D01*
X034609Y018828D01*
X034609Y019288D02*
X035223Y019288D01*
X035223Y018828D01*
X035530Y018981D02*
X035530Y019135D01*
X035684Y019288D01*
X035990Y019288D01*
X036144Y019135D01*
X035530Y018981D02*
X036144Y018368D01*
X035530Y018368D01*
X037372Y018368D02*
X037372Y018981D01*
X037679Y019288D01*
X037986Y018981D01*
X037986Y018368D01*
X038292Y018521D02*
X038292Y018828D01*
X038599Y018828D01*
X038292Y019135D02*
X038446Y019288D01*
X038753Y019288D01*
X038906Y019135D01*
X038906Y018521D01*
X038753Y018368D01*
X038446Y018368D01*
X038292Y018521D01*
X037986Y018828D02*
X037372Y018828D01*
X039213Y019288D02*
X039827Y019288D01*
X039827Y018368D01*
X039213Y018368D01*
X039520Y018828D02*
X039827Y018828D01*
X040134Y019288D02*
X040134Y018368D01*
X040748Y018368D02*
X040748Y019288D01*
X040441Y018981D01*
X040134Y019288D01*
X041976Y019135D02*
X041976Y018521D01*
X042129Y018368D01*
X042436Y018368D01*
X042589Y018521D01*
X042589Y019135D01*
X042436Y019288D01*
X042129Y019288D01*
X041976Y019135D01*
X042896Y019288D02*
X042896Y018368D01*
X043510Y019288D01*
X043510Y018368D01*
X043817Y018368D02*
X044124Y018368D01*
X043971Y018368D02*
X043971Y019288D01*
X044124Y019288D02*
X043817Y019288D01*
X044431Y019288D02*
X044431Y018521D01*
X044584Y018368D01*
X044891Y018368D01*
X045045Y018521D01*
X045045Y019288D01*
X045352Y019135D02*
X045352Y018521D01*
X045505Y018368D01*
X045966Y018368D01*
X045966Y019288D01*
X045505Y019288D01*
X045352Y019135D01*
X046273Y019135D02*
X046273Y018828D01*
X046426Y018674D01*
X046886Y018674D01*
X046886Y018368D02*
X046886Y019288D01*
X046426Y019288D01*
X046273Y019135D01*
X046580Y018674D02*
X046273Y018368D01*
X047193Y018368D02*
X047193Y018981D01*
X047500Y019288D01*
X047807Y018981D01*
X047807Y018368D01*
X047807Y018828D02*
X047193Y018828D01*
X047281Y027026D02*
X047601Y027026D01*
X047761Y027186D01*
X047601Y027347D01*
X047281Y027347D01*
X047521Y027347D02*
X047521Y027026D01*
X047521Y027542D02*
X047521Y027862D01*
X047761Y027782D02*
X047521Y027542D01*
X047281Y027782D02*
X047761Y027782D01*
X048231Y027782D02*
X048231Y027622D01*
X048311Y027542D01*
X048471Y027542D02*
X048551Y027702D01*
X048551Y027782D01*
X048471Y027862D01*
X048311Y027862D01*
X048231Y027782D01*
X048471Y027542D02*
X048711Y027542D01*
X048711Y027862D01*
X048751Y028328D02*
X049001Y028578D01*
X049251Y028328D01*
X049751Y028328D01*
X050001Y028578D01*
X050251Y028328D01*
X050751Y028328D01*
X051001Y028578D01*
X051001Y029078D01*
X050751Y029328D01*
X050251Y029328D01*
X050001Y029078D01*
X049751Y029328D01*
X049251Y029328D01*
X049001Y029078D01*
X048751Y029328D01*
X048251Y029328D01*
X048001Y029078D01*
X047751Y029328D01*
X047251Y029328D01*
X047001Y029078D01*
X046751Y029328D01*
X046251Y029328D01*
X046001Y029078D01*
X045751Y029328D01*
X045251Y029328D01*
X045001Y029078D01*
X044751Y029328D01*
X044251Y029328D01*
X044001Y029078D01*
X043751Y029328D01*
X043251Y029328D01*
X043001Y029078D01*
X043001Y028578D01*
X043251Y028328D01*
X043751Y028328D01*
X044001Y028578D01*
X044251Y028328D01*
X044751Y028328D01*
X045001Y028578D01*
X045251Y028328D01*
X045751Y028328D01*
X046001Y028578D01*
X046251Y028328D01*
X046751Y028328D01*
X047001Y028578D01*
X047251Y028328D01*
X047751Y028328D01*
X048001Y028578D01*
X048251Y028328D01*
X048751Y028328D01*
X049231Y027782D02*
X049311Y027862D01*
X049391Y027862D01*
X049471Y027782D01*
X049471Y027542D01*
X049311Y027542D01*
X049231Y027622D01*
X049231Y027782D01*
X049471Y027542D02*
X049631Y027702D01*
X049711Y027862D01*
X050281Y027542D02*
X050361Y027542D01*
X050681Y027862D01*
X050761Y027862D01*
X050761Y027542D01*
X050601Y027347D02*
X050281Y027347D01*
X050521Y027347D02*
X050521Y027026D01*
X050601Y027026D02*
X050281Y027026D01*
X050601Y027026D02*
X050761Y027186D01*
X050601Y027347D01*
X052281Y027347D02*
X052601Y027347D01*
X052761Y027186D01*
X052601Y027026D01*
X052281Y027026D01*
X052521Y027026D02*
X052521Y027347D01*
X052601Y027542D02*
X052681Y027542D01*
X052761Y027622D01*
X052761Y027782D01*
X052681Y027862D01*
X052601Y027862D01*
X052521Y027782D01*
X052521Y027622D01*
X052601Y027542D01*
X052521Y027622D02*
X052441Y027542D01*
X052361Y027542D01*
X052281Y027622D01*
X052281Y027782D01*
X052361Y027862D01*
X052441Y027862D01*
X052521Y027782D01*
X052751Y028328D02*
X052251Y028328D01*
X052001Y028578D01*
X052001Y029078D01*
X052251Y029328D01*
X052751Y029328D01*
X053001Y029078D01*
X053251Y029328D01*
X053751Y029328D01*
X054001Y029078D01*
X054251Y029328D01*
X054751Y029328D01*
X055001Y029078D01*
X055251Y029328D01*
X055751Y029328D01*
X056001Y029078D01*
X056251Y029328D01*
X056751Y029328D01*
X057001Y029078D01*
X057251Y029328D01*
X057751Y029328D01*
X058001Y029078D01*
X058251Y029328D01*
X058751Y029328D01*
X059001Y029078D01*
X059251Y029328D01*
X059751Y029328D01*
X060001Y029078D01*
X060001Y028578D01*
X059751Y028328D01*
X059251Y028328D01*
X059001Y028578D01*
X058751Y028328D01*
X058251Y028328D01*
X058001Y028578D01*
X057751Y028328D01*
X057251Y028328D01*
X057001Y028578D01*
X056751Y028328D01*
X056251Y028328D01*
X056001Y028578D01*
X055751Y028328D01*
X055251Y028328D01*
X055001Y028578D01*
X054751Y028328D01*
X054251Y028328D01*
X054001Y028578D01*
X053751Y028328D01*
X053251Y028328D01*
X053001Y028578D01*
X052751Y028328D01*
X053281Y027782D02*
X053361Y027862D01*
X053681Y027862D01*
X053761Y027782D01*
X053761Y027622D01*
X053681Y027542D01*
X053601Y027542D01*
X053521Y027622D01*
X053521Y027862D01*
X053281Y027782D02*
X053281Y027622D01*
X053361Y027542D01*
X053281Y027347D02*
X053601Y027347D01*
X053761Y027186D01*
X053601Y027026D01*
X053281Y027026D01*
X053521Y027026D02*
X053521Y027347D01*
X055281Y027347D02*
X055281Y027026D01*
X055281Y027186D02*
X055761Y027186D01*
X055601Y027026D01*
X055601Y026831D02*
X055281Y026831D01*
X055521Y026831D02*
X055521Y026511D01*
X055601Y026511D02*
X055761Y026671D01*
X055601Y026831D01*
X055601Y026511D02*
X055281Y026511D01*
X056281Y026511D02*
X056601Y026511D01*
X056761Y026671D01*
X056601Y026831D01*
X056281Y026831D01*
X056281Y027026D02*
X056281Y027347D01*
X056281Y027186D02*
X056761Y027186D01*
X056601Y027026D01*
X056521Y026831D02*
X056521Y026511D01*
X057281Y026511D02*
X057601Y026511D01*
X057761Y026671D01*
X057601Y026831D01*
X057281Y026831D01*
X057281Y027026D02*
X057281Y027347D01*
X057281Y027186D02*
X057761Y027186D01*
X057601Y027026D01*
X057521Y026831D02*
X057521Y026511D01*
X058281Y026511D02*
X058601Y026511D01*
X058761Y026671D01*
X058601Y026831D01*
X058281Y026831D01*
X058281Y027026D02*
X058281Y027347D01*
X058281Y027186D02*
X058761Y027186D01*
X058601Y027026D01*
X058521Y026831D02*
X058521Y026511D01*
X058966Y026008D02*
X059046Y026088D01*
X059206Y026088D01*
X059286Y026008D01*
X059482Y026088D02*
X059802Y026088D01*
X059802Y025848D01*
X059642Y025928D01*
X059562Y025928D01*
X059482Y025848D01*
X059482Y025688D01*
X059562Y025608D01*
X059722Y025608D01*
X059802Y025688D01*
X059286Y025608D02*
X058966Y025928D01*
X058966Y026008D01*
X058966Y025608D02*
X059286Y025608D01*
X059206Y025088D02*
X059046Y025088D01*
X058966Y025008D01*
X059286Y024688D01*
X059206Y024608D01*
X059046Y024608D01*
X058966Y024688D01*
X058966Y025008D01*
X059206Y025088D02*
X059286Y025008D01*
X059286Y024688D01*
X059482Y024688D02*
X059562Y024608D01*
X059722Y024608D01*
X059802Y024688D01*
X059802Y024848D02*
X059642Y024928D01*
X059562Y024928D01*
X059482Y024848D01*
X059482Y024688D01*
X059802Y024848D02*
X059802Y025088D01*
X059482Y025088D01*
X059562Y024088D02*
X059802Y023848D01*
X059482Y023848D01*
X059286Y023928D02*
X059286Y024008D01*
X059206Y024088D01*
X059046Y024088D01*
X058966Y024008D01*
X058966Y023928D01*
X059046Y023848D01*
X059206Y023848D01*
X059286Y023928D01*
X059206Y023848D02*
X059286Y023768D01*
X059286Y023688D01*
X059206Y023608D01*
X059046Y023608D01*
X058966Y023688D01*
X058966Y023768D01*
X059046Y023848D01*
X059562Y023608D02*
X059562Y024088D01*
X059562Y023088D02*
X059802Y022848D01*
X059482Y022848D01*
X059286Y022848D02*
X059286Y022688D01*
X059206Y022608D01*
X059046Y022608D01*
X058966Y022688D01*
X058966Y022768D01*
X059046Y022848D01*
X059286Y022848D01*
X059126Y023008D01*
X058966Y023088D01*
X059562Y023088D02*
X059562Y022608D01*
X059562Y022088D02*
X059802Y021848D01*
X059482Y021848D01*
X059286Y021848D02*
X059046Y022088D01*
X059046Y021608D01*
X058966Y021848D02*
X059286Y021848D01*
X059562Y021608D02*
X059562Y022088D01*
X059562Y021088D02*
X059802Y020848D01*
X059482Y020848D01*
X059286Y021008D02*
X059206Y021088D01*
X059046Y021088D01*
X058966Y021008D01*
X058966Y020928D01*
X059286Y020608D01*
X058966Y020608D01*
X059046Y020088D02*
X058966Y020008D01*
X059286Y019688D01*
X059206Y019608D01*
X059046Y019608D01*
X058966Y019688D01*
X058966Y020008D01*
X059046Y020088D02*
X059206Y020088D01*
X059286Y020008D01*
X059286Y019688D01*
X059482Y019848D02*
X059802Y019848D01*
X059562Y020088D01*
X059562Y019608D01*
X059562Y019088D02*
X059482Y019008D01*
X059482Y018928D01*
X059562Y018848D01*
X059482Y018768D01*
X059482Y018688D01*
X059562Y018608D01*
X059722Y018608D01*
X059802Y018688D01*
X059642Y018848D02*
X059562Y018848D01*
X059562Y019088D02*
X059722Y019088D01*
X059802Y019008D01*
X059286Y019008D02*
X059286Y018928D01*
X059206Y018848D01*
X059046Y018848D01*
X058966Y018768D01*
X058966Y018688D01*
X059046Y018608D01*
X059206Y018608D01*
X059286Y018688D01*
X059286Y018768D01*
X059206Y018848D01*
X059046Y018848D02*
X058966Y018928D01*
X058966Y019008D01*
X059046Y019088D01*
X059206Y019088D01*
X059286Y019008D01*
X059562Y018088D02*
X059482Y018008D01*
X059482Y017928D01*
X059562Y017848D01*
X059482Y017768D01*
X059482Y017688D01*
X059562Y017608D01*
X059722Y017608D01*
X059802Y017688D01*
X059642Y017848D02*
X059562Y017848D01*
X059562Y018088D02*
X059722Y018088D01*
X059802Y018008D01*
X059286Y017848D02*
X059286Y017688D01*
X059206Y017608D01*
X059046Y017608D01*
X058966Y017688D01*
X058966Y017768D01*
X059046Y017848D01*
X059286Y017848D01*
X059126Y018008D01*
X058966Y018088D01*
X059046Y017088D02*
X059286Y016848D01*
X058966Y016848D01*
X059046Y016608D02*
X059046Y017088D01*
X059482Y017008D02*
X059482Y016928D01*
X059562Y016848D01*
X059482Y016768D01*
X059482Y016688D01*
X059562Y016608D01*
X059722Y016608D01*
X059802Y016688D01*
X059642Y016848D02*
X059562Y016848D01*
X059482Y017008D02*
X059562Y017088D01*
X059722Y017088D01*
X059802Y017008D01*
X059722Y016088D02*
X059562Y016088D01*
X059482Y016008D01*
X059482Y015928D01*
X059562Y015848D01*
X059482Y015768D01*
X059482Y015688D01*
X059562Y015608D01*
X059722Y015608D01*
X059802Y015688D01*
X059642Y015848D02*
X059562Y015848D01*
X059802Y016008D02*
X059722Y016088D01*
X059286Y016008D02*
X059206Y016088D01*
X059046Y016088D01*
X058966Y016008D01*
X058966Y015928D01*
X059286Y015608D01*
X058966Y015608D01*
X059562Y020608D02*
X059562Y021088D01*
X062406Y022078D02*
X062726Y022078D01*
X062646Y023598D02*
X062486Y023598D01*
X062406Y023678D01*
X062406Y023998D01*
X062486Y024078D01*
X062646Y024078D01*
X062726Y023998D01*
X062726Y023918D01*
X062646Y023838D01*
X062406Y023838D01*
X062646Y023598D02*
X062726Y023678D01*
X062922Y023838D02*
X063242Y023838D01*
X063002Y024078D01*
X063002Y023598D01*
X063002Y024598D02*
X063162Y024598D01*
X063242Y024678D01*
X063242Y024838D02*
X063082Y024918D01*
X063002Y024918D01*
X062922Y024838D01*
X062922Y024678D01*
X063002Y024598D01*
X062726Y024598D02*
X062406Y024598D01*
X062566Y024598D02*
X062566Y025078D01*
X062726Y024918D01*
X062922Y025078D02*
X063242Y025078D01*
X063242Y024838D01*
X063162Y025598D02*
X063242Y025678D01*
X063162Y025598D02*
X063002Y025598D01*
X062922Y025678D01*
X062922Y025838D01*
X063002Y025918D01*
X063082Y025918D01*
X063242Y025838D01*
X063242Y026078D01*
X062922Y026078D01*
X062726Y025998D02*
X062646Y026078D01*
X062486Y026078D01*
X062406Y025998D01*
X062406Y025918D01*
X062486Y025838D01*
X062406Y025758D01*
X062406Y025678D01*
X062486Y025598D01*
X062646Y025598D01*
X062726Y025678D01*
X062566Y025838D02*
X062486Y025838D01*
X061751Y026328D02*
X060251Y026328D01*
X060001Y026578D01*
X060001Y027078D01*
X060251Y027328D01*
X061751Y027328D01*
X062001Y027078D01*
X062001Y026578D01*
X061751Y026328D01*
X059711Y026671D02*
X059551Y026831D01*
X059231Y026831D01*
X059231Y027026D02*
X059231Y027347D01*
X059231Y027186D02*
X059711Y027186D01*
X059551Y027026D01*
X059471Y026831D02*
X059471Y026511D01*
X059551Y026511D02*
X059711Y026671D01*
X059551Y026511D02*
X059231Y026511D01*
X059311Y027542D02*
X059231Y027622D01*
X059231Y027782D01*
X059311Y027862D01*
X059471Y027862D01*
X059551Y027782D01*
X059551Y027702D01*
X059471Y027542D01*
X059711Y027542D01*
X059711Y027862D01*
X058761Y027782D02*
X058521Y027542D01*
X058521Y027862D01*
X058281Y027782D02*
X058761Y027782D01*
X057761Y027782D02*
X057681Y027862D01*
X057601Y027862D01*
X057521Y027782D01*
X057441Y027862D01*
X057361Y027862D01*
X057281Y027782D01*
X057281Y027622D01*
X057361Y027542D01*
X057521Y027702D02*
X057521Y027782D01*
X057761Y027782D02*
X057761Y027622D01*
X057681Y027542D01*
X056761Y027622D02*
X056681Y027542D01*
X056761Y027622D02*
X056761Y027782D01*
X056681Y027862D01*
X056601Y027862D01*
X056281Y027542D01*
X056281Y027862D01*
X055761Y027702D02*
X055281Y027702D01*
X055281Y027542D02*
X055281Y027862D01*
X055601Y027542D02*
X055761Y027702D01*
X048711Y027186D02*
X048551Y027026D01*
X048231Y027026D01*
X048471Y027026D02*
X048471Y027347D01*
X048551Y027347D02*
X048231Y027347D01*
X048551Y027347D02*
X048711Y027186D01*
X046761Y027186D02*
X046601Y027026D01*
X046281Y027026D01*
X046521Y027026D02*
X046521Y027347D01*
X046601Y027347D02*
X046281Y027347D01*
X046361Y027542D02*
X046281Y027622D01*
X046281Y027782D01*
X046361Y027862D01*
X046441Y027862D01*
X046521Y027782D01*
X046521Y027702D01*
X046521Y027782D02*
X046601Y027862D01*
X046681Y027862D01*
X046761Y027782D01*
X046761Y027622D01*
X046681Y027542D01*
X046601Y027347D02*
X046761Y027186D01*
X045761Y027186D02*
X045601Y027026D01*
X045281Y027026D01*
X045521Y027026D02*
X045521Y027347D01*
X045601Y027347D02*
X045281Y027347D01*
X045281Y027542D02*
X045601Y027862D01*
X045681Y027862D01*
X045761Y027782D01*
X045761Y027622D01*
X045681Y027542D01*
X045601Y027347D02*
X045761Y027186D01*
X045281Y027542D02*
X045281Y027862D01*
X044661Y027702D02*
X044181Y027702D01*
X044181Y027542D02*
X044181Y027862D01*
X043761Y027782D02*
X043681Y027862D01*
X043361Y027542D01*
X043281Y027622D01*
X043281Y027782D01*
X043361Y027862D01*
X043681Y027862D01*
X043761Y027782D02*
X043761Y027622D01*
X043681Y027542D01*
X043361Y027542D01*
X043281Y027347D02*
X043601Y027347D01*
X043761Y027186D01*
X043601Y027026D01*
X043281Y027026D01*
X043521Y027026D02*
X043521Y027347D01*
X044181Y027347D02*
X044501Y027347D01*
X044661Y027186D01*
X044501Y027026D01*
X044181Y027026D01*
X044421Y027026D02*
X044421Y027347D01*
X044501Y027542D02*
X044661Y027702D01*
X042001Y028578D02*
X042001Y029078D01*
X041751Y029328D01*
X041251Y029328D01*
X041001Y029078D01*
X040751Y029328D01*
X040251Y029328D01*
X040001Y029078D01*
X039751Y029328D01*
X039251Y029328D01*
X039001Y029078D01*
X038751Y029328D01*
X038251Y029328D01*
X038001Y029078D01*
X037751Y029328D01*
X037251Y029328D01*
X037001Y029078D01*
X036751Y029328D01*
X036251Y029328D01*
X036001Y029078D01*
X035751Y029328D01*
X035251Y029328D01*
X035001Y029078D01*
X034751Y029328D01*
X034251Y029328D01*
X034001Y029078D01*
X034001Y028578D01*
X034251Y028328D01*
X034751Y028328D01*
X035001Y028578D01*
X035251Y028328D01*
X035751Y028328D01*
X036001Y028578D01*
X036251Y028328D01*
X036751Y028328D01*
X037001Y028578D01*
X037251Y028328D01*
X037751Y028328D01*
X038001Y028578D01*
X038251Y028328D01*
X038751Y028328D01*
X039001Y028578D01*
X039251Y028328D01*
X039751Y028328D01*
X040001Y028578D01*
X040251Y028328D01*
X040751Y028328D01*
X041001Y028578D01*
X041251Y028328D01*
X041751Y028328D01*
X042001Y028578D01*
X055721Y010728D02*
X055561Y010568D01*
X060001Y010078D02*
X060251Y010328D01*
X061751Y010328D01*
X062001Y010078D01*
X062001Y009578D01*
X061751Y009328D01*
X060251Y009328D01*
X060001Y009578D01*
X060001Y010078D01*
X021720Y019319D02*
X021720Y019910D01*
X021699Y019922D01*
X021680Y019937D01*
X021662Y019954D01*
X021648Y019974D01*
X021636Y019996D01*
X021628Y020019D01*
X021623Y020043D01*
X021621Y020067D01*
X021623Y020091D01*
X021628Y020115D01*
X021636Y020138D01*
X021648Y020160D01*
X021662Y020180D01*
X021680Y020197D01*
X021699Y020212D01*
X021720Y020224D01*
X021720Y020225D02*
X021720Y020815D01*
X021051Y020815D01*
X021051Y020225D01*
X021051Y020224D02*
X021072Y020212D01*
X021091Y020197D01*
X021109Y020180D01*
X021123Y020160D01*
X021135Y020138D01*
X021143Y020115D01*
X021148Y020091D01*
X021150Y020067D01*
X021148Y020043D01*
X021143Y020019D01*
X021135Y019996D01*
X021123Y019974D01*
X021109Y019954D01*
X021091Y019937D01*
X021072Y019922D01*
X021051Y019910D01*
X021051Y019319D01*
X021720Y019319D01*
D317*
X036331Y026206D02*
X036671Y026206D01*
X036671Y026376D01*
X036614Y026433D01*
X036501Y026433D01*
X036444Y026376D01*
X036444Y026206D01*
X036444Y026319D02*
X036331Y026433D01*
X036331Y026574D02*
X036331Y026801D01*
X036388Y026943D02*
X036331Y026999D01*
X036331Y027113D01*
X036388Y027169D01*
X036444Y027169D01*
X036501Y027113D01*
X036501Y026999D01*
X036558Y026943D01*
X036614Y026943D01*
X036671Y026999D01*
X036671Y027113D01*
X036614Y027169D01*
X036671Y027311D02*
X036331Y027311D01*
X036331Y027538D01*
X036501Y027424D02*
X036501Y027311D01*
X036671Y027311D02*
X036671Y027538D01*
X036671Y027679D02*
X036671Y027906D01*
X036671Y027793D02*
X036331Y027793D01*
X037331Y027793D02*
X037444Y027906D01*
X037671Y027906D01*
X037671Y027679D02*
X037444Y027679D01*
X037331Y027793D01*
X037388Y027538D02*
X037331Y027481D01*
X037331Y027368D01*
X037388Y027311D01*
X037388Y027183D02*
X037331Y027183D01*
X037331Y027127D01*
X037388Y027127D01*
X037388Y027183D01*
X037388Y026985D02*
X037331Y026929D01*
X037331Y026815D01*
X037388Y026758D01*
X037501Y026872D02*
X037501Y026929D01*
X037444Y026985D01*
X037388Y026985D01*
X037501Y026929D02*
X037558Y026985D01*
X037614Y026985D01*
X037671Y026929D01*
X037671Y026815D01*
X037614Y026758D01*
X037614Y027311D02*
X037671Y027368D01*
X037671Y027481D01*
X037614Y027538D01*
X037558Y027538D01*
X037501Y027481D01*
X037444Y027538D01*
X037388Y027538D01*
X037501Y027481D02*
X037501Y027424D01*
X038331Y027368D02*
X038388Y027311D01*
X038331Y027368D02*
X038331Y027481D01*
X038388Y027538D01*
X038501Y027538D01*
X038558Y027481D01*
X038558Y027424D01*
X038501Y027311D01*
X038671Y027311D01*
X038671Y027538D01*
X038671Y027679D02*
X038444Y027679D01*
X038331Y027793D01*
X038444Y027906D01*
X038671Y027906D01*
X039331Y027849D02*
X039388Y027906D01*
X039614Y027906D01*
X039671Y027849D01*
X039671Y027679D01*
X039331Y027679D01*
X039331Y027849D01*
X039331Y027538D02*
X039671Y027538D01*
X039671Y027311D02*
X039331Y027538D01*
X039331Y027311D02*
X039671Y027311D01*
X039614Y027169D02*
X039671Y027113D01*
X039671Y026999D01*
X039614Y026943D01*
X039388Y026943D01*
X039331Y026999D01*
X039331Y027113D01*
X039388Y027169D01*
X039501Y027169D01*
X039501Y027056D01*
X040331Y026999D02*
X040331Y027113D01*
X040388Y027169D01*
X040501Y027169D01*
X040501Y027056D01*
X040614Y026943D02*
X040388Y026943D01*
X040331Y026999D01*
X040614Y026943D02*
X040671Y026999D01*
X040671Y027113D01*
X040614Y027169D01*
X040671Y027311D02*
X040331Y027538D01*
X040671Y027538D01*
X040671Y027679D02*
X040671Y027849D01*
X040614Y027906D01*
X040388Y027906D01*
X040331Y027849D01*
X040331Y027679D01*
X040671Y027679D01*
X040671Y027311D02*
X040331Y027311D01*
X041331Y027434D02*
X041331Y027547D01*
X041331Y027490D02*
X041558Y027490D01*
X041558Y027434D01*
X041671Y027490D02*
X041728Y027490D01*
X041671Y027292D02*
X041444Y027292D01*
X041331Y027179D01*
X041444Y027065D01*
X041671Y027065D01*
X041558Y027679D02*
X041558Y027849D01*
X041501Y027906D01*
X041331Y027906D01*
X041331Y027679D02*
X041558Y027679D01*
X036671Y026801D02*
X036671Y026574D01*
X036331Y026574D01*
X036501Y026574D02*
X036501Y026688D01*
X048001Y020078D02*
X048001Y019578D01*
X048251Y019328D01*
X049751Y019328D01*
X050001Y019078D01*
X050001Y018578D01*
X049751Y018328D01*
X048251Y018328D01*
X048001Y018078D01*
X048001Y017578D01*
X048251Y017328D01*
X049751Y017328D01*
X050001Y017578D01*
X050001Y018078D01*
X049751Y018328D01*
X049751Y019328D02*
X050001Y019578D01*
X050001Y020078D01*
X049751Y020328D01*
X048251Y020328D01*
X048001Y020078D01*
X048251Y019328D02*
X048001Y019078D01*
X048001Y018578D01*
X048251Y018328D01*
X060001Y018578D02*
X060251Y018328D01*
X061751Y018328D01*
X062001Y018578D01*
X062001Y019078D01*
X061751Y019328D01*
X060251Y019328D01*
X060001Y019078D01*
X060001Y018578D01*
X060251Y018328D02*
X060001Y018078D01*
X060001Y017578D01*
X060251Y017328D01*
X061751Y017328D01*
X062001Y017078D01*
X062001Y016578D01*
X061751Y016328D01*
X060251Y016328D01*
X060001Y016078D01*
X060001Y015578D01*
X060251Y015328D01*
X061751Y015328D01*
X062001Y015078D01*
X062001Y014578D01*
X061751Y014328D01*
X060251Y014328D01*
X060001Y014078D01*
X060001Y013578D01*
X060251Y013328D01*
X061751Y013328D01*
X062001Y013078D01*
X062001Y012578D01*
X061751Y012328D01*
X060251Y012328D01*
X060001Y012078D01*
X060001Y011578D01*
X060251Y011328D01*
X061751Y011328D01*
X062001Y011578D01*
X062001Y012078D01*
X061751Y012328D01*
X061751Y013328D02*
X062001Y013578D01*
X062001Y014078D01*
X061751Y014328D01*
X060251Y014328D02*
X060001Y014578D01*
X060001Y015078D01*
X060251Y015328D01*
X060251Y016328D02*
X060001Y016578D01*
X060001Y017078D01*
X060251Y017328D01*
X061751Y017328D02*
X062001Y017578D01*
X062001Y018078D01*
X061751Y018328D01*
X061751Y019328D02*
X062001Y019578D01*
X062001Y020078D01*
X061751Y020328D01*
X060251Y020328D01*
X060001Y020078D01*
X060001Y019578D01*
X060251Y019328D01*
X060251Y020328D02*
X060001Y020578D01*
X060001Y021078D01*
X060251Y021328D01*
X061751Y021328D01*
X062001Y021078D01*
X062001Y020578D01*
X061751Y020328D01*
X061751Y021328D02*
X062001Y021578D01*
X062001Y022078D01*
X061751Y022328D01*
X060251Y022328D01*
X060001Y022078D01*
X060001Y021578D01*
X060251Y021328D01*
X060251Y022328D02*
X060001Y022578D01*
X060001Y023078D01*
X060251Y023328D01*
X061751Y023328D01*
X062001Y023078D01*
X062001Y022578D01*
X061751Y022328D01*
X061751Y023328D02*
X062001Y023578D01*
X062001Y024078D01*
X061751Y024328D01*
X060251Y024328D01*
X060001Y024078D01*
X060001Y023578D01*
X060251Y023328D01*
X060251Y024328D02*
X060001Y024578D01*
X060001Y025078D01*
X060251Y025328D01*
X061751Y025328D01*
X062001Y025078D01*
X062001Y024578D01*
X061751Y024328D01*
X061751Y025328D02*
X062001Y025578D01*
X062001Y026078D01*
X061751Y026328D01*
X062362Y026804D02*
X062362Y027031D01*
X062419Y027088D01*
X062589Y027088D01*
X062589Y026748D01*
X062419Y026748D01*
X062362Y026804D01*
X062731Y026748D02*
X062731Y027088D01*
X062957Y027088D02*
X062731Y026748D01*
X062957Y026748D02*
X062957Y027088D01*
X063099Y027031D02*
X063156Y027088D01*
X063269Y027088D01*
X063326Y027031D01*
X063326Y026804D01*
X063269Y026748D01*
X063156Y026748D01*
X063099Y026804D01*
X063099Y026918D01*
X063212Y026918D01*
X060251Y026328D02*
X060001Y026078D01*
X060001Y025578D01*
X060251Y025328D01*
X061751Y016328D02*
X062001Y016078D01*
X062001Y015578D01*
X061751Y015328D01*
X060251Y013328D02*
X060001Y013078D01*
X060001Y012578D01*
X060251Y012328D01*
X060251Y011328D02*
X060001Y011078D01*
X060001Y010578D01*
X060251Y010328D01*
X061751Y010328D02*
X062001Y010578D01*
X062001Y011078D01*
X061751Y011328D01*
X056456Y061442D02*
X056706Y061692D01*
X056706Y062192D01*
X056456Y062442D01*
X056706Y062692D01*
X056706Y063192D01*
X056456Y063442D01*
X056706Y063692D01*
X056706Y064192D01*
X056456Y064442D01*
X056706Y064692D01*
X056706Y065192D01*
X056456Y065442D01*
X056706Y065692D01*
X056706Y066192D01*
X056456Y066442D01*
X056706Y066692D01*
X056706Y067192D01*
X056456Y067442D01*
X056706Y067692D01*
X056706Y068192D01*
X056456Y068442D01*
X056706Y068692D01*
X056706Y069192D01*
X056456Y069442D01*
X056706Y069692D01*
X056706Y070192D01*
X056456Y070442D01*
X056706Y070692D01*
X056706Y071192D01*
X056456Y071442D01*
X055956Y071442D01*
X055706Y071192D01*
X055706Y070692D01*
X055956Y070442D01*
X055706Y070192D01*
X055706Y069692D01*
X055956Y069442D01*
X056456Y069442D01*
X055956Y069442D02*
X055706Y069192D01*
X055706Y068692D01*
X055956Y068442D01*
X055706Y068192D01*
X055706Y067692D01*
X055956Y067442D01*
X055706Y067192D01*
X055706Y066692D01*
X055956Y066442D01*
X056456Y066442D01*
X055956Y066442D02*
X055706Y066192D01*
X055706Y065692D01*
X055956Y065442D01*
X055706Y065192D01*
X055706Y064692D01*
X055956Y064442D01*
X055706Y064192D01*
X055706Y063692D01*
X055956Y063442D01*
X056456Y063442D01*
X055956Y063442D02*
X055706Y063192D01*
X055706Y062692D01*
X055956Y062442D01*
X055706Y062192D01*
X055706Y061692D01*
X055956Y061442D01*
X056456Y061442D01*
X056456Y062442D02*
X055956Y062442D01*
X055956Y064442D02*
X056456Y064442D01*
X056456Y065442D02*
X055956Y065442D01*
X055956Y067442D02*
X056456Y067442D01*
X056456Y068442D02*
X055956Y068442D01*
X055956Y070442D02*
X056456Y070442D01*
X030866Y067130D02*
X030866Y066630D01*
X030616Y066380D01*
X030866Y066130D01*
X030866Y065630D01*
X030616Y065380D01*
X030866Y065130D01*
X030866Y064630D01*
X030616Y064380D01*
X029116Y064380D01*
X028866Y064630D01*
X028866Y065130D01*
X029116Y065380D01*
X028866Y065630D01*
X028866Y066130D01*
X029116Y066380D01*
X028866Y066630D01*
X028866Y067130D01*
X029116Y067380D01*
X030616Y067380D01*
X030866Y067130D01*
D318*
X060501Y027648D02*
X061501Y027648D01*
X061501Y027348D01*
X062001Y027328D02*
X063181Y027328D01*
X060501Y027358D02*
X060501Y027648D01*
X061501Y009308D02*
X061501Y009048D01*
X060501Y009048D01*
X060201Y009048D01*
X060501Y009048D02*
X060501Y009298D01*
D319*
X060120Y009303D02*
X060120Y009153D01*
X060020Y009203D01*
X059970Y009203D01*
X059920Y009153D01*
X059920Y009053D01*
X059970Y009003D01*
X060070Y009003D01*
X060120Y009053D01*
X060120Y009303D02*
X059920Y009303D01*
X059798Y009303D02*
X059798Y009103D01*
X059698Y009003D01*
X059598Y009103D01*
X059598Y009303D01*
X047901Y017228D02*
X047903Y017241D01*
X047908Y017254D01*
X047917Y017265D01*
X047928Y017272D01*
X047941Y017277D01*
X047954Y017278D01*
X047968Y017275D01*
X047980Y017269D01*
X047990Y017260D01*
X047997Y017248D01*
X048001Y017235D01*
X048001Y017221D01*
X047997Y017208D01*
X047990Y017196D01*
X047980Y017187D01*
X047968Y017181D01*
X047954Y017178D01*
X047941Y017179D01*
X047928Y017184D01*
X047917Y017191D01*
X047908Y017202D01*
X047903Y017215D01*
X047901Y017228D01*
X028001Y025078D02*
X022751Y025078D01*
X022751Y028578D01*
X028001Y028578D01*
X028001Y025078D01*
X027251Y017078D02*
X025001Y017078D01*
X027251Y017078D02*
X027251Y012578D01*
X025001Y012578D01*
X028241Y064655D02*
X028241Y064955D01*
X028241Y064805D02*
X028691Y064805D01*
X028541Y064655D01*
X031041Y064630D02*
X031041Y064480D01*
X031116Y064405D01*
X031266Y064480D02*
X031266Y064630D01*
X031191Y064705D01*
X031116Y064705D01*
X031041Y064630D01*
X031266Y064480D02*
X031341Y064405D01*
X031416Y064405D01*
X031491Y064480D01*
X031491Y064630D01*
X031416Y064705D01*
X031491Y064865D02*
X031191Y064865D01*
X031041Y065015D01*
X031191Y065165D01*
X031491Y065165D01*
X031341Y065325D02*
X031491Y065475D01*
X031041Y065475D01*
X031041Y065325D02*
X031041Y065626D01*
X030366Y067505D02*
X030366Y067730D01*
X030291Y067805D01*
X030216Y067805D01*
X030141Y067730D01*
X030141Y067580D01*
X030216Y067505D01*
X030366Y067505D01*
X030516Y067655D01*
X030591Y067805D01*
X055011Y070191D02*
X055011Y070266D01*
X055086Y070341D01*
X055461Y070341D01*
X055461Y070266D02*
X055461Y070416D01*
X055461Y070576D02*
X055461Y070801D01*
X055386Y070876D01*
X055236Y070876D01*
X055161Y070801D01*
X055161Y070576D01*
X055011Y070576D02*
X055461Y070576D01*
X055386Y071036D02*
X055461Y071111D01*
X055461Y071262D01*
X055386Y071337D01*
X055311Y071337D01*
X055011Y071036D01*
X055011Y071337D01*
X055011Y070191D02*
X055086Y070116D01*
D320*
X021600Y019493D02*
X021600Y019383D01*
X021637Y019383D02*
X021563Y019383D01*
X021637Y019457D02*
X021600Y019493D01*
D321*
X020382Y019048D02*
X020382Y018587D01*
X020689Y019048D01*
X020689Y018587D01*
X020996Y018587D02*
X020996Y019048D01*
X021149Y019048D02*
X020842Y019048D01*
X021303Y018971D02*
X021303Y018894D01*
X021380Y018817D01*
X021610Y018817D01*
X021610Y018587D02*
X021610Y019048D01*
X021380Y019048D01*
X021303Y018971D01*
X021380Y018817D02*
X021303Y018741D01*
X021303Y018664D01*
X021380Y018587D01*
X021610Y018587D01*
M02*
