G75*
%MOIN*%
%OFA0B0*%
%FSLAX24Y24*%
%IPPOS*%
%LPD*%
%AMOC8*
5,1,8,0,0,1.08239X$1,22.5*
%
%ADD10C,0.0160*%
%ADD11C,0.0740*%
%ADD12OC8,0.0740*%
%ADD13C,0.0600*%
%ADD14OC8,0.0600*%
%ADD15C,0.0554*%
%ADD16C,0.0705*%
%ADD17C,0.0600*%
%ADD18OC8,0.0520*%
%ADD19C,0.1000*%
%ADD20C,0.0400*%
%ADD21R,0.0591X0.0591*%
%ADD22C,0.0394*%
%ADD23C,0.0400*%
%ADD24R,0.0475X0.0475*%
D10*
X026639Y032780D02*
X026641Y032830D01*
X026647Y032880D01*
X026657Y032929D01*
X026671Y032977D01*
X026688Y033024D01*
X026709Y033069D01*
X026734Y033113D01*
X026762Y033154D01*
X026794Y033193D01*
X026828Y033230D01*
X026865Y033264D01*
X026905Y033294D01*
X026947Y033321D01*
X026991Y033345D01*
X027037Y033366D01*
X027084Y033382D01*
X027132Y033395D01*
X027182Y033404D01*
X027231Y033409D01*
X027282Y033410D01*
X027332Y033407D01*
X027381Y033400D01*
X027430Y033389D01*
X027478Y033374D01*
X027524Y033356D01*
X027569Y033334D01*
X027612Y033308D01*
X027653Y033279D01*
X027692Y033247D01*
X027728Y033212D01*
X027760Y033174D01*
X027790Y033134D01*
X027817Y033091D01*
X027840Y033047D01*
X027859Y033001D01*
X027875Y032953D01*
X027887Y032904D01*
X027895Y032855D01*
X027899Y032805D01*
X027899Y032755D01*
X027895Y032705D01*
X027887Y032656D01*
X027875Y032607D01*
X027859Y032559D01*
X027840Y032513D01*
X027817Y032469D01*
X027790Y032426D01*
X027760Y032386D01*
X027728Y032348D01*
X027692Y032313D01*
X027653Y032281D01*
X027612Y032252D01*
X027569Y032226D01*
X027524Y032204D01*
X027478Y032186D01*
X027430Y032171D01*
X027381Y032160D01*
X027332Y032153D01*
X027282Y032150D01*
X027231Y032151D01*
X027182Y032156D01*
X027132Y032165D01*
X027084Y032178D01*
X027037Y032194D01*
X026991Y032215D01*
X026947Y032239D01*
X026905Y032266D01*
X026865Y032296D01*
X026828Y032330D01*
X026794Y032367D01*
X026762Y032406D01*
X026734Y032447D01*
X026709Y032491D01*
X026688Y032536D01*
X026671Y032583D01*
X026657Y032631D01*
X026647Y032680D01*
X026641Y032730D01*
X026639Y032780D01*
X021261Y040446D02*
X021263Y040496D01*
X021269Y040546D01*
X021279Y040595D01*
X021293Y040643D01*
X021310Y040690D01*
X021331Y040735D01*
X021356Y040779D01*
X021384Y040820D01*
X021416Y040859D01*
X021450Y040896D01*
X021487Y040930D01*
X021527Y040960D01*
X021569Y040987D01*
X021613Y041011D01*
X021659Y041032D01*
X021706Y041048D01*
X021754Y041061D01*
X021804Y041070D01*
X021853Y041075D01*
X021904Y041076D01*
X021954Y041073D01*
X022003Y041066D01*
X022052Y041055D01*
X022100Y041040D01*
X022146Y041022D01*
X022191Y041000D01*
X022234Y040974D01*
X022275Y040945D01*
X022314Y040913D01*
X022350Y040878D01*
X022382Y040840D01*
X022412Y040800D01*
X022439Y040757D01*
X022462Y040713D01*
X022481Y040667D01*
X022497Y040619D01*
X022509Y040570D01*
X022517Y040521D01*
X022521Y040471D01*
X022521Y040421D01*
X022517Y040371D01*
X022509Y040322D01*
X022497Y040273D01*
X022481Y040225D01*
X022462Y040179D01*
X022439Y040135D01*
X022412Y040092D01*
X022382Y040052D01*
X022350Y040014D01*
X022314Y039979D01*
X022275Y039947D01*
X022234Y039918D01*
X022191Y039892D01*
X022146Y039870D01*
X022100Y039852D01*
X022052Y039837D01*
X022003Y039826D01*
X021954Y039819D01*
X021904Y039816D01*
X021853Y039817D01*
X021804Y039822D01*
X021754Y039831D01*
X021706Y039844D01*
X021659Y039860D01*
X021613Y039881D01*
X021569Y039905D01*
X021527Y039932D01*
X021487Y039962D01*
X021450Y039996D01*
X021416Y040033D01*
X021384Y040072D01*
X021356Y040113D01*
X021331Y040157D01*
X021310Y040202D01*
X021293Y040249D01*
X021279Y040297D01*
X021269Y040346D01*
X021263Y040396D01*
X021261Y040446D01*
X021261Y046643D02*
X021263Y046693D01*
X021269Y046743D01*
X021279Y046792D01*
X021293Y046840D01*
X021310Y046887D01*
X021331Y046932D01*
X021356Y046976D01*
X021384Y047017D01*
X021416Y047056D01*
X021450Y047093D01*
X021487Y047127D01*
X021527Y047157D01*
X021569Y047184D01*
X021613Y047208D01*
X021659Y047229D01*
X021706Y047245D01*
X021754Y047258D01*
X021804Y047267D01*
X021853Y047272D01*
X021904Y047273D01*
X021954Y047270D01*
X022003Y047263D01*
X022052Y047252D01*
X022100Y047237D01*
X022146Y047219D01*
X022191Y047197D01*
X022234Y047171D01*
X022275Y047142D01*
X022314Y047110D01*
X022350Y047075D01*
X022382Y047037D01*
X022412Y046997D01*
X022439Y046954D01*
X022462Y046910D01*
X022481Y046864D01*
X022497Y046816D01*
X022509Y046767D01*
X022517Y046718D01*
X022521Y046668D01*
X022521Y046618D01*
X022517Y046568D01*
X022509Y046519D01*
X022497Y046470D01*
X022481Y046422D01*
X022462Y046376D01*
X022439Y046332D01*
X022412Y046289D01*
X022382Y046249D01*
X022350Y046211D01*
X022314Y046176D01*
X022275Y046144D01*
X022234Y046115D01*
X022191Y046089D01*
X022146Y046067D01*
X022100Y046049D01*
X022052Y046034D01*
X022003Y046023D01*
X021954Y046016D01*
X021904Y046013D01*
X021853Y046014D01*
X021804Y046019D01*
X021754Y046028D01*
X021706Y046041D01*
X021659Y046057D01*
X021613Y046078D01*
X021569Y046102D01*
X021527Y046129D01*
X021487Y046159D01*
X021450Y046193D01*
X021416Y046230D01*
X021384Y046269D01*
X021356Y046310D01*
X021331Y046354D01*
X021310Y046399D01*
X021293Y046446D01*
X021279Y046494D01*
X021269Y046543D01*
X021263Y046593D01*
X021261Y046643D01*
X026639Y054434D02*
X026641Y054484D01*
X026647Y054534D01*
X026657Y054583D01*
X026671Y054631D01*
X026688Y054678D01*
X026709Y054723D01*
X026734Y054767D01*
X026762Y054808D01*
X026794Y054847D01*
X026828Y054884D01*
X026865Y054918D01*
X026905Y054948D01*
X026947Y054975D01*
X026991Y054999D01*
X027037Y055020D01*
X027084Y055036D01*
X027132Y055049D01*
X027182Y055058D01*
X027231Y055063D01*
X027282Y055064D01*
X027332Y055061D01*
X027381Y055054D01*
X027430Y055043D01*
X027478Y055028D01*
X027524Y055010D01*
X027569Y054988D01*
X027612Y054962D01*
X027653Y054933D01*
X027692Y054901D01*
X027728Y054866D01*
X027760Y054828D01*
X027790Y054788D01*
X027817Y054745D01*
X027840Y054701D01*
X027859Y054655D01*
X027875Y054607D01*
X027887Y054558D01*
X027895Y054509D01*
X027899Y054459D01*
X027899Y054409D01*
X027895Y054359D01*
X027887Y054310D01*
X027875Y054261D01*
X027859Y054213D01*
X027840Y054167D01*
X027817Y054123D01*
X027790Y054080D01*
X027760Y054040D01*
X027728Y054002D01*
X027692Y053967D01*
X027653Y053935D01*
X027612Y053906D01*
X027569Y053880D01*
X027524Y053858D01*
X027478Y053840D01*
X027430Y053825D01*
X027381Y053814D01*
X027332Y053807D01*
X027282Y053804D01*
X027231Y053805D01*
X027182Y053810D01*
X027132Y053819D01*
X027084Y053832D01*
X027037Y053848D01*
X026991Y053869D01*
X026947Y053893D01*
X026905Y053920D01*
X026865Y053950D01*
X026828Y053984D01*
X026794Y054021D01*
X026762Y054060D01*
X026734Y054101D01*
X026709Y054145D01*
X026688Y054190D01*
X026671Y054237D01*
X026657Y054285D01*
X026647Y054334D01*
X026641Y054384D01*
X026639Y054434D01*
X023922Y059355D02*
X016048Y059355D01*
X016048Y067229D01*
X023922Y067229D01*
X023922Y059355D01*
X037741Y071335D02*
X037743Y071385D01*
X037749Y071435D01*
X037759Y071484D01*
X037773Y071532D01*
X037790Y071579D01*
X037811Y071624D01*
X037836Y071668D01*
X037864Y071709D01*
X037896Y071748D01*
X037930Y071785D01*
X037967Y071819D01*
X038007Y071849D01*
X038049Y071876D01*
X038093Y071900D01*
X038139Y071921D01*
X038186Y071937D01*
X038234Y071950D01*
X038284Y071959D01*
X038333Y071964D01*
X038384Y071965D01*
X038434Y071962D01*
X038483Y071955D01*
X038532Y071944D01*
X038580Y071929D01*
X038626Y071911D01*
X038671Y071889D01*
X038714Y071863D01*
X038755Y071834D01*
X038794Y071802D01*
X038830Y071767D01*
X038862Y071729D01*
X038892Y071689D01*
X038919Y071646D01*
X038942Y071602D01*
X038961Y071556D01*
X038977Y071508D01*
X038989Y071459D01*
X038997Y071410D01*
X039001Y071360D01*
X039001Y071310D01*
X038997Y071260D01*
X038989Y071211D01*
X038977Y071162D01*
X038961Y071114D01*
X038942Y071068D01*
X038919Y071024D01*
X038892Y070981D01*
X038862Y070941D01*
X038830Y070903D01*
X038794Y070868D01*
X038755Y070836D01*
X038714Y070807D01*
X038671Y070781D01*
X038626Y070759D01*
X038580Y070741D01*
X038532Y070726D01*
X038483Y070715D01*
X038434Y070708D01*
X038384Y070705D01*
X038333Y070706D01*
X038284Y070711D01*
X038234Y070720D01*
X038186Y070733D01*
X038139Y070749D01*
X038093Y070770D01*
X038049Y070794D01*
X038007Y070821D01*
X037967Y070851D01*
X037930Y070885D01*
X037896Y070922D01*
X037864Y070961D01*
X037836Y071002D01*
X037811Y071046D01*
X037790Y071091D01*
X037773Y071138D01*
X037759Y071186D01*
X037749Y071235D01*
X037743Y071285D01*
X037741Y071335D01*
X037953Y067296D02*
X037955Y067346D01*
X037961Y067396D01*
X037971Y067445D01*
X037985Y067493D01*
X038002Y067540D01*
X038023Y067585D01*
X038048Y067629D01*
X038076Y067670D01*
X038108Y067709D01*
X038142Y067746D01*
X038179Y067780D01*
X038219Y067810D01*
X038261Y067837D01*
X038305Y067861D01*
X038351Y067882D01*
X038398Y067898D01*
X038446Y067911D01*
X038496Y067920D01*
X038545Y067925D01*
X038596Y067926D01*
X038646Y067923D01*
X038695Y067916D01*
X038744Y067905D01*
X038792Y067890D01*
X038838Y067872D01*
X038883Y067850D01*
X038926Y067824D01*
X038967Y067795D01*
X039006Y067763D01*
X039042Y067728D01*
X039074Y067690D01*
X039104Y067650D01*
X039131Y067607D01*
X039154Y067563D01*
X039173Y067517D01*
X039189Y067469D01*
X039201Y067420D01*
X039209Y067371D01*
X039213Y067321D01*
X039213Y067271D01*
X039209Y067221D01*
X039201Y067172D01*
X039189Y067123D01*
X039173Y067075D01*
X039154Y067029D01*
X039131Y066985D01*
X039104Y066942D01*
X039074Y066902D01*
X039042Y066864D01*
X039006Y066829D01*
X038967Y066797D01*
X038926Y066768D01*
X038883Y066742D01*
X038838Y066720D01*
X038792Y066702D01*
X038744Y066687D01*
X038695Y066676D01*
X038646Y066669D01*
X038596Y066666D01*
X038545Y066667D01*
X038496Y066672D01*
X038446Y066681D01*
X038398Y066694D01*
X038351Y066710D01*
X038305Y066731D01*
X038261Y066755D01*
X038219Y066782D01*
X038179Y066812D01*
X038142Y066846D01*
X038108Y066883D01*
X038076Y066922D01*
X038048Y066963D01*
X038023Y067007D01*
X038002Y067052D01*
X037985Y067099D01*
X037971Y067147D01*
X037961Y067196D01*
X037955Y067246D01*
X037953Y067296D01*
X046300Y067296D02*
X046302Y067346D01*
X046308Y067396D01*
X046318Y067445D01*
X046332Y067493D01*
X046349Y067540D01*
X046370Y067585D01*
X046395Y067629D01*
X046423Y067670D01*
X046455Y067709D01*
X046489Y067746D01*
X046526Y067780D01*
X046566Y067810D01*
X046608Y067837D01*
X046652Y067861D01*
X046698Y067882D01*
X046745Y067898D01*
X046793Y067911D01*
X046843Y067920D01*
X046892Y067925D01*
X046943Y067926D01*
X046993Y067923D01*
X047042Y067916D01*
X047091Y067905D01*
X047139Y067890D01*
X047185Y067872D01*
X047230Y067850D01*
X047273Y067824D01*
X047314Y067795D01*
X047353Y067763D01*
X047389Y067728D01*
X047421Y067690D01*
X047451Y067650D01*
X047478Y067607D01*
X047501Y067563D01*
X047520Y067517D01*
X047536Y067469D01*
X047548Y067420D01*
X047556Y067371D01*
X047560Y067321D01*
X047560Y067271D01*
X047556Y067221D01*
X047548Y067172D01*
X047536Y067123D01*
X047520Y067075D01*
X047501Y067029D01*
X047478Y066985D01*
X047451Y066942D01*
X047421Y066902D01*
X047389Y066864D01*
X047353Y066829D01*
X047314Y066797D01*
X047273Y066768D01*
X047230Y066742D01*
X047185Y066720D01*
X047139Y066702D01*
X047091Y066687D01*
X047042Y066676D01*
X046993Y066669D01*
X046943Y066666D01*
X046892Y066667D01*
X046843Y066672D01*
X046793Y066681D01*
X046745Y066694D01*
X046698Y066710D01*
X046652Y066731D01*
X046608Y066755D01*
X046566Y066782D01*
X046526Y066812D01*
X046489Y066846D01*
X046455Y066883D01*
X046423Y066922D01*
X046395Y066963D01*
X046370Y067007D01*
X046349Y067052D01*
X046332Y067099D01*
X046318Y067147D01*
X046308Y067196D01*
X046302Y067246D01*
X046300Y067296D01*
X060037Y077694D02*
X060039Y077750D01*
X060045Y077805D01*
X060055Y077859D01*
X060068Y077913D01*
X060086Y077966D01*
X060107Y078017D01*
X060131Y078067D01*
X060159Y078115D01*
X060191Y078161D01*
X060225Y078205D01*
X060263Y078246D01*
X060303Y078284D01*
X060346Y078319D01*
X060391Y078351D01*
X060439Y078380D01*
X060488Y078406D01*
X060539Y078428D01*
X060591Y078446D01*
X060645Y078460D01*
X060700Y078471D01*
X060755Y078478D01*
X060810Y078481D01*
X060866Y078480D01*
X060921Y078475D01*
X060976Y078466D01*
X061030Y078454D01*
X061083Y078437D01*
X061135Y078417D01*
X061185Y078393D01*
X061233Y078366D01*
X061280Y078336D01*
X061324Y078302D01*
X061366Y078265D01*
X061404Y078225D01*
X061441Y078183D01*
X061474Y078138D01*
X061503Y078092D01*
X061530Y078043D01*
X061552Y077992D01*
X061572Y077940D01*
X061587Y077886D01*
X061599Y077832D01*
X061607Y077777D01*
X061611Y077722D01*
X061611Y077666D01*
X061607Y077611D01*
X061599Y077556D01*
X061587Y077502D01*
X061572Y077448D01*
X061552Y077396D01*
X061530Y077345D01*
X061503Y077296D01*
X061474Y077250D01*
X061441Y077205D01*
X061404Y077163D01*
X061366Y077123D01*
X061324Y077086D01*
X061280Y077052D01*
X061233Y077022D01*
X061185Y076995D01*
X061135Y076971D01*
X061083Y076951D01*
X061030Y076934D01*
X060976Y076922D01*
X060921Y076913D01*
X060866Y076908D01*
X060810Y076907D01*
X060755Y076910D01*
X060700Y076917D01*
X060645Y076928D01*
X060591Y076942D01*
X060539Y076960D01*
X060488Y076982D01*
X060439Y077008D01*
X060391Y077037D01*
X060346Y077069D01*
X060303Y077104D01*
X060263Y077142D01*
X060225Y077183D01*
X060191Y077227D01*
X060159Y077273D01*
X060131Y077321D01*
X060107Y077371D01*
X060086Y077422D01*
X060068Y077475D01*
X060055Y077529D01*
X060045Y077583D01*
X060039Y077638D01*
X060037Y077694D01*
X064438Y079225D02*
X023304Y079225D01*
X025604Y077694D02*
X025606Y077750D01*
X025612Y077805D01*
X025622Y077859D01*
X025635Y077913D01*
X025653Y077966D01*
X025674Y078017D01*
X025698Y078067D01*
X025726Y078115D01*
X025758Y078161D01*
X025792Y078205D01*
X025830Y078246D01*
X025870Y078284D01*
X025913Y078319D01*
X025958Y078351D01*
X026006Y078380D01*
X026055Y078406D01*
X026106Y078428D01*
X026158Y078446D01*
X026212Y078460D01*
X026267Y078471D01*
X026322Y078478D01*
X026377Y078481D01*
X026433Y078480D01*
X026488Y078475D01*
X026543Y078466D01*
X026597Y078454D01*
X026650Y078437D01*
X026702Y078417D01*
X026752Y078393D01*
X026800Y078366D01*
X026847Y078336D01*
X026891Y078302D01*
X026933Y078265D01*
X026971Y078225D01*
X027008Y078183D01*
X027041Y078138D01*
X027070Y078092D01*
X027097Y078043D01*
X027119Y077992D01*
X027139Y077940D01*
X027154Y077886D01*
X027166Y077832D01*
X027174Y077777D01*
X027178Y077722D01*
X027178Y077666D01*
X027174Y077611D01*
X027166Y077556D01*
X027154Y077502D01*
X027139Y077448D01*
X027119Y077396D01*
X027097Y077345D01*
X027070Y077296D01*
X027041Y077250D01*
X027008Y077205D01*
X026971Y077163D01*
X026933Y077123D01*
X026891Y077086D01*
X026847Y077052D01*
X026800Y077022D01*
X026752Y076995D01*
X026702Y076971D01*
X026650Y076951D01*
X026597Y076934D01*
X026543Y076922D01*
X026488Y076913D01*
X026433Y076908D01*
X026377Y076907D01*
X026322Y076910D01*
X026267Y076917D01*
X026212Y076928D01*
X026158Y076942D01*
X026106Y076960D01*
X026055Y076982D01*
X026006Y077008D01*
X025958Y077037D01*
X025913Y077069D01*
X025870Y077104D01*
X025830Y077142D01*
X025792Y077183D01*
X025758Y077227D01*
X025726Y077273D01*
X025698Y077321D01*
X025674Y077371D01*
X025653Y077422D01*
X025635Y077475D01*
X025622Y077529D01*
X025612Y077583D01*
X025606Y077638D01*
X025604Y077694D01*
X007387Y043607D02*
X007389Y043663D01*
X007395Y043718D01*
X007405Y043772D01*
X007418Y043826D01*
X007436Y043879D01*
X007457Y043930D01*
X007481Y043980D01*
X007509Y044028D01*
X007541Y044074D01*
X007575Y044118D01*
X007613Y044159D01*
X007653Y044197D01*
X007696Y044232D01*
X007741Y044264D01*
X007789Y044293D01*
X007838Y044319D01*
X007889Y044341D01*
X007941Y044359D01*
X007995Y044373D01*
X008050Y044384D01*
X008105Y044391D01*
X008160Y044394D01*
X008216Y044393D01*
X008271Y044388D01*
X008326Y044379D01*
X008380Y044367D01*
X008433Y044350D01*
X008485Y044330D01*
X008535Y044306D01*
X008583Y044279D01*
X008630Y044249D01*
X008674Y044215D01*
X008716Y044178D01*
X008754Y044138D01*
X008791Y044096D01*
X008824Y044051D01*
X008853Y044005D01*
X008880Y043956D01*
X008902Y043905D01*
X008922Y043853D01*
X008937Y043799D01*
X008949Y043745D01*
X008957Y043690D01*
X008961Y043635D01*
X008961Y043579D01*
X008957Y043524D01*
X008949Y043469D01*
X008937Y043415D01*
X008922Y043361D01*
X008902Y043309D01*
X008880Y043258D01*
X008853Y043209D01*
X008824Y043163D01*
X008791Y043118D01*
X008754Y043076D01*
X008716Y043036D01*
X008674Y042999D01*
X008630Y042965D01*
X008583Y042935D01*
X008535Y042908D01*
X008485Y042884D01*
X008433Y042864D01*
X008380Y042847D01*
X008326Y042835D01*
X008271Y042826D01*
X008216Y042821D01*
X008160Y042820D01*
X008105Y042823D01*
X008050Y042830D01*
X007995Y042841D01*
X007941Y042855D01*
X007889Y042873D01*
X007838Y042895D01*
X007789Y042921D01*
X007741Y042950D01*
X007696Y042982D01*
X007653Y043017D01*
X007613Y043055D01*
X007575Y043096D01*
X007541Y043140D01*
X007509Y043186D01*
X007481Y043234D01*
X007457Y043284D01*
X007436Y043335D01*
X007418Y043388D01*
X007405Y043442D01*
X007395Y043496D01*
X007389Y043551D01*
X007387Y043607D01*
X023304Y079226D02*
X022432Y078711D01*
X021573Y078175D01*
X020727Y077619D01*
X019895Y077042D01*
X019077Y076444D01*
X018274Y075827D01*
X017487Y075191D01*
X016716Y074535D01*
X015960Y073860D01*
X015222Y073168D01*
X014501Y072457D01*
X013797Y071729D01*
X013111Y070984D01*
X012444Y070222D01*
X011796Y069445D01*
X011167Y068651D01*
X010557Y067843D01*
X009968Y067019D01*
X009399Y066182D01*
X008850Y065331D01*
X008323Y064467D01*
X007817Y063590D01*
X007332Y062701D01*
X006870Y061800D01*
X006429Y060888D01*
X006011Y059966D01*
X005616Y059034D01*
X005244Y058092D01*
X004895Y057142D01*
X004569Y056183D01*
X004267Y055216D01*
X003989Y054243D01*
X003734Y053263D01*
X003504Y052277D01*
X003298Y051286D01*
X003116Y050289D01*
X002959Y049289D01*
X002826Y048285D01*
X002718Y047279D01*
X002634Y046270D01*
X002575Y045259D01*
X002541Y044247D01*
X002532Y043234D01*
X002548Y042222D01*
X002588Y041210D01*
X002653Y040200D01*
X002743Y039191D01*
X002858Y038185D01*
X002997Y037182D01*
X003161Y036183D01*
X003349Y035188D01*
X003561Y034198D01*
X003798Y033214D01*
X004059Y032235D01*
X004343Y031264D01*
X004651Y030299D01*
X004983Y029343D01*
X005338Y028394D01*
X005717Y027455D01*
X006118Y026525D01*
X006542Y025606D01*
X006988Y024697D01*
X007456Y023799D01*
X007946Y022913D01*
X008458Y022039D01*
X008991Y021179D01*
X009545Y020331D01*
X010119Y019497D01*
X010714Y018678D01*
X011328Y017873D01*
X011963Y017084D01*
X012616Y016310D01*
X013288Y015553D01*
X013978Y014812D01*
X014686Y014088D01*
X015412Y013382D01*
X016155Y012694D01*
X016915Y012025D01*
X017690Y011374D01*
X018482Y010742D01*
X019288Y010130D01*
X020110Y009538D01*
X020945Y008966D01*
X021795Y008415D01*
X022657Y007885D01*
X023533Y007376D01*
X024420Y006889D01*
X025319Y006423D01*
X026230Y005980D01*
X027151Y005559D01*
X028082Y005161D01*
X029022Y004786D01*
X029971Y004434D01*
X030929Y004105D01*
X031895Y003800D01*
X032867Y003518D01*
X033846Y003261D01*
X034832Y003027D01*
X035822Y002818D01*
X036818Y002633D01*
X037818Y002473D01*
X038821Y002337D01*
X039827Y002225D01*
X040836Y002139D01*
X041847Y002077D01*
X042859Y002039D01*
X043871Y002027D01*
X044883Y002039D01*
X045895Y002077D01*
X046906Y002139D01*
X047915Y002225D01*
X048921Y002337D01*
X049924Y002473D01*
X050924Y002633D01*
X051920Y002818D01*
X052910Y003027D01*
X053896Y003261D01*
X054875Y003518D01*
X055847Y003800D01*
X056813Y004105D01*
X057771Y004434D01*
X058720Y004786D01*
X059660Y005161D01*
X060591Y005559D01*
X061512Y005980D01*
X062423Y006423D01*
X063322Y006889D01*
X064209Y007376D01*
X065085Y007885D01*
X065947Y008415D01*
X066797Y008966D01*
X067632Y009538D01*
X068454Y010130D01*
X069260Y010742D01*
X070052Y011374D01*
X070827Y012025D01*
X071587Y012694D01*
X072330Y013382D01*
X073056Y014088D01*
X073764Y014812D01*
X074454Y015553D01*
X075126Y016310D01*
X075779Y017084D01*
X076414Y017873D01*
X077028Y018678D01*
X077623Y019497D01*
X078197Y020331D01*
X078751Y021179D01*
X079284Y022039D01*
X079796Y022913D01*
X080286Y023799D01*
X080754Y024697D01*
X081200Y025606D01*
X081624Y026525D01*
X082025Y027455D01*
X082404Y028394D01*
X082759Y029343D01*
X083091Y030299D01*
X083399Y031264D01*
X083683Y032235D01*
X083944Y033214D01*
X084181Y034198D01*
X084393Y035188D01*
X084581Y036183D01*
X084745Y037182D01*
X084884Y038185D01*
X084999Y039191D01*
X085089Y040200D01*
X085154Y041210D01*
X085194Y042222D01*
X085210Y043234D01*
X085201Y044247D01*
X085167Y045259D01*
X085108Y046270D01*
X085024Y047279D01*
X084916Y048285D01*
X084783Y049289D01*
X084626Y050289D01*
X084444Y051286D01*
X084238Y052277D01*
X084008Y053263D01*
X083753Y054243D01*
X083475Y055216D01*
X083173Y056183D01*
X082847Y057142D01*
X082498Y058092D01*
X082126Y059034D01*
X081731Y059966D01*
X081313Y060888D01*
X080872Y061800D01*
X080410Y062701D01*
X079925Y063590D01*
X079419Y064467D01*
X078892Y065331D01*
X078343Y066182D01*
X077774Y067019D01*
X077185Y067843D01*
X076575Y068651D01*
X075946Y069445D01*
X075298Y070222D01*
X074631Y070984D01*
X073945Y071729D01*
X073241Y072457D01*
X072520Y073168D01*
X071782Y073860D01*
X071026Y074535D01*
X070255Y075191D01*
X069468Y075827D01*
X068665Y076444D01*
X067847Y077042D01*
X067015Y077619D01*
X066169Y078175D01*
X065310Y078711D01*
X064438Y079226D01*
X078253Y043607D02*
X078255Y043663D01*
X078261Y043718D01*
X078271Y043772D01*
X078284Y043826D01*
X078302Y043879D01*
X078323Y043930D01*
X078347Y043980D01*
X078375Y044028D01*
X078407Y044074D01*
X078441Y044118D01*
X078479Y044159D01*
X078519Y044197D01*
X078562Y044232D01*
X078607Y044264D01*
X078655Y044293D01*
X078704Y044319D01*
X078755Y044341D01*
X078807Y044359D01*
X078861Y044373D01*
X078916Y044384D01*
X078971Y044391D01*
X079026Y044394D01*
X079082Y044393D01*
X079137Y044388D01*
X079192Y044379D01*
X079246Y044367D01*
X079299Y044350D01*
X079351Y044330D01*
X079401Y044306D01*
X079449Y044279D01*
X079496Y044249D01*
X079540Y044215D01*
X079582Y044178D01*
X079620Y044138D01*
X079657Y044096D01*
X079690Y044051D01*
X079719Y044005D01*
X079746Y043956D01*
X079768Y043905D01*
X079788Y043853D01*
X079803Y043799D01*
X079815Y043745D01*
X079823Y043690D01*
X079827Y043635D01*
X079827Y043579D01*
X079823Y043524D01*
X079815Y043469D01*
X079803Y043415D01*
X079788Y043361D01*
X079768Y043309D01*
X079746Y043258D01*
X079719Y043209D01*
X079690Y043163D01*
X079657Y043118D01*
X079620Y043076D01*
X079582Y043036D01*
X079540Y042999D01*
X079496Y042965D01*
X079449Y042935D01*
X079401Y042908D01*
X079351Y042884D01*
X079299Y042864D01*
X079246Y042847D01*
X079192Y042835D01*
X079137Y042826D01*
X079082Y042821D01*
X079026Y042820D01*
X078971Y042823D01*
X078916Y042830D01*
X078861Y042841D01*
X078807Y042855D01*
X078755Y042873D01*
X078704Y042895D01*
X078655Y042921D01*
X078607Y042950D01*
X078562Y042982D01*
X078519Y043017D01*
X078479Y043055D01*
X078441Y043096D01*
X078407Y043140D01*
X078375Y043186D01*
X078347Y043234D01*
X078323Y043284D01*
X078302Y043335D01*
X078284Y043388D01*
X078271Y043442D01*
X078261Y043496D01*
X078255Y043551D01*
X078253Y043607D01*
X057741Y032780D02*
X057743Y032830D01*
X057749Y032880D01*
X057759Y032929D01*
X057773Y032977D01*
X057790Y033024D01*
X057811Y033069D01*
X057836Y033113D01*
X057864Y033154D01*
X057896Y033193D01*
X057930Y033230D01*
X057967Y033264D01*
X058007Y033294D01*
X058049Y033321D01*
X058093Y033345D01*
X058139Y033366D01*
X058186Y033382D01*
X058234Y033395D01*
X058284Y033404D01*
X058333Y033409D01*
X058384Y033410D01*
X058434Y033407D01*
X058483Y033400D01*
X058532Y033389D01*
X058580Y033374D01*
X058626Y033356D01*
X058671Y033334D01*
X058714Y033308D01*
X058755Y033279D01*
X058794Y033247D01*
X058830Y033212D01*
X058862Y033174D01*
X058892Y033134D01*
X058919Y033091D01*
X058942Y033047D01*
X058961Y033001D01*
X058977Y032953D01*
X058989Y032904D01*
X058997Y032855D01*
X059001Y032805D01*
X059001Y032755D01*
X058997Y032705D01*
X058989Y032656D01*
X058977Y032607D01*
X058961Y032559D01*
X058942Y032513D01*
X058919Y032469D01*
X058892Y032426D01*
X058862Y032386D01*
X058830Y032348D01*
X058794Y032313D01*
X058755Y032281D01*
X058714Y032252D01*
X058671Y032226D01*
X058626Y032204D01*
X058580Y032186D01*
X058532Y032171D01*
X058483Y032160D01*
X058434Y032153D01*
X058384Y032150D01*
X058333Y032151D01*
X058284Y032156D01*
X058234Y032165D01*
X058186Y032178D01*
X058139Y032194D01*
X058093Y032215D01*
X058049Y032239D01*
X058007Y032266D01*
X057967Y032296D01*
X057930Y032330D01*
X057896Y032367D01*
X057864Y032406D01*
X057836Y032447D01*
X057811Y032491D01*
X057790Y032536D01*
X057773Y032583D01*
X057759Y032631D01*
X057749Y032680D01*
X057743Y032730D01*
X057741Y032780D01*
X042820Y005418D02*
X042822Y005474D01*
X042828Y005529D01*
X042838Y005583D01*
X042851Y005637D01*
X042869Y005690D01*
X042890Y005741D01*
X042914Y005791D01*
X042942Y005839D01*
X042974Y005885D01*
X043008Y005929D01*
X043046Y005970D01*
X043086Y006008D01*
X043129Y006043D01*
X043174Y006075D01*
X043222Y006104D01*
X043271Y006130D01*
X043322Y006152D01*
X043374Y006170D01*
X043428Y006184D01*
X043483Y006195D01*
X043538Y006202D01*
X043593Y006205D01*
X043649Y006204D01*
X043704Y006199D01*
X043759Y006190D01*
X043813Y006178D01*
X043866Y006161D01*
X043918Y006141D01*
X043968Y006117D01*
X044016Y006090D01*
X044063Y006060D01*
X044107Y006026D01*
X044149Y005989D01*
X044187Y005949D01*
X044224Y005907D01*
X044257Y005862D01*
X044286Y005816D01*
X044313Y005767D01*
X044335Y005716D01*
X044355Y005664D01*
X044370Y005610D01*
X044382Y005556D01*
X044390Y005501D01*
X044394Y005446D01*
X044394Y005390D01*
X044390Y005335D01*
X044382Y005280D01*
X044370Y005226D01*
X044355Y005172D01*
X044335Y005120D01*
X044313Y005069D01*
X044286Y005020D01*
X044257Y004974D01*
X044224Y004929D01*
X044187Y004887D01*
X044149Y004847D01*
X044107Y004810D01*
X044063Y004776D01*
X044016Y004746D01*
X043968Y004719D01*
X043918Y004695D01*
X043866Y004675D01*
X043813Y004658D01*
X043759Y004646D01*
X043704Y004637D01*
X043649Y004632D01*
X043593Y004631D01*
X043538Y004634D01*
X043483Y004641D01*
X043428Y004652D01*
X043374Y004666D01*
X043322Y004684D01*
X043271Y004706D01*
X043222Y004732D01*
X043174Y004761D01*
X043129Y004793D01*
X043086Y004828D01*
X043046Y004866D01*
X043008Y004907D01*
X042974Y004951D01*
X042942Y004997D01*
X042914Y005045D01*
X042890Y005095D01*
X042869Y005146D01*
X042851Y005199D01*
X042838Y005253D01*
X042828Y005307D01*
X042822Y005362D01*
X042820Y005418D01*
D11*
X042501Y009828D03*
X043501Y009828D03*
X044501Y009828D03*
X045501Y009828D03*
X046501Y009828D03*
X047501Y009828D03*
X048501Y009828D03*
X050501Y009828D03*
X051501Y009828D03*
X052501Y009828D03*
X053501Y009828D03*
X054501Y009828D03*
X055501Y009828D03*
X056501Y009828D03*
X057501Y009828D03*
X060501Y009828D03*
X061501Y009828D03*
X061501Y026828D03*
X060501Y026828D03*
X059501Y028828D03*
X058501Y028828D03*
X057501Y028828D03*
X056501Y028828D03*
X055501Y028828D03*
X054501Y028828D03*
X053501Y028828D03*
X052501Y028828D03*
X050501Y028828D03*
X049501Y028828D03*
X048501Y028828D03*
X047501Y028828D03*
X046501Y028828D03*
X045501Y028828D03*
X044501Y028828D03*
X043501Y028828D03*
X041501Y028828D03*
X040501Y028828D03*
X039501Y028828D03*
X038501Y028828D03*
X037501Y028828D03*
X036501Y028828D03*
X035501Y028828D03*
X034501Y028828D03*
X032765Y038465D03*
X032765Y039465D03*
X032765Y040465D03*
X032765Y041465D03*
X032765Y042465D03*
X032765Y043465D03*
X032765Y044465D03*
X032765Y045465D03*
X032765Y047465D03*
X032765Y048465D03*
X032765Y049465D03*
X032765Y050465D03*
X032765Y051465D03*
X032765Y052465D03*
X038980Y057732D03*
X039980Y057732D03*
X040980Y057732D03*
X041980Y057732D03*
X042980Y057732D03*
X043980Y057732D03*
X044980Y057732D03*
X045980Y057732D03*
X047980Y057732D03*
X048980Y057732D03*
X049980Y057732D03*
X050980Y057732D03*
X051980Y057732D03*
X052980Y057732D03*
X053639Y052465D03*
X053639Y051465D03*
X053639Y050465D03*
X053639Y049465D03*
X053639Y048465D03*
X053639Y047465D03*
X053639Y046465D03*
X053639Y045465D03*
X053639Y043865D03*
X053639Y042865D03*
X053639Y041865D03*
X053639Y040865D03*
X053639Y039865D03*
X053639Y038865D03*
X053639Y037865D03*
X053639Y036865D03*
X053639Y035865D03*
X053639Y034865D03*
X072639Y038465D03*
X072639Y039465D03*
X072639Y040465D03*
X072639Y041465D03*
X072639Y042465D03*
X072639Y043465D03*
X072639Y044465D03*
X072639Y045465D03*
X072639Y047465D03*
X072639Y048465D03*
X072639Y049465D03*
X072639Y050465D03*
X072639Y051465D03*
X072639Y052465D03*
X052980Y076732D03*
X051980Y076732D03*
X050980Y076732D03*
X049980Y076732D03*
X048980Y076732D03*
X047980Y076732D03*
X046980Y076732D03*
X045980Y076732D03*
X044380Y076732D03*
X043380Y076732D03*
X042380Y076732D03*
X041380Y076732D03*
X040380Y076732D03*
X039380Y076732D03*
X038380Y076732D03*
X037380Y076732D03*
X036380Y076732D03*
X035380Y076732D03*
X013765Y052465D03*
X013765Y051465D03*
X013765Y050465D03*
X013765Y049465D03*
X013765Y048465D03*
X013765Y047465D03*
X013765Y046465D03*
X013765Y045465D03*
X013765Y043865D03*
X013765Y042865D03*
X013765Y041865D03*
X013765Y040865D03*
X013765Y039865D03*
X013765Y038865D03*
X013765Y037865D03*
X013765Y036865D03*
X013765Y035865D03*
X013765Y034865D03*
X030901Y009828D03*
X031901Y009828D03*
X032901Y009828D03*
X033901Y009828D03*
X034901Y009828D03*
X035901Y009828D03*
X036901Y009828D03*
X037901Y009828D03*
X038901Y009828D03*
X039901Y009828D03*
X041501Y009828D03*
D12*
X048501Y017828D03*
X048501Y018828D03*
X048501Y019828D03*
X049501Y019828D03*
X049501Y018828D03*
X049501Y017828D03*
X060501Y017828D03*
X060501Y018828D03*
X060501Y019828D03*
X060501Y020828D03*
X060501Y021828D03*
X060501Y022828D03*
X061501Y022828D03*
X061501Y021828D03*
X061501Y020828D03*
X061501Y019828D03*
X061501Y018828D03*
X061501Y017828D03*
X061501Y016828D03*
X060501Y016828D03*
X060501Y015828D03*
X061501Y015828D03*
X061501Y014828D03*
X060501Y014828D03*
X060501Y013828D03*
X061501Y013828D03*
X061501Y012828D03*
X060501Y012828D03*
X060501Y011828D03*
X061501Y011828D03*
X061501Y010828D03*
X060501Y010828D03*
X060501Y023828D03*
X060501Y024828D03*
X060501Y025828D03*
X061501Y025828D03*
X061501Y024828D03*
X061501Y023828D03*
X061639Y052515D03*
X062639Y052515D03*
X063639Y052515D03*
X063639Y053515D03*
X062639Y053515D03*
X061639Y053515D03*
X054030Y066732D03*
X053030Y066732D03*
X053030Y067732D03*
X054030Y067732D03*
X054030Y068732D03*
X053030Y068732D03*
X023765Y053515D03*
X023765Y052515D03*
X022765Y052515D03*
X022765Y053515D03*
X021765Y053515D03*
X021765Y052515D03*
D13*
X029366Y064880D03*
D14*
X029366Y065880D03*
X030366Y065880D03*
X030366Y064880D03*
X030366Y066880D03*
X029366Y066880D03*
D15*
X021386Y020461D03*
X021386Y019673D03*
X052567Y012461D03*
X052567Y011674D03*
X053355Y011674D03*
X053355Y012461D03*
X054142Y012461D03*
X054142Y011674D03*
D16*
X045184Y042954D02*
X045184Y043659D01*
X043215Y043659D02*
X043215Y042954D01*
D17*
X055906Y061942D02*
X056506Y061942D01*
X056506Y062942D02*
X055906Y062942D01*
X055906Y063942D02*
X056506Y063942D01*
X056506Y064942D02*
X055906Y064942D01*
X055906Y065942D02*
X056506Y065942D01*
X056506Y066942D02*
X055906Y066942D01*
X055906Y067942D02*
X056506Y067942D01*
X056506Y068942D02*
X055906Y068942D01*
X055906Y069942D02*
X056506Y069942D01*
X056506Y070942D02*
X055906Y070942D01*
X065355Y024729D02*
X065955Y024729D01*
X065955Y023729D02*
X065355Y023729D01*
X065355Y022729D02*
X065955Y022729D01*
X065955Y021729D02*
X065355Y021729D01*
D18*
X030895Y012389D03*
X027895Y012389D03*
D19*
X041501Y028828D02*
X041501Y039623D01*
X045184Y043306D01*
X045980Y044102D01*
X045980Y057732D01*
D20*
X028759Y014915D02*
X014852Y014915D01*
X015245Y014517D02*
X028759Y014517D01*
X028759Y014118D02*
X015638Y014118D01*
X015805Y013948D02*
X014065Y015712D01*
X012436Y017579D01*
X010924Y019542D01*
X009534Y021593D01*
X008271Y023725D01*
X007141Y025930D01*
X006147Y028199D01*
X005293Y030525D01*
X004583Y032899D01*
X004018Y035312D01*
X003602Y037754D01*
X003335Y040217D01*
X003218Y042692D01*
X003253Y045170D01*
X003438Y047641D01*
X003773Y050096D01*
X004258Y052526D01*
X004889Y054922D01*
X005665Y057275D01*
X006584Y059576D01*
X007640Y061817D01*
X008831Y063990D01*
X010153Y066086D01*
X011599Y068098D01*
X013166Y070017D01*
X014846Y071838D01*
X016634Y073553D01*
X016634Y073553D01*
X018523Y075156D01*
X020507Y076641D01*
X022577Y078003D01*
X023491Y078545D01*
X025198Y078545D01*
X024995Y078147D01*
X024923Y077694D01*
X024923Y077694D01*
X024995Y077240D01*
X025203Y076831D01*
X025528Y076507D01*
X025937Y076298D01*
X025937Y076298D01*
X026391Y076226D01*
X026844Y076298D01*
X027253Y076507D01*
X027253Y076507D01*
X027578Y076831D01*
X027786Y077240D01*
X027786Y077240D01*
X027858Y077694D01*
X027786Y078147D01*
X027786Y078147D01*
X027583Y078545D01*
X031701Y078545D01*
X027923Y074768D01*
X027826Y074532D01*
X027826Y066652D01*
X027923Y066417D01*
X028103Y066237D01*
X028626Y065714D01*
X028626Y065573D01*
X029059Y065140D01*
X029626Y065140D01*
X029626Y064573D01*
X030059Y064140D01*
X030672Y064140D01*
X030772Y064240D01*
X033567Y064240D01*
X039352Y058455D01*
X039141Y058542D01*
X038819Y058542D01*
X038521Y058419D01*
X038293Y058191D01*
X038170Y057894D01*
X038170Y057571D01*
X038293Y057274D01*
X038521Y057046D01*
X038819Y056922D01*
X039141Y056922D01*
X039438Y057046D01*
X039480Y057087D01*
X039521Y057046D01*
X039819Y056922D01*
X040141Y056922D01*
X040438Y057046D01*
X040480Y057087D01*
X040521Y057046D01*
X040819Y056922D01*
X041141Y056922D01*
X041438Y057046D01*
X041480Y057087D01*
X041521Y057046D01*
X041819Y056922D01*
X042141Y056922D01*
X042438Y057046D01*
X042480Y057087D01*
X042521Y057046D01*
X042819Y056922D01*
X043141Y056922D01*
X043438Y057046D01*
X043666Y057274D01*
X043790Y057571D01*
X043790Y057894D01*
X043666Y058191D01*
X043438Y058419D01*
X043141Y058542D01*
X042819Y058542D01*
X042521Y058419D01*
X042480Y058378D01*
X042438Y058419D01*
X042141Y058542D01*
X041819Y058542D01*
X041521Y058419D01*
X041480Y058378D01*
X041438Y058419D01*
X041141Y058542D01*
X041075Y058542D01*
X034195Y065422D01*
X033960Y065520D01*
X031052Y065520D01*
X031106Y065573D01*
X031106Y065714D01*
X037128Y071737D01*
X037061Y071335D01*
X037132Y070910D01*
X037337Y070531D01*
X037654Y070239D01*
X038049Y070066D01*
X038479Y070030D01*
X038897Y070136D01*
X039258Y070372D01*
X039523Y070712D01*
X039663Y071120D01*
X039663Y071551D01*
X039523Y071959D01*
X039258Y072299D01*
X044939Y072299D01*
X044939Y071901D02*
X039543Y071901D01*
X039663Y071502D02*
X044939Y071502D01*
X044939Y071104D02*
X039657Y071104D01*
X039518Y070705D02*
X044939Y070705D01*
X044939Y070307D02*
X039158Y070307D01*
X037581Y070307D02*
X035698Y070307D01*
X036096Y070705D02*
X037243Y070705D01*
X037100Y071104D02*
X036495Y071104D01*
X036893Y071502D02*
X037089Y071502D01*
X037955Y072564D02*
X039742Y074351D01*
X039922Y074531D01*
X040020Y074766D01*
X040020Y076005D01*
X040219Y075922D01*
X040541Y075922D01*
X040838Y076046D01*
X040880Y076087D01*
X040921Y076046D01*
X041219Y075922D01*
X041541Y075922D01*
X041838Y076046D01*
X041880Y076087D01*
X041921Y076046D01*
X042219Y075922D01*
X042541Y075922D01*
X042838Y076046D01*
X042880Y076087D01*
X042921Y076046D01*
X043219Y075922D01*
X043541Y075922D01*
X043838Y076046D01*
X043880Y076087D01*
X043921Y076046D01*
X044219Y075922D01*
X044541Y075922D01*
X044838Y076046D01*
X044939Y076146D01*
X044939Y066512D01*
X045036Y066278D01*
X045215Y066099D01*
X046514Y064800D01*
X046514Y058528D01*
X046512Y058529D01*
X046167Y058672D01*
X045793Y058672D01*
X045447Y058529D01*
X045183Y058265D01*
X045040Y057919D01*
X045040Y044492D01*
X044980Y044432D01*
X044735Y044331D01*
X044512Y044108D01*
X044410Y043862D01*
X040968Y040420D01*
X040704Y040156D01*
X040561Y039810D01*
X040561Y028641D01*
X040704Y028295D01*
X040968Y028031D01*
X041314Y027888D01*
X041688Y027888D01*
X041956Y027998D01*
X042005Y027879D01*
X042185Y027699D01*
X045861Y024023D01*
X045861Y010555D01*
X045662Y010638D01*
X045340Y010638D01*
X045042Y010514D01*
X045001Y010473D01*
X044960Y010514D01*
X044954Y010516D01*
X044954Y010812D01*
X044858Y011046D01*
X044678Y011225D01*
X033586Y022317D01*
X033586Y029132D01*
X034910Y030456D01*
X035007Y030690D01*
X035007Y045676D01*
X035010Y045683D01*
X035010Y046361D01*
X034912Y046597D01*
X034732Y046777D01*
X034218Y047292D01*
X033982Y047389D01*
X033575Y047389D01*
X033575Y047626D01*
X033451Y047924D01*
X033410Y047965D01*
X033451Y048007D01*
X033575Y048304D01*
X033575Y048626D01*
X033451Y048924D01*
X033410Y048965D01*
X033451Y049007D01*
X033575Y049304D01*
X033575Y049626D01*
X033451Y049924D01*
X033410Y049965D01*
X033451Y050007D01*
X033575Y050304D01*
X033575Y050626D01*
X033451Y050924D01*
X033410Y050965D01*
X033451Y051007D01*
X033575Y051304D01*
X033575Y051626D01*
X033451Y051924D01*
X033410Y051965D01*
X033451Y052007D01*
X033575Y052304D01*
X033575Y052626D01*
X033451Y052924D01*
X033223Y053152D01*
X032926Y053275D01*
X032603Y053275D01*
X032306Y053152D01*
X032078Y052924D01*
X031955Y052626D01*
X031955Y052304D01*
X032078Y052007D01*
X032119Y051965D01*
X032078Y051924D01*
X031955Y051626D01*
X031955Y051304D01*
X032078Y051007D01*
X032119Y050965D01*
X032078Y050924D01*
X031955Y050626D01*
X031955Y050304D01*
X032078Y050007D01*
X032119Y049965D01*
X032078Y049924D01*
X031955Y049626D01*
X031955Y049304D01*
X032078Y049007D01*
X032119Y048965D01*
X032078Y048924D01*
X031955Y048626D01*
X031955Y048304D01*
X032078Y048007D01*
X032119Y047965D01*
X032078Y047924D01*
X031955Y047626D01*
X031955Y047389D01*
X031700Y047389D01*
X031465Y047292D01*
X031285Y047111D01*
X029365Y045191D01*
X016479Y045191D01*
X016245Y045094D01*
X016066Y044915D01*
X014458Y043307D01*
X014451Y043324D01*
X014410Y043365D01*
X014451Y043407D01*
X014575Y043704D01*
X014575Y044026D01*
X014451Y044324D01*
X014223Y044552D01*
X013950Y044665D01*
X014223Y044779D01*
X014451Y045007D01*
X014575Y045304D01*
X014575Y045626D01*
X014451Y045924D01*
X014410Y045965D01*
X014451Y046007D01*
X014575Y046304D01*
X014575Y046626D01*
X014451Y046924D01*
X014410Y046965D01*
X014451Y047007D01*
X014575Y047304D01*
X014575Y047626D01*
X014451Y047924D01*
X014410Y047965D01*
X014451Y048007D01*
X014575Y048304D01*
X014575Y048626D01*
X014451Y048924D01*
X014410Y048965D01*
X014451Y049007D01*
X014575Y049304D01*
X014575Y049626D01*
X014451Y049924D01*
X014410Y049965D01*
X014451Y050007D01*
X014575Y050304D01*
X014575Y050626D01*
X014451Y050924D01*
X014410Y050965D01*
X014451Y051007D01*
X014575Y051304D01*
X014575Y051626D01*
X014451Y051924D01*
X014410Y051965D01*
X014451Y052007D01*
X014575Y052304D01*
X014575Y052626D01*
X014451Y052924D01*
X014223Y053152D01*
X013926Y053275D01*
X013603Y053275D01*
X013306Y053152D01*
X013078Y052924D01*
X012955Y052626D01*
X012955Y052304D01*
X013078Y052007D01*
X013119Y051965D01*
X013078Y051924D01*
X012955Y051626D01*
X012955Y051304D01*
X013078Y051007D01*
X013119Y050965D01*
X013078Y050924D01*
X012955Y050626D01*
X012955Y050304D01*
X013078Y050007D01*
X013119Y049965D01*
X013078Y049924D01*
X012955Y049626D01*
X012955Y049304D01*
X013078Y049007D01*
X013119Y048965D01*
X013078Y048924D01*
X012955Y048626D01*
X012955Y048304D01*
X013078Y048007D01*
X013119Y047965D01*
X013078Y047924D01*
X012955Y047626D01*
X012955Y047304D01*
X013078Y047007D01*
X013119Y046965D01*
X013078Y046924D01*
X012955Y046626D01*
X012955Y046304D01*
X013078Y046007D01*
X013119Y045965D01*
X013078Y045924D01*
X012955Y045626D01*
X012955Y045304D01*
X013078Y045007D01*
X013306Y044779D01*
X013579Y044665D01*
X013306Y044552D01*
X013078Y044324D01*
X012955Y044026D01*
X012955Y043704D01*
X013078Y043407D01*
X013119Y043365D01*
X013078Y043324D01*
X012955Y043026D01*
X012955Y042704D01*
X013078Y042407D01*
X013119Y042365D01*
X013078Y042324D01*
X012955Y042026D01*
X012955Y041704D01*
X013078Y041407D01*
X013119Y041365D01*
X013078Y041324D01*
X012955Y041026D01*
X012955Y040704D01*
X013078Y040407D01*
X013119Y040365D01*
X013078Y040324D01*
X012955Y040026D01*
X012955Y039704D01*
X013078Y039407D01*
X013119Y039365D01*
X013078Y039324D01*
X012955Y039026D01*
X012955Y038704D01*
X013078Y038407D01*
X013306Y038179D01*
X013603Y038055D01*
X013926Y038055D01*
X014223Y038179D01*
X014451Y038407D01*
X014575Y038704D01*
X014575Y039026D01*
X014451Y039324D01*
X014410Y039365D01*
X014451Y039407D01*
X014575Y039704D01*
X014575Y040026D01*
X014451Y040324D01*
X014410Y040365D01*
X014451Y040407D01*
X014575Y040704D01*
X014575Y041026D01*
X014451Y041324D01*
X014410Y041365D01*
X014451Y041407D01*
X014575Y041704D01*
X014575Y042023D01*
X014838Y042023D01*
X015072Y042120D01*
X016870Y043918D01*
X029498Y043918D01*
X029506Y043914D01*
X029760Y043914D01*
X029995Y044012D01*
X032092Y046109D01*
X032263Y046109D01*
X032078Y045924D01*
X031955Y045626D01*
X031955Y045304D01*
X032078Y045007D01*
X032306Y044779D01*
X032603Y044655D01*
X032926Y044655D01*
X033223Y044779D01*
X033451Y045007D01*
X033575Y045304D01*
X033575Y045626D01*
X033451Y045924D01*
X033266Y046109D01*
X033590Y046109D01*
X033730Y045969D01*
X033730Y045683D01*
X033733Y045676D01*
X033733Y031081D01*
X032588Y029936D01*
X032409Y029757D01*
X032312Y029523D01*
X032312Y021927D01*
X032409Y021693D01*
X043464Y010638D01*
X043340Y010638D01*
X043042Y010514D01*
X043001Y010473D01*
X042960Y010514D01*
X042662Y010638D01*
X042340Y010638D01*
X042042Y010514D01*
X042001Y010473D01*
X041960Y010514D01*
X041662Y010638D01*
X041340Y010638D01*
X041042Y010514D01*
X040814Y010286D01*
X040701Y010013D01*
X040587Y010286D01*
X040360Y010514D01*
X040062Y010638D01*
X039740Y010638D01*
X039442Y010514D01*
X039401Y010473D01*
X039360Y010514D01*
X039062Y010638D01*
X038740Y010638D01*
X038442Y010514D01*
X038401Y010473D01*
X038360Y010514D01*
X038062Y010638D01*
X037740Y010638D01*
X037442Y010514D01*
X037401Y010473D01*
X037360Y010514D01*
X037062Y010638D01*
X036740Y010638D01*
X036442Y010514D01*
X036401Y010473D01*
X036360Y010514D01*
X036062Y010638D01*
X035740Y010638D01*
X035442Y010514D01*
X035401Y010473D01*
X035360Y010514D01*
X035062Y010638D01*
X034740Y010638D01*
X034442Y010514D01*
X034401Y010473D01*
X034360Y010514D01*
X034062Y010638D01*
X033740Y010638D01*
X033442Y010514D01*
X033401Y010473D01*
X033360Y010514D01*
X033062Y010638D01*
X032740Y010638D01*
X032442Y010514D01*
X032401Y010473D01*
X032360Y010514D01*
X032062Y010638D01*
X031740Y010638D01*
X031442Y010514D01*
X031401Y010473D01*
X031360Y010514D01*
X031062Y010638D01*
X030740Y010638D01*
X030442Y010514D01*
X030214Y010286D01*
X030091Y009989D01*
X030091Y009666D01*
X030214Y009369D01*
X030442Y009141D01*
X030740Y009018D01*
X031062Y009018D01*
X031360Y009141D01*
X031401Y009182D01*
X031442Y009141D01*
X031740Y009018D01*
X032062Y009018D01*
X032360Y009141D01*
X032401Y009182D01*
X032442Y009141D01*
X032740Y009018D01*
X033062Y009018D01*
X033360Y009141D01*
X033401Y009182D01*
X033442Y009141D01*
X033740Y009018D01*
X034062Y009018D01*
X034360Y009141D01*
X034401Y009182D01*
X034442Y009141D01*
X034740Y009018D01*
X035062Y009018D01*
X035360Y009141D01*
X035401Y009182D01*
X035442Y009141D01*
X035740Y009018D01*
X036062Y009018D01*
X036360Y009141D01*
X036401Y009182D01*
X036442Y009141D01*
X036740Y009018D01*
X037062Y009018D01*
X037360Y009141D01*
X037401Y009182D01*
X037442Y009141D01*
X037740Y009018D01*
X038062Y009018D01*
X038360Y009141D01*
X038401Y009182D01*
X038442Y009141D01*
X038740Y009018D01*
X039062Y009018D01*
X039360Y009141D01*
X039401Y009182D01*
X039442Y009141D01*
X039740Y009018D01*
X040062Y009018D01*
X040360Y009141D01*
X040587Y009369D01*
X040701Y009642D01*
X040814Y009369D01*
X041042Y009141D01*
X041340Y009018D01*
X041662Y009018D01*
X041960Y009141D01*
X042001Y009182D01*
X042042Y009141D01*
X042340Y009018D01*
X042662Y009018D01*
X042960Y009141D01*
X043001Y009182D01*
X043042Y009141D01*
X043340Y009018D01*
X043662Y009018D01*
X043960Y009141D01*
X044001Y009182D01*
X044042Y009141D01*
X044340Y009018D01*
X044662Y009018D01*
X044960Y009141D01*
X045001Y009182D01*
X045042Y009141D01*
X045340Y009018D01*
X045662Y009018D01*
X045960Y009141D01*
X046001Y009182D01*
X046042Y009141D01*
X046340Y009018D01*
X046662Y009018D01*
X046960Y009141D01*
X047001Y009182D01*
X047042Y009141D01*
X047340Y009018D01*
X047662Y009018D01*
X047960Y009141D01*
X048001Y009182D01*
X048042Y009141D01*
X048340Y009018D01*
X048662Y009018D01*
X048960Y009141D01*
X049187Y009369D01*
X049311Y009666D01*
X049311Y009989D01*
X049187Y010286D01*
X048960Y010514D01*
X048662Y010638D01*
X048340Y010638D01*
X048042Y010514D01*
X048001Y010473D01*
X047960Y010514D01*
X047662Y010638D01*
X047340Y010638D01*
X047141Y010555D01*
X047141Y024416D01*
X047043Y024651D01*
X043672Y028022D01*
X043960Y028141D01*
X044001Y028182D01*
X044042Y028141D01*
X044340Y028018D01*
X044662Y028018D01*
X044960Y028141D01*
X045001Y028182D01*
X045042Y028141D01*
X045340Y028018D01*
X045662Y028018D01*
X045960Y028141D01*
X046001Y028182D01*
X046042Y028141D01*
X046340Y028018D01*
X046662Y028018D01*
X046960Y028141D01*
X047001Y028182D01*
X047042Y028141D01*
X047340Y028018D01*
X047662Y028018D01*
X047960Y028141D01*
X048001Y028182D01*
X048042Y028141D01*
X048340Y028018D01*
X048662Y028018D01*
X048960Y028141D01*
X049001Y028182D01*
X049042Y028141D01*
X049340Y028018D01*
X049662Y028018D01*
X049960Y028141D01*
X050001Y028182D01*
X050042Y028141D01*
X050340Y028018D01*
X050662Y028018D01*
X050844Y028093D01*
X050844Y027903D01*
X050941Y027667D01*
X051121Y027487D01*
X055754Y022855D01*
X055754Y015293D01*
X055851Y015057D01*
X056031Y014877D01*
X056545Y014364D01*
X054288Y014364D01*
X054053Y014266D01*
X052992Y013205D01*
X052890Y013104D01*
X052710Y013178D01*
X052425Y013178D01*
X052161Y013069D01*
X051960Y012867D01*
X051850Y012604D01*
X051850Y012318D01*
X051938Y012108D01*
X051907Y012087D01*
X051873Y012036D01*
X050475Y010638D01*
X050340Y010638D01*
X050042Y010514D01*
X049814Y010286D01*
X049691Y009989D01*
X049691Y009666D01*
X049814Y009369D01*
X050042Y009141D01*
X050340Y009018D01*
X050662Y009018D01*
X050960Y009141D01*
X051001Y009182D01*
X051042Y009141D01*
X051340Y009018D01*
X051662Y009018D01*
X051960Y009141D01*
X052001Y009182D01*
X052042Y009141D01*
X052340Y009018D01*
X052406Y009018D01*
X053891Y007532D01*
X046003Y007532D01*
X045389Y008146D01*
X045155Y008243D01*
X031318Y008243D01*
X030033Y009528D01*
X030033Y040975D01*
X031646Y042588D01*
X031972Y042262D01*
X032078Y042007D01*
X032119Y041965D01*
X032078Y041924D01*
X031955Y041626D01*
X031955Y041304D01*
X032078Y041007D01*
X032119Y040965D01*
X032078Y040924D01*
X031955Y040626D01*
X031955Y040304D01*
X032078Y040007D01*
X032119Y039965D01*
X032078Y039924D01*
X031955Y039626D01*
X031955Y039304D01*
X032078Y039007D01*
X032119Y038965D01*
X032078Y038924D01*
X031955Y038626D01*
X031955Y038304D01*
X032078Y038007D01*
X032306Y037779D01*
X032603Y037655D01*
X032926Y037655D01*
X033223Y037779D01*
X033451Y038007D01*
X033575Y038304D01*
X033575Y038626D01*
X033451Y038924D01*
X033410Y038965D01*
X033451Y039007D01*
X033575Y039304D01*
X033575Y039626D01*
X033451Y039924D01*
X033410Y039965D01*
X033451Y040007D01*
X033575Y040304D01*
X033575Y040626D01*
X033451Y040924D01*
X033410Y040965D01*
X033451Y041007D01*
X033575Y041304D01*
X033575Y041626D01*
X033451Y041924D01*
X033410Y041965D01*
X033451Y042007D01*
X033575Y042304D01*
X033575Y042626D01*
X033451Y042924D01*
X033223Y043152D01*
X032926Y043275D01*
X032917Y043275D01*
X032877Y043280D01*
X032839Y043297D01*
X032753Y043297D01*
X032737Y043299D01*
X032304Y043731D01*
X032125Y043910D01*
X031891Y044007D01*
X031401Y044007D01*
X031167Y043910D01*
X029035Y041778D01*
X028856Y041599D01*
X028759Y041365D01*
X028759Y009137D01*
X028856Y008903D01*
X030514Y007245D01*
X030693Y007066D01*
X030927Y006969D01*
X044764Y006969D01*
X045199Y006535D01*
X045378Y006355D01*
X045612Y006258D01*
X059603Y006258D01*
X059837Y006355D01*
X060016Y006535D01*
X061161Y007680D01*
X062208Y007680D01*
X062442Y007776D01*
X062916Y008250D01*
X071442Y016777D01*
X071622Y016956D01*
X071719Y017190D01*
X071719Y042543D01*
X071829Y042433D01*
X071829Y042304D01*
X071952Y042007D01*
X071993Y041965D01*
X071952Y041924D01*
X071829Y041626D01*
X071829Y041304D01*
X071952Y041007D01*
X071993Y040965D01*
X071952Y040924D01*
X071829Y040626D01*
X071829Y040304D01*
X071952Y040007D01*
X071993Y039965D01*
X071952Y039924D01*
X071829Y039626D01*
X071829Y039304D01*
X071952Y039007D01*
X071993Y038965D01*
X071952Y038924D01*
X071829Y038626D01*
X071829Y038304D01*
X071952Y038007D01*
X072180Y037779D01*
X072477Y037655D01*
X072800Y037655D01*
X073097Y037779D01*
X073325Y038007D01*
X073449Y038304D01*
X073449Y038626D01*
X073325Y038924D01*
X073284Y038965D01*
X073325Y039007D01*
X073449Y039304D01*
X073449Y039626D01*
X073325Y039924D01*
X073284Y039965D01*
X073325Y040007D01*
X073449Y040304D01*
X073449Y040626D01*
X073325Y040924D01*
X073284Y040965D01*
X073325Y041007D01*
X073449Y041304D01*
X073449Y041626D01*
X073325Y041924D01*
X073284Y041965D01*
X073325Y042007D01*
X073449Y042304D01*
X073449Y042626D01*
X073325Y042924D01*
X073097Y043152D01*
X072800Y043275D01*
X072788Y043275D01*
X072214Y043849D01*
X071719Y044345D01*
X071719Y053445D01*
X071622Y053679D01*
X071442Y053858D01*
X058127Y067173D01*
X058124Y067181D01*
X058001Y067304D01*
X057820Y067484D01*
X057585Y067582D01*
X057157Y067582D01*
X057246Y067795D01*
X057246Y068089D01*
X057133Y068361D01*
X057052Y068442D01*
X057133Y068523D01*
X057246Y068795D01*
X057246Y069089D01*
X057133Y069361D01*
X057052Y069442D01*
X057133Y069523D01*
X057246Y069795D01*
X057246Y070089D01*
X057133Y070361D01*
X057052Y070442D01*
X057133Y070523D01*
X057246Y070795D01*
X057246Y071089D01*
X057133Y071361D01*
X056925Y071569D01*
X056653Y071682D01*
X055758Y071682D01*
X055486Y071569D01*
X055278Y071361D01*
X055166Y071089D01*
X055166Y070795D01*
X055278Y070523D01*
X055359Y070442D01*
X055278Y070361D01*
X055166Y070089D01*
X055166Y069795D01*
X055278Y069523D01*
X055359Y069442D01*
X055278Y069361D01*
X055166Y069089D01*
X055166Y068795D01*
X055278Y068523D01*
X055359Y068442D01*
X055278Y068361D01*
X055166Y068089D01*
X055166Y067795D01*
X055278Y067523D01*
X055359Y067442D01*
X055278Y067361D01*
X055166Y067089D01*
X055166Y066795D01*
X055278Y066523D01*
X055359Y066442D01*
X055278Y066361D01*
X055166Y066089D01*
X055166Y065795D01*
X055278Y065523D01*
X055486Y065314D01*
X055758Y065202D01*
X056653Y065202D01*
X056925Y065314D01*
X057133Y065523D01*
X057246Y065795D01*
X057246Y066089D01*
X057157Y066302D01*
X057193Y066302D01*
X057219Y066276D01*
X057226Y066273D01*
X070445Y053054D01*
X070445Y043954D01*
X070542Y043720D01*
X070773Y043489D01*
X070721Y043436D01*
X070542Y043257D01*
X070445Y043023D01*
X070445Y017580D01*
X062555Y009691D01*
X062311Y009935D01*
X062311Y009989D01*
X062187Y010286D01*
X062146Y010328D01*
X062311Y010492D01*
X062311Y010759D01*
X062682Y010759D01*
X062916Y010856D01*
X068837Y016777D01*
X069016Y016956D01*
X069113Y017190D01*
X069113Y035918D01*
X069016Y036152D01*
X054383Y050785D01*
X054325Y050924D01*
X054284Y050965D01*
X054325Y051007D01*
X054449Y051304D01*
X054449Y051626D01*
X054325Y051924D01*
X054284Y051965D01*
X054325Y052007D01*
X054449Y052304D01*
X054449Y052626D01*
X054325Y052924D01*
X054097Y053152D01*
X053800Y053275D01*
X053477Y053275D01*
X053180Y053152D01*
X052952Y052924D01*
X052881Y052753D01*
X048637Y056998D01*
X048819Y056922D01*
X049141Y056922D01*
X049438Y057046D01*
X049480Y057087D01*
X049521Y057046D01*
X049819Y056922D01*
X050141Y056922D01*
X050438Y057046D01*
X050480Y057087D01*
X050521Y057046D01*
X050819Y056922D01*
X051141Y056922D01*
X051438Y057046D01*
X051480Y057087D01*
X051521Y057046D01*
X051819Y056922D01*
X052141Y056922D01*
X052438Y057046D01*
X052480Y057087D01*
X052521Y057046D01*
X052819Y056922D01*
X053141Y056922D01*
X053438Y057046D01*
X053666Y057274D01*
X053790Y057571D01*
X053790Y057894D01*
X053666Y058191D01*
X053438Y058419D01*
X053141Y058542D01*
X052819Y058542D01*
X052521Y058419D01*
X052480Y058378D01*
X052438Y058419D01*
X052141Y058542D01*
X051819Y058542D01*
X051521Y058419D01*
X051480Y058378D01*
X051438Y058419D01*
X051141Y058542D01*
X050819Y058542D01*
X050521Y058419D01*
X050480Y058378D01*
X050438Y058419D01*
X050141Y058542D01*
X049819Y058542D01*
X049521Y058419D01*
X049480Y058378D01*
X049438Y058419D01*
X049141Y058542D01*
X048819Y058542D01*
X048521Y058419D01*
X048480Y058378D01*
X048438Y058419D01*
X048141Y058542D01*
X047819Y058542D01*
X047787Y058529D01*
X047787Y065190D01*
X047690Y065425D01*
X047107Y066008D01*
X047456Y066096D01*
X047817Y066332D01*
X048082Y066673D01*
X048222Y067080D01*
X048222Y067512D01*
X048082Y067920D01*
X047817Y068260D01*
X047456Y068496D01*
X047038Y068602D01*
X046608Y068566D01*
X046213Y068393D01*
X046212Y068392D01*
X046212Y075952D01*
X046438Y076046D01*
X046480Y076087D01*
X046521Y076046D01*
X046819Y075922D01*
X047141Y075922D01*
X047438Y076046D01*
X047480Y076087D01*
X047521Y076046D01*
X047819Y075922D01*
X048141Y075922D01*
X048438Y076046D01*
X048480Y076087D01*
X048521Y076046D01*
X048819Y075922D01*
X049141Y075922D01*
X049438Y076046D01*
X049480Y076087D01*
X049521Y076046D01*
X049819Y075922D01*
X050141Y075922D01*
X050438Y076046D01*
X050480Y076087D01*
X050521Y076046D01*
X050819Y075922D01*
X051141Y075922D01*
X051438Y076046D01*
X051480Y076087D01*
X051521Y076046D01*
X051819Y075922D01*
X052141Y075922D01*
X052438Y076046D01*
X052480Y076087D01*
X052521Y076046D01*
X052819Y075922D01*
X053141Y075922D01*
X053438Y076046D01*
X053666Y076274D01*
X053790Y076571D01*
X053790Y076894D01*
X053666Y077191D01*
X053438Y077419D01*
X053141Y077542D01*
X052819Y077542D01*
X052521Y077419D01*
X052480Y077378D01*
X052438Y077419D01*
X052141Y077542D01*
X051819Y077542D01*
X051521Y077419D01*
X051480Y077378D01*
X051438Y077419D01*
X051141Y077542D01*
X050819Y077542D01*
X050521Y077419D01*
X050480Y077378D01*
X050438Y077419D01*
X050141Y077542D01*
X049819Y077542D01*
X049521Y077419D01*
X049480Y077378D01*
X049438Y077419D01*
X049141Y077542D01*
X048819Y077542D01*
X048521Y077419D01*
X048480Y077378D01*
X048438Y077419D01*
X048141Y077542D01*
X047819Y077542D01*
X047521Y077419D01*
X047480Y077378D01*
X047438Y077419D01*
X047141Y077542D01*
X046819Y077542D01*
X046521Y077419D01*
X046480Y077378D01*
X046438Y077419D01*
X046141Y077542D01*
X045819Y077542D01*
X045521Y077419D01*
X045293Y077191D01*
X045180Y076918D01*
X045066Y077191D01*
X044838Y077419D01*
X044541Y077542D01*
X044219Y077542D01*
X043921Y077419D01*
X043880Y077378D01*
X043838Y077419D01*
X043541Y077542D01*
X043219Y077542D01*
X042921Y077419D01*
X042880Y077378D01*
X042838Y077419D01*
X042541Y077542D01*
X042219Y077542D01*
X042020Y077460D01*
X042020Y077751D01*
X041922Y077986D01*
X041363Y078545D01*
X059631Y078545D01*
X059428Y078147D01*
X059356Y077694D01*
X059356Y077694D01*
X059428Y077240D01*
X059636Y076831D01*
X059961Y076507D01*
X060370Y076298D01*
X060370Y076298D01*
X060824Y076226D01*
X061277Y076298D01*
X061686Y076507D01*
X062011Y076831D01*
X062011Y076831D01*
X062219Y077240D01*
X062219Y077240D01*
X062291Y077694D01*
X062219Y078147D01*
X062016Y078545D01*
X064251Y078545D01*
X065165Y078003D01*
X067235Y076641D01*
X069219Y075156D01*
X071108Y073553D01*
X072896Y071838D01*
X074577Y070017D01*
X076143Y068098D01*
X077590Y066086D01*
X078911Y063990D01*
X080102Y061817D01*
X081159Y059576D01*
X082077Y057275D01*
X082853Y054922D01*
X083485Y052526D01*
X083969Y050096D01*
X084304Y047641D01*
X084490Y045170D01*
X084524Y042692D01*
X084408Y040217D01*
X084140Y037754D01*
X083724Y035312D01*
X083159Y032899D01*
X082449Y030525D01*
X081595Y028199D01*
X080601Y025930D01*
X079471Y023725D01*
X078208Y021593D01*
X076818Y019542D01*
X075306Y017579D01*
X073677Y015712D01*
X071937Y013948D01*
X070093Y012293D01*
X068151Y010754D01*
X066120Y009335D01*
X064006Y008043D01*
X061817Y006882D01*
X059561Y005857D01*
X057247Y004971D01*
X054883Y004227D01*
X052479Y003629D01*
X050042Y003179D01*
X047583Y002877D01*
X045110Y002726D01*
X042632Y002726D01*
X040159Y002877D01*
X037700Y003179D01*
X035263Y003629D01*
X032859Y004227D01*
X030495Y004971D01*
X028181Y005857D01*
X025926Y006882D01*
X023737Y008043D01*
X021622Y009335D01*
X019591Y010754D01*
X017649Y012293D01*
X015805Y013948D01*
X016060Y013720D02*
X028759Y013720D01*
X028759Y013321D02*
X016504Y013321D01*
X016948Y012923D02*
X027438Y012923D01*
X027605Y013089D02*
X027195Y012679D01*
X027195Y012099D01*
X027605Y011689D01*
X028184Y011689D01*
X028595Y012099D01*
X028595Y012679D01*
X028184Y013089D01*
X027605Y013089D01*
X027195Y012524D02*
X017392Y012524D01*
X017861Y012126D02*
X027195Y012126D01*
X027567Y011727D02*
X018363Y011727D01*
X018866Y011329D02*
X028759Y011329D01*
X028759Y011727D02*
X028222Y011727D01*
X028595Y012126D02*
X028759Y012126D01*
X028759Y012524D02*
X028595Y012524D01*
X028759Y012923D02*
X028351Y012923D01*
X030033Y012923D02*
X030438Y012923D01*
X030605Y013089D02*
X030195Y012679D01*
X030195Y012099D01*
X030605Y011689D01*
X031184Y011689D01*
X031595Y012099D01*
X031595Y012679D01*
X031184Y013089D01*
X030605Y013089D01*
X030033Y013321D02*
X040781Y013321D01*
X041179Y012923D02*
X031351Y012923D01*
X031595Y012524D02*
X041578Y012524D01*
X041976Y012126D02*
X031595Y012126D01*
X031222Y011727D02*
X042375Y011727D01*
X042773Y011329D02*
X030033Y011329D01*
X030033Y011727D02*
X030567Y011727D01*
X030195Y012126D02*
X030033Y012126D01*
X030033Y012524D02*
X030195Y012524D01*
X030033Y013720D02*
X040382Y013720D01*
X039984Y014118D02*
X030033Y014118D01*
X030033Y014517D02*
X039585Y014517D01*
X039187Y014915D02*
X030033Y014915D01*
X030033Y015314D02*
X038788Y015314D01*
X038390Y015712D02*
X030033Y015712D01*
X030033Y016111D02*
X037991Y016111D01*
X037593Y016509D02*
X030033Y016509D01*
X030033Y016908D02*
X037194Y016908D01*
X036796Y017306D02*
X030033Y017306D01*
X030033Y017705D02*
X036397Y017705D01*
X035999Y018103D02*
X030033Y018103D01*
X030033Y018502D02*
X035600Y018502D01*
X035202Y018900D02*
X030033Y018900D01*
X030033Y019299D02*
X034803Y019299D01*
X034405Y019697D02*
X030033Y019697D01*
X030033Y020096D02*
X034006Y020096D01*
X033608Y020494D02*
X030033Y020494D01*
X030033Y020893D02*
X033209Y020893D01*
X032811Y021291D02*
X030033Y021291D01*
X030033Y021690D02*
X032412Y021690D01*
X032312Y022088D02*
X030033Y022088D01*
X030033Y022487D02*
X032312Y022487D01*
X032312Y022885D02*
X030033Y022885D01*
X030033Y023284D02*
X032312Y023284D01*
X032312Y023682D02*
X030033Y023682D01*
X030033Y024081D02*
X032312Y024081D01*
X032312Y024479D02*
X030033Y024479D01*
X030033Y024878D02*
X032312Y024878D01*
X032312Y025276D02*
X030033Y025276D01*
X030033Y025675D02*
X032312Y025675D01*
X032312Y026073D02*
X030033Y026073D01*
X030033Y026472D02*
X032312Y026472D01*
X032312Y026870D02*
X030033Y026870D01*
X030033Y027269D02*
X032312Y027269D01*
X032312Y027667D02*
X030033Y027667D01*
X030033Y028066D02*
X032312Y028066D01*
X032312Y028464D02*
X030033Y028464D01*
X030033Y028863D02*
X032312Y028863D01*
X032312Y029261D02*
X030033Y029261D01*
X030033Y029660D02*
X032369Y029660D01*
X032710Y030058D02*
X030033Y030058D01*
X030033Y030457D02*
X033109Y030457D01*
X033507Y030855D02*
X030033Y030855D01*
X030033Y031254D02*
X033733Y031254D01*
X033733Y031652D02*
X030033Y031652D01*
X030033Y032051D02*
X033733Y032051D01*
X033733Y032449D02*
X030033Y032449D01*
X030033Y032848D02*
X033733Y032848D01*
X033733Y033246D02*
X030033Y033246D01*
X030033Y033645D02*
X033733Y033645D01*
X033733Y034043D02*
X030033Y034043D01*
X030033Y034442D02*
X033733Y034442D01*
X033733Y034840D02*
X030033Y034840D01*
X030033Y035239D02*
X033733Y035239D01*
X033733Y035637D02*
X030033Y035637D01*
X030033Y036036D02*
X033733Y036036D01*
X033733Y036434D02*
X030033Y036434D01*
X030033Y036833D02*
X033733Y036833D01*
X033733Y037231D02*
X030033Y037231D01*
X030033Y037630D02*
X033733Y037630D01*
X033733Y038028D02*
X033460Y038028D01*
X033575Y038427D02*
X033733Y038427D01*
X033733Y038825D02*
X033492Y038825D01*
X033541Y039224D02*
X033733Y039224D01*
X033733Y039622D02*
X033575Y039622D01*
X033457Y040021D02*
X033733Y040021D01*
X033733Y040419D02*
X033575Y040419D01*
X033495Y040818D02*
X033733Y040818D01*
X033733Y041216D02*
X033538Y041216D01*
X033575Y041615D02*
X033733Y041615D01*
X033733Y042013D02*
X033454Y042013D01*
X033575Y042412D02*
X033733Y042412D01*
X033733Y042810D02*
X033499Y042810D01*
X033733Y043209D02*
X033087Y043209D01*
X033733Y043607D02*
X032428Y043607D01*
X031895Y044006D02*
X033733Y044006D01*
X033733Y044404D02*
X030388Y044404D01*
X030786Y044803D02*
X032282Y044803D01*
X031997Y045201D02*
X031185Y045201D01*
X031583Y045600D02*
X031955Y045600D01*
X031982Y045998D02*
X032152Y045998D01*
X031827Y046749D02*
X033855Y046749D01*
X034370Y046234D01*
X034370Y045811D01*
X035010Y045998D02*
X045040Y045998D01*
X045040Y045600D02*
X035007Y045600D01*
X035007Y045201D02*
X045040Y045201D01*
X045040Y044803D02*
X035007Y044803D01*
X035007Y044404D02*
X044912Y044404D01*
X044470Y044006D02*
X035007Y044006D01*
X035007Y043607D02*
X044155Y043607D01*
X043757Y043209D02*
X035007Y043209D01*
X035007Y042810D02*
X043358Y042810D01*
X042960Y042412D02*
X035007Y042412D01*
X035007Y042013D02*
X042561Y042013D01*
X042163Y041615D02*
X035007Y041615D01*
X035007Y041216D02*
X041764Y041216D01*
X041366Y040818D02*
X035007Y040818D01*
X035007Y040419D02*
X040967Y040419D01*
X040648Y040021D02*
X035007Y040021D01*
X035007Y039622D02*
X040561Y039622D01*
X040561Y039224D02*
X035007Y039224D01*
X035007Y038825D02*
X040561Y038825D01*
X040561Y038427D02*
X035007Y038427D01*
X035007Y038028D02*
X040561Y038028D01*
X040561Y037630D02*
X035007Y037630D01*
X035007Y037231D02*
X040561Y037231D01*
X040561Y036833D02*
X035007Y036833D01*
X035007Y036434D02*
X040561Y036434D01*
X040561Y036036D02*
X035007Y036036D01*
X035007Y035637D02*
X040561Y035637D01*
X040561Y035239D02*
X035007Y035239D01*
X035007Y034840D02*
X040561Y034840D01*
X040561Y034442D02*
X035007Y034442D01*
X035007Y034043D02*
X040561Y034043D01*
X040561Y033645D02*
X035007Y033645D01*
X035007Y033246D02*
X040561Y033246D01*
X040561Y032848D02*
X035007Y032848D01*
X035007Y032449D02*
X040561Y032449D01*
X040561Y032051D02*
X035007Y032051D01*
X035007Y031652D02*
X040561Y031652D01*
X040561Y031254D02*
X035007Y031254D01*
X035007Y030855D02*
X040561Y030855D01*
X040561Y030457D02*
X034910Y030457D01*
X034511Y030058D02*
X040561Y030058D01*
X040561Y029660D02*
X034113Y029660D01*
X034042Y029514D02*
X034340Y029638D01*
X034662Y029638D01*
X034960Y029514D01*
X035001Y029473D01*
X035042Y029514D01*
X035340Y029638D01*
X035662Y029638D01*
X035960Y029514D01*
X036001Y029473D01*
X036042Y029514D01*
X036340Y029638D01*
X036662Y029638D01*
X036960Y029514D01*
X037001Y029473D01*
X037042Y029514D01*
X037340Y029638D01*
X037662Y029638D01*
X037960Y029514D01*
X038001Y029473D01*
X038042Y029514D01*
X038340Y029638D01*
X038662Y029638D01*
X038960Y029514D01*
X039187Y029286D01*
X039311Y028989D01*
X039311Y028666D01*
X039187Y028369D01*
X038960Y028141D01*
X038662Y028018D01*
X038340Y028018D01*
X038042Y028141D01*
X038001Y028182D01*
X037960Y028141D01*
X037662Y028018D01*
X037340Y028018D01*
X037042Y028141D01*
X037001Y028182D01*
X036960Y028141D01*
X036662Y028018D01*
X036340Y028018D01*
X036042Y028141D01*
X036001Y028182D01*
X035960Y028141D01*
X035662Y028018D01*
X035340Y028018D01*
X035042Y028141D01*
X035001Y028182D01*
X034960Y028141D01*
X034662Y028018D01*
X034340Y028018D01*
X034042Y028141D01*
X033814Y028369D01*
X033691Y028666D01*
X033691Y028989D01*
X033814Y029286D01*
X034042Y029514D01*
X033804Y029261D02*
X033714Y029261D01*
X033691Y028863D02*
X033586Y028863D01*
X033586Y028464D02*
X033775Y028464D01*
X033586Y028066D02*
X034224Y028066D01*
X034778Y028066D02*
X035224Y028066D01*
X035778Y028066D02*
X036224Y028066D01*
X036778Y028066D02*
X037224Y028066D01*
X037778Y028066D02*
X038224Y028066D01*
X038778Y028066D02*
X040933Y028066D01*
X040634Y028464D02*
X039227Y028464D01*
X039311Y028863D02*
X040561Y028863D01*
X040561Y029261D02*
X039198Y029261D01*
X042217Y027667D02*
X033586Y027667D01*
X033586Y027269D02*
X042616Y027269D01*
X043014Y026870D02*
X033586Y026870D01*
X033586Y026472D02*
X043413Y026472D01*
X043811Y026073D02*
X033586Y026073D01*
X033586Y025675D02*
X044210Y025675D01*
X044608Y025276D02*
X033586Y025276D01*
X033586Y024878D02*
X045007Y024878D01*
X045405Y024479D02*
X033586Y024479D01*
X033586Y024081D02*
X045804Y024081D01*
X045861Y023682D02*
X033586Y023682D01*
X033586Y023284D02*
X045861Y023284D01*
X045861Y022885D02*
X033586Y022885D01*
X033586Y022487D02*
X045861Y022487D01*
X045861Y022088D02*
X033815Y022088D01*
X034214Y021690D02*
X045861Y021690D01*
X045861Y021291D02*
X034612Y021291D01*
X035011Y020893D02*
X045861Y020893D01*
X045861Y020494D02*
X035409Y020494D01*
X035808Y020096D02*
X045861Y020096D01*
X045861Y019697D02*
X036206Y019697D01*
X036605Y019299D02*
X045861Y019299D01*
X045861Y018900D02*
X037003Y018900D01*
X037402Y018502D02*
X045861Y018502D01*
X045861Y018103D02*
X037800Y018103D01*
X038199Y017705D02*
X045861Y017705D01*
X045861Y017306D02*
X038597Y017306D01*
X038996Y016908D02*
X045861Y016908D01*
X045861Y016509D02*
X039394Y016509D01*
X039793Y016111D02*
X045861Y016111D01*
X045861Y015712D02*
X040191Y015712D01*
X040590Y015314D02*
X045861Y015314D01*
X045861Y014915D02*
X040988Y014915D01*
X041387Y014517D02*
X045861Y014517D01*
X045861Y014118D02*
X041785Y014118D01*
X042184Y013720D02*
X045861Y013720D01*
X045861Y013321D02*
X042582Y013321D01*
X042981Y012923D02*
X045861Y012923D01*
X045861Y012524D02*
X043379Y012524D01*
X043778Y012126D02*
X045861Y012126D01*
X045861Y011727D02*
X044176Y011727D01*
X044575Y011329D02*
X045861Y011329D01*
X045861Y010930D02*
X044905Y010930D01*
X044954Y010532D02*
X045084Y010532D01*
X046501Y009828D02*
X046501Y024289D01*
X042547Y028242D01*
X042547Y033646D01*
X044596Y035695D01*
X052124Y035637D02*
X052856Y035637D01*
X052829Y035704D02*
X052952Y035407D01*
X052993Y035365D01*
X052952Y035324D01*
X052829Y035026D01*
X052829Y034704D01*
X052952Y034407D01*
X053180Y034179D01*
X053477Y034055D01*
X053800Y034055D01*
X054097Y034179D01*
X054325Y034407D01*
X054449Y034704D01*
X054449Y035026D01*
X054325Y035324D01*
X054284Y035365D01*
X054325Y035407D01*
X054449Y035704D01*
X054449Y036026D01*
X054325Y036324D01*
X054284Y036365D01*
X054325Y036407D01*
X054449Y036704D01*
X054449Y037026D01*
X054325Y037324D01*
X054097Y037552D01*
X053800Y037675D01*
X053477Y037675D01*
X053180Y037552D01*
X052952Y037324D01*
X052829Y037026D01*
X052829Y036704D01*
X052952Y036407D01*
X052993Y036365D01*
X052952Y036324D01*
X052829Y036026D01*
X052829Y035704D01*
X052832Y036036D02*
X052124Y036036D01*
X052124Y036434D02*
X052940Y036434D01*
X052829Y036833D02*
X052124Y036833D01*
X052124Y037231D02*
X052913Y037231D01*
X053367Y037630D02*
X052124Y037630D01*
X052124Y038028D02*
X055628Y038028D01*
X056026Y037630D02*
X053910Y037630D01*
X053800Y038055D02*
X054097Y038179D01*
X054325Y038407D01*
X054449Y038704D01*
X054449Y039026D01*
X054325Y039324D01*
X054284Y039365D01*
X054287Y039369D01*
X060260Y033396D01*
X060260Y029423D01*
X060156Y029318D01*
X059960Y029514D01*
X059662Y029638D01*
X059340Y029638D01*
X059042Y029514D01*
X059001Y029473D01*
X058960Y029514D01*
X058662Y029638D01*
X058340Y029638D01*
X058042Y029514D01*
X058001Y029473D01*
X057960Y029514D01*
X057662Y029638D01*
X057340Y029638D01*
X057042Y029514D01*
X057001Y029473D01*
X056960Y029514D01*
X056662Y029638D01*
X056340Y029638D01*
X056042Y029514D01*
X056001Y029473D01*
X055960Y029514D01*
X055662Y029638D01*
X055340Y029638D01*
X055042Y029514D01*
X055001Y029473D01*
X054960Y029514D01*
X054662Y029638D01*
X054340Y029638D01*
X054042Y029514D01*
X054001Y029473D01*
X053960Y029514D01*
X053662Y029638D01*
X053340Y029638D01*
X053042Y029514D01*
X053001Y029473D01*
X052960Y029514D01*
X052662Y029638D01*
X052340Y029638D01*
X052124Y029548D01*
X052124Y041446D01*
X052916Y042238D01*
X052829Y042026D01*
X052829Y041704D01*
X052952Y041407D01*
X052993Y041365D01*
X052952Y041324D01*
X052829Y041026D01*
X052829Y040704D01*
X052952Y040407D01*
X052993Y040365D01*
X052952Y040324D01*
X052829Y040026D01*
X052829Y039704D01*
X052952Y039407D01*
X052993Y039365D01*
X052952Y039324D01*
X052829Y039026D01*
X052829Y038704D01*
X052952Y038407D01*
X053180Y038179D01*
X053477Y038055D01*
X053800Y038055D01*
X054334Y038427D02*
X055229Y038427D01*
X054831Y038825D02*
X054449Y038825D01*
X054432Y039224D02*
X054367Y039224D01*
X052910Y039224D02*
X052124Y039224D01*
X052124Y039622D02*
X052863Y039622D01*
X052829Y040021D02*
X052124Y040021D01*
X052124Y040419D02*
X052947Y040419D01*
X052829Y040818D02*
X052124Y040818D01*
X052124Y041216D02*
X052907Y041216D01*
X052866Y041615D02*
X052293Y041615D01*
X052691Y042013D02*
X052829Y042013D01*
X051484Y041711D02*
X053639Y043865D01*
X054533Y044803D02*
X056433Y044803D01*
X056831Y044404D02*
X054931Y044404D01*
X055330Y044006D02*
X057230Y044006D01*
X057628Y043607D02*
X055728Y043607D01*
X056127Y043209D02*
X058027Y043209D01*
X058425Y042810D02*
X056525Y042810D01*
X056924Y042412D02*
X058824Y042412D01*
X059222Y042013D02*
X057322Y042013D01*
X057721Y041615D02*
X059621Y041615D01*
X060019Y041216D02*
X058119Y041216D01*
X058518Y040818D02*
X060418Y040818D01*
X060816Y040419D02*
X058916Y040419D01*
X059315Y040021D02*
X061215Y040021D01*
X061613Y039622D02*
X059713Y039622D01*
X060112Y039224D02*
X062012Y039224D01*
X062410Y038825D02*
X060510Y038825D01*
X060909Y038427D02*
X062809Y038427D01*
X063207Y038028D02*
X061307Y038028D01*
X061706Y037630D02*
X063606Y037630D01*
X064004Y037231D02*
X062104Y037231D01*
X062503Y036833D02*
X064403Y036833D01*
X064801Y036434D02*
X062901Y036434D01*
X063300Y036036D02*
X065200Y036036D01*
X065598Y035637D02*
X063698Y035637D01*
X064097Y035239D02*
X065997Y035239D01*
X066395Y034840D02*
X064495Y034840D01*
X064894Y034442D02*
X066794Y034442D01*
X067192Y034043D02*
X065292Y034043D01*
X065407Y033928D02*
X054326Y045009D01*
X054449Y045304D01*
X054449Y045626D01*
X054325Y045924D01*
X054284Y045965D01*
X054325Y046007D01*
X054449Y046304D01*
X054449Y046626D01*
X054335Y046900D01*
X067366Y033869D01*
X067366Y019238D01*
X062301Y014173D01*
X062146Y014328D01*
X062311Y014492D01*
X062311Y015163D01*
X062146Y015328D01*
X062311Y015492D01*
X062311Y016163D01*
X062146Y016328D01*
X062311Y016492D01*
X062311Y017163D01*
X062146Y017328D01*
X062311Y017492D01*
X062311Y018163D01*
X062146Y018328D01*
X062311Y018492D01*
X062311Y019163D01*
X062146Y019328D01*
X062311Y019492D01*
X062311Y020163D01*
X062146Y020328D01*
X062311Y020492D01*
X062311Y021163D01*
X062146Y021328D01*
X062311Y021492D01*
X062311Y022163D01*
X062146Y022328D01*
X062311Y022492D01*
X062311Y023163D01*
X062146Y023328D01*
X062311Y023492D01*
X062311Y024163D01*
X062146Y024328D01*
X062311Y024492D01*
X062311Y025163D01*
X062146Y025328D01*
X062311Y025492D01*
X062311Y026163D01*
X062146Y026328D01*
X062187Y026369D01*
X062311Y026666D01*
X062311Y026989D01*
X062187Y027286D01*
X061960Y027514D01*
X061662Y027638D01*
X061340Y027638D01*
X061042Y027514D01*
X061001Y027473D01*
X060960Y027514D01*
X060921Y027530D01*
X061199Y027809D01*
X061498Y027809D01*
X061506Y027812D01*
X061813Y027812D01*
X062984Y026641D01*
X062984Y023742D01*
X063081Y023506D01*
X064221Y022367D01*
X064401Y022187D01*
X064636Y022089D01*
X064967Y022089D01*
X065208Y021989D01*
X066102Y021989D01*
X066374Y022102D01*
X066583Y022310D01*
X066695Y022582D01*
X066695Y022876D01*
X066583Y023148D01*
X066502Y023229D01*
X066583Y023310D01*
X066695Y023582D01*
X066695Y023876D01*
X066583Y024148D01*
X066502Y024229D01*
X066583Y024310D01*
X066695Y024582D01*
X066695Y024876D01*
X066583Y025148D01*
X066374Y025357D01*
X066102Y025469D01*
X065307Y025469D01*
X065307Y026410D01*
X065409Y026512D01*
X065507Y026747D01*
X065507Y027002D01*
X065504Y027010D01*
X065504Y033694D01*
X065407Y033928D01*
X065504Y033645D02*
X067366Y033645D01*
X067366Y033246D02*
X065504Y033246D01*
X065504Y032848D02*
X067366Y032848D01*
X067366Y032449D02*
X065504Y032449D01*
X065504Y032051D02*
X067366Y032051D01*
X067366Y031652D02*
X065504Y031652D01*
X065504Y031254D02*
X067366Y031254D01*
X067366Y030855D02*
X065504Y030855D01*
X065504Y030457D02*
X067366Y030457D01*
X067366Y030058D02*
X065504Y030058D01*
X065504Y029660D02*
X067366Y029660D01*
X067366Y029261D02*
X065504Y029261D01*
X065504Y028863D02*
X067366Y028863D01*
X067366Y028464D02*
X065504Y028464D01*
X065504Y028066D02*
X067366Y028066D01*
X067366Y027667D02*
X065504Y027667D01*
X065504Y027269D02*
X067366Y027269D01*
X067366Y026870D02*
X065507Y026870D01*
X065369Y026472D02*
X067366Y026472D01*
X067366Y026073D02*
X065307Y026073D01*
X065307Y025675D02*
X067366Y025675D01*
X067366Y025276D02*
X066455Y025276D01*
X066695Y024878D02*
X067366Y024878D01*
X067366Y024479D02*
X066653Y024479D01*
X066611Y024081D02*
X067366Y024081D01*
X067366Y023682D02*
X066695Y023682D01*
X066556Y023284D02*
X067366Y023284D01*
X067366Y022885D02*
X066692Y022885D01*
X066656Y022487D02*
X067366Y022487D01*
X067366Y022088D02*
X066341Y022088D01*
X065655Y022729D02*
X064764Y022729D01*
X063624Y023869D01*
X063624Y026906D01*
X062081Y028449D01*
X061371Y028449D02*
X060897Y028449D01*
X060897Y028412D01*
X059308Y026823D01*
X059308Y024230D01*
X059658Y023879D01*
X060449Y023879D01*
X060501Y023828D01*
X062190Y023284D02*
X063304Y023284D01*
X063009Y023682D02*
X062311Y023682D01*
X062311Y024081D02*
X062984Y024081D01*
X062984Y024479D02*
X062298Y024479D01*
X062311Y024878D02*
X062984Y024878D01*
X062984Y025276D02*
X062198Y025276D01*
X062311Y025675D02*
X062984Y025675D01*
X062984Y026073D02*
X062311Y026073D01*
X062230Y026472D02*
X062984Y026472D01*
X062755Y026870D02*
X062311Y026870D01*
X062356Y027269D02*
X062195Y027269D01*
X061958Y027667D02*
X061057Y027667D01*
X060260Y029660D02*
X052124Y029660D01*
X052124Y030058D02*
X060260Y030058D01*
X060260Y030457D02*
X052124Y030457D01*
X052124Y030855D02*
X060260Y030855D01*
X060260Y031254D02*
X052124Y031254D01*
X052124Y031652D02*
X057726Y031652D01*
X057654Y031684D02*
X058049Y031510D01*
X058479Y031475D01*
X058897Y031581D01*
X059258Y031817D01*
X059523Y032157D01*
X059663Y032565D01*
X059663Y032996D01*
X059523Y033404D01*
X059258Y033744D01*
X058897Y033980D01*
X058479Y034086D01*
X058049Y034050D01*
X057654Y033877D01*
X057337Y033585D01*
X057132Y033206D01*
X057061Y032780D01*
X057132Y032355D01*
X057337Y031976D01*
X057654Y031684D01*
X057297Y032051D02*
X052124Y032051D01*
X052124Y032449D02*
X057116Y032449D01*
X057072Y032848D02*
X052124Y032848D01*
X052124Y033246D02*
X057154Y033246D01*
X057402Y033645D02*
X052124Y033645D01*
X052124Y034043D02*
X058033Y034043D01*
X058648Y034043D02*
X059613Y034043D01*
X059335Y033645D02*
X060011Y033645D01*
X060260Y033246D02*
X059577Y033246D01*
X059663Y032848D02*
X060260Y032848D01*
X060260Y032449D02*
X059623Y032449D01*
X059440Y032051D02*
X060260Y032051D01*
X060260Y031652D02*
X059006Y031652D01*
X059214Y034442D02*
X054340Y034442D01*
X054449Y034840D02*
X058816Y034840D01*
X058417Y035239D02*
X054361Y035239D01*
X054421Y035637D02*
X058019Y035637D01*
X057620Y036036D02*
X054445Y036036D01*
X054337Y036434D02*
X057222Y036434D01*
X056823Y036833D02*
X054449Y036833D01*
X054364Y037231D02*
X056425Y037231D01*
X052944Y038427D02*
X052124Y038427D01*
X052124Y038825D02*
X052829Y038825D01*
X051484Y041711D02*
X051484Y028030D01*
X056394Y023120D01*
X056394Y015420D01*
X058986Y012828D01*
X060501Y012828D01*
X060501Y013828D02*
X060468Y013860D01*
X059300Y013860D01*
X058529Y014631D01*
X058529Y015422D01*
X056711Y013724D02*
X054416Y013724D01*
X053355Y012663D01*
X053355Y012461D01*
X054142Y012461D02*
X056279Y012461D01*
X058529Y010211D01*
X059643Y010792D02*
X056711Y013724D01*
X056392Y014517D02*
X047141Y014517D01*
X047141Y014915D02*
X055993Y014915D01*
X055754Y015314D02*
X047141Y015314D01*
X047141Y015712D02*
X055754Y015712D01*
X055754Y016111D02*
X047141Y016111D01*
X047141Y016509D02*
X055754Y016509D01*
X055754Y016908D02*
X047141Y016908D01*
X047141Y017306D02*
X047877Y017306D01*
X047691Y017492D02*
X048165Y017018D01*
X048836Y017018D01*
X049001Y017182D01*
X049165Y017018D01*
X049836Y017018D01*
X050311Y017492D01*
X050311Y018163D01*
X050146Y018328D01*
X050311Y018492D01*
X050311Y019163D01*
X050146Y019328D01*
X050311Y019492D01*
X050311Y020163D01*
X049836Y020638D01*
X049165Y020638D01*
X049001Y020473D01*
X048836Y020638D01*
X048165Y020638D01*
X047691Y020163D01*
X047691Y019492D01*
X047855Y019328D01*
X047691Y019163D01*
X047691Y018492D01*
X047855Y018328D01*
X047691Y018163D01*
X047691Y017492D01*
X047691Y017705D02*
X047141Y017705D01*
X047141Y018103D02*
X047691Y018103D01*
X047691Y018502D02*
X047141Y018502D01*
X047141Y018900D02*
X047691Y018900D01*
X047826Y019299D02*
X047141Y019299D01*
X047141Y019697D02*
X047691Y019697D01*
X047691Y020096D02*
X047141Y020096D01*
X047141Y020494D02*
X048022Y020494D01*
X048980Y020494D02*
X049022Y020494D01*
X049980Y020494D02*
X055754Y020494D01*
X055754Y020096D02*
X050311Y020096D01*
X050311Y019697D02*
X055754Y019697D01*
X055754Y019299D02*
X050175Y019299D01*
X050311Y018900D02*
X055754Y018900D01*
X055754Y018502D02*
X050311Y018502D01*
X050311Y018103D02*
X055754Y018103D01*
X055754Y017705D02*
X050311Y017705D01*
X050125Y017306D02*
X055754Y017306D01*
X055754Y020893D02*
X047141Y020893D01*
X047141Y021291D02*
X055754Y021291D01*
X055754Y021690D02*
X047141Y021690D01*
X047141Y022088D02*
X055754Y022088D01*
X055754Y022487D02*
X047141Y022487D01*
X047141Y022885D02*
X055724Y022885D01*
X055325Y023284D02*
X047141Y023284D01*
X047141Y023682D02*
X054927Y023682D01*
X054528Y024081D02*
X047141Y024081D01*
X047115Y024479D02*
X054130Y024479D01*
X053731Y024878D02*
X046817Y024878D01*
X046418Y025276D02*
X053333Y025276D01*
X052934Y025675D02*
X046020Y025675D01*
X045621Y026073D02*
X052536Y026073D01*
X052137Y026472D02*
X045223Y026472D01*
X044824Y026870D02*
X051739Y026870D01*
X051340Y027269D02*
X044426Y027269D01*
X044027Y027667D02*
X050942Y027667D01*
X050844Y028066D02*
X050778Y028066D01*
X050224Y028066D02*
X049778Y028066D01*
X049224Y028066D02*
X048778Y028066D01*
X048224Y028066D02*
X047778Y028066D01*
X047224Y028066D02*
X046778Y028066D01*
X046224Y028066D02*
X045778Y028066D01*
X045224Y028066D02*
X044778Y028066D01*
X044224Y028066D02*
X043778Y028066D01*
X052124Y034442D02*
X052937Y034442D01*
X052829Y034840D02*
X052124Y034840D01*
X052124Y035239D02*
X052916Y035239D01*
X061561Y043607D02*
X070655Y043607D01*
X070721Y043436D02*
X070721Y043436D01*
X070522Y043209D02*
X061959Y043209D01*
X062358Y042810D02*
X070445Y042810D01*
X070445Y042412D02*
X062756Y042412D01*
X063155Y042013D02*
X070445Y042013D01*
X070445Y041615D02*
X063553Y041615D01*
X063952Y041216D02*
X070445Y041216D01*
X070445Y040818D02*
X064350Y040818D01*
X064749Y040419D02*
X070445Y040419D01*
X070445Y040021D02*
X065147Y040021D01*
X065546Y039622D02*
X070445Y039622D01*
X070445Y039224D02*
X065944Y039224D01*
X066343Y038825D02*
X070445Y038825D01*
X070445Y038427D02*
X066741Y038427D01*
X067140Y038028D02*
X070445Y038028D01*
X070445Y037630D02*
X067538Y037630D01*
X067937Y037231D02*
X070445Y037231D01*
X070445Y036833D02*
X068335Y036833D01*
X068734Y036434D02*
X070445Y036434D01*
X070445Y036036D02*
X069064Y036036D01*
X069113Y035637D02*
X070445Y035637D01*
X070445Y035239D02*
X069113Y035239D01*
X069113Y034840D02*
X070445Y034840D01*
X070445Y034442D02*
X069113Y034442D01*
X069113Y034043D02*
X070445Y034043D01*
X070445Y033645D02*
X069113Y033645D01*
X069113Y033246D02*
X070445Y033246D01*
X070445Y032848D02*
X069113Y032848D01*
X069113Y032449D02*
X070445Y032449D01*
X070445Y032051D02*
X069113Y032051D01*
X069113Y031652D02*
X070445Y031652D01*
X070445Y031254D02*
X069113Y031254D01*
X069113Y030855D02*
X070445Y030855D01*
X070445Y030457D02*
X069113Y030457D01*
X069113Y030058D02*
X070445Y030058D01*
X070445Y029660D02*
X069113Y029660D01*
X069113Y029261D02*
X070445Y029261D01*
X070445Y028863D02*
X069113Y028863D01*
X069113Y028464D02*
X070445Y028464D01*
X070445Y028066D02*
X069113Y028066D01*
X069113Y027667D02*
X070445Y027667D01*
X070445Y027269D02*
X069113Y027269D01*
X069113Y026870D02*
X070445Y026870D01*
X070445Y026472D02*
X069113Y026472D01*
X069113Y026073D02*
X070445Y026073D01*
X070445Y025675D02*
X069113Y025675D01*
X069113Y025276D02*
X070445Y025276D01*
X070445Y024878D02*
X069113Y024878D01*
X069113Y024479D02*
X070445Y024479D01*
X070445Y024081D02*
X069113Y024081D01*
X069113Y023682D02*
X070445Y023682D01*
X070445Y023284D02*
X069113Y023284D01*
X069113Y022885D02*
X070445Y022885D01*
X070445Y022487D02*
X069113Y022487D01*
X069113Y022088D02*
X070445Y022088D01*
X070445Y021690D02*
X069113Y021690D01*
X069113Y021291D02*
X070445Y021291D01*
X070445Y020893D02*
X069113Y020893D01*
X069113Y020494D02*
X070445Y020494D01*
X070445Y020096D02*
X069113Y020096D01*
X069113Y019697D02*
X070445Y019697D01*
X070445Y019299D02*
X069113Y019299D01*
X069113Y018900D02*
X070445Y018900D01*
X070445Y018502D02*
X069113Y018502D01*
X069113Y018103D02*
X070445Y018103D01*
X070445Y017705D02*
X069113Y017705D01*
X069113Y017306D02*
X070170Y017306D01*
X069772Y016908D02*
X068968Y016908D01*
X068837Y016777D02*
X068837Y016777D01*
X068569Y016509D02*
X069373Y016509D01*
X068975Y016111D02*
X068171Y016111D01*
X067772Y015712D02*
X068576Y015712D01*
X068178Y015314D02*
X067374Y015314D01*
X066975Y014915D02*
X067779Y014915D01*
X067381Y014517D02*
X066577Y014517D01*
X066178Y014118D02*
X066982Y014118D01*
X066584Y013720D02*
X065780Y013720D01*
X065381Y013321D02*
X066185Y013321D01*
X065787Y012923D02*
X064983Y012923D01*
X064584Y012524D02*
X065388Y012524D01*
X064990Y012126D02*
X064186Y012126D01*
X063787Y011727D02*
X064591Y011727D01*
X064193Y011329D02*
X063389Y011329D01*
X062990Y010930D02*
X063794Y010930D01*
X063396Y010532D02*
X062311Y010532D01*
X062251Y010133D02*
X062997Y010133D01*
X062599Y009735D02*
X062511Y009735D01*
X063603Y008938D02*
X065469Y008938D01*
X066121Y009336D02*
X064002Y009336D01*
X064400Y009735D02*
X066692Y009735D01*
X067263Y010133D02*
X064799Y010133D01*
X065197Y010532D02*
X067834Y010532D01*
X068374Y010930D02*
X065596Y010930D01*
X065994Y011329D02*
X068877Y011329D01*
X069379Y011727D02*
X066393Y011727D01*
X066791Y012126D02*
X069882Y012126D01*
X070350Y012524D02*
X067190Y012524D01*
X067588Y012923D02*
X070794Y012923D01*
X071238Y013321D02*
X067987Y013321D01*
X068385Y013720D02*
X071682Y013720D01*
X072105Y014118D02*
X068784Y014118D01*
X069182Y014517D02*
X072498Y014517D01*
X072891Y014915D02*
X069581Y014915D01*
X069979Y015314D02*
X073284Y015314D01*
X073677Y015712D02*
X070378Y015712D01*
X070776Y016111D02*
X074024Y016111D01*
X074372Y016509D02*
X071175Y016509D01*
X071573Y016908D02*
X074720Y016908D01*
X075068Y017306D02*
X071719Y017306D01*
X071719Y017705D02*
X075403Y017705D01*
X075710Y018103D02*
X071719Y018103D01*
X071719Y018502D02*
X076017Y018502D01*
X076324Y018900D02*
X071719Y018900D01*
X071719Y019299D02*
X076631Y019299D01*
X076924Y019697D02*
X071719Y019697D01*
X071719Y020096D02*
X077194Y020096D01*
X077464Y020494D02*
X071719Y020494D01*
X071719Y020893D02*
X077734Y020893D01*
X078004Y021291D02*
X071719Y021291D01*
X071719Y021690D02*
X078266Y021690D01*
X078502Y022088D02*
X071719Y022088D01*
X071719Y022487D02*
X078738Y022487D01*
X078973Y022885D02*
X071719Y022885D01*
X071719Y023284D02*
X079209Y023284D01*
X079445Y023682D02*
X071719Y023682D01*
X071719Y024081D02*
X079653Y024081D01*
X079857Y024479D02*
X071719Y024479D01*
X071719Y024878D02*
X080062Y024878D01*
X080266Y025276D02*
X071719Y025276D01*
X071719Y025675D02*
X080470Y025675D01*
X080664Y026073D02*
X071719Y026073D01*
X071719Y026472D02*
X080838Y026472D01*
X081013Y026870D02*
X071719Y026870D01*
X071719Y027269D02*
X081187Y027269D01*
X081362Y027667D02*
X071719Y027667D01*
X071719Y028066D02*
X081536Y028066D01*
X081692Y028464D02*
X071719Y028464D01*
X071719Y028863D02*
X081838Y028863D01*
X081985Y029261D02*
X071719Y029261D01*
X071719Y029660D02*
X082131Y029660D01*
X082277Y030058D02*
X071719Y030058D01*
X071719Y030457D02*
X082423Y030457D01*
X082547Y030855D02*
X071719Y030855D01*
X071719Y031254D02*
X082667Y031254D01*
X082786Y031652D02*
X071719Y031652D01*
X071719Y032051D02*
X082905Y032051D01*
X083025Y032449D02*
X071719Y032449D01*
X071719Y032848D02*
X083144Y032848D01*
X083240Y033246D02*
X071719Y033246D01*
X071719Y033645D02*
X083334Y033645D01*
X083427Y034043D02*
X071719Y034043D01*
X071719Y034442D02*
X083520Y034442D01*
X083614Y034840D02*
X071719Y034840D01*
X071719Y035239D02*
X083707Y035239D01*
X083779Y035637D02*
X071719Y035637D01*
X071719Y036036D02*
X083847Y036036D01*
X083915Y036434D02*
X071719Y036434D01*
X071719Y036833D02*
X083983Y036833D01*
X084051Y037231D02*
X071719Y037231D01*
X071719Y037630D02*
X084119Y037630D01*
X084170Y038028D02*
X073334Y038028D01*
X073449Y038427D02*
X084213Y038427D01*
X084257Y038825D02*
X073366Y038825D01*
X073415Y039224D02*
X084300Y039224D01*
X084343Y039622D02*
X073449Y039622D01*
X073331Y040021D02*
X084386Y040021D01*
X084417Y040419D02*
X073449Y040419D01*
X073369Y040818D02*
X084436Y040818D01*
X084455Y041216D02*
X073412Y041216D01*
X073449Y041615D02*
X084473Y041615D01*
X084492Y042013D02*
X073328Y042013D01*
X073449Y042412D02*
X078194Y042412D01*
X078178Y042420D02*
X078587Y042212D01*
X079040Y042140D01*
X079040Y042140D01*
X079494Y042212D01*
X079903Y042420D01*
X080227Y042745D01*
X080436Y043154D01*
X080508Y043607D01*
X084511Y043607D01*
X084517Y043209D02*
X080444Y043209D01*
X080436Y043154D02*
X080436Y043154D01*
X080261Y042810D02*
X084522Y042810D01*
X084511Y042412D02*
X079886Y042412D01*
X079903Y042420D02*
X079903Y042420D01*
X080227Y042745D02*
X080227Y042745D01*
X080508Y043607D02*
X080436Y044061D01*
X080227Y044470D01*
X079903Y044794D01*
X079903Y044794D01*
X079494Y045003D01*
X079040Y045074D01*
X078587Y045003D01*
X078587Y045003D01*
X078178Y044794D01*
X078178Y044794D01*
X077853Y044470D01*
X077853Y044470D01*
X077645Y044061D01*
X077645Y044061D01*
X077573Y043607D01*
X077645Y043154D01*
X077645Y043154D01*
X077853Y042745D01*
X077853Y042745D01*
X078178Y042420D01*
X078178Y042420D01*
X078587Y042212D02*
X078587Y042212D01*
X079494Y042212D02*
X079494Y042212D01*
X077820Y042810D02*
X073373Y042810D01*
X072961Y043209D02*
X077636Y043209D01*
X077573Y043607D02*
X077573Y043607D01*
X072456Y043607D01*
X072058Y044006D02*
X077636Y044006D01*
X077820Y044404D02*
X071719Y044404D01*
X071719Y044803D02*
X072156Y044803D01*
X072180Y044779D02*
X072477Y044655D01*
X072800Y044655D01*
X073097Y044779D01*
X073325Y045007D01*
X073449Y045304D01*
X073449Y045626D01*
X073325Y045924D01*
X073097Y046152D01*
X072800Y046275D01*
X072477Y046275D01*
X072180Y046152D01*
X071952Y045924D01*
X071829Y045626D01*
X071829Y045304D01*
X071952Y045007D01*
X072180Y044779D01*
X071871Y045201D02*
X071719Y045201D01*
X071719Y045600D02*
X071829Y045600D01*
X071719Y045998D02*
X072026Y045998D01*
X071719Y046397D02*
X084398Y046397D01*
X084368Y046795D02*
X073114Y046795D01*
X073097Y046779D02*
X073325Y047007D01*
X073449Y047304D01*
X073449Y047626D01*
X073325Y047924D01*
X073284Y047965D01*
X073325Y048007D01*
X073449Y048304D01*
X073449Y048626D01*
X073325Y048924D01*
X073284Y048965D01*
X073325Y049007D01*
X073449Y049304D01*
X073449Y049626D01*
X073325Y049924D01*
X073284Y049965D01*
X073325Y050007D01*
X073449Y050304D01*
X073449Y050626D01*
X073325Y050924D01*
X073284Y050965D01*
X073325Y051007D01*
X073449Y051304D01*
X073449Y051626D01*
X073325Y051924D01*
X073284Y051965D01*
X073325Y052007D01*
X073449Y052304D01*
X073449Y052626D01*
X073325Y052924D01*
X073097Y053152D01*
X072800Y053275D01*
X072477Y053275D01*
X072180Y053152D01*
X071952Y052924D01*
X071829Y052626D01*
X071829Y052304D01*
X071952Y052007D01*
X071993Y051965D01*
X071952Y051924D01*
X071829Y051626D01*
X071829Y051304D01*
X071952Y051007D01*
X071993Y050965D01*
X071952Y050924D01*
X071829Y050626D01*
X071829Y050304D01*
X071952Y050007D01*
X071993Y049965D01*
X071952Y049924D01*
X071829Y049626D01*
X071829Y049304D01*
X071952Y049007D01*
X071993Y048965D01*
X071952Y048924D01*
X071829Y048626D01*
X071829Y048304D01*
X071952Y048007D01*
X071993Y047965D01*
X071952Y047924D01*
X071829Y047626D01*
X071829Y047304D01*
X071952Y047007D01*
X072180Y046779D01*
X072477Y046655D01*
X072800Y046655D01*
X073097Y046779D01*
X073403Y047194D02*
X084338Y047194D01*
X084308Y047592D02*
X073449Y047592D01*
X073309Y047991D02*
X084257Y047991D01*
X084202Y048389D02*
X073449Y048389D01*
X073382Y048788D02*
X084148Y048788D01*
X084093Y049186D02*
X073400Y049186D01*
X073449Y049585D02*
X084039Y049585D01*
X083984Y049983D02*
X073302Y049983D01*
X073449Y050382D02*
X083912Y050382D01*
X083832Y050780D02*
X073385Y050780D01*
X073397Y051179D02*
X083753Y051179D01*
X083674Y051577D02*
X073449Y051577D01*
X073294Y051976D02*
X083594Y051976D01*
X083515Y052374D02*
X073449Y052374D01*
X073388Y052773D02*
X083419Y052773D01*
X083314Y053171D02*
X073051Y053171D01*
X072226Y053171D02*
X071719Y053171D01*
X071719Y052773D02*
X071889Y052773D01*
X071829Y052374D02*
X071719Y052374D01*
X071719Y051976D02*
X071983Y051976D01*
X071829Y051577D02*
X071719Y051577D01*
X071719Y051179D02*
X071881Y051179D01*
X071892Y050780D02*
X071719Y050780D01*
X071719Y050382D02*
X071829Y050382D01*
X071719Y049983D02*
X071975Y049983D01*
X071829Y049585D02*
X071719Y049585D01*
X071719Y049186D02*
X071878Y049186D01*
X071895Y048788D02*
X071719Y048788D01*
X071719Y048389D02*
X071829Y048389D01*
X071719Y047991D02*
X071968Y047991D01*
X071829Y047592D02*
X071719Y047592D01*
X071719Y047194D02*
X071874Y047194D01*
X071719Y046795D02*
X072163Y046795D01*
X073251Y045998D02*
X084428Y045998D01*
X084457Y045600D02*
X073449Y045600D01*
X073406Y045201D02*
X084487Y045201D01*
X084495Y044803D02*
X079886Y044803D01*
X079494Y045003D02*
X079494Y045003D01*
X079040Y045074D02*
X079040Y045074D01*
X078194Y044803D02*
X073121Y044803D01*
X071829Y042412D02*
X071719Y042412D01*
X071719Y042013D02*
X071949Y042013D01*
X071829Y041615D02*
X071719Y041615D01*
X071719Y041216D02*
X071865Y041216D01*
X071908Y040818D02*
X071719Y040818D01*
X071719Y040419D02*
X071829Y040419D01*
X071719Y040021D02*
X071946Y040021D01*
X071829Y039622D02*
X071719Y039622D01*
X071719Y039224D02*
X071862Y039224D01*
X071911Y038825D02*
X071719Y038825D01*
X071719Y038427D02*
X071829Y038427D01*
X071719Y038028D02*
X071943Y038028D01*
X070445Y044006D02*
X061162Y044006D01*
X060764Y044404D02*
X070445Y044404D01*
X070445Y044803D02*
X060365Y044803D01*
X059967Y045201D02*
X070445Y045201D01*
X070445Y045600D02*
X059568Y045600D01*
X059170Y045998D02*
X070445Y045998D01*
X070445Y046397D02*
X058771Y046397D01*
X058373Y046795D02*
X070445Y046795D01*
X070445Y047194D02*
X057974Y047194D01*
X057576Y047592D02*
X070445Y047592D01*
X070445Y047991D02*
X057177Y047991D01*
X056779Y048389D02*
X070445Y048389D01*
X070445Y048788D02*
X056380Y048788D01*
X055982Y049186D02*
X070445Y049186D01*
X070445Y049585D02*
X055583Y049585D01*
X055185Y049983D02*
X070445Y049983D01*
X070445Y050382D02*
X054786Y050382D01*
X054388Y050780D02*
X070445Y050780D01*
X070445Y051179D02*
X054397Y051179D01*
X054449Y051577D02*
X070445Y051577D01*
X070445Y051976D02*
X064244Y051976D01*
X064449Y052180D02*
X064449Y052851D01*
X064284Y053015D01*
X064449Y053180D01*
X064449Y053851D01*
X063974Y054325D01*
X063303Y054325D01*
X063139Y054161D01*
X062974Y054325D01*
X062303Y054325D01*
X062139Y054161D01*
X061974Y054325D01*
X061303Y054325D01*
X060829Y053851D01*
X060829Y053180D01*
X060993Y053015D01*
X060829Y052851D01*
X060829Y052180D01*
X061303Y051705D01*
X061974Y051705D01*
X062139Y051870D01*
X062303Y051705D01*
X062974Y051705D01*
X063139Y051870D01*
X063303Y051705D01*
X063974Y051705D01*
X064449Y052180D01*
X064449Y052374D02*
X070445Y052374D01*
X070445Y052773D02*
X064449Y052773D01*
X064440Y053171D02*
X070328Y053171D01*
X069929Y053570D02*
X064449Y053570D01*
X064331Y053968D02*
X069531Y053968D01*
X069132Y054367D02*
X051268Y054367D01*
X050869Y054765D02*
X068734Y054765D01*
X068335Y055164D02*
X050471Y055164D01*
X050072Y055562D02*
X067937Y055562D01*
X067538Y055961D02*
X049674Y055961D01*
X049275Y056359D02*
X067140Y056359D01*
X066741Y056758D02*
X048877Y056758D01*
X047787Y058750D02*
X064749Y058750D01*
X065147Y058352D02*
X053506Y058352D01*
X053765Y057953D02*
X065546Y057953D01*
X065944Y057555D02*
X053783Y057555D01*
X053549Y057156D02*
X066343Y057156D01*
X067347Y057953D02*
X081806Y057953D01*
X081965Y057555D02*
X067746Y057555D01*
X068144Y057156D02*
X082116Y057156D01*
X082247Y056758D02*
X068543Y056758D01*
X068941Y056359D02*
X082379Y056359D01*
X082510Y055961D02*
X069340Y055961D01*
X069738Y055562D02*
X082642Y055562D01*
X082773Y055164D02*
X070137Y055164D01*
X070535Y054765D02*
X082894Y054765D01*
X082999Y054367D02*
X070934Y054367D01*
X071332Y053968D02*
X083104Y053968D01*
X083209Y053570D02*
X071667Y053570D01*
X066949Y058352D02*
X081647Y058352D01*
X081488Y058750D02*
X066550Y058750D01*
X066152Y059149D02*
X081329Y059149D01*
X081170Y059547D02*
X065753Y059547D01*
X065355Y059946D02*
X080984Y059946D01*
X080797Y060344D02*
X064956Y060344D01*
X064558Y060743D02*
X080609Y060743D01*
X080421Y061141D02*
X064159Y061141D01*
X063761Y061540D02*
X080233Y061540D01*
X080036Y061938D02*
X063362Y061938D01*
X062964Y062337D02*
X079817Y062337D01*
X079599Y062735D02*
X062565Y062735D01*
X062167Y063134D02*
X079380Y063134D01*
X079162Y063532D02*
X061768Y063532D01*
X061370Y063931D02*
X078943Y063931D01*
X078697Y064329D02*
X060971Y064329D01*
X060573Y064728D02*
X078446Y064728D01*
X078195Y065126D02*
X060174Y065126D01*
X059776Y065525D02*
X077943Y065525D01*
X077692Y065923D02*
X059377Y065923D01*
X058979Y066322D02*
X077420Y066322D01*
X077134Y066720D02*
X058580Y066720D01*
X058182Y067119D02*
X076847Y067119D01*
X076560Y067517D02*
X057741Y067517D01*
X057246Y067916D02*
X076274Y067916D01*
X075966Y068314D02*
X057152Y068314D01*
X057212Y068713D02*
X075641Y068713D01*
X075316Y069111D02*
X057236Y069111D01*
X057120Y069510D02*
X074991Y069510D01*
X074666Y069908D02*
X057246Y069908D01*
X057155Y070307D02*
X074310Y070307D01*
X073942Y070705D02*
X057208Y070705D01*
X057239Y071104D02*
X073574Y071104D01*
X073206Y071502D02*
X056992Y071502D01*
X055419Y071502D02*
X046212Y071502D01*
X046212Y071104D02*
X055172Y071104D01*
X055203Y070705D02*
X046212Y070705D01*
X046212Y070307D02*
X055256Y070307D01*
X055166Y069908D02*
X046212Y069908D01*
X046212Y069510D02*
X052661Y069510D01*
X052694Y069542D02*
X052220Y069068D01*
X052220Y068397D01*
X052384Y068232D01*
X052220Y068068D01*
X052220Y067397D01*
X052384Y067232D01*
X052220Y067068D01*
X052220Y066397D01*
X052694Y065922D01*
X053365Y065922D01*
X053530Y066087D01*
X053694Y065922D01*
X054365Y065922D01*
X054840Y066397D01*
X054840Y067068D01*
X054675Y067232D01*
X054840Y067397D01*
X054840Y068068D01*
X054675Y068232D01*
X054840Y068397D01*
X054840Y069068D01*
X054365Y069542D01*
X053694Y069542D01*
X053530Y069378D01*
X053365Y069542D01*
X052694Y069542D01*
X052263Y069111D02*
X046212Y069111D01*
X046212Y068713D02*
X052220Y068713D01*
X052302Y068314D02*
X047734Y068314D01*
X048083Y067916D02*
X052220Y067916D01*
X052220Y067517D02*
X048220Y067517D01*
X048222Y067119D02*
X052270Y067119D01*
X052220Y066720D02*
X048098Y066720D01*
X047801Y066322D02*
X052295Y066322D01*
X052693Y065923D02*
X047192Y065923D01*
X047590Y065525D02*
X055277Y065525D01*
X055166Y065923D02*
X054366Y065923D01*
X054764Y066322D02*
X055262Y066322D01*
X055196Y066720D02*
X054840Y066720D01*
X054789Y067119D02*
X055178Y067119D01*
X055284Y067517D02*
X054840Y067517D01*
X054840Y067916D02*
X055166Y067916D01*
X055259Y068314D02*
X054757Y068314D01*
X054840Y068713D02*
X055199Y068713D01*
X055175Y069111D02*
X054796Y069111D01*
X054398Y069510D02*
X055291Y069510D01*
X053661Y069510D02*
X053398Y069510D01*
X056206Y066942D02*
X057458Y066942D01*
X057581Y066818D01*
X057576Y065923D02*
X057246Y065923D01*
X057134Y065525D02*
X057974Y065525D01*
X058373Y065126D02*
X047787Y065126D01*
X047787Y064728D02*
X058771Y064728D01*
X059170Y064329D02*
X057146Y064329D01*
X057133Y064361D02*
X056925Y064569D01*
X056653Y064682D01*
X055758Y064682D01*
X055486Y064569D01*
X055278Y064361D01*
X055166Y064089D01*
X055166Y063795D01*
X055278Y063523D01*
X055359Y063442D01*
X055278Y063361D01*
X055166Y063089D01*
X055166Y062795D01*
X055278Y062523D01*
X055359Y062442D01*
X055278Y062361D01*
X055166Y062089D01*
X055166Y061795D01*
X055278Y061523D01*
X055486Y061314D01*
X055758Y061202D01*
X056653Y061202D01*
X056925Y061314D01*
X057133Y061523D01*
X057246Y061795D01*
X057246Y062089D01*
X057133Y062361D01*
X057052Y062442D01*
X057133Y062523D01*
X057246Y062795D01*
X057246Y063089D01*
X057133Y063361D01*
X057052Y063442D01*
X057133Y063523D01*
X057246Y063795D01*
X057246Y064089D01*
X057133Y064361D01*
X057246Y063931D02*
X059568Y063931D01*
X059967Y063532D02*
X057137Y063532D01*
X057227Y063134D02*
X060365Y063134D01*
X060764Y062735D02*
X057221Y062735D01*
X057143Y062337D02*
X061162Y062337D01*
X061561Y061938D02*
X057246Y061938D01*
X057140Y061540D02*
X061959Y061540D01*
X062358Y061141D02*
X047787Y061141D01*
X047787Y060743D02*
X062756Y060743D01*
X063155Y060344D02*
X047787Y060344D01*
X047787Y059946D02*
X063553Y059946D01*
X063952Y059547D02*
X047787Y059547D01*
X047787Y059149D02*
X064350Y059149D01*
X060946Y053968D02*
X051666Y053968D01*
X052065Y053570D02*
X060829Y053570D01*
X060837Y053171D02*
X054051Y053171D01*
X054388Y052773D02*
X060829Y052773D01*
X060829Y052374D02*
X054449Y052374D01*
X054294Y051976D02*
X061033Y051976D01*
X055237Y045998D02*
X054317Y045998D01*
X054449Y045600D02*
X055636Y045600D01*
X056034Y045201D02*
X054406Y045201D01*
X054449Y046397D02*
X054839Y046397D01*
X054440Y046795D02*
X054379Y046795D01*
X052889Y052773D02*
X052862Y052773D01*
X053226Y053171D02*
X052463Y053171D01*
X046514Y058750D02*
X040867Y058750D01*
X040469Y059149D02*
X046514Y059149D01*
X046514Y059547D02*
X040070Y059547D01*
X039672Y059946D02*
X046514Y059946D01*
X046514Y060344D02*
X039273Y060344D01*
X038875Y060743D02*
X046514Y060743D01*
X046514Y061141D02*
X038476Y061141D01*
X038078Y061540D02*
X046514Y061540D01*
X046514Y061938D02*
X037679Y061938D01*
X037281Y062337D02*
X046514Y062337D01*
X046514Y062735D02*
X036882Y062735D01*
X036484Y063134D02*
X046514Y063134D01*
X046514Y063532D02*
X036085Y063532D01*
X035687Y063931D02*
X046514Y063931D01*
X046514Y064329D02*
X035288Y064329D01*
X034890Y064728D02*
X046514Y064728D01*
X046187Y065126D02*
X034491Y065126D01*
X033833Y064880D02*
X040980Y057732D01*
X039057Y058750D02*
X024238Y058750D01*
X024307Y058779D02*
X024499Y058970D01*
X024602Y059220D01*
X024602Y059490D01*
X024602Y067364D01*
X024499Y067614D01*
X024307Y067806D01*
X024057Y067909D01*
X015913Y067909D01*
X015663Y067806D01*
X015472Y067614D01*
X015368Y067364D01*
X015368Y059220D01*
X015472Y058970D01*
X015663Y058779D01*
X015913Y058675D01*
X024057Y058675D01*
X024307Y058779D01*
X024573Y059149D02*
X038658Y059149D01*
X038260Y059547D02*
X024602Y059547D01*
X024602Y059946D02*
X037861Y059946D01*
X037463Y060344D02*
X024602Y060344D01*
X024602Y060743D02*
X037064Y060743D01*
X036666Y061141D02*
X024602Y061141D01*
X024602Y061540D02*
X036267Y061540D01*
X035869Y061938D02*
X024602Y061938D01*
X024602Y062337D02*
X035470Y062337D01*
X035072Y062735D02*
X024602Y062735D01*
X024602Y063134D02*
X034673Y063134D01*
X034275Y063532D02*
X024602Y063532D01*
X024602Y063931D02*
X033876Y063931D01*
X033833Y064880D02*
X030366Y064880D01*
X029869Y064329D02*
X024602Y064329D01*
X024602Y064728D02*
X029626Y064728D01*
X029626Y065126D02*
X024602Y065126D01*
X024602Y065525D02*
X028674Y065525D01*
X028417Y065923D02*
X024602Y065923D01*
X024602Y066322D02*
X028018Y066322D01*
X027826Y066720D02*
X024602Y066720D01*
X024602Y067119D02*
X027826Y067119D01*
X027826Y067517D02*
X024539Y067517D01*
X027826Y067916D02*
X011468Y067916D01*
X011182Y067517D02*
X015431Y067517D01*
X015368Y067119D02*
X010895Y067119D01*
X010609Y066720D02*
X015368Y066720D01*
X015368Y066322D02*
X010322Y066322D01*
X010050Y065923D02*
X015368Y065923D01*
X015368Y065525D02*
X009799Y065525D01*
X009548Y065126D02*
X015368Y065126D01*
X015368Y064728D02*
X009296Y064728D01*
X009045Y064329D02*
X015368Y064329D01*
X015368Y063931D02*
X008799Y063931D01*
X008580Y063532D02*
X015368Y063532D01*
X015368Y063134D02*
X008362Y063134D01*
X008143Y062735D02*
X015368Y062735D01*
X015368Y062337D02*
X007925Y062337D01*
X007706Y061938D02*
X015368Y061938D01*
X015368Y061540D02*
X007509Y061540D01*
X007321Y061141D02*
X015368Y061141D01*
X015368Y060743D02*
X007134Y060743D01*
X006946Y060344D02*
X015368Y060344D01*
X015368Y059946D02*
X006758Y059946D01*
X006572Y059547D02*
X015368Y059547D01*
X015398Y059149D02*
X006413Y059149D01*
X006254Y058750D02*
X015732Y058750D01*
X020955Y053851D02*
X020955Y053180D01*
X021119Y053015D01*
X020955Y052851D01*
X020955Y052180D01*
X021429Y051705D01*
X022100Y051705D01*
X022265Y051870D01*
X022429Y051705D01*
X023100Y051705D01*
X023265Y051870D01*
X023429Y051705D01*
X024100Y051705D01*
X024575Y052180D01*
X024575Y052851D01*
X024410Y053015D01*
X024575Y053180D01*
X024575Y053851D01*
X024100Y054325D01*
X023429Y054325D01*
X023265Y054161D01*
X023100Y054325D01*
X022429Y054325D01*
X022265Y054161D01*
X022100Y054325D01*
X021429Y054325D01*
X020955Y053851D01*
X021072Y053968D02*
X004638Y053968D01*
X004533Y053570D02*
X020955Y053570D01*
X020963Y053171D02*
X014177Y053171D01*
X014514Y052773D02*
X020955Y052773D01*
X020955Y052374D02*
X014575Y052374D01*
X014420Y051976D02*
X021159Y051976D01*
X024370Y051976D02*
X032109Y051976D01*
X031955Y052374D02*
X024575Y052374D01*
X024575Y052773D02*
X032015Y052773D01*
X032352Y053171D02*
X027545Y053171D01*
X027377Y053128D02*
X027795Y053234D01*
X028156Y053470D01*
X028421Y053810D01*
X028561Y054218D01*
X028561Y054649D01*
X028421Y055057D01*
X028156Y055398D01*
X027795Y055633D01*
X027377Y055739D01*
X026947Y055704D01*
X026552Y055530D01*
X026235Y055238D01*
X026030Y054859D01*
X025959Y054434D01*
X026030Y054009D01*
X026235Y053629D01*
X026552Y053337D01*
X026947Y053164D01*
X027377Y053128D01*
X026931Y053171D02*
X024566Y053171D01*
X024575Y053570D02*
X026300Y053570D01*
X026051Y053968D02*
X024457Y053968D01*
X025970Y054367D02*
X004743Y054367D01*
X004848Y054765D02*
X026014Y054765D01*
X026194Y055164D02*
X004969Y055164D01*
X005100Y055562D02*
X026624Y055562D01*
X027904Y055562D02*
X045040Y055562D01*
X045040Y055164D02*
X028338Y055164D01*
X028521Y054765D02*
X045040Y054765D01*
X045040Y054367D02*
X028561Y054367D01*
X028475Y053968D02*
X045040Y053968D01*
X045040Y053570D02*
X028233Y053570D01*
X031955Y051577D02*
X014575Y051577D01*
X014523Y051179D02*
X032007Y051179D01*
X032018Y050780D02*
X014511Y050780D01*
X014575Y050382D02*
X031955Y050382D01*
X032101Y049983D02*
X014428Y049983D01*
X014575Y049585D02*
X031955Y049585D01*
X032004Y049186D02*
X014526Y049186D01*
X014508Y048788D02*
X032021Y048788D01*
X031955Y048389D02*
X014575Y048389D01*
X014435Y047991D02*
X032094Y047991D01*
X031955Y047592D02*
X022789Y047592D01*
X022778Y047606D02*
X022417Y047842D01*
X021999Y047948D01*
X021569Y047912D01*
X021174Y047739D01*
X020857Y047447D01*
X020652Y047068D01*
X020581Y046643D01*
X020652Y046217D01*
X020857Y045838D01*
X021174Y045546D01*
X021569Y045373D01*
X021999Y045337D01*
X022417Y045443D01*
X022778Y045679D01*
X023043Y046019D01*
X023183Y046427D01*
X023183Y046858D01*
X023043Y047266D01*
X022778Y047606D01*
X023067Y047194D02*
X031367Y047194D01*
X030968Y046795D02*
X023183Y046795D01*
X023172Y046397D02*
X030570Y046397D01*
X030171Y045998D02*
X023026Y045998D01*
X022657Y045600D02*
X029773Y045600D01*
X029374Y045201D02*
X014532Y045201D01*
X014575Y045600D02*
X021116Y045600D01*
X020770Y045998D02*
X014443Y045998D01*
X014575Y046397D02*
X020622Y046397D01*
X020606Y046795D02*
X014505Y046795D01*
X014529Y047194D02*
X020720Y047194D01*
X021014Y047592D02*
X014575Y047592D01*
X013094Y047991D02*
X003486Y047991D01*
X003540Y048389D02*
X012955Y048389D01*
X013021Y048788D02*
X003595Y048788D01*
X003649Y049186D02*
X013004Y049186D01*
X012955Y049585D02*
X003703Y049585D01*
X003758Y049983D02*
X013101Y049983D01*
X012955Y050382D02*
X003830Y050382D01*
X003910Y050780D02*
X013018Y050780D01*
X013007Y051179D02*
X003989Y051179D01*
X004069Y051577D02*
X012955Y051577D01*
X013109Y051976D02*
X004148Y051976D01*
X004227Y052374D02*
X012955Y052374D01*
X013015Y052773D02*
X004323Y052773D01*
X004428Y053171D02*
X013352Y053171D01*
X012955Y047592D02*
X003434Y047592D01*
X003404Y047194D02*
X013000Y047194D01*
X013024Y046795D02*
X003374Y046795D01*
X003345Y046397D02*
X012955Y046397D01*
X013086Y045998D02*
X003315Y045998D01*
X003285Y045600D02*
X012955Y045600D01*
X012997Y045201D02*
X003255Y045201D01*
X003247Y044803D02*
X007328Y044803D01*
X007311Y044794D02*
X007311Y044794D01*
X006987Y044470D01*
X006987Y044470D01*
X006778Y044061D01*
X006707Y043607D01*
X003231Y043607D01*
X003225Y043209D02*
X006770Y043209D01*
X006778Y043154D02*
X006987Y042745D01*
X007311Y042420D01*
X007311Y042420D01*
X007721Y042212D01*
X008174Y042140D01*
X008627Y042212D01*
X008627Y042212D01*
X009037Y042420D01*
X009361Y042745D01*
X009570Y043154D01*
X009641Y043607D01*
X012995Y043607D01*
X013030Y043209D02*
X009578Y043209D01*
X009570Y043154D02*
X009570Y043154D01*
X009395Y042810D02*
X012955Y042810D01*
X013076Y042412D02*
X009020Y042412D01*
X009037Y042420D02*
X009037Y042420D01*
X009361Y042745D02*
X009361Y042745D01*
X009641Y043607D02*
X009570Y044061D01*
X009361Y044470D01*
X009037Y044794D01*
X009037Y044794D01*
X008627Y045003D01*
X008174Y045074D01*
X007721Y045003D01*
X007721Y045003D01*
X007311Y044794D01*
X007311Y044794D01*
X006953Y044404D02*
X003242Y044404D01*
X003236Y044006D02*
X006770Y044006D01*
X006707Y043607D02*
X006778Y043154D01*
X006953Y042810D02*
X003220Y042810D01*
X003231Y042412D02*
X007328Y042412D01*
X007721Y042212D02*
X007721Y042212D01*
X008174Y042140D02*
X008174Y042140D01*
X009578Y044006D02*
X012955Y044006D01*
X013158Y044404D02*
X009395Y044404D01*
X009361Y044470D02*
X009361Y044470D01*
X009570Y044061D02*
X009570Y044061D01*
X009020Y044803D02*
X013282Y044803D01*
X014247Y044803D02*
X015954Y044803D01*
X015555Y044404D02*
X014371Y044404D01*
X014575Y044006D02*
X015157Y044006D01*
X014758Y043607D02*
X014534Y043607D01*
X015364Y042412D02*
X029668Y042412D01*
X029270Y042013D02*
X014575Y042013D01*
X014537Y041615D02*
X021339Y041615D01*
X021174Y041542D02*
X020857Y041250D01*
X020652Y040871D01*
X020581Y040446D01*
X020652Y040020D01*
X020857Y039641D01*
X021174Y039349D01*
X021569Y039176D01*
X021999Y039140D01*
X022417Y039246D01*
X022778Y039482D01*
X023043Y039822D01*
X023183Y040230D01*
X023183Y040661D01*
X023043Y041069D01*
X022778Y041409D01*
X022417Y041645D01*
X021999Y041751D01*
X021569Y041716D01*
X021174Y041542D01*
X020838Y041216D02*
X014496Y041216D01*
X014575Y040818D02*
X020643Y040818D01*
X020585Y040419D02*
X014456Y040419D01*
X014575Y040021D02*
X020652Y040021D01*
X020877Y039622D02*
X014541Y039622D01*
X014493Y039224D02*
X021460Y039224D01*
X022328Y039224D02*
X028759Y039224D01*
X028759Y039622D02*
X022887Y039622D01*
X023111Y040021D02*
X028759Y040021D01*
X028759Y040419D02*
X023183Y040419D01*
X023129Y040818D02*
X028759Y040818D01*
X028759Y041216D02*
X022928Y041216D01*
X022464Y041615D02*
X028871Y041615D01*
X030033Y040818D02*
X032034Y040818D01*
X031991Y041216D02*
X030274Y041216D01*
X030673Y041615D02*
X031955Y041615D01*
X032075Y042013D02*
X031071Y042013D01*
X031470Y042412D02*
X031823Y042412D01*
X030864Y043607D02*
X016559Y043607D01*
X016161Y043209D02*
X030465Y043209D01*
X030067Y042810D02*
X015762Y042810D01*
X012955Y042013D02*
X003250Y042013D01*
X003269Y041615D02*
X012992Y041615D01*
X013033Y041216D02*
X003288Y041216D01*
X003306Y040818D02*
X012955Y040818D01*
X013073Y040419D02*
X003325Y040419D01*
X003356Y040021D02*
X012955Y040021D01*
X012989Y039622D02*
X003399Y039622D01*
X003442Y039224D02*
X013036Y039224D01*
X012955Y038825D02*
X003486Y038825D01*
X003529Y038427D02*
X013070Y038427D01*
X013493Y037630D02*
X003623Y037630D01*
X003572Y038028D02*
X028759Y038028D01*
X028759Y037630D02*
X014036Y037630D01*
X013926Y037675D02*
X014223Y037552D01*
X014451Y037324D01*
X014575Y037026D01*
X014575Y036704D01*
X014451Y036407D01*
X014410Y036365D01*
X014451Y036324D01*
X014575Y036026D01*
X014575Y035704D01*
X014451Y035407D01*
X014410Y035365D01*
X014451Y035324D01*
X014575Y035026D01*
X014575Y034704D01*
X014451Y034407D01*
X014223Y034179D01*
X013926Y034055D01*
X013603Y034055D01*
X013306Y034179D01*
X013078Y034407D01*
X012955Y034704D01*
X012955Y035026D01*
X013078Y035324D01*
X013119Y035365D01*
X013078Y035407D01*
X012955Y035704D01*
X012955Y036026D01*
X013078Y036324D01*
X013119Y036365D01*
X013078Y036407D01*
X012955Y036704D01*
X012955Y037026D01*
X013078Y037324D01*
X013306Y037552D01*
X013603Y037675D01*
X013926Y037675D01*
X014490Y037231D02*
X028759Y037231D01*
X028759Y036833D02*
X014575Y036833D01*
X014463Y036434D02*
X028759Y036434D01*
X028759Y036036D02*
X014571Y036036D01*
X014547Y035637D02*
X028759Y035637D01*
X028759Y035239D02*
X014487Y035239D01*
X014575Y034840D02*
X028759Y034840D01*
X028759Y034442D02*
X014466Y034442D01*
X013063Y034442D02*
X004222Y034442D01*
X004129Y034840D02*
X012955Y034840D01*
X013042Y035239D02*
X004035Y035239D01*
X003963Y035637D02*
X012982Y035637D01*
X012958Y036036D02*
X003895Y036036D01*
X003827Y036434D02*
X013066Y036434D01*
X012955Y036833D02*
X003759Y036833D01*
X003691Y037231D02*
X013039Y037231D01*
X014460Y038427D02*
X028759Y038427D01*
X028759Y038825D02*
X014575Y038825D01*
X008627Y045003D02*
X008627Y045003D01*
X008174Y045074D02*
X008174Y045074D01*
X005232Y055961D02*
X045040Y055961D01*
X045040Y056359D02*
X005363Y056359D01*
X005495Y056758D02*
X045040Y056758D01*
X045040Y057156D02*
X043549Y057156D01*
X043783Y057555D02*
X045040Y057555D01*
X045054Y057953D02*
X043765Y057953D01*
X043506Y058352D02*
X045269Y058352D01*
X047787Y061540D02*
X055271Y061540D01*
X055166Y061938D02*
X047787Y061938D01*
X047787Y062337D02*
X055268Y062337D01*
X055190Y062735D02*
X047787Y062735D01*
X047787Y063134D02*
X055184Y063134D01*
X055274Y063532D02*
X047787Y063532D01*
X047787Y063931D02*
X055166Y063931D01*
X055265Y064329D02*
X047787Y064329D01*
X045789Y065525D02*
X031057Y065525D01*
X031314Y065923D02*
X045390Y065923D01*
X045018Y066322D02*
X039454Y066322D01*
X039471Y066332D02*
X039736Y066673D01*
X039876Y067080D01*
X039876Y067512D01*
X039736Y067920D01*
X039471Y068260D01*
X039110Y068496D01*
X038692Y068602D01*
X038262Y068566D01*
X037867Y068393D01*
X037550Y068101D01*
X037345Y067721D01*
X037274Y067296D01*
X037345Y066871D01*
X037550Y066491D01*
X037867Y066199D01*
X038262Y066026D01*
X038692Y065991D01*
X039110Y066096D01*
X039471Y066332D01*
X039752Y066720D02*
X044939Y066720D01*
X044939Y067119D02*
X039876Y067119D01*
X039874Y067517D02*
X044939Y067517D01*
X044939Y067916D02*
X039737Y067916D01*
X039388Y068314D02*
X044939Y068314D01*
X044939Y068713D02*
X034104Y068713D01*
X034502Y069111D02*
X044939Y069111D01*
X044939Y069510D02*
X034901Y069510D01*
X035299Y069908D02*
X044939Y069908D01*
X046212Y071901D02*
X072831Y071901D01*
X072416Y072299D02*
X046212Y072299D01*
X046212Y072698D02*
X072000Y072698D01*
X071585Y073096D02*
X046212Y073096D01*
X046212Y073495D02*
X071169Y073495D01*
X070708Y073893D02*
X046212Y073893D01*
X046212Y074292D02*
X070238Y074292D01*
X069768Y074690D02*
X046212Y074690D01*
X046212Y075089D02*
X069299Y075089D01*
X068777Y075487D02*
X046212Y075487D01*
X046212Y075886D02*
X068245Y075886D01*
X067712Y076284D02*
X061189Y076284D01*
X061277Y076298D02*
X061277Y076298D01*
X060824Y076226D02*
X060824Y076226D01*
X060459Y076284D02*
X053671Y076284D01*
X053790Y076683D02*
X059785Y076683D01*
X059636Y076831D02*
X059636Y076831D01*
X059509Y077081D02*
X053712Y077081D01*
X053292Y077480D02*
X059390Y077480D01*
X059428Y077240D02*
X059428Y077240D01*
X059385Y077878D02*
X041967Y077878D01*
X042020Y077480D02*
X042067Y077480D01*
X042692Y077480D02*
X043067Y077480D01*
X043692Y077480D02*
X044067Y077480D01*
X044692Y077480D02*
X045667Y077480D01*
X045247Y077081D02*
X045112Y077081D01*
X044939Y075886D02*
X040020Y075886D01*
X040020Y075487D02*
X044939Y075487D01*
X044939Y075089D02*
X040020Y075089D01*
X039988Y074690D02*
X044939Y074690D01*
X044939Y074292D02*
X039683Y074292D01*
X039284Y073893D02*
X044939Y073893D01*
X044939Y073495D02*
X038886Y073495D01*
X038487Y073096D02*
X044939Y073096D01*
X044939Y072698D02*
X038089Y072698D01*
X038049Y072605D02*
X037955Y072564D01*
X038049Y072605D02*
X038479Y072641D01*
X038897Y072535D01*
X039258Y072299D01*
X039380Y074894D02*
X039380Y076732D01*
X040321Y076791D02*
X040321Y077536D01*
X039851Y078005D01*
X034256Y078005D01*
X030366Y074114D01*
X030366Y066880D01*
X030366Y065880D02*
X039380Y074894D01*
X040380Y076732D02*
X040321Y076791D01*
X041380Y076732D02*
X041380Y077624D01*
X040481Y078523D01*
X032583Y078523D01*
X028466Y074405D01*
X028466Y066779D01*
X029366Y065880D01*
X031713Y066322D02*
X037734Y066322D01*
X037426Y066720D02*
X032111Y066720D01*
X032510Y067119D02*
X037303Y067119D01*
X037310Y067517D02*
X032908Y067517D01*
X033307Y067916D02*
X037450Y067916D01*
X037782Y068314D02*
X033705Y068314D01*
X027826Y068314D02*
X011776Y068314D01*
X012101Y068713D02*
X027826Y068713D01*
X027826Y069111D02*
X012426Y069111D01*
X012751Y069510D02*
X027826Y069510D01*
X027826Y069908D02*
X013076Y069908D01*
X013432Y070307D02*
X027826Y070307D01*
X027826Y070705D02*
X013800Y070705D01*
X014168Y071104D02*
X027826Y071104D01*
X027826Y071502D02*
X014536Y071502D01*
X014911Y071901D02*
X027826Y071901D01*
X027826Y072299D02*
X015326Y072299D01*
X015742Y072698D02*
X027826Y072698D01*
X027826Y073096D02*
X016157Y073096D01*
X016573Y073495D02*
X027826Y073495D01*
X027826Y073893D02*
X017034Y073893D01*
X017504Y074292D02*
X027826Y074292D01*
X027891Y074690D02*
X017974Y074690D01*
X018444Y075089D02*
X028244Y075089D01*
X028643Y075487D02*
X018965Y075487D01*
X019497Y075886D02*
X029041Y075886D01*
X029440Y076284D02*
X026756Y076284D01*
X026844Y076298D02*
X026844Y076298D01*
X026391Y076226D02*
X026391Y076226D01*
X026026Y076284D02*
X020030Y076284D01*
X020570Y076683D02*
X025352Y076683D01*
X025203Y076831D02*
X025203Y076831D01*
X025076Y077081D02*
X021176Y077081D01*
X021782Y077480D02*
X024957Y077480D01*
X024995Y077240D02*
X024995Y077240D01*
X024952Y077878D02*
X022388Y077878D01*
X023038Y078277D02*
X025061Y078277D01*
X024995Y078147D02*
X024995Y078147D01*
X025528Y076507D02*
X025528Y076507D01*
X027429Y076683D02*
X029838Y076683D01*
X030237Y077081D02*
X027705Y077081D01*
X027578Y076831D02*
X027578Y076831D01*
X027824Y077480D02*
X030635Y077480D01*
X031034Y077878D02*
X027829Y077878D01*
X027720Y078277D02*
X031432Y078277D01*
X041632Y078277D02*
X059494Y078277D01*
X059428Y078147D02*
X059428Y078147D01*
X059961Y076507D02*
X059961Y076507D01*
X061686Y076507D02*
X061686Y076507D01*
X061862Y076683D02*
X067173Y076683D01*
X066567Y077081D02*
X062138Y077081D01*
X062257Y077480D02*
X065961Y077480D01*
X065355Y077878D02*
X062262Y077878D01*
X062219Y078147D02*
X062219Y078147D01*
X062153Y078277D02*
X064704Y078277D01*
X052667Y077480D02*
X052292Y077480D01*
X051667Y077480D02*
X051292Y077480D01*
X050667Y077480D02*
X050292Y077480D01*
X049667Y077480D02*
X049292Y077480D01*
X048667Y077480D02*
X048292Y077480D01*
X047667Y077480D02*
X047292Y077480D01*
X046667Y077480D02*
X046292Y077480D01*
X053366Y065923D02*
X053693Y065923D01*
X045040Y053171D02*
X033177Y053171D01*
X033514Y052773D02*
X045040Y052773D01*
X045040Y052374D02*
X033575Y052374D01*
X033420Y051976D02*
X045040Y051976D01*
X045040Y051577D02*
X033575Y051577D01*
X033523Y051179D02*
X045040Y051179D01*
X045040Y050780D02*
X033511Y050780D01*
X033575Y050382D02*
X045040Y050382D01*
X045040Y049983D02*
X033428Y049983D01*
X033575Y049585D02*
X045040Y049585D01*
X045040Y049186D02*
X033526Y049186D01*
X033508Y048788D02*
X045040Y048788D01*
X045040Y048389D02*
X033575Y048389D01*
X033435Y047991D02*
X045040Y047991D01*
X045040Y047592D02*
X033575Y047592D01*
X034316Y047194D02*
X045040Y047194D01*
X045040Y046795D02*
X034714Y046795D01*
X034995Y046397D02*
X045040Y046397D01*
X033733Y045600D02*
X033575Y045600D01*
X033532Y045201D02*
X033733Y045201D01*
X033733Y044803D02*
X033247Y044803D01*
X033377Y045998D02*
X033701Y045998D01*
X031827Y046749D02*
X029633Y044554D01*
X029980Y044006D02*
X031397Y044006D01*
X031955Y040419D02*
X030033Y040419D01*
X030033Y040021D02*
X032072Y040021D01*
X031955Y039622D02*
X030033Y039622D01*
X030033Y039224D02*
X031988Y039224D01*
X032037Y038825D02*
X030033Y038825D01*
X030033Y038427D02*
X031955Y038427D01*
X032069Y038028D02*
X030033Y038028D01*
X028759Y034043D02*
X027545Y034043D01*
X027377Y034086D02*
X026947Y034050D01*
X026552Y033877D01*
X026235Y033585D01*
X026030Y033206D01*
X025959Y032780D01*
X026030Y032355D01*
X026235Y031976D01*
X026552Y031684D01*
X026947Y031510D01*
X027377Y031475D01*
X027795Y031581D01*
X028156Y031817D01*
X028421Y032157D01*
X028561Y032565D01*
X028561Y032996D01*
X028421Y033404D01*
X028156Y033744D01*
X027795Y033980D01*
X027377Y034086D01*
X026931Y034043D02*
X004315Y034043D01*
X004408Y033645D02*
X026300Y033645D01*
X026051Y033246D02*
X004502Y033246D01*
X004598Y032848D02*
X025970Y032848D01*
X026014Y032449D02*
X004718Y032449D01*
X004837Y032051D02*
X026194Y032051D01*
X026624Y031652D02*
X004956Y031652D01*
X005075Y031254D02*
X028759Y031254D01*
X028759Y031652D02*
X027904Y031652D01*
X028338Y032051D02*
X028759Y032051D01*
X028759Y032449D02*
X028521Y032449D01*
X028561Y032848D02*
X028759Y032848D01*
X028759Y033246D02*
X028475Y033246D01*
X028233Y033645D02*
X028759Y033645D01*
X028759Y030855D02*
X005195Y030855D01*
X005319Y030457D02*
X028759Y030457D01*
X028759Y030058D02*
X005465Y030058D01*
X005611Y029660D02*
X028759Y029660D01*
X028759Y029261D02*
X005758Y029261D01*
X005904Y028863D02*
X028759Y028863D01*
X028759Y028464D02*
X006050Y028464D01*
X006206Y028066D02*
X028759Y028066D01*
X028759Y027667D02*
X006380Y027667D01*
X006555Y027269D02*
X028759Y027269D01*
X028759Y026870D02*
X006729Y026870D01*
X006904Y026472D02*
X028759Y026472D01*
X028759Y026073D02*
X007078Y026073D01*
X007272Y025675D02*
X028759Y025675D01*
X028759Y025276D02*
X007476Y025276D01*
X007680Y024878D02*
X028759Y024878D01*
X028759Y024479D02*
X007885Y024479D01*
X008089Y024081D02*
X028759Y024081D01*
X028759Y023682D02*
X008297Y023682D01*
X008533Y023284D02*
X028759Y023284D01*
X028759Y022885D02*
X008769Y022885D01*
X009005Y022487D02*
X028759Y022487D01*
X028759Y022088D02*
X009241Y022088D01*
X009477Y021690D02*
X028759Y021690D01*
X028759Y021291D02*
X009738Y021291D01*
X010008Y020893D02*
X020803Y020893D01*
X020778Y020867D02*
X020669Y020604D01*
X020669Y020318D01*
X020773Y020067D01*
X020669Y019816D01*
X020669Y019531D01*
X020778Y019267D01*
X020979Y019065D01*
X021243Y018956D01*
X021528Y018956D01*
X021792Y019065D01*
X021994Y019267D01*
X022103Y019531D01*
X022103Y019816D01*
X021999Y020067D01*
X022103Y020318D01*
X022103Y020604D01*
X021994Y020867D01*
X021792Y021069D01*
X021528Y021178D01*
X021243Y021178D01*
X020979Y021069D01*
X020778Y020867D01*
X020669Y020494D02*
X010279Y020494D01*
X010549Y020096D02*
X020761Y020096D01*
X020669Y019697D02*
X010819Y019697D01*
X011111Y019299D02*
X020765Y019299D01*
X022007Y019299D02*
X028759Y019299D01*
X028759Y019697D02*
X022103Y019697D01*
X022011Y020096D02*
X028759Y020096D01*
X028759Y020494D02*
X022103Y020494D01*
X021968Y020893D02*
X028759Y020893D01*
X028759Y018900D02*
X011418Y018900D01*
X011725Y018502D02*
X028759Y018502D01*
X028759Y018103D02*
X012033Y018103D01*
X012340Y017705D02*
X028759Y017705D01*
X028759Y017306D02*
X012675Y017306D01*
X013022Y016908D02*
X028759Y016908D01*
X028759Y016509D02*
X013370Y016509D01*
X013718Y016111D02*
X028759Y016111D01*
X028759Y015712D02*
X014066Y015712D01*
X014459Y015314D02*
X028759Y015314D01*
X028759Y010930D02*
X019368Y010930D01*
X019909Y010532D02*
X028759Y010532D01*
X028759Y010133D02*
X020479Y010133D01*
X021050Y009735D02*
X028759Y009735D01*
X028759Y009336D02*
X021621Y009336D01*
X022273Y008938D02*
X028842Y008938D01*
X029220Y008539D02*
X022925Y008539D01*
X023577Y008141D02*
X029619Y008141D01*
X030017Y007742D02*
X024304Y007742D01*
X023737Y008043D02*
X023737Y008043D01*
X025056Y007344D02*
X030416Y007344D01*
X031021Y008539D02*
X052884Y008539D01*
X052486Y008938D02*
X030623Y008938D01*
X030247Y009336D02*
X030224Y009336D01*
X030091Y009735D02*
X030033Y009735D01*
X030033Y010133D02*
X030151Y010133D01*
X030033Y010532D02*
X030484Y010532D01*
X030033Y010930D02*
X043172Y010930D01*
X043084Y010532D02*
X042918Y010532D01*
X042084Y010532D02*
X041918Y010532D01*
X041084Y010532D02*
X040318Y010532D01*
X040651Y010133D02*
X040751Y010133D01*
X040847Y009336D02*
X040555Y009336D01*
X039484Y010532D02*
X039318Y010532D01*
X038484Y010532D02*
X038318Y010532D01*
X037484Y010532D02*
X037318Y010532D01*
X036484Y010532D02*
X036318Y010532D01*
X035484Y010532D02*
X035318Y010532D01*
X034484Y010532D02*
X034318Y010532D01*
X033484Y010532D02*
X033318Y010532D01*
X032484Y010532D02*
X032318Y010532D01*
X031484Y010532D02*
X031318Y010532D01*
X027541Y006148D02*
X042352Y006148D01*
X042420Y006281D02*
X042212Y005872D01*
X042212Y005872D01*
X042140Y005418D01*
X042212Y004965D01*
X042420Y004556D01*
X042420Y004556D01*
X042745Y004231D01*
X043154Y004023D01*
X043607Y003951D01*
X044061Y004023D01*
X044470Y004231D01*
X044794Y004556D01*
X045003Y004965D01*
X045074Y005418D01*
X045003Y005872D01*
X044794Y006281D01*
X044470Y006605D01*
X044470Y006605D01*
X044061Y006814D01*
X043607Y006886D01*
X043154Y006814D01*
X042745Y006605D01*
X042745Y006605D01*
X042420Y006281D01*
X042420Y006281D01*
X042686Y006547D02*
X026664Y006547D01*
X025807Y006945D02*
X044788Y006945D01*
X044528Y006547D02*
X045187Y006547D01*
X044794Y006281D02*
X044794Y006281D01*
X044862Y006148D02*
X060202Y006148D01*
X060016Y006535D02*
X060016Y006535D01*
X060028Y006547D02*
X061078Y006547D01*
X060426Y006945D02*
X061935Y006945D01*
X062687Y007344D02*
X060825Y007344D01*
X062359Y007742D02*
X063438Y007742D01*
X062916Y008250D02*
X062916Y008250D01*
X062806Y008141D02*
X064165Y008141D01*
X064817Y008539D02*
X063205Y008539D01*
X059643Y008602D02*
X059643Y010792D01*
X059643Y008602D02*
X058690Y007648D01*
X054680Y007648D01*
X052501Y009828D01*
X053283Y008141D02*
X045394Y008141D01*
X045793Y007742D02*
X053681Y007742D01*
X054502Y008840D02*
X055026Y008316D01*
X055923Y008316D01*
X054502Y008840D02*
X054502Y009974D01*
X051930Y012126D02*
X047141Y012126D01*
X047141Y012524D02*
X051850Y012524D01*
X052015Y012923D02*
X047141Y012923D01*
X047141Y013321D02*
X053108Y013321D01*
X053506Y013720D02*
X047141Y013720D01*
X047141Y014118D02*
X053905Y014118D01*
X051565Y011727D02*
X047141Y011727D01*
X047141Y011329D02*
X051166Y011329D01*
X050768Y010930D02*
X047141Y010930D01*
X047918Y010532D02*
X048084Y010532D01*
X048918Y010532D02*
X050084Y010532D01*
X049751Y010133D02*
X049251Y010133D01*
X049311Y009735D02*
X049691Y009735D01*
X049847Y009336D02*
X049155Y009336D01*
X045003Y005872D02*
X045003Y005872D01*
X045022Y005750D02*
X059281Y005750D01*
X058240Y005351D02*
X045064Y005351D01*
X045003Y004965D02*
X045003Y004965D01*
X044997Y004953D02*
X057189Y004953D01*
X055922Y004554D02*
X044793Y004554D01*
X044794Y004556D02*
X044794Y004556D01*
X044470Y004231D02*
X044470Y004231D01*
X044322Y004156D02*
X054595Y004156D01*
X052993Y003757D02*
X034749Y003757D01*
X033147Y004156D02*
X042893Y004156D01*
X042421Y004554D02*
X031820Y004554D01*
X030553Y004953D02*
X042218Y004953D01*
X042212Y004965D02*
X042212Y004965D01*
X042150Y005351D02*
X029502Y005351D01*
X028461Y005750D02*
X042192Y005750D01*
X042140Y005418D02*
X042140Y005418D01*
X042420Y004556D02*
X042420Y004556D01*
X043154Y006814D02*
X043154Y006814D01*
X043607Y006886D02*
X043607Y006886D01*
X044061Y006814D02*
X044061Y006814D01*
X048258Y002960D02*
X039484Y002960D01*
X036727Y003359D02*
X051015Y003359D01*
X062311Y014517D02*
X062644Y014517D01*
X062311Y014915D02*
X063042Y014915D01*
X063441Y015314D02*
X062160Y015314D01*
X062311Y015712D02*
X063839Y015712D01*
X064238Y016111D02*
X062311Y016111D01*
X062311Y016509D02*
X064636Y016509D01*
X065035Y016908D02*
X062311Y016908D01*
X062168Y017306D02*
X065433Y017306D01*
X065832Y017705D02*
X062311Y017705D01*
X062311Y018103D02*
X066230Y018103D01*
X066629Y018502D02*
X062311Y018502D01*
X062311Y018900D02*
X067027Y018900D01*
X067366Y019299D02*
X062175Y019299D01*
X062311Y019697D02*
X067366Y019697D01*
X067366Y020096D02*
X062311Y020096D01*
X062311Y020494D02*
X067366Y020494D01*
X067366Y020893D02*
X062311Y020893D01*
X062183Y021291D02*
X067366Y021291D01*
X067366Y021690D02*
X062311Y021690D01*
X062311Y022088D02*
X064969Y022088D01*
X064101Y022487D02*
X062305Y022487D01*
X062311Y022885D02*
X063703Y022885D01*
X080444Y044006D02*
X084506Y044006D01*
X084500Y044404D02*
X080261Y044404D01*
X080227Y044470D02*
X080227Y044470D01*
X080436Y044061D02*
X080436Y044061D01*
X038410Y057156D02*
X005626Y057156D01*
X005777Y057555D02*
X038177Y057555D01*
X038194Y057953D02*
X005936Y057953D01*
X006095Y058352D02*
X038453Y058352D01*
D21*
X043685Y063839D03*
X041286Y047240D03*
X025246Y042735D03*
X016742Y039800D03*
X014626Y059680D03*
X068269Y059157D03*
D22*
X071082Y053318D02*
X071082Y044081D01*
X071674Y043489D01*
X071082Y042897D01*
X071082Y017317D01*
X062555Y008790D01*
X062081Y008316D01*
X060897Y008316D01*
X059476Y006895D01*
X045739Y006895D01*
X045028Y007606D01*
X031054Y007606D01*
X029396Y009264D01*
X029396Y041239D01*
X031528Y043370D01*
X031765Y043370D01*
X032475Y042660D01*
X032712Y042660D01*
X032765Y042465D01*
X034370Y045811D02*
X034370Y046212D01*
X034370Y045811D02*
X034370Y030817D01*
X032949Y029396D01*
X032949Y022054D01*
X044318Y010685D01*
X044318Y009974D01*
X044501Y009828D01*
X050501Y009828D02*
X050713Y009974D01*
X052371Y011632D01*
X052567Y011674D01*
X053318Y011632D02*
X053355Y011674D01*
X053318Y011632D02*
X053318Y009974D01*
X053501Y009828D01*
X055213Y009974D02*
X055450Y009737D01*
X055501Y009828D01*
X055213Y009974D02*
X055213Y010685D01*
X054265Y011632D01*
X054142Y011674D01*
X055923Y008316D02*
X057344Y008316D01*
X058529Y009501D01*
X058529Y010211D01*
X061608Y009737D02*
X062555Y008790D01*
X062555Y011395D02*
X068476Y017317D01*
X068476Y035791D01*
X053792Y050476D01*
X053639Y050465D01*
X052859Y051875D02*
X047150Y057583D01*
X047150Y065064D01*
X045576Y066639D01*
X045576Y076284D01*
X045969Y076678D01*
X045980Y076732D01*
X057581Y066818D02*
X071082Y053318D01*
X071674Y043489D02*
X072503Y042660D01*
X072639Y042465D01*
X068003Y034133D02*
X068003Y018975D01*
X062318Y013290D01*
X062081Y013290D01*
X061608Y012817D01*
X061501Y012828D01*
X061501Y011828D02*
X061608Y011632D01*
X061845Y011632D01*
X062081Y011395D01*
X062555Y011395D01*
X058529Y015422D02*
X058529Y026791D01*
X060897Y029159D01*
X060897Y033659D01*
X054502Y040054D01*
X053792Y040054D01*
X053639Y039865D01*
X053450Y044591D02*
X052859Y045182D01*
X052859Y051875D01*
X053639Y048465D02*
X053792Y048344D01*
X068003Y034133D01*
X064867Y033568D02*
X053843Y044591D01*
X053450Y044591D01*
X059552Y035733D02*
X064276Y031009D01*
X064276Y026678D01*
X064670Y026284D01*
X064670Y023528D01*
X064867Y023331D01*
X065397Y022764D02*
X065634Y022764D01*
X065655Y022729D01*
X064867Y026875D02*
X064867Y033568D01*
X062081Y028449D02*
X061371Y028449D01*
X029633Y044554D02*
X016606Y044554D01*
X014711Y042660D01*
X014001Y042660D01*
X013765Y042865D01*
D23*
X059552Y035733D03*
X064867Y026875D03*
X064867Y023331D03*
D24*
X044596Y035695D03*
M02*
