G75*
%MOIN*%
%OFA0B0*%
%FSLAX24Y24*%
%IPPOS*%
%LPD*%
%AMOC8*
5,1,8,0,0,1.08239X$1,22.5*
%
%ADD10C,0.0160*%
%ADD11OC8,0.0520*%
%ADD12C,0.0551*%
%ADD13C,0.0554*%
%ADD14C,0.0400*%
%ADD15C,0.0240*%
D10*
X000837Y000694D02*
X016585Y000694D01*
X016585Y008568D01*
X000837Y008568D01*
X000837Y000694D01*
X002305Y003056D02*
X002896Y003646D01*
X003790Y003646D01*
X004183Y003253D01*
X004183Y003131D01*
X004896Y004040D01*
X008317Y004040D01*
X008908Y004631D01*
X013829Y004631D01*
X014616Y005418D01*
X015010Y005418D01*
X015010Y004631D02*
X014616Y004631D01*
X014223Y004237D01*
X009227Y004237D01*
X008120Y003131D01*
X008120Y003253D01*
X007727Y003646D01*
X006833Y003646D01*
X006242Y003056D01*
X005364Y003131D02*
X005242Y003131D01*
X007242Y003056D02*
X007242Y002965D01*
X009179Y003131D02*
X009301Y003131D01*
X010179Y003056D02*
X010770Y003646D01*
X011664Y003646D01*
X012057Y003253D01*
X012057Y003131D01*
X012770Y003843D01*
X015010Y003843D01*
X013238Y003131D02*
X013116Y003131D01*
X011179Y003056D02*
X011179Y002965D01*
X009301Y006131D02*
X008833Y006599D01*
X007242Y006599D01*
X005364Y006131D02*
X004896Y006599D01*
X003305Y006599D01*
X011179Y006599D02*
X012770Y006599D01*
X013238Y006131D01*
D11*
X013238Y006131D03*
X012057Y006131D03*
X011179Y006599D03*
X010179Y006599D03*
X009301Y006131D03*
X008120Y006131D03*
X007242Y006599D03*
X006242Y006599D03*
X005364Y006131D03*
X004183Y006131D03*
X003305Y006599D03*
X002305Y006599D03*
X004183Y003131D03*
X005364Y003131D03*
X008120Y003131D03*
X009301Y003131D03*
X012057Y003131D03*
X013238Y003131D03*
D12*
X011179Y003056D03*
X010179Y003056D03*
X007242Y003056D03*
X006242Y003056D03*
X003305Y003056D03*
X002305Y003056D03*
D13*
X015010Y003843D03*
X015797Y003843D03*
X015797Y004631D03*
X015010Y004631D03*
X015010Y005418D03*
X015797Y005418D03*
D14*
X015797Y005418D01*
X015797Y004631D01*
X015797Y004631D01*
X015797Y005208D01*
X015797Y005418D01*
X015797Y005995D01*
X015752Y005995D01*
X015662Y005981D01*
X015576Y005953D01*
X015519Y005924D01*
X015416Y006026D01*
X015153Y006135D01*
X014867Y006135D01*
X014604Y006026D01*
X014516Y005938D01*
X014513Y005938D01*
X014322Y005859D01*
X013614Y005151D01*
X008804Y005151D01*
X008613Y005072D01*
X008102Y004560D01*
X004967Y004560D01*
X004936Y004569D01*
X004864Y004560D01*
X004792Y004560D01*
X004763Y004548D01*
X004731Y004544D01*
X004668Y004509D01*
X004601Y004481D01*
X004579Y004458D01*
X004550Y004442D01*
X004506Y004386D01*
X004455Y004335D01*
X004443Y004305D01*
X004190Y003982D01*
X004084Y004087D01*
X003893Y004166D01*
X002792Y004166D01*
X002601Y004087D01*
X002455Y003941D01*
X002286Y003771D01*
X002163Y003771D01*
X001900Y003663D01*
X001699Y003461D01*
X001590Y003198D01*
X001590Y002914D01*
X001699Y002651D01*
X001900Y002449D01*
X002163Y002340D01*
X002448Y002340D01*
X002711Y002449D01*
X002805Y002544D01*
X002900Y002449D01*
X003163Y002340D01*
X003229Y002340D01*
X003382Y002187D01*
X003588Y002102D01*
X004885Y002102D01*
X005091Y002187D01*
X005303Y002400D01*
X005555Y002148D01*
X005713Y001991D01*
X005918Y001905D01*
X006854Y001905D01*
X007060Y001991D01*
X007288Y002219D01*
X007319Y002187D01*
X007525Y002102D01*
X008822Y002102D01*
X009028Y002187D01*
X009240Y002400D01*
X009492Y002148D01*
X009650Y001991D01*
X009855Y001905D01*
X010791Y001905D01*
X010997Y001991D01*
X011225Y002219D01*
X011256Y002187D01*
X011462Y002102D01*
X012759Y002102D01*
X012965Y002187D01*
X013208Y002431D01*
X013528Y002431D01*
X013668Y002571D01*
X015196Y002571D01*
X015402Y002656D01*
X015560Y002813D01*
X015872Y003126D01*
X015905Y003126D01*
X015905Y001374D01*
X001517Y001374D01*
X001517Y007888D01*
X015905Y007888D01*
X015905Y005985D01*
X015843Y005995D01*
X015797Y005995D01*
X015797Y005418D01*
X015797Y005418D01*
X015797Y005476D02*
X015797Y005476D01*
X015797Y005874D02*
X015797Y005874D01*
X015905Y006273D02*
X013938Y006273D01*
X013938Y006421D02*
X013528Y006831D01*
X013274Y006831D01*
X013064Y007040D01*
X012873Y007119D01*
X011649Y007119D01*
X011469Y007299D01*
X010889Y007299D01*
X010580Y006990D01*
X010411Y007159D01*
X010179Y007159D01*
X009947Y007159D01*
X009619Y006831D01*
X009619Y006803D01*
X009591Y006831D01*
X009337Y006831D01*
X009127Y007040D01*
X008936Y007119D01*
X007712Y007119D01*
X007532Y007299D01*
X006952Y007299D01*
X006643Y006990D01*
X006474Y007159D01*
X006242Y007159D01*
X006010Y007159D01*
X005682Y006831D01*
X005682Y006803D01*
X005654Y006831D01*
X005400Y006831D01*
X005190Y007040D01*
X004999Y007119D01*
X003775Y007119D01*
X003595Y007299D01*
X003015Y007299D01*
X002706Y006990D01*
X002537Y007159D01*
X002305Y007159D01*
X002073Y007159D01*
X001745Y006831D01*
X001745Y006599D01*
X001745Y006367D01*
X002073Y006039D01*
X002305Y006039D01*
X002305Y006599D01*
X001745Y006599D01*
X002305Y006599D01*
X002305Y006599D01*
X002305Y006599D01*
X002305Y006039D01*
X002537Y006039D01*
X002706Y006208D01*
X003015Y005899D01*
X003595Y005899D01*
X003623Y005927D01*
X003623Y005899D01*
X003951Y005571D01*
X004183Y005571D01*
X004183Y006079D01*
X004183Y006079D01*
X004183Y005571D01*
X004415Y005571D01*
X004675Y005830D01*
X005074Y005431D01*
X005654Y005431D01*
X006064Y005841D01*
X006064Y006039D01*
X006242Y006039D01*
X006242Y006599D01*
X006242Y006599D01*
X006242Y006039D01*
X006474Y006039D01*
X006643Y006208D01*
X006952Y005899D01*
X007532Y005899D01*
X007560Y005927D01*
X007560Y005899D01*
X007888Y005571D01*
X008120Y005571D01*
X008120Y006079D01*
X008120Y006079D01*
X008120Y005571D01*
X008352Y005571D01*
X008612Y005830D01*
X009011Y005431D01*
X009591Y005431D01*
X010001Y005841D01*
X010001Y006039D01*
X010179Y006039D01*
X010179Y006599D01*
X010179Y006599D01*
X010179Y006039D01*
X010411Y006039D01*
X010580Y006208D01*
X010889Y005899D01*
X011469Y005899D01*
X011497Y005927D01*
X011497Y005899D01*
X011825Y005571D01*
X012057Y005571D01*
X012057Y006079D01*
X012057Y006079D01*
X012057Y005571D01*
X012289Y005571D01*
X012549Y005830D01*
X012948Y005431D01*
X013528Y005431D01*
X013938Y005841D01*
X013938Y006421D01*
X013688Y006671D02*
X015905Y006671D01*
X015905Y007070D02*
X012993Y007070D01*
X012057Y005874D02*
X012057Y005874D01*
X011522Y005874D02*
X010001Y005874D01*
X010179Y006273D02*
X010179Y006273D01*
X010179Y006599D02*
X010179Y007159D01*
X010179Y006599D01*
X010179Y006599D01*
X010179Y006671D02*
X010179Y006671D01*
X010179Y007070D02*
X010179Y007070D01*
X009858Y007070D02*
X009056Y007070D01*
X010501Y007070D02*
X010660Y007070D01*
X008120Y005874D02*
X008120Y005874D01*
X007585Y005874D02*
X006064Y005874D01*
X006242Y006273D02*
X006242Y006273D01*
X006242Y006599D02*
X006242Y007159D01*
X006242Y006599D01*
X006242Y006599D01*
X006242Y006671D02*
X006242Y006671D01*
X006242Y007070D02*
X006242Y007070D01*
X005921Y007070D02*
X005119Y007070D01*
X006564Y007070D02*
X006723Y007070D01*
X004183Y005874D02*
X004183Y005874D01*
X003648Y005874D02*
X001517Y005874D01*
X001517Y005476D02*
X005029Y005476D01*
X005699Y005476D02*
X008966Y005476D01*
X009636Y005476D02*
X012903Y005476D01*
X013573Y005476D02*
X013939Y005476D01*
X013938Y005874D02*
X014359Y005874D01*
X015797Y005077D02*
X015797Y005077D01*
X015797Y004679D02*
X015797Y004679D01*
X015831Y003085D02*
X015905Y003085D01*
X015905Y002686D02*
X015432Y002686D01*
X015905Y002288D02*
X013065Y002288D01*
X015905Y001889D02*
X001517Y001889D01*
X001517Y001491D02*
X015905Y001491D01*
X009352Y002288D02*
X009128Y002288D01*
X005415Y002288D02*
X005191Y002288D01*
X003282Y002288D02*
X001517Y002288D01*
X001517Y002686D02*
X001684Y002686D01*
X001590Y003085D02*
X001517Y003085D01*
X001517Y003483D02*
X001721Y003483D01*
X001517Y003882D02*
X002396Y003882D01*
X001517Y004280D02*
X004423Y004280D01*
X001517Y004679D02*
X008220Y004679D01*
X008627Y005077D02*
X001517Y005077D01*
X001517Y006273D02*
X001840Y006273D01*
X002305Y006273D02*
X002305Y006273D01*
X002305Y006599D02*
X002305Y007159D01*
X002305Y006599D01*
X002305Y006599D01*
X002305Y006671D02*
X002305Y006671D01*
X001745Y006671D02*
X001517Y006671D01*
X001517Y007070D02*
X001984Y007070D01*
X002305Y007070D02*
X002305Y007070D01*
X002627Y007070D02*
X002786Y007070D01*
X001517Y007468D02*
X015905Y007468D01*
X015905Y007867D02*
X001517Y007867D01*
D15*
X005242Y003131D02*
X004774Y002662D01*
X003699Y002662D01*
X003305Y003056D01*
X005364Y003131D02*
X006030Y002465D01*
X006742Y002465D01*
X007242Y002965D01*
X007242Y003056D02*
X007636Y002662D01*
X008711Y002662D01*
X009179Y003131D01*
X009301Y003131D02*
X009967Y002465D01*
X010679Y002465D01*
X011179Y002965D01*
X011179Y003056D02*
X011573Y002662D01*
X012648Y002662D01*
X013116Y003131D01*
X013238Y003131D02*
X015085Y003131D01*
X015797Y003843D01*
M02*
