%
M48
M72
T01C0.0315
T02C0.0320
T03C0.0354
%
T01
X7242Y3056
X6242Y3056
X3305Y3056
X2305Y3056
X10179Y3056
X11179Y3056
T02
X3305Y6599
X2305Y6599
X7242Y6599
X6242Y6599
X11179Y6599
X10179Y6599
X5364Y3131
X5364Y6131
X9301Y3131
X9301Y6131
X13238Y3131
X13238Y6131
X8120Y6131
X8120Y3131
X4183Y6131
X4183Y3131
X12057Y6131
X12057Y3131
T03
X15797Y3843
X15010Y3843
X15797Y4631
X15010Y4631
X15797Y5418
X15010Y5418
M30
